M48
; DRILL file {KiCad 8.0.5} date 2025-02-18T14:53:26-0800
; FORMAT={-:-/ absolute / metric / decimal}
; #@! TF.CreationDate,2025-02-18T14:53:26-08:00
; #@! TF.GenerationSoftware,Kicad,Pcbnew,8.0.5
; #@! TF.FileFunction,Plated,1,2,PTH
FMAT,2
METRIC
; #@! TA.AperFunction,Plated,PTH,ViaDrill
T1C0.400
; #@! TA.AperFunction,Plated,PTH,ComponentDrill
T2C1.100
; #@! TA.AperFunction,Plated,PTH,ComponentDrill
T3C1.300
; #@! TA.AperFunction,Plated,PTH,ComponentDrill
T4C1.800
; #@! TA.AperFunction,Plated,PTH,ComponentDrill
T5C5.500
%
G90
G05
T1
X227.33Y-262.255
X228.481Y-264.082
X234.295Y-230.505
X234.295Y-231.936
X234.295Y-233.045
T2
X131.71Y-268.15
X131.71Y-270.15
X131.71Y-272.15
X131.71Y-274.15
X131.71Y-276.15
X133.71Y-268.15
X133.71Y-276.15
X135.71Y-268.15
X135.71Y-276.15
X137.71Y-268.15
X137.71Y-276.15
X139.71Y-268.15
X139.71Y-270.15
X139.71Y-272.15
X139.71Y-274.15
X139.71Y-276.15
X170.72Y-268.08
X170.72Y-270.08
X170.72Y-272.08
X170.72Y-274.08
X170.72Y-276.08
X172.72Y-268.08
X172.72Y-276.08
X174.72Y-268.08
X174.72Y-276.08
X176.72Y-268.08
X176.72Y-276.08
X178.72Y-268.08
X178.72Y-270.08
X178.72Y-272.08
X178.72Y-274.08
X178.72Y-276.08
T3
X119.945Y-267.787
X119.945Y-275.988
X189.675Y-267.875
X189.675Y-276.075
T4
X200.715Y-265.645
X200.715Y-271.145
X204.915Y-265.645
X204.915Y-271.145
X209.115Y-265.645
X209.115Y-271.145
X213.315Y-265.645
X213.315Y-271.145
X217.515Y-265.645
X217.515Y-271.145
X221.715Y-265.645
X221.715Y-271.145
X225.915Y-265.645
X225.915Y-271.145
X230.115Y-265.645
X230.115Y-271.145
X234.315Y-265.645
X234.315Y-271.145
T5
X103.689Y-119.75
X103.689Y-143.884
X103.689Y-168.018
X103.689Y-192.153
X103.689Y-216.287
X103.689Y-240.421
X148.629Y-119.75
X148.629Y-143.884
X148.629Y-168.018
X148.629Y-192.153
X148.629Y-216.287
X148.629Y-240.421
X181.189Y-119.75
X181.189Y-143.884
X181.189Y-168.018
X181.189Y-192.153
X181.189Y-216.287
X181.189Y-240.421
X226.129Y-119.75
X226.129Y-143.884
X226.129Y-168.018
X226.129Y-192.153
X226.129Y-216.287
X226.129Y-240.421
M30
