G04 #@! TF.GenerationSoftware,KiCad,Pcbnew,8.0.5*
G04 #@! TF.CreationDate,2025-02-18T14:52:23-08:00*
G04 #@! TF.ProjectId,URBAN_CELL_BOARD,55524241-4e5f-4434-954c-4c5f424f4152,rev?*
G04 #@! TF.SameCoordinates,Original*
G04 #@! TF.FileFunction,Copper,L1,Top*
G04 #@! TF.FilePolarity,Positive*
%FSLAX46Y46*%
G04 Gerber Fmt 4.6, Leading zero omitted, Abs format (unit mm)*
G04 Created by KiCad (PCBNEW 8.0.5) date 2025-02-18 14:52:23*
%MOMM*%
%LPD*%
G01*
G04 APERTURE LIST*
G04 Aperture macros list*
%AMRoundRect*
0 Rectangle with rounded corners*
0 $1 Rounding radius*
0 $2 $3 $4 $5 $6 $7 $8 $9 X,Y pos of 4 corners*
0 Add a 4 corners polygon primitive as box body*
4,1,4,$2,$3,$4,$5,$6,$7,$8,$9,$2,$3,0*
0 Add four circle primitives for the rounded corners*
1,1,$1+$1,$2,$3*
1,1,$1+$1,$4,$5*
1,1,$1+$1,$6,$7*
1,1,$1+$1,$8,$9*
0 Add four rect primitives between the rounded corners*
20,1,$1+$1,$2,$3,$4,$5,0*
20,1,$1+$1,$4,$5,$6,$7,0*
20,1,$1+$1,$6,$7,$8,$9,0*
20,1,$1+$1,$8,$9,$2,$3,0*%
G04 Aperture macros list end*
G04 #@! TA.AperFunction,ComponentPad*
%ADD10C,9.000000*%
G04 #@! TD*
G04 #@! TA.AperFunction,ComponentPad*
%ADD11C,1.950000*%
G04 #@! TD*
G04 #@! TA.AperFunction,ComponentPad*
%ADD12RoundRect,0.250001X1.099999X1.599999X-1.099999X1.599999X-1.099999X-1.599999X1.099999X-1.599999X0*%
G04 #@! TD*
G04 #@! TA.AperFunction,ComponentPad*
%ADD13O,2.700000X3.700000*%
G04 #@! TD*
G04 #@! TA.AperFunction,ComponentPad*
%ADD14C,1.200000*%
G04 #@! TD*
G04 #@! TA.AperFunction,SMDPad,CuDef*
%ADD15R,10.000000X10.000000*%
G04 #@! TD*
G04 #@! TA.AperFunction,ViaPad*
%ADD16C,0.800000*%
G04 #@! TD*
G04 #@! TA.AperFunction,Conductor*
%ADD17C,0.250000*%
G04 #@! TD*
G04 #@! TA.AperFunction,Conductor*
%ADD18C,16.000000*%
G04 #@! TD*
G04 #@! TA.AperFunction,Conductor*
%ADD19C,3.000000*%
G04 #@! TD*
G04 APERTURE END LIST*
D10*
X148629000Y-119750000D03*
X103689000Y-119750000D03*
X226129000Y-119750000D03*
X181189000Y-119750000D03*
D11*
X119945000Y-267787500D03*
X119945000Y-275987500D03*
D10*
X148629000Y-143884000D03*
X103689000Y-143884000D03*
X226129000Y-168018000D03*
X181189000Y-168018000D03*
D11*
X189675000Y-267875000D03*
X189675000Y-276075000D03*
D12*
X234315000Y-271145000D03*
D13*
X230115000Y-271145000D03*
X225915000Y-271145000D03*
X221715000Y-271145000D03*
X217515000Y-271145000D03*
X213315000Y-271145000D03*
X209115000Y-271145000D03*
X204915000Y-271145000D03*
X200715000Y-271145000D03*
X234315000Y-265645000D03*
X230115000Y-265645000D03*
X225915000Y-265645000D03*
X221715000Y-265645000D03*
X217515000Y-265645000D03*
X213315000Y-265645000D03*
X209115000Y-265645000D03*
X204915000Y-265645000D03*
X200715000Y-265645000D03*
D10*
X148629000Y-192153000D03*
X103689000Y-192153000D03*
X226129000Y-192153000D03*
X181189000Y-192153000D03*
X148629000Y-168018000D03*
X103689000Y-168018000D03*
X226129000Y-216287000D03*
X181189000Y-216287000D03*
D14*
X131710000Y-268150000D03*
X131710000Y-270150000D03*
X131710000Y-272150000D03*
X131710000Y-274150000D03*
X131710000Y-276150000D03*
X133710000Y-268150000D03*
X133710000Y-276150000D03*
D15*
X135710000Y-272150000D03*
D14*
X135710001Y-268150000D03*
X135710001Y-276150000D03*
X137710000Y-268150000D03*
X137710000Y-276150000D03*
X139710000Y-268150000D03*
X139710000Y-270150000D03*
X139710000Y-272150000D03*
X139710000Y-274150000D03*
X139710000Y-276150000D03*
D10*
X148629000Y-240421000D03*
X103689000Y-240421000D03*
D14*
X178720000Y-276080000D03*
X178720000Y-274080000D03*
X178720000Y-272080000D03*
X178720000Y-270080000D03*
X178720000Y-268080000D03*
X176720000Y-276080000D03*
X176720000Y-268080000D03*
X174720001Y-276080000D03*
X174720001Y-268080000D03*
D15*
X174720000Y-272080000D03*
D14*
X172720000Y-276080000D03*
X172720000Y-268080000D03*
X170720000Y-276080000D03*
X170720000Y-274080000D03*
X170720000Y-272080000D03*
X170720000Y-270080000D03*
X170720000Y-268080000D03*
D10*
X226129000Y-240421000D03*
X181189000Y-240421000D03*
X148629000Y-216287000D03*
X103689000Y-216287000D03*
X226129000Y-143884000D03*
X181189000Y-143884000D03*
D16*
X227330000Y-262255000D03*
X234295500Y-233045000D03*
X234295500Y-231935842D03*
X228480577Y-264082355D03*
X234295500Y-230505000D03*
D17*
X233260000Y-265645000D02*
X234315000Y-265645000D01*
X227965000Y-262890000D02*
X230505000Y-262890000D01*
X156601000Y-240421000D02*
X148629000Y-240421000D01*
X230505000Y-262890000D02*
X233260000Y-265645000D01*
X166370000Y-250190000D02*
X156601000Y-240421000D01*
X205710672Y-232096000D02*
X187616672Y-250190000D01*
X187616672Y-250190000D02*
X166370000Y-250190000D01*
X231092328Y-233045000D02*
X230143328Y-232096000D01*
X230143328Y-232096000D02*
X205710672Y-232096000D01*
D18*
X127823000Y-240421000D02*
X103689000Y-216287000D01*
D17*
X227330000Y-262255000D02*
X227965000Y-262890000D01*
X234295500Y-233045000D02*
X231092328Y-233045000D01*
D18*
X148629000Y-240421000D02*
X127823000Y-240421000D01*
X135250000Y-272000000D02*
X142250000Y-272000000D01*
X103689000Y-240439000D02*
X135250000Y-272000000D01*
X103689000Y-240421000D02*
X103689000Y-240439000D01*
X148629000Y-216287000D02*
X127823000Y-216287000D01*
D17*
X233636342Y-232595000D02*
X231278724Y-232595000D01*
X228480577Y-264082355D02*
X228440000Y-264122932D01*
X228440000Y-269470000D02*
X230115000Y-271145000D01*
X187430276Y-249740000D02*
X169730000Y-249740000D01*
X231278724Y-232595000D02*
X230329724Y-231646000D01*
X205524276Y-231646000D02*
X187430276Y-249740000D01*
D18*
X127823000Y-216287000D02*
X103689000Y-192153000D01*
D17*
X148629000Y-228639000D02*
X148629000Y-216287000D01*
X230329724Y-231646000D02*
X205524276Y-231646000D01*
X234295500Y-231935842D02*
X233636342Y-232595000D01*
X169730000Y-249740000D02*
X148629000Y-228639000D01*
X228440000Y-264122932D02*
X228440000Y-269470000D01*
D18*
X148629000Y-143884000D02*
X128573000Y-143884000D01*
D17*
X238655000Y-248391396D02*
X238655000Y-118663880D01*
D18*
X119979500Y-135290500D02*
X103689000Y-119000000D01*
X128573000Y-143884000D02*
X119979500Y-135290500D01*
D17*
X230481120Y-110490000D02*
X146115672Y-110490000D01*
X225915000Y-265645000D02*
X225915000Y-261131396D01*
X146115672Y-110490000D02*
X121315172Y-135290500D01*
X121315172Y-135290500D02*
X119979500Y-135290500D01*
X225915000Y-261131396D02*
X238655000Y-248391396D01*
X238655000Y-118663880D02*
X230481120Y-110490000D01*
X202440672Y-111425000D02*
X148629000Y-165236672D01*
D18*
X148629000Y-168018000D02*
X127823000Y-168018000D01*
D17*
X223520000Y-260986396D02*
X237755000Y-246751396D01*
X225915000Y-271145000D02*
X223520000Y-268750000D01*
X230143328Y-111425000D02*
X202440672Y-111425000D01*
D18*
X127823000Y-168018000D02*
X103689000Y-143884000D01*
D17*
X148629000Y-165236672D02*
X148629000Y-168018000D01*
X237755000Y-246751396D02*
X237755000Y-119036672D01*
X237755000Y-119036672D02*
X230143328Y-111425000D01*
X223520000Y-268750000D02*
X223520000Y-260986396D01*
D18*
X127824000Y-192153000D02*
X103689000Y-168018000D01*
D17*
X233660500Y-231140000D02*
X205393880Y-231140000D01*
X148629000Y-195619000D02*
X148629000Y-192153000D01*
X205393880Y-231140000D02*
X187243880Y-249290000D01*
X166370000Y-213360000D02*
X148629000Y-195619000D01*
X187243880Y-249290000D02*
X178805000Y-249290000D01*
X234295500Y-230505000D02*
X233660500Y-231140000D01*
X166370000Y-236855000D02*
X166370000Y-213360000D01*
D18*
X148629000Y-192153000D02*
X127824000Y-192153000D01*
D17*
X178805000Y-249290000D02*
X166370000Y-236855000D01*
X221715000Y-271145000D02*
X223890000Y-273320000D01*
X223890000Y-273320000D02*
X226608808Y-273320000D01*
X202254276Y-110975000D02*
X193479276Y-119750000D01*
X225423808Y-267785000D02*
X224605000Y-267785000D01*
X193479276Y-119750000D02*
X181755000Y-119750000D01*
X224605000Y-267785000D02*
X224155698Y-267335698D01*
D18*
X148629000Y-119750000D02*
X181755000Y-119750000D01*
D17*
X238205000Y-118850276D02*
X230329724Y-110975000D01*
X227590000Y-272338808D02*
X227590000Y-269951192D01*
X227590000Y-269951192D02*
X225423808Y-267785000D01*
X230329724Y-110975000D02*
X202254276Y-110975000D01*
X224155000Y-261620000D02*
X238205000Y-247570000D01*
X224155698Y-267335698D02*
X224155698Y-261620698D01*
X226608808Y-273320000D02*
X227590000Y-272338808D01*
X224155698Y-261620698D02*
X224155000Y-261620000D01*
X238205000Y-247570000D02*
X238205000Y-118850276D01*
X204915000Y-271145000D02*
X204915000Y-269845000D01*
X200715000Y-271145000D02*
X204915000Y-271145000D01*
D18*
X209159000Y-240421000D02*
X226695000Y-240421000D01*
D17*
X191795000Y-265645000D02*
X188000000Y-269440000D01*
X200715000Y-265645000D02*
X200715000Y-271145000D01*
X204915000Y-269845000D02*
X209115000Y-265645000D01*
X200715000Y-265645000D02*
X209115000Y-265645000D01*
X200715000Y-265645000D02*
X191795000Y-265645000D01*
D19*
X173397500Y-272270000D02*
X171450000Y-274217500D01*
D18*
X177580000Y-272000000D02*
X209159000Y-240421000D01*
X166000000Y-272000000D02*
X177580000Y-272000000D01*
D19*
X177310000Y-272270000D02*
X173397500Y-272270000D01*
D18*
X205889000Y-216287000D02*
X181755000Y-240421000D01*
X226695000Y-216287000D02*
X205889000Y-216287000D01*
D17*
X211290000Y-264801192D02*
X227345192Y-248746000D01*
X235020000Y-243869328D02*
X235020000Y-224612000D01*
X235020000Y-224612000D02*
X226695000Y-216287000D01*
X211290000Y-268970000D02*
X211290000Y-264801192D01*
X230143328Y-248746000D02*
X235020000Y-243869328D01*
X209115000Y-271145000D02*
X211290000Y-268970000D01*
X227345192Y-248746000D02*
X230143328Y-248746000D01*
X236855000Y-182245000D02*
X236855000Y-150495000D01*
X236855000Y-150495000D02*
X236855000Y-149225000D01*
X236855000Y-149860000D02*
X236855000Y-149225000D01*
X236855000Y-149225000D02*
X236855000Y-129910000D01*
X236855000Y-129910000D02*
X226695000Y-119750000D01*
X236855000Y-187325000D02*
X236855000Y-149860000D01*
X236855000Y-247015000D02*
X236855000Y-187325000D01*
X221715000Y-262155000D02*
X236855000Y-247015000D01*
X236820000Y-182245000D02*
X236855000Y-182245000D01*
D18*
X226695000Y-119750000D02*
X205889000Y-119750000D01*
D17*
X236855000Y-187325000D02*
X236820000Y-187290000D01*
D18*
X205889000Y-119750000D02*
X181755000Y-143884000D01*
D17*
X236820000Y-187290000D02*
X236820000Y-182245000D01*
X221715000Y-265645000D02*
X221715000Y-262155000D01*
X236855000Y-150495000D02*
X236855000Y-149860000D01*
X236370000Y-246790000D02*
X236370000Y-153559000D01*
D18*
X226695000Y-143884000D02*
X205889000Y-143884000D01*
D17*
X217515000Y-265645000D02*
X236370000Y-246790000D01*
X236370000Y-153559000D02*
X226695000Y-143884000D01*
D18*
X205889000Y-143884000D02*
X181755000Y-168018000D01*
D17*
X217515000Y-271145000D02*
X217515000Y-265645000D01*
D18*
X205890000Y-168018000D02*
X181755000Y-192153000D01*
D17*
X215490000Y-268970000D02*
X215490000Y-264672120D01*
X235920000Y-177243000D02*
X226695000Y-168018000D01*
X213315000Y-271145000D02*
X215490000Y-268970000D01*
X235920000Y-244242120D02*
X235920000Y-177243000D01*
X215490000Y-264672120D02*
X235920000Y-244242120D01*
D18*
X226695000Y-168018000D02*
X205890000Y-168018000D01*
X205889000Y-192153000D02*
X181755000Y-216287000D01*
D17*
X213880724Y-265645000D02*
X235470000Y-244055724D01*
X235470000Y-200928000D02*
X226695000Y-192153000D01*
X235470000Y-244055724D02*
X235470000Y-200928000D01*
D18*
X226695000Y-192153000D02*
X205889000Y-192153000D01*
D17*
X213315000Y-265645000D02*
X213880724Y-265645000D01*
G04 #@! TA.AperFunction,Conductor*
G36*
X196612121Y-253020002D02*
G01*
X196658614Y-253073658D01*
X196670000Y-253126000D01*
X196670000Y-280909000D01*
X196649998Y-280977121D01*
X196596342Y-281023614D01*
X196544000Y-281035000D01*
X156376000Y-281035000D01*
X156307879Y-281014998D01*
X156261386Y-280961342D01*
X156250000Y-280909000D01*
X156250000Y-271911494D01*
X171719500Y-271911494D01*
X171719500Y-272248505D01*
X171757233Y-272583398D01*
X171801590Y-272777737D01*
X171832224Y-272911954D01*
X171832226Y-272911960D01*
X171832225Y-272911960D01*
X171943524Y-273230033D01*
X171943535Y-273230060D01*
X172089751Y-273533681D01*
X172089756Y-273533690D01*
X172269051Y-273819036D01*
X172479177Y-274082526D01*
X172717473Y-274320822D01*
X172980963Y-274530948D01*
X173266309Y-274710243D01*
X173266314Y-274710246D01*
X173569949Y-274856469D01*
X173569965Y-274856474D01*
X173569966Y-274856475D01*
X173888039Y-274967774D01*
X173888042Y-274967774D01*
X173888046Y-274967776D01*
X174131239Y-275023282D01*
X174216601Y-275042766D01*
X174216602Y-275042766D01*
X174216606Y-275042767D01*
X174437492Y-275067654D01*
X174551494Y-275080500D01*
X174551496Y-275080500D01*
X174888506Y-275080500D01*
X174985925Y-275069523D01*
X175223394Y-275042767D01*
X175551954Y-274967776D01*
X175870051Y-274856469D01*
X176173686Y-274710246D01*
X176459039Y-274530946D01*
X176722523Y-274320825D01*
X176960825Y-274082523D01*
X177170946Y-273819039D01*
X177350246Y-273533686D01*
X177496469Y-273230051D01*
X177607776Y-272911954D01*
X177682767Y-272583394D01*
X177720500Y-272248504D01*
X177720500Y-271911496D01*
X177682767Y-271576606D01*
X177607776Y-271248046D01*
X177496469Y-270929949D01*
X177350246Y-270626314D01*
X177350243Y-270626309D01*
X177170948Y-270340963D01*
X176960822Y-270077473D01*
X176722526Y-269839177D01*
X176459036Y-269629051D01*
X176173690Y-269449756D01*
X176173681Y-269449751D01*
X175870060Y-269303535D01*
X175870055Y-269303533D01*
X175870051Y-269303531D01*
X175870045Y-269303528D01*
X175870033Y-269303524D01*
X175551960Y-269192225D01*
X175223398Y-269117233D01*
X174888506Y-269079500D01*
X174888504Y-269079500D01*
X174551496Y-269079500D01*
X174551494Y-269079500D01*
X174216601Y-269117233D01*
X173888039Y-269192225D01*
X173569966Y-269303524D01*
X173569939Y-269303535D01*
X173266318Y-269449751D01*
X173266309Y-269449756D01*
X172980963Y-269629051D01*
X172717473Y-269839177D01*
X172479177Y-270077473D01*
X172269051Y-270340963D01*
X172089756Y-270626309D01*
X172089751Y-270626318D01*
X171943535Y-270929939D01*
X171943524Y-270929966D01*
X171832225Y-271248039D01*
X171757233Y-271576601D01*
X171719500Y-271911494D01*
X156250000Y-271911494D01*
X156250000Y-253126000D01*
X156270002Y-253057879D01*
X156323658Y-253011386D01*
X156376000Y-253000000D01*
X196544000Y-253000000D01*
X196612121Y-253020002D01*
G37*
G04 #@! TD.AperFunction*
G04 #@! TA.AperFunction,Conductor*
G36*
X153477121Y-252985002D02*
G01*
X153523614Y-253038658D01*
X153535000Y-253091000D01*
X153535000Y-281458000D01*
X153514998Y-281526121D01*
X153461342Y-281572614D01*
X153409000Y-281584000D01*
X130945563Y-281584000D01*
X130942491Y-281583963D01*
X112622928Y-281137144D01*
X112555315Y-281115486D01*
X112510144Y-281060713D01*
X112500000Y-281011181D01*
X112500000Y-271981494D01*
X132709500Y-271981494D01*
X132709500Y-272318505D01*
X132747233Y-272653398D01*
X132791590Y-272847737D01*
X132822224Y-272981954D01*
X132822226Y-272981960D01*
X132822225Y-272981960D01*
X132933524Y-273300033D01*
X132933535Y-273300060D01*
X133079751Y-273603681D01*
X133079756Y-273603690D01*
X133259051Y-273889036D01*
X133469177Y-274152526D01*
X133707473Y-274390822D01*
X133970963Y-274600948D01*
X134256309Y-274780243D01*
X134256314Y-274780246D01*
X134559949Y-274926469D01*
X134559965Y-274926474D01*
X134559966Y-274926475D01*
X134878039Y-275037774D01*
X134878042Y-275037774D01*
X134878046Y-275037776D01*
X135121239Y-275093282D01*
X135206601Y-275112766D01*
X135206602Y-275112766D01*
X135206606Y-275112767D01*
X135427492Y-275137654D01*
X135541494Y-275150500D01*
X135541496Y-275150500D01*
X135878506Y-275150500D01*
X135975925Y-275139523D01*
X136213394Y-275112767D01*
X136541954Y-275037776D01*
X136860051Y-274926469D01*
X137163686Y-274780246D01*
X137449039Y-274600946D01*
X137712523Y-274390825D01*
X137950825Y-274152523D01*
X138160946Y-273889039D01*
X138340246Y-273603686D01*
X138486469Y-273300051D01*
X138597776Y-272981954D01*
X138672767Y-272653394D01*
X138710500Y-272318504D01*
X138710500Y-271981496D01*
X138672767Y-271646606D01*
X138597776Y-271318046D01*
X138486469Y-270999949D01*
X138340246Y-270696314D01*
X138340243Y-270696309D01*
X138160948Y-270410963D01*
X137950822Y-270147473D01*
X137712526Y-269909177D01*
X137449036Y-269699051D01*
X137163690Y-269519756D01*
X137163681Y-269519751D01*
X136860060Y-269373535D01*
X136860055Y-269373533D01*
X136860051Y-269373531D01*
X136860045Y-269373528D01*
X136860033Y-269373524D01*
X136541960Y-269262225D01*
X136213398Y-269187233D01*
X135878506Y-269149500D01*
X135878504Y-269149500D01*
X135541496Y-269149500D01*
X135541494Y-269149500D01*
X135206601Y-269187233D01*
X134878039Y-269262225D01*
X134559966Y-269373524D01*
X134559939Y-269373535D01*
X134256318Y-269519751D01*
X134256309Y-269519756D01*
X133970963Y-269699051D01*
X133707473Y-269909177D01*
X133469177Y-270147473D01*
X133259051Y-270410963D01*
X133079756Y-270696309D01*
X133079751Y-270696318D01*
X132933535Y-270999939D01*
X132933524Y-270999966D01*
X132822225Y-271318039D01*
X132747233Y-271646601D01*
X132709500Y-271981494D01*
X112500000Y-271981494D01*
X112500000Y-253091000D01*
X112520002Y-253022879D01*
X112573658Y-252976386D01*
X112626000Y-252965000D01*
X153409000Y-252965000D01*
X153477121Y-252985002D01*
G37*
G04 #@! TD.AperFunction*
M02*
