G04 #@! TF.GenerationSoftware,KiCad,Pcbnew,8.0.5*
G04 #@! TF.CreationDate,2025-02-18T14:52:24-08:00*
G04 #@! TF.ProjectId,URBAN_CELL_BOARD,55524241-4e5f-4434-954c-4c5f424f4152,rev?*
G04 #@! TF.SameCoordinates,Original*
G04 #@! TF.FileFunction,Legend,Top*
G04 #@! TF.FilePolarity,Positive*
%FSLAX46Y46*%
G04 Gerber Fmt 4.6, Leading zero omitted, Abs format (unit mm)*
G04 Created by KiCad (PCBNEW 8.0.5) date 2025-02-18 14:52:24*
%MOMM*%
%LPD*%
G01*
G04 APERTURE LIST*
G04 Aperture macros list*
%AMRoundRect*
0 Rectangle with rounded corners*
0 $1 Rounding radius*
0 $2 $3 $4 $5 $6 $7 $8 $9 X,Y pos of 4 corners*
0 Add a 4 corners polygon primitive as box body*
4,1,4,$2,$3,$4,$5,$6,$7,$8,$9,$2,$3,0*
0 Add four circle primitives for the rounded corners*
1,1,$1+$1,$2,$3*
1,1,$1+$1,$4,$5*
1,1,$1+$1,$6,$7*
1,1,$1+$1,$8,$9*
0 Add four rect primitives between the rounded corners*
20,1,$1+$1,$2,$3,$4,$5,0*
20,1,$1+$1,$4,$5,$6,$7,0*
20,1,$1+$1,$6,$7,$8,$9,0*
20,1,$1+$1,$8,$9,$2,$3,0*%
G04 Aperture macros list end*
%ADD10C,0.300000*%
%ADD11C,0.150000*%
%ADD12C,1.000000*%
%ADD13C,0.120000*%
%ADD14C,0.127000*%
%ADD15C,0.200000*%
%ADD16C,0.000000*%
%ADD17C,9.000000*%
%ADD18C,2.154000*%
%ADD19C,3.000000*%
%ADD20RoundRect,0.250001X1.099999X1.599999X-1.099999X1.599999X-1.099999X-1.599999X1.099999X-1.599999X0*%
%ADD21O,2.700000X3.700000*%
%ADD22C,7.500000*%
%ADD23C,5.500000*%
%ADD24C,1.200000*%
%ADD25R,10.000000X10.000000*%
G04 APERTURE END LIST*
D10*
X134271177Y-263774876D02*
X134080701Y-263679638D01*
X134080701Y-263679638D02*
X133794987Y-263679638D01*
X133794987Y-263679638D02*
X133509272Y-263774876D01*
X133509272Y-263774876D02*
X133318796Y-263965352D01*
X133318796Y-263965352D02*
X133223558Y-264155828D01*
X133223558Y-264155828D02*
X133128320Y-264536780D01*
X133128320Y-264536780D02*
X133128320Y-264822495D01*
X133128320Y-264822495D02*
X133223558Y-265203447D01*
X133223558Y-265203447D02*
X133318796Y-265393923D01*
X133318796Y-265393923D02*
X133509272Y-265584400D01*
X133509272Y-265584400D02*
X133794987Y-265679638D01*
X133794987Y-265679638D02*
X133985463Y-265679638D01*
X133985463Y-265679638D02*
X134271177Y-265584400D01*
X134271177Y-265584400D02*
X134366415Y-265489161D01*
X134366415Y-265489161D02*
X134366415Y-264822495D01*
X134366415Y-264822495D02*
X133985463Y-264822495D01*
X135223558Y-265679638D02*
X135223558Y-263679638D01*
X135223558Y-263679638D02*
X136366415Y-265679638D01*
X136366415Y-265679638D02*
X136366415Y-263679638D01*
X137318796Y-265679638D02*
X137318796Y-263679638D01*
X137318796Y-263679638D02*
X137794986Y-263679638D01*
X137794986Y-263679638D02*
X138080701Y-263774876D01*
X138080701Y-263774876D02*
X138271177Y-263965352D01*
X138271177Y-263965352D02*
X138366415Y-264155828D01*
X138366415Y-264155828D02*
X138461653Y-264536780D01*
X138461653Y-264536780D02*
X138461653Y-264822495D01*
X138461653Y-264822495D02*
X138366415Y-265203447D01*
X138366415Y-265203447D02*
X138271177Y-265393923D01*
X138271177Y-265393923D02*
X138080701Y-265584400D01*
X138080701Y-265584400D02*
X137794986Y-265679638D01*
X137794986Y-265679638D02*
X137318796Y-265679638D01*
X170843558Y-264917733D02*
X172367368Y-264917733D01*
X171605463Y-265679638D02*
X171605463Y-264155828D01*
X174176891Y-264346304D02*
X174176891Y-265679638D01*
X173700700Y-263584400D02*
X173224510Y-265012971D01*
X173224510Y-265012971D02*
X174462605Y-265012971D01*
X175510224Y-264536780D02*
X175319748Y-264441542D01*
X175319748Y-264441542D02*
X175224510Y-264346304D01*
X175224510Y-264346304D02*
X175129272Y-264155828D01*
X175129272Y-264155828D02*
X175129272Y-264060590D01*
X175129272Y-264060590D02*
X175224510Y-263870114D01*
X175224510Y-263870114D02*
X175319748Y-263774876D01*
X175319748Y-263774876D02*
X175510224Y-263679638D01*
X175510224Y-263679638D02*
X175891177Y-263679638D01*
X175891177Y-263679638D02*
X176081653Y-263774876D01*
X176081653Y-263774876D02*
X176176891Y-263870114D01*
X176176891Y-263870114D02*
X176272129Y-264060590D01*
X176272129Y-264060590D02*
X176272129Y-264155828D01*
X176272129Y-264155828D02*
X176176891Y-264346304D01*
X176176891Y-264346304D02*
X176081653Y-264441542D01*
X176081653Y-264441542D02*
X175891177Y-264536780D01*
X175891177Y-264536780D02*
X175510224Y-264536780D01*
X175510224Y-264536780D02*
X175319748Y-264632019D01*
X175319748Y-264632019D02*
X175224510Y-264727257D01*
X175224510Y-264727257D02*
X175129272Y-264917733D01*
X175129272Y-264917733D02*
X175129272Y-265298685D01*
X175129272Y-265298685D02*
X175224510Y-265489161D01*
X175224510Y-265489161D02*
X175319748Y-265584400D01*
X175319748Y-265584400D02*
X175510224Y-265679638D01*
X175510224Y-265679638D02*
X175891177Y-265679638D01*
X175891177Y-265679638D02*
X176081653Y-265584400D01*
X176081653Y-265584400D02*
X176176891Y-265489161D01*
X176176891Y-265489161D02*
X176272129Y-265298685D01*
X176272129Y-265298685D02*
X176272129Y-264917733D01*
X176272129Y-264917733D02*
X176176891Y-264727257D01*
X176176891Y-264727257D02*
X176081653Y-264632019D01*
X176081653Y-264632019D02*
X175891177Y-264536780D01*
X176843558Y-263679638D02*
X177510224Y-265679638D01*
X177510224Y-265679638D02*
X178176891Y-263679638D01*
X205321653Y-259657971D02*
X205250225Y-259729400D01*
X205250225Y-259729400D02*
X205035939Y-259800828D01*
X205035939Y-259800828D02*
X204893082Y-259800828D01*
X204893082Y-259800828D02*
X204678796Y-259729400D01*
X204678796Y-259729400D02*
X204535939Y-259586542D01*
X204535939Y-259586542D02*
X204464510Y-259443685D01*
X204464510Y-259443685D02*
X204393082Y-259157971D01*
X204393082Y-259157971D02*
X204393082Y-258943685D01*
X204393082Y-258943685D02*
X204464510Y-258657971D01*
X204464510Y-258657971D02*
X204535939Y-258515114D01*
X204535939Y-258515114D02*
X204678796Y-258372257D01*
X204678796Y-258372257D02*
X204893082Y-258300828D01*
X204893082Y-258300828D02*
X205035939Y-258300828D01*
X205035939Y-258300828D02*
X205250225Y-258372257D01*
X205250225Y-258372257D02*
X205321653Y-258443685D01*
X205964510Y-259015114D02*
X206464510Y-259015114D01*
X206678796Y-259800828D02*
X205964510Y-259800828D01*
X205964510Y-259800828D02*
X205964510Y-258300828D01*
X205964510Y-258300828D02*
X206678796Y-258300828D01*
X208035939Y-259800828D02*
X207321653Y-259800828D01*
X207321653Y-259800828D02*
X207321653Y-258300828D01*
X209250225Y-259800828D02*
X208535939Y-259800828D01*
X208535939Y-259800828D02*
X208535939Y-258300828D01*
X211393082Y-259015114D02*
X211607368Y-259086542D01*
X211607368Y-259086542D02*
X211678797Y-259157971D01*
X211678797Y-259157971D02*
X211750225Y-259300828D01*
X211750225Y-259300828D02*
X211750225Y-259515114D01*
X211750225Y-259515114D02*
X211678797Y-259657971D01*
X211678797Y-259657971D02*
X211607368Y-259729400D01*
X211607368Y-259729400D02*
X211464511Y-259800828D01*
X211464511Y-259800828D02*
X210893082Y-259800828D01*
X210893082Y-259800828D02*
X210893082Y-258300828D01*
X210893082Y-258300828D02*
X211393082Y-258300828D01*
X211393082Y-258300828D02*
X211535940Y-258372257D01*
X211535940Y-258372257D02*
X211607368Y-258443685D01*
X211607368Y-258443685D02*
X211678797Y-258586542D01*
X211678797Y-258586542D02*
X211678797Y-258729400D01*
X211678797Y-258729400D02*
X211607368Y-258872257D01*
X211607368Y-258872257D02*
X211535940Y-258943685D01*
X211535940Y-258943685D02*
X211393082Y-259015114D01*
X211393082Y-259015114D02*
X210893082Y-259015114D01*
X212321654Y-259372257D02*
X213035940Y-259372257D01*
X212178797Y-259800828D02*
X212678797Y-258300828D01*
X212678797Y-258300828D02*
X213178797Y-259800828D01*
X214393082Y-259800828D02*
X213678796Y-259800828D01*
X213678796Y-259800828D02*
X213678796Y-258300828D01*
X214821654Y-259372257D02*
X215535940Y-259372257D01*
X214678797Y-259800828D02*
X215178797Y-258300828D01*
X215178797Y-258300828D02*
X215678797Y-259800828D01*
X216178796Y-259800828D02*
X216178796Y-258300828D01*
X216178796Y-258300828D02*
X217035939Y-259800828D01*
X217035939Y-259800828D02*
X217035939Y-258300828D01*
X218607368Y-259657971D02*
X218535940Y-259729400D01*
X218535940Y-259729400D02*
X218321654Y-259800828D01*
X218321654Y-259800828D02*
X218178797Y-259800828D01*
X218178797Y-259800828D02*
X217964511Y-259729400D01*
X217964511Y-259729400D02*
X217821654Y-259586542D01*
X217821654Y-259586542D02*
X217750225Y-259443685D01*
X217750225Y-259443685D02*
X217678797Y-259157971D01*
X217678797Y-259157971D02*
X217678797Y-258943685D01*
X217678797Y-258943685D02*
X217750225Y-258657971D01*
X217750225Y-258657971D02*
X217821654Y-258515114D01*
X217821654Y-258515114D02*
X217964511Y-258372257D01*
X217964511Y-258372257D02*
X218178797Y-258300828D01*
X218178797Y-258300828D02*
X218321654Y-258300828D01*
X218321654Y-258300828D02*
X218535940Y-258372257D01*
X218535940Y-258372257D02*
X218607368Y-258443685D01*
X219250225Y-259800828D02*
X219250225Y-258300828D01*
X219964511Y-259800828D02*
X219964511Y-258300828D01*
X219964511Y-258300828D02*
X220821654Y-259800828D01*
X220821654Y-259800828D02*
X220821654Y-258300828D01*
X222321655Y-258372257D02*
X222178798Y-258300828D01*
X222178798Y-258300828D02*
X221964512Y-258300828D01*
X221964512Y-258300828D02*
X221750226Y-258372257D01*
X221750226Y-258372257D02*
X221607369Y-258515114D01*
X221607369Y-258515114D02*
X221535940Y-258657971D01*
X221535940Y-258657971D02*
X221464512Y-258943685D01*
X221464512Y-258943685D02*
X221464512Y-259157971D01*
X221464512Y-259157971D02*
X221535940Y-259443685D01*
X221535940Y-259443685D02*
X221607369Y-259586542D01*
X221607369Y-259586542D02*
X221750226Y-259729400D01*
X221750226Y-259729400D02*
X221964512Y-259800828D01*
X221964512Y-259800828D02*
X222107369Y-259800828D01*
X222107369Y-259800828D02*
X222321655Y-259729400D01*
X222321655Y-259729400D02*
X222393083Y-259657971D01*
X222393083Y-259657971D02*
X222393083Y-259157971D01*
X222393083Y-259157971D02*
X222107369Y-259157971D01*
X224893083Y-259800828D02*
X224178797Y-259800828D01*
X224178797Y-259800828D02*
X224178797Y-258300828D01*
X225393083Y-259015114D02*
X225893083Y-259015114D01*
X226107369Y-259800828D02*
X225393083Y-259800828D01*
X225393083Y-259800828D02*
X225393083Y-258300828D01*
X225393083Y-258300828D02*
X226107369Y-258300828D01*
X226678798Y-259372257D02*
X227393084Y-259372257D01*
X226535941Y-259800828D02*
X227035941Y-258300828D01*
X227035941Y-258300828D02*
X227535941Y-259800828D01*
X228035940Y-259800828D02*
X228035940Y-258300828D01*
X228035940Y-258300828D02*
X228393083Y-258300828D01*
X228393083Y-258300828D02*
X228607369Y-258372257D01*
X228607369Y-258372257D02*
X228750226Y-258515114D01*
X228750226Y-258515114D02*
X228821655Y-258657971D01*
X228821655Y-258657971D02*
X228893083Y-258943685D01*
X228893083Y-258943685D02*
X228893083Y-259157971D01*
X228893083Y-259157971D02*
X228821655Y-259443685D01*
X228821655Y-259443685D02*
X228750226Y-259586542D01*
X228750226Y-259586542D02*
X228607369Y-259729400D01*
X228607369Y-259729400D02*
X228393083Y-259800828D01*
X228393083Y-259800828D02*
X228035940Y-259800828D01*
X229464512Y-259729400D02*
X229678798Y-259800828D01*
X229678798Y-259800828D02*
X230035940Y-259800828D01*
X230035940Y-259800828D02*
X230178798Y-259729400D01*
X230178798Y-259729400D02*
X230250226Y-259657971D01*
X230250226Y-259657971D02*
X230321655Y-259515114D01*
X230321655Y-259515114D02*
X230321655Y-259372257D01*
X230321655Y-259372257D02*
X230250226Y-259229400D01*
X230250226Y-259229400D02*
X230178798Y-259157971D01*
X230178798Y-259157971D02*
X230035940Y-259086542D01*
X230035940Y-259086542D02*
X229750226Y-259015114D01*
X229750226Y-259015114D02*
X229607369Y-258943685D01*
X229607369Y-258943685D02*
X229535940Y-258872257D01*
X229535940Y-258872257D02*
X229464512Y-258729400D01*
X229464512Y-258729400D02*
X229464512Y-258586542D01*
X229464512Y-258586542D02*
X229535940Y-258443685D01*
X229535940Y-258443685D02*
X229607369Y-258372257D01*
X229607369Y-258372257D02*
X229750226Y-258300828D01*
X229750226Y-258300828D02*
X230107369Y-258300828D01*
X230107369Y-258300828D02*
X230321655Y-258372257D01*
X191142857Y-258129400D02*
X188857143Y-258129400D01*
X190000000Y-259272257D02*
X190000000Y-256986542D01*
X187032142Y-256035471D02*
X186960714Y-256106900D01*
X186960714Y-256106900D02*
X186746428Y-256178328D01*
X186746428Y-256178328D02*
X186603571Y-256178328D01*
X186603571Y-256178328D02*
X186389285Y-256106900D01*
X186389285Y-256106900D02*
X186246428Y-255964042D01*
X186246428Y-255964042D02*
X186174999Y-255821185D01*
X186174999Y-255821185D02*
X186103571Y-255535471D01*
X186103571Y-255535471D02*
X186103571Y-255321185D01*
X186103571Y-255321185D02*
X186174999Y-255035471D01*
X186174999Y-255035471D02*
X186246428Y-254892614D01*
X186246428Y-254892614D02*
X186389285Y-254749757D01*
X186389285Y-254749757D02*
X186603571Y-254678328D01*
X186603571Y-254678328D02*
X186746428Y-254678328D01*
X186746428Y-254678328D02*
X186960714Y-254749757D01*
X186960714Y-254749757D02*
X187032142Y-254821185D01*
X187674999Y-256178328D02*
X187674999Y-254678328D01*
X187674999Y-255392614D02*
X188532142Y-255392614D01*
X188532142Y-256178328D02*
X188532142Y-254678328D01*
X189175000Y-255749757D02*
X189889286Y-255749757D01*
X189032143Y-256178328D02*
X189532143Y-254678328D01*
X189532143Y-254678328D02*
X190032143Y-256178328D01*
X191389285Y-256178328D02*
X190889285Y-255464042D01*
X190532142Y-256178328D02*
X190532142Y-254678328D01*
X190532142Y-254678328D02*
X191103571Y-254678328D01*
X191103571Y-254678328D02*
X191246428Y-254749757D01*
X191246428Y-254749757D02*
X191317857Y-254821185D01*
X191317857Y-254821185D02*
X191389285Y-254964042D01*
X191389285Y-254964042D02*
X191389285Y-255178328D01*
X191389285Y-255178328D02*
X191317857Y-255321185D01*
X191317857Y-255321185D02*
X191246428Y-255392614D01*
X191246428Y-255392614D02*
X191103571Y-255464042D01*
X191103571Y-255464042D02*
X190532142Y-255464042D01*
X192817857Y-254749757D02*
X192675000Y-254678328D01*
X192675000Y-254678328D02*
X192460714Y-254678328D01*
X192460714Y-254678328D02*
X192246428Y-254749757D01*
X192246428Y-254749757D02*
X192103571Y-254892614D01*
X192103571Y-254892614D02*
X192032142Y-255035471D01*
X192032142Y-255035471D02*
X191960714Y-255321185D01*
X191960714Y-255321185D02*
X191960714Y-255535471D01*
X191960714Y-255535471D02*
X192032142Y-255821185D01*
X192032142Y-255821185D02*
X192103571Y-255964042D01*
X192103571Y-255964042D02*
X192246428Y-256106900D01*
X192246428Y-256106900D02*
X192460714Y-256178328D01*
X192460714Y-256178328D02*
X192603571Y-256178328D01*
X192603571Y-256178328D02*
X192817857Y-256106900D01*
X192817857Y-256106900D02*
X192889285Y-256035471D01*
X192889285Y-256035471D02*
X192889285Y-255535471D01*
X192889285Y-255535471D02*
X192603571Y-255535471D01*
X193532142Y-255392614D02*
X194032142Y-255392614D01*
X194246428Y-256178328D02*
X193532142Y-256178328D01*
X193532142Y-256178328D02*
X193532142Y-254678328D01*
X193532142Y-254678328D02*
X194246428Y-254678328D01*
X137243809Y-279441066D02*
X134196190Y-279441066D01*
X121467857Y-258229400D02*
X119182143Y-258229400D01*
X176253809Y-279441066D02*
X173206190Y-279441066D01*
X174729999Y-280964876D02*
X174729999Y-277917257D01*
D11*
X94239049Y-274628773D02*
X94424763Y-274690677D01*
X94424763Y-274690677D02*
X94734287Y-274690677D01*
X94734287Y-274690677D02*
X94858096Y-274628773D01*
X94858096Y-274628773D02*
X94920001Y-274566868D01*
X94920001Y-274566868D02*
X94981906Y-274443058D01*
X94981906Y-274443058D02*
X94981906Y-274319249D01*
X94981906Y-274319249D02*
X94920001Y-274195439D01*
X94920001Y-274195439D02*
X94858096Y-274133534D01*
X94858096Y-274133534D02*
X94734287Y-274071630D01*
X94734287Y-274071630D02*
X94486668Y-274009725D01*
X94486668Y-274009725D02*
X94362858Y-273947820D01*
X94362858Y-273947820D02*
X94300953Y-273885915D01*
X94300953Y-273885915D02*
X94239049Y-273762106D01*
X94239049Y-273762106D02*
X94239049Y-273638296D01*
X94239049Y-273638296D02*
X94300953Y-273514487D01*
X94300953Y-273514487D02*
X94362858Y-273452582D01*
X94362858Y-273452582D02*
X94486668Y-273390677D01*
X94486668Y-273390677D02*
X94796191Y-273390677D01*
X94796191Y-273390677D02*
X94981906Y-273452582D01*
X96096191Y-274690677D02*
X96096191Y-274009725D01*
X96096191Y-274009725D02*
X96034286Y-273885915D01*
X96034286Y-273885915D02*
X95910477Y-273824011D01*
X95910477Y-273824011D02*
X95662858Y-273824011D01*
X95662858Y-273824011D02*
X95539048Y-273885915D01*
X96096191Y-274628773D02*
X95972382Y-274690677D01*
X95972382Y-274690677D02*
X95662858Y-274690677D01*
X95662858Y-274690677D02*
X95539048Y-274628773D01*
X95539048Y-274628773D02*
X95477144Y-274504963D01*
X95477144Y-274504963D02*
X95477144Y-274381153D01*
X95477144Y-274381153D02*
X95539048Y-274257344D01*
X95539048Y-274257344D02*
X95662858Y-274195439D01*
X95662858Y-274195439D02*
X95972382Y-274195439D01*
X95972382Y-274195439D02*
X96096191Y-274133534D01*
X96715238Y-274690677D02*
X96715238Y-273824011D01*
X96715238Y-274071630D02*
X96777143Y-273947820D01*
X96777143Y-273947820D02*
X96839048Y-273885915D01*
X96839048Y-273885915D02*
X96962857Y-273824011D01*
X96962857Y-273824011D02*
X97086667Y-273824011D01*
X98077143Y-274690677D02*
X98077143Y-274009725D01*
X98077143Y-274009725D02*
X98015238Y-273885915D01*
X98015238Y-273885915D02*
X97891429Y-273824011D01*
X97891429Y-273824011D02*
X97643810Y-273824011D01*
X97643810Y-273824011D02*
X97520000Y-273885915D01*
X98077143Y-274628773D02*
X97953334Y-274690677D01*
X97953334Y-274690677D02*
X97643810Y-274690677D01*
X97643810Y-274690677D02*
X97520000Y-274628773D01*
X97520000Y-274628773D02*
X97458096Y-274504963D01*
X97458096Y-274504963D02*
X97458096Y-274381153D01*
X97458096Y-274381153D02*
X97520000Y-274257344D01*
X97520000Y-274257344D02*
X97643810Y-274195439D01*
X97643810Y-274195439D02*
X97953334Y-274195439D01*
X97953334Y-274195439D02*
X98077143Y-274133534D01*
X98696190Y-274690677D02*
X98696190Y-273390677D01*
X99253333Y-274690677D02*
X99253333Y-274009725D01*
X99253333Y-274009725D02*
X99191428Y-273885915D01*
X99191428Y-273885915D02*
X99067619Y-273824011D01*
X99067619Y-273824011D02*
X98881905Y-273824011D01*
X98881905Y-273824011D02*
X98758095Y-273885915D01*
X98758095Y-273885915D02*
X98696190Y-273947820D01*
X101729523Y-274814487D02*
X101605713Y-274752582D01*
X101605713Y-274752582D02*
X101481904Y-274628773D01*
X101481904Y-274628773D02*
X101296190Y-274443058D01*
X101296190Y-274443058D02*
X101172380Y-274381153D01*
X101172380Y-274381153D02*
X101048571Y-274381153D01*
X101110475Y-274690677D02*
X100986666Y-274628773D01*
X100986666Y-274628773D02*
X100862856Y-274504963D01*
X100862856Y-274504963D02*
X100800952Y-274257344D01*
X100800952Y-274257344D02*
X100800952Y-273824011D01*
X100800952Y-273824011D02*
X100862856Y-273576392D01*
X100862856Y-273576392D02*
X100986666Y-273452582D01*
X100986666Y-273452582D02*
X101110475Y-273390677D01*
X101110475Y-273390677D02*
X101358094Y-273390677D01*
X101358094Y-273390677D02*
X101481904Y-273452582D01*
X101481904Y-273452582D02*
X101605713Y-273576392D01*
X101605713Y-273576392D02*
X101667618Y-273824011D01*
X101667618Y-273824011D02*
X101667618Y-274257344D01*
X101667618Y-274257344D02*
X101605713Y-274504963D01*
X101605713Y-274504963D02*
X101481904Y-274628773D01*
X101481904Y-274628773D02*
X101358094Y-274690677D01*
X101358094Y-274690677D02*
X101110475Y-274690677D01*
X102781904Y-274690677D02*
X102781904Y-274009725D01*
X102781904Y-274009725D02*
X102719999Y-273885915D01*
X102719999Y-273885915D02*
X102596190Y-273824011D01*
X102596190Y-273824011D02*
X102348571Y-273824011D01*
X102348571Y-273824011D02*
X102224761Y-273885915D01*
X102781904Y-274628773D02*
X102658095Y-274690677D01*
X102658095Y-274690677D02*
X102348571Y-274690677D01*
X102348571Y-274690677D02*
X102224761Y-274628773D01*
X102224761Y-274628773D02*
X102162857Y-274504963D01*
X102162857Y-274504963D02*
X102162857Y-274381153D01*
X102162857Y-274381153D02*
X102224761Y-274257344D01*
X102224761Y-274257344D02*
X102348571Y-274195439D01*
X102348571Y-274195439D02*
X102658095Y-274195439D01*
X102658095Y-274195439D02*
X102781904Y-274133534D01*
X103958094Y-274690677D02*
X103958094Y-273390677D01*
X103958094Y-274628773D02*
X103834285Y-274690677D01*
X103834285Y-274690677D02*
X103586666Y-274690677D01*
X103586666Y-274690677D02*
X103462856Y-274628773D01*
X103462856Y-274628773D02*
X103400951Y-274566868D01*
X103400951Y-274566868D02*
X103339047Y-274443058D01*
X103339047Y-274443058D02*
X103339047Y-274071630D01*
X103339047Y-274071630D02*
X103400951Y-273947820D01*
X103400951Y-273947820D02*
X103462856Y-273885915D01*
X103462856Y-273885915D02*
X103586666Y-273824011D01*
X103586666Y-273824011D02*
X103834285Y-273824011D01*
X103834285Y-273824011D02*
X103958094Y-273885915D01*
X105134284Y-274690677D02*
X105134284Y-274009725D01*
X105134284Y-274009725D02*
X105072379Y-273885915D01*
X105072379Y-273885915D02*
X104948570Y-273824011D01*
X104948570Y-273824011D02*
X104700951Y-273824011D01*
X104700951Y-273824011D02*
X104577141Y-273885915D01*
X105134284Y-274628773D02*
X105010475Y-274690677D01*
X105010475Y-274690677D02*
X104700951Y-274690677D01*
X104700951Y-274690677D02*
X104577141Y-274628773D01*
X104577141Y-274628773D02*
X104515237Y-274504963D01*
X104515237Y-274504963D02*
X104515237Y-274381153D01*
X104515237Y-274381153D02*
X104577141Y-274257344D01*
X104577141Y-274257344D02*
X104700951Y-274195439D01*
X104700951Y-274195439D02*
X105010475Y-274195439D01*
X105010475Y-274195439D02*
X105134284Y-274133534D01*
X105753331Y-274690677D02*
X105753331Y-273824011D01*
X105753331Y-274071630D02*
X105815236Y-273947820D01*
X105815236Y-273947820D02*
X105877141Y-273885915D01*
X105877141Y-273885915D02*
X106000950Y-273824011D01*
X106000950Y-273824011D02*
X106124760Y-273824011D01*
X85943809Y-275483604D02*
X85943809Y-275731223D01*
X86439047Y-275483604D02*
X86439047Y-275731223D01*
X87243808Y-275483604D02*
X87491427Y-275483604D01*
X87491427Y-275483604D02*
X87615237Y-275545509D01*
X87615237Y-275545509D02*
X87739046Y-275669319D01*
X87739046Y-275669319D02*
X87800951Y-275916938D01*
X87800951Y-275916938D02*
X87800951Y-276350271D01*
X87800951Y-276350271D02*
X87739046Y-276597890D01*
X87739046Y-276597890D02*
X87615237Y-276721700D01*
X87615237Y-276721700D02*
X87491427Y-276783604D01*
X87491427Y-276783604D02*
X87243808Y-276783604D01*
X87243808Y-276783604D02*
X87119999Y-276721700D01*
X87119999Y-276721700D02*
X86996189Y-276597890D01*
X86996189Y-276597890D02*
X86934285Y-276350271D01*
X86934285Y-276350271D02*
X86934285Y-275916938D01*
X86934285Y-275916938D02*
X86996189Y-275669319D01*
X86996189Y-275669319D02*
X87119999Y-275545509D01*
X87119999Y-275545509D02*
X87243808Y-275483604D01*
X88358094Y-276783604D02*
X88358094Y-275483604D01*
X88358094Y-275483604D02*
X89100951Y-276783604D01*
X89100951Y-276783604D02*
X89100951Y-275483604D01*
X90958094Y-276164557D02*
X90958094Y-276783604D01*
X90524761Y-275483604D02*
X90958094Y-276164557D01*
X90958094Y-276164557D02*
X91391428Y-275483604D01*
X92072380Y-275483604D02*
X92319999Y-275483604D01*
X92319999Y-275483604D02*
X92443809Y-275545509D01*
X92443809Y-275545509D02*
X92567618Y-275669319D01*
X92567618Y-275669319D02*
X92629523Y-275916938D01*
X92629523Y-275916938D02*
X92629523Y-276350271D01*
X92629523Y-276350271D02*
X92567618Y-276597890D01*
X92567618Y-276597890D02*
X92443809Y-276721700D01*
X92443809Y-276721700D02*
X92319999Y-276783604D01*
X92319999Y-276783604D02*
X92072380Y-276783604D01*
X92072380Y-276783604D02*
X91948571Y-276721700D01*
X91948571Y-276721700D02*
X91824761Y-276597890D01*
X91824761Y-276597890D02*
X91762857Y-276350271D01*
X91762857Y-276350271D02*
X91762857Y-275916938D01*
X91762857Y-275916938D02*
X91824761Y-275669319D01*
X91824761Y-275669319D02*
X91948571Y-275545509D01*
X91948571Y-275545509D02*
X92072380Y-275483604D01*
X93186666Y-275483604D02*
X93186666Y-276535985D01*
X93186666Y-276535985D02*
X93248571Y-276659795D01*
X93248571Y-276659795D02*
X93310476Y-276721700D01*
X93310476Y-276721700D02*
X93434285Y-276783604D01*
X93434285Y-276783604D02*
X93681904Y-276783604D01*
X93681904Y-276783604D02*
X93805714Y-276721700D01*
X93805714Y-276721700D02*
X93867619Y-276659795D01*
X93867619Y-276659795D02*
X93929523Y-276535985D01*
X93929523Y-276535985D02*
X93929523Y-275483604D01*
X95291428Y-276783604D02*
X94858095Y-276164557D01*
X94548571Y-276783604D02*
X94548571Y-275483604D01*
X94548571Y-275483604D02*
X95043809Y-275483604D01*
X95043809Y-275483604D02*
X95167619Y-275545509D01*
X95167619Y-275545509D02*
X95229524Y-275607414D01*
X95229524Y-275607414D02*
X95291428Y-275731223D01*
X95291428Y-275731223D02*
X95291428Y-275916938D01*
X95291428Y-275916938D02*
X95229524Y-276040747D01*
X95229524Y-276040747D02*
X95167619Y-276102652D01*
X95167619Y-276102652D02*
X95043809Y-276164557D01*
X95043809Y-276164557D02*
X94548571Y-276164557D01*
X97210476Y-277278842D02*
X97148571Y-277216938D01*
X97148571Y-277216938D02*
X97024762Y-277031223D01*
X97024762Y-277031223D02*
X96962857Y-276907414D01*
X96962857Y-276907414D02*
X96900952Y-276721700D01*
X96900952Y-276721700D02*
X96839047Y-276412176D01*
X96839047Y-276412176D02*
X96839047Y-276164557D01*
X96839047Y-276164557D02*
X96900952Y-275855033D01*
X96900952Y-275855033D02*
X96962857Y-275669319D01*
X96962857Y-275669319D02*
X97024762Y-275545509D01*
X97024762Y-275545509D02*
X97148571Y-275359795D01*
X97148571Y-275359795D02*
X97210476Y-275297890D01*
X98139048Y-276102652D02*
X98324762Y-276164557D01*
X98324762Y-276164557D02*
X98386667Y-276226461D01*
X98386667Y-276226461D02*
X98448571Y-276350271D01*
X98448571Y-276350271D02*
X98448571Y-276535985D01*
X98448571Y-276535985D02*
X98386667Y-276659795D01*
X98386667Y-276659795D02*
X98324762Y-276721700D01*
X98324762Y-276721700D02*
X98200952Y-276783604D01*
X98200952Y-276783604D02*
X97705714Y-276783604D01*
X97705714Y-276783604D02*
X97705714Y-275483604D01*
X97705714Y-275483604D02*
X98139048Y-275483604D01*
X98139048Y-275483604D02*
X98262857Y-275545509D01*
X98262857Y-275545509D02*
X98324762Y-275607414D01*
X98324762Y-275607414D02*
X98386667Y-275731223D01*
X98386667Y-275731223D02*
X98386667Y-275855033D01*
X98386667Y-275855033D02*
X98324762Y-275978842D01*
X98324762Y-275978842D02*
X98262857Y-276040747D01*
X98262857Y-276040747D02*
X98139048Y-276102652D01*
X98139048Y-276102652D02*
X97705714Y-276102652D01*
X98943810Y-276412176D02*
X99562857Y-276412176D01*
X98820000Y-276783604D02*
X99253333Y-275483604D01*
X99253333Y-275483604D02*
X99686667Y-276783604D01*
X99934286Y-275483604D02*
X100677143Y-275483604D01*
X100305715Y-276783604D02*
X100305715Y-275483604D01*
X100924762Y-275483604D02*
X101667619Y-275483604D01*
X101296191Y-276783604D02*
X101296191Y-275483604D01*
X102100952Y-276102652D02*
X102534286Y-276102652D01*
X102720000Y-276783604D02*
X102100952Y-276783604D01*
X102100952Y-276783604D02*
X102100952Y-275483604D01*
X102100952Y-275483604D02*
X102720000Y-275483604D01*
X104019999Y-276783604D02*
X103586666Y-276164557D01*
X103277142Y-276783604D02*
X103277142Y-275483604D01*
X103277142Y-275483604D02*
X103772380Y-275483604D01*
X103772380Y-275483604D02*
X103896190Y-275545509D01*
X103896190Y-275545509D02*
X103958095Y-275607414D01*
X103958095Y-275607414D02*
X104019999Y-275731223D01*
X104019999Y-275731223D02*
X104019999Y-275916938D01*
X104019999Y-275916938D02*
X103958095Y-276040747D01*
X103958095Y-276040747D02*
X103896190Y-276102652D01*
X103896190Y-276102652D02*
X103772380Y-276164557D01*
X103772380Y-276164557D02*
X103277142Y-276164557D01*
X104824761Y-276164557D02*
X104824761Y-276783604D01*
X104391428Y-275483604D02*
X104824761Y-276164557D01*
X104824761Y-276164557D02*
X105258095Y-275483604D01*
X105567619Y-277278842D02*
X105629524Y-277216938D01*
X105629524Y-277216938D02*
X105753333Y-277031223D01*
X105753333Y-277031223D02*
X105815238Y-276907414D01*
X105815238Y-276907414D02*
X105877143Y-276721700D01*
X105877143Y-276721700D02*
X105939047Y-276412176D01*
X105939047Y-276412176D02*
X105939047Y-276164557D01*
X105939047Y-276164557D02*
X105877143Y-275855033D01*
X105877143Y-275855033D02*
X105815238Y-275669319D01*
X105815238Y-275669319D02*
X105753333Y-275545509D01*
X105753333Y-275545509D02*
X105629524Y-275359795D01*
X105629524Y-275359795D02*
X105567619Y-275297890D01*
X107981905Y-276102652D02*
X108167619Y-276164557D01*
X108167619Y-276164557D02*
X108229524Y-276226461D01*
X108229524Y-276226461D02*
X108291428Y-276350271D01*
X108291428Y-276350271D02*
X108291428Y-276535985D01*
X108291428Y-276535985D02*
X108229524Y-276659795D01*
X108229524Y-276659795D02*
X108167619Y-276721700D01*
X108167619Y-276721700D02*
X108043809Y-276783604D01*
X108043809Y-276783604D02*
X107548571Y-276783604D01*
X107548571Y-276783604D02*
X107548571Y-275483604D01*
X107548571Y-275483604D02*
X107981905Y-275483604D01*
X107981905Y-275483604D02*
X108105714Y-275545509D01*
X108105714Y-275545509D02*
X108167619Y-275607414D01*
X108167619Y-275607414D02*
X108229524Y-275731223D01*
X108229524Y-275731223D02*
X108229524Y-275855033D01*
X108229524Y-275855033D02*
X108167619Y-275978842D01*
X108167619Y-275978842D02*
X108105714Y-276040747D01*
X108105714Y-276040747D02*
X107981905Y-276102652D01*
X107981905Y-276102652D02*
X107548571Y-276102652D01*
X109467619Y-276783604D02*
X108848571Y-276783604D01*
X108848571Y-276783604D02*
X108848571Y-275483604D01*
X110148571Y-275483604D02*
X110396190Y-275483604D01*
X110396190Y-275483604D02*
X110520000Y-275545509D01*
X110520000Y-275545509D02*
X110643809Y-275669319D01*
X110643809Y-275669319D02*
X110705714Y-275916938D01*
X110705714Y-275916938D02*
X110705714Y-276350271D01*
X110705714Y-276350271D02*
X110643809Y-276597890D01*
X110643809Y-276597890D02*
X110520000Y-276721700D01*
X110520000Y-276721700D02*
X110396190Y-276783604D01*
X110396190Y-276783604D02*
X110148571Y-276783604D01*
X110148571Y-276783604D02*
X110024762Y-276721700D01*
X110024762Y-276721700D02*
X109900952Y-276597890D01*
X109900952Y-276597890D02*
X109839048Y-276350271D01*
X109839048Y-276350271D02*
X109839048Y-275916938D01*
X109839048Y-275916938D02*
X109900952Y-275669319D01*
X109900952Y-275669319D02*
X110024762Y-275545509D01*
X110024762Y-275545509D02*
X110148571Y-275483604D01*
X112005714Y-276659795D02*
X111943810Y-276721700D01*
X111943810Y-276721700D02*
X111758095Y-276783604D01*
X111758095Y-276783604D02*
X111634286Y-276783604D01*
X111634286Y-276783604D02*
X111448572Y-276721700D01*
X111448572Y-276721700D02*
X111324762Y-276597890D01*
X111324762Y-276597890D02*
X111262857Y-276474080D01*
X111262857Y-276474080D02*
X111200953Y-276226461D01*
X111200953Y-276226461D02*
X111200953Y-276040747D01*
X111200953Y-276040747D02*
X111262857Y-275793128D01*
X111262857Y-275793128D02*
X111324762Y-275669319D01*
X111324762Y-275669319D02*
X111448572Y-275545509D01*
X111448572Y-275545509D02*
X111634286Y-275483604D01*
X111634286Y-275483604D02*
X111758095Y-275483604D01*
X111758095Y-275483604D02*
X111943810Y-275545509D01*
X111943810Y-275545509D02*
X112005714Y-275607414D01*
X112562857Y-276783604D02*
X112562857Y-275483604D01*
X113305714Y-276783604D02*
X112748572Y-276040747D01*
X113305714Y-275483604D02*
X112562857Y-276226461D01*
X113800953Y-275483604D02*
X113800953Y-275731223D01*
X114296191Y-275483604D02*
X114296191Y-275731223D01*
X87770003Y-278814627D02*
X87955717Y-278876531D01*
X87955717Y-278876531D02*
X88265241Y-278876531D01*
X88265241Y-278876531D02*
X88389050Y-278814627D01*
X88389050Y-278814627D02*
X88450955Y-278752722D01*
X88450955Y-278752722D02*
X88512860Y-278628912D01*
X88512860Y-278628912D02*
X88512860Y-278505103D01*
X88512860Y-278505103D02*
X88450955Y-278381293D01*
X88450955Y-278381293D02*
X88389050Y-278319388D01*
X88389050Y-278319388D02*
X88265241Y-278257484D01*
X88265241Y-278257484D02*
X88017622Y-278195579D01*
X88017622Y-278195579D02*
X87893812Y-278133674D01*
X87893812Y-278133674D02*
X87831907Y-278071769D01*
X87831907Y-278071769D02*
X87770003Y-277947960D01*
X87770003Y-277947960D02*
X87770003Y-277824150D01*
X87770003Y-277824150D02*
X87831907Y-277700341D01*
X87831907Y-277700341D02*
X87893812Y-277638436D01*
X87893812Y-277638436D02*
X88017622Y-277576531D01*
X88017622Y-277576531D02*
X88327145Y-277576531D01*
X88327145Y-277576531D02*
X88512860Y-277638436D01*
X89070002Y-278876531D02*
X89070002Y-277576531D01*
X89627145Y-278876531D02*
X89627145Y-278195579D01*
X89627145Y-278195579D02*
X89565240Y-278071769D01*
X89565240Y-278071769D02*
X89441431Y-278009865D01*
X89441431Y-278009865D02*
X89255717Y-278009865D01*
X89255717Y-278009865D02*
X89131907Y-278071769D01*
X89131907Y-278071769D02*
X89070002Y-278133674D01*
X90741430Y-278814627D02*
X90617621Y-278876531D01*
X90617621Y-278876531D02*
X90370002Y-278876531D01*
X90370002Y-278876531D02*
X90246192Y-278814627D01*
X90246192Y-278814627D02*
X90184288Y-278690817D01*
X90184288Y-278690817D02*
X90184288Y-278195579D01*
X90184288Y-278195579D02*
X90246192Y-278071769D01*
X90246192Y-278071769D02*
X90370002Y-278009865D01*
X90370002Y-278009865D02*
X90617621Y-278009865D01*
X90617621Y-278009865D02*
X90741430Y-278071769D01*
X90741430Y-278071769D02*
X90803335Y-278195579D01*
X90803335Y-278195579D02*
X90803335Y-278319388D01*
X90803335Y-278319388D02*
X90184288Y-278443198D01*
X91546193Y-278876531D02*
X91422383Y-278814627D01*
X91422383Y-278814627D02*
X91360478Y-278690817D01*
X91360478Y-278690817D02*
X91360478Y-277576531D01*
X92227145Y-278876531D02*
X92103335Y-278814627D01*
X92103335Y-278814627D02*
X92041430Y-278690817D01*
X92041430Y-278690817D02*
X92041430Y-277576531D01*
X93712858Y-278195579D02*
X94146192Y-278195579D01*
X94331906Y-278876531D02*
X93712858Y-278876531D01*
X93712858Y-278876531D02*
X93712858Y-277576531D01*
X93712858Y-277576531D02*
X94331906Y-277576531D01*
X95446191Y-278814627D02*
X95322382Y-278876531D01*
X95322382Y-278876531D02*
X95074763Y-278876531D01*
X95074763Y-278876531D02*
X94950953Y-278814627D01*
X94950953Y-278814627D02*
X94889048Y-278752722D01*
X94889048Y-278752722D02*
X94827144Y-278628912D01*
X94827144Y-278628912D02*
X94827144Y-278257484D01*
X94827144Y-278257484D02*
X94889048Y-278133674D01*
X94889048Y-278133674D02*
X94950953Y-278071769D01*
X94950953Y-278071769D02*
X95074763Y-278009865D01*
X95074763Y-278009865D02*
X95322382Y-278009865D01*
X95322382Y-278009865D02*
X95446191Y-278071769D01*
X96189049Y-278876531D02*
X96065239Y-278814627D01*
X96065239Y-278814627D02*
X96003334Y-278752722D01*
X96003334Y-278752722D02*
X95941430Y-278628912D01*
X95941430Y-278628912D02*
X95941430Y-278257484D01*
X95941430Y-278257484D02*
X96003334Y-278133674D01*
X96003334Y-278133674D02*
X96065239Y-278071769D01*
X96065239Y-278071769D02*
X96189049Y-278009865D01*
X96189049Y-278009865D02*
X96374763Y-278009865D01*
X96374763Y-278009865D02*
X96498572Y-278071769D01*
X96498572Y-278071769D02*
X96560477Y-278133674D01*
X96560477Y-278133674D02*
X96622382Y-278257484D01*
X96622382Y-278257484D02*
X96622382Y-278628912D01*
X96622382Y-278628912D02*
X96560477Y-278752722D01*
X96560477Y-278752722D02*
X96498572Y-278814627D01*
X96498572Y-278814627D02*
X96374763Y-278876531D01*
X96374763Y-278876531D02*
X96189049Y-278876531D01*
X98170000Y-278876531D02*
X98170000Y-277576531D01*
X98170000Y-277576531D02*
X98603334Y-278505103D01*
X98603334Y-278505103D02*
X99036667Y-277576531D01*
X99036667Y-277576531D02*
X99036667Y-278876531D01*
X100212857Y-278876531D02*
X100212857Y-278195579D01*
X100212857Y-278195579D02*
X100150952Y-278071769D01*
X100150952Y-278071769D02*
X100027143Y-278009865D01*
X100027143Y-278009865D02*
X99779524Y-278009865D01*
X99779524Y-278009865D02*
X99655714Y-278071769D01*
X100212857Y-278814627D02*
X100089048Y-278876531D01*
X100089048Y-278876531D02*
X99779524Y-278876531D01*
X99779524Y-278876531D02*
X99655714Y-278814627D01*
X99655714Y-278814627D02*
X99593810Y-278690817D01*
X99593810Y-278690817D02*
X99593810Y-278567007D01*
X99593810Y-278567007D02*
X99655714Y-278443198D01*
X99655714Y-278443198D02*
X99779524Y-278381293D01*
X99779524Y-278381293D02*
X100089048Y-278381293D01*
X100089048Y-278381293D02*
X100212857Y-278319388D01*
X100831904Y-278876531D02*
X100831904Y-278009865D01*
X100831904Y-278257484D02*
X100893809Y-278133674D01*
X100893809Y-278133674D02*
X100955714Y-278071769D01*
X100955714Y-278071769D02*
X101079523Y-278009865D01*
X101079523Y-278009865D02*
X101203333Y-278009865D01*
X102193809Y-278876531D02*
X102193809Y-278195579D01*
X102193809Y-278195579D02*
X102131904Y-278071769D01*
X102131904Y-278071769D02*
X102008095Y-278009865D01*
X102008095Y-278009865D02*
X101760476Y-278009865D01*
X101760476Y-278009865D02*
X101636666Y-278071769D01*
X102193809Y-278814627D02*
X102070000Y-278876531D01*
X102070000Y-278876531D02*
X101760476Y-278876531D01*
X101760476Y-278876531D02*
X101636666Y-278814627D01*
X101636666Y-278814627D02*
X101574762Y-278690817D01*
X101574762Y-278690817D02*
X101574762Y-278567007D01*
X101574762Y-278567007D02*
X101636666Y-278443198D01*
X101636666Y-278443198D02*
X101760476Y-278381293D01*
X101760476Y-278381293D02*
X102070000Y-278381293D01*
X102070000Y-278381293D02*
X102193809Y-278319388D01*
X102627142Y-278009865D02*
X103122380Y-278009865D01*
X102812856Y-277576531D02*
X102812856Y-278690817D01*
X102812856Y-278690817D02*
X102874761Y-278814627D01*
X102874761Y-278814627D02*
X102998571Y-278876531D01*
X102998571Y-278876531D02*
X103122380Y-278876531D01*
X103555713Y-278876531D02*
X103555713Y-277576531D01*
X104112856Y-278876531D02*
X104112856Y-278195579D01*
X104112856Y-278195579D02*
X104050951Y-278071769D01*
X104050951Y-278071769D02*
X103927142Y-278009865D01*
X103927142Y-278009865D02*
X103741428Y-278009865D01*
X103741428Y-278009865D02*
X103617618Y-278071769D01*
X103617618Y-278071769D02*
X103555713Y-278133674D01*
X104917618Y-278876531D02*
X104793808Y-278814627D01*
X104793808Y-278814627D02*
X104731903Y-278752722D01*
X104731903Y-278752722D02*
X104669999Y-278628912D01*
X104669999Y-278628912D02*
X104669999Y-278257484D01*
X104669999Y-278257484D02*
X104731903Y-278133674D01*
X104731903Y-278133674D02*
X104793808Y-278071769D01*
X104793808Y-278071769D02*
X104917618Y-278009865D01*
X104917618Y-278009865D02*
X105103332Y-278009865D01*
X105103332Y-278009865D02*
X105227141Y-278071769D01*
X105227141Y-278071769D02*
X105289046Y-278133674D01*
X105289046Y-278133674D02*
X105350951Y-278257484D01*
X105350951Y-278257484D02*
X105350951Y-278628912D01*
X105350951Y-278628912D02*
X105289046Y-278752722D01*
X105289046Y-278752722D02*
X105227141Y-278814627D01*
X105227141Y-278814627D02*
X105103332Y-278876531D01*
X105103332Y-278876531D02*
X104917618Y-278876531D01*
X105908093Y-278009865D02*
X105908093Y-278876531D01*
X105908093Y-278133674D02*
X105969998Y-278071769D01*
X105969998Y-278071769D02*
X106093808Y-278009865D01*
X106093808Y-278009865D02*
X106279522Y-278009865D01*
X106279522Y-278009865D02*
X106403331Y-278071769D01*
X106403331Y-278071769D02*
X106465236Y-278195579D01*
X106465236Y-278195579D02*
X106465236Y-278876531D01*
X108012855Y-277700341D02*
X108074759Y-277638436D01*
X108074759Y-277638436D02*
X108198569Y-277576531D01*
X108198569Y-277576531D02*
X108508093Y-277576531D01*
X108508093Y-277576531D02*
X108631902Y-277638436D01*
X108631902Y-277638436D02*
X108693807Y-277700341D01*
X108693807Y-277700341D02*
X108755712Y-277824150D01*
X108755712Y-277824150D02*
X108755712Y-277947960D01*
X108755712Y-277947960D02*
X108693807Y-278133674D01*
X108693807Y-278133674D02*
X107950950Y-278876531D01*
X107950950Y-278876531D02*
X108755712Y-278876531D01*
X109560473Y-277576531D02*
X109684283Y-277576531D01*
X109684283Y-277576531D02*
X109808092Y-277638436D01*
X109808092Y-277638436D02*
X109869997Y-277700341D01*
X109869997Y-277700341D02*
X109931902Y-277824150D01*
X109931902Y-277824150D02*
X109993807Y-278071769D01*
X109993807Y-278071769D02*
X109993807Y-278381293D01*
X109993807Y-278381293D02*
X109931902Y-278628912D01*
X109931902Y-278628912D02*
X109869997Y-278752722D01*
X109869997Y-278752722D02*
X109808092Y-278814627D01*
X109808092Y-278814627D02*
X109684283Y-278876531D01*
X109684283Y-278876531D02*
X109560473Y-278876531D01*
X109560473Y-278876531D02*
X109436664Y-278814627D01*
X109436664Y-278814627D02*
X109374759Y-278752722D01*
X109374759Y-278752722D02*
X109312854Y-278628912D01*
X109312854Y-278628912D02*
X109250950Y-278381293D01*
X109250950Y-278381293D02*
X109250950Y-278071769D01*
X109250950Y-278071769D02*
X109312854Y-277824150D01*
X109312854Y-277824150D02*
X109374759Y-277700341D01*
X109374759Y-277700341D02*
X109436664Y-277638436D01*
X109436664Y-277638436D02*
X109560473Y-277576531D01*
X110489045Y-277700341D02*
X110550949Y-277638436D01*
X110550949Y-277638436D02*
X110674759Y-277576531D01*
X110674759Y-277576531D02*
X110984283Y-277576531D01*
X110984283Y-277576531D02*
X111108092Y-277638436D01*
X111108092Y-277638436D02*
X111169997Y-277700341D01*
X111169997Y-277700341D02*
X111231902Y-277824150D01*
X111231902Y-277824150D02*
X111231902Y-277947960D01*
X111231902Y-277947960D02*
X111169997Y-278133674D01*
X111169997Y-278133674D02*
X110427140Y-278876531D01*
X110427140Y-278876531D02*
X111231902Y-278876531D01*
X112408092Y-277576531D02*
X111789044Y-277576531D01*
X111789044Y-277576531D02*
X111727140Y-278195579D01*
X111727140Y-278195579D02*
X111789044Y-278133674D01*
X111789044Y-278133674D02*
X111912854Y-278071769D01*
X111912854Y-278071769D02*
X112222378Y-278071769D01*
X112222378Y-278071769D02*
X112346187Y-278133674D01*
X112346187Y-278133674D02*
X112408092Y-278195579D01*
X112408092Y-278195579D02*
X112469997Y-278319388D01*
X112469997Y-278319388D02*
X112469997Y-278628912D01*
X112469997Y-278628912D02*
X112408092Y-278752722D01*
X112408092Y-278752722D02*
X112346187Y-278814627D01*
X112346187Y-278814627D02*
X112222378Y-278876531D01*
X112222378Y-278876531D02*
X111912854Y-278876531D01*
X111912854Y-278876531D02*
X111789044Y-278814627D01*
X111789044Y-278814627D02*
X111727140Y-278752722D01*
D10*
X117457142Y-256085471D02*
X117385714Y-256156900D01*
X117385714Y-256156900D02*
X117171428Y-256228328D01*
X117171428Y-256228328D02*
X117028571Y-256228328D01*
X117028571Y-256228328D02*
X116814285Y-256156900D01*
X116814285Y-256156900D02*
X116671428Y-256014042D01*
X116671428Y-256014042D02*
X116599999Y-255871185D01*
X116599999Y-255871185D02*
X116528571Y-255585471D01*
X116528571Y-255585471D02*
X116528571Y-255371185D01*
X116528571Y-255371185D02*
X116599999Y-255085471D01*
X116599999Y-255085471D02*
X116671428Y-254942614D01*
X116671428Y-254942614D02*
X116814285Y-254799757D01*
X116814285Y-254799757D02*
X117028571Y-254728328D01*
X117028571Y-254728328D02*
X117171428Y-254728328D01*
X117171428Y-254728328D02*
X117385714Y-254799757D01*
X117385714Y-254799757D02*
X117457142Y-254871185D01*
X118099999Y-256228328D02*
X118099999Y-254728328D01*
X118099999Y-255442614D02*
X118957142Y-255442614D01*
X118957142Y-256228328D02*
X118957142Y-254728328D01*
X119600000Y-255799757D02*
X120314286Y-255799757D01*
X119457143Y-256228328D02*
X119957143Y-254728328D01*
X119957143Y-254728328D02*
X120457143Y-256228328D01*
X121814285Y-256228328D02*
X121314285Y-255514042D01*
X120957142Y-256228328D02*
X120957142Y-254728328D01*
X120957142Y-254728328D02*
X121528571Y-254728328D01*
X121528571Y-254728328D02*
X121671428Y-254799757D01*
X121671428Y-254799757D02*
X121742857Y-254871185D01*
X121742857Y-254871185D02*
X121814285Y-255014042D01*
X121814285Y-255014042D02*
X121814285Y-255228328D01*
X121814285Y-255228328D02*
X121742857Y-255371185D01*
X121742857Y-255371185D02*
X121671428Y-255442614D01*
X121671428Y-255442614D02*
X121528571Y-255514042D01*
X121528571Y-255514042D02*
X120957142Y-255514042D01*
X123242857Y-254799757D02*
X123100000Y-254728328D01*
X123100000Y-254728328D02*
X122885714Y-254728328D01*
X122885714Y-254728328D02*
X122671428Y-254799757D01*
X122671428Y-254799757D02*
X122528571Y-254942614D01*
X122528571Y-254942614D02*
X122457142Y-255085471D01*
X122457142Y-255085471D02*
X122385714Y-255371185D01*
X122385714Y-255371185D02*
X122385714Y-255585471D01*
X122385714Y-255585471D02*
X122457142Y-255871185D01*
X122457142Y-255871185D02*
X122528571Y-256014042D01*
X122528571Y-256014042D02*
X122671428Y-256156900D01*
X122671428Y-256156900D02*
X122885714Y-256228328D01*
X122885714Y-256228328D02*
X123028571Y-256228328D01*
X123028571Y-256228328D02*
X123242857Y-256156900D01*
X123242857Y-256156900D02*
X123314285Y-256085471D01*
X123314285Y-256085471D02*
X123314285Y-255585471D01*
X123314285Y-255585471D02*
X123028571Y-255585471D01*
X123957142Y-255442614D02*
X124457142Y-255442614D01*
X124671428Y-256228328D02*
X123957142Y-256228328D01*
X123957142Y-256228328D02*
X123957142Y-254728328D01*
X123957142Y-254728328D02*
X124671428Y-254728328D01*
D11*
X156843285Y-113681009D02*
X156986142Y-113728628D01*
X156986142Y-113728628D02*
X157033761Y-113776247D01*
X157033761Y-113776247D02*
X157081380Y-113871485D01*
X157081380Y-113871485D02*
X157081380Y-114014342D01*
X157081380Y-114014342D02*
X157033761Y-114109580D01*
X157033761Y-114109580D02*
X156986142Y-114157200D01*
X156986142Y-114157200D02*
X156890904Y-114204819D01*
X156890904Y-114204819D02*
X156509952Y-114204819D01*
X156509952Y-114204819D02*
X156509952Y-113204819D01*
X156509952Y-113204819D02*
X156843285Y-113204819D01*
X156843285Y-113204819D02*
X156938523Y-113252438D01*
X156938523Y-113252438D02*
X156986142Y-113300057D01*
X156986142Y-113300057D02*
X157033761Y-113395295D01*
X157033761Y-113395295D02*
X157033761Y-113490533D01*
X157033761Y-113490533D02*
X156986142Y-113585771D01*
X156986142Y-113585771D02*
X156938523Y-113633390D01*
X156938523Y-113633390D02*
X156843285Y-113681009D01*
X156843285Y-113681009D02*
X156509952Y-113681009D01*
X157367095Y-113204819D02*
X157938523Y-113204819D01*
X157652809Y-114204819D02*
X157652809Y-113204819D01*
X158700428Y-113204819D02*
X158509952Y-113204819D01*
X158509952Y-113204819D02*
X158414714Y-113252438D01*
X158414714Y-113252438D02*
X158367095Y-113300057D01*
X158367095Y-113300057D02*
X158271857Y-113442914D01*
X158271857Y-113442914D02*
X158224238Y-113633390D01*
X158224238Y-113633390D02*
X158224238Y-114014342D01*
X158224238Y-114014342D02*
X158271857Y-114109580D01*
X158271857Y-114109580D02*
X158319476Y-114157200D01*
X158319476Y-114157200D02*
X158414714Y-114204819D01*
X158414714Y-114204819D02*
X158605190Y-114204819D01*
X158605190Y-114204819D02*
X158700428Y-114157200D01*
X158700428Y-114157200D02*
X158748047Y-114109580D01*
X158748047Y-114109580D02*
X158795666Y-114014342D01*
X158795666Y-114014342D02*
X158795666Y-113776247D01*
X158795666Y-113776247D02*
X158748047Y-113681009D01*
X158748047Y-113681009D02*
X158700428Y-113633390D01*
X158700428Y-113633390D02*
X158605190Y-113585771D01*
X158605190Y-113585771D02*
X158414714Y-113585771D01*
X158414714Y-113585771D02*
X158319476Y-113633390D01*
X158319476Y-113633390D02*
X158271857Y-113681009D01*
X158271857Y-113681009D02*
X158224238Y-113776247D01*
X102319476Y-127681009D02*
X102462333Y-127728628D01*
X102462333Y-127728628D02*
X102509952Y-127776247D01*
X102509952Y-127776247D02*
X102557571Y-127871485D01*
X102557571Y-127871485D02*
X102557571Y-128014342D01*
X102557571Y-128014342D02*
X102509952Y-128109580D01*
X102509952Y-128109580D02*
X102462333Y-128157200D01*
X102462333Y-128157200D02*
X102367095Y-128204819D01*
X102367095Y-128204819D02*
X101986143Y-128204819D01*
X101986143Y-128204819D02*
X101986143Y-127204819D01*
X101986143Y-127204819D02*
X102319476Y-127204819D01*
X102319476Y-127204819D02*
X102414714Y-127252438D01*
X102414714Y-127252438D02*
X102462333Y-127300057D01*
X102462333Y-127300057D02*
X102509952Y-127395295D01*
X102509952Y-127395295D02*
X102509952Y-127490533D01*
X102509952Y-127490533D02*
X102462333Y-127585771D01*
X102462333Y-127585771D02*
X102414714Y-127633390D01*
X102414714Y-127633390D02*
X102319476Y-127681009D01*
X102319476Y-127681009D02*
X101986143Y-127681009D01*
X103462333Y-128204819D02*
X102986143Y-128204819D01*
X102986143Y-128204819D02*
X102986143Y-127204819D01*
X103795667Y-127204819D02*
X103795667Y-128014342D01*
X103795667Y-128014342D02*
X103843286Y-128109580D01*
X103843286Y-128109580D02*
X103890905Y-128157200D01*
X103890905Y-128157200D02*
X103986143Y-128204819D01*
X103986143Y-128204819D02*
X104176619Y-128204819D01*
X104176619Y-128204819D02*
X104271857Y-128157200D01*
X104271857Y-128157200D02*
X104319476Y-128109580D01*
X104319476Y-128109580D02*
X104367095Y-128014342D01*
X104367095Y-128014342D02*
X104367095Y-127204819D01*
X104843286Y-127681009D02*
X105176619Y-127681009D01*
X105319476Y-128204819D02*
X104843286Y-128204819D01*
X104843286Y-128204819D02*
X104843286Y-127204819D01*
X104843286Y-127204819D02*
X105319476Y-127204819D01*
X147986142Y-128204819D02*
X147652809Y-127728628D01*
X147414714Y-128204819D02*
X147414714Y-127204819D01*
X147414714Y-127204819D02*
X147795666Y-127204819D01*
X147795666Y-127204819D02*
X147890904Y-127252438D01*
X147890904Y-127252438D02*
X147938523Y-127300057D01*
X147938523Y-127300057D02*
X147986142Y-127395295D01*
X147986142Y-127395295D02*
X147986142Y-127538152D01*
X147986142Y-127538152D02*
X147938523Y-127633390D01*
X147938523Y-127633390D02*
X147890904Y-127681009D01*
X147890904Y-127681009D02*
X147795666Y-127728628D01*
X147795666Y-127728628D02*
X147414714Y-127728628D01*
X148414714Y-127681009D02*
X148748047Y-127681009D01*
X148890904Y-128204819D02*
X148414714Y-128204819D01*
X148414714Y-128204819D02*
X148414714Y-127204819D01*
X148414714Y-127204819D02*
X148890904Y-127204819D01*
X149319476Y-128204819D02*
X149319476Y-127204819D01*
X149319476Y-127204819D02*
X149557571Y-127204819D01*
X149557571Y-127204819D02*
X149700428Y-127252438D01*
X149700428Y-127252438D02*
X149795666Y-127347676D01*
X149795666Y-127347676D02*
X149843285Y-127442914D01*
X149843285Y-127442914D02*
X149890904Y-127633390D01*
X149890904Y-127633390D02*
X149890904Y-127776247D01*
X149890904Y-127776247D02*
X149843285Y-127966723D01*
X149843285Y-127966723D02*
X149795666Y-128061961D01*
X149795666Y-128061961D02*
X149700428Y-128157200D01*
X149700428Y-128157200D02*
X149557571Y-128204819D01*
X149557571Y-128204819D02*
X149319476Y-128204819D01*
D12*
X118438523Y-118985333D02*
X110819476Y-118985333D01*
X141438523Y-118985333D02*
X133819476Y-118985333D01*
X137628999Y-115175809D02*
X137628999Y-122794857D01*
D11*
X234343285Y-113681009D02*
X234486142Y-113728628D01*
X234486142Y-113728628D02*
X234533761Y-113776247D01*
X234533761Y-113776247D02*
X234581380Y-113871485D01*
X234581380Y-113871485D02*
X234581380Y-114014342D01*
X234581380Y-114014342D02*
X234533761Y-114109580D01*
X234533761Y-114109580D02*
X234486142Y-114157200D01*
X234486142Y-114157200D02*
X234390904Y-114204819D01*
X234390904Y-114204819D02*
X234009952Y-114204819D01*
X234009952Y-114204819D02*
X234009952Y-113204819D01*
X234009952Y-113204819D02*
X234343285Y-113204819D01*
X234343285Y-113204819D02*
X234438523Y-113252438D01*
X234438523Y-113252438D02*
X234486142Y-113300057D01*
X234486142Y-113300057D02*
X234533761Y-113395295D01*
X234533761Y-113395295D02*
X234533761Y-113490533D01*
X234533761Y-113490533D02*
X234486142Y-113585771D01*
X234486142Y-113585771D02*
X234438523Y-113633390D01*
X234438523Y-113633390D02*
X234343285Y-113681009D01*
X234343285Y-113681009D02*
X234009952Y-113681009D01*
X234867095Y-113204819D02*
X235438523Y-113204819D01*
X235152809Y-114204819D02*
X235152809Y-113204819D01*
X235676619Y-113204819D02*
X236343285Y-113204819D01*
X236343285Y-113204819D02*
X235914714Y-114204819D01*
X179819476Y-127681009D02*
X179962333Y-127728628D01*
X179962333Y-127728628D02*
X180009952Y-127776247D01*
X180009952Y-127776247D02*
X180057571Y-127871485D01*
X180057571Y-127871485D02*
X180057571Y-128014342D01*
X180057571Y-128014342D02*
X180009952Y-128109580D01*
X180009952Y-128109580D02*
X179962333Y-128157200D01*
X179962333Y-128157200D02*
X179867095Y-128204819D01*
X179867095Y-128204819D02*
X179486143Y-128204819D01*
X179486143Y-128204819D02*
X179486143Y-127204819D01*
X179486143Y-127204819D02*
X179819476Y-127204819D01*
X179819476Y-127204819D02*
X179914714Y-127252438D01*
X179914714Y-127252438D02*
X179962333Y-127300057D01*
X179962333Y-127300057D02*
X180009952Y-127395295D01*
X180009952Y-127395295D02*
X180009952Y-127490533D01*
X180009952Y-127490533D02*
X179962333Y-127585771D01*
X179962333Y-127585771D02*
X179914714Y-127633390D01*
X179914714Y-127633390D02*
X179819476Y-127681009D01*
X179819476Y-127681009D02*
X179486143Y-127681009D01*
X180962333Y-128204819D02*
X180486143Y-128204819D01*
X180486143Y-128204819D02*
X180486143Y-127204819D01*
X181295667Y-127204819D02*
X181295667Y-128014342D01*
X181295667Y-128014342D02*
X181343286Y-128109580D01*
X181343286Y-128109580D02*
X181390905Y-128157200D01*
X181390905Y-128157200D02*
X181486143Y-128204819D01*
X181486143Y-128204819D02*
X181676619Y-128204819D01*
X181676619Y-128204819D02*
X181771857Y-128157200D01*
X181771857Y-128157200D02*
X181819476Y-128109580D01*
X181819476Y-128109580D02*
X181867095Y-128014342D01*
X181867095Y-128014342D02*
X181867095Y-127204819D01*
X182343286Y-127681009D02*
X182676619Y-127681009D01*
X182819476Y-128204819D02*
X182343286Y-128204819D01*
X182343286Y-128204819D02*
X182343286Y-127204819D01*
X182343286Y-127204819D02*
X182819476Y-127204819D01*
X225486142Y-128204819D02*
X225152809Y-127728628D01*
X224914714Y-128204819D02*
X224914714Y-127204819D01*
X224914714Y-127204819D02*
X225295666Y-127204819D01*
X225295666Y-127204819D02*
X225390904Y-127252438D01*
X225390904Y-127252438D02*
X225438523Y-127300057D01*
X225438523Y-127300057D02*
X225486142Y-127395295D01*
X225486142Y-127395295D02*
X225486142Y-127538152D01*
X225486142Y-127538152D02*
X225438523Y-127633390D01*
X225438523Y-127633390D02*
X225390904Y-127681009D01*
X225390904Y-127681009D02*
X225295666Y-127728628D01*
X225295666Y-127728628D02*
X224914714Y-127728628D01*
X225914714Y-127681009D02*
X226248047Y-127681009D01*
X226390904Y-128204819D02*
X225914714Y-128204819D01*
X225914714Y-128204819D02*
X225914714Y-127204819D01*
X225914714Y-127204819D02*
X226390904Y-127204819D01*
X226819476Y-128204819D02*
X226819476Y-127204819D01*
X226819476Y-127204819D02*
X227057571Y-127204819D01*
X227057571Y-127204819D02*
X227200428Y-127252438D01*
X227200428Y-127252438D02*
X227295666Y-127347676D01*
X227295666Y-127347676D02*
X227343285Y-127442914D01*
X227343285Y-127442914D02*
X227390904Y-127633390D01*
X227390904Y-127633390D02*
X227390904Y-127776247D01*
X227390904Y-127776247D02*
X227343285Y-127966723D01*
X227343285Y-127966723D02*
X227295666Y-128061961D01*
X227295666Y-128061961D02*
X227200428Y-128157200D01*
X227200428Y-128157200D02*
X227057571Y-128204819D01*
X227057571Y-128204819D02*
X226819476Y-128204819D01*
D12*
X218938523Y-118985333D02*
X211319476Y-118985333D01*
X215128999Y-115175809D02*
X215128999Y-122794857D01*
X195938523Y-118985333D02*
X188319476Y-118985333D01*
D11*
X115376666Y-280294819D02*
X115376666Y-281009104D01*
X115376666Y-281009104D02*
X115329047Y-281151961D01*
X115329047Y-281151961D02*
X115233809Y-281247200D01*
X115233809Y-281247200D02*
X115090952Y-281294819D01*
X115090952Y-281294819D02*
X114995714Y-281294819D01*
X116281428Y-280628152D02*
X116281428Y-281294819D01*
X116043333Y-280247200D02*
X115805238Y-280961485D01*
X115805238Y-280961485D02*
X116424285Y-280961485D01*
X156843285Y-137815009D02*
X156986142Y-137862628D01*
X156986142Y-137862628D02*
X157033761Y-137910247D01*
X157033761Y-137910247D02*
X157081380Y-138005485D01*
X157081380Y-138005485D02*
X157081380Y-138148342D01*
X157081380Y-138148342D02*
X157033761Y-138243580D01*
X157033761Y-138243580D02*
X156986142Y-138291200D01*
X156986142Y-138291200D02*
X156890904Y-138338819D01*
X156890904Y-138338819D02*
X156509952Y-138338819D01*
X156509952Y-138338819D02*
X156509952Y-137338819D01*
X156509952Y-137338819D02*
X156843285Y-137338819D01*
X156843285Y-137338819D02*
X156938523Y-137386438D01*
X156938523Y-137386438D02*
X156986142Y-137434057D01*
X156986142Y-137434057D02*
X157033761Y-137529295D01*
X157033761Y-137529295D02*
X157033761Y-137624533D01*
X157033761Y-137624533D02*
X156986142Y-137719771D01*
X156986142Y-137719771D02*
X156938523Y-137767390D01*
X156938523Y-137767390D02*
X156843285Y-137815009D01*
X156843285Y-137815009D02*
X156509952Y-137815009D01*
X157367095Y-137338819D02*
X157938523Y-137338819D01*
X157652809Y-138338819D02*
X157652809Y-137338819D01*
X158748047Y-137338819D02*
X158271857Y-137338819D01*
X158271857Y-137338819D02*
X158224238Y-137815009D01*
X158224238Y-137815009D02*
X158271857Y-137767390D01*
X158271857Y-137767390D02*
X158367095Y-137719771D01*
X158367095Y-137719771D02*
X158605190Y-137719771D01*
X158605190Y-137719771D02*
X158700428Y-137767390D01*
X158700428Y-137767390D02*
X158748047Y-137815009D01*
X158748047Y-137815009D02*
X158795666Y-137910247D01*
X158795666Y-137910247D02*
X158795666Y-138148342D01*
X158795666Y-138148342D02*
X158748047Y-138243580D01*
X158748047Y-138243580D02*
X158700428Y-138291200D01*
X158700428Y-138291200D02*
X158605190Y-138338819D01*
X158605190Y-138338819D02*
X158367095Y-138338819D01*
X158367095Y-138338819D02*
X158271857Y-138291200D01*
X158271857Y-138291200D02*
X158224238Y-138243580D01*
X147986142Y-152338819D02*
X147652809Y-151862628D01*
X147414714Y-152338819D02*
X147414714Y-151338819D01*
X147414714Y-151338819D02*
X147795666Y-151338819D01*
X147795666Y-151338819D02*
X147890904Y-151386438D01*
X147890904Y-151386438D02*
X147938523Y-151434057D01*
X147938523Y-151434057D02*
X147986142Y-151529295D01*
X147986142Y-151529295D02*
X147986142Y-151672152D01*
X147986142Y-151672152D02*
X147938523Y-151767390D01*
X147938523Y-151767390D02*
X147890904Y-151815009D01*
X147890904Y-151815009D02*
X147795666Y-151862628D01*
X147795666Y-151862628D02*
X147414714Y-151862628D01*
X148414714Y-151815009D02*
X148748047Y-151815009D01*
X148890904Y-152338819D02*
X148414714Y-152338819D01*
X148414714Y-152338819D02*
X148414714Y-151338819D01*
X148414714Y-151338819D02*
X148890904Y-151338819D01*
X149319476Y-152338819D02*
X149319476Y-151338819D01*
X149319476Y-151338819D02*
X149557571Y-151338819D01*
X149557571Y-151338819D02*
X149700428Y-151386438D01*
X149700428Y-151386438D02*
X149795666Y-151481676D01*
X149795666Y-151481676D02*
X149843285Y-151576914D01*
X149843285Y-151576914D02*
X149890904Y-151767390D01*
X149890904Y-151767390D02*
X149890904Y-151910247D01*
X149890904Y-151910247D02*
X149843285Y-152100723D01*
X149843285Y-152100723D02*
X149795666Y-152195961D01*
X149795666Y-152195961D02*
X149700428Y-152291200D01*
X149700428Y-152291200D02*
X149557571Y-152338819D01*
X149557571Y-152338819D02*
X149319476Y-152338819D01*
D12*
X141438523Y-143119333D02*
X133819476Y-143119333D01*
X137628999Y-139309809D02*
X137628999Y-146928857D01*
X118438523Y-143119333D02*
X110819476Y-143119333D01*
D11*
X102319476Y-151815009D02*
X102462333Y-151862628D01*
X102462333Y-151862628D02*
X102509952Y-151910247D01*
X102509952Y-151910247D02*
X102557571Y-152005485D01*
X102557571Y-152005485D02*
X102557571Y-152148342D01*
X102557571Y-152148342D02*
X102509952Y-152243580D01*
X102509952Y-152243580D02*
X102462333Y-152291200D01*
X102462333Y-152291200D02*
X102367095Y-152338819D01*
X102367095Y-152338819D02*
X101986143Y-152338819D01*
X101986143Y-152338819D02*
X101986143Y-151338819D01*
X101986143Y-151338819D02*
X102319476Y-151338819D01*
X102319476Y-151338819D02*
X102414714Y-151386438D01*
X102414714Y-151386438D02*
X102462333Y-151434057D01*
X102462333Y-151434057D02*
X102509952Y-151529295D01*
X102509952Y-151529295D02*
X102509952Y-151624533D01*
X102509952Y-151624533D02*
X102462333Y-151719771D01*
X102462333Y-151719771D02*
X102414714Y-151767390D01*
X102414714Y-151767390D02*
X102319476Y-151815009D01*
X102319476Y-151815009D02*
X101986143Y-151815009D01*
X103462333Y-152338819D02*
X102986143Y-152338819D01*
X102986143Y-152338819D02*
X102986143Y-151338819D01*
X103795667Y-151338819D02*
X103795667Y-152148342D01*
X103795667Y-152148342D02*
X103843286Y-152243580D01*
X103843286Y-152243580D02*
X103890905Y-152291200D01*
X103890905Y-152291200D02*
X103986143Y-152338819D01*
X103986143Y-152338819D02*
X104176619Y-152338819D01*
X104176619Y-152338819D02*
X104271857Y-152291200D01*
X104271857Y-152291200D02*
X104319476Y-152243580D01*
X104319476Y-152243580D02*
X104367095Y-152148342D01*
X104367095Y-152148342D02*
X104367095Y-151338819D01*
X104843286Y-151815009D02*
X105176619Y-151815009D01*
X105319476Y-152338819D02*
X104843286Y-152338819D01*
X104843286Y-152338819D02*
X104843286Y-151338819D01*
X104843286Y-151338819D02*
X105319476Y-151338819D01*
X234343285Y-161949009D02*
X234486142Y-161996628D01*
X234486142Y-161996628D02*
X234533761Y-162044247D01*
X234533761Y-162044247D02*
X234581380Y-162139485D01*
X234581380Y-162139485D02*
X234581380Y-162282342D01*
X234581380Y-162282342D02*
X234533761Y-162377580D01*
X234533761Y-162377580D02*
X234486142Y-162425200D01*
X234486142Y-162425200D02*
X234390904Y-162472819D01*
X234390904Y-162472819D02*
X234009952Y-162472819D01*
X234009952Y-162472819D02*
X234009952Y-161472819D01*
X234009952Y-161472819D02*
X234343285Y-161472819D01*
X234343285Y-161472819D02*
X234438523Y-161520438D01*
X234438523Y-161520438D02*
X234486142Y-161568057D01*
X234486142Y-161568057D02*
X234533761Y-161663295D01*
X234533761Y-161663295D02*
X234533761Y-161758533D01*
X234533761Y-161758533D02*
X234486142Y-161853771D01*
X234486142Y-161853771D02*
X234438523Y-161901390D01*
X234438523Y-161901390D02*
X234343285Y-161949009D01*
X234343285Y-161949009D02*
X234009952Y-161949009D01*
X234867095Y-161472819D02*
X235438523Y-161472819D01*
X235152809Y-162472819D02*
X235152809Y-161472819D01*
X235819476Y-162472819D02*
X236009952Y-162472819D01*
X236009952Y-162472819D02*
X236105190Y-162425200D01*
X236105190Y-162425200D02*
X236152809Y-162377580D01*
X236152809Y-162377580D02*
X236248047Y-162234723D01*
X236248047Y-162234723D02*
X236295666Y-162044247D01*
X236295666Y-162044247D02*
X236295666Y-161663295D01*
X236295666Y-161663295D02*
X236248047Y-161568057D01*
X236248047Y-161568057D02*
X236200428Y-161520438D01*
X236200428Y-161520438D02*
X236105190Y-161472819D01*
X236105190Y-161472819D02*
X235914714Y-161472819D01*
X235914714Y-161472819D02*
X235819476Y-161520438D01*
X235819476Y-161520438D02*
X235771857Y-161568057D01*
X235771857Y-161568057D02*
X235724238Y-161663295D01*
X235724238Y-161663295D02*
X235724238Y-161901390D01*
X235724238Y-161901390D02*
X235771857Y-161996628D01*
X235771857Y-161996628D02*
X235819476Y-162044247D01*
X235819476Y-162044247D02*
X235914714Y-162091866D01*
X235914714Y-162091866D02*
X236105190Y-162091866D01*
X236105190Y-162091866D02*
X236200428Y-162044247D01*
X236200428Y-162044247D02*
X236248047Y-161996628D01*
X236248047Y-161996628D02*
X236295666Y-161901390D01*
D12*
X218938523Y-167253333D02*
X211319476Y-167253333D01*
X215128999Y-163443809D02*
X215128999Y-171062857D01*
X195938523Y-167253333D02*
X188319476Y-167253333D01*
D11*
X225486142Y-176472819D02*
X225152809Y-175996628D01*
X224914714Y-176472819D02*
X224914714Y-175472819D01*
X224914714Y-175472819D02*
X225295666Y-175472819D01*
X225295666Y-175472819D02*
X225390904Y-175520438D01*
X225390904Y-175520438D02*
X225438523Y-175568057D01*
X225438523Y-175568057D02*
X225486142Y-175663295D01*
X225486142Y-175663295D02*
X225486142Y-175806152D01*
X225486142Y-175806152D02*
X225438523Y-175901390D01*
X225438523Y-175901390D02*
X225390904Y-175949009D01*
X225390904Y-175949009D02*
X225295666Y-175996628D01*
X225295666Y-175996628D02*
X224914714Y-175996628D01*
X225914714Y-175949009D02*
X226248047Y-175949009D01*
X226390904Y-176472819D02*
X225914714Y-176472819D01*
X225914714Y-176472819D02*
X225914714Y-175472819D01*
X225914714Y-175472819D02*
X226390904Y-175472819D01*
X226819476Y-176472819D02*
X226819476Y-175472819D01*
X226819476Y-175472819D02*
X227057571Y-175472819D01*
X227057571Y-175472819D02*
X227200428Y-175520438D01*
X227200428Y-175520438D02*
X227295666Y-175615676D01*
X227295666Y-175615676D02*
X227343285Y-175710914D01*
X227343285Y-175710914D02*
X227390904Y-175901390D01*
X227390904Y-175901390D02*
X227390904Y-176044247D01*
X227390904Y-176044247D02*
X227343285Y-176234723D01*
X227343285Y-176234723D02*
X227295666Y-176329961D01*
X227295666Y-176329961D02*
X227200428Y-176425200D01*
X227200428Y-176425200D02*
X227057571Y-176472819D01*
X227057571Y-176472819D02*
X226819476Y-176472819D01*
X179819476Y-175949009D02*
X179962333Y-175996628D01*
X179962333Y-175996628D02*
X180009952Y-176044247D01*
X180009952Y-176044247D02*
X180057571Y-176139485D01*
X180057571Y-176139485D02*
X180057571Y-176282342D01*
X180057571Y-176282342D02*
X180009952Y-176377580D01*
X180009952Y-176377580D02*
X179962333Y-176425200D01*
X179962333Y-176425200D02*
X179867095Y-176472819D01*
X179867095Y-176472819D02*
X179486143Y-176472819D01*
X179486143Y-176472819D02*
X179486143Y-175472819D01*
X179486143Y-175472819D02*
X179819476Y-175472819D01*
X179819476Y-175472819D02*
X179914714Y-175520438D01*
X179914714Y-175520438D02*
X179962333Y-175568057D01*
X179962333Y-175568057D02*
X180009952Y-175663295D01*
X180009952Y-175663295D02*
X180009952Y-175758533D01*
X180009952Y-175758533D02*
X179962333Y-175853771D01*
X179962333Y-175853771D02*
X179914714Y-175901390D01*
X179914714Y-175901390D02*
X179819476Y-175949009D01*
X179819476Y-175949009D02*
X179486143Y-175949009D01*
X180962333Y-176472819D02*
X180486143Y-176472819D01*
X180486143Y-176472819D02*
X180486143Y-175472819D01*
X181295667Y-175472819D02*
X181295667Y-176282342D01*
X181295667Y-176282342D02*
X181343286Y-176377580D01*
X181343286Y-176377580D02*
X181390905Y-176425200D01*
X181390905Y-176425200D02*
X181486143Y-176472819D01*
X181486143Y-176472819D02*
X181676619Y-176472819D01*
X181676619Y-176472819D02*
X181771857Y-176425200D01*
X181771857Y-176425200D02*
X181819476Y-176377580D01*
X181819476Y-176377580D02*
X181867095Y-176282342D01*
X181867095Y-176282342D02*
X181867095Y-175472819D01*
X182343286Y-175949009D02*
X182676619Y-175949009D01*
X182819476Y-176472819D02*
X182343286Y-176472819D01*
X182343286Y-176472819D02*
X182343286Y-175472819D01*
X182343286Y-175472819D02*
X182819476Y-175472819D01*
X185076666Y-280364819D02*
X185076666Y-281079104D01*
X185076666Y-281079104D02*
X185029047Y-281221961D01*
X185029047Y-281221961D02*
X184933809Y-281317200D01*
X184933809Y-281317200D02*
X184790952Y-281364819D01*
X184790952Y-281364819D02*
X184695714Y-281364819D01*
X186029047Y-280364819D02*
X185552857Y-280364819D01*
X185552857Y-280364819D02*
X185505238Y-280841009D01*
X185505238Y-280841009D02*
X185552857Y-280793390D01*
X185552857Y-280793390D02*
X185648095Y-280745771D01*
X185648095Y-280745771D02*
X185886190Y-280745771D01*
X185886190Y-280745771D02*
X185981428Y-280793390D01*
X185981428Y-280793390D02*
X186029047Y-280841009D01*
X186029047Y-280841009D02*
X186076666Y-280936247D01*
X186076666Y-280936247D02*
X186076666Y-281174342D01*
X186076666Y-281174342D02*
X186029047Y-281269580D01*
X186029047Y-281269580D02*
X185981428Y-281317200D01*
X185981428Y-281317200D02*
X185886190Y-281364819D01*
X185886190Y-281364819D02*
X185648095Y-281364819D01*
X185648095Y-281364819D02*
X185552857Y-281317200D01*
X185552857Y-281317200D02*
X185505238Y-281269580D01*
X195856666Y-280354819D02*
X195856666Y-281069104D01*
X195856666Y-281069104D02*
X195809047Y-281211961D01*
X195809047Y-281211961D02*
X195713809Y-281307200D01*
X195713809Y-281307200D02*
X195570952Y-281354819D01*
X195570952Y-281354819D02*
X195475714Y-281354819D01*
X196856666Y-281354819D02*
X196285238Y-281354819D01*
X196570952Y-281354819D02*
X196570952Y-280354819D01*
X196570952Y-280354819D02*
X196475714Y-280497676D01*
X196475714Y-280497676D02*
X196380476Y-280592914D01*
X196380476Y-280592914D02*
X196285238Y-280640533D01*
X156843285Y-186084009D02*
X156986142Y-186131628D01*
X156986142Y-186131628D02*
X157033761Y-186179247D01*
X157033761Y-186179247D02*
X157081380Y-186274485D01*
X157081380Y-186274485D02*
X157081380Y-186417342D01*
X157081380Y-186417342D02*
X157033761Y-186512580D01*
X157033761Y-186512580D02*
X156986142Y-186560200D01*
X156986142Y-186560200D02*
X156890904Y-186607819D01*
X156890904Y-186607819D02*
X156509952Y-186607819D01*
X156509952Y-186607819D02*
X156509952Y-185607819D01*
X156509952Y-185607819D02*
X156843285Y-185607819D01*
X156843285Y-185607819D02*
X156938523Y-185655438D01*
X156938523Y-185655438D02*
X156986142Y-185703057D01*
X156986142Y-185703057D02*
X157033761Y-185798295D01*
X157033761Y-185798295D02*
X157033761Y-185893533D01*
X157033761Y-185893533D02*
X156986142Y-185988771D01*
X156986142Y-185988771D02*
X156938523Y-186036390D01*
X156938523Y-186036390D02*
X156843285Y-186084009D01*
X156843285Y-186084009D02*
X156509952Y-186084009D01*
X157367095Y-185607819D02*
X157938523Y-185607819D01*
X157652809Y-186607819D02*
X157652809Y-185607819D01*
X158176619Y-185607819D02*
X158795666Y-185607819D01*
X158795666Y-185607819D02*
X158462333Y-185988771D01*
X158462333Y-185988771D02*
X158605190Y-185988771D01*
X158605190Y-185988771D02*
X158700428Y-186036390D01*
X158700428Y-186036390D02*
X158748047Y-186084009D01*
X158748047Y-186084009D02*
X158795666Y-186179247D01*
X158795666Y-186179247D02*
X158795666Y-186417342D01*
X158795666Y-186417342D02*
X158748047Y-186512580D01*
X158748047Y-186512580D02*
X158700428Y-186560200D01*
X158700428Y-186560200D02*
X158605190Y-186607819D01*
X158605190Y-186607819D02*
X158319476Y-186607819D01*
X158319476Y-186607819D02*
X158224238Y-186560200D01*
X158224238Y-186560200D02*
X158176619Y-186512580D01*
D12*
X118438523Y-191388333D02*
X110819476Y-191388333D01*
X141438523Y-191388333D02*
X133819476Y-191388333D01*
X137628999Y-187578809D02*
X137628999Y-195197857D01*
D11*
X102319476Y-200084009D02*
X102462333Y-200131628D01*
X102462333Y-200131628D02*
X102509952Y-200179247D01*
X102509952Y-200179247D02*
X102557571Y-200274485D01*
X102557571Y-200274485D02*
X102557571Y-200417342D01*
X102557571Y-200417342D02*
X102509952Y-200512580D01*
X102509952Y-200512580D02*
X102462333Y-200560200D01*
X102462333Y-200560200D02*
X102367095Y-200607819D01*
X102367095Y-200607819D02*
X101986143Y-200607819D01*
X101986143Y-200607819D02*
X101986143Y-199607819D01*
X101986143Y-199607819D02*
X102319476Y-199607819D01*
X102319476Y-199607819D02*
X102414714Y-199655438D01*
X102414714Y-199655438D02*
X102462333Y-199703057D01*
X102462333Y-199703057D02*
X102509952Y-199798295D01*
X102509952Y-199798295D02*
X102509952Y-199893533D01*
X102509952Y-199893533D02*
X102462333Y-199988771D01*
X102462333Y-199988771D02*
X102414714Y-200036390D01*
X102414714Y-200036390D02*
X102319476Y-200084009D01*
X102319476Y-200084009D02*
X101986143Y-200084009D01*
X103462333Y-200607819D02*
X102986143Y-200607819D01*
X102986143Y-200607819D02*
X102986143Y-199607819D01*
X103795667Y-199607819D02*
X103795667Y-200417342D01*
X103795667Y-200417342D02*
X103843286Y-200512580D01*
X103843286Y-200512580D02*
X103890905Y-200560200D01*
X103890905Y-200560200D02*
X103986143Y-200607819D01*
X103986143Y-200607819D02*
X104176619Y-200607819D01*
X104176619Y-200607819D02*
X104271857Y-200560200D01*
X104271857Y-200560200D02*
X104319476Y-200512580D01*
X104319476Y-200512580D02*
X104367095Y-200417342D01*
X104367095Y-200417342D02*
X104367095Y-199607819D01*
X104843286Y-200084009D02*
X105176619Y-200084009D01*
X105319476Y-200607819D02*
X104843286Y-200607819D01*
X104843286Y-200607819D02*
X104843286Y-199607819D01*
X104843286Y-199607819D02*
X105319476Y-199607819D01*
X147986142Y-200607819D02*
X147652809Y-200131628D01*
X147414714Y-200607819D02*
X147414714Y-199607819D01*
X147414714Y-199607819D02*
X147795666Y-199607819D01*
X147795666Y-199607819D02*
X147890904Y-199655438D01*
X147890904Y-199655438D02*
X147938523Y-199703057D01*
X147938523Y-199703057D02*
X147986142Y-199798295D01*
X147986142Y-199798295D02*
X147986142Y-199941152D01*
X147986142Y-199941152D02*
X147938523Y-200036390D01*
X147938523Y-200036390D02*
X147890904Y-200084009D01*
X147890904Y-200084009D02*
X147795666Y-200131628D01*
X147795666Y-200131628D02*
X147414714Y-200131628D01*
X148414714Y-200084009D02*
X148748047Y-200084009D01*
X148890904Y-200607819D02*
X148414714Y-200607819D01*
X148414714Y-200607819D02*
X148414714Y-199607819D01*
X148414714Y-199607819D02*
X148890904Y-199607819D01*
X149319476Y-200607819D02*
X149319476Y-199607819D01*
X149319476Y-199607819D02*
X149557571Y-199607819D01*
X149557571Y-199607819D02*
X149700428Y-199655438D01*
X149700428Y-199655438D02*
X149795666Y-199750676D01*
X149795666Y-199750676D02*
X149843285Y-199845914D01*
X149843285Y-199845914D02*
X149890904Y-200036390D01*
X149890904Y-200036390D02*
X149890904Y-200179247D01*
X149890904Y-200179247D02*
X149843285Y-200369723D01*
X149843285Y-200369723D02*
X149795666Y-200464961D01*
X149795666Y-200464961D02*
X149700428Y-200560200D01*
X149700428Y-200560200D02*
X149557571Y-200607819D01*
X149557571Y-200607819D02*
X149319476Y-200607819D01*
X233867095Y-186084009D02*
X234009952Y-186131628D01*
X234009952Y-186131628D02*
X234057571Y-186179247D01*
X234057571Y-186179247D02*
X234105190Y-186274485D01*
X234105190Y-186274485D02*
X234105190Y-186417342D01*
X234105190Y-186417342D02*
X234057571Y-186512580D01*
X234057571Y-186512580D02*
X234009952Y-186560200D01*
X234009952Y-186560200D02*
X233914714Y-186607819D01*
X233914714Y-186607819D02*
X233533762Y-186607819D01*
X233533762Y-186607819D02*
X233533762Y-185607819D01*
X233533762Y-185607819D02*
X233867095Y-185607819D01*
X233867095Y-185607819D02*
X233962333Y-185655438D01*
X233962333Y-185655438D02*
X234009952Y-185703057D01*
X234009952Y-185703057D02*
X234057571Y-185798295D01*
X234057571Y-185798295D02*
X234057571Y-185893533D01*
X234057571Y-185893533D02*
X234009952Y-185988771D01*
X234009952Y-185988771D02*
X233962333Y-186036390D01*
X233962333Y-186036390D02*
X233867095Y-186084009D01*
X233867095Y-186084009D02*
X233533762Y-186084009D01*
X234390905Y-185607819D02*
X234962333Y-185607819D01*
X234676619Y-186607819D02*
X234676619Y-185607819D01*
X235819476Y-186607819D02*
X235248048Y-186607819D01*
X235533762Y-186607819D02*
X235533762Y-185607819D01*
X235533762Y-185607819D02*
X235438524Y-185750676D01*
X235438524Y-185750676D02*
X235343286Y-185845914D01*
X235343286Y-185845914D02*
X235248048Y-185893533D01*
X236438524Y-185607819D02*
X236533762Y-185607819D01*
X236533762Y-185607819D02*
X236629000Y-185655438D01*
X236629000Y-185655438D02*
X236676619Y-185703057D01*
X236676619Y-185703057D02*
X236724238Y-185798295D01*
X236724238Y-185798295D02*
X236771857Y-185988771D01*
X236771857Y-185988771D02*
X236771857Y-186226866D01*
X236771857Y-186226866D02*
X236724238Y-186417342D01*
X236724238Y-186417342D02*
X236676619Y-186512580D01*
X236676619Y-186512580D02*
X236629000Y-186560200D01*
X236629000Y-186560200D02*
X236533762Y-186607819D01*
X236533762Y-186607819D02*
X236438524Y-186607819D01*
X236438524Y-186607819D02*
X236343286Y-186560200D01*
X236343286Y-186560200D02*
X236295667Y-186512580D01*
X236295667Y-186512580D02*
X236248048Y-186417342D01*
X236248048Y-186417342D02*
X236200429Y-186226866D01*
X236200429Y-186226866D02*
X236200429Y-185988771D01*
X236200429Y-185988771D02*
X236248048Y-185798295D01*
X236248048Y-185798295D02*
X236295667Y-185703057D01*
X236295667Y-185703057D02*
X236343286Y-185655438D01*
X236343286Y-185655438D02*
X236438524Y-185607819D01*
D12*
X195938523Y-191388333D02*
X188319476Y-191388333D01*
D11*
X225486142Y-200607819D02*
X225152809Y-200131628D01*
X224914714Y-200607819D02*
X224914714Y-199607819D01*
X224914714Y-199607819D02*
X225295666Y-199607819D01*
X225295666Y-199607819D02*
X225390904Y-199655438D01*
X225390904Y-199655438D02*
X225438523Y-199703057D01*
X225438523Y-199703057D02*
X225486142Y-199798295D01*
X225486142Y-199798295D02*
X225486142Y-199941152D01*
X225486142Y-199941152D02*
X225438523Y-200036390D01*
X225438523Y-200036390D02*
X225390904Y-200084009D01*
X225390904Y-200084009D02*
X225295666Y-200131628D01*
X225295666Y-200131628D02*
X224914714Y-200131628D01*
X225914714Y-200084009D02*
X226248047Y-200084009D01*
X226390904Y-200607819D02*
X225914714Y-200607819D01*
X225914714Y-200607819D02*
X225914714Y-199607819D01*
X225914714Y-199607819D02*
X226390904Y-199607819D01*
X226819476Y-200607819D02*
X226819476Y-199607819D01*
X226819476Y-199607819D02*
X227057571Y-199607819D01*
X227057571Y-199607819D02*
X227200428Y-199655438D01*
X227200428Y-199655438D02*
X227295666Y-199750676D01*
X227295666Y-199750676D02*
X227343285Y-199845914D01*
X227343285Y-199845914D02*
X227390904Y-200036390D01*
X227390904Y-200036390D02*
X227390904Y-200179247D01*
X227390904Y-200179247D02*
X227343285Y-200369723D01*
X227343285Y-200369723D02*
X227295666Y-200464961D01*
X227295666Y-200464961D02*
X227200428Y-200560200D01*
X227200428Y-200560200D02*
X227057571Y-200607819D01*
X227057571Y-200607819D02*
X226819476Y-200607819D01*
X179819476Y-200084009D02*
X179962333Y-200131628D01*
X179962333Y-200131628D02*
X180009952Y-200179247D01*
X180009952Y-200179247D02*
X180057571Y-200274485D01*
X180057571Y-200274485D02*
X180057571Y-200417342D01*
X180057571Y-200417342D02*
X180009952Y-200512580D01*
X180009952Y-200512580D02*
X179962333Y-200560200D01*
X179962333Y-200560200D02*
X179867095Y-200607819D01*
X179867095Y-200607819D02*
X179486143Y-200607819D01*
X179486143Y-200607819D02*
X179486143Y-199607819D01*
X179486143Y-199607819D02*
X179819476Y-199607819D01*
X179819476Y-199607819D02*
X179914714Y-199655438D01*
X179914714Y-199655438D02*
X179962333Y-199703057D01*
X179962333Y-199703057D02*
X180009952Y-199798295D01*
X180009952Y-199798295D02*
X180009952Y-199893533D01*
X180009952Y-199893533D02*
X179962333Y-199988771D01*
X179962333Y-199988771D02*
X179914714Y-200036390D01*
X179914714Y-200036390D02*
X179819476Y-200084009D01*
X179819476Y-200084009D02*
X179486143Y-200084009D01*
X180962333Y-200607819D02*
X180486143Y-200607819D01*
X180486143Y-200607819D02*
X180486143Y-199607819D01*
X181295667Y-199607819D02*
X181295667Y-200417342D01*
X181295667Y-200417342D02*
X181343286Y-200512580D01*
X181343286Y-200512580D02*
X181390905Y-200560200D01*
X181390905Y-200560200D02*
X181486143Y-200607819D01*
X181486143Y-200607819D02*
X181676619Y-200607819D01*
X181676619Y-200607819D02*
X181771857Y-200560200D01*
X181771857Y-200560200D02*
X181819476Y-200512580D01*
X181819476Y-200512580D02*
X181867095Y-200417342D01*
X181867095Y-200417342D02*
X181867095Y-199607819D01*
X182343286Y-200084009D02*
X182676619Y-200084009D01*
X182819476Y-200607819D02*
X182343286Y-200607819D01*
X182343286Y-200607819D02*
X182343286Y-199607819D01*
X182343286Y-199607819D02*
X182819476Y-199607819D01*
D12*
X218938523Y-191388333D02*
X211319476Y-191388333D01*
X215128999Y-187578809D02*
X215128999Y-195197857D01*
D11*
X156843285Y-161949009D02*
X156986142Y-161996628D01*
X156986142Y-161996628D02*
X157033761Y-162044247D01*
X157033761Y-162044247D02*
X157081380Y-162139485D01*
X157081380Y-162139485D02*
X157081380Y-162282342D01*
X157081380Y-162282342D02*
X157033761Y-162377580D01*
X157033761Y-162377580D02*
X156986142Y-162425200D01*
X156986142Y-162425200D02*
X156890904Y-162472819D01*
X156890904Y-162472819D02*
X156509952Y-162472819D01*
X156509952Y-162472819D02*
X156509952Y-161472819D01*
X156509952Y-161472819D02*
X156843285Y-161472819D01*
X156843285Y-161472819D02*
X156938523Y-161520438D01*
X156938523Y-161520438D02*
X156986142Y-161568057D01*
X156986142Y-161568057D02*
X157033761Y-161663295D01*
X157033761Y-161663295D02*
X157033761Y-161758533D01*
X157033761Y-161758533D02*
X156986142Y-161853771D01*
X156986142Y-161853771D02*
X156938523Y-161901390D01*
X156938523Y-161901390D02*
X156843285Y-161949009D01*
X156843285Y-161949009D02*
X156509952Y-161949009D01*
X157367095Y-161472819D02*
X157938523Y-161472819D01*
X157652809Y-162472819D02*
X157652809Y-161472819D01*
X158700428Y-161806152D02*
X158700428Y-162472819D01*
X158462333Y-161425200D02*
X158224238Y-162139485D01*
X158224238Y-162139485D02*
X158843285Y-162139485D01*
D12*
X141438523Y-167253333D02*
X133819476Y-167253333D01*
X137628999Y-163443809D02*
X137628999Y-171062857D01*
X118438523Y-167253333D02*
X110819476Y-167253333D01*
D11*
X147986142Y-176472819D02*
X147652809Y-175996628D01*
X147414714Y-176472819D02*
X147414714Y-175472819D01*
X147414714Y-175472819D02*
X147795666Y-175472819D01*
X147795666Y-175472819D02*
X147890904Y-175520438D01*
X147890904Y-175520438D02*
X147938523Y-175568057D01*
X147938523Y-175568057D02*
X147986142Y-175663295D01*
X147986142Y-175663295D02*
X147986142Y-175806152D01*
X147986142Y-175806152D02*
X147938523Y-175901390D01*
X147938523Y-175901390D02*
X147890904Y-175949009D01*
X147890904Y-175949009D02*
X147795666Y-175996628D01*
X147795666Y-175996628D02*
X147414714Y-175996628D01*
X148414714Y-175949009D02*
X148748047Y-175949009D01*
X148890904Y-176472819D02*
X148414714Y-176472819D01*
X148414714Y-176472819D02*
X148414714Y-175472819D01*
X148414714Y-175472819D02*
X148890904Y-175472819D01*
X149319476Y-176472819D02*
X149319476Y-175472819D01*
X149319476Y-175472819D02*
X149557571Y-175472819D01*
X149557571Y-175472819D02*
X149700428Y-175520438D01*
X149700428Y-175520438D02*
X149795666Y-175615676D01*
X149795666Y-175615676D02*
X149843285Y-175710914D01*
X149843285Y-175710914D02*
X149890904Y-175901390D01*
X149890904Y-175901390D02*
X149890904Y-176044247D01*
X149890904Y-176044247D02*
X149843285Y-176234723D01*
X149843285Y-176234723D02*
X149795666Y-176329961D01*
X149795666Y-176329961D02*
X149700428Y-176425200D01*
X149700428Y-176425200D02*
X149557571Y-176472819D01*
X149557571Y-176472819D02*
X149319476Y-176472819D01*
X102319476Y-175949009D02*
X102462333Y-175996628D01*
X102462333Y-175996628D02*
X102509952Y-176044247D01*
X102509952Y-176044247D02*
X102557571Y-176139485D01*
X102557571Y-176139485D02*
X102557571Y-176282342D01*
X102557571Y-176282342D02*
X102509952Y-176377580D01*
X102509952Y-176377580D02*
X102462333Y-176425200D01*
X102462333Y-176425200D02*
X102367095Y-176472819D01*
X102367095Y-176472819D02*
X101986143Y-176472819D01*
X101986143Y-176472819D02*
X101986143Y-175472819D01*
X101986143Y-175472819D02*
X102319476Y-175472819D01*
X102319476Y-175472819D02*
X102414714Y-175520438D01*
X102414714Y-175520438D02*
X102462333Y-175568057D01*
X102462333Y-175568057D02*
X102509952Y-175663295D01*
X102509952Y-175663295D02*
X102509952Y-175758533D01*
X102509952Y-175758533D02*
X102462333Y-175853771D01*
X102462333Y-175853771D02*
X102414714Y-175901390D01*
X102414714Y-175901390D02*
X102319476Y-175949009D01*
X102319476Y-175949009D02*
X101986143Y-175949009D01*
X103462333Y-176472819D02*
X102986143Y-176472819D01*
X102986143Y-176472819D02*
X102986143Y-175472819D01*
X103795667Y-175472819D02*
X103795667Y-176282342D01*
X103795667Y-176282342D02*
X103843286Y-176377580D01*
X103843286Y-176377580D02*
X103890905Y-176425200D01*
X103890905Y-176425200D02*
X103986143Y-176472819D01*
X103986143Y-176472819D02*
X104176619Y-176472819D01*
X104176619Y-176472819D02*
X104271857Y-176425200D01*
X104271857Y-176425200D02*
X104319476Y-176377580D01*
X104319476Y-176377580D02*
X104367095Y-176282342D01*
X104367095Y-176282342D02*
X104367095Y-175472819D01*
X104843286Y-175949009D02*
X105176619Y-175949009D01*
X105319476Y-176472819D02*
X104843286Y-176472819D01*
X104843286Y-176472819D02*
X104843286Y-175472819D01*
X104843286Y-175472819D02*
X105319476Y-175472819D01*
X233867095Y-210218009D02*
X234009952Y-210265628D01*
X234009952Y-210265628D02*
X234057571Y-210313247D01*
X234057571Y-210313247D02*
X234105190Y-210408485D01*
X234105190Y-210408485D02*
X234105190Y-210551342D01*
X234105190Y-210551342D02*
X234057571Y-210646580D01*
X234057571Y-210646580D02*
X234009952Y-210694200D01*
X234009952Y-210694200D02*
X233914714Y-210741819D01*
X233914714Y-210741819D02*
X233533762Y-210741819D01*
X233533762Y-210741819D02*
X233533762Y-209741819D01*
X233533762Y-209741819D02*
X233867095Y-209741819D01*
X233867095Y-209741819D02*
X233962333Y-209789438D01*
X233962333Y-209789438D02*
X234009952Y-209837057D01*
X234009952Y-209837057D02*
X234057571Y-209932295D01*
X234057571Y-209932295D02*
X234057571Y-210027533D01*
X234057571Y-210027533D02*
X234009952Y-210122771D01*
X234009952Y-210122771D02*
X233962333Y-210170390D01*
X233962333Y-210170390D02*
X233867095Y-210218009D01*
X233867095Y-210218009D02*
X233533762Y-210218009D01*
X234390905Y-209741819D02*
X234962333Y-209741819D01*
X234676619Y-210741819D02*
X234676619Y-209741819D01*
X235819476Y-210741819D02*
X235248048Y-210741819D01*
X235533762Y-210741819D02*
X235533762Y-209741819D01*
X235533762Y-209741819D02*
X235438524Y-209884676D01*
X235438524Y-209884676D02*
X235343286Y-209979914D01*
X235343286Y-209979914D02*
X235248048Y-210027533D01*
X236771857Y-210741819D02*
X236200429Y-210741819D01*
X236486143Y-210741819D02*
X236486143Y-209741819D01*
X236486143Y-209741819D02*
X236390905Y-209884676D01*
X236390905Y-209884676D02*
X236295667Y-209979914D01*
X236295667Y-209979914D02*
X236200429Y-210027533D01*
X225486142Y-224741819D02*
X225152809Y-224265628D01*
X224914714Y-224741819D02*
X224914714Y-223741819D01*
X224914714Y-223741819D02*
X225295666Y-223741819D01*
X225295666Y-223741819D02*
X225390904Y-223789438D01*
X225390904Y-223789438D02*
X225438523Y-223837057D01*
X225438523Y-223837057D02*
X225486142Y-223932295D01*
X225486142Y-223932295D02*
X225486142Y-224075152D01*
X225486142Y-224075152D02*
X225438523Y-224170390D01*
X225438523Y-224170390D02*
X225390904Y-224218009D01*
X225390904Y-224218009D02*
X225295666Y-224265628D01*
X225295666Y-224265628D02*
X224914714Y-224265628D01*
X225914714Y-224218009D02*
X226248047Y-224218009D01*
X226390904Y-224741819D02*
X225914714Y-224741819D01*
X225914714Y-224741819D02*
X225914714Y-223741819D01*
X225914714Y-223741819D02*
X226390904Y-223741819D01*
X226819476Y-224741819D02*
X226819476Y-223741819D01*
X226819476Y-223741819D02*
X227057571Y-223741819D01*
X227057571Y-223741819D02*
X227200428Y-223789438D01*
X227200428Y-223789438D02*
X227295666Y-223884676D01*
X227295666Y-223884676D02*
X227343285Y-223979914D01*
X227343285Y-223979914D02*
X227390904Y-224170390D01*
X227390904Y-224170390D02*
X227390904Y-224313247D01*
X227390904Y-224313247D02*
X227343285Y-224503723D01*
X227343285Y-224503723D02*
X227295666Y-224598961D01*
X227295666Y-224598961D02*
X227200428Y-224694200D01*
X227200428Y-224694200D02*
X227057571Y-224741819D01*
X227057571Y-224741819D02*
X226819476Y-224741819D01*
D12*
X218938523Y-215522333D02*
X211319476Y-215522333D01*
X215128999Y-211712809D02*
X215128999Y-219331857D01*
X195938523Y-215522333D02*
X188319476Y-215522333D01*
D11*
X179819476Y-224218009D02*
X179962333Y-224265628D01*
X179962333Y-224265628D02*
X180009952Y-224313247D01*
X180009952Y-224313247D02*
X180057571Y-224408485D01*
X180057571Y-224408485D02*
X180057571Y-224551342D01*
X180057571Y-224551342D02*
X180009952Y-224646580D01*
X180009952Y-224646580D02*
X179962333Y-224694200D01*
X179962333Y-224694200D02*
X179867095Y-224741819D01*
X179867095Y-224741819D02*
X179486143Y-224741819D01*
X179486143Y-224741819D02*
X179486143Y-223741819D01*
X179486143Y-223741819D02*
X179819476Y-223741819D01*
X179819476Y-223741819D02*
X179914714Y-223789438D01*
X179914714Y-223789438D02*
X179962333Y-223837057D01*
X179962333Y-223837057D02*
X180009952Y-223932295D01*
X180009952Y-223932295D02*
X180009952Y-224027533D01*
X180009952Y-224027533D02*
X179962333Y-224122771D01*
X179962333Y-224122771D02*
X179914714Y-224170390D01*
X179914714Y-224170390D02*
X179819476Y-224218009D01*
X179819476Y-224218009D02*
X179486143Y-224218009D01*
X180962333Y-224741819D02*
X180486143Y-224741819D01*
X180486143Y-224741819D02*
X180486143Y-223741819D01*
X181295667Y-223741819D02*
X181295667Y-224551342D01*
X181295667Y-224551342D02*
X181343286Y-224646580D01*
X181343286Y-224646580D02*
X181390905Y-224694200D01*
X181390905Y-224694200D02*
X181486143Y-224741819D01*
X181486143Y-224741819D02*
X181676619Y-224741819D01*
X181676619Y-224741819D02*
X181771857Y-224694200D01*
X181771857Y-224694200D02*
X181819476Y-224646580D01*
X181819476Y-224646580D02*
X181867095Y-224551342D01*
X181867095Y-224551342D02*
X181867095Y-223741819D01*
X182343286Y-224218009D02*
X182676619Y-224218009D01*
X182819476Y-224741819D02*
X182343286Y-224741819D01*
X182343286Y-224741819D02*
X182343286Y-223741819D01*
X182343286Y-223741819D02*
X182819476Y-223741819D01*
X128706666Y-276184819D02*
X128706666Y-276899104D01*
X128706666Y-276899104D02*
X128659047Y-277041961D01*
X128659047Y-277041961D02*
X128563809Y-277137200D01*
X128563809Y-277137200D02*
X128420952Y-277184819D01*
X128420952Y-277184819D02*
X128325714Y-277184819D01*
X129135238Y-276280057D02*
X129182857Y-276232438D01*
X129182857Y-276232438D02*
X129278095Y-276184819D01*
X129278095Y-276184819D02*
X129516190Y-276184819D01*
X129516190Y-276184819D02*
X129611428Y-276232438D01*
X129611428Y-276232438D02*
X129659047Y-276280057D01*
X129659047Y-276280057D02*
X129706666Y-276375295D01*
X129706666Y-276375295D02*
X129706666Y-276470533D01*
X129706666Y-276470533D02*
X129659047Y-276613390D01*
X129659047Y-276613390D02*
X129087619Y-277184819D01*
X129087619Y-277184819D02*
X129706666Y-277184819D01*
X156843285Y-234352009D02*
X156986142Y-234399628D01*
X156986142Y-234399628D02*
X157033761Y-234447247D01*
X157033761Y-234447247D02*
X157081380Y-234542485D01*
X157081380Y-234542485D02*
X157081380Y-234685342D01*
X157081380Y-234685342D02*
X157033761Y-234780580D01*
X157033761Y-234780580D02*
X156986142Y-234828200D01*
X156986142Y-234828200D02*
X156890904Y-234875819D01*
X156890904Y-234875819D02*
X156509952Y-234875819D01*
X156509952Y-234875819D02*
X156509952Y-233875819D01*
X156509952Y-233875819D02*
X156843285Y-233875819D01*
X156843285Y-233875819D02*
X156938523Y-233923438D01*
X156938523Y-233923438D02*
X156986142Y-233971057D01*
X156986142Y-233971057D02*
X157033761Y-234066295D01*
X157033761Y-234066295D02*
X157033761Y-234161533D01*
X157033761Y-234161533D02*
X156986142Y-234256771D01*
X156986142Y-234256771D02*
X156938523Y-234304390D01*
X156938523Y-234304390D02*
X156843285Y-234352009D01*
X156843285Y-234352009D02*
X156509952Y-234352009D01*
X157367095Y-233875819D02*
X157938523Y-233875819D01*
X157652809Y-234875819D02*
X157652809Y-233875819D01*
X158795666Y-234875819D02*
X158224238Y-234875819D01*
X158509952Y-234875819D02*
X158509952Y-233875819D01*
X158509952Y-233875819D02*
X158414714Y-234018676D01*
X158414714Y-234018676D02*
X158319476Y-234113914D01*
X158319476Y-234113914D02*
X158224238Y-234161533D01*
X147986142Y-248875819D02*
X147652809Y-248399628D01*
X147414714Y-248875819D02*
X147414714Y-247875819D01*
X147414714Y-247875819D02*
X147795666Y-247875819D01*
X147795666Y-247875819D02*
X147890904Y-247923438D01*
X147890904Y-247923438D02*
X147938523Y-247971057D01*
X147938523Y-247971057D02*
X147986142Y-248066295D01*
X147986142Y-248066295D02*
X147986142Y-248209152D01*
X147986142Y-248209152D02*
X147938523Y-248304390D01*
X147938523Y-248304390D02*
X147890904Y-248352009D01*
X147890904Y-248352009D02*
X147795666Y-248399628D01*
X147795666Y-248399628D02*
X147414714Y-248399628D01*
X148414714Y-248352009D02*
X148748047Y-248352009D01*
X148890904Y-248875819D02*
X148414714Y-248875819D01*
X148414714Y-248875819D02*
X148414714Y-247875819D01*
X148414714Y-247875819D02*
X148890904Y-247875819D01*
X149319476Y-248875819D02*
X149319476Y-247875819D01*
X149319476Y-247875819D02*
X149557571Y-247875819D01*
X149557571Y-247875819D02*
X149700428Y-247923438D01*
X149700428Y-247923438D02*
X149795666Y-248018676D01*
X149795666Y-248018676D02*
X149843285Y-248113914D01*
X149843285Y-248113914D02*
X149890904Y-248304390D01*
X149890904Y-248304390D02*
X149890904Y-248447247D01*
X149890904Y-248447247D02*
X149843285Y-248637723D01*
X149843285Y-248637723D02*
X149795666Y-248732961D01*
X149795666Y-248732961D02*
X149700428Y-248828200D01*
X149700428Y-248828200D02*
X149557571Y-248875819D01*
X149557571Y-248875819D02*
X149319476Y-248875819D01*
D12*
X141438523Y-239656333D02*
X133819476Y-239656333D01*
X137628999Y-235846809D02*
X137628999Y-243465857D01*
X118438523Y-239656333D02*
X110819476Y-239656333D01*
D11*
X102319476Y-248352009D02*
X102462333Y-248399628D01*
X102462333Y-248399628D02*
X102509952Y-248447247D01*
X102509952Y-248447247D02*
X102557571Y-248542485D01*
X102557571Y-248542485D02*
X102557571Y-248685342D01*
X102557571Y-248685342D02*
X102509952Y-248780580D01*
X102509952Y-248780580D02*
X102462333Y-248828200D01*
X102462333Y-248828200D02*
X102367095Y-248875819D01*
X102367095Y-248875819D02*
X101986143Y-248875819D01*
X101986143Y-248875819D02*
X101986143Y-247875819D01*
X101986143Y-247875819D02*
X102319476Y-247875819D01*
X102319476Y-247875819D02*
X102414714Y-247923438D01*
X102414714Y-247923438D02*
X102462333Y-247971057D01*
X102462333Y-247971057D02*
X102509952Y-248066295D01*
X102509952Y-248066295D02*
X102509952Y-248161533D01*
X102509952Y-248161533D02*
X102462333Y-248256771D01*
X102462333Y-248256771D02*
X102414714Y-248304390D01*
X102414714Y-248304390D02*
X102319476Y-248352009D01*
X102319476Y-248352009D02*
X101986143Y-248352009D01*
X103462333Y-248875819D02*
X102986143Y-248875819D01*
X102986143Y-248875819D02*
X102986143Y-247875819D01*
X103795667Y-247875819D02*
X103795667Y-248685342D01*
X103795667Y-248685342D02*
X103843286Y-248780580D01*
X103843286Y-248780580D02*
X103890905Y-248828200D01*
X103890905Y-248828200D02*
X103986143Y-248875819D01*
X103986143Y-248875819D02*
X104176619Y-248875819D01*
X104176619Y-248875819D02*
X104271857Y-248828200D01*
X104271857Y-248828200D02*
X104319476Y-248780580D01*
X104319476Y-248780580D02*
X104367095Y-248685342D01*
X104367095Y-248685342D02*
X104367095Y-247875819D01*
X104843286Y-248352009D02*
X105176619Y-248352009D01*
X105319476Y-248875819D02*
X104843286Y-248875819D01*
X104843286Y-248875819D02*
X104843286Y-247875819D01*
X104843286Y-247875819D02*
X105319476Y-247875819D01*
X167786666Y-276034819D02*
X167786666Y-276749104D01*
X167786666Y-276749104D02*
X167739047Y-276891961D01*
X167739047Y-276891961D02*
X167643809Y-276987200D01*
X167643809Y-276987200D02*
X167500952Y-277034819D01*
X167500952Y-277034819D02*
X167405714Y-277034819D01*
X168167619Y-276034819D02*
X168786666Y-276034819D01*
X168786666Y-276034819D02*
X168453333Y-276415771D01*
X168453333Y-276415771D02*
X168596190Y-276415771D01*
X168596190Y-276415771D02*
X168691428Y-276463390D01*
X168691428Y-276463390D02*
X168739047Y-276511009D01*
X168739047Y-276511009D02*
X168786666Y-276606247D01*
X168786666Y-276606247D02*
X168786666Y-276844342D01*
X168786666Y-276844342D02*
X168739047Y-276939580D01*
X168739047Y-276939580D02*
X168691428Y-276987200D01*
X168691428Y-276987200D02*
X168596190Y-277034819D01*
X168596190Y-277034819D02*
X168310476Y-277034819D01*
X168310476Y-277034819D02*
X168215238Y-276987200D01*
X168215238Y-276987200D02*
X168167619Y-276939580D01*
X233867095Y-234352009D02*
X234009952Y-234399628D01*
X234009952Y-234399628D02*
X234057571Y-234447247D01*
X234057571Y-234447247D02*
X234105190Y-234542485D01*
X234105190Y-234542485D02*
X234105190Y-234685342D01*
X234105190Y-234685342D02*
X234057571Y-234780580D01*
X234057571Y-234780580D02*
X234009952Y-234828200D01*
X234009952Y-234828200D02*
X233914714Y-234875819D01*
X233914714Y-234875819D02*
X233533762Y-234875819D01*
X233533762Y-234875819D02*
X233533762Y-233875819D01*
X233533762Y-233875819D02*
X233867095Y-233875819D01*
X233867095Y-233875819D02*
X233962333Y-233923438D01*
X233962333Y-233923438D02*
X234009952Y-233971057D01*
X234009952Y-233971057D02*
X234057571Y-234066295D01*
X234057571Y-234066295D02*
X234057571Y-234161533D01*
X234057571Y-234161533D02*
X234009952Y-234256771D01*
X234009952Y-234256771D02*
X233962333Y-234304390D01*
X233962333Y-234304390D02*
X233867095Y-234352009D01*
X233867095Y-234352009D02*
X233533762Y-234352009D01*
X234390905Y-233875819D02*
X234962333Y-233875819D01*
X234676619Y-234875819D02*
X234676619Y-233875819D01*
X235819476Y-234875819D02*
X235248048Y-234875819D01*
X235533762Y-234875819D02*
X235533762Y-233875819D01*
X235533762Y-233875819D02*
X235438524Y-234018676D01*
X235438524Y-234018676D02*
X235343286Y-234113914D01*
X235343286Y-234113914D02*
X235248048Y-234161533D01*
X236200429Y-233971057D02*
X236248048Y-233923438D01*
X236248048Y-233923438D02*
X236343286Y-233875819D01*
X236343286Y-233875819D02*
X236581381Y-233875819D01*
X236581381Y-233875819D02*
X236676619Y-233923438D01*
X236676619Y-233923438D02*
X236724238Y-233971057D01*
X236724238Y-233971057D02*
X236771857Y-234066295D01*
X236771857Y-234066295D02*
X236771857Y-234161533D01*
X236771857Y-234161533D02*
X236724238Y-234304390D01*
X236724238Y-234304390D02*
X236152810Y-234875819D01*
X236152810Y-234875819D02*
X236771857Y-234875819D01*
D12*
X218938523Y-239656333D02*
X211319476Y-239656333D01*
X215128999Y-235846809D02*
X215128999Y-243465857D01*
D11*
X225486142Y-248875819D02*
X225152809Y-248399628D01*
X224914714Y-248875819D02*
X224914714Y-247875819D01*
X224914714Y-247875819D02*
X225295666Y-247875819D01*
X225295666Y-247875819D02*
X225390904Y-247923438D01*
X225390904Y-247923438D02*
X225438523Y-247971057D01*
X225438523Y-247971057D02*
X225486142Y-248066295D01*
X225486142Y-248066295D02*
X225486142Y-248209152D01*
X225486142Y-248209152D02*
X225438523Y-248304390D01*
X225438523Y-248304390D02*
X225390904Y-248352009D01*
X225390904Y-248352009D02*
X225295666Y-248399628D01*
X225295666Y-248399628D02*
X224914714Y-248399628D01*
X225914714Y-248352009D02*
X226248047Y-248352009D01*
X226390904Y-248875819D02*
X225914714Y-248875819D01*
X225914714Y-248875819D02*
X225914714Y-247875819D01*
X225914714Y-247875819D02*
X226390904Y-247875819D01*
X226819476Y-248875819D02*
X226819476Y-247875819D01*
X226819476Y-247875819D02*
X227057571Y-247875819D01*
X227057571Y-247875819D02*
X227200428Y-247923438D01*
X227200428Y-247923438D02*
X227295666Y-248018676D01*
X227295666Y-248018676D02*
X227343285Y-248113914D01*
X227343285Y-248113914D02*
X227390904Y-248304390D01*
X227390904Y-248304390D02*
X227390904Y-248447247D01*
X227390904Y-248447247D02*
X227343285Y-248637723D01*
X227343285Y-248637723D02*
X227295666Y-248732961D01*
X227295666Y-248732961D02*
X227200428Y-248828200D01*
X227200428Y-248828200D02*
X227057571Y-248875819D01*
X227057571Y-248875819D02*
X226819476Y-248875819D01*
D12*
X195938523Y-239656333D02*
X188319476Y-239656333D01*
D11*
X179819476Y-248352009D02*
X179962333Y-248399628D01*
X179962333Y-248399628D02*
X180009952Y-248447247D01*
X180009952Y-248447247D02*
X180057571Y-248542485D01*
X180057571Y-248542485D02*
X180057571Y-248685342D01*
X180057571Y-248685342D02*
X180009952Y-248780580D01*
X180009952Y-248780580D02*
X179962333Y-248828200D01*
X179962333Y-248828200D02*
X179867095Y-248875819D01*
X179867095Y-248875819D02*
X179486143Y-248875819D01*
X179486143Y-248875819D02*
X179486143Y-247875819D01*
X179486143Y-247875819D02*
X179819476Y-247875819D01*
X179819476Y-247875819D02*
X179914714Y-247923438D01*
X179914714Y-247923438D02*
X179962333Y-247971057D01*
X179962333Y-247971057D02*
X180009952Y-248066295D01*
X180009952Y-248066295D02*
X180009952Y-248161533D01*
X180009952Y-248161533D02*
X179962333Y-248256771D01*
X179962333Y-248256771D02*
X179914714Y-248304390D01*
X179914714Y-248304390D02*
X179819476Y-248352009D01*
X179819476Y-248352009D02*
X179486143Y-248352009D01*
X180962333Y-248875819D02*
X180486143Y-248875819D01*
X180486143Y-248875819D02*
X180486143Y-247875819D01*
X181295667Y-247875819D02*
X181295667Y-248685342D01*
X181295667Y-248685342D02*
X181343286Y-248780580D01*
X181343286Y-248780580D02*
X181390905Y-248828200D01*
X181390905Y-248828200D02*
X181486143Y-248875819D01*
X181486143Y-248875819D02*
X181676619Y-248875819D01*
X181676619Y-248875819D02*
X181771857Y-248828200D01*
X181771857Y-248828200D02*
X181819476Y-248780580D01*
X181819476Y-248780580D02*
X181867095Y-248685342D01*
X181867095Y-248685342D02*
X181867095Y-247875819D01*
X182343286Y-248352009D02*
X182676619Y-248352009D01*
X182819476Y-248875819D02*
X182343286Y-248875819D01*
X182343286Y-248875819D02*
X182343286Y-247875819D01*
X182343286Y-247875819D02*
X182819476Y-247875819D01*
X156843285Y-210218009D02*
X156986142Y-210265628D01*
X156986142Y-210265628D02*
X157033761Y-210313247D01*
X157033761Y-210313247D02*
X157081380Y-210408485D01*
X157081380Y-210408485D02*
X157081380Y-210551342D01*
X157081380Y-210551342D02*
X157033761Y-210646580D01*
X157033761Y-210646580D02*
X156986142Y-210694200D01*
X156986142Y-210694200D02*
X156890904Y-210741819D01*
X156890904Y-210741819D02*
X156509952Y-210741819D01*
X156509952Y-210741819D02*
X156509952Y-209741819D01*
X156509952Y-209741819D02*
X156843285Y-209741819D01*
X156843285Y-209741819D02*
X156938523Y-209789438D01*
X156938523Y-209789438D02*
X156986142Y-209837057D01*
X156986142Y-209837057D02*
X157033761Y-209932295D01*
X157033761Y-209932295D02*
X157033761Y-210027533D01*
X157033761Y-210027533D02*
X156986142Y-210122771D01*
X156986142Y-210122771D02*
X156938523Y-210170390D01*
X156938523Y-210170390D02*
X156843285Y-210218009D01*
X156843285Y-210218009D02*
X156509952Y-210218009D01*
X157367095Y-209741819D02*
X157938523Y-209741819D01*
X157652809Y-210741819D02*
X157652809Y-209741819D01*
X158224238Y-209837057D02*
X158271857Y-209789438D01*
X158271857Y-209789438D02*
X158367095Y-209741819D01*
X158367095Y-209741819D02*
X158605190Y-209741819D01*
X158605190Y-209741819D02*
X158700428Y-209789438D01*
X158700428Y-209789438D02*
X158748047Y-209837057D01*
X158748047Y-209837057D02*
X158795666Y-209932295D01*
X158795666Y-209932295D02*
X158795666Y-210027533D01*
X158795666Y-210027533D02*
X158748047Y-210170390D01*
X158748047Y-210170390D02*
X158176619Y-210741819D01*
X158176619Y-210741819D02*
X158795666Y-210741819D01*
D12*
X118438523Y-215522333D02*
X110819476Y-215522333D01*
D11*
X147986142Y-224741819D02*
X147652809Y-224265628D01*
X147414714Y-224741819D02*
X147414714Y-223741819D01*
X147414714Y-223741819D02*
X147795666Y-223741819D01*
X147795666Y-223741819D02*
X147890904Y-223789438D01*
X147890904Y-223789438D02*
X147938523Y-223837057D01*
X147938523Y-223837057D02*
X147986142Y-223932295D01*
X147986142Y-223932295D02*
X147986142Y-224075152D01*
X147986142Y-224075152D02*
X147938523Y-224170390D01*
X147938523Y-224170390D02*
X147890904Y-224218009D01*
X147890904Y-224218009D02*
X147795666Y-224265628D01*
X147795666Y-224265628D02*
X147414714Y-224265628D01*
X148414714Y-224218009D02*
X148748047Y-224218009D01*
X148890904Y-224741819D02*
X148414714Y-224741819D01*
X148414714Y-224741819D02*
X148414714Y-223741819D01*
X148414714Y-223741819D02*
X148890904Y-223741819D01*
X149319476Y-224741819D02*
X149319476Y-223741819D01*
X149319476Y-223741819D02*
X149557571Y-223741819D01*
X149557571Y-223741819D02*
X149700428Y-223789438D01*
X149700428Y-223789438D02*
X149795666Y-223884676D01*
X149795666Y-223884676D02*
X149843285Y-223979914D01*
X149843285Y-223979914D02*
X149890904Y-224170390D01*
X149890904Y-224170390D02*
X149890904Y-224313247D01*
X149890904Y-224313247D02*
X149843285Y-224503723D01*
X149843285Y-224503723D02*
X149795666Y-224598961D01*
X149795666Y-224598961D02*
X149700428Y-224694200D01*
X149700428Y-224694200D02*
X149557571Y-224741819D01*
X149557571Y-224741819D02*
X149319476Y-224741819D01*
D12*
X141438523Y-215522333D02*
X133819476Y-215522333D01*
X137628999Y-211712809D02*
X137628999Y-219331857D01*
D11*
X102319476Y-224218009D02*
X102462333Y-224265628D01*
X102462333Y-224265628D02*
X102509952Y-224313247D01*
X102509952Y-224313247D02*
X102557571Y-224408485D01*
X102557571Y-224408485D02*
X102557571Y-224551342D01*
X102557571Y-224551342D02*
X102509952Y-224646580D01*
X102509952Y-224646580D02*
X102462333Y-224694200D01*
X102462333Y-224694200D02*
X102367095Y-224741819D01*
X102367095Y-224741819D02*
X101986143Y-224741819D01*
X101986143Y-224741819D02*
X101986143Y-223741819D01*
X101986143Y-223741819D02*
X102319476Y-223741819D01*
X102319476Y-223741819D02*
X102414714Y-223789438D01*
X102414714Y-223789438D02*
X102462333Y-223837057D01*
X102462333Y-223837057D02*
X102509952Y-223932295D01*
X102509952Y-223932295D02*
X102509952Y-224027533D01*
X102509952Y-224027533D02*
X102462333Y-224122771D01*
X102462333Y-224122771D02*
X102414714Y-224170390D01*
X102414714Y-224170390D02*
X102319476Y-224218009D01*
X102319476Y-224218009D02*
X101986143Y-224218009D01*
X103462333Y-224741819D02*
X102986143Y-224741819D01*
X102986143Y-224741819D02*
X102986143Y-223741819D01*
X103795667Y-223741819D02*
X103795667Y-224551342D01*
X103795667Y-224551342D02*
X103843286Y-224646580D01*
X103843286Y-224646580D02*
X103890905Y-224694200D01*
X103890905Y-224694200D02*
X103986143Y-224741819D01*
X103986143Y-224741819D02*
X104176619Y-224741819D01*
X104176619Y-224741819D02*
X104271857Y-224694200D01*
X104271857Y-224694200D02*
X104319476Y-224646580D01*
X104319476Y-224646580D02*
X104367095Y-224551342D01*
X104367095Y-224551342D02*
X104367095Y-223741819D01*
X104843286Y-224218009D02*
X105176619Y-224218009D01*
X105319476Y-224741819D02*
X104843286Y-224741819D01*
X104843286Y-224741819D02*
X104843286Y-223741819D01*
X104843286Y-223741819D02*
X105319476Y-223741819D01*
X234343285Y-137815009D02*
X234486142Y-137862628D01*
X234486142Y-137862628D02*
X234533761Y-137910247D01*
X234533761Y-137910247D02*
X234581380Y-138005485D01*
X234581380Y-138005485D02*
X234581380Y-138148342D01*
X234581380Y-138148342D02*
X234533761Y-138243580D01*
X234533761Y-138243580D02*
X234486142Y-138291200D01*
X234486142Y-138291200D02*
X234390904Y-138338819D01*
X234390904Y-138338819D02*
X234009952Y-138338819D01*
X234009952Y-138338819D02*
X234009952Y-137338819D01*
X234009952Y-137338819D02*
X234343285Y-137338819D01*
X234343285Y-137338819D02*
X234438523Y-137386438D01*
X234438523Y-137386438D02*
X234486142Y-137434057D01*
X234486142Y-137434057D02*
X234533761Y-137529295D01*
X234533761Y-137529295D02*
X234533761Y-137624533D01*
X234533761Y-137624533D02*
X234486142Y-137719771D01*
X234486142Y-137719771D02*
X234438523Y-137767390D01*
X234438523Y-137767390D02*
X234343285Y-137815009D01*
X234343285Y-137815009D02*
X234009952Y-137815009D01*
X234867095Y-137338819D02*
X235438523Y-137338819D01*
X235152809Y-138338819D02*
X235152809Y-137338819D01*
X235914714Y-137767390D02*
X235819476Y-137719771D01*
X235819476Y-137719771D02*
X235771857Y-137672152D01*
X235771857Y-137672152D02*
X235724238Y-137576914D01*
X235724238Y-137576914D02*
X235724238Y-137529295D01*
X235724238Y-137529295D02*
X235771857Y-137434057D01*
X235771857Y-137434057D02*
X235819476Y-137386438D01*
X235819476Y-137386438D02*
X235914714Y-137338819D01*
X235914714Y-137338819D02*
X236105190Y-137338819D01*
X236105190Y-137338819D02*
X236200428Y-137386438D01*
X236200428Y-137386438D02*
X236248047Y-137434057D01*
X236248047Y-137434057D02*
X236295666Y-137529295D01*
X236295666Y-137529295D02*
X236295666Y-137576914D01*
X236295666Y-137576914D02*
X236248047Y-137672152D01*
X236248047Y-137672152D02*
X236200428Y-137719771D01*
X236200428Y-137719771D02*
X236105190Y-137767390D01*
X236105190Y-137767390D02*
X235914714Y-137767390D01*
X235914714Y-137767390D02*
X235819476Y-137815009D01*
X235819476Y-137815009D02*
X235771857Y-137862628D01*
X235771857Y-137862628D02*
X235724238Y-137957866D01*
X235724238Y-137957866D02*
X235724238Y-138148342D01*
X235724238Y-138148342D02*
X235771857Y-138243580D01*
X235771857Y-138243580D02*
X235819476Y-138291200D01*
X235819476Y-138291200D02*
X235914714Y-138338819D01*
X235914714Y-138338819D02*
X236105190Y-138338819D01*
X236105190Y-138338819D02*
X236200428Y-138291200D01*
X236200428Y-138291200D02*
X236248047Y-138243580D01*
X236248047Y-138243580D02*
X236295666Y-138148342D01*
X236295666Y-138148342D02*
X236295666Y-137957866D01*
X236295666Y-137957866D02*
X236248047Y-137862628D01*
X236248047Y-137862628D02*
X236200428Y-137815009D01*
X236200428Y-137815009D02*
X236105190Y-137767390D01*
X225486142Y-152338819D02*
X225152809Y-151862628D01*
X224914714Y-152338819D02*
X224914714Y-151338819D01*
X224914714Y-151338819D02*
X225295666Y-151338819D01*
X225295666Y-151338819D02*
X225390904Y-151386438D01*
X225390904Y-151386438D02*
X225438523Y-151434057D01*
X225438523Y-151434057D02*
X225486142Y-151529295D01*
X225486142Y-151529295D02*
X225486142Y-151672152D01*
X225486142Y-151672152D02*
X225438523Y-151767390D01*
X225438523Y-151767390D02*
X225390904Y-151815009D01*
X225390904Y-151815009D02*
X225295666Y-151862628D01*
X225295666Y-151862628D02*
X224914714Y-151862628D01*
X225914714Y-151815009D02*
X226248047Y-151815009D01*
X226390904Y-152338819D02*
X225914714Y-152338819D01*
X225914714Y-152338819D02*
X225914714Y-151338819D01*
X225914714Y-151338819D02*
X226390904Y-151338819D01*
X226819476Y-152338819D02*
X226819476Y-151338819D01*
X226819476Y-151338819D02*
X227057571Y-151338819D01*
X227057571Y-151338819D02*
X227200428Y-151386438D01*
X227200428Y-151386438D02*
X227295666Y-151481676D01*
X227295666Y-151481676D02*
X227343285Y-151576914D01*
X227343285Y-151576914D02*
X227390904Y-151767390D01*
X227390904Y-151767390D02*
X227390904Y-151910247D01*
X227390904Y-151910247D02*
X227343285Y-152100723D01*
X227343285Y-152100723D02*
X227295666Y-152195961D01*
X227295666Y-152195961D02*
X227200428Y-152291200D01*
X227200428Y-152291200D02*
X227057571Y-152338819D01*
X227057571Y-152338819D02*
X226819476Y-152338819D01*
D12*
X195938523Y-143119333D02*
X188319476Y-143119333D01*
X218938523Y-143119333D02*
X211319476Y-143119333D01*
X215128999Y-139309809D02*
X215128999Y-146928857D01*
D11*
X179819476Y-151815009D02*
X179962333Y-151862628D01*
X179962333Y-151862628D02*
X180009952Y-151910247D01*
X180009952Y-151910247D02*
X180057571Y-152005485D01*
X180057571Y-152005485D02*
X180057571Y-152148342D01*
X180057571Y-152148342D02*
X180009952Y-152243580D01*
X180009952Y-152243580D02*
X179962333Y-152291200D01*
X179962333Y-152291200D02*
X179867095Y-152338819D01*
X179867095Y-152338819D02*
X179486143Y-152338819D01*
X179486143Y-152338819D02*
X179486143Y-151338819D01*
X179486143Y-151338819D02*
X179819476Y-151338819D01*
X179819476Y-151338819D02*
X179914714Y-151386438D01*
X179914714Y-151386438D02*
X179962333Y-151434057D01*
X179962333Y-151434057D02*
X180009952Y-151529295D01*
X180009952Y-151529295D02*
X180009952Y-151624533D01*
X180009952Y-151624533D02*
X179962333Y-151719771D01*
X179962333Y-151719771D02*
X179914714Y-151767390D01*
X179914714Y-151767390D02*
X179819476Y-151815009D01*
X179819476Y-151815009D02*
X179486143Y-151815009D01*
X180962333Y-152338819D02*
X180486143Y-152338819D01*
X180486143Y-152338819D02*
X180486143Y-151338819D01*
X181295667Y-151338819D02*
X181295667Y-152148342D01*
X181295667Y-152148342D02*
X181343286Y-152243580D01*
X181343286Y-152243580D02*
X181390905Y-152291200D01*
X181390905Y-152291200D02*
X181486143Y-152338819D01*
X181486143Y-152338819D02*
X181676619Y-152338819D01*
X181676619Y-152338819D02*
X181771857Y-152291200D01*
X181771857Y-152291200D02*
X181819476Y-152243580D01*
X181819476Y-152243580D02*
X181867095Y-152148342D01*
X181867095Y-152148342D02*
X181867095Y-151338819D01*
X182343286Y-151815009D02*
X182676619Y-151815009D01*
X182819476Y-152338819D02*
X182343286Y-152338819D01*
X182343286Y-152338819D02*
X182343286Y-151338819D01*
X182343286Y-151338819D02*
X182819476Y-151338819D01*
D13*
X160909000Y-129750000D02*
X91409000Y-129750000D01*
X91409000Y-109750000D01*
X160909000Y-109750000D01*
X160909000Y-129750000D01*
X238409000Y-129750000D02*
X168909000Y-129750000D01*
X168909000Y-109750000D01*
X238409000Y-109750000D01*
X238409000Y-129750000D01*
D14*
X117115000Y-259837500D02*
X117115000Y-281187500D01*
X117115000Y-281187500D02*
X123615000Y-281187500D01*
X123615000Y-259837500D02*
X117115000Y-259837500D01*
X123615000Y-281187500D02*
X123615000Y-259837500D01*
D15*
X120045000Y-259137500D02*
G75*
G02*
X119845000Y-259137500I-100000J0D01*
G01*
X119845000Y-259137500D02*
G75*
G02*
X120045000Y-259137500I100000J0D01*
G01*
D13*
X160909000Y-153884000D02*
X91409000Y-153884000D01*
X91409000Y-133884000D01*
X160909000Y-133884000D01*
X160909000Y-153884000D01*
X238409000Y-178018000D02*
X168909000Y-178018000D01*
X168909000Y-158018000D01*
X238409000Y-158018000D01*
X238409000Y-178018000D01*
D14*
X186845000Y-259925000D02*
X186845000Y-281275000D01*
X186845000Y-281275000D02*
X193345000Y-281275000D01*
X193345000Y-259925000D02*
X186845000Y-259925000D01*
X193345000Y-281275000D02*
X193345000Y-259925000D01*
D15*
X189775000Y-259225000D02*
G75*
G02*
X189575000Y-259225000I-100000J0D01*
G01*
X189575000Y-259225000D02*
G75*
G02*
X189775000Y-259225000I100000J0D01*
G01*
D13*
X197905000Y-272135000D02*
X197905000Y-285155000D01*
X197905000Y-285155000D02*
X217515000Y-285155000D01*
X198715000Y-272135000D02*
X197905000Y-272135000D01*
X200415000Y-269035000D02*
X200415000Y-267755000D01*
X201015000Y-269035000D02*
X201015000Y-267755000D01*
X203305000Y-272145000D02*
X202325000Y-272145000D01*
X204615000Y-269035000D02*
X204615000Y-267755000D01*
X205215000Y-269035000D02*
X205215000Y-267755000D01*
X207505000Y-272145000D02*
X206525000Y-272145000D01*
X208815000Y-269035000D02*
X208815000Y-267755000D01*
X209415000Y-269035000D02*
X209415000Y-267755000D01*
X211705000Y-272145000D02*
X210725000Y-272145000D01*
X213015000Y-269035000D02*
X213015000Y-267755000D01*
X213615000Y-269035000D02*
X213615000Y-267755000D01*
X215905000Y-272145000D02*
X214925000Y-272145000D01*
X217215000Y-269035000D02*
X217215000Y-267755000D01*
X217815000Y-269035000D02*
X217815000Y-267755000D01*
X220105000Y-272145000D02*
X219125000Y-272145000D01*
X221415000Y-269035000D02*
X221415000Y-267755000D01*
X222015000Y-269035000D02*
X222015000Y-267755000D01*
X224305000Y-272145000D02*
X223325000Y-272145000D01*
X225615000Y-269035000D02*
X225615000Y-267755000D01*
X226215000Y-269035000D02*
X226215000Y-267755000D01*
X228505000Y-272145000D02*
X227525000Y-272145000D01*
X229815000Y-269035000D02*
X229815000Y-267755000D01*
X230415000Y-269035000D02*
X230415000Y-267755000D01*
X232705000Y-272145000D02*
X231725000Y-272145000D01*
X234015000Y-269035000D02*
X234015000Y-267755000D01*
X234615000Y-269035000D02*
X234615000Y-267755000D01*
X236315000Y-271145000D02*
X236915000Y-270845000D01*
X236315000Y-272135000D02*
X237125000Y-272135000D01*
X236915000Y-270845000D02*
X236915000Y-271445000D01*
X236915000Y-271445000D02*
X236315000Y-271145000D01*
X237125000Y-272135000D02*
X237125000Y-285155000D01*
X237125000Y-285155000D02*
X217515000Y-285155000D01*
X160909000Y-202153000D02*
X91409000Y-202153000D01*
X91409000Y-182153000D01*
X160909000Y-182153000D01*
X160909000Y-202153000D01*
D16*
G36*
X101301034Y-268587117D02*
G01*
X101339791Y-268601131D01*
X101343905Y-268610710D01*
X101340134Y-268637059D01*
X101329419Y-268702627D01*
X101312661Y-268802243D01*
X101290763Y-268930739D01*
X101264625Y-269082945D01*
X101235149Y-269253692D01*
X101203237Y-269437811D01*
X101169791Y-269630132D01*
X101135712Y-269825486D01*
X101101902Y-270018704D01*
X101069262Y-270204617D01*
X101038695Y-270378055D01*
X101011101Y-270533849D01*
X100987383Y-270666830D01*
X100968441Y-270771829D01*
X100955178Y-270843675D01*
X100948835Y-270875750D01*
X100937046Y-270905182D01*
X100910894Y-270920403D01*
X100858368Y-270925924D01*
X100813830Y-270926460D01*
X100746071Y-270923671D01*
X100701205Y-270916479D01*
X100690307Y-270909556D01*
X100694115Y-270884724D01*
X100705048Y-270819717D01*
X100722376Y-270718744D01*
X100745365Y-270586016D01*
X100773283Y-270425741D01*
X100805399Y-270242131D01*
X100840980Y-270039394D01*
X100879294Y-269821740D01*
X100893141Y-269743230D01*
X100932194Y-269521810D01*
X100968776Y-269314204D01*
X101002155Y-269124566D01*
X101031603Y-268957053D01*
X101056389Y-268815821D01*
X101075784Y-268705025D01*
X101089058Y-268628822D01*
X101095481Y-268591367D01*
X101095975Y-268588172D01*
X101116371Y-268585085D01*
X101168973Y-268583039D01*
X101219938Y-268582538D01*
X101301034Y-268587117D01*
G37*
G36*
X102089841Y-268587114D02*
G01*
X102128592Y-268601122D01*
X102132709Y-268610710D01*
X102128928Y-268637272D01*
X102118230Y-268702714D01*
X102101576Y-268801536D01*
X102079929Y-268928236D01*
X102054251Y-269077315D01*
X102025503Y-269243270D01*
X101994648Y-269420601D01*
X101962648Y-269603807D01*
X101930465Y-269787388D01*
X101899062Y-269965842D01*
X101869400Y-270133668D01*
X101842441Y-270285366D01*
X101819147Y-270415434D01*
X101800482Y-270518372D01*
X101787406Y-270588679D01*
X101781949Y-270616207D01*
X101768688Y-270677826D01*
X103000858Y-270689814D01*
X102963172Y-270926460D01*
X102221147Y-270926460D01*
X102043387Y-270925966D01*
X101880903Y-270924566D01*
X101738952Y-270922378D01*
X101622794Y-270919523D01*
X101537687Y-270916120D01*
X101488890Y-270912290D01*
X101479127Y-270909556D01*
X101482934Y-270884724D01*
X101493868Y-270819717D01*
X101511196Y-270718744D01*
X101534185Y-270586016D01*
X101562103Y-270425741D01*
X101594219Y-270242131D01*
X101629800Y-270039394D01*
X101668114Y-269821740D01*
X101681961Y-269743230D01*
X101721014Y-269521810D01*
X101757596Y-269314204D01*
X101790975Y-269124566D01*
X101820423Y-268957053D01*
X101845209Y-268815821D01*
X101864604Y-268705025D01*
X101877878Y-268628822D01*
X101884301Y-268591367D01*
X101884795Y-268588172D01*
X101905190Y-268585085D01*
X101957793Y-268583039D01*
X102008758Y-268582538D01*
X102089841Y-268587114D01*
G37*
G36*
X107446060Y-270926460D02*
G01*
X107166765Y-270926460D01*
X107093392Y-270610932D01*
X107020020Y-270295404D01*
X105816873Y-270295404D01*
X105444801Y-270926460D01*
X105308724Y-270926460D01*
X105239007Y-270923951D01*
X105193376Y-270917421D01*
X105182002Y-270909556D01*
X105195000Y-270887703D01*
X105229184Y-270830633D01*
X105282509Y-270741755D01*
X105352925Y-270624479D01*
X105438386Y-270482213D01*
X105536843Y-270318366D01*
X105646249Y-270136347D01*
X105699671Y-270047489D01*
X105965326Y-270047489D01*
X106460556Y-270047489D01*
X106604502Y-270046986D01*
X106731996Y-270045580D01*
X106836599Y-270043419D01*
X106911875Y-270040656D01*
X106951387Y-270037440D01*
X106955785Y-270035897D01*
X106950196Y-269998991D01*
X106934698Y-269928407D01*
X106911200Y-269831196D01*
X106881607Y-269714408D01*
X106847826Y-269585092D01*
X106811763Y-269450299D01*
X106775326Y-269317079D01*
X106740420Y-269192481D01*
X106708952Y-269083555D01*
X106682830Y-268997352D01*
X106663958Y-268940921D01*
X106654353Y-268921297D01*
X106635471Y-268940070D01*
X106598181Y-268991876D01*
X106546478Y-269070632D01*
X106484352Y-269170255D01*
X106415795Y-269284663D01*
X106414880Y-269286219D01*
X106336809Y-269418928D01*
X106256867Y-269554644D01*
X106181700Y-269682095D01*
X106117955Y-269790010D01*
X106083049Y-269848968D01*
X105965326Y-270047489D01*
X105699671Y-270047489D01*
X105764557Y-269939564D01*
X105886008Y-269737595D01*
X106580657Y-268582538D01*
X106860006Y-268582538D01*
X107446060Y-270926460D01*
G37*
G36*
X94393912Y-265448247D02*
G01*
X94397098Y-265448676D01*
X94571748Y-265487744D01*
X94737069Y-265553428D01*
X94881222Y-265639989D01*
X94985734Y-265733996D01*
X95047397Y-265812438D01*
X95101135Y-265895885D01*
X95141326Y-265973789D01*
X95162346Y-266035603D01*
X95162182Y-266064970D01*
X95137048Y-266082067D01*
X95077748Y-266105898D01*
X94993999Y-266132901D01*
X94924070Y-266152292D01*
X94822423Y-266178280D01*
X94756065Y-266193192D01*
X94716739Y-266197583D01*
X94696183Y-266192010D01*
X94686140Y-266177029D01*
X94683212Y-266168514D01*
X94640684Y-266092508D01*
X94565682Y-266014531D01*
X94469012Y-265945200D01*
X94438785Y-265928392D01*
X94374612Y-265898238D01*
X94314413Y-265880059D01*
X94242883Y-265870945D01*
X94144719Y-265867985D01*
X94120559Y-265867876D01*
X94012801Y-265869759D01*
X93933519Y-265877914D01*
X93866239Y-265895303D01*
X93794482Y-265924888D01*
X93788847Y-265927500D01*
X93617804Y-266030942D01*
X93476944Y-266166037D01*
X93368467Y-266329099D01*
X93294572Y-266516442D01*
X93257460Y-266724383D01*
X93253345Y-266824596D01*
X93272152Y-266998283D01*
X93326737Y-267146249D01*
X93414188Y-267265899D01*
X93531593Y-267354641D01*
X93676040Y-267409881D01*
X93844618Y-267429027D01*
X93927675Y-267425167D01*
X94095316Y-267390107D01*
X94261351Y-267320151D01*
X94410722Y-267222826D01*
X94500753Y-267138642D01*
X94602759Y-267025186D01*
X94789875Y-267075084D01*
X94876916Y-267099446D01*
X94946979Y-267121198D01*
X94988768Y-267136750D01*
X94994755Y-267140175D01*
X94990997Y-267164164D01*
X94964806Y-267213668D01*
X94921585Y-267278748D01*
X94913156Y-267290341D01*
X94757115Y-267465376D01*
X94571314Y-267611302D01*
X94362603Y-267725306D01*
X94137835Y-267804572D01*
X93903860Y-267846286D01*
X93667531Y-267847633D01*
X93581458Y-267837428D01*
X93394419Y-267788802D01*
X93221871Y-267705423D01*
X93071470Y-267592630D01*
X92950869Y-267455759D01*
X92892371Y-267356995D01*
X92821928Y-267178215D01*
X92786784Y-266996892D01*
X92785923Y-266803163D01*
X92814862Y-266603903D01*
X92884749Y-266365063D01*
X92990813Y-266146686D01*
X93128861Y-265951834D01*
X93294698Y-265783570D01*
X93484130Y-265644955D01*
X93692961Y-265539053D01*
X93916999Y-265468926D01*
X94152047Y-265437637D01*
X94393912Y-265448247D01*
G37*
G36*
X88953844Y-265473649D02*
G01*
X89028497Y-265477193D01*
X89073985Y-265482366D01*
X89083381Y-265486389D01*
X89079588Y-265511210D01*
X89068833Y-265575030D01*
X89052051Y-265672468D01*
X89030176Y-265798144D01*
X89004144Y-265946678D01*
X88974888Y-266112690D01*
X88957101Y-266213230D01*
X88917511Y-266440378D01*
X88886599Y-266628161D01*
X88864108Y-266781394D01*
X88849781Y-266904892D01*
X88843361Y-267003471D01*
X88844593Y-267081946D01*
X88853218Y-267145132D01*
X88868981Y-267197846D01*
X88891625Y-267244902D01*
X88901245Y-267261115D01*
X88976212Y-267341481D01*
X89081673Y-267397027D01*
X89209228Y-267425713D01*
X89350479Y-267425501D01*
X89476325Y-267400703D01*
X89613735Y-267337948D01*
X89729412Y-267238009D01*
X89818732Y-267105402D01*
X89848971Y-267036605D01*
X89865322Y-266981453D01*
X89887755Y-266888474D01*
X89914891Y-266764295D01*
X89945353Y-266615543D01*
X89977760Y-266448846D01*
X90010735Y-266270829D01*
X90025549Y-266187906D01*
X90151858Y-265472334D01*
X90372633Y-265472334D01*
X90466183Y-265473997D01*
X90540079Y-265478478D01*
X90584684Y-265485009D01*
X90593407Y-265489885D01*
X90589476Y-265521307D01*
X90578477Y-265590398D01*
X90561608Y-265690514D01*
X90540063Y-265815012D01*
X90515036Y-265957250D01*
X90487724Y-266110582D01*
X90459322Y-266268368D01*
X90431024Y-266423962D01*
X90404026Y-266570723D01*
X90379523Y-266702006D01*
X90358711Y-266811169D01*
X90342784Y-266891568D01*
X90333650Y-266933694D01*
X90260207Y-267153208D01*
X90154062Y-267349795D01*
X90018965Y-267519172D01*
X89858670Y-267657057D01*
X89676928Y-267759164D01*
X89578740Y-267795603D01*
X89453792Y-267824878D01*
X89309086Y-267843961D01*
X89162989Y-267851463D01*
X89033869Y-267845993D01*
X88991920Y-267840014D01*
X88816947Y-267789094D01*
X88665333Y-267706769D01*
X88542220Y-267597241D01*
X88452747Y-267464713D01*
X88415172Y-267368595D01*
X88395681Y-267285577D01*
X88384363Y-267194278D01*
X88381574Y-267089246D01*
X88387666Y-266965029D01*
X88402996Y-266816174D01*
X88427919Y-266637229D01*
X88462788Y-266422742D01*
X88485039Y-266294960D01*
X88514186Y-266130956D01*
X88542021Y-265975343D01*
X88567198Y-265835567D01*
X88588371Y-265719075D01*
X88604194Y-265633314D01*
X88612330Y-265590657D01*
X88635822Y-265472334D01*
X88859601Y-265472334D01*
X88953844Y-265473649D01*
G37*
G36*
X95944623Y-268689592D02*
G01*
X95933578Y-268756035D01*
X95923219Y-268802795D01*
X95919374Y-268813549D01*
X95895212Y-268817880D01*
X95831719Y-268821801D01*
X95734639Y-268825163D01*
X95609716Y-268827820D01*
X95462694Y-268829623D01*
X95299317Y-268830425D01*
X95262427Y-268830452D01*
X94615207Y-268830452D01*
X94553535Y-269185421D01*
X94532622Y-269306874D01*
X94514781Y-269412542D01*
X94501320Y-269494527D01*
X94493542Y-269544931D01*
X94492147Y-269556870D01*
X94513703Y-269561891D01*
X94573934Y-269566839D01*
X94666440Y-269571428D01*
X94784821Y-269575370D01*
X94922676Y-269578378D01*
X94994119Y-269579408D01*
X95495808Y-269585466D01*
X95458248Y-269821274D01*
X94948618Y-269827327D01*
X94438987Y-269833381D01*
X94364860Y-270250328D01*
X94341594Y-270381318D01*
X94321258Y-270496041D01*
X94305087Y-270587520D01*
X94294314Y-270648778D01*
X94290171Y-270672838D01*
X94290162Y-270672910D01*
X94311619Y-270674342D01*
X94372565Y-270675640D01*
X94467414Y-270676756D01*
X94590581Y-270677641D01*
X94736480Y-270678249D01*
X94899525Y-270678531D01*
X94945694Y-270678545D01*
X95601795Y-270678545D01*
X95586817Y-270763061D01*
X95580288Y-270806614D01*
X95574744Y-270841721D01*
X95565690Y-270869284D01*
X95548628Y-270890204D01*
X95519063Y-270905386D01*
X95472497Y-270915730D01*
X95404434Y-270922140D01*
X95310378Y-270925517D01*
X95185833Y-270926765D01*
X95026301Y-270926785D01*
X94827286Y-270926481D01*
X94772634Y-270926460D01*
X94590693Y-270925987D01*
X94423912Y-270924645D01*
X94277431Y-270922545D01*
X94156394Y-270919800D01*
X94065941Y-270916520D01*
X94011216Y-270912819D01*
X93996607Y-270909556D01*
X94000414Y-270884724D01*
X94011348Y-270819717D01*
X94028676Y-270718744D01*
X94051665Y-270586016D01*
X94079583Y-270425741D01*
X94111699Y-270242131D01*
X94147280Y-270039394D01*
X94185594Y-269821740D01*
X94199441Y-269743230D01*
X94238494Y-269521810D01*
X94275076Y-269314204D01*
X94308455Y-269124566D01*
X94337903Y-268957053D01*
X94362689Y-268815821D01*
X94382084Y-268705025D01*
X94395358Y-268628822D01*
X94401781Y-268591367D01*
X94402275Y-268588172D01*
X94423959Y-268586853D01*
X94485585Y-268585644D01*
X94582021Y-268584582D01*
X94708135Y-268583704D01*
X94858794Y-268583046D01*
X95028866Y-268582647D01*
X95181212Y-268582538D01*
X95960144Y-268582538D01*
X95944623Y-268689592D01*
G37*
G36*
X105297773Y-268689592D02*
G01*
X105286728Y-268756035D01*
X105276369Y-268802795D01*
X105272524Y-268813549D01*
X105248362Y-268817880D01*
X105184869Y-268821801D01*
X105087789Y-268825163D01*
X104962866Y-268827820D01*
X104815844Y-268829623D01*
X104652467Y-268830425D01*
X104615577Y-268830452D01*
X103968357Y-268830452D01*
X103906685Y-269185421D01*
X103885772Y-269306874D01*
X103867931Y-269412542D01*
X103854470Y-269494527D01*
X103846692Y-269544931D01*
X103845297Y-269556870D01*
X103866853Y-269561891D01*
X103927084Y-269566839D01*
X104019590Y-269571428D01*
X104137971Y-269575370D01*
X104275825Y-269578378D01*
X104347269Y-269579408D01*
X104848958Y-269585466D01*
X104811398Y-269821274D01*
X104301767Y-269827327D01*
X103792137Y-269833381D01*
X103718010Y-270250328D01*
X103694744Y-270381318D01*
X103674408Y-270496041D01*
X103658237Y-270587520D01*
X103647464Y-270648778D01*
X103643321Y-270672838D01*
X103643312Y-270672910D01*
X103664769Y-270674342D01*
X103725715Y-270675640D01*
X103820564Y-270676756D01*
X103943731Y-270677641D01*
X104089630Y-270678249D01*
X104252675Y-270678531D01*
X104298843Y-270678545D01*
X104954945Y-270678545D01*
X104939967Y-270763061D01*
X104933438Y-270806614D01*
X104927894Y-270841721D01*
X104918840Y-270869284D01*
X104901778Y-270890204D01*
X104872213Y-270905386D01*
X104825647Y-270915730D01*
X104757584Y-270922140D01*
X104663528Y-270925517D01*
X104538983Y-270926765D01*
X104379451Y-270926785D01*
X104180436Y-270926481D01*
X104125784Y-270926460D01*
X103943843Y-270925987D01*
X103777062Y-270924645D01*
X103630581Y-270922545D01*
X103509544Y-270919800D01*
X103419091Y-270916520D01*
X103364366Y-270912819D01*
X103349756Y-270909556D01*
X103353564Y-270884724D01*
X103364498Y-270819717D01*
X103381826Y-270718744D01*
X103404815Y-270586016D01*
X103432733Y-270425741D01*
X103464849Y-270242131D01*
X103500430Y-270039394D01*
X103538744Y-269821740D01*
X103552591Y-269743230D01*
X103591644Y-269521810D01*
X103628226Y-269314204D01*
X103661605Y-269124566D01*
X103691053Y-268957053D01*
X103715839Y-268815821D01*
X103735234Y-268705025D01*
X103748508Y-268628822D01*
X103754931Y-268591367D01*
X103755425Y-268588172D01*
X103777109Y-268586853D01*
X103838735Y-268585644D01*
X103935171Y-268584582D01*
X104061285Y-268583704D01*
X104211944Y-268583046D01*
X104382016Y-268582647D01*
X104534362Y-268582538D01*
X105313294Y-268582538D01*
X105297773Y-268689592D01*
G37*
G36*
X112284463Y-268689592D02*
G01*
X112273418Y-268756035D01*
X112263059Y-268802795D01*
X112259214Y-268813549D01*
X112235052Y-268817880D01*
X112171559Y-268821801D01*
X112074480Y-268825163D01*
X111949557Y-268827820D01*
X111802535Y-268829623D01*
X111639157Y-268830425D01*
X111602267Y-268830452D01*
X110955048Y-268830452D01*
X110893375Y-269185421D01*
X110872462Y-269306874D01*
X110854622Y-269412542D01*
X110841160Y-269494527D01*
X110833382Y-269544931D01*
X110831987Y-269556870D01*
X110853543Y-269561891D01*
X110913775Y-269566839D01*
X111006280Y-269571428D01*
X111124661Y-269575370D01*
X111262516Y-269578378D01*
X111333960Y-269579408D01*
X111835648Y-269585466D01*
X111798088Y-269821274D01*
X111288458Y-269827327D01*
X110778827Y-269833381D01*
X110704700Y-270250328D01*
X110681434Y-270381318D01*
X110661099Y-270496041D01*
X110644928Y-270587520D01*
X110634154Y-270648778D01*
X110630011Y-270672838D01*
X110630003Y-270672910D01*
X110651459Y-270674342D01*
X110712405Y-270675640D01*
X110807255Y-270676756D01*
X110930422Y-270677641D01*
X111076321Y-270678249D01*
X111239365Y-270678531D01*
X111285534Y-270678545D01*
X111941636Y-270678545D01*
X111926657Y-270763061D01*
X111920128Y-270806614D01*
X111914584Y-270841721D01*
X111905530Y-270869284D01*
X111888468Y-270890204D01*
X111858903Y-270905386D01*
X111812337Y-270915730D01*
X111744275Y-270922140D01*
X111650219Y-270925517D01*
X111525673Y-270926765D01*
X111366141Y-270926785D01*
X111167127Y-270926481D01*
X111112474Y-270926460D01*
X110930534Y-270925987D01*
X110763752Y-270924645D01*
X110617272Y-270922545D01*
X110496234Y-270919800D01*
X110405782Y-270916520D01*
X110351056Y-270912819D01*
X110336447Y-270909556D01*
X110340255Y-270884724D01*
X110351189Y-270819717D01*
X110368516Y-270718744D01*
X110391505Y-270586016D01*
X110419423Y-270425741D01*
X110451539Y-270242131D01*
X110487120Y-270039394D01*
X110525434Y-269821740D01*
X110539281Y-269743230D01*
X110578335Y-269521810D01*
X110614916Y-269314204D01*
X110648296Y-269124566D01*
X110677743Y-268957053D01*
X110702529Y-268815821D01*
X110721924Y-268705025D01*
X110735198Y-268628822D01*
X110741621Y-268591367D01*
X110742115Y-268588172D01*
X110763799Y-268586853D01*
X110825425Y-268585644D01*
X110921862Y-268584582D01*
X111047976Y-268583704D01*
X111198635Y-268583046D01*
X111368706Y-268582647D01*
X111521052Y-268582538D01*
X112299984Y-268582538D01*
X112284463Y-268689592D01*
G37*
G36*
X91913195Y-268584417D02*
G01*
X91957666Y-268589259D01*
X91968207Y-268593830D01*
X91964059Y-268630170D01*
X91952423Y-268704259D01*
X91934510Y-268809618D01*
X91911532Y-268939768D01*
X91884702Y-269088230D01*
X91855231Y-269248524D01*
X91824332Y-269414173D01*
X91793215Y-269578697D01*
X91763093Y-269735616D01*
X91735178Y-269878453D01*
X91710681Y-270000728D01*
X91690816Y-270095962D01*
X91676792Y-270157676D01*
X91673114Y-270171446D01*
X91590384Y-270384995D01*
X91478438Y-270567877D01*
X91339462Y-270717688D01*
X91175639Y-270832025D01*
X91008384Y-270902729D01*
X90868721Y-270935271D01*
X90711218Y-270954662D01*
X90555488Y-270959411D01*
X90421143Y-270948030D01*
X90418312Y-270947541D01*
X90281337Y-270914936D01*
X90171794Y-270866767D01*
X90072710Y-270795211D01*
X90056308Y-270780722D01*
X89971909Y-270690588D01*
X89913753Y-270591875D01*
X89877689Y-270474060D01*
X89859570Y-270326622D01*
X89857021Y-270275246D01*
X89855684Y-270208839D01*
X89857214Y-270141497D01*
X89862388Y-270067245D01*
X89871981Y-269980110D01*
X89886768Y-269874118D01*
X89907526Y-269743297D01*
X89935030Y-269581673D01*
X89970056Y-269383273D01*
X89980247Y-269326282D01*
X90111481Y-268593806D01*
X90239755Y-268587047D01*
X90322474Y-268586833D01*
X90363034Y-268597359D01*
X90368030Y-268606737D01*
X90364225Y-268634660D01*
X90353435Y-268701454D01*
X90336601Y-268801616D01*
X90314662Y-268929642D01*
X90288558Y-269080030D01*
X90259229Y-269247277D01*
X90241794Y-269345972D01*
X90199605Y-269589481D01*
X90166700Y-269793461D01*
X90142891Y-269962453D01*
X90127991Y-270100995D01*
X90121811Y-270213627D01*
X90124165Y-270304890D01*
X90134864Y-270379324D01*
X90153720Y-270441467D01*
X90180547Y-270495861D01*
X90193380Y-270516335D01*
X90278065Y-270605208D01*
X90394205Y-270669981D01*
X90533979Y-270708668D01*
X90689566Y-270719287D01*
X90853144Y-270699854D01*
X90886437Y-270692109D01*
X91057294Y-270627823D01*
X91199866Y-270528455D01*
X91314028Y-270394121D01*
X91399654Y-270224934D01*
X91402223Y-270218142D01*
X91417541Y-270165424D01*
X91438975Y-270074770D01*
X91465191Y-269952699D01*
X91494853Y-269805730D01*
X91526627Y-269640382D01*
X91559176Y-269463174D01*
X91574320Y-269377884D01*
X91605276Y-269202360D01*
X91634184Y-269039976D01*
X91660023Y-268896356D01*
X91681770Y-268777124D01*
X91698403Y-268687904D01*
X91708900Y-268634320D01*
X91711715Y-268621979D01*
X91728520Y-268598141D01*
X91767993Y-268586053D01*
X91840907Y-268582545D01*
X91845769Y-268582538D01*
X91913195Y-268584417D01*
G37*
G36*
X92637366Y-268582816D02*
G01*
X92754733Y-268584165D01*
X92890991Y-268586569D01*
X92942963Y-268587677D01*
X93139229Y-268593684D01*
X93297043Y-268602967D01*
X93422993Y-268616960D01*
X93523666Y-268637097D01*
X93605647Y-268664812D01*
X93675525Y-268701538D01*
X93739885Y-268748711D01*
X93759470Y-268765437D01*
X93840633Y-268865180D01*
X93890960Y-268989067D01*
X93911679Y-269129563D01*
X93904019Y-269279133D01*
X93869209Y-269430240D01*
X93808478Y-269575350D01*
X93723054Y-269706926D01*
X93614167Y-269817434D01*
X93584192Y-269840334D01*
X93494964Y-269899234D01*
X93407482Y-269943627D01*
X93312922Y-269975651D01*
X93202457Y-269997447D01*
X93067262Y-270011153D01*
X92898511Y-270018909D01*
X92841544Y-270020362D01*
X92716800Y-270023734D01*
X92609442Y-270027783D01*
X92526842Y-270032136D01*
X92476372Y-270036422D01*
X92464037Y-270039389D01*
X92460299Y-270064773D01*
X92450092Y-270125948D01*
X92434926Y-270214339D01*
X92416313Y-270321373D01*
X92395763Y-270438478D01*
X92374786Y-270557079D01*
X92354894Y-270668603D01*
X92337597Y-270764477D01*
X92324406Y-270836128D01*
X92316831Y-270874982D01*
X92316662Y-270875750D01*
X92305030Y-270905175D01*
X92279014Y-270920395D01*
X92226628Y-270925920D01*
X92181886Y-270926460D01*
X92114128Y-270923671D01*
X92069262Y-270916479D01*
X92058363Y-270909556D01*
X92062171Y-270884724D01*
X92073105Y-270819717D01*
X92090433Y-270718744D01*
X92113422Y-270586016D01*
X92141340Y-270425741D01*
X92173456Y-270242131D01*
X92209037Y-270039394D01*
X92247350Y-269821740D01*
X92251260Y-269799574D01*
X92504226Y-269799574D01*
X92818107Y-269799574D01*
X92988445Y-269796757D01*
X93119746Y-269787998D01*
X93217713Y-269772832D01*
X93250109Y-269764496D01*
X93380179Y-269705238D01*
X93489570Y-269615370D01*
X93574201Y-269502875D01*
X93629989Y-269375732D01*
X93652854Y-269241922D01*
X93638714Y-269109427D01*
X93616954Y-269047211D01*
X93581367Y-268980146D01*
X93537383Y-268934545D01*
X93469127Y-268895021D01*
X93451079Y-268886451D01*
X93400220Y-268864397D01*
X93352086Y-268849061D01*
X93296972Y-268839232D01*
X93225170Y-268833698D01*
X93126974Y-268831247D01*
X93004370Y-268830673D01*
X92677001Y-268830452D01*
X92602264Y-269264303D01*
X92578422Y-269401863D01*
X92556496Y-269526798D01*
X92537879Y-269631287D01*
X92523966Y-269707512D01*
X92516150Y-269747650D01*
X92515877Y-269748864D01*
X92504226Y-269799574D01*
X92251260Y-269799574D01*
X92261198Y-269743230D01*
X92300261Y-269521703D01*
X92336851Y-269313900D01*
X92370237Y-269123990D01*
X92399688Y-268956143D01*
X92424475Y-268814528D01*
X92443867Y-268703313D01*
X92457133Y-268626668D01*
X92463543Y-268588761D01*
X92464032Y-268585409D01*
X92485473Y-268583407D01*
X92545432Y-268582553D01*
X92637366Y-268582816D01*
G37*
G36*
X89045763Y-268559188D02*
G01*
X89228916Y-268601792D01*
X89375143Y-268668806D01*
X89486205Y-268761513D01*
X89563866Y-268881196D01*
X89592379Y-268956976D01*
X89614755Y-269037011D01*
X89619087Y-269085351D01*
X89601124Y-269113216D01*
X89556616Y-269131824D01*
X89522542Y-269141306D01*
X89436864Y-269161761D01*
X89385556Y-269166014D01*
X89360565Y-269153091D01*
X89353837Y-269122016D01*
X89353833Y-269120877D01*
X89333247Y-269034168D01*
X89276993Y-268947970D01*
X89193328Y-268872911D01*
X89134050Y-268837958D01*
X89004750Y-268794438D01*
X88858380Y-268777172D01*
X88707287Y-268784890D01*
X88563819Y-268816320D01*
X88440322Y-268870193D01*
X88377502Y-268915830D01*
X88313034Y-268997516D01*
X88269983Y-269099251D01*
X88250504Y-269208050D01*
X88256752Y-269310927D01*
X88290882Y-269394897D01*
X88296691Y-269402753D01*
X88345894Y-269452303D01*
X88413604Y-269495732D01*
X88506315Y-269535824D01*
X88630517Y-269575365D01*
X88792702Y-269617138D01*
X88801373Y-269619204D01*
X88986057Y-269667853D01*
X89131126Y-269717377D01*
X89242013Y-269770181D01*
X89324153Y-269828669D01*
X89361573Y-269867104D01*
X89427111Y-269978157D01*
X89458341Y-270107830D01*
X89457591Y-270248487D01*
X89427191Y-270392489D01*
X89369468Y-270532199D01*
X89286753Y-270659978D01*
X89181373Y-270768189D01*
X89063268Y-270845472D01*
X88902087Y-270906620D01*
X88714786Y-270945907D01*
X88515684Y-270961386D01*
X88319097Y-270951111D01*
X88302501Y-270948924D01*
X88117973Y-270907449D01*
X87968978Y-270838669D01*
X87854520Y-270741693D01*
X87773608Y-270615632D01*
X87725249Y-270459596D01*
X87719659Y-270426493D01*
X87703911Y-270320936D01*
X87802031Y-270295560D01*
X87871514Y-270277318D01*
X87927369Y-270262195D01*
X87939592Y-270258737D01*
X87966088Y-270258950D01*
X87977296Y-270287073D01*
X87979033Y-270328589D01*
X88000298Y-270443636D01*
X88059166Y-270548957D01*
X88148247Y-270632115D01*
X88165953Y-270643204D01*
X88290648Y-270694998D01*
X88440006Y-270724130D01*
X88599545Y-270730285D01*
X88754782Y-270713150D01*
X88891235Y-270672410D01*
X88918717Y-270659527D01*
X89026582Y-270585031D01*
X89111151Y-270488130D01*
X89168505Y-270377795D01*
X89194722Y-270262993D01*
X89185883Y-270152694D01*
X89164570Y-270097026D01*
X89126410Y-270037448D01*
X89075840Y-269988806D01*
X89006079Y-269947757D01*
X88910348Y-269910954D01*
X88781870Y-269875053D01*
X88655164Y-269845657D01*
X88445562Y-269791290D01*
X88278169Y-269728934D01*
X88150615Y-269657285D01*
X88060532Y-269575042D01*
X88009482Y-269490756D01*
X87985606Y-269392820D01*
X87980999Y-269271145D01*
X87995364Y-269142597D01*
X88017227Y-269055433D01*
X88086078Y-268912923D01*
X88191097Y-268789737D01*
X88326522Y-268688655D01*
X88486591Y-268612457D01*
X88665543Y-268563922D01*
X88857615Y-268545832D01*
X89045763Y-268559188D01*
G37*
G36*
X96581466Y-268582816D02*
G01*
X96698833Y-268584165D01*
X96835091Y-268586569D01*
X96887063Y-268587677D01*
X97050732Y-268591747D01*
X97176728Y-268596213D01*
X97272453Y-268601815D01*
X97345308Y-268609292D01*
X97402694Y-268619384D01*
X97452012Y-268632831D01*
X97495933Y-268648535D01*
X97643192Y-268721217D01*
X97750309Y-268811776D01*
X97819924Y-268923905D01*
X97854683Y-269061298D01*
X97859906Y-269157249D01*
X97849786Y-269314571D01*
X97817726Y-269446175D01*
X97759257Y-269567892D01*
X97731921Y-269610800D01*
X97614846Y-269746366D01*
X97470480Y-269849591D01*
X97343039Y-269904088D01*
X97276374Y-269928020D01*
X97231517Y-269949708D01*
X97219494Y-269961363D01*
X97227805Y-269986661D01*
X97251075Y-270047289D01*
X97286811Y-270137018D01*
X97332519Y-270249619D01*
X97385706Y-270378862D01*
X97411065Y-270439949D01*
X97466716Y-270574221D01*
X97516011Y-270694247D01*
X97556466Y-270793885D01*
X97585594Y-270866993D01*
X97600911Y-270907431D01*
X97602635Y-270913332D01*
X97582036Y-270919906D01*
X97527977Y-270924615D01*
X97452066Y-270926459D01*
X97450420Y-270926460D01*
X97298206Y-270926460D01*
X97117989Y-270464824D01*
X96937773Y-270003189D01*
X96676520Y-270002801D01*
X96415268Y-270002413D01*
X96342227Y-270424995D01*
X96318711Y-270559836D01*
X96297164Y-270681134D01*
X96278983Y-270781195D01*
X96265566Y-270852323D01*
X96258313Y-270886825D01*
X96258260Y-270887019D01*
X96242044Y-270910810D01*
X96203242Y-270922894D01*
X96131113Y-270926448D01*
X96124896Y-270926460D01*
X96057478Y-270923647D01*
X96013010Y-270916401D01*
X96002463Y-270909556D01*
X96006271Y-270884724D01*
X96017204Y-270819717D01*
X96034532Y-270718744D01*
X96057521Y-270586016D01*
X96085439Y-270425741D01*
X96117555Y-270242131D01*
X96153136Y-270039394D01*
X96191450Y-269821740D01*
X96203289Y-269754613D01*
X96458729Y-269754613D01*
X96466988Y-269765297D01*
X96491488Y-269772138D01*
X96538321Y-269775692D01*
X96613584Y-269776516D01*
X96723371Y-269775166D01*
X96828586Y-269773132D01*
X96971645Y-269769662D01*
X97077706Y-269765327D01*
X97154849Y-269759153D01*
X97211150Y-269750163D01*
X97254688Y-269737384D01*
X97293542Y-269719840D01*
X97300510Y-269716182D01*
X97424138Y-269625815D01*
X97517949Y-269505646D01*
X97567861Y-269390122D01*
X97595666Y-269271457D01*
X97598419Y-269175056D01*
X97575422Y-269085250D01*
X97551925Y-269033739D01*
X97513717Y-268969394D01*
X97469182Y-268920841D01*
X97411541Y-268885755D01*
X97334015Y-268861812D01*
X97229827Y-268846686D01*
X97092196Y-268838055D01*
X96971265Y-268834609D01*
X96621616Y-268827497D01*
X96546949Y-269262826D01*
X96523221Y-269399846D01*
X96501384Y-269523491D01*
X96482813Y-269626161D01*
X96468885Y-269700257D01*
X96460976Y-269738177D01*
X96460614Y-269739529D01*
X96458729Y-269754613D01*
X96203289Y-269754613D01*
X96205297Y-269743230D01*
X96244360Y-269521703D01*
X96280950Y-269313900D01*
X96314336Y-269123990D01*
X96343788Y-268956143D01*
X96368574Y-268814528D01*
X96387966Y-268703313D01*
X96401232Y-268626668D01*
X96407643Y-268588761D01*
X96408131Y-268585409D01*
X96429573Y-268583407D01*
X96489531Y-268582553D01*
X96581466Y-268582816D01*
G37*
G36*
X109412817Y-268566606D02*
G01*
X109608655Y-268620856D01*
X109788023Y-268710134D01*
X109901050Y-268794283D01*
X109949804Y-268845864D01*
X110001317Y-268914736D01*
X110049858Y-268990938D01*
X110089696Y-269064508D01*
X110115102Y-269125484D01*
X110120344Y-269163906D01*
X110117002Y-269169659D01*
X110089007Y-269181738D01*
X110034020Y-269199134D01*
X109968992Y-269217135D01*
X109910876Y-269231027D01*
X109877849Y-269236131D01*
X109861569Y-269218437D01*
X109831250Y-269173143D01*
X109809106Y-269136604D01*
X109705345Y-269002320D01*
X109572131Y-268899268D01*
X109413944Y-268829006D01*
X109235264Y-268793092D01*
X109040567Y-268793084D01*
X108890089Y-268816828D01*
X108686226Y-268884251D01*
X108503204Y-268988554D01*
X108344423Y-269125052D01*
X108213286Y-269289061D01*
X108113193Y-269475895D01*
X108047546Y-269680870D01*
X108019744Y-269899300D01*
X108021193Y-270013682D01*
X108051021Y-270203337D01*
X108115735Y-270364566D01*
X108214725Y-270496726D01*
X108347379Y-270599171D01*
X108513088Y-270671258D01*
X108679137Y-270708132D01*
X108874986Y-270715518D01*
X109077882Y-270685814D01*
X109276471Y-270622713D01*
X109459402Y-270529908D01*
X109615323Y-270411091D01*
X109627144Y-270399738D01*
X109689839Y-270335436D01*
X109727162Y-270285265D01*
X109747558Y-270233552D01*
X109759471Y-270164622D01*
X109761146Y-270151010D01*
X109771672Y-270074003D01*
X109782300Y-270013085D01*
X109788742Y-269987611D01*
X109785499Y-269975869D01*
X109761659Y-269967474D01*
X109711690Y-269961934D01*
X109630059Y-269958756D01*
X109511234Y-269957448D01*
X109448613Y-269957338D01*
X109328455Y-269956724D01*
X109225951Y-269955028D01*
X109148739Y-269952472D01*
X109104456Y-269949276D01*
X109096868Y-269947178D01*
X109101207Y-269921177D01*
X109112316Y-269865696D01*
X109121273Y-269823221D01*
X109145678Y-269709423D01*
X109605834Y-269709423D01*
X109769110Y-269710069D01*
X109891775Y-269712187D01*
X109978273Y-269716049D01*
X110033054Y-269721929D01*
X110060562Y-269730098D01*
X110065979Y-269737595D01*
X110062193Y-269766649D01*
X110051538Y-269833854D01*
X110035063Y-269932986D01*
X110013812Y-270057821D01*
X109988834Y-270202134D01*
X109964570Y-270340479D01*
X109937286Y-270495325D01*
X109912779Y-270634807D01*
X109892083Y-270753008D01*
X109876231Y-270844014D01*
X109866257Y-270901908D01*
X109863160Y-270920825D01*
X109842866Y-270924041D01*
X109790994Y-270926080D01*
X109750461Y-270926460D01*
X109686170Y-270923149D01*
X109645369Y-270914685D01*
X109637773Y-270908061D01*
X109641603Y-270877418D01*
X109651514Y-270817123D01*
X109661860Y-270759360D01*
X109673099Y-270687922D01*
X109677536Y-270636331D01*
X109675337Y-270618446D01*
X109652968Y-270624737D01*
X109605652Y-270651836D01*
X109555464Y-270685620D01*
X109337749Y-270815998D01*
X109109931Y-270905718D01*
X108876606Y-270953588D01*
X108642369Y-270958415D01*
X108546498Y-270947578D01*
X108386202Y-270906296D01*
X108224556Y-270835448D01*
X108080357Y-270744003D01*
X108027911Y-270700137D01*
X107909862Y-270561690D01*
X107824614Y-270397945D01*
X107772040Y-270214385D01*
X107752010Y-270016492D01*
X107764396Y-269809749D01*
X107809070Y-269599638D01*
X107885903Y-269391641D01*
X107994766Y-269191242D01*
X108065671Y-269089636D01*
X108215173Y-268924693D01*
X108388611Y-268788277D01*
X108580214Y-268681317D01*
X108784208Y-268604740D01*
X108994821Y-268559477D01*
X109206281Y-268546456D01*
X109412817Y-268566606D01*
G37*
G36*
X100549915Y-268588103D02*
G01*
X100564290Y-268601410D01*
X100562834Y-268627870D01*
X100562028Y-268632248D01*
X100556292Y-268664113D01*
X100543519Y-268735914D01*
X100524498Y-268843198D01*
X100500017Y-268981511D01*
X100470865Y-269146397D01*
X100437827Y-269333403D01*
X100401693Y-269538073D01*
X100363251Y-269755955D01*
X100355557Y-269799574D01*
X100158803Y-270915191D01*
X100030142Y-270921950D01*
X99960868Y-270923584D01*
X99914159Y-270920847D01*
X99901482Y-270916049D01*
X99905300Y-270890106D01*
X99916020Y-270826032D01*
X99932533Y-270730058D01*
X99953737Y-270608413D01*
X99978523Y-270467325D01*
X100005787Y-270313024D01*
X100034424Y-270151739D01*
X100063327Y-269989699D01*
X100091391Y-269833132D01*
X100117510Y-269688269D01*
X100140579Y-269561338D01*
X100159492Y-269458568D01*
X100171651Y-269393940D01*
X100190341Y-269293929D01*
X100205288Y-269209142D01*
X100214688Y-269150126D01*
X100217010Y-269129122D01*
X100206019Y-269101798D01*
X100176431Y-269109699D01*
X100133316Y-269149692D01*
X100088486Y-269208540D01*
X100055955Y-269254928D01*
X100000935Y-269331584D01*
X99927755Y-269432551D01*
X99840749Y-269551872D01*
X99744249Y-269683590D01*
X99642586Y-269821746D01*
X99642316Y-269822112D01*
X99532500Y-269970820D01*
X99445820Y-270087183D01*
X99378704Y-270175168D01*
X99327580Y-270238740D01*
X99288875Y-270281865D01*
X99259017Y-270308508D01*
X99234434Y-270322636D01*
X99211553Y-270328215D01*
X99186802Y-270329210D01*
X99102732Y-270329210D01*
X98960329Y-269968607D01*
X98903329Y-269822920D01*
X98842958Y-269666337D01*
X98785131Y-269514347D01*
X98735767Y-269382436D01*
X98719535Y-269338270D01*
X98681008Y-269236067D01*
X98646434Y-269150619D01*
X98619320Y-269090169D01*
X98603175Y-269062961D01*
X98602085Y-269062302D01*
X98594291Y-269082378D01*
X98579973Y-269142298D01*
X98560028Y-269237444D01*
X98535352Y-269363201D01*
X98506842Y-269514952D01*
X98475394Y-269688079D01*
X98441905Y-269877966D01*
X98427191Y-269963092D01*
X98393187Y-270160296D01*
X98361259Y-270344097D01*
X98332268Y-270509645D01*
X98307072Y-270652091D01*
X98286532Y-270766584D01*
X98271508Y-270848274D01*
X98262859Y-270892312D01*
X98261381Y-270898287D01*
X98237022Y-270912346D01*
X98185392Y-270922120D01*
X98121689Y-270926933D01*
X98061112Y-270926108D01*
X98018860Y-270918969D01*
X98008319Y-270909556D01*
X98012127Y-270884724D01*
X98023061Y-270819717D01*
X98040388Y-270718744D01*
X98063377Y-270586016D01*
X98091296Y-270425741D01*
X98123411Y-270242131D01*
X98158992Y-270039394D01*
X98197306Y-269821740D01*
X98211153Y-269743230D01*
X98250211Y-269521768D01*
X98286795Y-269314085D01*
X98320177Y-269124342D01*
X98349627Y-268956699D01*
X98374413Y-268815317D01*
X98393807Y-268704359D01*
X98407077Y-268627983D01*
X98413495Y-268590353D01*
X98413988Y-268587097D01*
X98434475Y-268584594D01*
X98487877Y-268584731D01*
X98553788Y-268587097D01*
X98693583Y-268593806D01*
X98956456Y-269281207D01*
X99034330Y-269482424D01*
X99101833Y-269651844D01*
X99158049Y-269787318D01*
X99202060Y-269886702D01*
X99232952Y-269947847D01*
X99249775Y-269968607D01*
X99269584Y-269951067D01*
X99312869Y-269901092D01*
X99376518Y-269822646D01*
X99457422Y-269719694D01*
X99552470Y-269596201D01*
X99658550Y-269456132D01*
X99772554Y-269303452D01*
X99789036Y-269281207D01*
X100297851Y-268593806D01*
X100434798Y-268587173D01*
X100509990Y-268584505D01*
X100549915Y-268588103D01*
G37*
G36*
X91524878Y-265472686D02*
G01*
X91729883Y-265474188D01*
X91895909Y-265478953D01*
X92028991Y-265487843D01*
X92135162Y-265501722D01*
X92220456Y-265521455D01*
X92290906Y-265547904D01*
X92352545Y-265581934D01*
X92370141Y-265593696D01*
X92471047Y-265689174D01*
X92536334Y-265807322D01*
X92564766Y-265941664D01*
X92555110Y-266085722D01*
X92506129Y-266233022D01*
X92495980Y-266253696D01*
X92410680Y-266379595D01*
X92290502Y-266488060D01*
X92202749Y-266545158D01*
X92179309Y-266562997D01*
X92185893Y-266579561D01*
X92227594Y-266603938D01*
X92238934Y-266609710D01*
X92362716Y-266688306D01*
X92446268Y-266781641D01*
X92493691Y-266896296D01*
X92509085Y-267038850D01*
X92509095Y-267043220D01*
X92488114Y-267217004D01*
X92427091Y-267374004D01*
X92328843Y-267511399D01*
X92196184Y-267626370D01*
X92031930Y-267716095D01*
X91838899Y-267777756D01*
X91760559Y-267792922D01*
X91694807Y-267800159D01*
X91599822Y-267806045D01*
X91482809Y-267810571D01*
X91350971Y-267813728D01*
X91211511Y-267815508D01*
X91071634Y-267815900D01*
X90938542Y-267814897D01*
X90819439Y-267812489D01*
X90721529Y-267808667D01*
X90652016Y-267803421D01*
X90618103Y-267796744D01*
X90615945Y-267794364D01*
X90619727Y-267769141D01*
X90630471Y-267704683D01*
X90647274Y-267606141D01*
X90669232Y-267478664D01*
X90683959Y-267393673D01*
X91135601Y-267393673D01*
X91138924Y-267409702D01*
X91154764Y-267420719D01*
X91190083Y-267427644D01*
X91251842Y-267431400D01*
X91347003Y-267432906D01*
X91433796Y-267433114D01*
X91559855Y-267432330D01*
X91650783Y-267429136D01*
X91716512Y-267422269D01*
X91766972Y-267410466D01*
X91812093Y-267392465D01*
X91832521Y-267382405D01*
X91935444Y-267312868D01*
X92002250Y-267223832D01*
X92037533Y-267121134D01*
X92042492Y-267009437D01*
X92007042Y-266911614D01*
X91934049Y-266834822D01*
X91918854Y-266824828D01*
X91883939Y-266806096D01*
X91845273Y-266793567D01*
X91793797Y-266786283D01*
X91720454Y-266783285D01*
X91616185Y-266783616D01*
X91541213Y-266784893D01*
X91238176Y-266790790D01*
X91187533Y-267072511D01*
X91168118Y-267182974D01*
X91151929Y-267279726D01*
X91140575Y-267352819D01*
X91135666Y-267392304D01*
X91135601Y-267393673D01*
X90683959Y-267393673D01*
X90695443Y-267327402D01*
X90725003Y-267157506D01*
X90757009Y-266974124D01*
X90790558Y-266782406D01*
X90824746Y-266587503D01*
X90858672Y-266394564D01*
X90858832Y-266393655D01*
X91319927Y-266393655D01*
X91336891Y-266426787D01*
X91376419Y-266441135D01*
X91442950Y-266443209D01*
X91540922Y-266439518D01*
X91579432Y-266438188D01*
X91702946Y-266433006D01*
X91791412Y-266425159D01*
X91854846Y-266413089D01*
X91903263Y-266395240D01*
X91923132Y-266384727D01*
X91998533Y-266321158D01*
X92056495Y-266234375D01*
X92089941Y-266138943D01*
X92091791Y-266049429D01*
X92089973Y-266041390D01*
X92066210Y-265975593D01*
X92028879Y-265927823D01*
X91971209Y-265895117D01*
X91886432Y-265874515D01*
X91767778Y-265863053D01*
X91673653Y-265859222D01*
X91569598Y-265857042D01*
X91484281Y-265856649D01*
X91426429Y-265857982D01*
X91404769Y-265860982D01*
X91404765Y-265861038D01*
X91400974Y-265885642D01*
X91390696Y-265945220D01*
X91375570Y-266030406D01*
X91360032Y-266116475D01*
X91335936Y-266245008D01*
X91321088Y-266335232D01*
X91319927Y-266393655D01*
X90858832Y-266393655D01*
X90891430Y-266208739D01*
X90922119Y-266035177D01*
X90949835Y-265879029D01*
X90973675Y-265745444D01*
X90992735Y-265639572D01*
X91006113Y-265566563D01*
X91012316Y-265534312D01*
X91025205Y-265472334D01*
X91524878Y-265472686D01*
G37*
G36*
X88731282Y-263902863D02*
G01*
X88846335Y-263909557D01*
X89004334Y-263920631D01*
X89205789Y-263936099D01*
X89451208Y-263955974D01*
X89665955Y-263973909D01*
X91277867Y-264116640D01*
X92920536Y-264275280D01*
X94582967Y-264448752D01*
X95179831Y-264514144D01*
X96370990Y-264649689D01*
X97526618Y-264788076D01*
X98646288Y-264929218D01*
X99729572Y-265073023D01*
X100776044Y-265219402D01*
X101785276Y-265368264D01*
X102756842Y-265519521D01*
X103690313Y-265673081D01*
X104585263Y-265828856D01*
X105441265Y-265986754D01*
X106257891Y-266146687D01*
X107034714Y-266308564D01*
X107771307Y-266472295D01*
X108467244Y-266637790D01*
X109122096Y-266804960D01*
X109735436Y-266973714D01*
X110306838Y-267143963D01*
X110835874Y-267315616D01*
X111322117Y-267488584D01*
X111765141Y-267662777D01*
X112164516Y-267838104D01*
X112519818Y-268014476D01*
X112830617Y-268191803D01*
X112921978Y-268249627D01*
X113160100Y-268424044D01*
X113354487Y-268609248D01*
X113505224Y-268805472D01*
X113612398Y-269012947D01*
X113676095Y-269231906D01*
X113696402Y-269462581D01*
X113673405Y-269705204D01*
X113607191Y-269960008D01*
X113583301Y-270027226D01*
X113493804Y-270220490D01*
X113367335Y-270425318D01*
X113208593Y-270636086D01*
X113022278Y-270847172D01*
X112813088Y-271052954D01*
X112585722Y-271247810D01*
X112520594Y-271298763D01*
X112425166Y-271370049D01*
X112324708Y-271441897D01*
X112223587Y-271511608D01*
X112126170Y-271576485D01*
X112036822Y-271633827D01*
X111959909Y-271680937D01*
X111899799Y-271715116D01*
X111860857Y-271733664D01*
X111847450Y-271733883D01*
X111863944Y-271713074D01*
X111893464Y-271686395D01*
X111935912Y-271651368D01*
X112003294Y-271597311D01*
X112084893Y-271532778D01*
X112139662Y-271489902D01*
X112286217Y-271367963D01*
X112444836Y-271222821D01*
X112604999Y-271065070D01*
X112756190Y-270905304D01*
X112887891Y-270754117D01*
X112957711Y-270665932D01*
X113088217Y-270476498D01*
X113204879Y-270276186D01*
X113300073Y-270079026D01*
X113355057Y-269934800D01*
X113408942Y-269702710D01*
X113418445Y-269474257D01*
X113384225Y-269251319D01*
X113306940Y-269035771D01*
X113187249Y-268829491D01*
X113025812Y-268634354D01*
X112838832Y-268464559D01*
X112645087Y-268321463D01*
X112431796Y-268187384D01*
X112196090Y-268061268D01*
X111935100Y-267942065D01*
X111645958Y-267828720D01*
X111325793Y-267720181D01*
X110971737Y-267615396D01*
X110580921Y-267513313D01*
X110150476Y-267412877D01*
X109727924Y-267323250D01*
X109108026Y-267203499D01*
X108520767Y-267103818D01*
X107958767Y-267023538D01*
X107414643Y-266961991D01*
X106881015Y-266918506D01*
X106350500Y-266892415D01*
X105815716Y-266883050D01*
X105269284Y-266889741D01*
X105028811Y-266897391D01*
X104777231Y-266905738D01*
X104512304Y-266912609D01*
X104239185Y-266918005D01*
X103963028Y-266921926D01*
X103688986Y-266924372D01*
X103422213Y-266925343D01*
X103167864Y-266924840D01*
X102931091Y-266922863D01*
X102717050Y-266919411D01*
X102530895Y-266914486D01*
X102377778Y-266908087D01*
X102262854Y-266900214D01*
X102234135Y-266897287D01*
X102082413Y-266879542D01*
X101948354Y-266862609D01*
X101826194Y-266845163D01*
X101710163Y-266825880D01*
X101594496Y-266803436D01*
X101473426Y-266776505D01*
X101341185Y-266743764D01*
X101192008Y-266703888D01*
X101020126Y-266655553D01*
X100819774Y-266597434D01*
X100585184Y-266528206D01*
X100442387Y-266485782D01*
X99865190Y-266314175D01*
X99329675Y-266155183D01*
X98834375Y-266008380D01*
X98377825Y-265873338D01*
X97958557Y-265749633D01*
X97575107Y-265636838D01*
X97226008Y-265534526D01*
X96909793Y-265442271D01*
X96624997Y-265359648D01*
X96370153Y-265286229D01*
X96143795Y-265221589D01*
X95944458Y-265165301D01*
X95770674Y-265116939D01*
X95620979Y-265076077D01*
X95493905Y-265042288D01*
X95387987Y-265015147D01*
X95360575Y-265008350D01*
X95106178Y-264949090D01*
X94808421Y-264885641D01*
X94468799Y-264818255D01*
X94088806Y-264747185D01*
X93669940Y-264672686D01*
X93213695Y-264595009D01*
X92721566Y-264514409D01*
X92195049Y-264431138D01*
X91635639Y-264345449D01*
X91044832Y-264257597D01*
X90424123Y-264167834D01*
X90255341Y-264143834D01*
X90034702Y-264112570D01*
X89812696Y-264081119D01*
X89596662Y-264050520D01*
X89393941Y-264021811D01*
X89211875Y-263996033D01*
X89057802Y-263974225D01*
X88939065Y-263957426D01*
X88914348Y-263953931D01*
X88782407Y-263934627D01*
X88690359Y-263919622D01*
X88638714Y-263908929D01*
X88627981Y-263902563D01*
X88658667Y-263900536D01*
X88731282Y-263902863D01*
G37*
D13*
X238409000Y-202153000D02*
X168909000Y-202153000D01*
X168909000Y-182153000D01*
X238409000Y-182153000D01*
X238409000Y-202153000D01*
X160909000Y-178018000D02*
X91409000Y-178018000D01*
X91409000Y-158018000D01*
X160909000Y-158018000D01*
X160909000Y-178018000D01*
X238409000Y-226287000D02*
X168909000Y-226287000D01*
X168909000Y-206287000D01*
X238409000Y-206287000D01*
X238409000Y-226287000D01*
X130710000Y-267150000D02*
X140710000Y-267150000D01*
X140710000Y-277150000D01*
X130710000Y-277150000D01*
X130710000Y-267150000D01*
X160909000Y-250421000D02*
X91409000Y-250421000D01*
X91409000Y-230421000D01*
X160909000Y-230421000D01*
X160909000Y-250421000D01*
X169720000Y-267080000D02*
X179720000Y-267080000D01*
X179720000Y-277080000D01*
X169720000Y-277080000D01*
X169720000Y-267080000D01*
X238409000Y-250421000D02*
X168909000Y-250421000D01*
X168909000Y-230421000D01*
X238409000Y-230421000D01*
X238409000Y-250421000D01*
X160909000Y-226287000D02*
X91409000Y-226287000D01*
X91409000Y-206287000D01*
X160909000Y-206287000D01*
X160909000Y-226287000D01*
X238409000Y-153884000D02*
X168909000Y-153884000D01*
X168909000Y-133884000D01*
X238409000Y-133884000D01*
X238409000Y-153884000D01*
%LPC*%
D17*
X148629000Y-119750000D03*
X103689000Y-119750000D03*
X226129000Y-119750000D03*
X181189000Y-119750000D03*
D18*
X119945000Y-267787500D03*
X119945000Y-275987500D03*
D17*
X148629000Y-143884000D03*
X103689000Y-143884000D03*
X226129000Y-168018000D03*
X181189000Y-168018000D03*
D18*
X189675000Y-267875000D03*
X189675000Y-276075000D03*
D19*
X234315000Y-278445000D03*
X200715000Y-278445000D03*
D20*
X234315000Y-271145000D03*
D21*
X230115000Y-271145000D03*
X225915000Y-271145000D03*
X221715000Y-271145000D03*
X217515000Y-271145000D03*
X213315000Y-271145000D03*
X209115000Y-271145000D03*
X204915000Y-271145000D03*
X200715000Y-271145000D03*
X234315000Y-265645000D03*
X230115000Y-265645000D03*
X225915000Y-265645000D03*
X221715000Y-265645000D03*
X217515000Y-265645000D03*
X213315000Y-265645000D03*
X209115000Y-265645000D03*
X204915000Y-265645000D03*
X200715000Y-265645000D03*
D17*
X148629000Y-192153000D03*
X103689000Y-192153000D03*
X226129000Y-192153000D03*
X181189000Y-192153000D03*
X148629000Y-168018000D03*
X103689000Y-168018000D03*
X226129000Y-216287000D03*
X181189000Y-216287000D03*
D22*
X237879000Y-257421000D03*
D23*
X135710000Y-272150000D03*
D24*
X131710000Y-268150000D03*
X131710000Y-270150000D03*
X131710000Y-272150000D03*
X131710000Y-274150000D03*
X131710000Y-276150000D03*
X133710000Y-268150000D03*
X133710000Y-276150000D03*
D25*
X135710000Y-272150000D03*
D24*
X135710001Y-268150000D03*
X135710001Y-276150000D03*
X137710000Y-268150000D03*
X137710000Y-276150000D03*
X139710000Y-268150000D03*
X139710000Y-270150000D03*
X139710000Y-272150000D03*
X139710000Y-274150000D03*
X139710000Y-276150000D03*
D17*
X148629000Y-240421000D03*
X103689000Y-240421000D03*
D24*
X178720000Y-276080000D03*
X178720000Y-274080000D03*
X178720000Y-272080000D03*
X178720000Y-270080000D03*
X178720000Y-268080000D03*
X176720000Y-276080000D03*
X176720000Y-268080000D03*
X174720001Y-276080000D03*
X174720001Y-268080000D03*
D25*
X174720000Y-272080000D03*
D24*
X172720000Y-276080000D03*
X172720000Y-268080000D03*
X170720000Y-276080000D03*
X170720000Y-274080000D03*
X170720000Y-272080000D03*
X170720000Y-270080000D03*
X170720000Y-268080000D03*
D23*
X174720000Y-272080000D03*
D17*
X226129000Y-240421000D03*
X181189000Y-240421000D03*
D22*
X91879000Y-257421000D03*
D17*
X148629000Y-216287000D03*
X103689000Y-216287000D03*
X226129000Y-143884000D03*
X181189000Y-143884000D03*
%LPD*%
M02*
