G04 #@! TF.GenerationSoftware,KiCad,Pcbnew,(6.0.8-1)-1*
G04 #@! TF.CreationDate,2023-03-04T15:57:30-08:00*
G04 #@! TF.ProjectId,URBAN_CELL_BOARD,55524241-4e5f-4434-954c-4c5f424f4152,rev?*
G04 #@! TF.SameCoordinates,Original*
G04 #@! TF.FileFunction,Legend,Bot*
G04 #@! TF.FilePolarity,Positive*
%FSLAX46Y46*%
G04 Gerber Fmt 4.6, Leading zero omitted, Abs format (unit mm)*
G04 Created by KiCad (PCBNEW (6.0.8-1)-1) date 2023-03-04 15:57:30*
%MOMM*%
%LPD*%
G01*
G04 APERTURE LIST*
G04 Aperture macros list*
%AMRoundRect*
0 Rectangle with rounded corners*
0 $1 Rounding radius*
0 $2 $3 $4 $5 $6 $7 $8 $9 X,Y pos of 4 corners*
0 Add a 4 corners polygon primitive as box body*
4,1,4,$2,$3,$4,$5,$6,$7,$8,$9,$2,$3,0*
0 Add four circle primitives for the rounded corners*
1,1,$1+$1,$2,$3*
1,1,$1+$1,$4,$5*
1,1,$1+$1,$6,$7*
1,1,$1+$1,$8,$9*
0 Add four rect primitives between the rounded corners*
20,1,$1+$1,$2,$3,$4,$5,0*
20,1,$1+$1,$4,$5,$6,$7,0*
20,1,$1+$1,$6,$7,$8,$9,0*
20,1,$1+$1,$8,$9,$2,$3,0*%
G04 Aperture macros list end*
%ADD10C,0.120000*%
%ADD11R,11.000000X13.000000*%
%ADD12C,9.000000*%
%ADD13R,6.000000X6.000000*%
%ADD14C,6.000000*%
%ADD15C,3.000000*%
%ADD16RoundRect,0.250001X1.099999X1.599999X-1.099999X1.599999X-1.099999X-1.599999X1.099999X-1.599999X0*%
%ADD17O,2.700000X3.700000*%
%ADD18C,1.650000*%
%ADD19C,7.500000*%
G04 APERTURE END LIST*
D10*
X160909000Y-129750000D02*
X91409000Y-129750000D01*
X91409000Y-129750000D02*
X91409000Y-109750000D01*
X91409000Y-109750000D02*
X160909000Y-109750000D01*
X160909000Y-109750000D02*
X160909000Y-129750000D01*
X238409000Y-129750000D02*
X168909000Y-129750000D01*
X168909000Y-129750000D02*
X168909000Y-109750000D01*
X168909000Y-109750000D02*
X238409000Y-109750000D01*
X238409000Y-109750000D02*
X238409000Y-129750000D01*
X160909000Y-153884000D02*
X91409000Y-153884000D01*
X91409000Y-153884000D02*
X91409000Y-133884000D01*
X91409000Y-133884000D02*
X160909000Y-133884000D01*
X160909000Y-133884000D02*
X160909000Y-153884000D01*
X238409000Y-178018000D02*
X168909000Y-178018000D01*
X168909000Y-178018000D02*
X168909000Y-158018000D01*
X168909000Y-158018000D02*
X238409000Y-158018000D01*
X238409000Y-158018000D02*
X238409000Y-178018000D01*
X160909000Y-202153000D02*
X91409000Y-202153000D01*
X91409000Y-202153000D02*
X91409000Y-182153000D01*
X91409000Y-182153000D02*
X160909000Y-182153000D01*
X160909000Y-182153000D02*
X160909000Y-202153000D01*
X238409000Y-202153000D02*
X168909000Y-202153000D01*
X168909000Y-202153000D02*
X168909000Y-182153000D01*
X168909000Y-182153000D02*
X238409000Y-182153000D01*
X238409000Y-182153000D02*
X238409000Y-202153000D01*
X160909000Y-178018000D02*
X91409000Y-178018000D01*
X91409000Y-178018000D02*
X91409000Y-158018000D01*
X91409000Y-158018000D02*
X160909000Y-158018000D01*
X160909000Y-158018000D02*
X160909000Y-178018000D01*
X238409000Y-226287000D02*
X168909000Y-226287000D01*
X168909000Y-226287000D02*
X168909000Y-206287000D01*
X168909000Y-206287000D02*
X238409000Y-206287000D01*
X238409000Y-206287000D02*
X238409000Y-226287000D01*
X160909000Y-250421000D02*
X91409000Y-250421000D01*
X91409000Y-250421000D02*
X91409000Y-230421000D01*
X91409000Y-230421000D02*
X160909000Y-230421000D01*
X160909000Y-230421000D02*
X160909000Y-250421000D01*
X238409000Y-250421000D02*
X168909000Y-250421000D01*
X168909000Y-250421000D02*
X168909000Y-230421000D01*
X168909000Y-230421000D02*
X238409000Y-230421000D01*
X238409000Y-230421000D02*
X238409000Y-250421000D01*
X160909000Y-226287000D02*
X91409000Y-226287000D01*
X91409000Y-226287000D02*
X91409000Y-206287000D01*
X91409000Y-206287000D02*
X160909000Y-206287000D01*
X160909000Y-206287000D02*
X160909000Y-226287000D01*
X238409000Y-153884000D02*
X168909000Y-153884000D01*
X168909000Y-153884000D02*
X168909000Y-133884000D01*
X168909000Y-133884000D02*
X238409000Y-133884000D01*
X238409000Y-133884000D02*
X238409000Y-153884000D01*
%LPC*%
D11*
X148629000Y-119750000D03*
D12*
X148629000Y-119750000D03*
X103689000Y-119750000D03*
D11*
X103689000Y-119750000D03*
D12*
X226129000Y-119750000D03*
D11*
X226129000Y-119750000D03*
D12*
X181189000Y-119750000D03*
D11*
X181189000Y-119750000D03*
X148629000Y-143884000D03*
D12*
X148629000Y-143884000D03*
X103689000Y-143884000D03*
D11*
X103689000Y-143884000D03*
D12*
X226129000Y-168018000D03*
D11*
X226129000Y-168018000D03*
X181189000Y-168018000D03*
D12*
X181189000Y-168018000D03*
D13*
X161290000Y-274217500D03*
X161290000Y-264057500D03*
D14*
X171450000Y-274217500D03*
X171450000Y-264057500D03*
D15*
X234315000Y-278445000D03*
X200715000Y-278445000D03*
D16*
X234315000Y-271145000D03*
D17*
X230115000Y-271145000D03*
X225915000Y-271145000D03*
X221715000Y-271145000D03*
X217515000Y-271145000D03*
X213315000Y-271145000D03*
X209115000Y-271145000D03*
X204915000Y-271145000D03*
X200715000Y-271145000D03*
X234315000Y-265645000D03*
X230115000Y-265645000D03*
X225915000Y-265645000D03*
X221715000Y-265645000D03*
X217515000Y-265645000D03*
X213315000Y-265645000D03*
X209115000Y-265645000D03*
X204915000Y-265645000D03*
X200715000Y-265645000D03*
D18*
X189865000Y-272270000D03*
X189865000Y-277350000D03*
D11*
X148629000Y-192153000D03*
D12*
X148629000Y-192153000D03*
X103689000Y-192153000D03*
D11*
X103689000Y-192153000D03*
D12*
X226129000Y-192153000D03*
D11*
X226129000Y-192153000D03*
D12*
X181189000Y-192153000D03*
D11*
X181189000Y-192153000D03*
D12*
X148629000Y-168018000D03*
D11*
X148629000Y-168018000D03*
X103689000Y-168018000D03*
D12*
X103689000Y-168018000D03*
D11*
X226129000Y-216287000D03*
D12*
X226129000Y-216287000D03*
D11*
X181189000Y-216287000D03*
D12*
X181189000Y-216287000D03*
D19*
X237879000Y-257421000D03*
D11*
X148629000Y-240421000D03*
D12*
X148629000Y-240421000D03*
X103689000Y-240421000D03*
D11*
X103689000Y-240421000D03*
D18*
X143510000Y-272270000D03*
X143510000Y-277350000D03*
D12*
X226129000Y-240421000D03*
D11*
X226129000Y-240421000D03*
D12*
X181189000Y-240421000D03*
D11*
X181189000Y-240421000D03*
D19*
X91879000Y-257421000D03*
D12*
X148629000Y-216287000D03*
D11*
X148629000Y-216287000D03*
X103689000Y-216287000D03*
D12*
X103689000Y-216287000D03*
D11*
X226129000Y-143884000D03*
D12*
X226129000Y-143884000D03*
D11*
X181189000Y-143884000D03*
D12*
X181189000Y-143884000D03*
M02*
