G04 #@! TF.GenerationSoftware,KiCad,Pcbnew,(6.0.8-1)-1*
G04 #@! TF.CreationDate,2023-03-04T15:57:30-08:00*
G04 #@! TF.ProjectId,URBAN_CELL_BOARD,55524241-4e5f-4434-954c-4c5f424f4152,rev?*
G04 #@! TF.SameCoordinates,Original*
G04 #@! TF.FileFunction,Copper,L1,Top*
G04 #@! TF.FilePolarity,Positive*
%FSLAX46Y46*%
G04 Gerber Fmt 4.6, Leading zero omitted, Abs format (unit mm)*
G04 Created by KiCad (PCBNEW (6.0.8-1)-1) date 2023-03-04 15:57:30*
%MOMM*%
%LPD*%
G01*
G04 APERTURE LIST*
G04 Aperture macros list*
%AMRoundRect*
0 Rectangle with rounded corners*
0 $1 Rounding radius*
0 $2 $3 $4 $5 $6 $7 $8 $9 X,Y pos of 4 corners*
0 Add a 4 corners polygon primitive as box body*
4,1,4,$2,$3,$4,$5,$6,$7,$8,$9,$2,$3,0*
0 Add four circle primitives for the rounded corners*
1,1,$1+$1,$2,$3*
1,1,$1+$1,$4,$5*
1,1,$1+$1,$6,$7*
1,1,$1+$1,$8,$9*
0 Add four rect primitives between the rounded corners*
20,1,$1+$1,$2,$3,$4,$5,0*
20,1,$1+$1,$4,$5,$6,$7,0*
20,1,$1+$1,$6,$7,$8,$9,0*
20,1,$1+$1,$8,$9,$2,$3,0*%
G04 Aperture macros list end*
G04 #@! TA.AperFunction,ComponentPad*
%ADD10C,9.000000*%
G04 #@! TD*
G04 #@! TA.AperFunction,ComponentPad*
%ADD11R,6.000000X6.000000*%
G04 #@! TD*
G04 #@! TA.AperFunction,ComponentPad*
%ADD12C,6.000000*%
G04 #@! TD*
G04 #@! TA.AperFunction,ComponentPad*
%ADD13RoundRect,0.250001X1.099999X1.599999X-1.099999X1.599999X-1.099999X-1.599999X1.099999X-1.599999X0*%
G04 #@! TD*
G04 #@! TA.AperFunction,ComponentPad*
%ADD14O,2.700000X3.700000*%
G04 #@! TD*
G04 #@! TA.AperFunction,ComponentPad*
%ADD15C,1.650000*%
G04 #@! TD*
G04 #@! TA.AperFunction,ViaPad*
%ADD16C,0.800000*%
G04 #@! TD*
G04 #@! TA.AperFunction,Conductor*
%ADD17C,0.250000*%
G04 #@! TD*
G04 #@! TA.AperFunction,Conductor*
%ADD18C,16.000000*%
G04 #@! TD*
G04 #@! TA.AperFunction,Conductor*
%ADD19C,3.000000*%
G04 #@! TD*
G04 APERTURE END LIST*
D10*
X148629000Y-119750000D03*
X103689000Y-119750000D03*
X226129000Y-119750000D03*
X181189000Y-119750000D03*
X148629000Y-143884000D03*
X103689000Y-143884000D03*
X226129000Y-168018000D03*
X181189000Y-168018000D03*
D11*
X161290000Y-274217500D03*
X161290000Y-264057500D03*
D12*
X171450000Y-274217500D03*
X171450000Y-264057500D03*
D13*
X234315000Y-271145000D03*
D14*
X230115000Y-271145000D03*
X225915000Y-271145000D03*
X221715000Y-271145000D03*
X217515000Y-271145000D03*
X213315000Y-271145000D03*
X209115000Y-271145000D03*
X204915000Y-271145000D03*
X200715000Y-271145000D03*
X234315000Y-265645000D03*
X230115000Y-265645000D03*
X225915000Y-265645000D03*
X221715000Y-265645000D03*
X217515000Y-265645000D03*
X213315000Y-265645000D03*
X209115000Y-265645000D03*
X204915000Y-265645000D03*
X200715000Y-265645000D03*
D15*
X189865000Y-272270000D03*
X189865000Y-277350000D03*
D10*
X148629000Y-192153000D03*
X103689000Y-192153000D03*
X226129000Y-192153000D03*
X181189000Y-192153000D03*
X148629000Y-168018000D03*
X103689000Y-168018000D03*
X226129000Y-216287000D03*
X181189000Y-216287000D03*
X148629000Y-240421000D03*
X103689000Y-240421000D03*
D15*
X143510000Y-272270000D03*
X143510000Y-277350000D03*
D10*
X226129000Y-240421000D03*
X181189000Y-240421000D03*
X148629000Y-216287000D03*
X103689000Y-216287000D03*
X226129000Y-143884000D03*
X181189000Y-143884000D03*
D16*
X227330000Y-262255000D03*
X234295500Y-233045000D03*
X234295500Y-231935842D03*
X228480577Y-264082355D03*
X234295500Y-230505000D03*
D17*
X233260000Y-265645000D02*
X234315000Y-265645000D01*
X227965000Y-262890000D02*
X230505000Y-262890000D01*
X156601000Y-240421000D02*
X148629000Y-240421000D01*
X230505000Y-262890000D02*
X233260000Y-265645000D01*
X166370000Y-250190000D02*
X156601000Y-240421000D01*
X205710672Y-232096000D02*
X187616672Y-250190000D01*
X187616672Y-250190000D02*
X166370000Y-250190000D01*
X231092328Y-233045000D02*
X230143328Y-232096000D01*
X230143328Y-232096000D02*
X205710672Y-232096000D01*
D18*
X127823000Y-240421000D02*
X103689000Y-216287000D01*
D17*
X227330000Y-262255000D02*
X227965000Y-262890000D01*
X234295500Y-233045000D02*
X231092328Y-233045000D01*
D18*
X148629000Y-240421000D02*
X127823000Y-240421000D01*
X127325500Y-264057500D02*
X157480000Y-264057500D01*
X103689000Y-240421000D02*
X127325500Y-264057500D01*
X148629000Y-216287000D02*
X127823000Y-216287000D01*
D17*
X233636342Y-232595000D02*
X231278724Y-232595000D01*
X228480577Y-264082355D02*
X228440000Y-264122932D01*
X228440000Y-269470000D02*
X230115000Y-271145000D01*
X187430276Y-249740000D02*
X169730000Y-249740000D01*
X231278724Y-232595000D02*
X230329724Y-231646000D01*
X205524276Y-231646000D02*
X187430276Y-249740000D01*
D18*
X127823000Y-216287000D02*
X103689000Y-192153000D01*
D17*
X148629000Y-228639000D02*
X148629000Y-216287000D01*
X230329724Y-231646000D02*
X205524276Y-231646000D01*
X234295500Y-231935842D02*
X233636342Y-232595000D01*
X169730000Y-249740000D02*
X148629000Y-228639000D01*
X228440000Y-264122932D02*
X228440000Y-269470000D01*
D18*
X148629000Y-143884000D02*
X128573000Y-143884000D01*
D17*
X238655000Y-248391396D02*
X238655000Y-118663880D01*
D18*
X119979500Y-135290500D02*
X103689000Y-119000000D01*
X128573000Y-143884000D02*
X119979500Y-135290500D01*
D17*
X230481120Y-110490000D02*
X146115672Y-110490000D01*
X225915000Y-265645000D02*
X225915000Y-261131396D01*
X146115672Y-110490000D02*
X121315172Y-135290500D01*
X121315172Y-135290500D02*
X119979500Y-135290500D01*
X225915000Y-261131396D02*
X238655000Y-248391396D01*
X238655000Y-118663880D02*
X230481120Y-110490000D01*
X202440672Y-111425000D02*
X148629000Y-165236672D01*
D18*
X148629000Y-168018000D02*
X127823000Y-168018000D01*
D17*
X223520000Y-260986396D02*
X237755000Y-246751396D01*
X225915000Y-271145000D02*
X223520000Y-268750000D01*
X230143328Y-111425000D02*
X202440672Y-111425000D01*
D18*
X127823000Y-168018000D02*
X103689000Y-143884000D01*
D17*
X148629000Y-165236672D02*
X148629000Y-168018000D01*
X237755000Y-246751396D02*
X237755000Y-119036672D01*
X237755000Y-119036672D02*
X230143328Y-111425000D01*
X223520000Y-268750000D02*
X223520000Y-260986396D01*
D18*
X127824000Y-192153000D02*
X103689000Y-168018000D01*
D17*
X233660500Y-231140000D02*
X205393880Y-231140000D01*
X148629000Y-195619000D02*
X148629000Y-192153000D01*
X205393880Y-231140000D02*
X187243880Y-249290000D01*
X166370000Y-213360000D02*
X148629000Y-195619000D01*
X187243880Y-249290000D02*
X178805000Y-249290000D01*
X234295500Y-230505000D02*
X233660500Y-231140000D01*
X166370000Y-236855000D02*
X166370000Y-213360000D01*
D18*
X148629000Y-192153000D02*
X127824000Y-192153000D01*
D17*
X178805000Y-249290000D02*
X166370000Y-236855000D01*
X221715000Y-271145000D02*
X223890000Y-273320000D01*
X223890000Y-273320000D02*
X226608808Y-273320000D01*
X202254276Y-110975000D02*
X193479276Y-119750000D01*
X225423808Y-267785000D02*
X224605000Y-267785000D01*
X193479276Y-119750000D02*
X181755000Y-119750000D01*
X224605000Y-267785000D02*
X224155698Y-267335698D01*
D18*
X148629000Y-119750000D02*
X181755000Y-119750000D01*
D17*
X238205000Y-118850276D02*
X230329724Y-110975000D01*
X227590000Y-272338808D02*
X227590000Y-269951192D01*
X227590000Y-269951192D02*
X225423808Y-267785000D01*
X230329724Y-110975000D02*
X202254276Y-110975000D01*
X224155000Y-261620000D02*
X238205000Y-247570000D01*
X224155698Y-267335698D02*
X224155698Y-261620698D01*
X226608808Y-273320000D02*
X227590000Y-272338808D01*
X224155698Y-261620698D02*
X224155000Y-261620000D01*
X238205000Y-247570000D02*
X238205000Y-118850276D01*
X204915000Y-271145000D02*
X204915000Y-269845000D01*
X200715000Y-271145000D02*
X204915000Y-271145000D01*
X200715000Y-265645000D02*
X197270000Y-265645000D01*
D18*
X175260000Y-266700000D02*
X182880000Y-266700000D01*
D17*
X200715000Y-265645000D02*
X200715000Y-271145000D01*
X204915000Y-269845000D02*
X209115000Y-265645000D01*
X200715000Y-265645000D02*
X209115000Y-265645000D01*
X197270000Y-265645000D02*
X188595000Y-274320000D01*
D18*
X209159000Y-240421000D02*
X226695000Y-240421000D01*
D19*
X173397500Y-272270000D02*
X171450000Y-274217500D01*
D18*
X182880000Y-266700000D02*
X209159000Y-240421000D01*
D19*
X189865000Y-272270000D02*
X173397500Y-272270000D01*
D18*
X205889000Y-216287000D02*
X181755000Y-240421000D01*
X226695000Y-216287000D02*
X205889000Y-216287000D01*
D17*
X211290000Y-264801192D02*
X227345192Y-248746000D01*
X235020000Y-243869328D02*
X235020000Y-224612000D01*
X235020000Y-224612000D02*
X226695000Y-216287000D01*
X211290000Y-268970000D02*
X211290000Y-264801192D01*
X230143328Y-248746000D02*
X235020000Y-243869328D01*
X209115000Y-271145000D02*
X211290000Y-268970000D01*
X227345192Y-248746000D02*
X230143328Y-248746000D01*
X236855000Y-182245000D02*
X236855000Y-150495000D01*
X236855000Y-150495000D02*
X236855000Y-149225000D01*
X236855000Y-149860000D02*
X236855000Y-149225000D01*
X236855000Y-149225000D02*
X236855000Y-129910000D01*
X236855000Y-129910000D02*
X226695000Y-119750000D01*
X236855000Y-187325000D02*
X236855000Y-149860000D01*
X236855000Y-247015000D02*
X236855000Y-187325000D01*
X221715000Y-262155000D02*
X236855000Y-247015000D01*
X236820000Y-182245000D02*
X236855000Y-182245000D01*
D18*
X226695000Y-119750000D02*
X205889000Y-119750000D01*
D17*
X236855000Y-187325000D02*
X236820000Y-187290000D01*
D18*
X205889000Y-119750000D02*
X181755000Y-143884000D01*
D17*
X236820000Y-187290000D02*
X236820000Y-182245000D01*
X221715000Y-265645000D02*
X221715000Y-262155000D01*
X236855000Y-150495000D02*
X236855000Y-149860000D01*
X236370000Y-246790000D02*
X236370000Y-153559000D01*
D18*
X226695000Y-143884000D02*
X205889000Y-143884000D01*
D17*
X217515000Y-265645000D02*
X236370000Y-246790000D01*
X236370000Y-153559000D02*
X226695000Y-143884000D01*
D18*
X205889000Y-143884000D02*
X181755000Y-168018000D01*
D17*
X217515000Y-271145000D02*
X217515000Y-265645000D01*
D18*
X205890000Y-168018000D02*
X181755000Y-192153000D01*
D17*
X215490000Y-268970000D02*
X215490000Y-264672120D01*
X235920000Y-177243000D02*
X226695000Y-168018000D01*
X213315000Y-271145000D02*
X215490000Y-268970000D01*
X235920000Y-244242120D02*
X235920000Y-177243000D01*
X215490000Y-264672120D02*
X235920000Y-244242120D01*
D18*
X226695000Y-168018000D02*
X205890000Y-168018000D01*
X205889000Y-192153000D02*
X181755000Y-216287000D01*
D17*
X213880724Y-265645000D02*
X235470000Y-244055724D01*
X235470000Y-200928000D02*
X226695000Y-192153000D01*
X235470000Y-244055724D02*
X235470000Y-200928000D01*
D18*
X226695000Y-192153000D02*
X205889000Y-192153000D01*
D17*
X213315000Y-265645000D02*
X213880724Y-265645000D01*
G04 #@! TA.AperFunction,Conductor*
G36*
X192982121Y-255290002D02*
G01*
X193028614Y-255343658D01*
X193040000Y-255396000D01*
X193040000Y-280949500D01*
X193019998Y-281017621D01*
X192966342Y-281064114D01*
X192914000Y-281075500D01*
X166496000Y-281075500D01*
X166427879Y-281055498D01*
X166381386Y-281001842D01*
X166370000Y-280949500D01*
X166370000Y-277350000D01*
X188526406Y-277350000D01*
X188546742Y-277582444D01*
X188607133Y-277807826D01*
X188609455Y-277812806D01*
X188609456Y-277812808D01*
X188703418Y-278014310D01*
X188703421Y-278014315D01*
X188705744Y-278019297D01*
X188839578Y-278210432D01*
X189004568Y-278375422D01*
X189009076Y-278378579D01*
X189009079Y-278378581D01*
X189191194Y-278506099D01*
X189195703Y-278509256D01*
X189200685Y-278511579D01*
X189200690Y-278511582D01*
X189402192Y-278605544D01*
X189407174Y-278607867D01*
X189412482Y-278609289D01*
X189412484Y-278609290D01*
X189627241Y-278666834D01*
X189627243Y-278666834D01*
X189632556Y-278668258D01*
X189865000Y-278688594D01*
X190097444Y-278668258D01*
X190102757Y-278666834D01*
X190102759Y-278666834D01*
X190317516Y-278609290D01*
X190317518Y-278609289D01*
X190322826Y-278607867D01*
X190327808Y-278605544D01*
X190529310Y-278511582D01*
X190529315Y-278511579D01*
X190534297Y-278509256D01*
X190538806Y-278506099D01*
X190720921Y-278378581D01*
X190720924Y-278378579D01*
X190725432Y-278375422D01*
X190890422Y-278210432D01*
X191024256Y-278019297D01*
X191026579Y-278014315D01*
X191026582Y-278014310D01*
X191120544Y-277812808D01*
X191120545Y-277812806D01*
X191122867Y-277807826D01*
X191183258Y-277582444D01*
X191203594Y-277350000D01*
X191183258Y-277117556D01*
X191122867Y-276892174D01*
X191120544Y-276887192D01*
X191026582Y-276685690D01*
X191026579Y-276685685D01*
X191024256Y-276680703D01*
X190890422Y-276489568D01*
X190725432Y-276324578D01*
X190720924Y-276321421D01*
X190720921Y-276321419D01*
X190538806Y-276193901D01*
X190538804Y-276193900D01*
X190534297Y-276190744D01*
X190529315Y-276188421D01*
X190529310Y-276188418D01*
X190327808Y-276094456D01*
X190327806Y-276094455D01*
X190322826Y-276092133D01*
X190317518Y-276090711D01*
X190317516Y-276090710D01*
X190102759Y-276033166D01*
X190102757Y-276033166D01*
X190097444Y-276031742D01*
X189865000Y-276011406D01*
X189632556Y-276031742D01*
X189627243Y-276033166D01*
X189627241Y-276033166D01*
X189412484Y-276090710D01*
X189412482Y-276090711D01*
X189407174Y-276092133D01*
X189402194Y-276094455D01*
X189402192Y-276094456D01*
X189200690Y-276188418D01*
X189200685Y-276188421D01*
X189195703Y-276190744D01*
X189191196Y-276193900D01*
X189191194Y-276193901D01*
X189009079Y-276321419D01*
X189009076Y-276321421D01*
X189004568Y-276324578D01*
X188839578Y-276489568D01*
X188705744Y-276680703D01*
X188703421Y-276685685D01*
X188703418Y-276685690D01*
X188609456Y-276887192D01*
X188607133Y-276892174D01*
X188546742Y-277117556D01*
X188526406Y-277350000D01*
X166370000Y-277350000D01*
X166370000Y-255396000D01*
X166390002Y-255327879D01*
X166443658Y-255281386D01*
X166496000Y-255270000D01*
X192914000Y-255270000D01*
X192982121Y-255290002D01*
G37*
G04 #@! TD.AperFunction*
G04 #@! TA.AperFunction,Conductor*
G36*
X165677121Y-255290002D02*
G01*
X165723614Y-255343658D01*
X165735000Y-255396000D01*
X165735000Y-280949500D01*
X165714998Y-281017621D01*
X165661342Y-281064114D01*
X165609000Y-281075500D01*
X139826000Y-281075500D01*
X139757879Y-281055498D01*
X139711386Y-281001842D01*
X139700000Y-280949500D01*
X139700000Y-277350000D01*
X142171406Y-277350000D01*
X142191742Y-277582444D01*
X142252133Y-277807826D01*
X142254455Y-277812806D01*
X142254456Y-277812808D01*
X142348418Y-278014310D01*
X142348421Y-278014315D01*
X142350744Y-278019297D01*
X142484578Y-278210432D01*
X142649568Y-278375422D01*
X142654076Y-278378579D01*
X142654079Y-278378581D01*
X142836194Y-278506099D01*
X142840703Y-278509256D01*
X142845685Y-278511579D01*
X142845690Y-278511582D01*
X143047192Y-278605544D01*
X143052174Y-278607867D01*
X143057482Y-278609289D01*
X143057484Y-278609290D01*
X143272241Y-278666834D01*
X143272243Y-278666834D01*
X143277556Y-278668258D01*
X143510000Y-278688594D01*
X143742444Y-278668258D01*
X143747757Y-278666834D01*
X143747759Y-278666834D01*
X143962516Y-278609290D01*
X143962518Y-278609289D01*
X143967826Y-278607867D01*
X143972808Y-278605544D01*
X144174310Y-278511582D01*
X144174315Y-278511579D01*
X144179297Y-278509256D01*
X144183806Y-278506099D01*
X144365921Y-278378581D01*
X144365924Y-278378579D01*
X144370432Y-278375422D01*
X144535422Y-278210432D01*
X144669256Y-278019297D01*
X144671579Y-278014315D01*
X144671582Y-278014310D01*
X144765544Y-277812808D01*
X144765545Y-277812806D01*
X144767867Y-277807826D01*
X144828258Y-277582444D01*
X144848594Y-277350000D01*
X144828258Y-277117556D01*
X144767867Y-276892174D01*
X144765544Y-276887192D01*
X144671582Y-276685690D01*
X144671579Y-276685685D01*
X144669256Y-276680703D01*
X144535422Y-276489568D01*
X144370432Y-276324578D01*
X144365924Y-276321421D01*
X144365921Y-276321419D01*
X144183806Y-276193901D01*
X144183804Y-276193900D01*
X144179297Y-276190744D01*
X144174315Y-276188421D01*
X144174310Y-276188418D01*
X143972808Y-276094456D01*
X143972806Y-276094455D01*
X143967826Y-276092133D01*
X143962518Y-276090711D01*
X143962516Y-276090710D01*
X143747759Y-276033166D01*
X143747757Y-276033166D01*
X143742444Y-276031742D01*
X143510000Y-276011406D01*
X143277556Y-276031742D01*
X143272243Y-276033166D01*
X143272241Y-276033166D01*
X143057484Y-276090710D01*
X143057482Y-276090711D01*
X143052174Y-276092133D01*
X143047194Y-276094455D01*
X143047192Y-276094456D01*
X142845690Y-276188418D01*
X142845685Y-276188421D01*
X142840703Y-276190744D01*
X142836196Y-276193900D01*
X142836194Y-276193901D01*
X142654079Y-276321419D01*
X142654076Y-276321421D01*
X142649568Y-276324578D01*
X142484578Y-276489568D01*
X142350744Y-276680703D01*
X142348421Y-276685685D01*
X142348418Y-276685690D01*
X142254456Y-276887192D01*
X142252133Y-276892174D01*
X142191742Y-277117556D01*
X142171406Y-277350000D01*
X139700000Y-277350000D01*
X139700000Y-255396000D01*
X139720002Y-255327879D01*
X139773658Y-255281386D01*
X139826000Y-255270000D01*
X165609000Y-255270000D01*
X165677121Y-255290002D01*
G37*
G04 #@! TD.AperFunction*
M02*
