%TF.GenerationSoftware,KiCad,Pcbnew,8.0.5*%
%TF.CreationDate,2024-11-12T22:59:27-08:00*%
%TF.ProjectId,URBAN_CELL_BOARD,55524241-4e5f-4434-954c-4c5f424f4152,rev?*%
%TF.SameCoordinates,Original*%
%TF.FileFunction,Drillmap*%
%TF.FilePolarity,Positive*%
%FSLAX45Y45*%
G04 Gerber Fmt 4.5, Leading zero omitted, Abs format (unit mm)*
G04 Created by KiCad (PCBNEW 8.0.5) date 2024-11-12 22:59:27*
%MOMM*%
%LPD*%
G01*
G04 APERTURE LIST*
%ADD10C,0.100000*%
%ADD11C,0.200000*%
%ADD12C,0.300000*%
%ADD13C,0.750000*%
G04 APERTURE END LIST*
D10*
X8387900Y-28158400D02*
X8387900Y-11612100D01*
X10000000Y-10000000D02*
X24587900Y-10000000D01*
X8387900Y-11612100D02*
X10000000Y-10000000D01*
X24587900Y-28158400D02*
X8387900Y-28158400D01*
X24587900Y-10000000D02*
X24587900Y-28158400D01*
D11*
D12*
X19921500Y-27694500D02*
X20221500Y-27994500D01*
X20221500Y-27694500D02*
X19921500Y-27994500D01*
X23281500Y-27694500D02*
X23581500Y-27994500D01*
X23581500Y-27694500D02*
X23281500Y-27994500D01*
D13*
X9562900Y-25742100D02*
G75*
G02*
X8812900Y-25742100I-375000J0D01*
G01*
X8812900Y-25742100D02*
G75*
G02*
X9562900Y-25742100I375000J0D01*
G01*
X24162900Y-25742100D02*
G75*
G02*
X23412900Y-25742100I-375000J0D01*
G01*
X23412900Y-25742100D02*
G75*
G02*
X24162900Y-25742100I375000J0D01*
G01*
D11*
X8643677Y-28474884D02*
X8643677Y-28274884D01*
X8643677Y-28274884D02*
X8691296Y-28274884D01*
X8691296Y-28274884D02*
X8719867Y-28284408D01*
X8719867Y-28284408D02*
X8738915Y-28303455D01*
X8738915Y-28303455D02*
X8748439Y-28322503D01*
X8748439Y-28322503D02*
X8757963Y-28360598D01*
X8757963Y-28360598D02*
X8757963Y-28389169D01*
X8757963Y-28389169D02*
X8748439Y-28427265D01*
X8748439Y-28427265D02*
X8738915Y-28446312D01*
X8738915Y-28446312D02*
X8719867Y-28465360D01*
X8719867Y-28465360D02*
X8691296Y-28474884D01*
X8691296Y-28474884D02*
X8643677Y-28474884D01*
X8843677Y-28474884D02*
X8843677Y-28341550D01*
X8843677Y-28379646D02*
X8853201Y-28360598D01*
X8853201Y-28360598D02*
X8862724Y-28351074D01*
X8862724Y-28351074D02*
X8881772Y-28341550D01*
X8881772Y-28341550D02*
X8900820Y-28341550D01*
X8967486Y-28474884D02*
X8967486Y-28341550D01*
X8967486Y-28274884D02*
X8957963Y-28284408D01*
X8957963Y-28284408D02*
X8967486Y-28293931D01*
X8967486Y-28293931D02*
X8977010Y-28284408D01*
X8977010Y-28284408D02*
X8967486Y-28274884D01*
X8967486Y-28274884D02*
X8967486Y-28293931D01*
X9091296Y-28474884D02*
X9072248Y-28465360D01*
X9072248Y-28465360D02*
X9062724Y-28446312D01*
X9062724Y-28446312D02*
X9062724Y-28274884D01*
X9196058Y-28474884D02*
X9177010Y-28465360D01*
X9177010Y-28465360D02*
X9167486Y-28446312D01*
X9167486Y-28446312D02*
X9167486Y-28274884D01*
X9424629Y-28474884D02*
X9424629Y-28274884D01*
X9424629Y-28274884D02*
X9491296Y-28417741D01*
X9491296Y-28417741D02*
X9557963Y-28274884D01*
X9557963Y-28274884D02*
X9557963Y-28474884D01*
X9738915Y-28474884D02*
X9738915Y-28370122D01*
X9738915Y-28370122D02*
X9729391Y-28351074D01*
X9729391Y-28351074D02*
X9710344Y-28341550D01*
X9710344Y-28341550D02*
X9672248Y-28341550D01*
X9672248Y-28341550D02*
X9653201Y-28351074D01*
X9738915Y-28465360D02*
X9719867Y-28474884D01*
X9719867Y-28474884D02*
X9672248Y-28474884D01*
X9672248Y-28474884D02*
X9653201Y-28465360D01*
X9653201Y-28465360D02*
X9643677Y-28446312D01*
X9643677Y-28446312D02*
X9643677Y-28427265D01*
X9643677Y-28427265D02*
X9653201Y-28408217D01*
X9653201Y-28408217D02*
X9672248Y-28398693D01*
X9672248Y-28398693D02*
X9719867Y-28398693D01*
X9719867Y-28398693D02*
X9738915Y-28389169D01*
X9834153Y-28341550D02*
X9834153Y-28541550D01*
X9834153Y-28351074D02*
X9853201Y-28341550D01*
X9853201Y-28341550D02*
X9891296Y-28341550D01*
X9891296Y-28341550D02*
X9910344Y-28351074D01*
X9910344Y-28351074D02*
X9919867Y-28360598D01*
X9919867Y-28360598D02*
X9929391Y-28379646D01*
X9929391Y-28379646D02*
X9929391Y-28436788D01*
X9929391Y-28436788D02*
X9919867Y-28455836D01*
X9919867Y-28455836D02*
X9910344Y-28465360D01*
X9910344Y-28465360D02*
X9891296Y-28474884D01*
X9891296Y-28474884D02*
X9853201Y-28474884D01*
X9853201Y-28474884D02*
X9834153Y-28465360D01*
X10015105Y-28455836D02*
X10024629Y-28465360D01*
X10024629Y-28465360D02*
X10015105Y-28474884D01*
X10015105Y-28474884D02*
X10005582Y-28465360D01*
X10005582Y-28465360D02*
X10015105Y-28455836D01*
X10015105Y-28455836D02*
X10015105Y-28474884D01*
X10015105Y-28351074D02*
X10024629Y-28360598D01*
X10024629Y-28360598D02*
X10015105Y-28370122D01*
X10015105Y-28370122D02*
X10005582Y-28360598D01*
X10005582Y-28360598D02*
X10015105Y-28351074D01*
X10015105Y-28351074D02*
X10015105Y-28370122D01*
X8182900Y-28703400D02*
X8382900Y-28903400D01*
X8382900Y-28703400D02*
X8182900Y-28903400D01*
X8624629Y-28694884D02*
X8748439Y-28694884D01*
X8748439Y-28694884D02*
X8681772Y-28771074D01*
X8681772Y-28771074D02*
X8710344Y-28771074D01*
X8710344Y-28771074D02*
X8729391Y-28780598D01*
X8729391Y-28780598D02*
X8738915Y-28790122D01*
X8738915Y-28790122D02*
X8748439Y-28809169D01*
X8748439Y-28809169D02*
X8748439Y-28856788D01*
X8748439Y-28856788D02*
X8738915Y-28875836D01*
X8738915Y-28875836D02*
X8729391Y-28885360D01*
X8729391Y-28885360D02*
X8710344Y-28894884D01*
X8710344Y-28894884D02*
X8653201Y-28894884D01*
X8653201Y-28894884D02*
X8634153Y-28885360D01*
X8634153Y-28885360D02*
X8624629Y-28875836D01*
X8834153Y-28875836D02*
X8843677Y-28885360D01*
X8843677Y-28885360D02*
X8834153Y-28894884D01*
X8834153Y-28894884D02*
X8824629Y-28885360D01*
X8824629Y-28885360D02*
X8834153Y-28875836D01*
X8834153Y-28875836D02*
X8834153Y-28894884D01*
X8967486Y-28694884D02*
X8986534Y-28694884D01*
X8986534Y-28694884D02*
X9005582Y-28704408D01*
X9005582Y-28704408D02*
X9015105Y-28713931D01*
X9015105Y-28713931D02*
X9024629Y-28732979D01*
X9024629Y-28732979D02*
X9034153Y-28771074D01*
X9034153Y-28771074D02*
X9034153Y-28818693D01*
X9034153Y-28818693D02*
X9024629Y-28856788D01*
X9024629Y-28856788D02*
X9015105Y-28875836D01*
X9015105Y-28875836D02*
X9005582Y-28885360D01*
X9005582Y-28885360D02*
X8986534Y-28894884D01*
X8986534Y-28894884D02*
X8967486Y-28894884D01*
X8967486Y-28894884D02*
X8948439Y-28885360D01*
X8948439Y-28885360D02*
X8938915Y-28875836D01*
X8938915Y-28875836D02*
X8929391Y-28856788D01*
X8929391Y-28856788D02*
X8919867Y-28818693D01*
X8919867Y-28818693D02*
X8919867Y-28771074D01*
X8919867Y-28771074D02*
X8929391Y-28732979D01*
X8929391Y-28732979D02*
X8938915Y-28713931D01*
X8938915Y-28713931D02*
X8948439Y-28704408D01*
X8948439Y-28704408D02*
X8967486Y-28694884D01*
X9157963Y-28694884D02*
X9177010Y-28694884D01*
X9177010Y-28694884D02*
X9196058Y-28704408D01*
X9196058Y-28704408D02*
X9205582Y-28713931D01*
X9205582Y-28713931D02*
X9215105Y-28732979D01*
X9215105Y-28732979D02*
X9224629Y-28771074D01*
X9224629Y-28771074D02*
X9224629Y-28818693D01*
X9224629Y-28818693D02*
X9215105Y-28856788D01*
X9215105Y-28856788D02*
X9205582Y-28875836D01*
X9205582Y-28875836D02*
X9196058Y-28885360D01*
X9196058Y-28885360D02*
X9177010Y-28894884D01*
X9177010Y-28894884D02*
X9157963Y-28894884D01*
X9157963Y-28894884D02*
X9138915Y-28885360D01*
X9138915Y-28885360D02*
X9129391Y-28875836D01*
X9129391Y-28875836D02*
X9119867Y-28856788D01*
X9119867Y-28856788D02*
X9110344Y-28818693D01*
X9110344Y-28818693D02*
X9110344Y-28771074D01*
X9110344Y-28771074D02*
X9119867Y-28732979D01*
X9119867Y-28732979D02*
X9129391Y-28713931D01*
X9129391Y-28713931D02*
X9138915Y-28704408D01*
X9138915Y-28704408D02*
X9157963Y-28694884D01*
X9348439Y-28694884D02*
X9367486Y-28694884D01*
X9367486Y-28694884D02*
X9386534Y-28704408D01*
X9386534Y-28704408D02*
X9396058Y-28713931D01*
X9396058Y-28713931D02*
X9405582Y-28732979D01*
X9405582Y-28732979D02*
X9415105Y-28771074D01*
X9415105Y-28771074D02*
X9415105Y-28818693D01*
X9415105Y-28818693D02*
X9405582Y-28856788D01*
X9405582Y-28856788D02*
X9396058Y-28875836D01*
X9396058Y-28875836D02*
X9386534Y-28885360D01*
X9386534Y-28885360D02*
X9367486Y-28894884D01*
X9367486Y-28894884D02*
X9348439Y-28894884D01*
X9348439Y-28894884D02*
X9329391Y-28885360D01*
X9329391Y-28885360D02*
X9319867Y-28875836D01*
X9319867Y-28875836D02*
X9310344Y-28856788D01*
X9310344Y-28856788D02*
X9300820Y-28818693D01*
X9300820Y-28818693D02*
X9300820Y-28771074D01*
X9300820Y-28771074D02*
X9310344Y-28732979D01*
X9310344Y-28732979D02*
X9319867Y-28713931D01*
X9319867Y-28713931D02*
X9329391Y-28704408D01*
X9329391Y-28704408D02*
X9348439Y-28694884D01*
X9500820Y-28894884D02*
X9500820Y-28761550D01*
X9500820Y-28780598D02*
X9510344Y-28771074D01*
X9510344Y-28771074D02*
X9529391Y-28761550D01*
X9529391Y-28761550D02*
X9557963Y-28761550D01*
X9557963Y-28761550D02*
X9577010Y-28771074D01*
X9577010Y-28771074D02*
X9586534Y-28790122D01*
X9586534Y-28790122D02*
X9586534Y-28894884D01*
X9586534Y-28790122D02*
X9596058Y-28771074D01*
X9596058Y-28771074D02*
X9615105Y-28761550D01*
X9615105Y-28761550D02*
X9643677Y-28761550D01*
X9643677Y-28761550D02*
X9662725Y-28771074D01*
X9662725Y-28771074D02*
X9672248Y-28790122D01*
X9672248Y-28790122D02*
X9672248Y-28894884D01*
X9767486Y-28894884D02*
X9767486Y-28761550D01*
X9767486Y-28780598D02*
X9777010Y-28771074D01*
X9777010Y-28771074D02*
X9796058Y-28761550D01*
X9796058Y-28761550D02*
X9824629Y-28761550D01*
X9824629Y-28761550D02*
X9843677Y-28771074D01*
X9843677Y-28771074D02*
X9853201Y-28790122D01*
X9853201Y-28790122D02*
X9853201Y-28894884D01*
X9853201Y-28790122D02*
X9862725Y-28771074D01*
X9862725Y-28771074D02*
X9881772Y-28761550D01*
X9881772Y-28761550D02*
X9910344Y-28761550D01*
X9910344Y-28761550D02*
X9929391Y-28771074D01*
X9929391Y-28771074D02*
X9938915Y-28790122D01*
X9938915Y-28790122D02*
X9938915Y-28894884D01*
X10329391Y-28685360D02*
X10157963Y-28942503D01*
X10586534Y-28694884D02*
X10605582Y-28694884D01*
X10605582Y-28694884D02*
X10624629Y-28704408D01*
X10624629Y-28704408D02*
X10634153Y-28713931D01*
X10634153Y-28713931D02*
X10643677Y-28732979D01*
X10643677Y-28732979D02*
X10653201Y-28771074D01*
X10653201Y-28771074D02*
X10653201Y-28818693D01*
X10653201Y-28818693D02*
X10643677Y-28856788D01*
X10643677Y-28856788D02*
X10634153Y-28875836D01*
X10634153Y-28875836D02*
X10624629Y-28885360D01*
X10624629Y-28885360D02*
X10605582Y-28894884D01*
X10605582Y-28894884D02*
X10586534Y-28894884D01*
X10586534Y-28894884D02*
X10567487Y-28885360D01*
X10567487Y-28885360D02*
X10557963Y-28875836D01*
X10557963Y-28875836D02*
X10548439Y-28856788D01*
X10548439Y-28856788D02*
X10538915Y-28818693D01*
X10538915Y-28818693D02*
X10538915Y-28771074D01*
X10538915Y-28771074D02*
X10548439Y-28732979D01*
X10548439Y-28732979D02*
X10557963Y-28713931D01*
X10557963Y-28713931D02*
X10567487Y-28704408D01*
X10567487Y-28704408D02*
X10586534Y-28694884D01*
X10738915Y-28875836D02*
X10748439Y-28885360D01*
X10748439Y-28885360D02*
X10738915Y-28894884D01*
X10738915Y-28894884D02*
X10729391Y-28885360D01*
X10729391Y-28885360D02*
X10738915Y-28875836D01*
X10738915Y-28875836D02*
X10738915Y-28894884D01*
X10938915Y-28894884D02*
X10824629Y-28894884D01*
X10881772Y-28894884D02*
X10881772Y-28694884D01*
X10881772Y-28694884D02*
X10862725Y-28723455D01*
X10862725Y-28723455D02*
X10843677Y-28742503D01*
X10843677Y-28742503D02*
X10824629Y-28752027D01*
X11129391Y-28894884D02*
X11015106Y-28894884D01*
X11072248Y-28894884D02*
X11072248Y-28694884D01*
X11072248Y-28694884D02*
X11053201Y-28723455D01*
X11053201Y-28723455D02*
X11034153Y-28742503D01*
X11034153Y-28742503D02*
X11015106Y-28752027D01*
X11243677Y-28780598D02*
X11224629Y-28771074D01*
X11224629Y-28771074D02*
X11215106Y-28761550D01*
X11215106Y-28761550D02*
X11205582Y-28742503D01*
X11205582Y-28742503D02*
X11205582Y-28732979D01*
X11205582Y-28732979D02*
X11215106Y-28713931D01*
X11215106Y-28713931D02*
X11224629Y-28704408D01*
X11224629Y-28704408D02*
X11243677Y-28694884D01*
X11243677Y-28694884D02*
X11281772Y-28694884D01*
X11281772Y-28694884D02*
X11300820Y-28704408D01*
X11300820Y-28704408D02*
X11310344Y-28713931D01*
X11310344Y-28713931D02*
X11319867Y-28732979D01*
X11319867Y-28732979D02*
X11319867Y-28742503D01*
X11319867Y-28742503D02*
X11310344Y-28761550D01*
X11310344Y-28761550D02*
X11300820Y-28771074D01*
X11300820Y-28771074D02*
X11281772Y-28780598D01*
X11281772Y-28780598D02*
X11243677Y-28780598D01*
X11243677Y-28780598D02*
X11224629Y-28790122D01*
X11224629Y-28790122D02*
X11215106Y-28799646D01*
X11215106Y-28799646D02*
X11205582Y-28818693D01*
X11205582Y-28818693D02*
X11205582Y-28856788D01*
X11205582Y-28856788D02*
X11215106Y-28875836D01*
X11215106Y-28875836D02*
X11224629Y-28885360D01*
X11224629Y-28885360D02*
X11243677Y-28894884D01*
X11243677Y-28894884D02*
X11281772Y-28894884D01*
X11281772Y-28894884D02*
X11300820Y-28885360D01*
X11300820Y-28885360D02*
X11310344Y-28875836D01*
X11310344Y-28875836D02*
X11319867Y-28856788D01*
X11319867Y-28856788D02*
X11319867Y-28818693D01*
X11319867Y-28818693D02*
X11310344Y-28799646D01*
X11310344Y-28799646D02*
X11300820Y-28790122D01*
X11300820Y-28790122D02*
X11281772Y-28780598D01*
X11510344Y-28894884D02*
X11396058Y-28894884D01*
X11453201Y-28894884D02*
X11453201Y-28694884D01*
X11453201Y-28694884D02*
X11434153Y-28723455D01*
X11434153Y-28723455D02*
X11415106Y-28742503D01*
X11415106Y-28742503D02*
X11396058Y-28752027D01*
X11586534Y-28694884D02*
X11586534Y-28732979D01*
X11662725Y-28694884D02*
X11662725Y-28732979D01*
X11957963Y-28971074D02*
X11948439Y-28961550D01*
X11948439Y-28961550D02*
X11929391Y-28932979D01*
X11929391Y-28932979D02*
X11919868Y-28913931D01*
X11919868Y-28913931D02*
X11910344Y-28885360D01*
X11910344Y-28885360D02*
X11900820Y-28837741D01*
X11900820Y-28837741D02*
X11900820Y-28799646D01*
X11900820Y-28799646D02*
X11910344Y-28752027D01*
X11910344Y-28752027D02*
X11919868Y-28723455D01*
X11919868Y-28723455D02*
X11929391Y-28704408D01*
X11929391Y-28704408D02*
X11948439Y-28675836D01*
X11948439Y-28675836D02*
X11957963Y-28666312D01*
X12024629Y-28713931D02*
X12034153Y-28704408D01*
X12034153Y-28704408D02*
X12053201Y-28694884D01*
X12053201Y-28694884D02*
X12100820Y-28694884D01*
X12100820Y-28694884D02*
X12119868Y-28704408D01*
X12119868Y-28704408D02*
X12129391Y-28713931D01*
X12129391Y-28713931D02*
X12138915Y-28732979D01*
X12138915Y-28732979D02*
X12138915Y-28752027D01*
X12138915Y-28752027D02*
X12129391Y-28780598D01*
X12129391Y-28780598D02*
X12015106Y-28894884D01*
X12015106Y-28894884D02*
X12138915Y-28894884D01*
X12377010Y-28894884D02*
X12377010Y-28694884D01*
X12462725Y-28894884D02*
X12462725Y-28790122D01*
X12462725Y-28790122D02*
X12453201Y-28771074D01*
X12453201Y-28771074D02*
X12434153Y-28761550D01*
X12434153Y-28761550D02*
X12405582Y-28761550D01*
X12405582Y-28761550D02*
X12386534Y-28771074D01*
X12386534Y-28771074D02*
X12377010Y-28780598D01*
X12586534Y-28894884D02*
X12567487Y-28885360D01*
X12567487Y-28885360D02*
X12557963Y-28875836D01*
X12557963Y-28875836D02*
X12548439Y-28856788D01*
X12548439Y-28856788D02*
X12548439Y-28799646D01*
X12548439Y-28799646D02*
X12557963Y-28780598D01*
X12557963Y-28780598D02*
X12567487Y-28771074D01*
X12567487Y-28771074D02*
X12586534Y-28761550D01*
X12586534Y-28761550D02*
X12615106Y-28761550D01*
X12615106Y-28761550D02*
X12634153Y-28771074D01*
X12634153Y-28771074D02*
X12643677Y-28780598D01*
X12643677Y-28780598D02*
X12653201Y-28799646D01*
X12653201Y-28799646D02*
X12653201Y-28856788D01*
X12653201Y-28856788D02*
X12643677Y-28875836D01*
X12643677Y-28875836D02*
X12634153Y-28885360D01*
X12634153Y-28885360D02*
X12615106Y-28894884D01*
X12615106Y-28894884D02*
X12586534Y-28894884D01*
X12767487Y-28894884D02*
X12748439Y-28885360D01*
X12748439Y-28885360D02*
X12738915Y-28866312D01*
X12738915Y-28866312D02*
X12738915Y-28694884D01*
X12919868Y-28885360D02*
X12900820Y-28894884D01*
X12900820Y-28894884D02*
X12862725Y-28894884D01*
X12862725Y-28894884D02*
X12843677Y-28885360D01*
X12843677Y-28885360D02*
X12834153Y-28866312D01*
X12834153Y-28866312D02*
X12834153Y-28790122D01*
X12834153Y-28790122D02*
X12843677Y-28771074D01*
X12843677Y-28771074D02*
X12862725Y-28761550D01*
X12862725Y-28761550D02*
X12900820Y-28761550D01*
X12900820Y-28761550D02*
X12919868Y-28771074D01*
X12919868Y-28771074D02*
X12929391Y-28790122D01*
X12929391Y-28790122D02*
X12929391Y-28809169D01*
X12929391Y-28809169D02*
X12834153Y-28828217D01*
X13005582Y-28885360D02*
X13024630Y-28894884D01*
X13024630Y-28894884D02*
X13062725Y-28894884D01*
X13062725Y-28894884D02*
X13081772Y-28885360D01*
X13081772Y-28885360D02*
X13091296Y-28866312D01*
X13091296Y-28866312D02*
X13091296Y-28856788D01*
X13091296Y-28856788D02*
X13081772Y-28837741D01*
X13081772Y-28837741D02*
X13062725Y-28828217D01*
X13062725Y-28828217D02*
X13034153Y-28828217D01*
X13034153Y-28828217D02*
X13015106Y-28818693D01*
X13015106Y-28818693D02*
X13005582Y-28799646D01*
X13005582Y-28799646D02*
X13005582Y-28790122D01*
X13005582Y-28790122D02*
X13015106Y-28771074D01*
X13015106Y-28771074D02*
X13034153Y-28761550D01*
X13034153Y-28761550D02*
X13062725Y-28761550D01*
X13062725Y-28761550D02*
X13081772Y-28771074D01*
X13157963Y-28971074D02*
X13167487Y-28961550D01*
X13167487Y-28961550D02*
X13186534Y-28932979D01*
X13186534Y-28932979D02*
X13196058Y-28913931D01*
X13196058Y-28913931D02*
X13205582Y-28885360D01*
X13205582Y-28885360D02*
X13215106Y-28837741D01*
X13215106Y-28837741D02*
X13215106Y-28799646D01*
X13215106Y-28799646D02*
X13205582Y-28752027D01*
X13205582Y-28752027D02*
X13196058Y-28723455D01*
X13196058Y-28723455D02*
X13186534Y-28704408D01*
X13186534Y-28704408D02*
X13167487Y-28675836D01*
X13167487Y-28675836D02*
X13157963Y-28666312D01*
X13519868Y-28971074D02*
X13510344Y-28961550D01*
X13510344Y-28961550D02*
X13491296Y-28932979D01*
X13491296Y-28932979D02*
X13481772Y-28913931D01*
X13481772Y-28913931D02*
X13472249Y-28885360D01*
X13472249Y-28885360D02*
X13462725Y-28837741D01*
X13462725Y-28837741D02*
X13462725Y-28799646D01*
X13462725Y-28799646D02*
X13472249Y-28752027D01*
X13472249Y-28752027D02*
X13481772Y-28723455D01*
X13481772Y-28723455D02*
X13491296Y-28704408D01*
X13491296Y-28704408D02*
X13510344Y-28675836D01*
X13510344Y-28675836D02*
X13519868Y-28666312D01*
X13596058Y-28761550D02*
X13596058Y-28894884D01*
X13596058Y-28780598D02*
X13605582Y-28771074D01*
X13605582Y-28771074D02*
X13624630Y-28761550D01*
X13624630Y-28761550D02*
X13653201Y-28761550D01*
X13653201Y-28761550D02*
X13672249Y-28771074D01*
X13672249Y-28771074D02*
X13681772Y-28790122D01*
X13681772Y-28790122D02*
X13681772Y-28894884D01*
X13805582Y-28894884D02*
X13786534Y-28885360D01*
X13786534Y-28885360D02*
X13777011Y-28875836D01*
X13777011Y-28875836D02*
X13767487Y-28856788D01*
X13767487Y-28856788D02*
X13767487Y-28799646D01*
X13767487Y-28799646D02*
X13777011Y-28780598D01*
X13777011Y-28780598D02*
X13786534Y-28771074D01*
X13786534Y-28771074D02*
X13805582Y-28761550D01*
X13805582Y-28761550D02*
X13834153Y-28761550D01*
X13834153Y-28761550D02*
X13853201Y-28771074D01*
X13853201Y-28771074D02*
X13862725Y-28780598D01*
X13862725Y-28780598D02*
X13872249Y-28799646D01*
X13872249Y-28799646D02*
X13872249Y-28856788D01*
X13872249Y-28856788D02*
X13862725Y-28875836D01*
X13862725Y-28875836D02*
X13853201Y-28885360D01*
X13853201Y-28885360D02*
X13834153Y-28894884D01*
X13834153Y-28894884D02*
X13805582Y-28894884D01*
X13929392Y-28761550D02*
X14005582Y-28761550D01*
X13957963Y-28694884D02*
X13957963Y-28866312D01*
X13957963Y-28866312D02*
X13967487Y-28885360D01*
X13967487Y-28885360D02*
X13986534Y-28894884D01*
X13986534Y-28894884D02*
X14005582Y-28894884D01*
X14224630Y-28761550D02*
X14224630Y-28961550D01*
X14224630Y-28771074D02*
X14243677Y-28761550D01*
X14243677Y-28761550D02*
X14281773Y-28761550D01*
X14281773Y-28761550D02*
X14300820Y-28771074D01*
X14300820Y-28771074D02*
X14310344Y-28780598D01*
X14310344Y-28780598D02*
X14319868Y-28799646D01*
X14319868Y-28799646D02*
X14319868Y-28856788D01*
X14319868Y-28856788D02*
X14310344Y-28875836D01*
X14310344Y-28875836D02*
X14300820Y-28885360D01*
X14300820Y-28885360D02*
X14281773Y-28894884D01*
X14281773Y-28894884D02*
X14243677Y-28894884D01*
X14243677Y-28894884D02*
X14224630Y-28885360D01*
X14434153Y-28894884D02*
X14415106Y-28885360D01*
X14415106Y-28885360D02*
X14405582Y-28866312D01*
X14405582Y-28866312D02*
X14405582Y-28694884D01*
X14596058Y-28894884D02*
X14596058Y-28790122D01*
X14596058Y-28790122D02*
X14586534Y-28771074D01*
X14586534Y-28771074D02*
X14567487Y-28761550D01*
X14567487Y-28761550D02*
X14529392Y-28761550D01*
X14529392Y-28761550D02*
X14510344Y-28771074D01*
X14596058Y-28885360D02*
X14577011Y-28894884D01*
X14577011Y-28894884D02*
X14529392Y-28894884D01*
X14529392Y-28894884D02*
X14510344Y-28885360D01*
X14510344Y-28885360D02*
X14500820Y-28866312D01*
X14500820Y-28866312D02*
X14500820Y-28847265D01*
X14500820Y-28847265D02*
X14510344Y-28828217D01*
X14510344Y-28828217D02*
X14529392Y-28818693D01*
X14529392Y-28818693D02*
X14577011Y-28818693D01*
X14577011Y-28818693D02*
X14596058Y-28809169D01*
X14662725Y-28761550D02*
X14738915Y-28761550D01*
X14691296Y-28694884D02*
X14691296Y-28866312D01*
X14691296Y-28866312D02*
X14700820Y-28885360D01*
X14700820Y-28885360D02*
X14719868Y-28894884D01*
X14719868Y-28894884D02*
X14738915Y-28894884D01*
X14881773Y-28885360D02*
X14862725Y-28894884D01*
X14862725Y-28894884D02*
X14824630Y-28894884D01*
X14824630Y-28894884D02*
X14805582Y-28885360D01*
X14805582Y-28885360D02*
X14796058Y-28866312D01*
X14796058Y-28866312D02*
X14796058Y-28790122D01*
X14796058Y-28790122D02*
X14805582Y-28771074D01*
X14805582Y-28771074D02*
X14824630Y-28761550D01*
X14824630Y-28761550D02*
X14862725Y-28761550D01*
X14862725Y-28761550D02*
X14881773Y-28771074D01*
X14881773Y-28771074D02*
X14891296Y-28790122D01*
X14891296Y-28790122D02*
X14891296Y-28809169D01*
X14891296Y-28809169D02*
X14796058Y-28828217D01*
X15062725Y-28894884D02*
X15062725Y-28694884D01*
X15062725Y-28885360D02*
X15043677Y-28894884D01*
X15043677Y-28894884D02*
X15005582Y-28894884D01*
X15005582Y-28894884D02*
X14986534Y-28885360D01*
X14986534Y-28885360D02*
X14977011Y-28875836D01*
X14977011Y-28875836D02*
X14967487Y-28856788D01*
X14967487Y-28856788D02*
X14967487Y-28799646D01*
X14967487Y-28799646D02*
X14977011Y-28780598D01*
X14977011Y-28780598D02*
X14986534Y-28771074D01*
X14986534Y-28771074D02*
X15005582Y-28761550D01*
X15005582Y-28761550D02*
X15043677Y-28761550D01*
X15043677Y-28761550D02*
X15062725Y-28771074D01*
X15138915Y-28971074D02*
X15148439Y-28961550D01*
X15148439Y-28961550D02*
X15167487Y-28932979D01*
X15167487Y-28932979D02*
X15177011Y-28913931D01*
X15177011Y-28913931D02*
X15186534Y-28885360D01*
X15186534Y-28885360D02*
X15196058Y-28837741D01*
X15196058Y-28837741D02*
X15196058Y-28799646D01*
X15196058Y-28799646D02*
X15186534Y-28752027D01*
X15186534Y-28752027D02*
X15177011Y-28723455D01*
X15177011Y-28723455D02*
X15167487Y-28704408D01*
X15167487Y-28704408D02*
X15148439Y-28675836D01*
X15148439Y-28675836D02*
X15138915Y-28666312D01*
X8382900Y-29123400D02*
G75*
G02*
X8182900Y-29123400I-100000J0D01*
G01*
X8182900Y-29123400D02*
G75*
G02*
X8382900Y-29123400I100000J0D01*
G01*
X8624629Y-29014884D02*
X8757963Y-29014884D01*
X8757963Y-29014884D02*
X8672248Y-29214884D01*
X8834153Y-29195836D02*
X8843677Y-29205360D01*
X8843677Y-29205360D02*
X8834153Y-29214884D01*
X8834153Y-29214884D02*
X8824629Y-29205360D01*
X8824629Y-29205360D02*
X8834153Y-29195836D01*
X8834153Y-29195836D02*
X8834153Y-29214884D01*
X9024629Y-29014884D02*
X8929391Y-29014884D01*
X8929391Y-29014884D02*
X8919867Y-29110122D01*
X8919867Y-29110122D02*
X8929391Y-29100598D01*
X8929391Y-29100598D02*
X8948439Y-29091074D01*
X8948439Y-29091074D02*
X8996058Y-29091074D01*
X8996058Y-29091074D02*
X9015105Y-29100598D01*
X9015105Y-29100598D02*
X9024629Y-29110122D01*
X9024629Y-29110122D02*
X9034153Y-29129169D01*
X9034153Y-29129169D02*
X9034153Y-29176788D01*
X9034153Y-29176788D02*
X9024629Y-29195836D01*
X9024629Y-29195836D02*
X9015105Y-29205360D01*
X9015105Y-29205360D02*
X8996058Y-29214884D01*
X8996058Y-29214884D02*
X8948439Y-29214884D01*
X8948439Y-29214884D02*
X8929391Y-29205360D01*
X8929391Y-29205360D02*
X8919867Y-29195836D01*
X9157963Y-29014884D02*
X9177010Y-29014884D01*
X9177010Y-29014884D02*
X9196058Y-29024408D01*
X9196058Y-29024408D02*
X9205582Y-29033931D01*
X9205582Y-29033931D02*
X9215105Y-29052979D01*
X9215105Y-29052979D02*
X9224629Y-29091074D01*
X9224629Y-29091074D02*
X9224629Y-29138693D01*
X9224629Y-29138693D02*
X9215105Y-29176788D01*
X9215105Y-29176788D02*
X9205582Y-29195836D01*
X9205582Y-29195836D02*
X9196058Y-29205360D01*
X9196058Y-29205360D02*
X9177010Y-29214884D01*
X9177010Y-29214884D02*
X9157963Y-29214884D01*
X9157963Y-29214884D02*
X9138915Y-29205360D01*
X9138915Y-29205360D02*
X9129391Y-29195836D01*
X9129391Y-29195836D02*
X9119867Y-29176788D01*
X9119867Y-29176788D02*
X9110344Y-29138693D01*
X9110344Y-29138693D02*
X9110344Y-29091074D01*
X9110344Y-29091074D02*
X9119867Y-29052979D01*
X9119867Y-29052979D02*
X9129391Y-29033931D01*
X9129391Y-29033931D02*
X9138915Y-29024408D01*
X9138915Y-29024408D02*
X9157963Y-29014884D01*
X9348439Y-29014884D02*
X9367486Y-29014884D01*
X9367486Y-29014884D02*
X9386534Y-29024408D01*
X9386534Y-29024408D02*
X9396058Y-29033931D01*
X9396058Y-29033931D02*
X9405582Y-29052979D01*
X9405582Y-29052979D02*
X9415105Y-29091074D01*
X9415105Y-29091074D02*
X9415105Y-29138693D01*
X9415105Y-29138693D02*
X9405582Y-29176788D01*
X9405582Y-29176788D02*
X9396058Y-29195836D01*
X9396058Y-29195836D02*
X9386534Y-29205360D01*
X9386534Y-29205360D02*
X9367486Y-29214884D01*
X9367486Y-29214884D02*
X9348439Y-29214884D01*
X9348439Y-29214884D02*
X9329391Y-29205360D01*
X9329391Y-29205360D02*
X9319867Y-29195836D01*
X9319867Y-29195836D02*
X9310344Y-29176788D01*
X9310344Y-29176788D02*
X9300820Y-29138693D01*
X9300820Y-29138693D02*
X9300820Y-29091074D01*
X9300820Y-29091074D02*
X9310344Y-29052979D01*
X9310344Y-29052979D02*
X9319867Y-29033931D01*
X9319867Y-29033931D02*
X9329391Y-29024408D01*
X9329391Y-29024408D02*
X9348439Y-29014884D01*
X9500820Y-29214884D02*
X9500820Y-29081550D01*
X9500820Y-29100598D02*
X9510344Y-29091074D01*
X9510344Y-29091074D02*
X9529391Y-29081550D01*
X9529391Y-29081550D02*
X9557963Y-29081550D01*
X9557963Y-29081550D02*
X9577010Y-29091074D01*
X9577010Y-29091074D02*
X9586534Y-29110122D01*
X9586534Y-29110122D02*
X9586534Y-29214884D01*
X9586534Y-29110122D02*
X9596058Y-29091074D01*
X9596058Y-29091074D02*
X9615105Y-29081550D01*
X9615105Y-29081550D02*
X9643677Y-29081550D01*
X9643677Y-29081550D02*
X9662725Y-29091074D01*
X9662725Y-29091074D02*
X9672248Y-29110122D01*
X9672248Y-29110122D02*
X9672248Y-29214884D01*
X9767486Y-29214884D02*
X9767486Y-29081550D01*
X9767486Y-29100598D02*
X9777010Y-29091074D01*
X9777010Y-29091074D02*
X9796058Y-29081550D01*
X9796058Y-29081550D02*
X9824629Y-29081550D01*
X9824629Y-29081550D02*
X9843677Y-29091074D01*
X9843677Y-29091074D02*
X9853201Y-29110122D01*
X9853201Y-29110122D02*
X9853201Y-29214884D01*
X9853201Y-29110122D02*
X9862725Y-29091074D01*
X9862725Y-29091074D02*
X9881772Y-29081550D01*
X9881772Y-29081550D02*
X9910344Y-29081550D01*
X9910344Y-29081550D02*
X9929391Y-29091074D01*
X9929391Y-29091074D02*
X9938915Y-29110122D01*
X9938915Y-29110122D02*
X9938915Y-29214884D01*
X10329391Y-29005360D02*
X10157963Y-29262503D01*
X10586534Y-29014884D02*
X10605582Y-29014884D01*
X10605582Y-29014884D02*
X10624629Y-29024408D01*
X10624629Y-29024408D02*
X10634153Y-29033931D01*
X10634153Y-29033931D02*
X10643677Y-29052979D01*
X10643677Y-29052979D02*
X10653201Y-29091074D01*
X10653201Y-29091074D02*
X10653201Y-29138693D01*
X10653201Y-29138693D02*
X10643677Y-29176788D01*
X10643677Y-29176788D02*
X10634153Y-29195836D01*
X10634153Y-29195836D02*
X10624629Y-29205360D01*
X10624629Y-29205360D02*
X10605582Y-29214884D01*
X10605582Y-29214884D02*
X10586534Y-29214884D01*
X10586534Y-29214884D02*
X10567487Y-29205360D01*
X10567487Y-29205360D02*
X10557963Y-29195836D01*
X10557963Y-29195836D02*
X10548439Y-29176788D01*
X10548439Y-29176788D02*
X10538915Y-29138693D01*
X10538915Y-29138693D02*
X10538915Y-29091074D01*
X10538915Y-29091074D02*
X10548439Y-29052979D01*
X10548439Y-29052979D02*
X10557963Y-29033931D01*
X10557963Y-29033931D02*
X10567487Y-29024408D01*
X10567487Y-29024408D02*
X10586534Y-29014884D01*
X10738915Y-29195836D02*
X10748439Y-29205360D01*
X10748439Y-29205360D02*
X10738915Y-29214884D01*
X10738915Y-29214884D02*
X10729391Y-29205360D01*
X10729391Y-29205360D02*
X10738915Y-29195836D01*
X10738915Y-29195836D02*
X10738915Y-29214884D01*
X10824629Y-29033931D02*
X10834153Y-29024408D01*
X10834153Y-29024408D02*
X10853201Y-29014884D01*
X10853201Y-29014884D02*
X10900820Y-29014884D01*
X10900820Y-29014884D02*
X10919868Y-29024408D01*
X10919868Y-29024408D02*
X10929391Y-29033931D01*
X10929391Y-29033931D02*
X10938915Y-29052979D01*
X10938915Y-29052979D02*
X10938915Y-29072027D01*
X10938915Y-29072027D02*
X10929391Y-29100598D01*
X10929391Y-29100598D02*
X10815106Y-29214884D01*
X10815106Y-29214884D02*
X10938915Y-29214884D01*
X11034153Y-29214884D02*
X11072248Y-29214884D01*
X11072248Y-29214884D02*
X11091296Y-29205360D01*
X11091296Y-29205360D02*
X11100820Y-29195836D01*
X11100820Y-29195836D02*
X11119868Y-29167265D01*
X11119868Y-29167265D02*
X11129391Y-29129169D01*
X11129391Y-29129169D02*
X11129391Y-29052979D01*
X11129391Y-29052979D02*
X11119868Y-29033931D01*
X11119868Y-29033931D02*
X11110344Y-29024408D01*
X11110344Y-29024408D02*
X11091296Y-29014884D01*
X11091296Y-29014884D02*
X11053201Y-29014884D01*
X11053201Y-29014884D02*
X11034153Y-29024408D01*
X11034153Y-29024408D02*
X11024629Y-29033931D01*
X11024629Y-29033931D02*
X11015106Y-29052979D01*
X11015106Y-29052979D02*
X11015106Y-29100598D01*
X11015106Y-29100598D02*
X11024629Y-29119646D01*
X11024629Y-29119646D02*
X11034153Y-29129169D01*
X11034153Y-29129169D02*
X11053201Y-29138693D01*
X11053201Y-29138693D02*
X11091296Y-29138693D01*
X11091296Y-29138693D02*
X11110344Y-29129169D01*
X11110344Y-29129169D02*
X11119868Y-29119646D01*
X11119868Y-29119646D02*
X11129391Y-29100598D01*
X11310344Y-29014884D02*
X11215106Y-29014884D01*
X11215106Y-29014884D02*
X11205582Y-29110122D01*
X11205582Y-29110122D02*
X11215106Y-29100598D01*
X11215106Y-29100598D02*
X11234153Y-29091074D01*
X11234153Y-29091074D02*
X11281772Y-29091074D01*
X11281772Y-29091074D02*
X11300820Y-29100598D01*
X11300820Y-29100598D02*
X11310344Y-29110122D01*
X11310344Y-29110122D02*
X11319867Y-29129169D01*
X11319867Y-29129169D02*
X11319867Y-29176788D01*
X11319867Y-29176788D02*
X11310344Y-29195836D01*
X11310344Y-29195836D02*
X11300820Y-29205360D01*
X11300820Y-29205360D02*
X11281772Y-29214884D01*
X11281772Y-29214884D02*
X11234153Y-29214884D01*
X11234153Y-29214884D02*
X11215106Y-29205360D01*
X11215106Y-29205360D02*
X11205582Y-29195836D01*
X11386534Y-29014884D02*
X11510344Y-29014884D01*
X11510344Y-29014884D02*
X11443677Y-29091074D01*
X11443677Y-29091074D02*
X11472248Y-29091074D01*
X11472248Y-29091074D02*
X11491296Y-29100598D01*
X11491296Y-29100598D02*
X11500820Y-29110122D01*
X11500820Y-29110122D02*
X11510344Y-29129169D01*
X11510344Y-29129169D02*
X11510344Y-29176788D01*
X11510344Y-29176788D02*
X11500820Y-29195836D01*
X11500820Y-29195836D02*
X11491296Y-29205360D01*
X11491296Y-29205360D02*
X11472248Y-29214884D01*
X11472248Y-29214884D02*
X11415106Y-29214884D01*
X11415106Y-29214884D02*
X11396058Y-29205360D01*
X11396058Y-29205360D02*
X11386534Y-29195836D01*
X11586534Y-29014884D02*
X11586534Y-29052979D01*
X11662725Y-29014884D02*
X11662725Y-29052979D01*
X11957963Y-29291074D02*
X11948439Y-29281550D01*
X11948439Y-29281550D02*
X11929391Y-29252979D01*
X11929391Y-29252979D02*
X11919868Y-29233931D01*
X11919868Y-29233931D02*
X11910344Y-29205360D01*
X11910344Y-29205360D02*
X11900820Y-29157741D01*
X11900820Y-29157741D02*
X11900820Y-29119646D01*
X11900820Y-29119646D02*
X11910344Y-29072027D01*
X11910344Y-29072027D02*
X11919868Y-29043455D01*
X11919868Y-29043455D02*
X11929391Y-29024408D01*
X11929391Y-29024408D02*
X11948439Y-28995836D01*
X11948439Y-28995836D02*
X11957963Y-28986312D01*
X12024629Y-29033931D02*
X12034153Y-29024408D01*
X12034153Y-29024408D02*
X12053201Y-29014884D01*
X12053201Y-29014884D02*
X12100820Y-29014884D01*
X12100820Y-29014884D02*
X12119868Y-29024408D01*
X12119868Y-29024408D02*
X12129391Y-29033931D01*
X12129391Y-29033931D02*
X12138915Y-29052979D01*
X12138915Y-29052979D02*
X12138915Y-29072027D01*
X12138915Y-29072027D02*
X12129391Y-29100598D01*
X12129391Y-29100598D02*
X12015106Y-29214884D01*
X12015106Y-29214884D02*
X12138915Y-29214884D01*
X12377010Y-29214884D02*
X12377010Y-29014884D01*
X12462725Y-29214884D02*
X12462725Y-29110122D01*
X12462725Y-29110122D02*
X12453201Y-29091074D01*
X12453201Y-29091074D02*
X12434153Y-29081550D01*
X12434153Y-29081550D02*
X12405582Y-29081550D01*
X12405582Y-29081550D02*
X12386534Y-29091074D01*
X12386534Y-29091074D02*
X12377010Y-29100598D01*
X12586534Y-29214884D02*
X12567487Y-29205360D01*
X12567487Y-29205360D02*
X12557963Y-29195836D01*
X12557963Y-29195836D02*
X12548439Y-29176788D01*
X12548439Y-29176788D02*
X12548439Y-29119646D01*
X12548439Y-29119646D02*
X12557963Y-29100598D01*
X12557963Y-29100598D02*
X12567487Y-29091074D01*
X12567487Y-29091074D02*
X12586534Y-29081550D01*
X12586534Y-29081550D02*
X12615106Y-29081550D01*
X12615106Y-29081550D02*
X12634153Y-29091074D01*
X12634153Y-29091074D02*
X12643677Y-29100598D01*
X12643677Y-29100598D02*
X12653201Y-29119646D01*
X12653201Y-29119646D02*
X12653201Y-29176788D01*
X12653201Y-29176788D02*
X12643677Y-29195836D01*
X12643677Y-29195836D02*
X12634153Y-29205360D01*
X12634153Y-29205360D02*
X12615106Y-29214884D01*
X12615106Y-29214884D02*
X12586534Y-29214884D01*
X12767487Y-29214884D02*
X12748439Y-29205360D01*
X12748439Y-29205360D02*
X12738915Y-29186312D01*
X12738915Y-29186312D02*
X12738915Y-29014884D01*
X12919868Y-29205360D02*
X12900820Y-29214884D01*
X12900820Y-29214884D02*
X12862725Y-29214884D01*
X12862725Y-29214884D02*
X12843677Y-29205360D01*
X12843677Y-29205360D02*
X12834153Y-29186312D01*
X12834153Y-29186312D02*
X12834153Y-29110122D01*
X12834153Y-29110122D02*
X12843677Y-29091074D01*
X12843677Y-29091074D02*
X12862725Y-29081550D01*
X12862725Y-29081550D02*
X12900820Y-29081550D01*
X12900820Y-29081550D02*
X12919868Y-29091074D01*
X12919868Y-29091074D02*
X12929391Y-29110122D01*
X12929391Y-29110122D02*
X12929391Y-29129169D01*
X12929391Y-29129169D02*
X12834153Y-29148217D01*
X13005582Y-29205360D02*
X13024630Y-29214884D01*
X13024630Y-29214884D02*
X13062725Y-29214884D01*
X13062725Y-29214884D02*
X13081772Y-29205360D01*
X13081772Y-29205360D02*
X13091296Y-29186312D01*
X13091296Y-29186312D02*
X13091296Y-29176788D01*
X13091296Y-29176788D02*
X13081772Y-29157741D01*
X13081772Y-29157741D02*
X13062725Y-29148217D01*
X13062725Y-29148217D02*
X13034153Y-29148217D01*
X13034153Y-29148217D02*
X13015106Y-29138693D01*
X13015106Y-29138693D02*
X13005582Y-29119646D01*
X13005582Y-29119646D02*
X13005582Y-29110122D01*
X13005582Y-29110122D02*
X13015106Y-29091074D01*
X13015106Y-29091074D02*
X13034153Y-29081550D01*
X13034153Y-29081550D02*
X13062725Y-29081550D01*
X13062725Y-29081550D02*
X13081772Y-29091074D01*
X13157963Y-29291074D02*
X13167487Y-29281550D01*
X13167487Y-29281550D02*
X13186534Y-29252979D01*
X13186534Y-29252979D02*
X13196058Y-29233931D01*
X13196058Y-29233931D02*
X13205582Y-29205360D01*
X13205582Y-29205360D02*
X13215106Y-29157741D01*
X13215106Y-29157741D02*
X13215106Y-29119646D01*
X13215106Y-29119646D02*
X13205582Y-29072027D01*
X13205582Y-29072027D02*
X13196058Y-29043455D01*
X13196058Y-29043455D02*
X13186534Y-29024408D01*
X13186534Y-29024408D02*
X13167487Y-28995836D01*
X13167487Y-28995836D02*
X13157963Y-28986312D01*
X13519868Y-29291074D02*
X13510344Y-29281550D01*
X13510344Y-29281550D02*
X13491296Y-29252979D01*
X13491296Y-29252979D02*
X13481772Y-29233931D01*
X13481772Y-29233931D02*
X13472249Y-29205360D01*
X13472249Y-29205360D02*
X13462725Y-29157741D01*
X13462725Y-29157741D02*
X13462725Y-29119646D01*
X13462725Y-29119646D02*
X13472249Y-29072027D01*
X13472249Y-29072027D02*
X13481772Y-29043455D01*
X13481772Y-29043455D02*
X13491296Y-29024408D01*
X13491296Y-29024408D02*
X13510344Y-28995836D01*
X13510344Y-28995836D02*
X13519868Y-28986312D01*
X13596058Y-29081550D02*
X13596058Y-29214884D01*
X13596058Y-29100598D02*
X13605582Y-29091074D01*
X13605582Y-29091074D02*
X13624630Y-29081550D01*
X13624630Y-29081550D02*
X13653201Y-29081550D01*
X13653201Y-29081550D02*
X13672249Y-29091074D01*
X13672249Y-29091074D02*
X13681772Y-29110122D01*
X13681772Y-29110122D02*
X13681772Y-29214884D01*
X13805582Y-29214884D02*
X13786534Y-29205360D01*
X13786534Y-29205360D02*
X13777011Y-29195836D01*
X13777011Y-29195836D02*
X13767487Y-29176788D01*
X13767487Y-29176788D02*
X13767487Y-29119646D01*
X13767487Y-29119646D02*
X13777011Y-29100598D01*
X13777011Y-29100598D02*
X13786534Y-29091074D01*
X13786534Y-29091074D02*
X13805582Y-29081550D01*
X13805582Y-29081550D02*
X13834153Y-29081550D01*
X13834153Y-29081550D02*
X13853201Y-29091074D01*
X13853201Y-29091074D02*
X13862725Y-29100598D01*
X13862725Y-29100598D02*
X13872249Y-29119646D01*
X13872249Y-29119646D02*
X13872249Y-29176788D01*
X13872249Y-29176788D02*
X13862725Y-29195836D01*
X13862725Y-29195836D02*
X13853201Y-29205360D01*
X13853201Y-29205360D02*
X13834153Y-29214884D01*
X13834153Y-29214884D02*
X13805582Y-29214884D01*
X13929392Y-29081550D02*
X14005582Y-29081550D01*
X13957963Y-29014884D02*
X13957963Y-29186312D01*
X13957963Y-29186312D02*
X13967487Y-29205360D01*
X13967487Y-29205360D02*
X13986534Y-29214884D01*
X13986534Y-29214884D02*
X14005582Y-29214884D01*
X14224630Y-29081550D02*
X14224630Y-29281550D01*
X14224630Y-29091074D02*
X14243677Y-29081550D01*
X14243677Y-29081550D02*
X14281773Y-29081550D01*
X14281773Y-29081550D02*
X14300820Y-29091074D01*
X14300820Y-29091074D02*
X14310344Y-29100598D01*
X14310344Y-29100598D02*
X14319868Y-29119646D01*
X14319868Y-29119646D02*
X14319868Y-29176788D01*
X14319868Y-29176788D02*
X14310344Y-29195836D01*
X14310344Y-29195836D02*
X14300820Y-29205360D01*
X14300820Y-29205360D02*
X14281773Y-29214884D01*
X14281773Y-29214884D02*
X14243677Y-29214884D01*
X14243677Y-29214884D02*
X14224630Y-29205360D01*
X14434153Y-29214884D02*
X14415106Y-29205360D01*
X14415106Y-29205360D02*
X14405582Y-29186312D01*
X14405582Y-29186312D02*
X14405582Y-29014884D01*
X14596058Y-29214884D02*
X14596058Y-29110122D01*
X14596058Y-29110122D02*
X14586534Y-29091074D01*
X14586534Y-29091074D02*
X14567487Y-29081550D01*
X14567487Y-29081550D02*
X14529392Y-29081550D01*
X14529392Y-29081550D02*
X14510344Y-29091074D01*
X14596058Y-29205360D02*
X14577011Y-29214884D01*
X14577011Y-29214884D02*
X14529392Y-29214884D01*
X14529392Y-29214884D02*
X14510344Y-29205360D01*
X14510344Y-29205360D02*
X14500820Y-29186312D01*
X14500820Y-29186312D02*
X14500820Y-29167265D01*
X14500820Y-29167265D02*
X14510344Y-29148217D01*
X14510344Y-29148217D02*
X14529392Y-29138693D01*
X14529392Y-29138693D02*
X14577011Y-29138693D01*
X14577011Y-29138693D02*
X14596058Y-29129169D01*
X14662725Y-29081550D02*
X14738915Y-29081550D01*
X14691296Y-29014884D02*
X14691296Y-29186312D01*
X14691296Y-29186312D02*
X14700820Y-29205360D01*
X14700820Y-29205360D02*
X14719868Y-29214884D01*
X14719868Y-29214884D02*
X14738915Y-29214884D01*
X14881773Y-29205360D02*
X14862725Y-29214884D01*
X14862725Y-29214884D02*
X14824630Y-29214884D01*
X14824630Y-29214884D02*
X14805582Y-29205360D01*
X14805582Y-29205360D02*
X14796058Y-29186312D01*
X14796058Y-29186312D02*
X14796058Y-29110122D01*
X14796058Y-29110122D02*
X14805582Y-29091074D01*
X14805582Y-29091074D02*
X14824630Y-29081550D01*
X14824630Y-29081550D02*
X14862725Y-29081550D01*
X14862725Y-29081550D02*
X14881773Y-29091074D01*
X14881773Y-29091074D02*
X14891296Y-29110122D01*
X14891296Y-29110122D02*
X14891296Y-29129169D01*
X14891296Y-29129169D02*
X14796058Y-29148217D01*
X15062725Y-29214884D02*
X15062725Y-29014884D01*
X15062725Y-29205360D02*
X15043677Y-29214884D01*
X15043677Y-29214884D02*
X15005582Y-29214884D01*
X15005582Y-29214884D02*
X14986534Y-29205360D01*
X14986534Y-29205360D02*
X14977011Y-29195836D01*
X14977011Y-29195836D02*
X14967487Y-29176788D01*
X14967487Y-29176788D02*
X14967487Y-29119646D01*
X14967487Y-29119646D02*
X14977011Y-29100598D01*
X14977011Y-29100598D02*
X14986534Y-29091074D01*
X14986534Y-29091074D02*
X15005582Y-29081550D01*
X15005582Y-29081550D02*
X15043677Y-29081550D01*
X15043677Y-29081550D02*
X15062725Y-29091074D01*
X15138915Y-29291074D02*
X15148439Y-29281550D01*
X15148439Y-29281550D02*
X15167487Y-29252979D01*
X15167487Y-29252979D02*
X15177011Y-29233931D01*
X15177011Y-29233931D02*
X15186534Y-29205360D01*
X15186534Y-29205360D02*
X15196058Y-29157741D01*
X15196058Y-29157741D02*
X15196058Y-29119646D01*
X15196058Y-29119646D02*
X15186534Y-29072027D01*
X15186534Y-29072027D02*
X15177011Y-29043455D01*
X15177011Y-29043455D02*
X15167487Y-29024408D01*
X15167487Y-29024408D02*
X15148439Y-28995836D01*
X15148439Y-28995836D02*
X15138915Y-28986312D01*
M02*
