G04 #@! TF.GenerationSoftware,KiCad,Pcbnew,8.0.5*
G04 #@! TF.CreationDate,2024-11-12T22:59:12-08:00*
G04 #@! TF.ProjectId,URBAN_CELL_BOARD,55524241-4e5f-4434-954c-4c5f424f4152,rev?*
G04 #@! TF.SameCoordinates,Original*
G04 #@! TF.FileFunction,Legend,Top*
G04 #@! TF.FilePolarity,Positive*
%FSLAX46Y46*%
G04 Gerber Fmt 4.6, Leading zero omitted, Abs format (unit mm)*
G04 Created by KiCad (PCBNEW 8.0.5) date 2024-11-12 22:59:12*
%MOMM*%
%LPD*%
G01*
G04 APERTURE LIST*
G04 Aperture macros list*
%AMRoundRect*
0 Rectangle with rounded corners*
0 $1 Rounding radius*
0 $2 $3 $4 $5 $6 $7 $8 $9 X,Y pos of 4 corners*
0 Add a 4 corners polygon primitive as box body*
4,1,4,$2,$3,$4,$5,$6,$7,$8,$9,$2,$3,0*
0 Add four circle primitives for the rounded corners*
1,1,$1+$1,$2,$3*
1,1,$1+$1,$4,$5*
1,1,$1+$1,$6,$7*
1,1,$1+$1,$8,$9*
0 Add four rect primitives between the rounded corners*
20,1,$1+$1,$2,$3,$4,$5,0*
20,1,$1+$1,$4,$5,$6,$7,0*
20,1,$1+$1,$6,$7,$8,$9,0*
20,1,$1+$1,$8,$9,$2,$3,0*%
G04 Aperture macros list end*
%ADD10C,0.300000*%
%ADD11C,0.150000*%
%ADD12C,1.000000*%
%ADD13C,0.120000*%
%ADD14C,0.200000*%
%ADD15C,0.000000*%
%ADD16C,9.000000*%
%ADD17C,2.004000*%
%ADD18C,3.000000*%
%ADD19RoundRect,0.250001X1.099999X1.599999X-1.099999X1.599999X-1.099999X-1.599999X1.099999X-1.599999X0*%
%ADD20O,2.700000X3.700000*%
%ADD21C,1.930000*%
%ADD22C,7.500000*%
G04 APERTURE END LIST*
D10*
X189642857Y-264479400D02*
X187357143Y-264479400D01*
X188500000Y-265622257D02*
X188500000Y-263336542D01*
X185357142Y-262285471D02*
X185285714Y-262356900D01*
X185285714Y-262356900D02*
X185071428Y-262428328D01*
X185071428Y-262428328D02*
X184928571Y-262428328D01*
X184928571Y-262428328D02*
X184714285Y-262356900D01*
X184714285Y-262356900D02*
X184571428Y-262214042D01*
X184571428Y-262214042D02*
X184499999Y-262071185D01*
X184499999Y-262071185D02*
X184428571Y-261785471D01*
X184428571Y-261785471D02*
X184428571Y-261571185D01*
X184428571Y-261571185D02*
X184499999Y-261285471D01*
X184499999Y-261285471D02*
X184571428Y-261142614D01*
X184571428Y-261142614D02*
X184714285Y-260999757D01*
X184714285Y-260999757D02*
X184928571Y-260928328D01*
X184928571Y-260928328D02*
X185071428Y-260928328D01*
X185071428Y-260928328D02*
X185285714Y-260999757D01*
X185285714Y-260999757D02*
X185357142Y-261071185D01*
X185999999Y-262428328D02*
X185999999Y-260928328D01*
X185999999Y-261642614D02*
X186857142Y-261642614D01*
X186857142Y-262428328D02*
X186857142Y-260928328D01*
X187500000Y-261999757D02*
X188214286Y-261999757D01*
X187357143Y-262428328D02*
X187857143Y-260928328D01*
X187857143Y-260928328D02*
X188357143Y-262428328D01*
X189714285Y-262428328D02*
X189214285Y-261714042D01*
X188857142Y-262428328D02*
X188857142Y-260928328D01*
X188857142Y-260928328D02*
X189428571Y-260928328D01*
X189428571Y-260928328D02*
X189571428Y-260999757D01*
X189571428Y-260999757D02*
X189642857Y-261071185D01*
X189642857Y-261071185D02*
X189714285Y-261214042D01*
X189714285Y-261214042D02*
X189714285Y-261428328D01*
X189714285Y-261428328D02*
X189642857Y-261571185D01*
X189642857Y-261571185D02*
X189571428Y-261642614D01*
X189571428Y-261642614D02*
X189428571Y-261714042D01*
X189428571Y-261714042D02*
X188857142Y-261714042D01*
X191142857Y-260999757D02*
X191000000Y-260928328D01*
X191000000Y-260928328D02*
X190785714Y-260928328D01*
X190785714Y-260928328D02*
X190571428Y-260999757D01*
X190571428Y-260999757D02*
X190428571Y-261142614D01*
X190428571Y-261142614D02*
X190357142Y-261285471D01*
X190357142Y-261285471D02*
X190285714Y-261571185D01*
X190285714Y-261571185D02*
X190285714Y-261785471D01*
X190285714Y-261785471D02*
X190357142Y-262071185D01*
X190357142Y-262071185D02*
X190428571Y-262214042D01*
X190428571Y-262214042D02*
X190571428Y-262356900D01*
X190571428Y-262356900D02*
X190785714Y-262428328D01*
X190785714Y-262428328D02*
X190928571Y-262428328D01*
X190928571Y-262428328D02*
X191142857Y-262356900D01*
X191142857Y-262356900D02*
X191214285Y-262285471D01*
X191214285Y-262285471D02*
X191214285Y-261785471D01*
X191214285Y-261785471D02*
X190928571Y-261785471D01*
X191857142Y-261642614D02*
X192357142Y-261642614D01*
X192571428Y-262428328D02*
X191857142Y-262428328D01*
X191857142Y-262428328D02*
X191857142Y-260928328D01*
X191857142Y-260928328D02*
X192571428Y-260928328D01*
X140824761Y-260432733D02*
X137015238Y-260432733D01*
X121392857Y-264479400D02*
X119107143Y-264479400D01*
X171074761Y-259682733D02*
X167265238Y-259682733D01*
X169169999Y-261587495D02*
X169169999Y-257777971D01*
D11*
X92369049Y-276235237D02*
X92554763Y-276297141D01*
X92554763Y-276297141D02*
X92864287Y-276297141D01*
X92864287Y-276297141D02*
X92988096Y-276235237D01*
X92988096Y-276235237D02*
X93050001Y-276173332D01*
X93050001Y-276173332D02*
X93111906Y-276049522D01*
X93111906Y-276049522D02*
X93111906Y-275925713D01*
X93111906Y-275925713D02*
X93050001Y-275801903D01*
X93050001Y-275801903D02*
X92988096Y-275739998D01*
X92988096Y-275739998D02*
X92864287Y-275678094D01*
X92864287Y-275678094D02*
X92616668Y-275616189D01*
X92616668Y-275616189D02*
X92492858Y-275554284D01*
X92492858Y-275554284D02*
X92430953Y-275492379D01*
X92430953Y-275492379D02*
X92369049Y-275368570D01*
X92369049Y-275368570D02*
X92369049Y-275244760D01*
X92369049Y-275244760D02*
X92430953Y-275120951D01*
X92430953Y-275120951D02*
X92492858Y-275059046D01*
X92492858Y-275059046D02*
X92616668Y-274997141D01*
X92616668Y-274997141D02*
X92926191Y-274997141D01*
X92926191Y-274997141D02*
X93111906Y-275059046D01*
X94226191Y-276297141D02*
X94226191Y-275616189D01*
X94226191Y-275616189D02*
X94164286Y-275492379D01*
X94164286Y-275492379D02*
X94040477Y-275430475D01*
X94040477Y-275430475D02*
X93792858Y-275430475D01*
X93792858Y-275430475D02*
X93669048Y-275492379D01*
X94226191Y-276235237D02*
X94102382Y-276297141D01*
X94102382Y-276297141D02*
X93792858Y-276297141D01*
X93792858Y-276297141D02*
X93669048Y-276235237D01*
X93669048Y-276235237D02*
X93607144Y-276111427D01*
X93607144Y-276111427D02*
X93607144Y-275987617D01*
X93607144Y-275987617D02*
X93669048Y-275863808D01*
X93669048Y-275863808D02*
X93792858Y-275801903D01*
X93792858Y-275801903D02*
X94102382Y-275801903D01*
X94102382Y-275801903D02*
X94226191Y-275739998D01*
X94845238Y-276297141D02*
X94845238Y-275430475D01*
X94845238Y-275678094D02*
X94907143Y-275554284D01*
X94907143Y-275554284D02*
X94969048Y-275492379D01*
X94969048Y-275492379D02*
X95092857Y-275430475D01*
X95092857Y-275430475D02*
X95216667Y-275430475D01*
X96207143Y-276297141D02*
X96207143Y-275616189D01*
X96207143Y-275616189D02*
X96145238Y-275492379D01*
X96145238Y-275492379D02*
X96021429Y-275430475D01*
X96021429Y-275430475D02*
X95773810Y-275430475D01*
X95773810Y-275430475D02*
X95650000Y-275492379D01*
X96207143Y-276235237D02*
X96083334Y-276297141D01*
X96083334Y-276297141D02*
X95773810Y-276297141D01*
X95773810Y-276297141D02*
X95650000Y-276235237D01*
X95650000Y-276235237D02*
X95588096Y-276111427D01*
X95588096Y-276111427D02*
X95588096Y-275987617D01*
X95588096Y-275987617D02*
X95650000Y-275863808D01*
X95650000Y-275863808D02*
X95773810Y-275801903D01*
X95773810Y-275801903D02*
X96083334Y-275801903D01*
X96083334Y-275801903D02*
X96207143Y-275739998D01*
X96826190Y-276297141D02*
X96826190Y-274997141D01*
X97383333Y-276297141D02*
X97383333Y-275616189D01*
X97383333Y-275616189D02*
X97321428Y-275492379D01*
X97321428Y-275492379D02*
X97197619Y-275430475D01*
X97197619Y-275430475D02*
X97011905Y-275430475D01*
X97011905Y-275430475D02*
X96888095Y-275492379D01*
X96888095Y-275492379D02*
X96826190Y-275554284D01*
X99859523Y-276420951D02*
X99735713Y-276359046D01*
X99735713Y-276359046D02*
X99611904Y-276235237D01*
X99611904Y-276235237D02*
X99426190Y-276049522D01*
X99426190Y-276049522D02*
X99302380Y-275987617D01*
X99302380Y-275987617D02*
X99178571Y-275987617D01*
X99240475Y-276297141D02*
X99116666Y-276235237D01*
X99116666Y-276235237D02*
X98992856Y-276111427D01*
X98992856Y-276111427D02*
X98930952Y-275863808D01*
X98930952Y-275863808D02*
X98930952Y-275430475D01*
X98930952Y-275430475D02*
X98992856Y-275182856D01*
X98992856Y-275182856D02*
X99116666Y-275059046D01*
X99116666Y-275059046D02*
X99240475Y-274997141D01*
X99240475Y-274997141D02*
X99488094Y-274997141D01*
X99488094Y-274997141D02*
X99611904Y-275059046D01*
X99611904Y-275059046D02*
X99735713Y-275182856D01*
X99735713Y-275182856D02*
X99797618Y-275430475D01*
X99797618Y-275430475D02*
X99797618Y-275863808D01*
X99797618Y-275863808D02*
X99735713Y-276111427D01*
X99735713Y-276111427D02*
X99611904Y-276235237D01*
X99611904Y-276235237D02*
X99488094Y-276297141D01*
X99488094Y-276297141D02*
X99240475Y-276297141D01*
X100911904Y-276297141D02*
X100911904Y-275616189D01*
X100911904Y-275616189D02*
X100849999Y-275492379D01*
X100849999Y-275492379D02*
X100726190Y-275430475D01*
X100726190Y-275430475D02*
X100478571Y-275430475D01*
X100478571Y-275430475D02*
X100354761Y-275492379D01*
X100911904Y-276235237D02*
X100788095Y-276297141D01*
X100788095Y-276297141D02*
X100478571Y-276297141D01*
X100478571Y-276297141D02*
X100354761Y-276235237D01*
X100354761Y-276235237D02*
X100292857Y-276111427D01*
X100292857Y-276111427D02*
X100292857Y-275987617D01*
X100292857Y-275987617D02*
X100354761Y-275863808D01*
X100354761Y-275863808D02*
X100478571Y-275801903D01*
X100478571Y-275801903D02*
X100788095Y-275801903D01*
X100788095Y-275801903D02*
X100911904Y-275739998D01*
X102088094Y-276297141D02*
X102088094Y-274997141D01*
X102088094Y-276235237D02*
X101964285Y-276297141D01*
X101964285Y-276297141D02*
X101716666Y-276297141D01*
X101716666Y-276297141D02*
X101592856Y-276235237D01*
X101592856Y-276235237D02*
X101530951Y-276173332D01*
X101530951Y-276173332D02*
X101469047Y-276049522D01*
X101469047Y-276049522D02*
X101469047Y-275678094D01*
X101469047Y-275678094D02*
X101530951Y-275554284D01*
X101530951Y-275554284D02*
X101592856Y-275492379D01*
X101592856Y-275492379D02*
X101716666Y-275430475D01*
X101716666Y-275430475D02*
X101964285Y-275430475D01*
X101964285Y-275430475D02*
X102088094Y-275492379D01*
X103264284Y-276297141D02*
X103264284Y-275616189D01*
X103264284Y-275616189D02*
X103202379Y-275492379D01*
X103202379Y-275492379D02*
X103078570Y-275430475D01*
X103078570Y-275430475D02*
X102830951Y-275430475D01*
X102830951Y-275430475D02*
X102707141Y-275492379D01*
X103264284Y-276235237D02*
X103140475Y-276297141D01*
X103140475Y-276297141D02*
X102830951Y-276297141D01*
X102830951Y-276297141D02*
X102707141Y-276235237D01*
X102707141Y-276235237D02*
X102645237Y-276111427D01*
X102645237Y-276111427D02*
X102645237Y-275987617D01*
X102645237Y-275987617D02*
X102707141Y-275863808D01*
X102707141Y-275863808D02*
X102830951Y-275801903D01*
X102830951Y-275801903D02*
X103140475Y-275801903D01*
X103140475Y-275801903D02*
X103264284Y-275739998D01*
X103883331Y-276297141D02*
X103883331Y-275430475D01*
X103883331Y-275678094D02*
X103945236Y-275554284D01*
X103945236Y-275554284D02*
X104007141Y-275492379D01*
X104007141Y-275492379D02*
X104130950Y-275430475D01*
X104130950Y-275430475D02*
X104254760Y-275430475D01*
X85900003Y-278328164D02*
X86085717Y-278390068D01*
X86085717Y-278390068D02*
X86395241Y-278390068D01*
X86395241Y-278390068D02*
X86519050Y-278328164D01*
X86519050Y-278328164D02*
X86580955Y-278266259D01*
X86580955Y-278266259D02*
X86642860Y-278142449D01*
X86642860Y-278142449D02*
X86642860Y-278018640D01*
X86642860Y-278018640D02*
X86580955Y-277894830D01*
X86580955Y-277894830D02*
X86519050Y-277832925D01*
X86519050Y-277832925D02*
X86395241Y-277771021D01*
X86395241Y-277771021D02*
X86147622Y-277709116D01*
X86147622Y-277709116D02*
X86023812Y-277647211D01*
X86023812Y-277647211D02*
X85961907Y-277585306D01*
X85961907Y-277585306D02*
X85900003Y-277461497D01*
X85900003Y-277461497D02*
X85900003Y-277337687D01*
X85900003Y-277337687D02*
X85961907Y-277213878D01*
X85961907Y-277213878D02*
X86023812Y-277151973D01*
X86023812Y-277151973D02*
X86147622Y-277090068D01*
X86147622Y-277090068D02*
X86457145Y-277090068D01*
X86457145Y-277090068D02*
X86642860Y-277151973D01*
X87200002Y-278390068D02*
X87200002Y-277090068D01*
X87757145Y-278390068D02*
X87757145Y-277709116D01*
X87757145Y-277709116D02*
X87695240Y-277585306D01*
X87695240Y-277585306D02*
X87571431Y-277523402D01*
X87571431Y-277523402D02*
X87385717Y-277523402D01*
X87385717Y-277523402D02*
X87261907Y-277585306D01*
X87261907Y-277585306D02*
X87200002Y-277647211D01*
X88871430Y-278328164D02*
X88747621Y-278390068D01*
X88747621Y-278390068D02*
X88500002Y-278390068D01*
X88500002Y-278390068D02*
X88376192Y-278328164D01*
X88376192Y-278328164D02*
X88314288Y-278204354D01*
X88314288Y-278204354D02*
X88314288Y-277709116D01*
X88314288Y-277709116D02*
X88376192Y-277585306D01*
X88376192Y-277585306D02*
X88500002Y-277523402D01*
X88500002Y-277523402D02*
X88747621Y-277523402D01*
X88747621Y-277523402D02*
X88871430Y-277585306D01*
X88871430Y-277585306D02*
X88933335Y-277709116D01*
X88933335Y-277709116D02*
X88933335Y-277832925D01*
X88933335Y-277832925D02*
X88314288Y-277956735D01*
X89676193Y-278390068D02*
X89552383Y-278328164D01*
X89552383Y-278328164D02*
X89490478Y-278204354D01*
X89490478Y-278204354D02*
X89490478Y-277090068D01*
X90357145Y-278390068D02*
X90233335Y-278328164D01*
X90233335Y-278328164D02*
X90171430Y-278204354D01*
X90171430Y-278204354D02*
X90171430Y-277090068D01*
X91842858Y-277709116D02*
X92276192Y-277709116D01*
X92461906Y-278390068D02*
X91842858Y-278390068D01*
X91842858Y-278390068D02*
X91842858Y-277090068D01*
X91842858Y-277090068D02*
X92461906Y-277090068D01*
X93576191Y-278328164D02*
X93452382Y-278390068D01*
X93452382Y-278390068D02*
X93204763Y-278390068D01*
X93204763Y-278390068D02*
X93080953Y-278328164D01*
X93080953Y-278328164D02*
X93019048Y-278266259D01*
X93019048Y-278266259D02*
X92957144Y-278142449D01*
X92957144Y-278142449D02*
X92957144Y-277771021D01*
X92957144Y-277771021D02*
X93019048Y-277647211D01*
X93019048Y-277647211D02*
X93080953Y-277585306D01*
X93080953Y-277585306D02*
X93204763Y-277523402D01*
X93204763Y-277523402D02*
X93452382Y-277523402D01*
X93452382Y-277523402D02*
X93576191Y-277585306D01*
X94319049Y-278390068D02*
X94195239Y-278328164D01*
X94195239Y-278328164D02*
X94133334Y-278266259D01*
X94133334Y-278266259D02*
X94071430Y-278142449D01*
X94071430Y-278142449D02*
X94071430Y-277771021D01*
X94071430Y-277771021D02*
X94133334Y-277647211D01*
X94133334Y-277647211D02*
X94195239Y-277585306D01*
X94195239Y-277585306D02*
X94319049Y-277523402D01*
X94319049Y-277523402D02*
X94504763Y-277523402D01*
X94504763Y-277523402D02*
X94628572Y-277585306D01*
X94628572Y-277585306D02*
X94690477Y-277647211D01*
X94690477Y-277647211D02*
X94752382Y-277771021D01*
X94752382Y-277771021D02*
X94752382Y-278142449D01*
X94752382Y-278142449D02*
X94690477Y-278266259D01*
X94690477Y-278266259D02*
X94628572Y-278328164D01*
X94628572Y-278328164D02*
X94504763Y-278390068D01*
X94504763Y-278390068D02*
X94319049Y-278390068D01*
X96300000Y-278390068D02*
X96300000Y-277090068D01*
X96300000Y-277090068D02*
X96733334Y-278018640D01*
X96733334Y-278018640D02*
X97166667Y-277090068D01*
X97166667Y-277090068D02*
X97166667Y-278390068D01*
X98342857Y-278390068D02*
X98342857Y-277709116D01*
X98342857Y-277709116D02*
X98280952Y-277585306D01*
X98280952Y-277585306D02*
X98157143Y-277523402D01*
X98157143Y-277523402D02*
X97909524Y-277523402D01*
X97909524Y-277523402D02*
X97785714Y-277585306D01*
X98342857Y-278328164D02*
X98219048Y-278390068D01*
X98219048Y-278390068D02*
X97909524Y-278390068D01*
X97909524Y-278390068D02*
X97785714Y-278328164D01*
X97785714Y-278328164D02*
X97723810Y-278204354D01*
X97723810Y-278204354D02*
X97723810Y-278080544D01*
X97723810Y-278080544D02*
X97785714Y-277956735D01*
X97785714Y-277956735D02*
X97909524Y-277894830D01*
X97909524Y-277894830D02*
X98219048Y-277894830D01*
X98219048Y-277894830D02*
X98342857Y-277832925D01*
X98961904Y-278390068D02*
X98961904Y-277523402D01*
X98961904Y-277771021D02*
X99023809Y-277647211D01*
X99023809Y-277647211D02*
X99085714Y-277585306D01*
X99085714Y-277585306D02*
X99209523Y-277523402D01*
X99209523Y-277523402D02*
X99333333Y-277523402D01*
X100323809Y-278390068D02*
X100323809Y-277709116D01*
X100323809Y-277709116D02*
X100261904Y-277585306D01*
X100261904Y-277585306D02*
X100138095Y-277523402D01*
X100138095Y-277523402D02*
X99890476Y-277523402D01*
X99890476Y-277523402D02*
X99766666Y-277585306D01*
X100323809Y-278328164D02*
X100200000Y-278390068D01*
X100200000Y-278390068D02*
X99890476Y-278390068D01*
X99890476Y-278390068D02*
X99766666Y-278328164D01*
X99766666Y-278328164D02*
X99704762Y-278204354D01*
X99704762Y-278204354D02*
X99704762Y-278080544D01*
X99704762Y-278080544D02*
X99766666Y-277956735D01*
X99766666Y-277956735D02*
X99890476Y-277894830D01*
X99890476Y-277894830D02*
X100200000Y-277894830D01*
X100200000Y-277894830D02*
X100323809Y-277832925D01*
X100757142Y-277523402D02*
X101252380Y-277523402D01*
X100942856Y-277090068D02*
X100942856Y-278204354D01*
X100942856Y-278204354D02*
X101004761Y-278328164D01*
X101004761Y-278328164D02*
X101128571Y-278390068D01*
X101128571Y-278390068D02*
X101252380Y-278390068D01*
X101685713Y-278390068D02*
X101685713Y-277090068D01*
X102242856Y-278390068D02*
X102242856Y-277709116D01*
X102242856Y-277709116D02*
X102180951Y-277585306D01*
X102180951Y-277585306D02*
X102057142Y-277523402D01*
X102057142Y-277523402D02*
X101871428Y-277523402D01*
X101871428Y-277523402D02*
X101747618Y-277585306D01*
X101747618Y-277585306D02*
X101685713Y-277647211D01*
X103047618Y-278390068D02*
X102923808Y-278328164D01*
X102923808Y-278328164D02*
X102861903Y-278266259D01*
X102861903Y-278266259D02*
X102799999Y-278142449D01*
X102799999Y-278142449D02*
X102799999Y-277771021D01*
X102799999Y-277771021D02*
X102861903Y-277647211D01*
X102861903Y-277647211D02*
X102923808Y-277585306D01*
X102923808Y-277585306D02*
X103047618Y-277523402D01*
X103047618Y-277523402D02*
X103233332Y-277523402D01*
X103233332Y-277523402D02*
X103357141Y-277585306D01*
X103357141Y-277585306D02*
X103419046Y-277647211D01*
X103419046Y-277647211D02*
X103480951Y-277771021D01*
X103480951Y-277771021D02*
X103480951Y-278142449D01*
X103480951Y-278142449D02*
X103419046Y-278266259D01*
X103419046Y-278266259D02*
X103357141Y-278328164D01*
X103357141Y-278328164D02*
X103233332Y-278390068D01*
X103233332Y-278390068D02*
X103047618Y-278390068D01*
X104038093Y-277523402D02*
X104038093Y-278390068D01*
X104038093Y-277647211D02*
X104099998Y-277585306D01*
X104099998Y-277585306D02*
X104223808Y-277523402D01*
X104223808Y-277523402D02*
X104409522Y-277523402D01*
X104409522Y-277523402D02*
X104533331Y-277585306D01*
X104533331Y-277585306D02*
X104595236Y-277709116D01*
X104595236Y-277709116D02*
X104595236Y-278390068D01*
X106142855Y-277213878D02*
X106204759Y-277151973D01*
X106204759Y-277151973D02*
X106328569Y-277090068D01*
X106328569Y-277090068D02*
X106638093Y-277090068D01*
X106638093Y-277090068D02*
X106761902Y-277151973D01*
X106761902Y-277151973D02*
X106823807Y-277213878D01*
X106823807Y-277213878D02*
X106885712Y-277337687D01*
X106885712Y-277337687D02*
X106885712Y-277461497D01*
X106885712Y-277461497D02*
X106823807Y-277647211D01*
X106823807Y-277647211D02*
X106080950Y-278390068D01*
X106080950Y-278390068D02*
X106885712Y-278390068D01*
X107690473Y-277090068D02*
X107814283Y-277090068D01*
X107814283Y-277090068D02*
X107938092Y-277151973D01*
X107938092Y-277151973D02*
X107999997Y-277213878D01*
X107999997Y-277213878D02*
X108061902Y-277337687D01*
X108061902Y-277337687D02*
X108123807Y-277585306D01*
X108123807Y-277585306D02*
X108123807Y-277894830D01*
X108123807Y-277894830D02*
X108061902Y-278142449D01*
X108061902Y-278142449D02*
X107999997Y-278266259D01*
X107999997Y-278266259D02*
X107938092Y-278328164D01*
X107938092Y-278328164D02*
X107814283Y-278390068D01*
X107814283Y-278390068D02*
X107690473Y-278390068D01*
X107690473Y-278390068D02*
X107566664Y-278328164D01*
X107566664Y-278328164D02*
X107504759Y-278266259D01*
X107504759Y-278266259D02*
X107442854Y-278142449D01*
X107442854Y-278142449D02*
X107380950Y-277894830D01*
X107380950Y-277894830D02*
X107380950Y-277585306D01*
X107380950Y-277585306D02*
X107442854Y-277337687D01*
X107442854Y-277337687D02*
X107504759Y-277213878D01*
X107504759Y-277213878D02*
X107566664Y-277151973D01*
X107566664Y-277151973D02*
X107690473Y-277090068D01*
X108619045Y-277213878D02*
X108680949Y-277151973D01*
X108680949Y-277151973D02*
X108804759Y-277090068D01*
X108804759Y-277090068D02*
X109114283Y-277090068D01*
X109114283Y-277090068D02*
X109238092Y-277151973D01*
X109238092Y-277151973D02*
X109299997Y-277213878D01*
X109299997Y-277213878D02*
X109361902Y-277337687D01*
X109361902Y-277337687D02*
X109361902Y-277461497D01*
X109361902Y-277461497D02*
X109299997Y-277647211D01*
X109299997Y-277647211D02*
X108557140Y-278390068D01*
X108557140Y-278390068D02*
X109361902Y-278390068D01*
X109795235Y-277090068D02*
X110599997Y-277090068D01*
X110599997Y-277090068D02*
X110166663Y-277585306D01*
X110166663Y-277585306D02*
X110352378Y-277585306D01*
X110352378Y-277585306D02*
X110476187Y-277647211D01*
X110476187Y-277647211D02*
X110538092Y-277709116D01*
X110538092Y-277709116D02*
X110599997Y-277832925D01*
X110599997Y-277832925D02*
X110599997Y-278142449D01*
X110599997Y-278142449D02*
X110538092Y-278266259D01*
X110538092Y-278266259D02*
X110476187Y-278328164D01*
X110476187Y-278328164D02*
X110352378Y-278390068D01*
X110352378Y-278390068D02*
X109980949Y-278390068D01*
X109980949Y-278390068D02*
X109857140Y-278328164D01*
X109857140Y-278328164D02*
X109795235Y-278266259D01*
D10*
X116857142Y-262785471D02*
X116785714Y-262856900D01*
X116785714Y-262856900D02*
X116571428Y-262928328D01*
X116571428Y-262928328D02*
X116428571Y-262928328D01*
X116428571Y-262928328D02*
X116214285Y-262856900D01*
X116214285Y-262856900D02*
X116071428Y-262714042D01*
X116071428Y-262714042D02*
X115999999Y-262571185D01*
X115999999Y-262571185D02*
X115928571Y-262285471D01*
X115928571Y-262285471D02*
X115928571Y-262071185D01*
X115928571Y-262071185D02*
X115999999Y-261785471D01*
X115999999Y-261785471D02*
X116071428Y-261642614D01*
X116071428Y-261642614D02*
X116214285Y-261499757D01*
X116214285Y-261499757D02*
X116428571Y-261428328D01*
X116428571Y-261428328D02*
X116571428Y-261428328D01*
X116571428Y-261428328D02*
X116785714Y-261499757D01*
X116785714Y-261499757D02*
X116857142Y-261571185D01*
X117499999Y-262928328D02*
X117499999Y-261428328D01*
X117499999Y-262142614D02*
X118357142Y-262142614D01*
X118357142Y-262928328D02*
X118357142Y-261428328D01*
X119000000Y-262499757D02*
X119714286Y-262499757D01*
X118857143Y-262928328D02*
X119357143Y-261428328D01*
X119357143Y-261428328D02*
X119857143Y-262928328D01*
X121214285Y-262928328D02*
X120714285Y-262214042D01*
X120357142Y-262928328D02*
X120357142Y-261428328D01*
X120357142Y-261428328D02*
X120928571Y-261428328D01*
X120928571Y-261428328D02*
X121071428Y-261499757D01*
X121071428Y-261499757D02*
X121142857Y-261571185D01*
X121142857Y-261571185D02*
X121214285Y-261714042D01*
X121214285Y-261714042D02*
X121214285Y-261928328D01*
X121214285Y-261928328D02*
X121142857Y-262071185D01*
X121142857Y-262071185D02*
X121071428Y-262142614D01*
X121071428Y-262142614D02*
X120928571Y-262214042D01*
X120928571Y-262214042D02*
X120357142Y-262214042D01*
X122642857Y-261499757D02*
X122500000Y-261428328D01*
X122500000Y-261428328D02*
X122285714Y-261428328D01*
X122285714Y-261428328D02*
X122071428Y-261499757D01*
X122071428Y-261499757D02*
X121928571Y-261642614D01*
X121928571Y-261642614D02*
X121857142Y-261785471D01*
X121857142Y-261785471D02*
X121785714Y-262071185D01*
X121785714Y-262071185D02*
X121785714Y-262285471D01*
X121785714Y-262285471D02*
X121857142Y-262571185D01*
X121857142Y-262571185D02*
X121928571Y-262714042D01*
X121928571Y-262714042D02*
X122071428Y-262856900D01*
X122071428Y-262856900D02*
X122285714Y-262928328D01*
X122285714Y-262928328D02*
X122428571Y-262928328D01*
X122428571Y-262928328D02*
X122642857Y-262856900D01*
X122642857Y-262856900D02*
X122714285Y-262785471D01*
X122714285Y-262785471D02*
X122714285Y-262285471D01*
X122714285Y-262285471D02*
X122428571Y-262285471D01*
X123357142Y-262142614D02*
X123857142Y-262142614D01*
X124071428Y-262928328D02*
X123357142Y-262928328D01*
X123357142Y-262928328D02*
X123357142Y-261428328D01*
X123357142Y-261428328D02*
X124071428Y-261428328D01*
D11*
X156843285Y-113681009D02*
X156986142Y-113728628D01*
X156986142Y-113728628D02*
X157033761Y-113776247D01*
X157033761Y-113776247D02*
X157081380Y-113871485D01*
X157081380Y-113871485D02*
X157081380Y-114014342D01*
X157081380Y-114014342D02*
X157033761Y-114109580D01*
X157033761Y-114109580D02*
X156986142Y-114157200D01*
X156986142Y-114157200D02*
X156890904Y-114204819D01*
X156890904Y-114204819D02*
X156509952Y-114204819D01*
X156509952Y-114204819D02*
X156509952Y-113204819D01*
X156509952Y-113204819D02*
X156843285Y-113204819D01*
X156843285Y-113204819D02*
X156938523Y-113252438D01*
X156938523Y-113252438D02*
X156986142Y-113300057D01*
X156986142Y-113300057D02*
X157033761Y-113395295D01*
X157033761Y-113395295D02*
X157033761Y-113490533D01*
X157033761Y-113490533D02*
X156986142Y-113585771D01*
X156986142Y-113585771D02*
X156938523Y-113633390D01*
X156938523Y-113633390D02*
X156843285Y-113681009D01*
X156843285Y-113681009D02*
X156509952Y-113681009D01*
X157367095Y-113204819D02*
X157938523Y-113204819D01*
X157652809Y-114204819D02*
X157652809Y-113204819D01*
X158700428Y-113204819D02*
X158509952Y-113204819D01*
X158509952Y-113204819D02*
X158414714Y-113252438D01*
X158414714Y-113252438D02*
X158367095Y-113300057D01*
X158367095Y-113300057D02*
X158271857Y-113442914D01*
X158271857Y-113442914D02*
X158224238Y-113633390D01*
X158224238Y-113633390D02*
X158224238Y-114014342D01*
X158224238Y-114014342D02*
X158271857Y-114109580D01*
X158271857Y-114109580D02*
X158319476Y-114157200D01*
X158319476Y-114157200D02*
X158414714Y-114204819D01*
X158414714Y-114204819D02*
X158605190Y-114204819D01*
X158605190Y-114204819D02*
X158700428Y-114157200D01*
X158700428Y-114157200D02*
X158748047Y-114109580D01*
X158748047Y-114109580D02*
X158795666Y-114014342D01*
X158795666Y-114014342D02*
X158795666Y-113776247D01*
X158795666Y-113776247D02*
X158748047Y-113681009D01*
X158748047Y-113681009D02*
X158700428Y-113633390D01*
X158700428Y-113633390D02*
X158605190Y-113585771D01*
X158605190Y-113585771D02*
X158414714Y-113585771D01*
X158414714Y-113585771D02*
X158319476Y-113633390D01*
X158319476Y-113633390D02*
X158271857Y-113681009D01*
X158271857Y-113681009D02*
X158224238Y-113776247D01*
X102319476Y-127681009D02*
X102462333Y-127728628D01*
X102462333Y-127728628D02*
X102509952Y-127776247D01*
X102509952Y-127776247D02*
X102557571Y-127871485D01*
X102557571Y-127871485D02*
X102557571Y-128014342D01*
X102557571Y-128014342D02*
X102509952Y-128109580D01*
X102509952Y-128109580D02*
X102462333Y-128157200D01*
X102462333Y-128157200D02*
X102367095Y-128204819D01*
X102367095Y-128204819D02*
X101986143Y-128204819D01*
X101986143Y-128204819D02*
X101986143Y-127204819D01*
X101986143Y-127204819D02*
X102319476Y-127204819D01*
X102319476Y-127204819D02*
X102414714Y-127252438D01*
X102414714Y-127252438D02*
X102462333Y-127300057D01*
X102462333Y-127300057D02*
X102509952Y-127395295D01*
X102509952Y-127395295D02*
X102509952Y-127490533D01*
X102509952Y-127490533D02*
X102462333Y-127585771D01*
X102462333Y-127585771D02*
X102414714Y-127633390D01*
X102414714Y-127633390D02*
X102319476Y-127681009D01*
X102319476Y-127681009D02*
X101986143Y-127681009D01*
X103462333Y-128204819D02*
X102986143Y-128204819D01*
X102986143Y-128204819D02*
X102986143Y-127204819D01*
X103795667Y-127204819D02*
X103795667Y-128014342D01*
X103795667Y-128014342D02*
X103843286Y-128109580D01*
X103843286Y-128109580D02*
X103890905Y-128157200D01*
X103890905Y-128157200D02*
X103986143Y-128204819D01*
X103986143Y-128204819D02*
X104176619Y-128204819D01*
X104176619Y-128204819D02*
X104271857Y-128157200D01*
X104271857Y-128157200D02*
X104319476Y-128109580D01*
X104319476Y-128109580D02*
X104367095Y-128014342D01*
X104367095Y-128014342D02*
X104367095Y-127204819D01*
X104843286Y-127681009D02*
X105176619Y-127681009D01*
X105319476Y-128204819D02*
X104843286Y-128204819D01*
X104843286Y-128204819D02*
X104843286Y-127204819D01*
X104843286Y-127204819D02*
X105319476Y-127204819D01*
X147986142Y-128204819D02*
X147652809Y-127728628D01*
X147414714Y-128204819D02*
X147414714Y-127204819D01*
X147414714Y-127204819D02*
X147795666Y-127204819D01*
X147795666Y-127204819D02*
X147890904Y-127252438D01*
X147890904Y-127252438D02*
X147938523Y-127300057D01*
X147938523Y-127300057D02*
X147986142Y-127395295D01*
X147986142Y-127395295D02*
X147986142Y-127538152D01*
X147986142Y-127538152D02*
X147938523Y-127633390D01*
X147938523Y-127633390D02*
X147890904Y-127681009D01*
X147890904Y-127681009D02*
X147795666Y-127728628D01*
X147795666Y-127728628D02*
X147414714Y-127728628D01*
X148414714Y-127681009D02*
X148748047Y-127681009D01*
X148890904Y-128204819D02*
X148414714Y-128204819D01*
X148414714Y-128204819D02*
X148414714Y-127204819D01*
X148414714Y-127204819D02*
X148890904Y-127204819D01*
X149319476Y-128204819D02*
X149319476Y-127204819D01*
X149319476Y-127204819D02*
X149557571Y-127204819D01*
X149557571Y-127204819D02*
X149700428Y-127252438D01*
X149700428Y-127252438D02*
X149795666Y-127347676D01*
X149795666Y-127347676D02*
X149843285Y-127442914D01*
X149843285Y-127442914D02*
X149890904Y-127633390D01*
X149890904Y-127633390D02*
X149890904Y-127776247D01*
X149890904Y-127776247D02*
X149843285Y-127966723D01*
X149843285Y-127966723D02*
X149795666Y-128061961D01*
X149795666Y-128061961D02*
X149700428Y-128157200D01*
X149700428Y-128157200D02*
X149557571Y-128204819D01*
X149557571Y-128204819D02*
X149319476Y-128204819D01*
D12*
X118438523Y-118985333D02*
X110819476Y-118985333D01*
X141438523Y-118985333D02*
X133819476Y-118985333D01*
X137628999Y-115175809D02*
X137628999Y-122794857D01*
D11*
X234343285Y-113681009D02*
X234486142Y-113728628D01*
X234486142Y-113728628D02*
X234533761Y-113776247D01*
X234533761Y-113776247D02*
X234581380Y-113871485D01*
X234581380Y-113871485D02*
X234581380Y-114014342D01*
X234581380Y-114014342D02*
X234533761Y-114109580D01*
X234533761Y-114109580D02*
X234486142Y-114157200D01*
X234486142Y-114157200D02*
X234390904Y-114204819D01*
X234390904Y-114204819D02*
X234009952Y-114204819D01*
X234009952Y-114204819D02*
X234009952Y-113204819D01*
X234009952Y-113204819D02*
X234343285Y-113204819D01*
X234343285Y-113204819D02*
X234438523Y-113252438D01*
X234438523Y-113252438D02*
X234486142Y-113300057D01*
X234486142Y-113300057D02*
X234533761Y-113395295D01*
X234533761Y-113395295D02*
X234533761Y-113490533D01*
X234533761Y-113490533D02*
X234486142Y-113585771D01*
X234486142Y-113585771D02*
X234438523Y-113633390D01*
X234438523Y-113633390D02*
X234343285Y-113681009D01*
X234343285Y-113681009D02*
X234009952Y-113681009D01*
X234867095Y-113204819D02*
X235438523Y-113204819D01*
X235152809Y-114204819D02*
X235152809Y-113204819D01*
X235676619Y-113204819D02*
X236343285Y-113204819D01*
X236343285Y-113204819D02*
X235914714Y-114204819D01*
X179819476Y-127681009D02*
X179962333Y-127728628D01*
X179962333Y-127728628D02*
X180009952Y-127776247D01*
X180009952Y-127776247D02*
X180057571Y-127871485D01*
X180057571Y-127871485D02*
X180057571Y-128014342D01*
X180057571Y-128014342D02*
X180009952Y-128109580D01*
X180009952Y-128109580D02*
X179962333Y-128157200D01*
X179962333Y-128157200D02*
X179867095Y-128204819D01*
X179867095Y-128204819D02*
X179486143Y-128204819D01*
X179486143Y-128204819D02*
X179486143Y-127204819D01*
X179486143Y-127204819D02*
X179819476Y-127204819D01*
X179819476Y-127204819D02*
X179914714Y-127252438D01*
X179914714Y-127252438D02*
X179962333Y-127300057D01*
X179962333Y-127300057D02*
X180009952Y-127395295D01*
X180009952Y-127395295D02*
X180009952Y-127490533D01*
X180009952Y-127490533D02*
X179962333Y-127585771D01*
X179962333Y-127585771D02*
X179914714Y-127633390D01*
X179914714Y-127633390D02*
X179819476Y-127681009D01*
X179819476Y-127681009D02*
X179486143Y-127681009D01*
X180962333Y-128204819D02*
X180486143Y-128204819D01*
X180486143Y-128204819D02*
X180486143Y-127204819D01*
X181295667Y-127204819D02*
X181295667Y-128014342D01*
X181295667Y-128014342D02*
X181343286Y-128109580D01*
X181343286Y-128109580D02*
X181390905Y-128157200D01*
X181390905Y-128157200D02*
X181486143Y-128204819D01*
X181486143Y-128204819D02*
X181676619Y-128204819D01*
X181676619Y-128204819D02*
X181771857Y-128157200D01*
X181771857Y-128157200D02*
X181819476Y-128109580D01*
X181819476Y-128109580D02*
X181867095Y-128014342D01*
X181867095Y-128014342D02*
X181867095Y-127204819D01*
X182343286Y-127681009D02*
X182676619Y-127681009D01*
X182819476Y-128204819D02*
X182343286Y-128204819D01*
X182343286Y-128204819D02*
X182343286Y-127204819D01*
X182343286Y-127204819D02*
X182819476Y-127204819D01*
X225486142Y-128204819D02*
X225152809Y-127728628D01*
X224914714Y-128204819D02*
X224914714Y-127204819D01*
X224914714Y-127204819D02*
X225295666Y-127204819D01*
X225295666Y-127204819D02*
X225390904Y-127252438D01*
X225390904Y-127252438D02*
X225438523Y-127300057D01*
X225438523Y-127300057D02*
X225486142Y-127395295D01*
X225486142Y-127395295D02*
X225486142Y-127538152D01*
X225486142Y-127538152D02*
X225438523Y-127633390D01*
X225438523Y-127633390D02*
X225390904Y-127681009D01*
X225390904Y-127681009D02*
X225295666Y-127728628D01*
X225295666Y-127728628D02*
X224914714Y-127728628D01*
X225914714Y-127681009D02*
X226248047Y-127681009D01*
X226390904Y-128204819D02*
X225914714Y-128204819D01*
X225914714Y-128204819D02*
X225914714Y-127204819D01*
X225914714Y-127204819D02*
X226390904Y-127204819D01*
X226819476Y-128204819D02*
X226819476Y-127204819D01*
X226819476Y-127204819D02*
X227057571Y-127204819D01*
X227057571Y-127204819D02*
X227200428Y-127252438D01*
X227200428Y-127252438D02*
X227295666Y-127347676D01*
X227295666Y-127347676D02*
X227343285Y-127442914D01*
X227343285Y-127442914D02*
X227390904Y-127633390D01*
X227390904Y-127633390D02*
X227390904Y-127776247D01*
X227390904Y-127776247D02*
X227343285Y-127966723D01*
X227343285Y-127966723D02*
X227295666Y-128061961D01*
X227295666Y-128061961D02*
X227200428Y-128157200D01*
X227200428Y-128157200D02*
X227057571Y-128204819D01*
X227057571Y-128204819D02*
X226819476Y-128204819D01*
D12*
X218938523Y-118985333D02*
X211319476Y-118985333D01*
X215128999Y-115175809D02*
X215128999Y-122794857D01*
X195938523Y-118985333D02*
X188319476Y-118985333D01*
D11*
X156843285Y-137815009D02*
X156986142Y-137862628D01*
X156986142Y-137862628D02*
X157033761Y-137910247D01*
X157033761Y-137910247D02*
X157081380Y-138005485D01*
X157081380Y-138005485D02*
X157081380Y-138148342D01*
X157081380Y-138148342D02*
X157033761Y-138243580D01*
X157033761Y-138243580D02*
X156986142Y-138291200D01*
X156986142Y-138291200D02*
X156890904Y-138338819D01*
X156890904Y-138338819D02*
X156509952Y-138338819D01*
X156509952Y-138338819D02*
X156509952Y-137338819D01*
X156509952Y-137338819D02*
X156843285Y-137338819D01*
X156843285Y-137338819D02*
X156938523Y-137386438D01*
X156938523Y-137386438D02*
X156986142Y-137434057D01*
X156986142Y-137434057D02*
X157033761Y-137529295D01*
X157033761Y-137529295D02*
X157033761Y-137624533D01*
X157033761Y-137624533D02*
X156986142Y-137719771D01*
X156986142Y-137719771D02*
X156938523Y-137767390D01*
X156938523Y-137767390D02*
X156843285Y-137815009D01*
X156843285Y-137815009D02*
X156509952Y-137815009D01*
X157367095Y-137338819D02*
X157938523Y-137338819D01*
X157652809Y-138338819D02*
X157652809Y-137338819D01*
X158748047Y-137338819D02*
X158271857Y-137338819D01*
X158271857Y-137338819D02*
X158224238Y-137815009D01*
X158224238Y-137815009D02*
X158271857Y-137767390D01*
X158271857Y-137767390D02*
X158367095Y-137719771D01*
X158367095Y-137719771D02*
X158605190Y-137719771D01*
X158605190Y-137719771D02*
X158700428Y-137767390D01*
X158700428Y-137767390D02*
X158748047Y-137815009D01*
X158748047Y-137815009D02*
X158795666Y-137910247D01*
X158795666Y-137910247D02*
X158795666Y-138148342D01*
X158795666Y-138148342D02*
X158748047Y-138243580D01*
X158748047Y-138243580D02*
X158700428Y-138291200D01*
X158700428Y-138291200D02*
X158605190Y-138338819D01*
X158605190Y-138338819D02*
X158367095Y-138338819D01*
X158367095Y-138338819D02*
X158271857Y-138291200D01*
X158271857Y-138291200D02*
X158224238Y-138243580D01*
X147986142Y-152338819D02*
X147652809Y-151862628D01*
X147414714Y-152338819D02*
X147414714Y-151338819D01*
X147414714Y-151338819D02*
X147795666Y-151338819D01*
X147795666Y-151338819D02*
X147890904Y-151386438D01*
X147890904Y-151386438D02*
X147938523Y-151434057D01*
X147938523Y-151434057D02*
X147986142Y-151529295D01*
X147986142Y-151529295D02*
X147986142Y-151672152D01*
X147986142Y-151672152D02*
X147938523Y-151767390D01*
X147938523Y-151767390D02*
X147890904Y-151815009D01*
X147890904Y-151815009D02*
X147795666Y-151862628D01*
X147795666Y-151862628D02*
X147414714Y-151862628D01*
X148414714Y-151815009D02*
X148748047Y-151815009D01*
X148890904Y-152338819D02*
X148414714Y-152338819D01*
X148414714Y-152338819D02*
X148414714Y-151338819D01*
X148414714Y-151338819D02*
X148890904Y-151338819D01*
X149319476Y-152338819D02*
X149319476Y-151338819D01*
X149319476Y-151338819D02*
X149557571Y-151338819D01*
X149557571Y-151338819D02*
X149700428Y-151386438D01*
X149700428Y-151386438D02*
X149795666Y-151481676D01*
X149795666Y-151481676D02*
X149843285Y-151576914D01*
X149843285Y-151576914D02*
X149890904Y-151767390D01*
X149890904Y-151767390D02*
X149890904Y-151910247D01*
X149890904Y-151910247D02*
X149843285Y-152100723D01*
X149843285Y-152100723D02*
X149795666Y-152195961D01*
X149795666Y-152195961D02*
X149700428Y-152291200D01*
X149700428Y-152291200D02*
X149557571Y-152338819D01*
X149557571Y-152338819D02*
X149319476Y-152338819D01*
D12*
X141438523Y-143119333D02*
X133819476Y-143119333D01*
X137628999Y-139309809D02*
X137628999Y-146928857D01*
X118438523Y-143119333D02*
X110819476Y-143119333D01*
D11*
X102319476Y-151815009D02*
X102462333Y-151862628D01*
X102462333Y-151862628D02*
X102509952Y-151910247D01*
X102509952Y-151910247D02*
X102557571Y-152005485D01*
X102557571Y-152005485D02*
X102557571Y-152148342D01*
X102557571Y-152148342D02*
X102509952Y-152243580D01*
X102509952Y-152243580D02*
X102462333Y-152291200D01*
X102462333Y-152291200D02*
X102367095Y-152338819D01*
X102367095Y-152338819D02*
X101986143Y-152338819D01*
X101986143Y-152338819D02*
X101986143Y-151338819D01*
X101986143Y-151338819D02*
X102319476Y-151338819D01*
X102319476Y-151338819D02*
X102414714Y-151386438D01*
X102414714Y-151386438D02*
X102462333Y-151434057D01*
X102462333Y-151434057D02*
X102509952Y-151529295D01*
X102509952Y-151529295D02*
X102509952Y-151624533D01*
X102509952Y-151624533D02*
X102462333Y-151719771D01*
X102462333Y-151719771D02*
X102414714Y-151767390D01*
X102414714Y-151767390D02*
X102319476Y-151815009D01*
X102319476Y-151815009D02*
X101986143Y-151815009D01*
X103462333Y-152338819D02*
X102986143Y-152338819D01*
X102986143Y-152338819D02*
X102986143Y-151338819D01*
X103795667Y-151338819D02*
X103795667Y-152148342D01*
X103795667Y-152148342D02*
X103843286Y-152243580D01*
X103843286Y-152243580D02*
X103890905Y-152291200D01*
X103890905Y-152291200D02*
X103986143Y-152338819D01*
X103986143Y-152338819D02*
X104176619Y-152338819D01*
X104176619Y-152338819D02*
X104271857Y-152291200D01*
X104271857Y-152291200D02*
X104319476Y-152243580D01*
X104319476Y-152243580D02*
X104367095Y-152148342D01*
X104367095Y-152148342D02*
X104367095Y-151338819D01*
X104843286Y-151815009D02*
X105176619Y-151815009D01*
X105319476Y-152338819D02*
X104843286Y-152338819D01*
X104843286Y-152338819D02*
X104843286Y-151338819D01*
X104843286Y-151338819D02*
X105319476Y-151338819D01*
X234343285Y-161949009D02*
X234486142Y-161996628D01*
X234486142Y-161996628D02*
X234533761Y-162044247D01*
X234533761Y-162044247D02*
X234581380Y-162139485D01*
X234581380Y-162139485D02*
X234581380Y-162282342D01*
X234581380Y-162282342D02*
X234533761Y-162377580D01*
X234533761Y-162377580D02*
X234486142Y-162425200D01*
X234486142Y-162425200D02*
X234390904Y-162472819D01*
X234390904Y-162472819D02*
X234009952Y-162472819D01*
X234009952Y-162472819D02*
X234009952Y-161472819D01*
X234009952Y-161472819D02*
X234343285Y-161472819D01*
X234343285Y-161472819D02*
X234438523Y-161520438D01*
X234438523Y-161520438D02*
X234486142Y-161568057D01*
X234486142Y-161568057D02*
X234533761Y-161663295D01*
X234533761Y-161663295D02*
X234533761Y-161758533D01*
X234533761Y-161758533D02*
X234486142Y-161853771D01*
X234486142Y-161853771D02*
X234438523Y-161901390D01*
X234438523Y-161901390D02*
X234343285Y-161949009D01*
X234343285Y-161949009D02*
X234009952Y-161949009D01*
X234867095Y-161472819D02*
X235438523Y-161472819D01*
X235152809Y-162472819D02*
X235152809Y-161472819D01*
X235819476Y-162472819D02*
X236009952Y-162472819D01*
X236009952Y-162472819D02*
X236105190Y-162425200D01*
X236105190Y-162425200D02*
X236152809Y-162377580D01*
X236152809Y-162377580D02*
X236248047Y-162234723D01*
X236248047Y-162234723D02*
X236295666Y-162044247D01*
X236295666Y-162044247D02*
X236295666Y-161663295D01*
X236295666Y-161663295D02*
X236248047Y-161568057D01*
X236248047Y-161568057D02*
X236200428Y-161520438D01*
X236200428Y-161520438D02*
X236105190Y-161472819D01*
X236105190Y-161472819D02*
X235914714Y-161472819D01*
X235914714Y-161472819D02*
X235819476Y-161520438D01*
X235819476Y-161520438D02*
X235771857Y-161568057D01*
X235771857Y-161568057D02*
X235724238Y-161663295D01*
X235724238Y-161663295D02*
X235724238Y-161901390D01*
X235724238Y-161901390D02*
X235771857Y-161996628D01*
X235771857Y-161996628D02*
X235819476Y-162044247D01*
X235819476Y-162044247D02*
X235914714Y-162091866D01*
X235914714Y-162091866D02*
X236105190Y-162091866D01*
X236105190Y-162091866D02*
X236200428Y-162044247D01*
X236200428Y-162044247D02*
X236248047Y-161996628D01*
X236248047Y-161996628D02*
X236295666Y-161901390D01*
D12*
X218938523Y-167253333D02*
X211319476Y-167253333D01*
X215128999Y-163443809D02*
X215128999Y-171062857D01*
X195938523Y-167253333D02*
X188319476Y-167253333D01*
D11*
X225486142Y-176472819D02*
X225152809Y-175996628D01*
X224914714Y-176472819D02*
X224914714Y-175472819D01*
X224914714Y-175472819D02*
X225295666Y-175472819D01*
X225295666Y-175472819D02*
X225390904Y-175520438D01*
X225390904Y-175520438D02*
X225438523Y-175568057D01*
X225438523Y-175568057D02*
X225486142Y-175663295D01*
X225486142Y-175663295D02*
X225486142Y-175806152D01*
X225486142Y-175806152D02*
X225438523Y-175901390D01*
X225438523Y-175901390D02*
X225390904Y-175949009D01*
X225390904Y-175949009D02*
X225295666Y-175996628D01*
X225295666Y-175996628D02*
X224914714Y-175996628D01*
X225914714Y-175949009D02*
X226248047Y-175949009D01*
X226390904Y-176472819D02*
X225914714Y-176472819D01*
X225914714Y-176472819D02*
X225914714Y-175472819D01*
X225914714Y-175472819D02*
X226390904Y-175472819D01*
X226819476Y-176472819D02*
X226819476Y-175472819D01*
X226819476Y-175472819D02*
X227057571Y-175472819D01*
X227057571Y-175472819D02*
X227200428Y-175520438D01*
X227200428Y-175520438D02*
X227295666Y-175615676D01*
X227295666Y-175615676D02*
X227343285Y-175710914D01*
X227343285Y-175710914D02*
X227390904Y-175901390D01*
X227390904Y-175901390D02*
X227390904Y-176044247D01*
X227390904Y-176044247D02*
X227343285Y-176234723D01*
X227343285Y-176234723D02*
X227295666Y-176329961D01*
X227295666Y-176329961D02*
X227200428Y-176425200D01*
X227200428Y-176425200D02*
X227057571Y-176472819D01*
X227057571Y-176472819D02*
X226819476Y-176472819D01*
X179819476Y-175949009D02*
X179962333Y-175996628D01*
X179962333Y-175996628D02*
X180009952Y-176044247D01*
X180009952Y-176044247D02*
X180057571Y-176139485D01*
X180057571Y-176139485D02*
X180057571Y-176282342D01*
X180057571Y-176282342D02*
X180009952Y-176377580D01*
X180009952Y-176377580D02*
X179962333Y-176425200D01*
X179962333Y-176425200D02*
X179867095Y-176472819D01*
X179867095Y-176472819D02*
X179486143Y-176472819D01*
X179486143Y-176472819D02*
X179486143Y-175472819D01*
X179486143Y-175472819D02*
X179819476Y-175472819D01*
X179819476Y-175472819D02*
X179914714Y-175520438D01*
X179914714Y-175520438D02*
X179962333Y-175568057D01*
X179962333Y-175568057D02*
X180009952Y-175663295D01*
X180009952Y-175663295D02*
X180009952Y-175758533D01*
X180009952Y-175758533D02*
X179962333Y-175853771D01*
X179962333Y-175853771D02*
X179914714Y-175901390D01*
X179914714Y-175901390D02*
X179819476Y-175949009D01*
X179819476Y-175949009D02*
X179486143Y-175949009D01*
X180962333Y-176472819D02*
X180486143Y-176472819D01*
X180486143Y-176472819D02*
X180486143Y-175472819D01*
X181295667Y-175472819D02*
X181295667Y-176282342D01*
X181295667Y-176282342D02*
X181343286Y-176377580D01*
X181343286Y-176377580D02*
X181390905Y-176425200D01*
X181390905Y-176425200D02*
X181486143Y-176472819D01*
X181486143Y-176472819D02*
X181676619Y-176472819D01*
X181676619Y-176472819D02*
X181771857Y-176425200D01*
X181771857Y-176425200D02*
X181819476Y-176377580D01*
X181819476Y-176377580D02*
X181867095Y-176282342D01*
X181867095Y-176282342D02*
X181867095Y-175472819D01*
X182343286Y-175949009D02*
X182676619Y-175949009D01*
X182819476Y-176472819D02*
X182343286Y-176472819D01*
X182343286Y-176472819D02*
X182343286Y-175472819D01*
X182343286Y-175472819D02*
X182819476Y-175472819D01*
X130006666Y-278744819D02*
X130006666Y-279459104D01*
X130006666Y-279459104D02*
X129959047Y-279601961D01*
X129959047Y-279601961D02*
X129863809Y-279697200D01*
X129863809Y-279697200D02*
X129720952Y-279744819D01*
X129720952Y-279744819D02*
X129625714Y-279744819D01*
X130959047Y-278744819D02*
X130482857Y-278744819D01*
X130482857Y-278744819D02*
X130435238Y-279221009D01*
X130435238Y-279221009D02*
X130482857Y-279173390D01*
X130482857Y-279173390D02*
X130578095Y-279125771D01*
X130578095Y-279125771D02*
X130816190Y-279125771D01*
X130816190Y-279125771D02*
X130911428Y-279173390D01*
X130911428Y-279173390D02*
X130959047Y-279221009D01*
X130959047Y-279221009D02*
X131006666Y-279316247D01*
X131006666Y-279316247D02*
X131006666Y-279554342D01*
X131006666Y-279554342D02*
X130959047Y-279649580D01*
X130959047Y-279649580D02*
X130911428Y-279697200D01*
X130911428Y-279697200D02*
X130816190Y-279744819D01*
X130816190Y-279744819D02*
X130578095Y-279744819D01*
X130578095Y-279744819D02*
X130482857Y-279697200D01*
X130482857Y-279697200D02*
X130435238Y-279649580D01*
X217181666Y-285699819D02*
X217181666Y-286414104D01*
X217181666Y-286414104D02*
X217134047Y-286556961D01*
X217134047Y-286556961D02*
X217038809Y-286652200D01*
X217038809Y-286652200D02*
X216895952Y-286699819D01*
X216895952Y-286699819D02*
X216800714Y-286699819D01*
X218181666Y-286699819D02*
X217610238Y-286699819D01*
X217895952Y-286699819D02*
X217895952Y-285699819D01*
X217895952Y-285699819D02*
X217800714Y-285842676D01*
X217800714Y-285842676D02*
X217705476Y-285937914D01*
X217705476Y-285937914D02*
X217610238Y-285985533D01*
X180916666Y-278704819D02*
X180916666Y-279419104D01*
X180916666Y-279419104D02*
X180869047Y-279561961D01*
X180869047Y-279561961D02*
X180773809Y-279657200D01*
X180773809Y-279657200D02*
X180630952Y-279704819D01*
X180630952Y-279704819D02*
X180535714Y-279704819D01*
X181345238Y-278800057D02*
X181392857Y-278752438D01*
X181392857Y-278752438D02*
X181488095Y-278704819D01*
X181488095Y-278704819D02*
X181726190Y-278704819D01*
X181726190Y-278704819D02*
X181821428Y-278752438D01*
X181821428Y-278752438D02*
X181869047Y-278800057D01*
X181869047Y-278800057D02*
X181916666Y-278895295D01*
X181916666Y-278895295D02*
X181916666Y-278990533D01*
X181916666Y-278990533D02*
X181869047Y-279133390D01*
X181869047Y-279133390D02*
X181297619Y-279704819D01*
X181297619Y-279704819D02*
X181916666Y-279704819D01*
X156843285Y-186084009D02*
X156986142Y-186131628D01*
X156986142Y-186131628D02*
X157033761Y-186179247D01*
X157033761Y-186179247D02*
X157081380Y-186274485D01*
X157081380Y-186274485D02*
X157081380Y-186417342D01*
X157081380Y-186417342D02*
X157033761Y-186512580D01*
X157033761Y-186512580D02*
X156986142Y-186560200D01*
X156986142Y-186560200D02*
X156890904Y-186607819D01*
X156890904Y-186607819D02*
X156509952Y-186607819D01*
X156509952Y-186607819D02*
X156509952Y-185607819D01*
X156509952Y-185607819D02*
X156843285Y-185607819D01*
X156843285Y-185607819D02*
X156938523Y-185655438D01*
X156938523Y-185655438D02*
X156986142Y-185703057D01*
X156986142Y-185703057D02*
X157033761Y-185798295D01*
X157033761Y-185798295D02*
X157033761Y-185893533D01*
X157033761Y-185893533D02*
X156986142Y-185988771D01*
X156986142Y-185988771D02*
X156938523Y-186036390D01*
X156938523Y-186036390D02*
X156843285Y-186084009D01*
X156843285Y-186084009D02*
X156509952Y-186084009D01*
X157367095Y-185607819D02*
X157938523Y-185607819D01*
X157652809Y-186607819D02*
X157652809Y-185607819D01*
X158176619Y-185607819D02*
X158795666Y-185607819D01*
X158795666Y-185607819D02*
X158462333Y-185988771D01*
X158462333Y-185988771D02*
X158605190Y-185988771D01*
X158605190Y-185988771D02*
X158700428Y-186036390D01*
X158700428Y-186036390D02*
X158748047Y-186084009D01*
X158748047Y-186084009D02*
X158795666Y-186179247D01*
X158795666Y-186179247D02*
X158795666Y-186417342D01*
X158795666Y-186417342D02*
X158748047Y-186512580D01*
X158748047Y-186512580D02*
X158700428Y-186560200D01*
X158700428Y-186560200D02*
X158605190Y-186607819D01*
X158605190Y-186607819D02*
X158319476Y-186607819D01*
X158319476Y-186607819D02*
X158224238Y-186560200D01*
X158224238Y-186560200D02*
X158176619Y-186512580D01*
D12*
X118438523Y-191388333D02*
X110819476Y-191388333D01*
X141438523Y-191388333D02*
X133819476Y-191388333D01*
X137628999Y-187578809D02*
X137628999Y-195197857D01*
D11*
X102319476Y-200084009D02*
X102462333Y-200131628D01*
X102462333Y-200131628D02*
X102509952Y-200179247D01*
X102509952Y-200179247D02*
X102557571Y-200274485D01*
X102557571Y-200274485D02*
X102557571Y-200417342D01*
X102557571Y-200417342D02*
X102509952Y-200512580D01*
X102509952Y-200512580D02*
X102462333Y-200560200D01*
X102462333Y-200560200D02*
X102367095Y-200607819D01*
X102367095Y-200607819D02*
X101986143Y-200607819D01*
X101986143Y-200607819D02*
X101986143Y-199607819D01*
X101986143Y-199607819D02*
X102319476Y-199607819D01*
X102319476Y-199607819D02*
X102414714Y-199655438D01*
X102414714Y-199655438D02*
X102462333Y-199703057D01*
X102462333Y-199703057D02*
X102509952Y-199798295D01*
X102509952Y-199798295D02*
X102509952Y-199893533D01*
X102509952Y-199893533D02*
X102462333Y-199988771D01*
X102462333Y-199988771D02*
X102414714Y-200036390D01*
X102414714Y-200036390D02*
X102319476Y-200084009D01*
X102319476Y-200084009D02*
X101986143Y-200084009D01*
X103462333Y-200607819D02*
X102986143Y-200607819D01*
X102986143Y-200607819D02*
X102986143Y-199607819D01*
X103795667Y-199607819D02*
X103795667Y-200417342D01*
X103795667Y-200417342D02*
X103843286Y-200512580D01*
X103843286Y-200512580D02*
X103890905Y-200560200D01*
X103890905Y-200560200D02*
X103986143Y-200607819D01*
X103986143Y-200607819D02*
X104176619Y-200607819D01*
X104176619Y-200607819D02*
X104271857Y-200560200D01*
X104271857Y-200560200D02*
X104319476Y-200512580D01*
X104319476Y-200512580D02*
X104367095Y-200417342D01*
X104367095Y-200417342D02*
X104367095Y-199607819D01*
X104843286Y-200084009D02*
X105176619Y-200084009D01*
X105319476Y-200607819D02*
X104843286Y-200607819D01*
X104843286Y-200607819D02*
X104843286Y-199607819D01*
X104843286Y-199607819D02*
X105319476Y-199607819D01*
X147986142Y-200607819D02*
X147652809Y-200131628D01*
X147414714Y-200607819D02*
X147414714Y-199607819D01*
X147414714Y-199607819D02*
X147795666Y-199607819D01*
X147795666Y-199607819D02*
X147890904Y-199655438D01*
X147890904Y-199655438D02*
X147938523Y-199703057D01*
X147938523Y-199703057D02*
X147986142Y-199798295D01*
X147986142Y-199798295D02*
X147986142Y-199941152D01*
X147986142Y-199941152D02*
X147938523Y-200036390D01*
X147938523Y-200036390D02*
X147890904Y-200084009D01*
X147890904Y-200084009D02*
X147795666Y-200131628D01*
X147795666Y-200131628D02*
X147414714Y-200131628D01*
X148414714Y-200084009D02*
X148748047Y-200084009D01*
X148890904Y-200607819D02*
X148414714Y-200607819D01*
X148414714Y-200607819D02*
X148414714Y-199607819D01*
X148414714Y-199607819D02*
X148890904Y-199607819D01*
X149319476Y-200607819D02*
X149319476Y-199607819D01*
X149319476Y-199607819D02*
X149557571Y-199607819D01*
X149557571Y-199607819D02*
X149700428Y-199655438D01*
X149700428Y-199655438D02*
X149795666Y-199750676D01*
X149795666Y-199750676D02*
X149843285Y-199845914D01*
X149843285Y-199845914D02*
X149890904Y-200036390D01*
X149890904Y-200036390D02*
X149890904Y-200179247D01*
X149890904Y-200179247D02*
X149843285Y-200369723D01*
X149843285Y-200369723D02*
X149795666Y-200464961D01*
X149795666Y-200464961D02*
X149700428Y-200560200D01*
X149700428Y-200560200D02*
X149557571Y-200607819D01*
X149557571Y-200607819D02*
X149319476Y-200607819D01*
X233867095Y-186084009D02*
X234009952Y-186131628D01*
X234009952Y-186131628D02*
X234057571Y-186179247D01*
X234057571Y-186179247D02*
X234105190Y-186274485D01*
X234105190Y-186274485D02*
X234105190Y-186417342D01*
X234105190Y-186417342D02*
X234057571Y-186512580D01*
X234057571Y-186512580D02*
X234009952Y-186560200D01*
X234009952Y-186560200D02*
X233914714Y-186607819D01*
X233914714Y-186607819D02*
X233533762Y-186607819D01*
X233533762Y-186607819D02*
X233533762Y-185607819D01*
X233533762Y-185607819D02*
X233867095Y-185607819D01*
X233867095Y-185607819D02*
X233962333Y-185655438D01*
X233962333Y-185655438D02*
X234009952Y-185703057D01*
X234009952Y-185703057D02*
X234057571Y-185798295D01*
X234057571Y-185798295D02*
X234057571Y-185893533D01*
X234057571Y-185893533D02*
X234009952Y-185988771D01*
X234009952Y-185988771D02*
X233962333Y-186036390D01*
X233962333Y-186036390D02*
X233867095Y-186084009D01*
X233867095Y-186084009D02*
X233533762Y-186084009D01*
X234390905Y-185607819D02*
X234962333Y-185607819D01*
X234676619Y-186607819D02*
X234676619Y-185607819D01*
X235819476Y-186607819D02*
X235248048Y-186607819D01*
X235533762Y-186607819D02*
X235533762Y-185607819D01*
X235533762Y-185607819D02*
X235438524Y-185750676D01*
X235438524Y-185750676D02*
X235343286Y-185845914D01*
X235343286Y-185845914D02*
X235248048Y-185893533D01*
X236438524Y-185607819D02*
X236533762Y-185607819D01*
X236533762Y-185607819D02*
X236629000Y-185655438D01*
X236629000Y-185655438D02*
X236676619Y-185703057D01*
X236676619Y-185703057D02*
X236724238Y-185798295D01*
X236724238Y-185798295D02*
X236771857Y-185988771D01*
X236771857Y-185988771D02*
X236771857Y-186226866D01*
X236771857Y-186226866D02*
X236724238Y-186417342D01*
X236724238Y-186417342D02*
X236676619Y-186512580D01*
X236676619Y-186512580D02*
X236629000Y-186560200D01*
X236629000Y-186560200D02*
X236533762Y-186607819D01*
X236533762Y-186607819D02*
X236438524Y-186607819D01*
X236438524Y-186607819D02*
X236343286Y-186560200D01*
X236343286Y-186560200D02*
X236295667Y-186512580D01*
X236295667Y-186512580D02*
X236248048Y-186417342D01*
X236248048Y-186417342D02*
X236200429Y-186226866D01*
X236200429Y-186226866D02*
X236200429Y-185988771D01*
X236200429Y-185988771D02*
X236248048Y-185798295D01*
X236248048Y-185798295D02*
X236295667Y-185703057D01*
X236295667Y-185703057D02*
X236343286Y-185655438D01*
X236343286Y-185655438D02*
X236438524Y-185607819D01*
D12*
X195938523Y-191388333D02*
X188319476Y-191388333D01*
D11*
X225486142Y-200607819D02*
X225152809Y-200131628D01*
X224914714Y-200607819D02*
X224914714Y-199607819D01*
X224914714Y-199607819D02*
X225295666Y-199607819D01*
X225295666Y-199607819D02*
X225390904Y-199655438D01*
X225390904Y-199655438D02*
X225438523Y-199703057D01*
X225438523Y-199703057D02*
X225486142Y-199798295D01*
X225486142Y-199798295D02*
X225486142Y-199941152D01*
X225486142Y-199941152D02*
X225438523Y-200036390D01*
X225438523Y-200036390D02*
X225390904Y-200084009D01*
X225390904Y-200084009D02*
X225295666Y-200131628D01*
X225295666Y-200131628D02*
X224914714Y-200131628D01*
X225914714Y-200084009D02*
X226248047Y-200084009D01*
X226390904Y-200607819D02*
X225914714Y-200607819D01*
X225914714Y-200607819D02*
X225914714Y-199607819D01*
X225914714Y-199607819D02*
X226390904Y-199607819D01*
X226819476Y-200607819D02*
X226819476Y-199607819D01*
X226819476Y-199607819D02*
X227057571Y-199607819D01*
X227057571Y-199607819D02*
X227200428Y-199655438D01*
X227200428Y-199655438D02*
X227295666Y-199750676D01*
X227295666Y-199750676D02*
X227343285Y-199845914D01*
X227343285Y-199845914D02*
X227390904Y-200036390D01*
X227390904Y-200036390D02*
X227390904Y-200179247D01*
X227390904Y-200179247D02*
X227343285Y-200369723D01*
X227343285Y-200369723D02*
X227295666Y-200464961D01*
X227295666Y-200464961D02*
X227200428Y-200560200D01*
X227200428Y-200560200D02*
X227057571Y-200607819D01*
X227057571Y-200607819D02*
X226819476Y-200607819D01*
X179819476Y-200084009D02*
X179962333Y-200131628D01*
X179962333Y-200131628D02*
X180009952Y-200179247D01*
X180009952Y-200179247D02*
X180057571Y-200274485D01*
X180057571Y-200274485D02*
X180057571Y-200417342D01*
X180057571Y-200417342D02*
X180009952Y-200512580D01*
X180009952Y-200512580D02*
X179962333Y-200560200D01*
X179962333Y-200560200D02*
X179867095Y-200607819D01*
X179867095Y-200607819D02*
X179486143Y-200607819D01*
X179486143Y-200607819D02*
X179486143Y-199607819D01*
X179486143Y-199607819D02*
X179819476Y-199607819D01*
X179819476Y-199607819D02*
X179914714Y-199655438D01*
X179914714Y-199655438D02*
X179962333Y-199703057D01*
X179962333Y-199703057D02*
X180009952Y-199798295D01*
X180009952Y-199798295D02*
X180009952Y-199893533D01*
X180009952Y-199893533D02*
X179962333Y-199988771D01*
X179962333Y-199988771D02*
X179914714Y-200036390D01*
X179914714Y-200036390D02*
X179819476Y-200084009D01*
X179819476Y-200084009D02*
X179486143Y-200084009D01*
X180962333Y-200607819D02*
X180486143Y-200607819D01*
X180486143Y-200607819D02*
X180486143Y-199607819D01*
X181295667Y-199607819D02*
X181295667Y-200417342D01*
X181295667Y-200417342D02*
X181343286Y-200512580D01*
X181343286Y-200512580D02*
X181390905Y-200560200D01*
X181390905Y-200560200D02*
X181486143Y-200607819D01*
X181486143Y-200607819D02*
X181676619Y-200607819D01*
X181676619Y-200607819D02*
X181771857Y-200560200D01*
X181771857Y-200560200D02*
X181819476Y-200512580D01*
X181819476Y-200512580D02*
X181867095Y-200417342D01*
X181867095Y-200417342D02*
X181867095Y-199607819D01*
X182343286Y-200084009D02*
X182676619Y-200084009D01*
X182819476Y-200607819D02*
X182343286Y-200607819D01*
X182343286Y-200607819D02*
X182343286Y-199607819D01*
X182343286Y-199607819D02*
X182819476Y-199607819D01*
D12*
X218938523Y-191388333D02*
X211319476Y-191388333D01*
X215128999Y-187578809D02*
X215128999Y-195197857D01*
D11*
X156843285Y-161949009D02*
X156986142Y-161996628D01*
X156986142Y-161996628D02*
X157033761Y-162044247D01*
X157033761Y-162044247D02*
X157081380Y-162139485D01*
X157081380Y-162139485D02*
X157081380Y-162282342D01*
X157081380Y-162282342D02*
X157033761Y-162377580D01*
X157033761Y-162377580D02*
X156986142Y-162425200D01*
X156986142Y-162425200D02*
X156890904Y-162472819D01*
X156890904Y-162472819D02*
X156509952Y-162472819D01*
X156509952Y-162472819D02*
X156509952Y-161472819D01*
X156509952Y-161472819D02*
X156843285Y-161472819D01*
X156843285Y-161472819D02*
X156938523Y-161520438D01*
X156938523Y-161520438D02*
X156986142Y-161568057D01*
X156986142Y-161568057D02*
X157033761Y-161663295D01*
X157033761Y-161663295D02*
X157033761Y-161758533D01*
X157033761Y-161758533D02*
X156986142Y-161853771D01*
X156986142Y-161853771D02*
X156938523Y-161901390D01*
X156938523Y-161901390D02*
X156843285Y-161949009D01*
X156843285Y-161949009D02*
X156509952Y-161949009D01*
X157367095Y-161472819D02*
X157938523Y-161472819D01*
X157652809Y-162472819D02*
X157652809Y-161472819D01*
X158700428Y-161806152D02*
X158700428Y-162472819D01*
X158462333Y-161425200D02*
X158224238Y-162139485D01*
X158224238Y-162139485D02*
X158843285Y-162139485D01*
D12*
X141438523Y-167253333D02*
X133819476Y-167253333D01*
X137628999Y-163443809D02*
X137628999Y-171062857D01*
X118438523Y-167253333D02*
X110819476Y-167253333D01*
D11*
X147986142Y-176472819D02*
X147652809Y-175996628D01*
X147414714Y-176472819D02*
X147414714Y-175472819D01*
X147414714Y-175472819D02*
X147795666Y-175472819D01*
X147795666Y-175472819D02*
X147890904Y-175520438D01*
X147890904Y-175520438D02*
X147938523Y-175568057D01*
X147938523Y-175568057D02*
X147986142Y-175663295D01*
X147986142Y-175663295D02*
X147986142Y-175806152D01*
X147986142Y-175806152D02*
X147938523Y-175901390D01*
X147938523Y-175901390D02*
X147890904Y-175949009D01*
X147890904Y-175949009D02*
X147795666Y-175996628D01*
X147795666Y-175996628D02*
X147414714Y-175996628D01*
X148414714Y-175949009D02*
X148748047Y-175949009D01*
X148890904Y-176472819D02*
X148414714Y-176472819D01*
X148414714Y-176472819D02*
X148414714Y-175472819D01*
X148414714Y-175472819D02*
X148890904Y-175472819D01*
X149319476Y-176472819D02*
X149319476Y-175472819D01*
X149319476Y-175472819D02*
X149557571Y-175472819D01*
X149557571Y-175472819D02*
X149700428Y-175520438D01*
X149700428Y-175520438D02*
X149795666Y-175615676D01*
X149795666Y-175615676D02*
X149843285Y-175710914D01*
X149843285Y-175710914D02*
X149890904Y-175901390D01*
X149890904Y-175901390D02*
X149890904Y-176044247D01*
X149890904Y-176044247D02*
X149843285Y-176234723D01*
X149843285Y-176234723D02*
X149795666Y-176329961D01*
X149795666Y-176329961D02*
X149700428Y-176425200D01*
X149700428Y-176425200D02*
X149557571Y-176472819D01*
X149557571Y-176472819D02*
X149319476Y-176472819D01*
X102319476Y-175949009D02*
X102462333Y-175996628D01*
X102462333Y-175996628D02*
X102509952Y-176044247D01*
X102509952Y-176044247D02*
X102557571Y-176139485D01*
X102557571Y-176139485D02*
X102557571Y-176282342D01*
X102557571Y-176282342D02*
X102509952Y-176377580D01*
X102509952Y-176377580D02*
X102462333Y-176425200D01*
X102462333Y-176425200D02*
X102367095Y-176472819D01*
X102367095Y-176472819D02*
X101986143Y-176472819D01*
X101986143Y-176472819D02*
X101986143Y-175472819D01*
X101986143Y-175472819D02*
X102319476Y-175472819D01*
X102319476Y-175472819D02*
X102414714Y-175520438D01*
X102414714Y-175520438D02*
X102462333Y-175568057D01*
X102462333Y-175568057D02*
X102509952Y-175663295D01*
X102509952Y-175663295D02*
X102509952Y-175758533D01*
X102509952Y-175758533D02*
X102462333Y-175853771D01*
X102462333Y-175853771D02*
X102414714Y-175901390D01*
X102414714Y-175901390D02*
X102319476Y-175949009D01*
X102319476Y-175949009D02*
X101986143Y-175949009D01*
X103462333Y-176472819D02*
X102986143Y-176472819D01*
X102986143Y-176472819D02*
X102986143Y-175472819D01*
X103795667Y-175472819D02*
X103795667Y-176282342D01*
X103795667Y-176282342D02*
X103843286Y-176377580D01*
X103843286Y-176377580D02*
X103890905Y-176425200D01*
X103890905Y-176425200D02*
X103986143Y-176472819D01*
X103986143Y-176472819D02*
X104176619Y-176472819D01*
X104176619Y-176472819D02*
X104271857Y-176425200D01*
X104271857Y-176425200D02*
X104319476Y-176377580D01*
X104319476Y-176377580D02*
X104367095Y-176282342D01*
X104367095Y-176282342D02*
X104367095Y-175472819D01*
X104843286Y-175949009D02*
X105176619Y-175949009D01*
X105319476Y-176472819D02*
X104843286Y-176472819D01*
X104843286Y-176472819D02*
X104843286Y-175472819D01*
X104843286Y-175472819D02*
X105319476Y-175472819D01*
X233867095Y-210218009D02*
X234009952Y-210265628D01*
X234009952Y-210265628D02*
X234057571Y-210313247D01*
X234057571Y-210313247D02*
X234105190Y-210408485D01*
X234105190Y-210408485D02*
X234105190Y-210551342D01*
X234105190Y-210551342D02*
X234057571Y-210646580D01*
X234057571Y-210646580D02*
X234009952Y-210694200D01*
X234009952Y-210694200D02*
X233914714Y-210741819D01*
X233914714Y-210741819D02*
X233533762Y-210741819D01*
X233533762Y-210741819D02*
X233533762Y-209741819D01*
X233533762Y-209741819D02*
X233867095Y-209741819D01*
X233867095Y-209741819D02*
X233962333Y-209789438D01*
X233962333Y-209789438D02*
X234009952Y-209837057D01*
X234009952Y-209837057D02*
X234057571Y-209932295D01*
X234057571Y-209932295D02*
X234057571Y-210027533D01*
X234057571Y-210027533D02*
X234009952Y-210122771D01*
X234009952Y-210122771D02*
X233962333Y-210170390D01*
X233962333Y-210170390D02*
X233867095Y-210218009D01*
X233867095Y-210218009D02*
X233533762Y-210218009D01*
X234390905Y-209741819D02*
X234962333Y-209741819D01*
X234676619Y-210741819D02*
X234676619Y-209741819D01*
X235819476Y-210741819D02*
X235248048Y-210741819D01*
X235533762Y-210741819D02*
X235533762Y-209741819D01*
X235533762Y-209741819D02*
X235438524Y-209884676D01*
X235438524Y-209884676D02*
X235343286Y-209979914D01*
X235343286Y-209979914D02*
X235248048Y-210027533D01*
X236771857Y-210741819D02*
X236200429Y-210741819D01*
X236486143Y-210741819D02*
X236486143Y-209741819D01*
X236486143Y-209741819D02*
X236390905Y-209884676D01*
X236390905Y-209884676D02*
X236295667Y-209979914D01*
X236295667Y-209979914D02*
X236200429Y-210027533D01*
X225486142Y-224741819D02*
X225152809Y-224265628D01*
X224914714Y-224741819D02*
X224914714Y-223741819D01*
X224914714Y-223741819D02*
X225295666Y-223741819D01*
X225295666Y-223741819D02*
X225390904Y-223789438D01*
X225390904Y-223789438D02*
X225438523Y-223837057D01*
X225438523Y-223837057D02*
X225486142Y-223932295D01*
X225486142Y-223932295D02*
X225486142Y-224075152D01*
X225486142Y-224075152D02*
X225438523Y-224170390D01*
X225438523Y-224170390D02*
X225390904Y-224218009D01*
X225390904Y-224218009D02*
X225295666Y-224265628D01*
X225295666Y-224265628D02*
X224914714Y-224265628D01*
X225914714Y-224218009D02*
X226248047Y-224218009D01*
X226390904Y-224741819D02*
X225914714Y-224741819D01*
X225914714Y-224741819D02*
X225914714Y-223741819D01*
X225914714Y-223741819D02*
X226390904Y-223741819D01*
X226819476Y-224741819D02*
X226819476Y-223741819D01*
X226819476Y-223741819D02*
X227057571Y-223741819D01*
X227057571Y-223741819D02*
X227200428Y-223789438D01*
X227200428Y-223789438D02*
X227295666Y-223884676D01*
X227295666Y-223884676D02*
X227343285Y-223979914D01*
X227343285Y-223979914D02*
X227390904Y-224170390D01*
X227390904Y-224170390D02*
X227390904Y-224313247D01*
X227390904Y-224313247D02*
X227343285Y-224503723D01*
X227343285Y-224503723D02*
X227295666Y-224598961D01*
X227295666Y-224598961D02*
X227200428Y-224694200D01*
X227200428Y-224694200D02*
X227057571Y-224741819D01*
X227057571Y-224741819D02*
X226819476Y-224741819D01*
D12*
X218938523Y-215522333D02*
X211319476Y-215522333D01*
X215128999Y-211712809D02*
X215128999Y-219331857D01*
X195938523Y-215522333D02*
X188319476Y-215522333D01*
D11*
X179819476Y-224218009D02*
X179962333Y-224265628D01*
X179962333Y-224265628D02*
X180009952Y-224313247D01*
X180009952Y-224313247D02*
X180057571Y-224408485D01*
X180057571Y-224408485D02*
X180057571Y-224551342D01*
X180057571Y-224551342D02*
X180009952Y-224646580D01*
X180009952Y-224646580D02*
X179962333Y-224694200D01*
X179962333Y-224694200D02*
X179867095Y-224741819D01*
X179867095Y-224741819D02*
X179486143Y-224741819D01*
X179486143Y-224741819D02*
X179486143Y-223741819D01*
X179486143Y-223741819D02*
X179819476Y-223741819D01*
X179819476Y-223741819D02*
X179914714Y-223789438D01*
X179914714Y-223789438D02*
X179962333Y-223837057D01*
X179962333Y-223837057D02*
X180009952Y-223932295D01*
X180009952Y-223932295D02*
X180009952Y-224027533D01*
X180009952Y-224027533D02*
X179962333Y-224122771D01*
X179962333Y-224122771D02*
X179914714Y-224170390D01*
X179914714Y-224170390D02*
X179819476Y-224218009D01*
X179819476Y-224218009D02*
X179486143Y-224218009D01*
X180962333Y-224741819D02*
X180486143Y-224741819D01*
X180486143Y-224741819D02*
X180486143Y-223741819D01*
X181295667Y-223741819D02*
X181295667Y-224551342D01*
X181295667Y-224551342D02*
X181343286Y-224646580D01*
X181343286Y-224646580D02*
X181390905Y-224694200D01*
X181390905Y-224694200D02*
X181486143Y-224741819D01*
X181486143Y-224741819D02*
X181676619Y-224741819D01*
X181676619Y-224741819D02*
X181771857Y-224694200D01*
X181771857Y-224694200D02*
X181819476Y-224646580D01*
X181819476Y-224646580D02*
X181867095Y-224551342D01*
X181867095Y-224551342D02*
X181867095Y-223741819D01*
X182343286Y-224218009D02*
X182676619Y-224218009D01*
X182819476Y-224741819D02*
X182343286Y-224741819D01*
X182343286Y-224741819D02*
X182343286Y-223741819D01*
X182343286Y-223741819D02*
X182819476Y-223741819D01*
X159416666Y-278704819D02*
X159416666Y-279419104D01*
X159416666Y-279419104D02*
X159369047Y-279561961D01*
X159369047Y-279561961D02*
X159273809Y-279657200D01*
X159273809Y-279657200D02*
X159130952Y-279704819D01*
X159130952Y-279704819D02*
X159035714Y-279704819D01*
X160321428Y-279038152D02*
X160321428Y-279704819D01*
X160083333Y-278657200D02*
X159845238Y-279371485D01*
X159845238Y-279371485D02*
X160464285Y-279371485D01*
X237117095Y-252795819D02*
X237117095Y-251795819D01*
X237117095Y-252272009D02*
X237688523Y-252272009D01*
X237688523Y-252795819D02*
X237688523Y-251795819D01*
X238117095Y-251891057D02*
X238164714Y-251843438D01*
X238164714Y-251843438D02*
X238259952Y-251795819D01*
X238259952Y-251795819D02*
X238498047Y-251795819D01*
X238498047Y-251795819D02*
X238593285Y-251843438D01*
X238593285Y-251843438D02*
X238640904Y-251891057D01*
X238640904Y-251891057D02*
X238688523Y-251986295D01*
X238688523Y-251986295D02*
X238688523Y-252081533D01*
X238688523Y-252081533D02*
X238640904Y-252224390D01*
X238640904Y-252224390D02*
X238069476Y-252795819D01*
X238069476Y-252795819D02*
X238688523Y-252795819D01*
X156843285Y-234352009D02*
X156986142Y-234399628D01*
X156986142Y-234399628D02*
X157033761Y-234447247D01*
X157033761Y-234447247D02*
X157081380Y-234542485D01*
X157081380Y-234542485D02*
X157081380Y-234685342D01*
X157081380Y-234685342D02*
X157033761Y-234780580D01*
X157033761Y-234780580D02*
X156986142Y-234828200D01*
X156986142Y-234828200D02*
X156890904Y-234875819D01*
X156890904Y-234875819D02*
X156509952Y-234875819D01*
X156509952Y-234875819D02*
X156509952Y-233875819D01*
X156509952Y-233875819D02*
X156843285Y-233875819D01*
X156843285Y-233875819D02*
X156938523Y-233923438D01*
X156938523Y-233923438D02*
X156986142Y-233971057D01*
X156986142Y-233971057D02*
X157033761Y-234066295D01*
X157033761Y-234066295D02*
X157033761Y-234161533D01*
X157033761Y-234161533D02*
X156986142Y-234256771D01*
X156986142Y-234256771D02*
X156938523Y-234304390D01*
X156938523Y-234304390D02*
X156843285Y-234352009D01*
X156843285Y-234352009D02*
X156509952Y-234352009D01*
X157367095Y-233875819D02*
X157938523Y-233875819D01*
X157652809Y-234875819D02*
X157652809Y-233875819D01*
X158795666Y-234875819D02*
X158224238Y-234875819D01*
X158509952Y-234875819D02*
X158509952Y-233875819D01*
X158509952Y-233875819D02*
X158414714Y-234018676D01*
X158414714Y-234018676D02*
X158319476Y-234113914D01*
X158319476Y-234113914D02*
X158224238Y-234161533D01*
X147986142Y-248875819D02*
X147652809Y-248399628D01*
X147414714Y-248875819D02*
X147414714Y-247875819D01*
X147414714Y-247875819D02*
X147795666Y-247875819D01*
X147795666Y-247875819D02*
X147890904Y-247923438D01*
X147890904Y-247923438D02*
X147938523Y-247971057D01*
X147938523Y-247971057D02*
X147986142Y-248066295D01*
X147986142Y-248066295D02*
X147986142Y-248209152D01*
X147986142Y-248209152D02*
X147938523Y-248304390D01*
X147938523Y-248304390D02*
X147890904Y-248352009D01*
X147890904Y-248352009D02*
X147795666Y-248399628D01*
X147795666Y-248399628D02*
X147414714Y-248399628D01*
X148414714Y-248352009D02*
X148748047Y-248352009D01*
X148890904Y-248875819D02*
X148414714Y-248875819D01*
X148414714Y-248875819D02*
X148414714Y-247875819D01*
X148414714Y-247875819D02*
X148890904Y-247875819D01*
X149319476Y-248875819D02*
X149319476Y-247875819D01*
X149319476Y-247875819D02*
X149557571Y-247875819D01*
X149557571Y-247875819D02*
X149700428Y-247923438D01*
X149700428Y-247923438D02*
X149795666Y-248018676D01*
X149795666Y-248018676D02*
X149843285Y-248113914D01*
X149843285Y-248113914D02*
X149890904Y-248304390D01*
X149890904Y-248304390D02*
X149890904Y-248447247D01*
X149890904Y-248447247D02*
X149843285Y-248637723D01*
X149843285Y-248637723D02*
X149795666Y-248732961D01*
X149795666Y-248732961D02*
X149700428Y-248828200D01*
X149700428Y-248828200D02*
X149557571Y-248875819D01*
X149557571Y-248875819D02*
X149319476Y-248875819D01*
D12*
X141438523Y-239656333D02*
X133819476Y-239656333D01*
X137628999Y-235846809D02*
X137628999Y-243465857D01*
X118438523Y-239656333D02*
X110819476Y-239656333D01*
D11*
X102319476Y-248352009D02*
X102462333Y-248399628D01*
X102462333Y-248399628D02*
X102509952Y-248447247D01*
X102509952Y-248447247D02*
X102557571Y-248542485D01*
X102557571Y-248542485D02*
X102557571Y-248685342D01*
X102557571Y-248685342D02*
X102509952Y-248780580D01*
X102509952Y-248780580D02*
X102462333Y-248828200D01*
X102462333Y-248828200D02*
X102367095Y-248875819D01*
X102367095Y-248875819D02*
X101986143Y-248875819D01*
X101986143Y-248875819D02*
X101986143Y-247875819D01*
X101986143Y-247875819D02*
X102319476Y-247875819D01*
X102319476Y-247875819D02*
X102414714Y-247923438D01*
X102414714Y-247923438D02*
X102462333Y-247971057D01*
X102462333Y-247971057D02*
X102509952Y-248066295D01*
X102509952Y-248066295D02*
X102509952Y-248161533D01*
X102509952Y-248161533D02*
X102462333Y-248256771D01*
X102462333Y-248256771D02*
X102414714Y-248304390D01*
X102414714Y-248304390D02*
X102319476Y-248352009D01*
X102319476Y-248352009D02*
X101986143Y-248352009D01*
X103462333Y-248875819D02*
X102986143Y-248875819D01*
X102986143Y-248875819D02*
X102986143Y-247875819D01*
X103795667Y-247875819D02*
X103795667Y-248685342D01*
X103795667Y-248685342D02*
X103843286Y-248780580D01*
X103843286Y-248780580D02*
X103890905Y-248828200D01*
X103890905Y-248828200D02*
X103986143Y-248875819D01*
X103986143Y-248875819D02*
X104176619Y-248875819D01*
X104176619Y-248875819D02*
X104271857Y-248828200D01*
X104271857Y-248828200D02*
X104319476Y-248780580D01*
X104319476Y-248780580D02*
X104367095Y-248685342D01*
X104367095Y-248685342D02*
X104367095Y-247875819D01*
X104843286Y-248352009D02*
X105176619Y-248352009D01*
X105319476Y-248875819D02*
X104843286Y-248875819D01*
X104843286Y-248875819D02*
X104843286Y-247875819D01*
X104843286Y-247875819D02*
X105319476Y-247875819D01*
X113416666Y-278454819D02*
X113416666Y-279169104D01*
X113416666Y-279169104D02*
X113369047Y-279311961D01*
X113369047Y-279311961D02*
X113273809Y-279407200D01*
X113273809Y-279407200D02*
X113130952Y-279454819D01*
X113130952Y-279454819D02*
X113035714Y-279454819D01*
X113797619Y-278454819D02*
X114416666Y-278454819D01*
X114416666Y-278454819D02*
X114083333Y-278835771D01*
X114083333Y-278835771D02*
X114226190Y-278835771D01*
X114226190Y-278835771D02*
X114321428Y-278883390D01*
X114321428Y-278883390D02*
X114369047Y-278931009D01*
X114369047Y-278931009D02*
X114416666Y-279026247D01*
X114416666Y-279026247D02*
X114416666Y-279264342D01*
X114416666Y-279264342D02*
X114369047Y-279359580D01*
X114369047Y-279359580D02*
X114321428Y-279407200D01*
X114321428Y-279407200D02*
X114226190Y-279454819D01*
X114226190Y-279454819D02*
X113940476Y-279454819D01*
X113940476Y-279454819D02*
X113845238Y-279407200D01*
X113845238Y-279407200D02*
X113797619Y-279359580D01*
X233867095Y-234352009D02*
X234009952Y-234399628D01*
X234009952Y-234399628D02*
X234057571Y-234447247D01*
X234057571Y-234447247D02*
X234105190Y-234542485D01*
X234105190Y-234542485D02*
X234105190Y-234685342D01*
X234105190Y-234685342D02*
X234057571Y-234780580D01*
X234057571Y-234780580D02*
X234009952Y-234828200D01*
X234009952Y-234828200D02*
X233914714Y-234875819D01*
X233914714Y-234875819D02*
X233533762Y-234875819D01*
X233533762Y-234875819D02*
X233533762Y-233875819D01*
X233533762Y-233875819D02*
X233867095Y-233875819D01*
X233867095Y-233875819D02*
X233962333Y-233923438D01*
X233962333Y-233923438D02*
X234009952Y-233971057D01*
X234009952Y-233971057D02*
X234057571Y-234066295D01*
X234057571Y-234066295D02*
X234057571Y-234161533D01*
X234057571Y-234161533D02*
X234009952Y-234256771D01*
X234009952Y-234256771D02*
X233962333Y-234304390D01*
X233962333Y-234304390D02*
X233867095Y-234352009D01*
X233867095Y-234352009D02*
X233533762Y-234352009D01*
X234390905Y-233875819D02*
X234962333Y-233875819D01*
X234676619Y-234875819D02*
X234676619Y-233875819D01*
X235819476Y-234875819D02*
X235248048Y-234875819D01*
X235533762Y-234875819D02*
X235533762Y-233875819D01*
X235533762Y-233875819D02*
X235438524Y-234018676D01*
X235438524Y-234018676D02*
X235343286Y-234113914D01*
X235343286Y-234113914D02*
X235248048Y-234161533D01*
X236200429Y-233971057D02*
X236248048Y-233923438D01*
X236248048Y-233923438D02*
X236343286Y-233875819D01*
X236343286Y-233875819D02*
X236581381Y-233875819D01*
X236581381Y-233875819D02*
X236676619Y-233923438D01*
X236676619Y-233923438D02*
X236724238Y-233971057D01*
X236724238Y-233971057D02*
X236771857Y-234066295D01*
X236771857Y-234066295D02*
X236771857Y-234161533D01*
X236771857Y-234161533D02*
X236724238Y-234304390D01*
X236724238Y-234304390D02*
X236152810Y-234875819D01*
X236152810Y-234875819D02*
X236771857Y-234875819D01*
D12*
X218938523Y-239656333D02*
X211319476Y-239656333D01*
X215128999Y-235846809D02*
X215128999Y-243465857D01*
D11*
X225486142Y-248875819D02*
X225152809Y-248399628D01*
X224914714Y-248875819D02*
X224914714Y-247875819D01*
X224914714Y-247875819D02*
X225295666Y-247875819D01*
X225295666Y-247875819D02*
X225390904Y-247923438D01*
X225390904Y-247923438D02*
X225438523Y-247971057D01*
X225438523Y-247971057D02*
X225486142Y-248066295D01*
X225486142Y-248066295D02*
X225486142Y-248209152D01*
X225486142Y-248209152D02*
X225438523Y-248304390D01*
X225438523Y-248304390D02*
X225390904Y-248352009D01*
X225390904Y-248352009D02*
X225295666Y-248399628D01*
X225295666Y-248399628D02*
X224914714Y-248399628D01*
X225914714Y-248352009D02*
X226248047Y-248352009D01*
X226390904Y-248875819D02*
X225914714Y-248875819D01*
X225914714Y-248875819D02*
X225914714Y-247875819D01*
X225914714Y-247875819D02*
X226390904Y-247875819D01*
X226819476Y-248875819D02*
X226819476Y-247875819D01*
X226819476Y-247875819D02*
X227057571Y-247875819D01*
X227057571Y-247875819D02*
X227200428Y-247923438D01*
X227200428Y-247923438D02*
X227295666Y-248018676D01*
X227295666Y-248018676D02*
X227343285Y-248113914D01*
X227343285Y-248113914D02*
X227390904Y-248304390D01*
X227390904Y-248304390D02*
X227390904Y-248447247D01*
X227390904Y-248447247D02*
X227343285Y-248637723D01*
X227343285Y-248637723D02*
X227295666Y-248732961D01*
X227295666Y-248732961D02*
X227200428Y-248828200D01*
X227200428Y-248828200D02*
X227057571Y-248875819D01*
X227057571Y-248875819D02*
X226819476Y-248875819D01*
D12*
X195938523Y-239656333D02*
X188319476Y-239656333D01*
D11*
X179819476Y-248352009D02*
X179962333Y-248399628D01*
X179962333Y-248399628D02*
X180009952Y-248447247D01*
X180009952Y-248447247D02*
X180057571Y-248542485D01*
X180057571Y-248542485D02*
X180057571Y-248685342D01*
X180057571Y-248685342D02*
X180009952Y-248780580D01*
X180009952Y-248780580D02*
X179962333Y-248828200D01*
X179962333Y-248828200D02*
X179867095Y-248875819D01*
X179867095Y-248875819D02*
X179486143Y-248875819D01*
X179486143Y-248875819D02*
X179486143Y-247875819D01*
X179486143Y-247875819D02*
X179819476Y-247875819D01*
X179819476Y-247875819D02*
X179914714Y-247923438D01*
X179914714Y-247923438D02*
X179962333Y-247971057D01*
X179962333Y-247971057D02*
X180009952Y-248066295D01*
X180009952Y-248066295D02*
X180009952Y-248161533D01*
X180009952Y-248161533D02*
X179962333Y-248256771D01*
X179962333Y-248256771D02*
X179914714Y-248304390D01*
X179914714Y-248304390D02*
X179819476Y-248352009D01*
X179819476Y-248352009D02*
X179486143Y-248352009D01*
X180962333Y-248875819D02*
X180486143Y-248875819D01*
X180486143Y-248875819D02*
X180486143Y-247875819D01*
X181295667Y-247875819D02*
X181295667Y-248685342D01*
X181295667Y-248685342D02*
X181343286Y-248780580D01*
X181343286Y-248780580D02*
X181390905Y-248828200D01*
X181390905Y-248828200D02*
X181486143Y-248875819D01*
X181486143Y-248875819D02*
X181676619Y-248875819D01*
X181676619Y-248875819D02*
X181771857Y-248828200D01*
X181771857Y-248828200D02*
X181819476Y-248780580D01*
X181819476Y-248780580D02*
X181867095Y-248685342D01*
X181867095Y-248685342D02*
X181867095Y-247875819D01*
X182343286Y-248352009D02*
X182676619Y-248352009D01*
X182819476Y-248875819D02*
X182343286Y-248875819D01*
X182343286Y-248875819D02*
X182343286Y-247875819D01*
X182343286Y-247875819D02*
X182819476Y-247875819D01*
X91117095Y-252795819D02*
X91117095Y-251795819D01*
X91117095Y-252272009D02*
X91688523Y-252272009D01*
X91688523Y-252795819D02*
X91688523Y-251795819D01*
X92688523Y-252795819D02*
X92117095Y-252795819D01*
X92402809Y-252795819D02*
X92402809Y-251795819D01*
X92402809Y-251795819D02*
X92307571Y-251938676D01*
X92307571Y-251938676D02*
X92212333Y-252033914D01*
X92212333Y-252033914D02*
X92117095Y-252081533D01*
X156843285Y-210218009D02*
X156986142Y-210265628D01*
X156986142Y-210265628D02*
X157033761Y-210313247D01*
X157033761Y-210313247D02*
X157081380Y-210408485D01*
X157081380Y-210408485D02*
X157081380Y-210551342D01*
X157081380Y-210551342D02*
X157033761Y-210646580D01*
X157033761Y-210646580D02*
X156986142Y-210694200D01*
X156986142Y-210694200D02*
X156890904Y-210741819D01*
X156890904Y-210741819D02*
X156509952Y-210741819D01*
X156509952Y-210741819D02*
X156509952Y-209741819D01*
X156509952Y-209741819D02*
X156843285Y-209741819D01*
X156843285Y-209741819D02*
X156938523Y-209789438D01*
X156938523Y-209789438D02*
X156986142Y-209837057D01*
X156986142Y-209837057D02*
X157033761Y-209932295D01*
X157033761Y-209932295D02*
X157033761Y-210027533D01*
X157033761Y-210027533D02*
X156986142Y-210122771D01*
X156986142Y-210122771D02*
X156938523Y-210170390D01*
X156938523Y-210170390D02*
X156843285Y-210218009D01*
X156843285Y-210218009D02*
X156509952Y-210218009D01*
X157367095Y-209741819D02*
X157938523Y-209741819D01*
X157652809Y-210741819D02*
X157652809Y-209741819D01*
X158224238Y-209837057D02*
X158271857Y-209789438D01*
X158271857Y-209789438D02*
X158367095Y-209741819D01*
X158367095Y-209741819D02*
X158605190Y-209741819D01*
X158605190Y-209741819D02*
X158700428Y-209789438D01*
X158700428Y-209789438D02*
X158748047Y-209837057D01*
X158748047Y-209837057D02*
X158795666Y-209932295D01*
X158795666Y-209932295D02*
X158795666Y-210027533D01*
X158795666Y-210027533D02*
X158748047Y-210170390D01*
X158748047Y-210170390D02*
X158176619Y-210741819D01*
X158176619Y-210741819D02*
X158795666Y-210741819D01*
D12*
X118438523Y-215522333D02*
X110819476Y-215522333D01*
D11*
X147986142Y-224741819D02*
X147652809Y-224265628D01*
X147414714Y-224741819D02*
X147414714Y-223741819D01*
X147414714Y-223741819D02*
X147795666Y-223741819D01*
X147795666Y-223741819D02*
X147890904Y-223789438D01*
X147890904Y-223789438D02*
X147938523Y-223837057D01*
X147938523Y-223837057D02*
X147986142Y-223932295D01*
X147986142Y-223932295D02*
X147986142Y-224075152D01*
X147986142Y-224075152D02*
X147938523Y-224170390D01*
X147938523Y-224170390D02*
X147890904Y-224218009D01*
X147890904Y-224218009D02*
X147795666Y-224265628D01*
X147795666Y-224265628D02*
X147414714Y-224265628D01*
X148414714Y-224218009D02*
X148748047Y-224218009D01*
X148890904Y-224741819D02*
X148414714Y-224741819D01*
X148414714Y-224741819D02*
X148414714Y-223741819D01*
X148414714Y-223741819D02*
X148890904Y-223741819D01*
X149319476Y-224741819D02*
X149319476Y-223741819D01*
X149319476Y-223741819D02*
X149557571Y-223741819D01*
X149557571Y-223741819D02*
X149700428Y-223789438D01*
X149700428Y-223789438D02*
X149795666Y-223884676D01*
X149795666Y-223884676D02*
X149843285Y-223979914D01*
X149843285Y-223979914D02*
X149890904Y-224170390D01*
X149890904Y-224170390D02*
X149890904Y-224313247D01*
X149890904Y-224313247D02*
X149843285Y-224503723D01*
X149843285Y-224503723D02*
X149795666Y-224598961D01*
X149795666Y-224598961D02*
X149700428Y-224694200D01*
X149700428Y-224694200D02*
X149557571Y-224741819D01*
X149557571Y-224741819D02*
X149319476Y-224741819D01*
D12*
X141438523Y-215522333D02*
X133819476Y-215522333D01*
X137628999Y-211712809D02*
X137628999Y-219331857D01*
D11*
X102319476Y-224218009D02*
X102462333Y-224265628D01*
X102462333Y-224265628D02*
X102509952Y-224313247D01*
X102509952Y-224313247D02*
X102557571Y-224408485D01*
X102557571Y-224408485D02*
X102557571Y-224551342D01*
X102557571Y-224551342D02*
X102509952Y-224646580D01*
X102509952Y-224646580D02*
X102462333Y-224694200D01*
X102462333Y-224694200D02*
X102367095Y-224741819D01*
X102367095Y-224741819D02*
X101986143Y-224741819D01*
X101986143Y-224741819D02*
X101986143Y-223741819D01*
X101986143Y-223741819D02*
X102319476Y-223741819D01*
X102319476Y-223741819D02*
X102414714Y-223789438D01*
X102414714Y-223789438D02*
X102462333Y-223837057D01*
X102462333Y-223837057D02*
X102509952Y-223932295D01*
X102509952Y-223932295D02*
X102509952Y-224027533D01*
X102509952Y-224027533D02*
X102462333Y-224122771D01*
X102462333Y-224122771D02*
X102414714Y-224170390D01*
X102414714Y-224170390D02*
X102319476Y-224218009D01*
X102319476Y-224218009D02*
X101986143Y-224218009D01*
X103462333Y-224741819D02*
X102986143Y-224741819D01*
X102986143Y-224741819D02*
X102986143Y-223741819D01*
X103795667Y-223741819D02*
X103795667Y-224551342D01*
X103795667Y-224551342D02*
X103843286Y-224646580D01*
X103843286Y-224646580D02*
X103890905Y-224694200D01*
X103890905Y-224694200D02*
X103986143Y-224741819D01*
X103986143Y-224741819D02*
X104176619Y-224741819D01*
X104176619Y-224741819D02*
X104271857Y-224694200D01*
X104271857Y-224694200D02*
X104319476Y-224646580D01*
X104319476Y-224646580D02*
X104367095Y-224551342D01*
X104367095Y-224551342D02*
X104367095Y-223741819D01*
X104843286Y-224218009D02*
X105176619Y-224218009D01*
X105319476Y-224741819D02*
X104843286Y-224741819D01*
X104843286Y-224741819D02*
X104843286Y-223741819D01*
X104843286Y-223741819D02*
X105319476Y-223741819D01*
X234343285Y-137815009D02*
X234486142Y-137862628D01*
X234486142Y-137862628D02*
X234533761Y-137910247D01*
X234533761Y-137910247D02*
X234581380Y-138005485D01*
X234581380Y-138005485D02*
X234581380Y-138148342D01*
X234581380Y-138148342D02*
X234533761Y-138243580D01*
X234533761Y-138243580D02*
X234486142Y-138291200D01*
X234486142Y-138291200D02*
X234390904Y-138338819D01*
X234390904Y-138338819D02*
X234009952Y-138338819D01*
X234009952Y-138338819D02*
X234009952Y-137338819D01*
X234009952Y-137338819D02*
X234343285Y-137338819D01*
X234343285Y-137338819D02*
X234438523Y-137386438D01*
X234438523Y-137386438D02*
X234486142Y-137434057D01*
X234486142Y-137434057D02*
X234533761Y-137529295D01*
X234533761Y-137529295D02*
X234533761Y-137624533D01*
X234533761Y-137624533D02*
X234486142Y-137719771D01*
X234486142Y-137719771D02*
X234438523Y-137767390D01*
X234438523Y-137767390D02*
X234343285Y-137815009D01*
X234343285Y-137815009D02*
X234009952Y-137815009D01*
X234867095Y-137338819D02*
X235438523Y-137338819D01*
X235152809Y-138338819D02*
X235152809Y-137338819D01*
X235914714Y-137767390D02*
X235819476Y-137719771D01*
X235819476Y-137719771D02*
X235771857Y-137672152D01*
X235771857Y-137672152D02*
X235724238Y-137576914D01*
X235724238Y-137576914D02*
X235724238Y-137529295D01*
X235724238Y-137529295D02*
X235771857Y-137434057D01*
X235771857Y-137434057D02*
X235819476Y-137386438D01*
X235819476Y-137386438D02*
X235914714Y-137338819D01*
X235914714Y-137338819D02*
X236105190Y-137338819D01*
X236105190Y-137338819D02*
X236200428Y-137386438D01*
X236200428Y-137386438D02*
X236248047Y-137434057D01*
X236248047Y-137434057D02*
X236295666Y-137529295D01*
X236295666Y-137529295D02*
X236295666Y-137576914D01*
X236295666Y-137576914D02*
X236248047Y-137672152D01*
X236248047Y-137672152D02*
X236200428Y-137719771D01*
X236200428Y-137719771D02*
X236105190Y-137767390D01*
X236105190Y-137767390D02*
X235914714Y-137767390D01*
X235914714Y-137767390D02*
X235819476Y-137815009D01*
X235819476Y-137815009D02*
X235771857Y-137862628D01*
X235771857Y-137862628D02*
X235724238Y-137957866D01*
X235724238Y-137957866D02*
X235724238Y-138148342D01*
X235724238Y-138148342D02*
X235771857Y-138243580D01*
X235771857Y-138243580D02*
X235819476Y-138291200D01*
X235819476Y-138291200D02*
X235914714Y-138338819D01*
X235914714Y-138338819D02*
X236105190Y-138338819D01*
X236105190Y-138338819D02*
X236200428Y-138291200D01*
X236200428Y-138291200D02*
X236248047Y-138243580D01*
X236248047Y-138243580D02*
X236295666Y-138148342D01*
X236295666Y-138148342D02*
X236295666Y-137957866D01*
X236295666Y-137957866D02*
X236248047Y-137862628D01*
X236248047Y-137862628D02*
X236200428Y-137815009D01*
X236200428Y-137815009D02*
X236105190Y-137767390D01*
X225486142Y-152338819D02*
X225152809Y-151862628D01*
X224914714Y-152338819D02*
X224914714Y-151338819D01*
X224914714Y-151338819D02*
X225295666Y-151338819D01*
X225295666Y-151338819D02*
X225390904Y-151386438D01*
X225390904Y-151386438D02*
X225438523Y-151434057D01*
X225438523Y-151434057D02*
X225486142Y-151529295D01*
X225486142Y-151529295D02*
X225486142Y-151672152D01*
X225486142Y-151672152D02*
X225438523Y-151767390D01*
X225438523Y-151767390D02*
X225390904Y-151815009D01*
X225390904Y-151815009D02*
X225295666Y-151862628D01*
X225295666Y-151862628D02*
X224914714Y-151862628D01*
X225914714Y-151815009D02*
X226248047Y-151815009D01*
X226390904Y-152338819D02*
X225914714Y-152338819D01*
X225914714Y-152338819D02*
X225914714Y-151338819D01*
X225914714Y-151338819D02*
X226390904Y-151338819D01*
X226819476Y-152338819D02*
X226819476Y-151338819D01*
X226819476Y-151338819D02*
X227057571Y-151338819D01*
X227057571Y-151338819D02*
X227200428Y-151386438D01*
X227200428Y-151386438D02*
X227295666Y-151481676D01*
X227295666Y-151481676D02*
X227343285Y-151576914D01*
X227343285Y-151576914D02*
X227390904Y-151767390D01*
X227390904Y-151767390D02*
X227390904Y-151910247D01*
X227390904Y-151910247D02*
X227343285Y-152100723D01*
X227343285Y-152100723D02*
X227295666Y-152195961D01*
X227295666Y-152195961D02*
X227200428Y-152291200D01*
X227200428Y-152291200D02*
X227057571Y-152338819D01*
X227057571Y-152338819D02*
X226819476Y-152338819D01*
D12*
X195938523Y-143119333D02*
X188319476Y-143119333D01*
X218938523Y-143119333D02*
X211319476Y-143119333D01*
X215128999Y-139309809D02*
X215128999Y-146928857D01*
D11*
X179819476Y-151815009D02*
X179962333Y-151862628D01*
X179962333Y-151862628D02*
X180009952Y-151910247D01*
X180009952Y-151910247D02*
X180057571Y-152005485D01*
X180057571Y-152005485D02*
X180057571Y-152148342D01*
X180057571Y-152148342D02*
X180009952Y-152243580D01*
X180009952Y-152243580D02*
X179962333Y-152291200D01*
X179962333Y-152291200D02*
X179867095Y-152338819D01*
X179867095Y-152338819D02*
X179486143Y-152338819D01*
X179486143Y-152338819D02*
X179486143Y-151338819D01*
X179486143Y-151338819D02*
X179819476Y-151338819D01*
X179819476Y-151338819D02*
X179914714Y-151386438D01*
X179914714Y-151386438D02*
X179962333Y-151434057D01*
X179962333Y-151434057D02*
X180009952Y-151529295D01*
X180009952Y-151529295D02*
X180009952Y-151624533D01*
X180009952Y-151624533D02*
X179962333Y-151719771D01*
X179962333Y-151719771D02*
X179914714Y-151767390D01*
X179914714Y-151767390D02*
X179819476Y-151815009D01*
X179819476Y-151815009D02*
X179486143Y-151815009D01*
X180962333Y-152338819D02*
X180486143Y-152338819D01*
X180486143Y-152338819D02*
X180486143Y-151338819D01*
X181295667Y-151338819D02*
X181295667Y-152148342D01*
X181295667Y-152148342D02*
X181343286Y-152243580D01*
X181343286Y-152243580D02*
X181390905Y-152291200D01*
X181390905Y-152291200D02*
X181486143Y-152338819D01*
X181486143Y-152338819D02*
X181676619Y-152338819D01*
X181676619Y-152338819D02*
X181771857Y-152291200D01*
X181771857Y-152291200D02*
X181819476Y-152243580D01*
X181819476Y-152243580D02*
X181867095Y-152148342D01*
X181867095Y-152148342D02*
X181867095Y-151338819D01*
X182343286Y-151815009D02*
X182676619Y-151815009D01*
X182819476Y-152338819D02*
X182343286Y-152338819D01*
X182343286Y-152338819D02*
X182343286Y-151338819D01*
X182343286Y-151338819D02*
X182819476Y-151338819D01*
D13*
X160909000Y-129750000D02*
X91409000Y-129750000D01*
X91409000Y-109750000D01*
X160909000Y-109750000D01*
X160909000Y-129750000D01*
X238409000Y-129750000D02*
X168909000Y-129750000D01*
X168909000Y-109750000D01*
X238409000Y-109750000D01*
X238409000Y-129750000D01*
X160909000Y-153884000D02*
X91409000Y-153884000D01*
X91409000Y-133884000D01*
X160909000Y-133884000D01*
X160909000Y-153884000D01*
X238409000Y-178018000D02*
X168909000Y-178018000D01*
X168909000Y-158018000D01*
X238409000Y-158018000D01*
X238409000Y-178018000D01*
D14*
X131800000Y-263500000D02*
X148000000Y-263500000D01*
X131800000Y-279700000D02*
X131800000Y-263500000D01*
X148000000Y-263500000D02*
X148000000Y-279700000D01*
X148000000Y-279700000D02*
X131800000Y-279700000D01*
D13*
X197905000Y-272135000D02*
X197905000Y-285155000D01*
X197905000Y-285155000D02*
X217515000Y-285155000D01*
X198715000Y-272135000D02*
X197905000Y-272135000D01*
X200415000Y-269035000D02*
X200415000Y-267755000D01*
X201015000Y-269035000D02*
X201015000Y-267755000D01*
X203305000Y-272145000D02*
X202325000Y-272145000D01*
X204615000Y-269035000D02*
X204615000Y-267755000D01*
X205215000Y-269035000D02*
X205215000Y-267755000D01*
X207505000Y-272145000D02*
X206525000Y-272145000D01*
X208815000Y-269035000D02*
X208815000Y-267755000D01*
X209415000Y-269035000D02*
X209415000Y-267755000D01*
X211705000Y-272145000D02*
X210725000Y-272145000D01*
X213015000Y-269035000D02*
X213015000Y-267755000D01*
X213615000Y-269035000D02*
X213615000Y-267755000D01*
X215905000Y-272145000D02*
X214925000Y-272145000D01*
X217215000Y-269035000D02*
X217215000Y-267755000D01*
X217815000Y-269035000D02*
X217815000Y-267755000D01*
X220105000Y-272145000D02*
X219125000Y-272145000D01*
X221415000Y-269035000D02*
X221415000Y-267755000D01*
X222015000Y-269035000D02*
X222015000Y-267755000D01*
X224305000Y-272145000D02*
X223325000Y-272145000D01*
X225615000Y-269035000D02*
X225615000Y-267755000D01*
X226215000Y-269035000D02*
X226215000Y-267755000D01*
X228505000Y-272145000D02*
X227525000Y-272145000D01*
X229815000Y-269035000D02*
X229815000Y-267755000D01*
X230415000Y-269035000D02*
X230415000Y-267755000D01*
X232705000Y-272145000D02*
X231725000Y-272145000D01*
X234015000Y-269035000D02*
X234015000Y-267755000D01*
X234615000Y-269035000D02*
X234615000Y-267755000D01*
X236315000Y-271145000D02*
X236915000Y-270845000D01*
X236315000Y-272135000D02*
X237125000Y-272135000D01*
X236915000Y-270845000D02*
X236915000Y-271445000D01*
X236915000Y-271445000D02*
X236315000Y-271145000D01*
X237125000Y-272135000D02*
X237125000Y-285155000D01*
X237125000Y-285155000D02*
X217515000Y-285155000D01*
X182780000Y-266780000D02*
X193220000Y-266780000D01*
X193220000Y-279720000D01*
X182780000Y-279720000D01*
X182780000Y-266780000D01*
X160909000Y-202153000D02*
X91409000Y-202153000D01*
X91409000Y-182153000D01*
X160909000Y-182153000D01*
X160909000Y-202153000D01*
D15*
G36*
X99791034Y-270527117D02*
G01*
X99829791Y-270541131D01*
X99833905Y-270550710D01*
X99830134Y-270577059D01*
X99819419Y-270642627D01*
X99802661Y-270742243D01*
X99780763Y-270870739D01*
X99754625Y-271022945D01*
X99725149Y-271193692D01*
X99693237Y-271377811D01*
X99659791Y-271570132D01*
X99625712Y-271765486D01*
X99591902Y-271958704D01*
X99559262Y-272144617D01*
X99528695Y-272318055D01*
X99501101Y-272473849D01*
X99477383Y-272606830D01*
X99458441Y-272711829D01*
X99445178Y-272783675D01*
X99438835Y-272815750D01*
X99427046Y-272845182D01*
X99400894Y-272860403D01*
X99348368Y-272865924D01*
X99303830Y-272866460D01*
X99236071Y-272863671D01*
X99191205Y-272856479D01*
X99180307Y-272849556D01*
X99184115Y-272824724D01*
X99195048Y-272759717D01*
X99212376Y-272658744D01*
X99235365Y-272526016D01*
X99263283Y-272365741D01*
X99295399Y-272182131D01*
X99330980Y-271979394D01*
X99369294Y-271761740D01*
X99383141Y-271683230D01*
X99422194Y-271461810D01*
X99458776Y-271254204D01*
X99492155Y-271064566D01*
X99521603Y-270897053D01*
X99546389Y-270755821D01*
X99565784Y-270645025D01*
X99579058Y-270568822D01*
X99585481Y-270531367D01*
X99585975Y-270528172D01*
X99606371Y-270525085D01*
X99658973Y-270523039D01*
X99709938Y-270522538D01*
X99791034Y-270527117D01*
G37*
G36*
X100579841Y-270527114D02*
G01*
X100618592Y-270541122D01*
X100622709Y-270550710D01*
X100618928Y-270577272D01*
X100608230Y-270642714D01*
X100591576Y-270741536D01*
X100569929Y-270868236D01*
X100544251Y-271017315D01*
X100515503Y-271183270D01*
X100484648Y-271360601D01*
X100452648Y-271543807D01*
X100420465Y-271727388D01*
X100389062Y-271905842D01*
X100359400Y-272073668D01*
X100332441Y-272225366D01*
X100309147Y-272355434D01*
X100290482Y-272458372D01*
X100277406Y-272528679D01*
X100271949Y-272556207D01*
X100258688Y-272617826D01*
X101490858Y-272629814D01*
X101453172Y-272866460D01*
X100711147Y-272866460D01*
X100533387Y-272865966D01*
X100370903Y-272864566D01*
X100228952Y-272862378D01*
X100112794Y-272859523D01*
X100027687Y-272856120D01*
X99978890Y-272852290D01*
X99969127Y-272849556D01*
X99972934Y-272824724D01*
X99983868Y-272759717D01*
X100001196Y-272658744D01*
X100024185Y-272526016D01*
X100052103Y-272365741D01*
X100084219Y-272182131D01*
X100119800Y-271979394D01*
X100158114Y-271761740D01*
X100171961Y-271683230D01*
X100211014Y-271461810D01*
X100247596Y-271254204D01*
X100280975Y-271064566D01*
X100310423Y-270897053D01*
X100335209Y-270755821D01*
X100354604Y-270645025D01*
X100367878Y-270568822D01*
X100374301Y-270531367D01*
X100374795Y-270528172D01*
X100395190Y-270525085D01*
X100447793Y-270523039D01*
X100498758Y-270522538D01*
X100579841Y-270527114D01*
G37*
G36*
X105936060Y-272866460D02*
G01*
X105656765Y-272866460D01*
X105583392Y-272550932D01*
X105510020Y-272235404D01*
X104306873Y-272235404D01*
X103934801Y-272866460D01*
X103798724Y-272866460D01*
X103729007Y-272863951D01*
X103683376Y-272857421D01*
X103672002Y-272849556D01*
X103685000Y-272827703D01*
X103719184Y-272770633D01*
X103772509Y-272681755D01*
X103842925Y-272564479D01*
X103928386Y-272422213D01*
X104026843Y-272258366D01*
X104136249Y-272076347D01*
X104189671Y-271987489D01*
X104455326Y-271987489D01*
X104950556Y-271987489D01*
X105094502Y-271986986D01*
X105221996Y-271985580D01*
X105326599Y-271983419D01*
X105401875Y-271980656D01*
X105441387Y-271977440D01*
X105445785Y-271975897D01*
X105440196Y-271938991D01*
X105424698Y-271868407D01*
X105401200Y-271771196D01*
X105371607Y-271654408D01*
X105337826Y-271525092D01*
X105301763Y-271390299D01*
X105265326Y-271257079D01*
X105230420Y-271132481D01*
X105198952Y-271023555D01*
X105172830Y-270937352D01*
X105153958Y-270880921D01*
X105144353Y-270861297D01*
X105125471Y-270880070D01*
X105088181Y-270931876D01*
X105036478Y-271010632D01*
X104974352Y-271110255D01*
X104905795Y-271224663D01*
X104904880Y-271226219D01*
X104826809Y-271358928D01*
X104746867Y-271494644D01*
X104671700Y-271622095D01*
X104607955Y-271730010D01*
X104573049Y-271788968D01*
X104455326Y-271987489D01*
X104189671Y-271987489D01*
X104254557Y-271879564D01*
X104376008Y-271677595D01*
X105070657Y-270522538D01*
X105350006Y-270522538D01*
X105936060Y-272866460D01*
G37*
G36*
X92883912Y-267388247D02*
G01*
X92887098Y-267388676D01*
X93061748Y-267427744D01*
X93227069Y-267493428D01*
X93371222Y-267579989D01*
X93475734Y-267673996D01*
X93537397Y-267752438D01*
X93591135Y-267835885D01*
X93631326Y-267913789D01*
X93652346Y-267975603D01*
X93652182Y-268004970D01*
X93627048Y-268022067D01*
X93567748Y-268045898D01*
X93483999Y-268072901D01*
X93414070Y-268092292D01*
X93312423Y-268118280D01*
X93246065Y-268133192D01*
X93206739Y-268137583D01*
X93186183Y-268132010D01*
X93176140Y-268117029D01*
X93173212Y-268108514D01*
X93130684Y-268032508D01*
X93055682Y-267954531D01*
X92959012Y-267885200D01*
X92928785Y-267868392D01*
X92864612Y-267838238D01*
X92804413Y-267820059D01*
X92732883Y-267810945D01*
X92634719Y-267807985D01*
X92610559Y-267807876D01*
X92502801Y-267809759D01*
X92423519Y-267817914D01*
X92356239Y-267835303D01*
X92284482Y-267864888D01*
X92278847Y-267867500D01*
X92107804Y-267970942D01*
X91966944Y-268106037D01*
X91858467Y-268269099D01*
X91784572Y-268456442D01*
X91747460Y-268664383D01*
X91743345Y-268764596D01*
X91762152Y-268938283D01*
X91816737Y-269086249D01*
X91904188Y-269205899D01*
X92021593Y-269294641D01*
X92166040Y-269349881D01*
X92334618Y-269369027D01*
X92417675Y-269365167D01*
X92585316Y-269330107D01*
X92751351Y-269260151D01*
X92900722Y-269162826D01*
X92990753Y-269078642D01*
X93092759Y-268965186D01*
X93279875Y-269015084D01*
X93366916Y-269039446D01*
X93436979Y-269061198D01*
X93478768Y-269076750D01*
X93484755Y-269080175D01*
X93480997Y-269104164D01*
X93454806Y-269153668D01*
X93411585Y-269218748D01*
X93403156Y-269230341D01*
X93247115Y-269405376D01*
X93061314Y-269551302D01*
X92852603Y-269665306D01*
X92627835Y-269744572D01*
X92393860Y-269786286D01*
X92157531Y-269787633D01*
X92071458Y-269777428D01*
X91884419Y-269728802D01*
X91711871Y-269645423D01*
X91561470Y-269532630D01*
X91440869Y-269395759D01*
X91382371Y-269296995D01*
X91311928Y-269118215D01*
X91276784Y-268936892D01*
X91275923Y-268743163D01*
X91304862Y-268543903D01*
X91374749Y-268305063D01*
X91480813Y-268086686D01*
X91618861Y-267891834D01*
X91784698Y-267723570D01*
X91974130Y-267584955D01*
X92182961Y-267479053D01*
X92406999Y-267408926D01*
X92642047Y-267377637D01*
X92883912Y-267388247D01*
G37*
G36*
X87443844Y-267413649D02*
G01*
X87518497Y-267417193D01*
X87563985Y-267422366D01*
X87573381Y-267426389D01*
X87569588Y-267451210D01*
X87558833Y-267515030D01*
X87542051Y-267612468D01*
X87520176Y-267738144D01*
X87494144Y-267886678D01*
X87464888Y-268052690D01*
X87447101Y-268153230D01*
X87407511Y-268380378D01*
X87376599Y-268568161D01*
X87354108Y-268721394D01*
X87339781Y-268844892D01*
X87333361Y-268943471D01*
X87334593Y-269021946D01*
X87343218Y-269085132D01*
X87358981Y-269137846D01*
X87381625Y-269184902D01*
X87391245Y-269201115D01*
X87466212Y-269281481D01*
X87571673Y-269337027D01*
X87699228Y-269365713D01*
X87840479Y-269365501D01*
X87966325Y-269340703D01*
X88103735Y-269277948D01*
X88219412Y-269178009D01*
X88308732Y-269045402D01*
X88338971Y-268976605D01*
X88355322Y-268921453D01*
X88377755Y-268828474D01*
X88404891Y-268704295D01*
X88435353Y-268555543D01*
X88467760Y-268388846D01*
X88500735Y-268210829D01*
X88515549Y-268127906D01*
X88641858Y-267412334D01*
X88862633Y-267412334D01*
X88956183Y-267413997D01*
X89030079Y-267418478D01*
X89074684Y-267425009D01*
X89083407Y-267429885D01*
X89079476Y-267461307D01*
X89068477Y-267530398D01*
X89051608Y-267630514D01*
X89030063Y-267755012D01*
X89005036Y-267897250D01*
X88977724Y-268050582D01*
X88949322Y-268208368D01*
X88921024Y-268363962D01*
X88894026Y-268510723D01*
X88869523Y-268642006D01*
X88848711Y-268751169D01*
X88832784Y-268831568D01*
X88823650Y-268873694D01*
X88750207Y-269093208D01*
X88644062Y-269289795D01*
X88508965Y-269459172D01*
X88348670Y-269597057D01*
X88166928Y-269699164D01*
X88068740Y-269735603D01*
X87943792Y-269764878D01*
X87799086Y-269783961D01*
X87652989Y-269791463D01*
X87523869Y-269785993D01*
X87481920Y-269780014D01*
X87306947Y-269729094D01*
X87155333Y-269646769D01*
X87032220Y-269537241D01*
X86942747Y-269404713D01*
X86905172Y-269308595D01*
X86885681Y-269225577D01*
X86874363Y-269134278D01*
X86871574Y-269029246D01*
X86877666Y-268905029D01*
X86892996Y-268756174D01*
X86917919Y-268577229D01*
X86952788Y-268362742D01*
X86975039Y-268234960D01*
X87004186Y-268070956D01*
X87032021Y-267915343D01*
X87057198Y-267775567D01*
X87078371Y-267659075D01*
X87094194Y-267573314D01*
X87102330Y-267530657D01*
X87125822Y-267412334D01*
X87349601Y-267412334D01*
X87443844Y-267413649D01*
G37*
G36*
X94434623Y-270629592D02*
G01*
X94423578Y-270696035D01*
X94413219Y-270742795D01*
X94409374Y-270753549D01*
X94385212Y-270757880D01*
X94321719Y-270761801D01*
X94224639Y-270765163D01*
X94099716Y-270767820D01*
X93952694Y-270769623D01*
X93789317Y-270770425D01*
X93752427Y-270770452D01*
X93105207Y-270770452D01*
X93043535Y-271125421D01*
X93022622Y-271246874D01*
X93004781Y-271352542D01*
X92991320Y-271434527D01*
X92983542Y-271484931D01*
X92982147Y-271496870D01*
X93003703Y-271501891D01*
X93063934Y-271506839D01*
X93156440Y-271511428D01*
X93274821Y-271515370D01*
X93412676Y-271518378D01*
X93484119Y-271519408D01*
X93985808Y-271525466D01*
X93948248Y-271761274D01*
X93438618Y-271767327D01*
X92928987Y-271773381D01*
X92854860Y-272190328D01*
X92831594Y-272321318D01*
X92811258Y-272436041D01*
X92795087Y-272527520D01*
X92784314Y-272588778D01*
X92780171Y-272612838D01*
X92780162Y-272612910D01*
X92801619Y-272614342D01*
X92862565Y-272615640D01*
X92957414Y-272616756D01*
X93080581Y-272617641D01*
X93226480Y-272618249D01*
X93389525Y-272618531D01*
X93435694Y-272618545D01*
X94091795Y-272618545D01*
X94076817Y-272703061D01*
X94070288Y-272746614D01*
X94064744Y-272781721D01*
X94055690Y-272809284D01*
X94038628Y-272830204D01*
X94009063Y-272845386D01*
X93962497Y-272855730D01*
X93894434Y-272862140D01*
X93800378Y-272865517D01*
X93675833Y-272866765D01*
X93516301Y-272866785D01*
X93317286Y-272866481D01*
X93262634Y-272866460D01*
X93080693Y-272865987D01*
X92913912Y-272864645D01*
X92767431Y-272862545D01*
X92646394Y-272859800D01*
X92555941Y-272856520D01*
X92501216Y-272852819D01*
X92486607Y-272849556D01*
X92490414Y-272824724D01*
X92501348Y-272759717D01*
X92518676Y-272658744D01*
X92541665Y-272526016D01*
X92569583Y-272365741D01*
X92601699Y-272182131D01*
X92637280Y-271979394D01*
X92675594Y-271761740D01*
X92689441Y-271683230D01*
X92728494Y-271461810D01*
X92765076Y-271254204D01*
X92798455Y-271064566D01*
X92827903Y-270897053D01*
X92852689Y-270755821D01*
X92872084Y-270645025D01*
X92885358Y-270568822D01*
X92891781Y-270531367D01*
X92892275Y-270528172D01*
X92913959Y-270526853D01*
X92975585Y-270525644D01*
X93072021Y-270524582D01*
X93198135Y-270523704D01*
X93348794Y-270523046D01*
X93518866Y-270522647D01*
X93671212Y-270522538D01*
X94450144Y-270522538D01*
X94434623Y-270629592D01*
G37*
G36*
X103787773Y-270629592D02*
G01*
X103776728Y-270696035D01*
X103766369Y-270742795D01*
X103762524Y-270753549D01*
X103738362Y-270757880D01*
X103674869Y-270761801D01*
X103577789Y-270765163D01*
X103452866Y-270767820D01*
X103305844Y-270769623D01*
X103142467Y-270770425D01*
X103105577Y-270770452D01*
X102458357Y-270770452D01*
X102396685Y-271125421D01*
X102375772Y-271246874D01*
X102357931Y-271352542D01*
X102344470Y-271434527D01*
X102336692Y-271484931D01*
X102335297Y-271496870D01*
X102356853Y-271501891D01*
X102417084Y-271506839D01*
X102509590Y-271511428D01*
X102627971Y-271515370D01*
X102765825Y-271518378D01*
X102837269Y-271519408D01*
X103338958Y-271525466D01*
X103301398Y-271761274D01*
X102791767Y-271767327D01*
X102282137Y-271773381D01*
X102208010Y-272190328D01*
X102184744Y-272321318D01*
X102164408Y-272436041D01*
X102148237Y-272527520D01*
X102137464Y-272588778D01*
X102133321Y-272612838D01*
X102133312Y-272612910D01*
X102154769Y-272614342D01*
X102215715Y-272615640D01*
X102310564Y-272616756D01*
X102433731Y-272617641D01*
X102579630Y-272618249D01*
X102742675Y-272618531D01*
X102788843Y-272618545D01*
X103444945Y-272618545D01*
X103429967Y-272703061D01*
X103423438Y-272746614D01*
X103417894Y-272781721D01*
X103408840Y-272809284D01*
X103391778Y-272830204D01*
X103362213Y-272845386D01*
X103315647Y-272855730D01*
X103247584Y-272862140D01*
X103153528Y-272865517D01*
X103028983Y-272866765D01*
X102869451Y-272866785D01*
X102670436Y-272866481D01*
X102615784Y-272866460D01*
X102433843Y-272865987D01*
X102267062Y-272864645D01*
X102120581Y-272862545D01*
X101999544Y-272859800D01*
X101909091Y-272856520D01*
X101854366Y-272852819D01*
X101839756Y-272849556D01*
X101843564Y-272824724D01*
X101854498Y-272759717D01*
X101871826Y-272658744D01*
X101894815Y-272526016D01*
X101922733Y-272365741D01*
X101954849Y-272182131D01*
X101990430Y-271979394D01*
X102028744Y-271761740D01*
X102042591Y-271683230D01*
X102081644Y-271461810D01*
X102118226Y-271254204D01*
X102151605Y-271064566D01*
X102181053Y-270897053D01*
X102205839Y-270755821D01*
X102225234Y-270645025D01*
X102238508Y-270568822D01*
X102244931Y-270531367D01*
X102245425Y-270528172D01*
X102267109Y-270526853D01*
X102328735Y-270525644D01*
X102425171Y-270524582D01*
X102551285Y-270523704D01*
X102701944Y-270523046D01*
X102872016Y-270522647D01*
X103024362Y-270522538D01*
X103803294Y-270522538D01*
X103787773Y-270629592D01*
G37*
G36*
X110774463Y-270629592D02*
G01*
X110763418Y-270696035D01*
X110753059Y-270742795D01*
X110749214Y-270753549D01*
X110725052Y-270757880D01*
X110661559Y-270761801D01*
X110564480Y-270765163D01*
X110439557Y-270767820D01*
X110292535Y-270769623D01*
X110129157Y-270770425D01*
X110092267Y-270770452D01*
X109445048Y-270770452D01*
X109383375Y-271125421D01*
X109362462Y-271246874D01*
X109344622Y-271352542D01*
X109331160Y-271434527D01*
X109323382Y-271484931D01*
X109321987Y-271496870D01*
X109343543Y-271501891D01*
X109403775Y-271506839D01*
X109496280Y-271511428D01*
X109614661Y-271515370D01*
X109752516Y-271518378D01*
X109823960Y-271519408D01*
X110325648Y-271525466D01*
X110288088Y-271761274D01*
X109778458Y-271767327D01*
X109268827Y-271773381D01*
X109194700Y-272190328D01*
X109171434Y-272321318D01*
X109151099Y-272436041D01*
X109134928Y-272527520D01*
X109124154Y-272588778D01*
X109120011Y-272612838D01*
X109120003Y-272612910D01*
X109141459Y-272614342D01*
X109202405Y-272615640D01*
X109297255Y-272616756D01*
X109420422Y-272617641D01*
X109566321Y-272618249D01*
X109729365Y-272618531D01*
X109775534Y-272618545D01*
X110431636Y-272618545D01*
X110416657Y-272703061D01*
X110410128Y-272746614D01*
X110404584Y-272781721D01*
X110395530Y-272809284D01*
X110378468Y-272830204D01*
X110348903Y-272845386D01*
X110302337Y-272855730D01*
X110234275Y-272862140D01*
X110140219Y-272865517D01*
X110015673Y-272866765D01*
X109856141Y-272866785D01*
X109657127Y-272866481D01*
X109602474Y-272866460D01*
X109420534Y-272865987D01*
X109253752Y-272864645D01*
X109107272Y-272862545D01*
X108986234Y-272859800D01*
X108895782Y-272856520D01*
X108841056Y-272852819D01*
X108826447Y-272849556D01*
X108830255Y-272824724D01*
X108841189Y-272759717D01*
X108858516Y-272658744D01*
X108881505Y-272526016D01*
X108909423Y-272365741D01*
X108941539Y-272182131D01*
X108977120Y-271979394D01*
X109015434Y-271761740D01*
X109029281Y-271683230D01*
X109068335Y-271461810D01*
X109104916Y-271254204D01*
X109138296Y-271064566D01*
X109167743Y-270897053D01*
X109192529Y-270755821D01*
X109211924Y-270645025D01*
X109225198Y-270568822D01*
X109231621Y-270531367D01*
X109232115Y-270528172D01*
X109253799Y-270526853D01*
X109315425Y-270525644D01*
X109411862Y-270524582D01*
X109537976Y-270523704D01*
X109688635Y-270523046D01*
X109858706Y-270522647D01*
X110011052Y-270522538D01*
X110789984Y-270522538D01*
X110774463Y-270629592D01*
G37*
G36*
X90403195Y-270524417D02*
G01*
X90447666Y-270529259D01*
X90458207Y-270533830D01*
X90454059Y-270570170D01*
X90442423Y-270644259D01*
X90424510Y-270749618D01*
X90401532Y-270879768D01*
X90374702Y-271028230D01*
X90345231Y-271188524D01*
X90314332Y-271354173D01*
X90283215Y-271518697D01*
X90253093Y-271675616D01*
X90225178Y-271818453D01*
X90200681Y-271940728D01*
X90180816Y-272035962D01*
X90166792Y-272097676D01*
X90163114Y-272111446D01*
X90080384Y-272324995D01*
X89968438Y-272507877D01*
X89829462Y-272657688D01*
X89665639Y-272772025D01*
X89498384Y-272842729D01*
X89358721Y-272875271D01*
X89201218Y-272894662D01*
X89045488Y-272899411D01*
X88911143Y-272888030D01*
X88908312Y-272887541D01*
X88771337Y-272854936D01*
X88661794Y-272806767D01*
X88562710Y-272735211D01*
X88546308Y-272720722D01*
X88461909Y-272630588D01*
X88403753Y-272531875D01*
X88367689Y-272414060D01*
X88349570Y-272266622D01*
X88347021Y-272215246D01*
X88345684Y-272148839D01*
X88347214Y-272081497D01*
X88352388Y-272007245D01*
X88361981Y-271920110D01*
X88376768Y-271814118D01*
X88397526Y-271683297D01*
X88425030Y-271521673D01*
X88460056Y-271323273D01*
X88470247Y-271266282D01*
X88601481Y-270533806D01*
X88729755Y-270527047D01*
X88812474Y-270526833D01*
X88853034Y-270537359D01*
X88858030Y-270546737D01*
X88854225Y-270574660D01*
X88843435Y-270641454D01*
X88826601Y-270741616D01*
X88804662Y-270869642D01*
X88778558Y-271020030D01*
X88749229Y-271187277D01*
X88731794Y-271285972D01*
X88689605Y-271529481D01*
X88656700Y-271733461D01*
X88632891Y-271902453D01*
X88617991Y-272040995D01*
X88611811Y-272153627D01*
X88614165Y-272244890D01*
X88624864Y-272319324D01*
X88643720Y-272381467D01*
X88670547Y-272435861D01*
X88683380Y-272456335D01*
X88768065Y-272545208D01*
X88884205Y-272609981D01*
X89023979Y-272648668D01*
X89179566Y-272659287D01*
X89343144Y-272639854D01*
X89376437Y-272632109D01*
X89547294Y-272567823D01*
X89689866Y-272468455D01*
X89804028Y-272334121D01*
X89889654Y-272164934D01*
X89892223Y-272158142D01*
X89907541Y-272105424D01*
X89928975Y-272014770D01*
X89955191Y-271892699D01*
X89984853Y-271745730D01*
X90016627Y-271580382D01*
X90049176Y-271403174D01*
X90064320Y-271317884D01*
X90095276Y-271142360D01*
X90124184Y-270979976D01*
X90150023Y-270836356D01*
X90171770Y-270717124D01*
X90188403Y-270627904D01*
X90198900Y-270574320D01*
X90201715Y-270561979D01*
X90218520Y-270538141D01*
X90257993Y-270526053D01*
X90330907Y-270522545D01*
X90335769Y-270522538D01*
X90403195Y-270524417D01*
G37*
G36*
X91127366Y-270522816D02*
G01*
X91244733Y-270524165D01*
X91380991Y-270526569D01*
X91432963Y-270527677D01*
X91629229Y-270533684D01*
X91787043Y-270542967D01*
X91912993Y-270556960D01*
X92013666Y-270577097D01*
X92095647Y-270604812D01*
X92165525Y-270641538D01*
X92229885Y-270688711D01*
X92249470Y-270705437D01*
X92330633Y-270805180D01*
X92380960Y-270929067D01*
X92401679Y-271069563D01*
X92394019Y-271219133D01*
X92359209Y-271370240D01*
X92298478Y-271515350D01*
X92213054Y-271646926D01*
X92104167Y-271757434D01*
X92074192Y-271780334D01*
X91984964Y-271839234D01*
X91897482Y-271883627D01*
X91802922Y-271915651D01*
X91692457Y-271937447D01*
X91557262Y-271951153D01*
X91388511Y-271958909D01*
X91331544Y-271960362D01*
X91206800Y-271963734D01*
X91099442Y-271967783D01*
X91016842Y-271972136D01*
X90966372Y-271976422D01*
X90954037Y-271979389D01*
X90950299Y-272004773D01*
X90940092Y-272065948D01*
X90924926Y-272154339D01*
X90906313Y-272261373D01*
X90885763Y-272378478D01*
X90864786Y-272497079D01*
X90844894Y-272608603D01*
X90827597Y-272704477D01*
X90814406Y-272776128D01*
X90806831Y-272814982D01*
X90806662Y-272815750D01*
X90795030Y-272845175D01*
X90769014Y-272860395D01*
X90716628Y-272865920D01*
X90671886Y-272866460D01*
X90604128Y-272863671D01*
X90559262Y-272856479D01*
X90548363Y-272849556D01*
X90552171Y-272824724D01*
X90563105Y-272759717D01*
X90580433Y-272658744D01*
X90603422Y-272526016D01*
X90631340Y-272365741D01*
X90663456Y-272182131D01*
X90699037Y-271979394D01*
X90737350Y-271761740D01*
X90741260Y-271739574D01*
X90994226Y-271739574D01*
X91308107Y-271739574D01*
X91478445Y-271736757D01*
X91609746Y-271727998D01*
X91707713Y-271712832D01*
X91740109Y-271704496D01*
X91870179Y-271645238D01*
X91979570Y-271555370D01*
X92064201Y-271442875D01*
X92119989Y-271315732D01*
X92142854Y-271181922D01*
X92128714Y-271049427D01*
X92106954Y-270987211D01*
X92071367Y-270920146D01*
X92027383Y-270874545D01*
X91959127Y-270835021D01*
X91941079Y-270826451D01*
X91890220Y-270804397D01*
X91842086Y-270789061D01*
X91786972Y-270779232D01*
X91715170Y-270773698D01*
X91616974Y-270771247D01*
X91494370Y-270770673D01*
X91167001Y-270770452D01*
X91092264Y-271204303D01*
X91068422Y-271341863D01*
X91046496Y-271466798D01*
X91027879Y-271571287D01*
X91013966Y-271647512D01*
X91006150Y-271687650D01*
X91005877Y-271688864D01*
X90994226Y-271739574D01*
X90741260Y-271739574D01*
X90751198Y-271683230D01*
X90790261Y-271461703D01*
X90826851Y-271253900D01*
X90860237Y-271063990D01*
X90889688Y-270896143D01*
X90914475Y-270754528D01*
X90933867Y-270643313D01*
X90947133Y-270566668D01*
X90953543Y-270528761D01*
X90954032Y-270525409D01*
X90975473Y-270523407D01*
X91035432Y-270522553D01*
X91127366Y-270522816D01*
G37*
G36*
X87535763Y-270499188D02*
G01*
X87718916Y-270541792D01*
X87865143Y-270608806D01*
X87976205Y-270701513D01*
X88053866Y-270821196D01*
X88082379Y-270896976D01*
X88104755Y-270977011D01*
X88109087Y-271025351D01*
X88091124Y-271053216D01*
X88046616Y-271071824D01*
X88012542Y-271081306D01*
X87926864Y-271101761D01*
X87875556Y-271106014D01*
X87850565Y-271093091D01*
X87843837Y-271062016D01*
X87843833Y-271060877D01*
X87823247Y-270974168D01*
X87766993Y-270887970D01*
X87683328Y-270812911D01*
X87624050Y-270777958D01*
X87494750Y-270734438D01*
X87348380Y-270717172D01*
X87197287Y-270724890D01*
X87053819Y-270756320D01*
X86930322Y-270810193D01*
X86867502Y-270855830D01*
X86803034Y-270937516D01*
X86759983Y-271039251D01*
X86740504Y-271148050D01*
X86746752Y-271250927D01*
X86780882Y-271334897D01*
X86786691Y-271342753D01*
X86835894Y-271392303D01*
X86903604Y-271435732D01*
X86996315Y-271475824D01*
X87120517Y-271515365D01*
X87282702Y-271557138D01*
X87291373Y-271559204D01*
X87476057Y-271607853D01*
X87621126Y-271657377D01*
X87732013Y-271710181D01*
X87814153Y-271768669D01*
X87851573Y-271807104D01*
X87917111Y-271918157D01*
X87948341Y-272047830D01*
X87947591Y-272188487D01*
X87917191Y-272332489D01*
X87859468Y-272472199D01*
X87776753Y-272599978D01*
X87671373Y-272708189D01*
X87553268Y-272785472D01*
X87392087Y-272846620D01*
X87204786Y-272885907D01*
X87005684Y-272901386D01*
X86809097Y-272891111D01*
X86792501Y-272888924D01*
X86607973Y-272847449D01*
X86458978Y-272778669D01*
X86344520Y-272681693D01*
X86263608Y-272555632D01*
X86215249Y-272399596D01*
X86209659Y-272366493D01*
X86193911Y-272260936D01*
X86292031Y-272235560D01*
X86361514Y-272217318D01*
X86417369Y-272202195D01*
X86429592Y-272198737D01*
X86456088Y-272198950D01*
X86467296Y-272227073D01*
X86469033Y-272268589D01*
X86490298Y-272383636D01*
X86549166Y-272488957D01*
X86638247Y-272572115D01*
X86655953Y-272583204D01*
X86780648Y-272634998D01*
X86930006Y-272664130D01*
X87089545Y-272670285D01*
X87244782Y-272653150D01*
X87381235Y-272612410D01*
X87408717Y-272599527D01*
X87516582Y-272525031D01*
X87601151Y-272428130D01*
X87658505Y-272317795D01*
X87684722Y-272202993D01*
X87675883Y-272092694D01*
X87654570Y-272037026D01*
X87616410Y-271977448D01*
X87565840Y-271928806D01*
X87496079Y-271887757D01*
X87400348Y-271850954D01*
X87271870Y-271815053D01*
X87145164Y-271785657D01*
X86935562Y-271731290D01*
X86768169Y-271668934D01*
X86640615Y-271597285D01*
X86550532Y-271515042D01*
X86499482Y-271430756D01*
X86475606Y-271332820D01*
X86470999Y-271211145D01*
X86485364Y-271082597D01*
X86507227Y-270995433D01*
X86576078Y-270852923D01*
X86681097Y-270729737D01*
X86816522Y-270628655D01*
X86976591Y-270552457D01*
X87155543Y-270503922D01*
X87347615Y-270485832D01*
X87535763Y-270499188D01*
G37*
G36*
X95071466Y-270522816D02*
G01*
X95188833Y-270524165D01*
X95325091Y-270526569D01*
X95377063Y-270527677D01*
X95540732Y-270531747D01*
X95666728Y-270536213D01*
X95762453Y-270541815D01*
X95835308Y-270549292D01*
X95892694Y-270559384D01*
X95942012Y-270572831D01*
X95985933Y-270588535D01*
X96133192Y-270661217D01*
X96240309Y-270751776D01*
X96309924Y-270863905D01*
X96344683Y-271001298D01*
X96349906Y-271097249D01*
X96339786Y-271254571D01*
X96307726Y-271386175D01*
X96249257Y-271507892D01*
X96221921Y-271550800D01*
X96104846Y-271686366D01*
X95960480Y-271789591D01*
X95833039Y-271844088D01*
X95766374Y-271868020D01*
X95721517Y-271889708D01*
X95709494Y-271901363D01*
X95717805Y-271926661D01*
X95741075Y-271987289D01*
X95776811Y-272077018D01*
X95822519Y-272189619D01*
X95875706Y-272318862D01*
X95901065Y-272379949D01*
X95956716Y-272514221D01*
X96006011Y-272634247D01*
X96046466Y-272733885D01*
X96075594Y-272806993D01*
X96090911Y-272847431D01*
X96092635Y-272853332D01*
X96072036Y-272859906D01*
X96017977Y-272864615D01*
X95942066Y-272866459D01*
X95940420Y-272866460D01*
X95788206Y-272866460D01*
X95607989Y-272404824D01*
X95427773Y-271943189D01*
X95166520Y-271942801D01*
X94905268Y-271942413D01*
X94832227Y-272364995D01*
X94808711Y-272499836D01*
X94787164Y-272621134D01*
X94768983Y-272721195D01*
X94755566Y-272792323D01*
X94748313Y-272826825D01*
X94748260Y-272827019D01*
X94732044Y-272850810D01*
X94693242Y-272862894D01*
X94621113Y-272866448D01*
X94614896Y-272866460D01*
X94547478Y-272863647D01*
X94503010Y-272856401D01*
X94492463Y-272849556D01*
X94496271Y-272824724D01*
X94507204Y-272759717D01*
X94524532Y-272658744D01*
X94547521Y-272526016D01*
X94575439Y-272365741D01*
X94607555Y-272182131D01*
X94643136Y-271979394D01*
X94681450Y-271761740D01*
X94693289Y-271694613D01*
X94948729Y-271694613D01*
X94956988Y-271705297D01*
X94981488Y-271712138D01*
X95028321Y-271715692D01*
X95103584Y-271716516D01*
X95213371Y-271715166D01*
X95318586Y-271713132D01*
X95461645Y-271709662D01*
X95567706Y-271705327D01*
X95644849Y-271699153D01*
X95701150Y-271690163D01*
X95744688Y-271677384D01*
X95783542Y-271659840D01*
X95790510Y-271656182D01*
X95914138Y-271565815D01*
X96007949Y-271445646D01*
X96057861Y-271330122D01*
X96085666Y-271211457D01*
X96088419Y-271115056D01*
X96065422Y-271025250D01*
X96041925Y-270973739D01*
X96003717Y-270909394D01*
X95959182Y-270860841D01*
X95901541Y-270825755D01*
X95824015Y-270801812D01*
X95719827Y-270786686D01*
X95582196Y-270778055D01*
X95461265Y-270774609D01*
X95111616Y-270767497D01*
X95036949Y-271202826D01*
X95013221Y-271339846D01*
X94991384Y-271463491D01*
X94972813Y-271566161D01*
X94958885Y-271640257D01*
X94950976Y-271678177D01*
X94950614Y-271679529D01*
X94948729Y-271694613D01*
X94693289Y-271694613D01*
X94695297Y-271683230D01*
X94734360Y-271461703D01*
X94770950Y-271253900D01*
X94804336Y-271063990D01*
X94833788Y-270896143D01*
X94858574Y-270754528D01*
X94877966Y-270643313D01*
X94891232Y-270566668D01*
X94897643Y-270528761D01*
X94898131Y-270525409D01*
X94919573Y-270523407D01*
X94979531Y-270522553D01*
X95071466Y-270522816D01*
G37*
G36*
X107902817Y-270506606D02*
G01*
X108098655Y-270560856D01*
X108278023Y-270650134D01*
X108391050Y-270734283D01*
X108439804Y-270785864D01*
X108491317Y-270854736D01*
X108539858Y-270930938D01*
X108579696Y-271004508D01*
X108605102Y-271065484D01*
X108610344Y-271103906D01*
X108607002Y-271109659D01*
X108579007Y-271121738D01*
X108524020Y-271139134D01*
X108458992Y-271157135D01*
X108400876Y-271171027D01*
X108367849Y-271176131D01*
X108351569Y-271158437D01*
X108321250Y-271113143D01*
X108299106Y-271076604D01*
X108195345Y-270942320D01*
X108062131Y-270839268D01*
X107903944Y-270769006D01*
X107725264Y-270733092D01*
X107530567Y-270733084D01*
X107380089Y-270756828D01*
X107176226Y-270824251D01*
X106993204Y-270928554D01*
X106834423Y-271065052D01*
X106703286Y-271229061D01*
X106603193Y-271415895D01*
X106537546Y-271620870D01*
X106509744Y-271839300D01*
X106511193Y-271953682D01*
X106541021Y-272143337D01*
X106605735Y-272304566D01*
X106704725Y-272436726D01*
X106837379Y-272539171D01*
X107003088Y-272611258D01*
X107169137Y-272648132D01*
X107364986Y-272655518D01*
X107567882Y-272625814D01*
X107766471Y-272562713D01*
X107949402Y-272469908D01*
X108105323Y-272351091D01*
X108117144Y-272339738D01*
X108179839Y-272275436D01*
X108217162Y-272225265D01*
X108237558Y-272173552D01*
X108249471Y-272104622D01*
X108251146Y-272091010D01*
X108261672Y-272014003D01*
X108272300Y-271953085D01*
X108278742Y-271927611D01*
X108275499Y-271915869D01*
X108251659Y-271907474D01*
X108201690Y-271901934D01*
X108120059Y-271898756D01*
X108001234Y-271897448D01*
X107938613Y-271897338D01*
X107818455Y-271896724D01*
X107715951Y-271895028D01*
X107638739Y-271892472D01*
X107594456Y-271889276D01*
X107586868Y-271887178D01*
X107591207Y-271861177D01*
X107602316Y-271805696D01*
X107611273Y-271763221D01*
X107635678Y-271649423D01*
X108095834Y-271649423D01*
X108259110Y-271650069D01*
X108381775Y-271652187D01*
X108468273Y-271656049D01*
X108523054Y-271661929D01*
X108550562Y-271670098D01*
X108555979Y-271677595D01*
X108552193Y-271706649D01*
X108541538Y-271773854D01*
X108525063Y-271872986D01*
X108503812Y-271997821D01*
X108478834Y-272142134D01*
X108454570Y-272280479D01*
X108427286Y-272435325D01*
X108402779Y-272574807D01*
X108382083Y-272693008D01*
X108366231Y-272784014D01*
X108356257Y-272841908D01*
X108353160Y-272860825D01*
X108332866Y-272864041D01*
X108280994Y-272866080D01*
X108240461Y-272866460D01*
X108176170Y-272863149D01*
X108135369Y-272854685D01*
X108127773Y-272848061D01*
X108131603Y-272817418D01*
X108141514Y-272757123D01*
X108151860Y-272699360D01*
X108163099Y-272627922D01*
X108167536Y-272576331D01*
X108165337Y-272558446D01*
X108142968Y-272564737D01*
X108095652Y-272591836D01*
X108045464Y-272625620D01*
X107827749Y-272755998D01*
X107599931Y-272845718D01*
X107366606Y-272893588D01*
X107132369Y-272898415D01*
X107036498Y-272887578D01*
X106876202Y-272846296D01*
X106714556Y-272775448D01*
X106570357Y-272684003D01*
X106517911Y-272640137D01*
X106399862Y-272501690D01*
X106314614Y-272337945D01*
X106262040Y-272154385D01*
X106242010Y-271956492D01*
X106254396Y-271749749D01*
X106299070Y-271539638D01*
X106375903Y-271331641D01*
X106484766Y-271131242D01*
X106555671Y-271029636D01*
X106705173Y-270864693D01*
X106878611Y-270728277D01*
X107070214Y-270621317D01*
X107274208Y-270544740D01*
X107484821Y-270499477D01*
X107696281Y-270486456D01*
X107902817Y-270506606D01*
G37*
G36*
X99039915Y-270528103D02*
G01*
X99054290Y-270541410D01*
X99052834Y-270567870D01*
X99052028Y-270572248D01*
X99046292Y-270604113D01*
X99033519Y-270675914D01*
X99014498Y-270783198D01*
X98990017Y-270921511D01*
X98960865Y-271086397D01*
X98927827Y-271273403D01*
X98891693Y-271478073D01*
X98853251Y-271695955D01*
X98845557Y-271739574D01*
X98648803Y-272855191D01*
X98520142Y-272861950D01*
X98450868Y-272863584D01*
X98404159Y-272860847D01*
X98391482Y-272856049D01*
X98395300Y-272830106D01*
X98406020Y-272766032D01*
X98422533Y-272670058D01*
X98443737Y-272548413D01*
X98468523Y-272407325D01*
X98495787Y-272253024D01*
X98524424Y-272091739D01*
X98553327Y-271929699D01*
X98581391Y-271773132D01*
X98607510Y-271628269D01*
X98630579Y-271501338D01*
X98649492Y-271398568D01*
X98661651Y-271333940D01*
X98680341Y-271233929D01*
X98695288Y-271149142D01*
X98704688Y-271090126D01*
X98707010Y-271069122D01*
X98696019Y-271041798D01*
X98666431Y-271049699D01*
X98623316Y-271089692D01*
X98578486Y-271148540D01*
X98545955Y-271194928D01*
X98490935Y-271271584D01*
X98417755Y-271372551D01*
X98330749Y-271491872D01*
X98234249Y-271623590D01*
X98132586Y-271761746D01*
X98132316Y-271762112D01*
X98022500Y-271910820D01*
X97935820Y-272027183D01*
X97868704Y-272115168D01*
X97817580Y-272178740D01*
X97778875Y-272221865D01*
X97749017Y-272248508D01*
X97724434Y-272262636D01*
X97701553Y-272268215D01*
X97676802Y-272269210D01*
X97592732Y-272269210D01*
X97450329Y-271908607D01*
X97393329Y-271762920D01*
X97332958Y-271606337D01*
X97275131Y-271454347D01*
X97225767Y-271322436D01*
X97209535Y-271278270D01*
X97171008Y-271176067D01*
X97136434Y-271090619D01*
X97109320Y-271030169D01*
X97093175Y-271002961D01*
X97092085Y-271002302D01*
X97084291Y-271022378D01*
X97069973Y-271082298D01*
X97050028Y-271177444D01*
X97025352Y-271303201D01*
X96996842Y-271454952D01*
X96965394Y-271628079D01*
X96931905Y-271817966D01*
X96917191Y-271903092D01*
X96883187Y-272100296D01*
X96851259Y-272284097D01*
X96822268Y-272449645D01*
X96797072Y-272592091D01*
X96776532Y-272706584D01*
X96761508Y-272788274D01*
X96752859Y-272832312D01*
X96751381Y-272838287D01*
X96727022Y-272852346D01*
X96675392Y-272862120D01*
X96611689Y-272866933D01*
X96551112Y-272866108D01*
X96508860Y-272858969D01*
X96498319Y-272849556D01*
X96502127Y-272824724D01*
X96513061Y-272759717D01*
X96530388Y-272658744D01*
X96553377Y-272526016D01*
X96581296Y-272365741D01*
X96613411Y-272182131D01*
X96648992Y-271979394D01*
X96687306Y-271761740D01*
X96701153Y-271683230D01*
X96740211Y-271461768D01*
X96776795Y-271254085D01*
X96810177Y-271064342D01*
X96839627Y-270896699D01*
X96864413Y-270755317D01*
X96883807Y-270644359D01*
X96897077Y-270567983D01*
X96903495Y-270530353D01*
X96903988Y-270527097D01*
X96924475Y-270524594D01*
X96977877Y-270524731D01*
X97043788Y-270527097D01*
X97183583Y-270533806D01*
X97446456Y-271221207D01*
X97524330Y-271422424D01*
X97591833Y-271591844D01*
X97648049Y-271727318D01*
X97692060Y-271826702D01*
X97722952Y-271887847D01*
X97739775Y-271908607D01*
X97759584Y-271891067D01*
X97802869Y-271841092D01*
X97866518Y-271762646D01*
X97947422Y-271659694D01*
X98042470Y-271536201D01*
X98148550Y-271396132D01*
X98262554Y-271243452D01*
X98279036Y-271221207D01*
X98787851Y-270533806D01*
X98924798Y-270527173D01*
X98999990Y-270524505D01*
X99039915Y-270528103D01*
G37*
G36*
X90014878Y-267412686D02*
G01*
X90219883Y-267414188D01*
X90385909Y-267418953D01*
X90518991Y-267427843D01*
X90625162Y-267441722D01*
X90710456Y-267461455D01*
X90780906Y-267487904D01*
X90842545Y-267521934D01*
X90860141Y-267533696D01*
X90961047Y-267629174D01*
X91026334Y-267747322D01*
X91054766Y-267881664D01*
X91045110Y-268025722D01*
X90996129Y-268173022D01*
X90985980Y-268193696D01*
X90900680Y-268319595D01*
X90780502Y-268428060D01*
X90692749Y-268485158D01*
X90669309Y-268502997D01*
X90675893Y-268519561D01*
X90717594Y-268543938D01*
X90728934Y-268549710D01*
X90852716Y-268628306D01*
X90936268Y-268721641D01*
X90983691Y-268836296D01*
X90999085Y-268978850D01*
X90999095Y-268983220D01*
X90978114Y-269157004D01*
X90917091Y-269314004D01*
X90818843Y-269451399D01*
X90686184Y-269566370D01*
X90521930Y-269656095D01*
X90328899Y-269717756D01*
X90250559Y-269732922D01*
X90184807Y-269740159D01*
X90089822Y-269746045D01*
X89972809Y-269750571D01*
X89840971Y-269753728D01*
X89701511Y-269755508D01*
X89561634Y-269755900D01*
X89428542Y-269754897D01*
X89309439Y-269752489D01*
X89211529Y-269748667D01*
X89142016Y-269743421D01*
X89108103Y-269736744D01*
X89105945Y-269734364D01*
X89109727Y-269709141D01*
X89120471Y-269644683D01*
X89137274Y-269546141D01*
X89159232Y-269418664D01*
X89173959Y-269333673D01*
X89625601Y-269333673D01*
X89628924Y-269349702D01*
X89644764Y-269360719D01*
X89680083Y-269367644D01*
X89741842Y-269371400D01*
X89837003Y-269372906D01*
X89923796Y-269373114D01*
X90049855Y-269372330D01*
X90140783Y-269369136D01*
X90206512Y-269362269D01*
X90256972Y-269350466D01*
X90302093Y-269332465D01*
X90322521Y-269322405D01*
X90425444Y-269252868D01*
X90492250Y-269163832D01*
X90527533Y-269061134D01*
X90532492Y-268949437D01*
X90497042Y-268851614D01*
X90424049Y-268774822D01*
X90408854Y-268764828D01*
X90373939Y-268746096D01*
X90335273Y-268733567D01*
X90283797Y-268726283D01*
X90210454Y-268723285D01*
X90106185Y-268723616D01*
X90031213Y-268724893D01*
X89728176Y-268730790D01*
X89677533Y-269012511D01*
X89658118Y-269122974D01*
X89641929Y-269219726D01*
X89630575Y-269292819D01*
X89625666Y-269332304D01*
X89625601Y-269333673D01*
X89173959Y-269333673D01*
X89185443Y-269267402D01*
X89215003Y-269097506D01*
X89247009Y-268914124D01*
X89280558Y-268722406D01*
X89314746Y-268527503D01*
X89348672Y-268334564D01*
X89348832Y-268333655D01*
X89809927Y-268333655D01*
X89826891Y-268366787D01*
X89866419Y-268381135D01*
X89932950Y-268383209D01*
X90030922Y-268379518D01*
X90069432Y-268378188D01*
X90192946Y-268373006D01*
X90281412Y-268365159D01*
X90344846Y-268353089D01*
X90393263Y-268335240D01*
X90413132Y-268324727D01*
X90488533Y-268261158D01*
X90546495Y-268174375D01*
X90579941Y-268078943D01*
X90581791Y-267989429D01*
X90579973Y-267981390D01*
X90556210Y-267915593D01*
X90518879Y-267867823D01*
X90461209Y-267835117D01*
X90376432Y-267814515D01*
X90257778Y-267803053D01*
X90163653Y-267799222D01*
X90059598Y-267797042D01*
X89974281Y-267796649D01*
X89916429Y-267797982D01*
X89894769Y-267800982D01*
X89894765Y-267801038D01*
X89890974Y-267825642D01*
X89880696Y-267885220D01*
X89865570Y-267970406D01*
X89850032Y-268056475D01*
X89825936Y-268185008D01*
X89811088Y-268275232D01*
X89809927Y-268333655D01*
X89348832Y-268333655D01*
X89381430Y-268148739D01*
X89412119Y-267975177D01*
X89439835Y-267819029D01*
X89463675Y-267685444D01*
X89482735Y-267579572D01*
X89496113Y-267506563D01*
X89502316Y-267474312D01*
X89515205Y-267412334D01*
X90014878Y-267412686D01*
G37*
G36*
X87221282Y-265842863D02*
G01*
X87336335Y-265849557D01*
X87494334Y-265860631D01*
X87695789Y-265876099D01*
X87941208Y-265895974D01*
X88155955Y-265913909D01*
X89767867Y-266056640D01*
X91410536Y-266215280D01*
X93072967Y-266388752D01*
X93669831Y-266454144D01*
X94860990Y-266589689D01*
X96016618Y-266728076D01*
X97136288Y-266869218D01*
X98219572Y-267013023D01*
X99266044Y-267159402D01*
X100275276Y-267308264D01*
X101246842Y-267459521D01*
X102180313Y-267613081D01*
X103075263Y-267768856D01*
X103931265Y-267926754D01*
X104747891Y-268086687D01*
X105524714Y-268248564D01*
X106261307Y-268412295D01*
X106957244Y-268577790D01*
X107612096Y-268744960D01*
X108225436Y-268913714D01*
X108796838Y-269083963D01*
X109325874Y-269255616D01*
X109812117Y-269428584D01*
X110255141Y-269602777D01*
X110654516Y-269778104D01*
X111009818Y-269954476D01*
X111320617Y-270131803D01*
X111411978Y-270189627D01*
X111650100Y-270364044D01*
X111844487Y-270549248D01*
X111995224Y-270745472D01*
X112102398Y-270952947D01*
X112166095Y-271171906D01*
X112186402Y-271402581D01*
X112163405Y-271645204D01*
X112097191Y-271900008D01*
X112073301Y-271967226D01*
X111983804Y-272160490D01*
X111857335Y-272365318D01*
X111698593Y-272576086D01*
X111512278Y-272787172D01*
X111303088Y-272992954D01*
X111075722Y-273187810D01*
X111010594Y-273238763D01*
X110915166Y-273310049D01*
X110814708Y-273381897D01*
X110713587Y-273451608D01*
X110616170Y-273516485D01*
X110526822Y-273573827D01*
X110449909Y-273620937D01*
X110389799Y-273655116D01*
X110350857Y-273673664D01*
X110337450Y-273673883D01*
X110353944Y-273653074D01*
X110383464Y-273626395D01*
X110425912Y-273591368D01*
X110493294Y-273537311D01*
X110574893Y-273472778D01*
X110629662Y-273429902D01*
X110776217Y-273307963D01*
X110934836Y-273162821D01*
X111094999Y-273005070D01*
X111246190Y-272845304D01*
X111377891Y-272694117D01*
X111447711Y-272605932D01*
X111578217Y-272416498D01*
X111694879Y-272216186D01*
X111790073Y-272019026D01*
X111845057Y-271874800D01*
X111898942Y-271642710D01*
X111908445Y-271414257D01*
X111874225Y-271191319D01*
X111796940Y-270975771D01*
X111677249Y-270769491D01*
X111515812Y-270574354D01*
X111328832Y-270404559D01*
X111135087Y-270261463D01*
X110921796Y-270127384D01*
X110686090Y-270001268D01*
X110425100Y-269882065D01*
X110135958Y-269768720D01*
X109815793Y-269660181D01*
X109461737Y-269555396D01*
X109070921Y-269453313D01*
X108640476Y-269352877D01*
X108217924Y-269263250D01*
X107598026Y-269143499D01*
X107010767Y-269043818D01*
X106448767Y-268963538D01*
X105904643Y-268901991D01*
X105371015Y-268858506D01*
X104840500Y-268832415D01*
X104305716Y-268823050D01*
X103759284Y-268829741D01*
X103518811Y-268837391D01*
X103267231Y-268845738D01*
X103002304Y-268852609D01*
X102729185Y-268858005D01*
X102453028Y-268861926D01*
X102178986Y-268864372D01*
X101912213Y-268865343D01*
X101657864Y-268864840D01*
X101421091Y-268862863D01*
X101207050Y-268859411D01*
X101020895Y-268854486D01*
X100867778Y-268848087D01*
X100752854Y-268840214D01*
X100724135Y-268837287D01*
X100572413Y-268819542D01*
X100438354Y-268802609D01*
X100316194Y-268785163D01*
X100200163Y-268765880D01*
X100084496Y-268743436D01*
X99963426Y-268716505D01*
X99831185Y-268683764D01*
X99682008Y-268643888D01*
X99510126Y-268595553D01*
X99309774Y-268537434D01*
X99075184Y-268468206D01*
X98932387Y-268425782D01*
X98355190Y-268254175D01*
X97819675Y-268095183D01*
X97324375Y-267948380D01*
X96867825Y-267813338D01*
X96448557Y-267689633D01*
X96065107Y-267576838D01*
X95716008Y-267474526D01*
X95399793Y-267382271D01*
X95114997Y-267299648D01*
X94860153Y-267226229D01*
X94633795Y-267161589D01*
X94434458Y-267105301D01*
X94260674Y-267056939D01*
X94110979Y-267016077D01*
X93983905Y-266982288D01*
X93877987Y-266955147D01*
X93850575Y-266948350D01*
X93596178Y-266889090D01*
X93298421Y-266825641D01*
X92958799Y-266758255D01*
X92578806Y-266687185D01*
X92159940Y-266612686D01*
X91703695Y-266535009D01*
X91211566Y-266454409D01*
X90685049Y-266371138D01*
X90125639Y-266285449D01*
X89534832Y-266197597D01*
X88914123Y-266107834D01*
X88745341Y-266083834D01*
X88524702Y-266052570D01*
X88302696Y-266021119D01*
X88086662Y-265990520D01*
X87883941Y-265961811D01*
X87701875Y-265936033D01*
X87547802Y-265914225D01*
X87429065Y-265897426D01*
X87404348Y-265893931D01*
X87272407Y-265874627D01*
X87180359Y-265859622D01*
X87128714Y-265848929D01*
X87117981Y-265842563D01*
X87148667Y-265840536D01*
X87221282Y-265842863D01*
G37*
D13*
X238409000Y-202153000D02*
X168909000Y-202153000D01*
X168909000Y-182153000D01*
X238409000Y-182153000D01*
X238409000Y-202153000D01*
X160909000Y-178018000D02*
X91409000Y-178018000D01*
X91409000Y-158018000D01*
X160909000Y-158018000D01*
X160909000Y-178018000D01*
X238409000Y-226287000D02*
X168909000Y-226287000D01*
X168909000Y-206287000D01*
X238409000Y-206287000D01*
X238409000Y-226287000D01*
D14*
X161170000Y-263380000D02*
X177370000Y-263380000D01*
X161170000Y-279580000D02*
X161170000Y-263380000D01*
X177370000Y-263380000D02*
X177370000Y-279580000D01*
X177370000Y-279580000D02*
X161170000Y-279580000D01*
D13*
X160909000Y-250421000D02*
X91409000Y-250421000D01*
X91409000Y-230421000D01*
X160909000Y-230421000D01*
X160909000Y-250421000D01*
X115280000Y-266780000D02*
X125720000Y-266780000D01*
X125720000Y-279720000D01*
X115280000Y-279720000D01*
X115280000Y-266780000D01*
X238409000Y-250421000D02*
X168909000Y-250421000D01*
X168909000Y-230421000D01*
X238409000Y-230421000D01*
X238409000Y-250421000D01*
X160909000Y-226287000D02*
X91409000Y-226287000D01*
X91409000Y-206287000D01*
X160909000Y-206287000D01*
X160909000Y-226287000D01*
X238409000Y-153884000D02*
X168909000Y-153884000D01*
X168909000Y-133884000D01*
X238409000Y-133884000D01*
X238409000Y-153884000D01*
%LPC*%
D16*
X148629000Y-119750000D03*
X103689000Y-119750000D03*
X226129000Y-119750000D03*
X181189000Y-119750000D03*
X148629000Y-143884000D03*
X103689000Y-143884000D03*
X226129000Y-168018000D03*
X181189000Y-168018000D03*
D17*
X133550000Y-265250000D03*
X133550000Y-267790000D03*
X133550000Y-270330000D03*
X133550000Y-272870000D03*
X133550000Y-275410000D03*
X133550000Y-277950000D03*
X136090000Y-265250000D03*
X136090000Y-267790000D03*
X136090000Y-270330000D03*
X136090000Y-272870000D03*
X136090000Y-275410000D03*
X136090000Y-277950000D03*
X138630000Y-265250000D03*
X138630000Y-267790000D03*
X138630000Y-270330000D03*
X138630000Y-272870000D03*
X138630000Y-275410000D03*
X138630000Y-277950000D03*
X141170000Y-265250000D03*
X141170000Y-267790000D03*
X141170000Y-270330000D03*
X141170000Y-272870000D03*
X141170000Y-275410000D03*
X141170000Y-277950000D03*
X143710000Y-265250000D03*
X143710000Y-267790000D03*
X143710000Y-270330000D03*
X143710000Y-272870000D03*
X143710000Y-275410000D03*
X143710000Y-277950000D03*
X146250000Y-265250000D03*
X146250000Y-267790000D03*
X146250000Y-270330000D03*
X146250000Y-272870000D03*
X146250000Y-275410000D03*
X146250000Y-277950000D03*
D18*
X234315000Y-278445000D03*
X200715000Y-278445000D03*
D19*
X234315000Y-271145000D03*
D20*
X230115000Y-271145000D03*
X225915000Y-271145000D03*
X221715000Y-271145000D03*
X217515000Y-271145000D03*
X213315000Y-271145000D03*
X209115000Y-271145000D03*
X204915000Y-271145000D03*
X200715000Y-271145000D03*
X234315000Y-265645000D03*
X230115000Y-265645000D03*
X225915000Y-265645000D03*
X221715000Y-265645000D03*
X217515000Y-265645000D03*
X213315000Y-265645000D03*
X209115000Y-265645000D03*
X204915000Y-265645000D03*
X200715000Y-265645000D03*
D21*
X188000000Y-269440000D03*
D16*
X148629000Y-192153000D03*
X103689000Y-192153000D03*
X226129000Y-192153000D03*
X181189000Y-192153000D03*
X148629000Y-168018000D03*
X103689000Y-168018000D03*
X226129000Y-216287000D03*
X181189000Y-216287000D03*
D17*
X162920000Y-265130000D03*
X162920000Y-267670000D03*
X162920000Y-270210000D03*
X162920000Y-272750000D03*
X162920000Y-275290000D03*
X162920000Y-277830000D03*
X165460000Y-265130000D03*
X165460000Y-267670000D03*
X165460000Y-270210000D03*
X165460000Y-272750000D03*
X165460000Y-275290000D03*
X165460000Y-277830000D03*
X168000000Y-265130000D03*
X168000000Y-267670000D03*
X168000000Y-270210000D03*
X168000000Y-272750000D03*
X168000000Y-275290000D03*
X168000000Y-277830000D03*
X170540000Y-265130000D03*
X170540000Y-267670000D03*
X170540000Y-270210000D03*
X170540000Y-272750000D03*
X170540000Y-275290000D03*
X170540000Y-277830000D03*
X173080000Y-265130000D03*
X173080000Y-267670000D03*
X173080000Y-270210000D03*
X173080000Y-272750000D03*
X173080000Y-275290000D03*
X173080000Y-277830000D03*
X175620000Y-265130000D03*
X175620000Y-267670000D03*
X175620000Y-270210000D03*
X175620000Y-272750000D03*
X175620000Y-275290000D03*
X175620000Y-277830000D03*
D22*
X237879000Y-257421000D03*
D16*
X148629000Y-240421000D03*
X103689000Y-240421000D03*
D21*
X120500000Y-269440000D03*
D16*
X226129000Y-240421000D03*
X181189000Y-240421000D03*
D22*
X91879000Y-257421000D03*
D16*
X148629000Y-216287000D03*
X103689000Y-216287000D03*
X226129000Y-143884000D03*
X181189000Y-143884000D03*
%LPD*%
M02*
