G04 #@! TF.GenerationSoftware,KiCad,Pcbnew,8.0.5*
G04 #@! TF.CreationDate,2024-11-12T22:59:12-08:00*
G04 #@! TF.ProjectId,URBAN_CELL_BOARD,55524241-4e5f-4434-954c-4c5f424f4152,rev?*
G04 #@! TF.SameCoordinates,Original*
G04 #@! TF.FileFunction,Copper,L1,Top*
G04 #@! TF.FilePolarity,Positive*
%FSLAX46Y46*%
G04 Gerber Fmt 4.6, Leading zero omitted, Abs format (unit mm)*
G04 Created by KiCad (PCBNEW 8.0.5) date 2024-11-12 22:59:12*
%MOMM*%
%LPD*%
G01*
G04 APERTURE LIST*
G04 Aperture macros list*
%AMRoundRect*
0 Rectangle with rounded corners*
0 $1 Rounding radius*
0 $2 $3 $4 $5 $6 $7 $8 $9 X,Y pos of 4 corners*
0 Add a 4 corners polygon primitive as box body*
4,1,4,$2,$3,$4,$5,$6,$7,$8,$9,$2,$3,0*
0 Add four circle primitives for the rounded corners*
1,1,$1+$1,$2,$3*
1,1,$1+$1,$4,$5*
1,1,$1+$1,$6,$7*
1,1,$1+$1,$8,$9*
0 Add four rect primitives between the rounded corners*
20,1,$1+$1,$2,$3,$4,$5,0*
20,1,$1+$1,$4,$5,$6,$7,0*
20,1,$1+$1,$6,$7,$8,$9,0*
20,1,$1+$1,$8,$9,$2,$3,0*%
G04 Aperture macros list end*
G04 #@! TA.AperFunction,ComponentPad*
%ADD10C,9.000000*%
G04 #@! TD*
G04 #@! TA.AperFunction,ComponentPad*
%ADD11C,1.800000*%
G04 #@! TD*
G04 #@! TA.AperFunction,ComponentPad*
%ADD12RoundRect,0.250001X1.099999X1.599999X-1.099999X1.599999X-1.099999X-1.599999X1.099999X-1.599999X0*%
G04 #@! TD*
G04 #@! TA.AperFunction,ComponentPad*
%ADD13O,2.700000X3.700000*%
G04 #@! TD*
G04 #@! TA.AperFunction,ComponentPad*
%ADD14C,1.930000*%
G04 #@! TD*
G04 #@! TA.AperFunction,ViaPad*
%ADD15C,0.800000*%
G04 #@! TD*
G04 #@! TA.AperFunction,Conductor*
%ADD16C,0.250000*%
G04 #@! TD*
G04 #@! TA.AperFunction,Conductor*
%ADD17C,3.000000*%
G04 #@! TD*
G04 #@! TA.AperFunction,Conductor*
%ADD18C,16.000000*%
G04 #@! TD*
G04 APERTURE END LIST*
D10*
X148629000Y-119750000D03*
X103689000Y-119750000D03*
X226129000Y-119750000D03*
X181189000Y-119750000D03*
X148629000Y-143884000D03*
X103689000Y-143884000D03*
X226129000Y-168018000D03*
X181189000Y-168018000D03*
D11*
X133550000Y-265250000D03*
X133550000Y-267790000D03*
X133550000Y-270330000D03*
X133550000Y-272870000D03*
X133550000Y-275410000D03*
X133550000Y-277950000D03*
X136090000Y-265250000D03*
X136090000Y-267790000D03*
X136090000Y-270330000D03*
X136090000Y-272870000D03*
X136090000Y-275410000D03*
X136090000Y-277950000D03*
X138630000Y-265250000D03*
X138630000Y-267790000D03*
X138630000Y-270330000D03*
X138630000Y-272870000D03*
X138630000Y-275410000D03*
X138630000Y-277950000D03*
X141170000Y-265250000D03*
X141170000Y-267790000D03*
X141170000Y-270330000D03*
X141170000Y-272870000D03*
X141170000Y-275410000D03*
X141170000Y-277950000D03*
X143710000Y-265250000D03*
X143710000Y-267790000D03*
X143710000Y-270330000D03*
X143710000Y-272870000D03*
X143710000Y-275410000D03*
X143710000Y-277950000D03*
X146250000Y-265250000D03*
X146250000Y-267790000D03*
X146250000Y-270330000D03*
X146250000Y-272870000D03*
X146250000Y-275410000D03*
X146250000Y-277950000D03*
D12*
X234315000Y-271145000D03*
D13*
X230115000Y-271145000D03*
X225915000Y-271145000D03*
X221715000Y-271145000D03*
X217515000Y-271145000D03*
X213315000Y-271145000D03*
X209115000Y-271145000D03*
X204915000Y-271145000D03*
X200715000Y-271145000D03*
X234315000Y-265645000D03*
X230115000Y-265645000D03*
X225915000Y-265645000D03*
X221715000Y-265645000D03*
X217515000Y-265645000D03*
X213315000Y-265645000D03*
X209115000Y-265645000D03*
X204915000Y-265645000D03*
X200715000Y-265645000D03*
D14*
X188000000Y-269440000D03*
D10*
X148629000Y-192153000D03*
X103689000Y-192153000D03*
X226129000Y-192153000D03*
X181189000Y-192153000D03*
X148629000Y-168018000D03*
X103689000Y-168018000D03*
X226129000Y-216287000D03*
X181189000Y-216287000D03*
D11*
X162920000Y-265130000D03*
X162920000Y-267670000D03*
X162920000Y-270210000D03*
X162920000Y-272750000D03*
X162920000Y-275290000D03*
X162920000Y-277830000D03*
X165460000Y-265130000D03*
X165460000Y-267670000D03*
X165460000Y-270210000D03*
X165460000Y-272750000D03*
X165460000Y-275290000D03*
X165460000Y-277830000D03*
X168000000Y-265130000D03*
X168000000Y-267670000D03*
X168000000Y-270210000D03*
X168000000Y-272750000D03*
X168000000Y-275290000D03*
X168000000Y-277830000D03*
X170540000Y-265130000D03*
X170540000Y-267670000D03*
X170540000Y-270210000D03*
X170540000Y-272750000D03*
X170540000Y-275290000D03*
X170540000Y-277830000D03*
X173080000Y-265130000D03*
X173080000Y-267670000D03*
X173080000Y-270210000D03*
X173080000Y-272750000D03*
X173080000Y-275290000D03*
X173080000Y-277830000D03*
X175620000Y-265130000D03*
X175620000Y-267670000D03*
X175620000Y-270210000D03*
X175620000Y-272750000D03*
X175620000Y-275290000D03*
X175620000Y-277830000D03*
D10*
X148629000Y-240421000D03*
X103689000Y-240421000D03*
D14*
X120500000Y-269440000D03*
D10*
X226129000Y-240421000D03*
X181189000Y-240421000D03*
X148629000Y-216287000D03*
X103689000Y-216287000D03*
X226129000Y-143884000D03*
X181189000Y-143884000D03*
D15*
X227330000Y-262255000D03*
X234295500Y-233045000D03*
X234295500Y-231935842D03*
X228480577Y-264082355D03*
X234295500Y-230505000D03*
D16*
X200715000Y-265645000D02*
X191795000Y-265645000D01*
X191795000Y-265645000D02*
X188000000Y-269440000D01*
D17*
X183540000Y-266040000D02*
X177310000Y-272270000D01*
X177310000Y-272270000D02*
X173397500Y-272270000D01*
X173397500Y-272270000D02*
X171450000Y-274217500D01*
D16*
X233260000Y-265645000D02*
X234315000Y-265645000D01*
X227965000Y-262890000D02*
X230505000Y-262890000D01*
X156601000Y-240421000D02*
X148629000Y-240421000D01*
X230505000Y-262890000D02*
X233260000Y-265645000D01*
X166370000Y-250190000D02*
X156601000Y-240421000D01*
X205710672Y-232096000D02*
X187616672Y-250190000D01*
X187616672Y-250190000D02*
X166370000Y-250190000D01*
X231092328Y-233045000D02*
X230143328Y-232096000D01*
X230143328Y-232096000D02*
X205710672Y-232096000D01*
D18*
X127823000Y-240421000D02*
X103689000Y-216287000D01*
D16*
X227330000Y-262255000D02*
X227965000Y-262890000D01*
X234295500Y-233045000D02*
X231092328Y-233045000D01*
D18*
X148629000Y-240421000D02*
X127823000Y-240421000D01*
X135250000Y-272000000D02*
X142250000Y-272000000D01*
X103689000Y-240439000D02*
X135250000Y-272000000D01*
X103689000Y-240421000D02*
X103689000Y-240439000D01*
X148629000Y-216287000D02*
X127823000Y-216287000D01*
D16*
X233636342Y-232595000D02*
X231278724Y-232595000D01*
X228480577Y-264082355D02*
X228440000Y-264122932D01*
X228440000Y-269470000D02*
X230115000Y-271145000D01*
X187430276Y-249740000D02*
X169730000Y-249740000D01*
X231278724Y-232595000D02*
X230329724Y-231646000D01*
X205524276Y-231646000D02*
X187430276Y-249740000D01*
D18*
X127823000Y-216287000D02*
X103689000Y-192153000D01*
D16*
X148629000Y-228639000D02*
X148629000Y-216287000D01*
X230329724Y-231646000D02*
X205524276Y-231646000D01*
X234295500Y-231935842D02*
X233636342Y-232595000D01*
X169730000Y-249740000D02*
X148629000Y-228639000D01*
X228440000Y-264122932D02*
X228440000Y-269470000D01*
D18*
X148629000Y-143884000D02*
X128573000Y-143884000D01*
D16*
X238655000Y-248391396D02*
X238655000Y-118663880D01*
D18*
X119979500Y-135290500D02*
X103689000Y-119000000D01*
X128573000Y-143884000D02*
X119979500Y-135290500D01*
D16*
X230481120Y-110490000D02*
X146115672Y-110490000D01*
X225915000Y-265645000D02*
X225915000Y-261131396D01*
X146115672Y-110490000D02*
X121315172Y-135290500D01*
X121315172Y-135290500D02*
X119979500Y-135290500D01*
X225915000Y-261131396D02*
X238655000Y-248391396D01*
X238655000Y-118663880D02*
X230481120Y-110490000D01*
X202440672Y-111425000D02*
X148629000Y-165236672D01*
D18*
X148629000Y-168018000D02*
X127823000Y-168018000D01*
D16*
X223520000Y-260986396D02*
X237755000Y-246751396D01*
X225915000Y-271145000D02*
X223520000Y-268750000D01*
X230143328Y-111425000D02*
X202440672Y-111425000D01*
D18*
X127823000Y-168018000D02*
X103689000Y-143884000D01*
D16*
X148629000Y-165236672D02*
X148629000Y-168018000D01*
X237755000Y-246751396D02*
X237755000Y-119036672D01*
X237755000Y-119036672D02*
X230143328Y-111425000D01*
X223520000Y-268750000D02*
X223520000Y-260986396D01*
D18*
X127824000Y-192153000D02*
X103689000Y-168018000D01*
D16*
X233660500Y-231140000D02*
X205393880Y-231140000D01*
X148629000Y-195619000D02*
X148629000Y-192153000D01*
X205393880Y-231140000D02*
X187243880Y-249290000D01*
X166370000Y-213360000D02*
X148629000Y-195619000D01*
X187243880Y-249290000D02*
X178805000Y-249290000D01*
X234295500Y-230505000D02*
X233660500Y-231140000D01*
X166370000Y-236855000D02*
X166370000Y-213360000D01*
D18*
X148629000Y-192153000D02*
X127824000Y-192153000D01*
D16*
X178805000Y-249290000D02*
X166370000Y-236855000D01*
X221715000Y-271145000D02*
X223890000Y-273320000D01*
X223890000Y-273320000D02*
X226608808Y-273320000D01*
X202254276Y-110975000D02*
X193479276Y-119750000D01*
X225423808Y-267785000D02*
X224605000Y-267785000D01*
X193479276Y-119750000D02*
X181755000Y-119750000D01*
X224605000Y-267785000D02*
X224155698Y-267335698D01*
D18*
X148629000Y-119750000D02*
X181755000Y-119750000D01*
D16*
X238205000Y-118850276D02*
X230329724Y-110975000D01*
X227590000Y-272338808D02*
X227590000Y-269951192D01*
X227590000Y-269951192D02*
X225423808Y-267785000D01*
X230329724Y-110975000D02*
X202254276Y-110975000D01*
X224155000Y-261620000D02*
X238205000Y-247570000D01*
X224155698Y-267335698D02*
X224155698Y-261620698D01*
X226608808Y-273320000D02*
X227590000Y-272338808D01*
X224155698Y-261620698D02*
X224155000Y-261620000D01*
X238205000Y-247570000D02*
X238205000Y-118850276D01*
X204915000Y-271145000D02*
X204915000Y-269845000D01*
X200715000Y-271145000D02*
X204915000Y-271145000D01*
D18*
X209159000Y-240421000D02*
X226695000Y-240421000D01*
D16*
X200715000Y-265645000D02*
X200715000Y-271145000D01*
X204915000Y-269845000D02*
X209115000Y-265645000D01*
X200715000Y-265645000D02*
X209115000Y-265645000D01*
D18*
X177580000Y-272000000D02*
X209159000Y-240421000D01*
X166000000Y-272000000D02*
X177580000Y-272000000D01*
X205889000Y-216287000D02*
X181755000Y-240421000D01*
X226695000Y-216287000D02*
X205889000Y-216287000D01*
D16*
X211290000Y-264801192D02*
X227345192Y-248746000D01*
X235020000Y-243869328D02*
X235020000Y-224612000D01*
X235020000Y-224612000D02*
X226695000Y-216287000D01*
X211290000Y-268970000D02*
X211290000Y-264801192D01*
X230143328Y-248746000D02*
X235020000Y-243869328D01*
X209115000Y-271145000D02*
X211290000Y-268970000D01*
X227345192Y-248746000D02*
X230143328Y-248746000D01*
X236855000Y-182245000D02*
X236855000Y-150495000D01*
X236855000Y-150495000D02*
X236855000Y-149225000D01*
X236855000Y-149860000D02*
X236855000Y-149225000D01*
X236855000Y-149225000D02*
X236855000Y-129910000D01*
X236855000Y-129910000D02*
X226695000Y-119750000D01*
X236855000Y-187325000D02*
X236855000Y-149860000D01*
X236855000Y-247015000D02*
X236855000Y-187325000D01*
X221715000Y-262155000D02*
X236855000Y-247015000D01*
X236820000Y-182245000D02*
X236855000Y-182245000D01*
D18*
X226695000Y-119750000D02*
X205889000Y-119750000D01*
D16*
X236855000Y-187325000D02*
X236820000Y-187290000D01*
D18*
X205889000Y-119750000D02*
X181755000Y-143884000D01*
D16*
X236820000Y-187290000D02*
X236820000Y-182245000D01*
X221715000Y-265645000D02*
X221715000Y-262155000D01*
X236855000Y-150495000D02*
X236855000Y-149860000D01*
X236370000Y-246790000D02*
X236370000Y-153559000D01*
D18*
X226695000Y-143884000D02*
X205889000Y-143884000D01*
D16*
X217515000Y-265645000D02*
X236370000Y-246790000D01*
X236370000Y-153559000D02*
X226695000Y-143884000D01*
D18*
X205889000Y-143884000D02*
X181755000Y-168018000D01*
D16*
X217515000Y-271145000D02*
X217515000Y-265645000D01*
D18*
X205890000Y-168018000D02*
X181755000Y-192153000D01*
D16*
X215490000Y-268970000D02*
X215490000Y-264672120D01*
X235920000Y-177243000D02*
X226695000Y-168018000D01*
X213315000Y-271145000D02*
X215490000Y-268970000D01*
X235920000Y-244242120D02*
X235920000Y-177243000D01*
X215490000Y-264672120D02*
X235920000Y-244242120D01*
D18*
X226695000Y-168018000D02*
X205890000Y-168018000D01*
X205889000Y-192153000D02*
X181755000Y-216287000D01*
D16*
X213880724Y-265645000D02*
X235470000Y-244055724D01*
X235470000Y-200928000D02*
X226695000Y-192153000D01*
X235470000Y-244055724D02*
X235470000Y-200928000D01*
D18*
X226695000Y-192153000D02*
X205889000Y-192153000D01*
D16*
X213315000Y-265645000D02*
X213880724Y-265645000D01*
G04 #@! TA.AperFunction,Conductor*
G36*
X196612121Y-253020002D02*
G01*
X196658614Y-253073658D01*
X196670000Y-253126000D01*
X196670000Y-280909000D01*
X196649998Y-280977121D01*
X196596342Y-281023614D01*
X196544000Y-281035000D01*
X156376000Y-281035000D01*
X156307879Y-281014998D01*
X156261386Y-280961342D01*
X156250000Y-280909000D01*
X156250000Y-253126000D01*
X156270002Y-253057879D01*
X156323658Y-253011386D01*
X156376000Y-253000000D01*
X196544000Y-253000000D01*
X196612121Y-253020002D01*
G37*
G04 #@! TD.AperFunction*
G04 #@! TA.AperFunction,Conductor*
G36*
X153477121Y-252985002D02*
G01*
X153523614Y-253038658D01*
X153535000Y-253091000D01*
X153535000Y-281458000D01*
X153514998Y-281526121D01*
X153461342Y-281572614D01*
X153409000Y-281584000D01*
X130945563Y-281584000D01*
X130942491Y-281583963D01*
X112622928Y-281137144D01*
X112555315Y-281115486D01*
X112510144Y-281060713D01*
X112500000Y-281011181D01*
X112500000Y-253091000D01*
X112520002Y-253022879D01*
X112573658Y-252976386D01*
X112626000Y-252965000D01*
X153409000Y-252965000D01*
X153477121Y-252985002D01*
G37*
G04 #@! TD.AperFunction*
M02*
