G04 #@! TF.GenerationSoftware,KiCad,Pcbnew,8.0.5*
G04 #@! TF.CreationDate,2024-11-12T22:59:12-08:00*
G04 #@! TF.ProjectId,URBAN_CELL_BOARD,55524241-4e5f-4434-954c-4c5f424f4152,rev?*
G04 #@! TF.SameCoordinates,Original*
G04 #@! TF.FileFunction,Soldermask,Top*
G04 #@! TF.FilePolarity,Negative*
%FSLAX46Y46*%
G04 Gerber Fmt 4.6, Leading zero omitted, Abs format (unit mm)*
G04 Created by KiCad (PCBNEW 8.0.5) date 2024-11-12 22:59:12*
%MOMM*%
%LPD*%
G01*
G04 APERTURE LIST*
G04 Aperture macros list*
%AMRoundRect*
0 Rectangle with rounded corners*
0 $1 Rounding radius*
0 $2 $3 $4 $5 $6 $7 $8 $9 X,Y pos of 4 corners*
0 Add a 4 corners polygon primitive as box body*
4,1,4,$2,$3,$4,$5,$6,$7,$8,$9,$2,$3,0*
0 Add four circle primitives for the rounded corners*
1,1,$1+$1,$2,$3*
1,1,$1+$1,$4,$5*
1,1,$1+$1,$6,$7*
1,1,$1+$1,$8,$9*
0 Add four rect primitives between the rounded corners*
20,1,$1+$1,$2,$3,$4,$5,0*
20,1,$1+$1,$4,$5,$6,$7,0*
20,1,$1+$1,$6,$7,$8,$9,0*
20,1,$1+$1,$8,$9,$2,$3,0*%
G04 Aperture macros list end*
%ADD10C,9.000000*%
%ADD11C,2.004000*%
%ADD12C,3.000000*%
%ADD13RoundRect,0.250001X1.099999X1.599999X-1.099999X1.599999X-1.099999X-1.599999X1.099999X-1.599999X0*%
%ADD14O,2.700000X3.700000*%
%ADD15C,1.930000*%
%ADD16C,7.500000*%
G04 APERTURE END LIST*
D10*
X148629000Y-119750000D03*
X103689000Y-119750000D03*
X226129000Y-119750000D03*
X181189000Y-119750000D03*
X148629000Y-143884000D03*
X103689000Y-143884000D03*
X226129000Y-168018000D03*
X181189000Y-168018000D03*
D11*
X133550000Y-265250000D03*
X133550000Y-267790000D03*
X133550000Y-270330000D03*
X133550000Y-272870000D03*
X133550000Y-275410000D03*
X133550000Y-277950000D03*
X136090000Y-265250000D03*
X136090000Y-267790000D03*
X136090000Y-270330000D03*
X136090000Y-272870000D03*
X136090000Y-275410000D03*
X136090000Y-277950000D03*
X138630000Y-265250000D03*
X138630000Y-267790000D03*
X138630000Y-270330000D03*
X138630000Y-272870000D03*
X138630000Y-275410000D03*
X138630000Y-277950000D03*
X141170000Y-265250000D03*
X141170000Y-267790000D03*
X141170000Y-270330000D03*
X141170000Y-272870000D03*
X141170000Y-275410000D03*
X141170000Y-277950000D03*
X143710000Y-265250000D03*
X143710000Y-267790000D03*
X143710000Y-270330000D03*
X143710000Y-272870000D03*
X143710000Y-275410000D03*
X143710000Y-277950000D03*
X146250000Y-265250000D03*
X146250000Y-267790000D03*
X146250000Y-270330000D03*
X146250000Y-272870000D03*
X146250000Y-275410000D03*
X146250000Y-277950000D03*
D12*
X234315000Y-278445000D03*
X200715000Y-278445000D03*
D13*
X234315000Y-271145000D03*
D14*
X230115000Y-271145000D03*
X225915000Y-271145000D03*
X221715000Y-271145000D03*
X217515000Y-271145000D03*
X213315000Y-271145000D03*
X209115000Y-271145000D03*
X204915000Y-271145000D03*
X200715000Y-271145000D03*
X234315000Y-265645000D03*
X230115000Y-265645000D03*
X225915000Y-265645000D03*
X221715000Y-265645000D03*
X217515000Y-265645000D03*
X213315000Y-265645000D03*
X209115000Y-265645000D03*
X204915000Y-265645000D03*
X200715000Y-265645000D03*
D15*
X188000000Y-269440000D03*
D10*
X148629000Y-192153000D03*
X103689000Y-192153000D03*
X226129000Y-192153000D03*
X181189000Y-192153000D03*
X148629000Y-168018000D03*
X103689000Y-168018000D03*
X226129000Y-216287000D03*
X181189000Y-216287000D03*
D11*
X162920000Y-265130000D03*
X162920000Y-267670000D03*
X162920000Y-270210000D03*
X162920000Y-272750000D03*
X162920000Y-275290000D03*
X162920000Y-277830000D03*
X165460000Y-265130000D03*
X165460000Y-267670000D03*
X165460000Y-270210000D03*
X165460000Y-272750000D03*
X165460000Y-275290000D03*
X165460000Y-277830000D03*
X168000000Y-265130000D03*
X168000000Y-267670000D03*
X168000000Y-270210000D03*
X168000000Y-272750000D03*
X168000000Y-275290000D03*
X168000000Y-277830000D03*
X170540000Y-265130000D03*
X170540000Y-267670000D03*
X170540000Y-270210000D03*
X170540000Y-272750000D03*
X170540000Y-275290000D03*
X170540000Y-277830000D03*
X173080000Y-265130000D03*
X173080000Y-267670000D03*
X173080000Y-270210000D03*
X173080000Y-272750000D03*
X173080000Y-275290000D03*
X173080000Y-277830000D03*
X175620000Y-265130000D03*
X175620000Y-267670000D03*
X175620000Y-270210000D03*
X175620000Y-272750000D03*
X175620000Y-275290000D03*
X175620000Y-277830000D03*
D16*
X237879000Y-257421000D03*
D10*
X148629000Y-240421000D03*
X103689000Y-240421000D03*
D15*
X120500000Y-269440000D03*
D10*
X226129000Y-240421000D03*
X181189000Y-240421000D03*
D16*
X91879000Y-257421000D03*
D10*
X148629000Y-216287000D03*
X103689000Y-216287000D03*
X226129000Y-143884000D03*
X181189000Y-143884000D03*
M02*
