M48
; DRILL file {KiCad 8.0.5} date 2024-11-12T22:59:26-0800
; FORMAT={-:-/ absolute / metric / decimal}
; #@! TF.CreationDate,2024-11-12T22:59:26-08:00
; #@! TF.GenerationSoftware,Kicad,Pcbnew,8.0.5
; #@! TF.FileFunction,Plated,1,2,PTH
FMAT,2
METRIC
; #@! TA.AperFunction,Plated,PTH,ViaDrill
T1C0.400
; #@! TA.AperFunction,Plated,PTH,ComponentDrill
T2C1.475
; #@! TA.AperFunction,Plated,PTH,ComponentDrill
T3C1.600
; #@! TA.AperFunction,Plated,PTH,ComponentDrill
T4C1.800
; #@! TA.AperFunction,Plated,PTH,ComponentDrill
T5C5.500
%
G90
G05
T1
X227.33Y-262.255
X228.481Y-264.082
X234.295Y-230.505
X234.295Y-231.936
X234.295Y-233.045
T2
X133.55Y-265.25
X133.55Y-267.79
X133.55Y-270.33
X133.55Y-272.87
X133.55Y-275.41
X133.55Y-277.95
X136.09Y-265.25
X136.09Y-267.79
X136.09Y-270.33
X136.09Y-272.87
X136.09Y-275.41
X136.09Y-277.95
X138.63Y-265.25
X138.63Y-267.79
X138.63Y-270.33
X138.63Y-272.87
X138.63Y-275.41
X138.63Y-277.95
X141.17Y-265.25
X141.17Y-267.79
X141.17Y-270.33
X141.17Y-272.87
X141.17Y-275.41
X141.17Y-277.95
X143.71Y-265.25
X143.71Y-267.79
X143.71Y-270.33
X143.71Y-272.87
X143.71Y-275.41
X143.71Y-277.95
X146.25Y-265.25
X146.25Y-267.79
X146.25Y-270.33
X146.25Y-272.87
X146.25Y-275.41
X146.25Y-277.95
X162.92Y-265.13
X162.92Y-267.67
X162.92Y-270.21
X162.92Y-272.75
X162.92Y-275.29
X162.92Y-277.83
X165.46Y-265.13
X165.46Y-267.67
X165.46Y-270.21
X165.46Y-272.75
X165.46Y-275.29
X165.46Y-277.83
X168.0Y-265.13
X168.0Y-267.67
X168.0Y-270.21
X168.0Y-272.75
X168.0Y-275.29
X168.0Y-277.83
X170.54Y-265.13
X170.54Y-267.67
X170.54Y-270.21
X170.54Y-272.75
X170.54Y-275.29
X170.54Y-277.83
X173.08Y-265.13
X173.08Y-267.67
X173.08Y-270.21
X173.08Y-272.75
X173.08Y-275.29
X173.08Y-277.83
X175.62Y-265.13
X175.62Y-267.67
X175.62Y-270.21
X175.62Y-272.75
X175.62Y-275.29
X175.62Y-277.83
T3
X120.5Y-269.44
X188.0Y-269.44
T4
X200.715Y-265.645
X200.715Y-271.145
X204.915Y-265.645
X204.915Y-271.145
X209.115Y-265.645
X209.115Y-271.145
X213.315Y-265.645
X213.315Y-271.145
X217.515Y-265.645
X217.515Y-271.145
X221.715Y-265.645
X221.715Y-271.145
X225.915Y-265.645
X225.915Y-271.145
X230.115Y-265.645
X230.115Y-271.145
X234.315Y-265.645
X234.315Y-271.145
T5
X103.689Y-119.75
X103.689Y-143.884
X103.689Y-168.018
X103.689Y-192.153
X103.689Y-216.287
X103.689Y-240.421
X148.629Y-119.75
X148.629Y-143.884
X148.629Y-168.018
X148.629Y-192.153
X148.629Y-216.287
X148.629Y-240.421
X181.189Y-119.75
X181.189Y-143.884
X181.189Y-168.018
X181.189Y-192.153
X181.189Y-216.287
X181.189Y-240.421
X226.129Y-119.75
X226.129Y-143.884
X226.129Y-168.018
X226.129Y-192.153
X226.129Y-216.287
X226.129Y-240.421
M30
