G04 #@! TF.GenerationSoftware,KiCad,Pcbnew,8.0.5*
G04 #@! TF.CreationDate,2024-11-12T22:59:12-08:00*
G04 #@! TF.ProjectId,URBAN_CELL_BOARD,55524241-4e5f-4434-954c-4c5f424f4152,rev?*
G04 #@! TF.SameCoordinates,Original*
G04 #@! TF.FileFunction,Copper,L2,Bot*
G04 #@! TF.FilePolarity,Positive*
%FSLAX46Y46*%
G04 Gerber Fmt 4.6, Leading zero omitted, Abs format (unit mm)*
G04 Created by KiCad (PCBNEW 8.0.5) date 2024-11-12 22:59:12*
%MOMM*%
%LPD*%
G01*
G04 APERTURE LIST*
G04 Aperture macros list*
%AMRoundRect*
0 Rectangle with rounded corners*
0 $1 Rounding radius*
0 $2 $3 $4 $5 $6 $7 $8 $9 X,Y pos of 4 corners*
0 Add a 4 corners polygon primitive as box body*
4,1,4,$2,$3,$4,$5,$6,$7,$8,$9,$2,$3,0*
0 Add four circle primitives for the rounded corners*
1,1,$1+$1,$2,$3*
1,1,$1+$1,$4,$5*
1,1,$1+$1,$6,$7*
1,1,$1+$1,$8,$9*
0 Add four rect primitives between the rounded corners*
20,1,$1+$1,$2,$3,$4,$5,0*
20,1,$1+$1,$4,$5,$6,$7,0*
20,1,$1+$1,$6,$7,$8,$9,0*
20,1,$1+$1,$8,$9,$2,$3,0*%
G04 Aperture macros list end*
G04 #@! TA.AperFunction,ComponentPad*
%ADD10C,9.000000*%
G04 #@! TD*
G04 #@! TA.AperFunction,SMDPad,CuDef*
%ADD11R,11.000000X13.000000*%
G04 #@! TD*
G04 #@! TA.AperFunction,ComponentPad*
%ADD12C,1.800000*%
G04 #@! TD*
G04 #@! TA.AperFunction,ComponentPad*
%ADD13RoundRect,0.250001X1.099999X1.599999X-1.099999X1.599999X-1.099999X-1.599999X1.099999X-1.599999X0*%
G04 #@! TD*
G04 #@! TA.AperFunction,ComponentPad*
%ADD14O,2.700000X3.700000*%
G04 #@! TD*
G04 #@! TA.AperFunction,ComponentPad*
%ADD15C,1.930000*%
G04 #@! TD*
G04 #@! TA.AperFunction,ViaPad*
%ADD16C,0.800000*%
G04 #@! TD*
G04 #@! TA.AperFunction,Conductor*
%ADD17C,0.250000*%
G04 #@! TD*
G04 #@! TA.AperFunction,Conductor*
%ADD18C,16.000000*%
G04 #@! TD*
G04 #@! TA.AperFunction,Conductor*
%ADD19C,3.000000*%
G04 #@! TD*
G04 APERTURE END LIST*
D10*
X148629000Y-119750000D03*
D11*
X148629000Y-119750000D03*
D10*
X103689000Y-119750000D03*
D11*
X103689000Y-119750000D03*
D10*
X226129000Y-119750000D03*
D11*
X226129000Y-119750000D03*
D10*
X181189000Y-119750000D03*
D11*
X181189000Y-119750000D03*
D10*
X148629000Y-143884000D03*
D11*
X148629000Y-143884000D03*
D10*
X103689000Y-143884000D03*
D11*
X103689000Y-143884000D03*
D10*
X226129000Y-168018000D03*
D11*
X226129000Y-168018000D03*
D10*
X181189000Y-168018000D03*
D11*
X181189000Y-168018000D03*
D12*
X133550000Y-265250000D03*
X133550000Y-267790000D03*
X133550000Y-270330000D03*
X133550000Y-272870000D03*
X133550000Y-275410000D03*
X133550000Y-277950000D03*
X136090000Y-265250000D03*
X136090000Y-267790000D03*
X136090000Y-270330000D03*
X136090000Y-272870000D03*
X136090000Y-275410000D03*
X136090000Y-277950000D03*
X138630000Y-265250000D03*
X138630000Y-267790000D03*
X138630000Y-270330000D03*
X138630000Y-272870000D03*
X138630000Y-275410000D03*
X138630000Y-277950000D03*
X141170000Y-265250000D03*
X141170000Y-267790000D03*
X141170000Y-270330000D03*
X141170000Y-272870000D03*
X141170000Y-275410000D03*
X141170000Y-277950000D03*
X143710000Y-265250000D03*
X143710000Y-267790000D03*
X143710000Y-270330000D03*
X143710000Y-272870000D03*
X143710000Y-275410000D03*
X143710000Y-277950000D03*
X146250000Y-265250000D03*
X146250000Y-267790000D03*
X146250000Y-270330000D03*
X146250000Y-272870000D03*
X146250000Y-275410000D03*
X146250000Y-277950000D03*
D13*
X234315000Y-271145000D03*
D14*
X230115000Y-271145000D03*
X225915000Y-271145000D03*
X221715000Y-271145000D03*
X217515000Y-271145000D03*
X213315000Y-271145000D03*
X209115000Y-271145000D03*
X204915000Y-271145000D03*
X200715000Y-271145000D03*
X234315000Y-265645000D03*
X230115000Y-265645000D03*
X225915000Y-265645000D03*
X221715000Y-265645000D03*
X217515000Y-265645000D03*
X213315000Y-265645000D03*
X209115000Y-265645000D03*
X204915000Y-265645000D03*
X200715000Y-265645000D03*
D15*
X188000000Y-269440000D03*
D10*
X148629000Y-192153000D03*
D11*
X148629000Y-192153000D03*
D10*
X103689000Y-192153000D03*
D11*
X103689000Y-192153000D03*
D10*
X226129000Y-192153000D03*
D11*
X226129000Y-192153000D03*
D10*
X181189000Y-192153000D03*
D11*
X181189000Y-192153000D03*
D10*
X148629000Y-168018000D03*
D11*
X148629000Y-168018000D03*
D10*
X103689000Y-168018000D03*
D11*
X103689000Y-168018000D03*
D10*
X226129000Y-216287000D03*
D11*
X226129000Y-216287000D03*
D10*
X181189000Y-216287000D03*
D11*
X181189000Y-216287000D03*
D12*
X162920000Y-265130000D03*
X162920000Y-267670000D03*
X162920000Y-270210000D03*
X162920000Y-272750000D03*
X162920000Y-275290000D03*
X162920000Y-277830000D03*
X165460000Y-265130000D03*
X165460000Y-267670000D03*
X165460000Y-270210000D03*
X165460000Y-272750000D03*
X165460000Y-275290000D03*
X165460000Y-277830000D03*
X168000000Y-265130000D03*
X168000000Y-267670000D03*
X168000000Y-270210000D03*
X168000000Y-272750000D03*
X168000000Y-275290000D03*
X168000000Y-277830000D03*
X170540000Y-265130000D03*
X170540000Y-267670000D03*
X170540000Y-270210000D03*
X170540000Y-272750000D03*
X170540000Y-275290000D03*
X170540000Y-277830000D03*
X173080000Y-265130000D03*
X173080000Y-267670000D03*
X173080000Y-270210000D03*
X173080000Y-272750000D03*
X173080000Y-275290000D03*
X173080000Y-277830000D03*
X175620000Y-265130000D03*
X175620000Y-267670000D03*
X175620000Y-270210000D03*
X175620000Y-272750000D03*
X175620000Y-275290000D03*
X175620000Y-277830000D03*
D10*
X148629000Y-240421000D03*
D11*
X148629000Y-240421000D03*
D10*
X103689000Y-240421000D03*
D11*
X103689000Y-240421000D03*
D15*
X120500000Y-269440000D03*
D10*
X226129000Y-240421000D03*
D11*
X226129000Y-240421000D03*
D10*
X181189000Y-240421000D03*
D11*
X181189000Y-240421000D03*
D10*
X148629000Y-216287000D03*
D11*
X148629000Y-216287000D03*
D10*
X103689000Y-216287000D03*
D11*
X103689000Y-216287000D03*
D10*
X226129000Y-143884000D03*
D11*
X226129000Y-143884000D03*
D10*
X181189000Y-143884000D03*
D11*
X181189000Y-143884000D03*
D16*
X227330000Y-262255000D03*
X234295500Y-233045000D03*
X234295500Y-231935842D03*
X228480577Y-264082355D03*
X234295500Y-230505000D03*
D17*
X224879500Y-255816896D02*
X236670000Y-244026396D01*
X236670000Y-235664195D02*
X234295500Y-233289695D01*
X227330000Y-262255000D02*
X224879500Y-259804500D01*
D18*
X127823000Y-240421000D02*
X103689000Y-216287000D01*
D17*
X224879500Y-259804500D02*
X224879500Y-255816896D01*
D18*
X148629000Y-240421000D02*
X127823000Y-240421000D01*
D17*
X234295500Y-233289695D02*
X234295500Y-233045000D01*
X236670000Y-244026396D02*
X236670000Y-235664195D01*
D19*
X144095000Y-271635000D02*
X143510000Y-271635000D01*
D17*
X154500000Y-279500000D02*
X155500000Y-280500000D01*
X130175000Y-267335000D02*
X127000000Y-264160000D01*
X224960000Y-280500000D02*
X234315000Y-271145000D01*
D18*
X103689000Y-240421000D02*
X127000000Y-264160000D01*
X135090000Y-272250000D02*
X142250000Y-272250000D01*
X127000000Y-264160000D02*
X135090000Y-272250000D01*
D19*
X154500000Y-279500000D02*
X151960000Y-279500000D01*
X151960000Y-279500000D02*
X144095000Y-271635000D01*
D17*
X155500000Y-280500000D02*
X224960000Y-280500000D01*
X228480577Y-264082355D02*
X228480577Y-262380272D01*
X225425000Y-255907792D02*
X237120000Y-244212792D01*
X225425000Y-259324695D02*
X225425000Y-255907792D01*
D18*
X127823000Y-216287000D02*
X103689000Y-192153000D01*
D17*
X237120000Y-234760342D02*
X234295500Y-231935842D01*
X228480577Y-262380272D02*
X225425000Y-259324695D01*
X237120000Y-244212792D02*
X237120000Y-234760342D01*
D18*
X148629000Y-216287000D02*
X127823000Y-216287000D01*
X128573000Y-143884000D02*
X103689000Y-119000000D01*
X148629000Y-143884000D02*
X128573000Y-143884000D01*
X127823000Y-168018000D02*
X103689000Y-143884000D01*
X148629000Y-168018000D02*
X127823000Y-168018000D01*
D17*
X237570000Y-233760000D02*
X234315000Y-230505000D01*
X230115000Y-251854188D02*
X237570000Y-244399188D01*
X230115000Y-265645000D02*
X230115000Y-251854188D01*
X234315000Y-230505000D02*
X234295500Y-230505000D01*
D18*
X148629000Y-192153000D02*
X127824000Y-192153000D01*
D17*
X237570000Y-244399188D02*
X237570000Y-233760000D01*
D18*
X127824000Y-192153000D02*
X103689000Y-168018000D01*
X181755000Y-119750000D02*
X148629000Y-119750000D01*
X177830000Y-271750000D02*
X166000000Y-271750000D01*
X209159000Y-240421000D02*
X177830000Y-271750000D01*
X226695000Y-240421000D02*
X209159000Y-240421000D01*
X226695000Y-216287000D02*
X205889000Y-216287000D01*
X205889000Y-216287000D02*
X181755000Y-240421000D01*
X226695000Y-119750000D02*
X205889000Y-119750000D01*
X205889000Y-119750000D02*
X181755000Y-143884000D01*
X226695000Y-143884000D02*
X205889000Y-143884000D01*
X205889000Y-143884000D02*
X181755000Y-168018000D01*
X226695000Y-168018000D02*
X205890000Y-168018000D01*
X205890000Y-168018000D02*
X181755000Y-192153000D01*
X205889000Y-192153000D02*
X181755000Y-216287000D01*
X226695000Y-192153000D02*
X205889000Y-192153000D01*
G04 #@! TA.AperFunction,Conductor*
G36*
X196442121Y-252985002D02*
G01*
X196488614Y-253038658D01*
X196500000Y-253091000D01*
X196500000Y-279740500D01*
X196479998Y-279808621D01*
X196426342Y-279855114D01*
X196374000Y-279866500D01*
X156621256Y-279866500D01*
X156553135Y-279846498D01*
X156506642Y-279792842D01*
X156496334Y-279724054D01*
X156508500Y-279631644D01*
X156508500Y-279368356D01*
X156474134Y-279107320D01*
X156405990Y-278853003D01*
X156305234Y-278609757D01*
X156305228Y-278609748D01*
X156305227Y-278609744D01*
X156173592Y-278381746D01*
X156106037Y-278293706D01*
X156080437Y-278227485D01*
X156080000Y-278217002D01*
X156080000Y-253091000D01*
X156100002Y-253022879D01*
X156153658Y-252976386D01*
X156206000Y-252965000D01*
X196374000Y-252965000D01*
X196442121Y-252985002D01*
G37*
G04 #@! TD.AperFunction*
G04 #@! TA.AperFunction,Conductor*
G36*
X153442121Y-252770002D02*
G01*
X153488614Y-252823658D01*
X153500000Y-252876000D01*
X153500000Y-281159000D01*
X153479998Y-281227121D01*
X153426342Y-281273614D01*
X153374000Y-281285000D01*
X112591000Y-281285000D01*
X112522879Y-281264998D01*
X112476386Y-281211342D01*
X112465000Y-281159000D01*
X112465000Y-252876000D01*
X112485002Y-252807879D01*
X112538658Y-252761386D01*
X112591000Y-252750000D01*
X153374000Y-252750000D01*
X153442121Y-252770002D01*
G37*
G04 #@! TD.AperFunction*
M02*
