%TF.GenerationSoftware,KiCad,Pcbnew,8.0.5*%
%TF.CreationDate,2024-11-12T22:59:27-08:00*%
%TF.ProjectId,URBAN_CELL_BOARD,55524241-4e5f-4434-954c-4c5f424f4152,rev?*%
%TF.SameCoordinates,Original*%
%TF.FileFunction,Drillmap*%
%TF.FilePolarity,Positive*%
%FSLAX45Y45*%
G04 Gerber Fmt 4.5, Leading zero omitted, Abs format (unit mm)*
G04 Created by KiCad (PCBNEW 8.0.5) date 2024-11-12 22:59:27*
%MOMM*%
%LPD*%
G01*
G04 APERTURE LIST*
%ADD10C,0.100000*%
%ADD11C,0.200000*%
%ADD12C,0.147500*%
%ADD13C,0.160000*%
%ADD14C,0.180000*%
%ADD15C,0.550000*%
G04 APERTURE END LIST*
D10*
X8387900Y-28158400D02*
X8387900Y-11612100D01*
X10000000Y-10000000D02*
X24587900Y-10000000D01*
X8387900Y-11612100D02*
X10000000Y-10000000D01*
X24587900Y-28158400D02*
X8387900Y-28158400D01*
X24587900Y-10000000D02*
X24587900Y-28158400D01*
D11*
D10*
X22713000Y-26205500D02*
X22753000Y-26245500D01*
X22753000Y-26205500D02*
X22713000Y-26245500D01*
X22828058Y-26388235D02*
X22868058Y-26428235D01*
X22868058Y-26388235D02*
X22828058Y-26428235D01*
X23409550Y-23030500D02*
X23449550Y-23070500D01*
X23449550Y-23030500D02*
X23409550Y-23070500D01*
X23409550Y-23173584D02*
X23449550Y-23213584D01*
X23449550Y-23173584D02*
X23409550Y-23213584D01*
X23409550Y-23284500D02*
X23449550Y-23324500D01*
X23449550Y-23284500D02*
X23409550Y-23324500D01*
D12*
X13428750Y-26525000D02*
G75*
G02*
X13281250Y-26525000I-73750J0D01*
G01*
X13281250Y-26525000D02*
G75*
G02*
X13428750Y-26525000I73750J0D01*
G01*
X13428750Y-26779000D02*
G75*
G02*
X13281250Y-26779000I-73750J0D01*
G01*
X13281250Y-26779000D02*
G75*
G02*
X13428750Y-26779000I73750J0D01*
G01*
X13428750Y-27033000D02*
G75*
G02*
X13281250Y-27033000I-73750J0D01*
G01*
X13281250Y-27033000D02*
G75*
G02*
X13428750Y-27033000I73750J0D01*
G01*
X13428750Y-27287000D02*
G75*
G02*
X13281250Y-27287000I-73750J0D01*
G01*
X13281250Y-27287000D02*
G75*
G02*
X13428750Y-27287000I73750J0D01*
G01*
X13428750Y-27541000D02*
G75*
G02*
X13281250Y-27541000I-73750J0D01*
G01*
X13281250Y-27541000D02*
G75*
G02*
X13428750Y-27541000I73750J0D01*
G01*
X13428750Y-27795000D02*
G75*
G02*
X13281250Y-27795000I-73750J0D01*
G01*
X13281250Y-27795000D02*
G75*
G02*
X13428750Y-27795000I73750J0D01*
G01*
X13682750Y-26525000D02*
G75*
G02*
X13535250Y-26525000I-73750J0D01*
G01*
X13535250Y-26525000D02*
G75*
G02*
X13682750Y-26525000I73750J0D01*
G01*
X13682750Y-26779000D02*
G75*
G02*
X13535250Y-26779000I-73750J0D01*
G01*
X13535250Y-26779000D02*
G75*
G02*
X13682750Y-26779000I73750J0D01*
G01*
X13682750Y-27033000D02*
G75*
G02*
X13535250Y-27033000I-73750J0D01*
G01*
X13535250Y-27033000D02*
G75*
G02*
X13682750Y-27033000I73750J0D01*
G01*
X13682750Y-27287000D02*
G75*
G02*
X13535250Y-27287000I-73750J0D01*
G01*
X13535250Y-27287000D02*
G75*
G02*
X13682750Y-27287000I73750J0D01*
G01*
X13682750Y-27541000D02*
G75*
G02*
X13535250Y-27541000I-73750J0D01*
G01*
X13535250Y-27541000D02*
G75*
G02*
X13682750Y-27541000I73750J0D01*
G01*
X13682750Y-27795000D02*
G75*
G02*
X13535250Y-27795000I-73750J0D01*
G01*
X13535250Y-27795000D02*
G75*
G02*
X13682750Y-27795000I73750J0D01*
G01*
X13936750Y-26525000D02*
G75*
G02*
X13789250Y-26525000I-73750J0D01*
G01*
X13789250Y-26525000D02*
G75*
G02*
X13936750Y-26525000I73750J0D01*
G01*
X13936750Y-26779000D02*
G75*
G02*
X13789250Y-26779000I-73750J0D01*
G01*
X13789250Y-26779000D02*
G75*
G02*
X13936750Y-26779000I73750J0D01*
G01*
X13936750Y-27033000D02*
G75*
G02*
X13789250Y-27033000I-73750J0D01*
G01*
X13789250Y-27033000D02*
G75*
G02*
X13936750Y-27033000I73750J0D01*
G01*
X13936750Y-27287000D02*
G75*
G02*
X13789250Y-27287000I-73750J0D01*
G01*
X13789250Y-27287000D02*
G75*
G02*
X13936750Y-27287000I73750J0D01*
G01*
X13936750Y-27541000D02*
G75*
G02*
X13789250Y-27541000I-73750J0D01*
G01*
X13789250Y-27541000D02*
G75*
G02*
X13936750Y-27541000I73750J0D01*
G01*
X13936750Y-27795000D02*
G75*
G02*
X13789250Y-27795000I-73750J0D01*
G01*
X13789250Y-27795000D02*
G75*
G02*
X13936750Y-27795000I73750J0D01*
G01*
X14190750Y-26525000D02*
G75*
G02*
X14043250Y-26525000I-73750J0D01*
G01*
X14043250Y-26525000D02*
G75*
G02*
X14190750Y-26525000I73750J0D01*
G01*
X14190750Y-26779000D02*
G75*
G02*
X14043250Y-26779000I-73750J0D01*
G01*
X14043250Y-26779000D02*
G75*
G02*
X14190750Y-26779000I73750J0D01*
G01*
X14190750Y-27033000D02*
G75*
G02*
X14043250Y-27033000I-73750J0D01*
G01*
X14043250Y-27033000D02*
G75*
G02*
X14190750Y-27033000I73750J0D01*
G01*
X14190750Y-27287000D02*
G75*
G02*
X14043250Y-27287000I-73750J0D01*
G01*
X14043250Y-27287000D02*
G75*
G02*
X14190750Y-27287000I73750J0D01*
G01*
X14190750Y-27541000D02*
G75*
G02*
X14043250Y-27541000I-73750J0D01*
G01*
X14043250Y-27541000D02*
G75*
G02*
X14190750Y-27541000I73750J0D01*
G01*
X14190750Y-27795000D02*
G75*
G02*
X14043250Y-27795000I-73750J0D01*
G01*
X14043250Y-27795000D02*
G75*
G02*
X14190750Y-27795000I73750J0D01*
G01*
X14444750Y-26525000D02*
G75*
G02*
X14297250Y-26525000I-73750J0D01*
G01*
X14297250Y-26525000D02*
G75*
G02*
X14444750Y-26525000I73750J0D01*
G01*
X14444750Y-26779000D02*
G75*
G02*
X14297250Y-26779000I-73750J0D01*
G01*
X14297250Y-26779000D02*
G75*
G02*
X14444750Y-26779000I73750J0D01*
G01*
X14444750Y-27033000D02*
G75*
G02*
X14297250Y-27033000I-73750J0D01*
G01*
X14297250Y-27033000D02*
G75*
G02*
X14444750Y-27033000I73750J0D01*
G01*
X14444750Y-27287000D02*
G75*
G02*
X14297250Y-27287000I-73750J0D01*
G01*
X14297250Y-27287000D02*
G75*
G02*
X14444750Y-27287000I73750J0D01*
G01*
X14444750Y-27541000D02*
G75*
G02*
X14297250Y-27541000I-73750J0D01*
G01*
X14297250Y-27541000D02*
G75*
G02*
X14444750Y-27541000I73750J0D01*
G01*
X14444750Y-27795000D02*
G75*
G02*
X14297250Y-27795000I-73750J0D01*
G01*
X14297250Y-27795000D02*
G75*
G02*
X14444750Y-27795000I73750J0D01*
G01*
X14698750Y-26525000D02*
G75*
G02*
X14551250Y-26525000I-73750J0D01*
G01*
X14551250Y-26525000D02*
G75*
G02*
X14698750Y-26525000I73750J0D01*
G01*
X14698750Y-26779000D02*
G75*
G02*
X14551250Y-26779000I-73750J0D01*
G01*
X14551250Y-26779000D02*
G75*
G02*
X14698750Y-26779000I73750J0D01*
G01*
X14698750Y-27033000D02*
G75*
G02*
X14551250Y-27033000I-73750J0D01*
G01*
X14551250Y-27033000D02*
G75*
G02*
X14698750Y-27033000I73750J0D01*
G01*
X14698750Y-27287000D02*
G75*
G02*
X14551250Y-27287000I-73750J0D01*
G01*
X14551250Y-27287000D02*
G75*
G02*
X14698750Y-27287000I73750J0D01*
G01*
X14698750Y-27541000D02*
G75*
G02*
X14551250Y-27541000I-73750J0D01*
G01*
X14551250Y-27541000D02*
G75*
G02*
X14698750Y-27541000I73750J0D01*
G01*
X14698750Y-27795000D02*
G75*
G02*
X14551250Y-27795000I-73750J0D01*
G01*
X14551250Y-27795000D02*
G75*
G02*
X14698750Y-27795000I73750J0D01*
G01*
X16365750Y-26513000D02*
G75*
G02*
X16218250Y-26513000I-73750J0D01*
G01*
X16218250Y-26513000D02*
G75*
G02*
X16365750Y-26513000I73750J0D01*
G01*
X16365750Y-26767000D02*
G75*
G02*
X16218250Y-26767000I-73750J0D01*
G01*
X16218250Y-26767000D02*
G75*
G02*
X16365750Y-26767000I73750J0D01*
G01*
X16365750Y-27021000D02*
G75*
G02*
X16218250Y-27021000I-73750J0D01*
G01*
X16218250Y-27021000D02*
G75*
G02*
X16365750Y-27021000I73750J0D01*
G01*
X16365750Y-27275000D02*
G75*
G02*
X16218250Y-27275000I-73750J0D01*
G01*
X16218250Y-27275000D02*
G75*
G02*
X16365750Y-27275000I73750J0D01*
G01*
X16365750Y-27529000D02*
G75*
G02*
X16218250Y-27529000I-73750J0D01*
G01*
X16218250Y-27529000D02*
G75*
G02*
X16365750Y-27529000I73750J0D01*
G01*
X16365750Y-27783000D02*
G75*
G02*
X16218250Y-27783000I-73750J0D01*
G01*
X16218250Y-27783000D02*
G75*
G02*
X16365750Y-27783000I73750J0D01*
G01*
X16619750Y-26513000D02*
G75*
G02*
X16472250Y-26513000I-73750J0D01*
G01*
X16472250Y-26513000D02*
G75*
G02*
X16619750Y-26513000I73750J0D01*
G01*
X16619750Y-26767000D02*
G75*
G02*
X16472250Y-26767000I-73750J0D01*
G01*
X16472250Y-26767000D02*
G75*
G02*
X16619750Y-26767000I73750J0D01*
G01*
X16619750Y-27021000D02*
G75*
G02*
X16472250Y-27021000I-73750J0D01*
G01*
X16472250Y-27021000D02*
G75*
G02*
X16619750Y-27021000I73750J0D01*
G01*
X16619750Y-27275000D02*
G75*
G02*
X16472250Y-27275000I-73750J0D01*
G01*
X16472250Y-27275000D02*
G75*
G02*
X16619750Y-27275000I73750J0D01*
G01*
X16619750Y-27529000D02*
G75*
G02*
X16472250Y-27529000I-73750J0D01*
G01*
X16472250Y-27529000D02*
G75*
G02*
X16619750Y-27529000I73750J0D01*
G01*
X16619750Y-27783000D02*
G75*
G02*
X16472250Y-27783000I-73750J0D01*
G01*
X16472250Y-27783000D02*
G75*
G02*
X16619750Y-27783000I73750J0D01*
G01*
X16873750Y-26513000D02*
G75*
G02*
X16726250Y-26513000I-73750J0D01*
G01*
X16726250Y-26513000D02*
G75*
G02*
X16873750Y-26513000I73750J0D01*
G01*
X16873750Y-26767000D02*
G75*
G02*
X16726250Y-26767000I-73750J0D01*
G01*
X16726250Y-26767000D02*
G75*
G02*
X16873750Y-26767000I73750J0D01*
G01*
X16873750Y-27021000D02*
G75*
G02*
X16726250Y-27021000I-73750J0D01*
G01*
X16726250Y-27021000D02*
G75*
G02*
X16873750Y-27021000I73750J0D01*
G01*
X16873750Y-27275000D02*
G75*
G02*
X16726250Y-27275000I-73750J0D01*
G01*
X16726250Y-27275000D02*
G75*
G02*
X16873750Y-27275000I73750J0D01*
G01*
X16873750Y-27529000D02*
G75*
G02*
X16726250Y-27529000I-73750J0D01*
G01*
X16726250Y-27529000D02*
G75*
G02*
X16873750Y-27529000I73750J0D01*
G01*
X16873750Y-27783000D02*
G75*
G02*
X16726250Y-27783000I-73750J0D01*
G01*
X16726250Y-27783000D02*
G75*
G02*
X16873750Y-27783000I73750J0D01*
G01*
X17127750Y-26513000D02*
G75*
G02*
X16980250Y-26513000I-73750J0D01*
G01*
X16980250Y-26513000D02*
G75*
G02*
X17127750Y-26513000I73750J0D01*
G01*
X17127750Y-26767000D02*
G75*
G02*
X16980250Y-26767000I-73750J0D01*
G01*
X16980250Y-26767000D02*
G75*
G02*
X17127750Y-26767000I73750J0D01*
G01*
X17127750Y-27021000D02*
G75*
G02*
X16980250Y-27021000I-73750J0D01*
G01*
X16980250Y-27021000D02*
G75*
G02*
X17127750Y-27021000I73750J0D01*
G01*
X17127750Y-27275000D02*
G75*
G02*
X16980250Y-27275000I-73750J0D01*
G01*
X16980250Y-27275000D02*
G75*
G02*
X17127750Y-27275000I73750J0D01*
G01*
X17127750Y-27529000D02*
G75*
G02*
X16980250Y-27529000I-73750J0D01*
G01*
X16980250Y-27529000D02*
G75*
G02*
X17127750Y-27529000I73750J0D01*
G01*
X17127750Y-27783000D02*
G75*
G02*
X16980250Y-27783000I-73750J0D01*
G01*
X16980250Y-27783000D02*
G75*
G02*
X17127750Y-27783000I73750J0D01*
G01*
X17381750Y-26513000D02*
G75*
G02*
X17234250Y-26513000I-73750J0D01*
G01*
X17234250Y-26513000D02*
G75*
G02*
X17381750Y-26513000I73750J0D01*
G01*
X17381750Y-26767000D02*
G75*
G02*
X17234250Y-26767000I-73750J0D01*
G01*
X17234250Y-26767000D02*
G75*
G02*
X17381750Y-26767000I73750J0D01*
G01*
X17381750Y-27021000D02*
G75*
G02*
X17234250Y-27021000I-73750J0D01*
G01*
X17234250Y-27021000D02*
G75*
G02*
X17381750Y-27021000I73750J0D01*
G01*
X17381750Y-27275000D02*
G75*
G02*
X17234250Y-27275000I-73750J0D01*
G01*
X17234250Y-27275000D02*
G75*
G02*
X17381750Y-27275000I73750J0D01*
G01*
X17381750Y-27529000D02*
G75*
G02*
X17234250Y-27529000I-73750J0D01*
G01*
X17234250Y-27529000D02*
G75*
G02*
X17381750Y-27529000I73750J0D01*
G01*
X17381750Y-27783000D02*
G75*
G02*
X17234250Y-27783000I-73750J0D01*
G01*
X17234250Y-27783000D02*
G75*
G02*
X17381750Y-27783000I73750J0D01*
G01*
X17635750Y-26513000D02*
G75*
G02*
X17488250Y-26513000I-73750J0D01*
G01*
X17488250Y-26513000D02*
G75*
G02*
X17635750Y-26513000I73750J0D01*
G01*
X17635750Y-26767000D02*
G75*
G02*
X17488250Y-26767000I-73750J0D01*
G01*
X17488250Y-26767000D02*
G75*
G02*
X17635750Y-26767000I73750J0D01*
G01*
X17635750Y-27021000D02*
G75*
G02*
X17488250Y-27021000I-73750J0D01*
G01*
X17488250Y-27021000D02*
G75*
G02*
X17635750Y-27021000I73750J0D01*
G01*
X17635750Y-27275000D02*
G75*
G02*
X17488250Y-27275000I-73750J0D01*
G01*
X17488250Y-27275000D02*
G75*
G02*
X17635750Y-27275000I73750J0D01*
G01*
X17635750Y-27529000D02*
G75*
G02*
X17488250Y-27529000I-73750J0D01*
G01*
X17488250Y-27529000D02*
G75*
G02*
X17635750Y-27529000I73750J0D01*
G01*
X17635750Y-27783000D02*
G75*
G02*
X17488250Y-27783000I-73750J0D01*
G01*
X17488250Y-27783000D02*
G75*
G02*
X17635750Y-27783000I73750J0D01*
G01*
D13*
X12050000Y-26864000D02*
X12050000Y-27024000D01*
X11970000Y-26944000D02*
X12130000Y-26944000D01*
X18800000Y-26864000D02*
X18800000Y-27024000D01*
X18720000Y-26944000D02*
X18880000Y-26944000D01*
D14*
X20135140Y-26628140D02*
X20135140Y-26500860D01*
X20007860Y-26500860D01*
X20007860Y-26628140D01*
X20135140Y-26628140D01*
X20135140Y-27178140D02*
X20135140Y-27050860D01*
X20007860Y-27050860D01*
X20007860Y-27178140D01*
X20135140Y-27178140D01*
X20555140Y-26628140D02*
X20555140Y-26500860D01*
X20427860Y-26500860D01*
X20427860Y-26628140D01*
X20555140Y-26628140D01*
X20555140Y-27178140D02*
X20555140Y-27050860D01*
X20427860Y-27050860D01*
X20427860Y-27178140D01*
X20555140Y-27178140D01*
X20975140Y-26628140D02*
X20975140Y-26500860D01*
X20847860Y-26500860D01*
X20847860Y-26628140D01*
X20975140Y-26628140D01*
X20975140Y-27178140D02*
X20975140Y-27050860D01*
X20847860Y-27050860D01*
X20847860Y-27178140D01*
X20975140Y-27178140D01*
X21395140Y-26628140D02*
X21395140Y-26500860D01*
X21267860Y-26500860D01*
X21267860Y-26628140D01*
X21395140Y-26628140D01*
X21395140Y-27178140D02*
X21395140Y-27050860D01*
X21267860Y-27050860D01*
X21267860Y-27178140D01*
X21395140Y-27178140D01*
X21815140Y-26628140D02*
X21815140Y-26500860D01*
X21687860Y-26500860D01*
X21687860Y-26628140D01*
X21815140Y-26628140D01*
X21815140Y-27178140D02*
X21815140Y-27050860D01*
X21687860Y-27050860D01*
X21687860Y-27178140D01*
X21815140Y-27178140D01*
X22235140Y-26628140D02*
X22235140Y-26500860D01*
X22107860Y-26500860D01*
X22107860Y-26628140D01*
X22235140Y-26628140D01*
X22235140Y-27178140D02*
X22235140Y-27050860D01*
X22107860Y-27050860D01*
X22107860Y-27178140D01*
X22235140Y-27178140D01*
X22655140Y-26628140D02*
X22655140Y-26500860D01*
X22527860Y-26500860D01*
X22527860Y-26628140D01*
X22655140Y-26628140D01*
X22655140Y-27178140D02*
X22655140Y-27050860D01*
X22527860Y-27050860D01*
X22527860Y-27178140D01*
X22655140Y-27178140D01*
X23075140Y-26628140D02*
X23075140Y-26500860D01*
X22947860Y-26500860D01*
X22947860Y-26628140D01*
X23075140Y-26628140D01*
X23075140Y-27178140D02*
X23075140Y-27050860D01*
X22947860Y-27050860D01*
X22947860Y-27178140D01*
X23075140Y-27178140D01*
X23495140Y-26628140D02*
X23495140Y-26500860D01*
X23367860Y-26500860D01*
X23367860Y-26628140D01*
X23495140Y-26628140D01*
X23495140Y-27178140D02*
X23495140Y-27050860D01*
X23367860Y-27050860D01*
X23367860Y-27178140D01*
X23495140Y-27178140D01*
D15*
X10368900Y-12250000D02*
X10643900Y-11975000D01*
X10368900Y-11700000D01*
X10093900Y-11975000D01*
X10368900Y-12250000D01*
X10368900Y-14663400D02*
X10643900Y-14388400D01*
X10368900Y-14113400D01*
X10093900Y-14388400D01*
X10368900Y-14663400D01*
X10368900Y-17076800D02*
X10643900Y-16801800D01*
X10368900Y-16526800D01*
X10093900Y-16801800D01*
X10368900Y-17076800D01*
X10368900Y-19490300D02*
X10643900Y-19215300D01*
X10368900Y-18940300D01*
X10093900Y-19215300D01*
X10368900Y-19490300D01*
X10368900Y-21903700D02*
X10643900Y-21628700D01*
X10368900Y-21353700D01*
X10093900Y-21628700D01*
X10368900Y-21903700D01*
X10368900Y-24317100D02*
X10643900Y-24042100D01*
X10368900Y-23767100D01*
X10093900Y-24042100D01*
X10368900Y-24317100D01*
X14862900Y-12250000D02*
X15137900Y-11975000D01*
X14862900Y-11700000D01*
X14587900Y-11975000D01*
X14862900Y-12250000D01*
X14862900Y-14663400D02*
X15137900Y-14388400D01*
X14862900Y-14113400D01*
X14587900Y-14388400D01*
X14862900Y-14663400D01*
X14862900Y-17076800D02*
X15137900Y-16801800D01*
X14862900Y-16526800D01*
X14587900Y-16801800D01*
X14862900Y-17076800D01*
X14862900Y-19490300D02*
X15137900Y-19215300D01*
X14862900Y-18940300D01*
X14587900Y-19215300D01*
X14862900Y-19490300D01*
X14862900Y-21903700D02*
X15137900Y-21628700D01*
X14862900Y-21353700D01*
X14587900Y-21628700D01*
X14862900Y-21903700D01*
X14862900Y-24317100D02*
X15137900Y-24042100D01*
X14862900Y-23767100D01*
X14587900Y-24042100D01*
X14862900Y-24317100D01*
X18118900Y-12250000D02*
X18393900Y-11975000D01*
X18118900Y-11700000D01*
X17843900Y-11975000D01*
X18118900Y-12250000D01*
X18118900Y-14663400D02*
X18393900Y-14388400D01*
X18118900Y-14113400D01*
X17843900Y-14388400D01*
X18118900Y-14663400D01*
X18118900Y-17076800D02*
X18393900Y-16801800D01*
X18118900Y-16526800D01*
X17843900Y-16801800D01*
X18118900Y-17076800D01*
X18118900Y-19490300D02*
X18393900Y-19215300D01*
X18118900Y-18940300D01*
X17843900Y-19215300D01*
X18118900Y-19490300D01*
X18118900Y-21903700D02*
X18393900Y-21628700D01*
X18118900Y-21353700D01*
X17843900Y-21628700D01*
X18118900Y-21903700D01*
X18118900Y-24317100D02*
X18393900Y-24042100D01*
X18118900Y-23767100D01*
X17843900Y-24042100D01*
X18118900Y-24317100D01*
X22612900Y-12250000D02*
X22887900Y-11975000D01*
X22612900Y-11700000D01*
X22337900Y-11975000D01*
X22612900Y-12250000D01*
X22612900Y-14663400D02*
X22887900Y-14388400D01*
X22612900Y-14113400D01*
X22337900Y-14388400D01*
X22612900Y-14663400D01*
X22612900Y-17076800D02*
X22887900Y-16801800D01*
X22612900Y-16526800D01*
X22337900Y-16801800D01*
X22612900Y-17076800D01*
X22612900Y-19490300D02*
X22887900Y-19215300D01*
X22612900Y-18940300D01*
X22337900Y-19215300D01*
X22612900Y-19490300D01*
X22612900Y-21903700D02*
X22887900Y-21628700D01*
X22612900Y-21353700D01*
X22337900Y-21628700D01*
X22612900Y-21903700D01*
X22612900Y-24317100D02*
X22887900Y-24042100D01*
X22612900Y-23767100D01*
X22337900Y-24042100D01*
X22612900Y-24317100D01*
D11*
X8643677Y-28474884D02*
X8643677Y-28274884D01*
X8643677Y-28274884D02*
X8691296Y-28274884D01*
X8691296Y-28274884D02*
X8719867Y-28284408D01*
X8719867Y-28284408D02*
X8738915Y-28303455D01*
X8738915Y-28303455D02*
X8748439Y-28322503D01*
X8748439Y-28322503D02*
X8757963Y-28360598D01*
X8757963Y-28360598D02*
X8757963Y-28389169D01*
X8757963Y-28389169D02*
X8748439Y-28427265D01*
X8748439Y-28427265D02*
X8738915Y-28446312D01*
X8738915Y-28446312D02*
X8719867Y-28465360D01*
X8719867Y-28465360D02*
X8691296Y-28474884D01*
X8691296Y-28474884D02*
X8643677Y-28474884D01*
X8843677Y-28474884D02*
X8843677Y-28341550D01*
X8843677Y-28379646D02*
X8853201Y-28360598D01*
X8853201Y-28360598D02*
X8862724Y-28351074D01*
X8862724Y-28351074D02*
X8881772Y-28341550D01*
X8881772Y-28341550D02*
X8900820Y-28341550D01*
X8967486Y-28474884D02*
X8967486Y-28341550D01*
X8967486Y-28274884D02*
X8957963Y-28284408D01*
X8957963Y-28284408D02*
X8967486Y-28293931D01*
X8967486Y-28293931D02*
X8977010Y-28284408D01*
X8977010Y-28284408D02*
X8967486Y-28274884D01*
X8967486Y-28274884D02*
X8967486Y-28293931D01*
X9091296Y-28474884D02*
X9072248Y-28465360D01*
X9072248Y-28465360D02*
X9062724Y-28446312D01*
X9062724Y-28446312D02*
X9062724Y-28274884D01*
X9196058Y-28474884D02*
X9177010Y-28465360D01*
X9177010Y-28465360D02*
X9167486Y-28446312D01*
X9167486Y-28446312D02*
X9167486Y-28274884D01*
X9424629Y-28474884D02*
X9424629Y-28274884D01*
X9424629Y-28274884D02*
X9491296Y-28417741D01*
X9491296Y-28417741D02*
X9557963Y-28274884D01*
X9557963Y-28274884D02*
X9557963Y-28474884D01*
X9738915Y-28474884D02*
X9738915Y-28370122D01*
X9738915Y-28370122D02*
X9729391Y-28351074D01*
X9729391Y-28351074D02*
X9710344Y-28341550D01*
X9710344Y-28341550D02*
X9672248Y-28341550D01*
X9672248Y-28341550D02*
X9653201Y-28351074D01*
X9738915Y-28465360D02*
X9719867Y-28474884D01*
X9719867Y-28474884D02*
X9672248Y-28474884D01*
X9672248Y-28474884D02*
X9653201Y-28465360D01*
X9653201Y-28465360D02*
X9643677Y-28446312D01*
X9643677Y-28446312D02*
X9643677Y-28427265D01*
X9643677Y-28427265D02*
X9653201Y-28408217D01*
X9653201Y-28408217D02*
X9672248Y-28398693D01*
X9672248Y-28398693D02*
X9719867Y-28398693D01*
X9719867Y-28398693D02*
X9738915Y-28389169D01*
X9834153Y-28341550D02*
X9834153Y-28541550D01*
X9834153Y-28351074D02*
X9853201Y-28341550D01*
X9853201Y-28341550D02*
X9891296Y-28341550D01*
X9891296Y-28341550D02*
X9910344Y-28351074D01*
X9910344Y-28351074D02*
X9919867Y-28360598D01*
X9919867Y-28360598D02*
X9929391Y-28379646D01*
X9929391Y-28379646D02*
X9929391Y-28436788D01*
X9929391Y-28436788D02*
X9919867Y-28455836D01*
X9919867Y-28455836D02*
X9910344Y-28465360D01*
X9910344Y-28465360D02*
X9891296Y-28474884D01*
X9891296Y-28474884D02*
X9853201Y-28474884D01*
X9853201Y-28474884D02*
X9834153Y-28465360D01*
X10015105Y-28455836D02*
X10024629Y-28465360D01*
X10024629Y-28465360D02*
X10015105Y-28474884D01*
X10015105Y-28474884D02*
X10005582Y-28465360D01*
X10005582Y-28465360D02*
X10015105Y-28455836D01*
X10015105Y-28455836D02*
X10015105Y-28474884D01*
X10015105Y-28351074D02*
X10024629Y-28360598D01*
X10024629Y-28360598D02*
X10015105Y-28370122D01*
X10015105Y-28370122D02*
X10005582Y-28360598D01*
X10005582Y-28360598D02*
X10015105Y-28351074D01*
X10015105Y-28351074D02*
X10015105Y-28370122D01*
D10*
X8342900Y-28783400D02*
X8382900Y-28823400D01*
X8382900Y-28783400D02*
X8342900Y-28823400D01*
D11*
X8681772Y-28694884D02*
X8700820Y-28694884D01*
X8700820Y-28694884D02*
X8719867Y-28704408D01*
X8719867Y-28704408D02*
X8729391Y-28713931D01*
X8729391Y-28713931D02*
X8738915Y-28732979D01*
X8738915Y-28732979D02*
X8748439Y-28771074D01*
X8748439Y-28771074D02*
X8748439Y-28818693D01*
X8748439Y-28818693D02*
X8738915Y-28856788D01*
X8738915Y-28856788D02*
X8729391Y-28875836D01*
X8729391Y-28875836D02*
X8719867Y-28885360D01*
X8719867Y-28885360D02*
X8700820Y-28894884D01*
X8700820Y-28894884D02*
X8681772Y-28894884D01*
X8681772Y-28894884D02*
X8662724Y-28885360D01*
X8662724Y-28885360D02*
X8653201Y-28875836D01*
X8653201Y-28875836D02*
X8643677Y-28856788D01*
X8643677Y-28856788D02*
X8634153Y-28818693D01*
X8634153Y-28818693D02*
X8634153Y-28771074D01*
X8634153Y-28771074D02*
X8643677Y-28732979D01*
X8643677Y-28732979D02*
X8653201Y-28713931D01*
X8653201Y-28713931D02*
X8662724Y-28704408D01*
X8662724Y-28704408D02*
X8681772Y-28694884D01*
X8834153Y-28875836D02*
X8843677Y-28885360D01*
X8843677Y-28885360D02*
X8834153Y-28894884D01*
X8834153Y-28894884D02*
X8824629Y-28885360D01*
X8824629Y-28885360D02*
X8834153Y-28875836D01*
X8834153Y-28875836D02*
X8834153Y-28894884D01*
X9015105Y-28761550D02*
X9015105Y-28894884D01*
X8967486Y-28685360D02*
X8919867Y-28828217D01*
X8919867Y-28828217D02*
X9043677Y-28828217D01*
X9157963Y-28694884D02*
X9177010Y-28694884D01*
X9177010Y-28694884D02*
X9196058Y-28704408D01*
X9196058Y-28704408D02*
X9205582Y-28713931D01*
X9205582Y-28713931D02*
X9215105Y-28732979D01*
X9215105Y-28732979D02*
X9224629Y-28771074D01*
X9224629Y-28771074D02*
X9224629Y-28818693D01*
X9224629Y-28818693D02*
X9215105Y-28856788D01*
X9215105Y-28856788D02*
X9205582Y-28875836D01*
X9205582Y-28875836D02*
X9196058Y-28885360D01*
X9196058Y-28885360D02*
X9177010Y-28894884D01*
X9177010Y-28894884D02*
X9157963Y-28894884D01*
X9157963Y-28894884D02*
X9138915Y-28885360D01*
X9138915Y-28885360D02*
X9129391Y-28875836D01*
X9129391Y-28875836D02*
X9119867Y-28856788D01*
X9119867Y-28856788D02*
X9110344Y-28818693D01*
X9110344Y-28818693D02*
X9110344Y-28771074D01*
X9110344Y-28771074D02*
X9119867Y-28732979D01*
X9119867Y-28732979D02*
X9129391Y-28713931D01*
X9129391Y-28713931D02*
X9138915Y-28704408D01*
X9138915Y-28704408D02*
X9157963Y-28694884D01*
X9348439Y-28694884D02*
X9367486Y-28694884D01*
X9367486Y-28694884D02*
X9386534Y-28704408D01*
X9386534Y-28704408D02*
X9396058Y-28713931D01*
X9396058Y-28713931D02*
X9405582Y-28732979D01*
X9405582Y-28732979D02*
X9415105Y-28771074D01*
X9415105Y-28771074D02*
X9415105Y-28818693D01*
X9415105Y-28818693D02*
X9405582Y-28856788D01*
X9405582Y-28856788D02*
X9396058Y-28875836D01*
X9396058Y-28875836D02*
X9386534Y-28885360D01*
X9386534Y-28885360D02*
X9367486Y-28894884D01*
X9367486Y-28894884D02*
X9348439Y-28894884D01*
X9348439Y-28894884D02*
X9329391Y-28885360D01*
X9329391Y-28885360D02*
X9319867Y-28875836D01*
X9319867Y-28875836D02*
X9310344Y-28856788D01*
X9310344Y-28856788D02*
X9300820Y-28818693D01*
X9300820Y-28818693D02*
X9300820Y-28771074D01*
X9300820Y-28771074D02*
X9310344Y-28732979D01*
X9310344Y-28732979D02*
X9319867Y-28713931D01*
X9319867Y-28713931D02*
X9329391Y-28704408D01*
X9329391Y-28704408D02*
X9348439Y-28694884D01*
X9500820Y-28894884D02*
X9500820Y-28761550D01*
X9500820Y-28780598D02*
X9510344Y-28771074D01*
X9510344Y-28771074D02*
X9529391Y-28761550D01*
X9529391Y-28761550D02*
X9557963Y-28761550D01*
X9557963Y-28761550D02*
X9577010Y-28771074D01*
X9577010Y-28771074D02*
X9586534Y-28790122D01*
X9586534Y-28790122D02*
X9586534Y-28894884D01*
X9586534Y-28790122D02*
X9596058Y-28771074D01*
X9596058Y-28771074D02*
X9615105Y-28761550D01*
X9615105Y-28761550D02*
X9643677Y-28761550D01*
X9643677Y-28761550D02*
X9662725Y-28771074D01*
X9662725Y-28771074D02*
X9672248Y-28790122D01*
X9672248Y-28790122D02*
X9672248Y-28894884D01*
X9767486Y-28894884D02*
X9767486Y-28761550D01*
X9767486Y-28780598D02*
X9777010Y-28771074D01*
X9777010Y-28771074D02*
X9796058Y-28761550D01*
X9796058Y-28761550D02*
X9824629Y-28761550D01*
X9824629Y-28761550D02*
X9843677Y-28771074D01*
X9843677Y-28771074D02*
X9853201Y-28790122D01*
X9853201Y-28790122D02*
X9853201Y-28894884D01*
X9853201Y-28790122D02*
X9862725Y-28771074D01*
X9862725Y-28771074D02*
X9881772Y-28761550D01*
X9881772Y-28761550D02*
X9910344Y-28761550D01*
X9910344Y-28761550D02*
X9929391Y-28771074D01*
X9929391Y-28771074D02*
X9938915Y-28790122D01*
X9938915Y-28790122D02*
X9938915Y-28894884D01*
X10329391Y-28685360D02*
X10157963Y-28942503D01*
X10586534Y-28694884D02*
X10605582Y-28694884D01*
X10605582Y-28694884D02*
X10624629Y-28704408D01*
X10624629Y-28704408D02*
X10634153Y-28713931D01*
X10634153Y-28713931D02*
X10643677Y-28732979D01*
X10643677Y-28732979D02*
X10653201Y-28771074D01*
X10653201Y-28771074D02*
X10653201Y-28818693D01*
X10653201Y-28818693D02*
X10643677Y-28856788D01*
X10643677Y-28856788D02*
X10634153Y-28875836D01*
X10634153Y-28875836D02*
X10624629Y-28885360D01*
X10624629Y-28885360D02*
X10605582Y-28894884D01*
X10605582Y-28894884D02*
X10586534Y-28894884D01*
X10586534Y-28894884D02*
X10567487Y-28885360D01*
X10567487Y-28885360D02*
X10557963Y-28875836D01*
X10557963Y-28875836D02*
X10548439Y-28856788D01*
X10548439Y-28856788D02*
X10538915Y-28818693D01*
X10538915Y-28818693D02*
X10538915Y-28771074D01*
X10538915Y-28771074D02*
X10548439Y-28732979D01*
X10548439Y-28732979D02*
X10557963Y-28713931D01*
X10557963Y-28713931D02*
X10567487Y-28704408D01*
X10567487Y-28704408D02*
X10586534Y-28694884D01*
X10738915Y-28875836D02*
X10748439Y-28885360D01*
X10748439Y-28885360D02*
X10738915Y-28894884D01*
X10738915Y-28894884D02*
X10729391Y-28885360D01*
X10729391Y-28885360D02*
X10738915Y-28875836D01*
X10738915Y-28875836D02*
X10738915Y-28894884D01*
X10872248Y-28694884D02*
X10891296Y-28694884D01*
X10891296Y-28694884D02*
X10910344Y-28704408D01*
X10910344Y-28704408D02*
X10919868Y-28713931D01*
X10919868Y-28713931D02*
X10929391Y-28732979D01*
X10929391Y-28732979D02*
X10938915Y-28771074D01*
X10938915Y-28771074D02*
X10938915Y-28818693D01*
X10938915Y-28818693D02*
X10929391Y-28856788D01*
X10929391Y-28856788D02*
X10919868Y-28875836D01*
X10919868Y-28875836D02*
X10910344Y-28885360D01*
X10910344Y-28885360D02*
X10891296Y-28894884D01*
X10891296Y-28894884D02*
X10872248Y-28894884D01*
X10872248Y-28894884D02*
X10853201Y-28885360D01*
X10853201Y-28885360D02*
X10843677Y-28875836D01*
X10843677Y-28875836D02*
X10834153Y-28856788D01*
X10834153Y-28856788D02*
X10824629Y-28818693D01*
X10824629Y-28818693D02*
X10824629Y-28771074D01*
X10824629Y-28771074D02*
X10834153Y-28732979D01*
X10834153Y-28732979D02*
X10843677Y-28713931D01*
X10843677Y-28713931D02*
X10853201Y-28704408D01*
X10853201Y-28704408D02*
X10872248Y-28694884D01*
X11129391Y-28894884D02*
X11015106Y-28894884D01*
X11072248Y-28894884D02*
X11072248Y-28694884D01*
X11072248Y-28694884D02*
X11053201Y-28723455D01*
X11053201Y-28723455D02*
X11034153Y-28742503D01*
X11034153Y-28742503D02*
X11015106Y-28752027D01*
X11310344Y-28694884D02*
X11215106Y-28694884D01*
X11215106Y-28694884D02*
X11205582Y-28790122D01*
X11205582Y-28790122D02*
X11215106Y-28780598D01*
X11215106Y-28780598D02*
X11234153Y-28771074D01*
X11234153Y-28771074D02*
X11281772Y-28771074D01*
X11281772Y-28771074D02*
X11300820Y-28780598D01*
X11300820Y-28780598D02*
X11310344Y-28790122D01*
X11310344Y-28790122D02*
X11319867Y-28809169D01*
X11319867Y-28809169D02*
X11319867Y-28856788D01*
X11319867Y-28856788D02*
X11310344Y-28875836D01*
X11310344Y-28875836D02*
X11300820Y-28885360D01*
X11300820Y-28885360D02*
X11281772Y-28894884D01*
X11281772Y-28894884D02*
X11234153Y-28894884D01*
X11234153Y-28894884D02*
X11215106Y-28885360D01*
X11215106Y-28885360D02*
X11205582Y-28875836D01*
X11386534Y-28694884D02*
X11519867Y-28694884D01*
X11519867Y-28694884D02*
X11434153Y-28894884D01*
X11586534Y-28694884D02*
X11586534Y-28732979D01*
X11662725Y-28694884D02*
X11662725Y-28732979D01*
X11957963Y-28971074D02*
X11948439Y-28961550D01*
X11948439Y-28961550D02*
X11929391Y-28932979D01*
X11929391Y-28932979D02*
X11919868Y-28913931D01*
X11919868Y-28913931D02*
X11910344Y-28885360D01*
X11910344Y-28885360D02*
X11900820Y-28837741D01*
X11900820Y-28837741D02*
X11900820Y-28799646D01*
X11900820Y-28799646D02*
X11910344Y-28752027D01*
X11910344Y-28752027D02*
X11919868Y-28723455D01*
X11919868Y-28723455D02*
X11929391Y-28704408D01*
X11929391Y-28704408D02*
X11948439Y-28675836D01*
X11948439Y-28675836D02*
X11957963Y-28666312D01*
X12129391Y-28694884D02*
X12034153Y-28694884D01*
X12034153Y-28694884D02*
X12024629Y-28790122D01*
X12024629Y-28790122D02*
X12034153Y-28780598D01*
X12034153Y-28780598D02*
X12053201Y-28771074D01*
X12053201Y-28771074D02*
X12100820Y-28771074D01*
X12100820Y-28771074D02*
X12119868Y-28780598D01*
X12119868Y-28780598D02*
X12129391Y-28790122D01*
X12129391Y-28790122D02*
X12138915Y-28809169D01*
X12138915Y-28809169D02*
X12138915Y-28856788D01*
X12138915Y-28856788D02*
X12129391Y-28875836D01*
X12129391Y-28875836D02*
X12119868Y-28885360D01*
X12119868Y-28885360D02*
X12100820Y-28894884D01*
X12100820Y-28894884D02*
X12053201Y-28894884D01*
X12053201Y-28894884D02*
X12034153Y-28885360D01*
X12034153Y-28885360D02*
X12024629Y-28875836D01*
X12377010Y-28894884D02*
X12377010Y-28694884D01*
X12462725Y-28894884D02*
X12462725Y-28790122D01*
X12462725Y-28790122D02*
X12453201Y-28771074D01*
X12453201Y-28771074D02*
X12434153Y-28761550D01*
X12434153Y-28761550D02*
X12405582Y-28761550D01*
X12405582Y-28761550D02*
X12386534Y-28771074D01*
X12386534Y-28771074D02*
X12377010Y-28780598D01*
X12586534Y-28894884D02*
X12567487Y-28885360D01*
X12567487Y-28885360D02*
X12557963Y-28875836D01*
X12557963Y-28875836D02*
X12548439Y-28856788D01*
X12548439Y-28856788D02*
X12548439Y-28799646D01*
X12548439Y-28799646D02*
X12557963Y-28780598D01*
X12557963Y-28780598D02*
X12567487Y-28771074D01*
X12567487Y-28771074D02*
X12586534Y-28761550D01*
X12586534Y-28761550D02*
X12615106Y-28761550D01*
X12615106Y-28761550D02*
X12634153Y-28771074D01*
X12634153Y-28771074D02*
X12643677Y-28780598D01*
X12643677Y-28780598D02*
X12653201Y-28799646D01*
X12653201Y-28799646D02*
X12653201Y-28856788D01*
X12653201Y-28856788D02*
X12643677Y-28875836D01*
X12643677Y-28875836D02*
X12634153Y-28885360D01*
X12634153Y-28885360D02*
X12615106Y-28894884D01*
X12615106Y-28894884D02*
X12586534Y-28894884D01*
X12767487Y-28894884D02*
X12748439Y-28885360D01*
X12748439Y-28885360D02*
X12738915Y-28866312D01*
X12738915Y-28866312D02*
X12738915Y-28694884D01*
X12919868Y-28885360D02*
X12900820Y-28894884D01*
X12900820Y-28894884D02*
X12862725Y-28894884D01*
X12862725Y-28894884D02*
X12843677Y-28885360D01*
X12843677Y-28885360D02*
X12834153Y-28866312D01*
X12834153Y-28866312D02*
X12834153Y-28790122D01*
X12834153Y-28790122D02*
X12843677Y-28771074D01*
X12843677Y-28771074D02*
X12862725Y-28761550D01*
X12862725Y-28761550D02*
X12900820Y-28761550D01*
X12900820Y-28761550D02*
X12919868Y-28771074D01*
X12919868Y-28771074D02*
X12929391Y-28790122D01*
X12929391Y-28790122D02*
X12929391Y-28809169D01*
X12929391Y-28809169D02*
X12834153Y-28828217D01*
X13005582Y-28885360D02*
X13024630Y-28894884D01*
X13024630Y-28894884D02*
X13062725Y-28894884D01*
X13062725Y-28894884D02*
X13081772Y-28885360D01*
X13081772Y-28885360D02*
X13091296Y-28866312D01*
X13091296Y-28866312D02*
X13091296Y-28856788D01*
X13091296Y-28856788D02*
X13081772Y-28837741D01*
X13081772Y-28837741D02*
X13062725Y-28828217D01*
X13062725Y-28828217D02*
X13034153Y-28828217D01*
X13034153Y-28828217D02*
X13015106Y-28818693D01*
X13015106Y-28818693D02*
X13005582Y-28799646D01*
X13005582Y-28799646D02*
X13005582Y-28790122D01*
X13005582Y-28790122D02*
X13015106Y-28771074D01*
X13015106Y-28771074D02*
X13034153Y-28761550D01*
X13034153Y-28761550D02*
X13062725Y-28761550D01*
X13062725Y-28761550D02*
X13081772Y-28771074D01*
X13157963Y-28971074D02*
X13167487Y-28961550D01*
X13167487Y-28961550D02*
X13186534Y-28932979D01*
X13186534Y-28932979D02*
X13196058Y-28913931D01*
X13196058Y-28913931D02*
X13205582Y-28885360D01*
X13205582Y-28885360D02*
X13215106Y-28837741D01*
X13215106Y-28837741D02*
X13215106Y-28799646D01*
X13215106Y-28799646D02*
X13205582Y-28752027D01*
X13205582Y-28752027D02*
X13196058Y-28723455D01*
X13196058Y-28723455D02*
X13186534Y-28704408D01*
X13186534Y-28704408D02*
X13167487Y-28675836D01*
X13167487Y-28675836D02*
X13157963Y-28666312D01*
D12*
X8382900Y-29067400D02*
G75*
G02*
X8235400Y-29067400I-73750J0D01*
G01*
X8235400Y-29067400D02*
G75*
G02*
X8382900Y-29067400I73750J0D01*
G01*
D11*
X8748439Y-29158884D02*
X8634153Y-29158884D01*
X8691296Y-29158884D02*
X8691296Y-28958884D01*
X8691296Y-28958884D02*
X8672248Y-28987455D01*
X8672248Y-28987455D02*
X8653201Y-29006503D01*
X8653201Y-29006503D02*
X8634153Y-29016027D01*
X8834153Y-29139836D02*
X8843677Y-29149360D01*
X8843677Y-29149360D02*
X8834153Y-29158884D01*
X8834153Y-29158884D02*
X8824629Y-29149360D01*
X8824629Y-29149360D02*
X8834153Y-29139836D01*
X8834153Y-29139836D02*
X8834153Y-29158884D01*
X9015105Y-29025550D02*
X9015105Y-29158884D01*
X8967486Y-28949360D02*
X8919867Y-29092217D01*
X8919867Y-29092217D02*
X9043677Y-29092217D01*
X9100820Y-28958884D02*
X9234153Y-28958884D01*
X9234153Y-28958884D02*
X9148439Y-29158884D01*
X9405582Y-28958884D02*
X9310344Y-28958884D01*
X9310344Y-28958884D02*
X9300820Y-29054122D01*
X9300820Y-29054122D02*
X9310344Y-29044598D01*
X9310344Y-29044598D02*
X9329391Y-29035074D01*
X9329391Y-29035074D02*
X9377010Y-29035074D01*
X9377010Y-29035074D02*
X9396058Y-29044598D01*
X9396058Y-29044598D02*
X9405582Y-29054122D01*
X9405582Y-29054122D02*
X9415105Y-29073169D01*
X9415105Y-29073169D02*
X9415105Y-29120788D01*
X9415105Y-29120788D02*
X9405582Y-29139836D01*
X9405582Y-29139836D02*
X9396058Y-29149360D01*
X9396058Y-29149360D02*
X9377010Y-29158884D01*
X9377010Y-29158884D02*
X9329391Y-29158884D01*
X9329391Y-29158884D02*
X9310344Y-29149360D01*
X9310344Y-29149360D02*
X9300820Y-29139836D01*
X9500820Y-29158884D02*
X9500820Y-29025550D01*
X9500820Y-29044598D02*
X9510344Y-29035074D01*
X9510344Y-29035074D02*
X9529391Y-29025550D01*
X9529391Y-29025550D02*
X9557963Y-29025550D01*
X9557963Y-29025550D02*
X9577010Y-29035074D01*
X9577010Y-29035074D02*
X9586534Y-29054122D01*
X9586534Y-29054122D02*
X9586534Y-29158884D01*
X9586534Y-29054122D02*
X9596058Y-29035074D01*
X9596058Y-29035074D02*
X9615105Y-29025550D01*
X9615105Y-29025550D02*
X9643677Y-29025550D01*
X9643677Y-29025550D02*
X9662725Y-29035074D01*
X9662725Y-29035074D02*
X9672248Y-29054122D01*
X9672248Y-29054122D02*
X9672248Y-29158884D01*
X9767486Y-29158884D02*
X9767486Y-29025550D01*
X9767486Y-29044598D02*
X9777010Y-29035074D01*
X9777010Y-29035074D02*
X9796058Y-29025550D01*
X9796058Y-29025550D02*
X9824629Y-29025550D01*
X9824629Y-29025550D02*
X9843677Y-29035074D01*
X9843677Y-29035074D02*
X9853201Y-29054122D01*
X9853201Y-29054122D02*
X9853201Y-29158884D01*
X9853201Y-29054122D02*
X9862725Y-29035074D01*
X9862725Y-29035074D02*
X9881772Y-29025550D01*
X9881772Y-29025550D02*
X9910344Y-29025550D01*
X9910344Y-29025550D02*
X9929391Y-29035074D01*
X9929391Y-29035074D02*
X9938915Y-29054122D01*
X9938915Y-29054122D02*
X9938915Y-29158884D01*
X10329391Y-28949360D02*
X10157963Y-29206503D01*
X10586534Y-28958884D02*
X10605582Y-28958884D01*
X10605582Y-28958884D02*
X10624629Y-28968408D01*
X10624629Y-28968408D02*
X10634153Y-28977931D01*
X10634153Y-28977931D02*
X10643677Y-28996979D01*
X10643677Y-28996979D02*
X10653201Y-29035074D01*
X10653201Y-29035074D02*
X10653201Y-29082693D01*
X10653201Y-29082693D02*
X10643677Y-29120788D01*
X10643677Y-29120788D02*
X10634153Y-29139836D01*
X10634153Y-29139836D02*
X10624629Y-29149360D01*
X10624629Y-29149360D02*
X10605582Y-29158884D01*
X10605582Y-29158884D02*
X10586534Y-29158884D01*
X10586534Y-29158884D02*
X10567487Y-29149360D01*
X10567487Y-29149360D02*
X10557963Y-29139836D01*
X10557963Y-29139836D02*
X10548439Y-29120788D01*
X10548439Y-29120788D02*
X10538915Y-29082693D01*
X10538915Y-29082693D02*
X10538915Y-29035074D01*
X10538915Y-29035074D02*
X10548439Y-28996979D01*
X10548439Y-28996979D02*
X10557963Y-28977931D01*
X10557963Y-28977931D02*
X10567487Y-28968408D01*
X10567487Y-28968408D02*
X10586534Y-28958884D01*
X10738915Y-29139836D02*
X10748439Y-29149360D01*
X10748439Y-29149360D02*
X10738915Y-29158884D01*
X10738915Y-29158884D02*
X10729391Y-29149360D01*
X10729391Y-29149360D02*
X10738915Y-29139836D01*
X10738915Y-29139836D02*
X10738915Y-29158884D01*
X10872248Y-28958884D02*
X10891296Y-28958884D01*
X10891296Y-28958884D02*
X10910344Y-28968408D01*
X10910344Y-28968408D02*
X10919868Y-28977931D01*
X10919868Y-28977931D02*
X10929391Y-28996979D01*
X10929391Y-28996979D02*
X10938915Y-29035074D01*
X10938915Y-29035074D02*
X10938915Y-29082693D01*
X10938915Y-29082693D02*
X10929391Y-29120788D01*
X10929391Y-29120788D02*
X10919868Y-29139836D01*
X10919868Y-29139836D02*
X10910344Y-29149360D01*
X10910344Y-29149360D02*
X10891296Y-29158884D01*
X10891296Y-29158884D02*
X10872248Y-29158884D01*
X10872248Y-29158884D02*
X10853201Y-29149360D01*
X10853201Y-29149360D02*
X10843677Y-29139836D01*
X10843677Y-29139836D02*
X10834153Y-29120788D01*
X10834153Y-29120788D02*
X10824629Y-29082693D01*
X10824629Y-29082693D02*
X10824629Y-29035074D01*
X10824629Y-29035074D02*
X10834153Y-28996979D01*
X10834153Y-28996979D02*
X10843677Y-28977931D01*
X10843677Y-28977931D02*
X10853201Y-28968408D01*
X10853201Y-28968408D02*
X10872248Y-28958884D01*
X11119868Y-28958884D02*
X11024629Y-28958884D01*
X11024629Y-28958884D02*
X11015106Y-29054122D01*
X11015106Y-29054122D02*
X11024629Y-29044598D01*
X11024629Y-29044598D02*
X11043677Y-29035074D01*
X11043677Y-29035074D02*
X11091296Y-29035074D01*
X11091296Y-29035074D02*
X11110344Y-29044598D01*
X11110344Y-29044598D02*
X11119868Y-29054122D01*
X11119868Y-29054122D02*
X11129391Y-29073169D01*
X11129391Y-29073169D02*
X11129391Y-29120788D01*
X11129391Y-29120788D02*
X11119868Y-29139836D01*
X11119868Y-29139836D02*
X11110344Y-29149360D01*
X11110344Y-29149360D02*
X11091296Y-29158884D01*
X11091296Y-29158884D02*
X11043677Y-29158884D01*
X11043677Y-29158884D02*
X11024629Y-29149360D01*
X11024629Y-29149360D02*
X11015106Y-29139836D01*
X11243677Y-29044598D02*
X11224629Y-29035074D01*
X11224629Y-29035074D02*
X11215106Y-29025550D01*
X11215106Y-29025550D02*
X11205582Y-29006503D01*
X11205582Y-29006503D02*
X11205582Y-28996979D01*
X11205582Y-28996979D02*
X11215106Y-28977931D01*
X11215106Y-28977931D02*
X11224629Y-28968408D01*
X11224629Y-28968408D02*
X11243677Y-28958884D01*
X11243677Y-28958884D02*
X11281772Y-28958884D01*
X11281772Y-28958884D02*
X11300820Y-28968408D01*
X11300820Y-28968408D02*
X11310344Y-28977931D01*
X11310344Y-28977931D02*
X11319867Y-28996979D01*
X11319867Y-28996979D02*
X11319867Y-29006503D01*
X11319867Y-29006503D02*
X11310344Y-29025550D01*
X11310344Y-29025550D02*
X11300820Y-29035074D01*
X11300820Y-29035074D02*
X11281772Y-29044598D01*
X11281772Y-29044598D02*
X11243677Y-29044598D01*
X11243677Y-29044598D02*
X11224629Y-29054122D01*
X11224629Y-29054122D02*
X11215106Y-29063646D01*
X11215106Y-29063646D02*
X11205582Y-29082693D01*
X11205582Y-29082693D02*
X11205582Y-29120788D01*
X11205582Y-29120788D02*
X11215106Y-29139836D01*
X11215106Y-29139836D02*
X11224629Y-29149360D01*
X11224629Y-29149360D02*
X11243677Y-29158884D01*
X11243677Y-29158884D02*
X11281772Y-29158884D01*
X11281772Y-29158884D02*
X11300820Y-29149360D01*
X11300820Y-29149360D02*
X11310344Y-29139836D01*
X11310344Y-29139836D02*
X11319867Y-29120788D01*
X11319867Y-29120788D02*
X11319867Y-29082693D01*
X11319867Y-29082693D02*
X11310344Y-29063646D01*
X11310344Y-29063646D02*
X11300820Y-29054122D01*
X11300820Y-29054122D02*
X11281772Y-29044598D01*
X11510344Y-29158884D02*
X11396058Y-29158884D01*
X11453201Y-29158884D02*
X11453201Y-28958884D01*
X11453201Y-28958884D02*
X11434153Y-28987455D01*
X11434153Y-28987455D02*
X11415106Y-29006503D01*
X11415106Y-29006503D02*
X11396058Y-29016027D01*
X11586534Y-28958884D02*
X11586534Y-28996979D01*
X11662725Y-28958884D02*
X11662725Y-28996979D01*
X11957963Y-29235074D02*
X11948439Y-29225550D01*
X11948439Y-29225550D02*
X11929391Y-29196979D01*
X11929391Y-29196979D02*
X11919868Y-29177931D01*
X11919868Y-29177931D02*
X11910344Y-29149360D01*
X11910344Y-29149360D02*
X11900820Y-29101741D01*
X11900820Y-29101741D02*
X11900820Y-29063646D01*
X11900820Y-29063646D02*
X11910344Y-29016027D01*
X11910344Y-29016027D02*
X11919868Y-28987455D01*
X11919868Y-28987455D02*
X11929391Y-28968408D01*
X11929391Y-28968408D02*
X11948439Y-28939836D01*
X11948439Y-28939836D02*
X11957963Y-28930312D01*
X12015106Y-28958884D02*
X12148439Y-28958884D01*
X12148439Y-28958884D02*
X12062725Y-29158884D01*
X12215106Y-28977931D02*
X12224629Y-28968408D01*
X12224629Y-28968408D02*
X12243677Y-28958884D01*
X12243677Y-28958884D02*
X12291296Y-28958884D01*
X12291296Y-28958884D02*
X12310344Y-28968408D01*
X12310344Y-28968408D02*
X12319868Y-28977931D01*
X12319868Y-28977931D02*
X12329391Y-28996979D01*
X12329391Y-28996979D02*
X12329391Y-29016027D01*
X12329391Y-29016027D02*
X12319868Y-29044598D01*
X12319868Y-29044598D02*
X12205582Y-29158884D01*
X12205582Y-29158884D02*
X12329391Y-29158884D01*
X12567487Y-29158884D02*
X12567487Y-28958884D01*
X12653201Y-29158884D02*
X12653201Y-29054122D01*
X12653201Y-29054122D02*
X12643677Y-29035074D01*
X12643677Y-29035074D02*
X12624630Y-29025550D01*
X12624630Y-29025550D02*
X12596058Y-29025550D01*
X12596058Y-29025550D02*
X12577010Y-29035074D01*
X12577010Y-29035074D02*
X12567487Y-29044598D01*
X12777010Y-29158884D02*
X12757963Y-29149360D01*
X12757963Y-29149360D02*
X12748439Y-29139836D01*
X12748439Y-29139836D02*
X12738915Y-29120788D01*
X12738915Y-29120788D02*
X12738915Y-29063646D01*
X12738915Y-29063646D02*
X12748439Y-29044598D01*
X12748439Y-29044598D02*
X12757963Y-29035074D01*
X12757963Y-29035074D02*
X12777010Y-29025550D01*
X12777010Y-29025550D02*
X12805582Y-29025550D01*
X12805582Y-29025550D02*
X12824630Y-29035074D01*
X12824630Y-29035074D02*
X12834153Y-29044598D01*
X12834153Y-29044598D02*
X12843677Y-29063646D01*
X12843677Y-29063646D02*
X12843677Y-29120788D01*
X12843677Y-29120788D02*
X12834153Y-29139836D01*
X12834153Y-29139836D02*
X12824630Y-29149360D01*
X12824630Y-29149360D02*
X12805582Y-29158884D01*
X12805582Y-29158884D02*
X12777010Y-29158884D01*
X12957963Y-29158884D02*
X12938915Y-29149360D01*
X12938915Y-29149360D02*
X12929391Y-29130312D01*
X12929391Y-29130312D02*
X12929391Y-28958884D01*
X13110344Y-29149360D02*
X13091296Y-29158884D01*
X13091296Y-29158884D02*
X13053201Y-29158884D01*
X13053201Y-29158884D02*
X13034153Y-29149360D01*
X13034153Y-29149360D02*
X13024630Y-29130312D01*
X13024630Y-29130312D02*
X13024630Y-29054122D01*
X13024630Y-29054122D02*
X13034153Y-29035074D01*
X13034153Y-29035074D02*
X13053201Y-29025550D01*
X13053201Y-29025550D02*
X13091296Y-29025550D01*
X13091296Y-29025550D02*
X13110344Y-29035074D01*
X13110344Y-29035074D02*
X13119868Y-29054122D01*
X13119868Y-29054122D02*
X13119868Y-29073169D01*
X13119868Y-29073169D02*
X13024630Y-29092217D01*
X13196058Y-29149360D02*
X13215106Y-29158884D01*
X13215106Y-29158884D02*
X13253201Y-29158884D01*
X13253201Y-29158884D02*
X13272249Y-29149360D01*
X13272249Y-29149360D02*
X13281772Y-29130312D01*
X13281772Y-29130312D02*
X13281772Y-29120788D01*
X13281772Y-29120788D02*
X13272249Y-29101741D01*
X13272249Y-29101741D02*
X13253201Y-29092217D01*
X13253201Y-29092217D02*
X13224630Y-29092217D01*
X13224630Y-29092217D02*
X13205582Y-29082693D01*
X13205582Y-29082693D02*
X13196058Y-29063646D01*
X13196058Y-29063646D02*
X13196058Y-29054122D01*
X13196058Y-29054122D02*
X13205582Y-29035074D01*
X13205582Y-29035074D02*
X13224630Y-29025550D01*
X13224630Y-29025550D02*
X13253201Y-29025550D01*
X13253201Y-29025550D02*
X13272249Y-29035074D01*
X13348439Y-29235074D02*
X13357963Y-29225550D01*
X13357963Y-29225550D02*
X13377011Y-29196979D01*
X13377011Y-29196979D02*
X13386534Y-29177931D01*
X13386534Y-29177931D02*
X13396058Y-29149360D01*
X13396058Y-29149360D02*
X13405582Y-29101741D01*
X13405582Y-29101741D02*
X13405582Y-29063646D01*
X13405582Y-29063646D02*
X13396058Y-29016027D01*
X13396058Y-29016027D02*
X13386534Y-28987455D01*
X13386534Y-28987455D02*
X13377011Y-28968408D01*
X13377011Y-28968408D02*
X13357963Y-28939836D01*
X13357963Y-28939836D02*
X13348439Y-28930312D01*
D13*
X8302900Y-29254900D02*
X8302900Y-29414900D01*
X8222900Y-29334900D02*
X8382900Y-29334900D01*
D11*
X8748439Y-29426384D02*
X8634153Y-29426384D01*
X8691296Y-29426384D02*
X8691296Y-29226384D01*
X8691296Y-29226384D02*
X8672248Y-29254955D01*
X8672248Y-29254955D02*
X8653201Y-29274003D01*
X8653201Y-29274003D02*
X8634153Y-29283527D01*
X8834153Y-29407336D02*
X8843677Y-29416860D01*
X8843677Y-29416860D02*
X8834153Y-29426384D01*
X8834153Y-29426384D02*
X8824629Y-29416860D01*
X8824629Y-29416860D02*
X8834153Y-29407336D01*
X8834153Y-29407336D02*
X8834153Y-29426384D01*
X9015105Y-29226384D02*
X8977010Y-29226384D01*
X8977010Y-29226384D02*
X8957963Y-29235908D01*
X8957963Y-29235908D02*
X8948439Y-29245431D01*
X8948439Y-29245431D02*
X8929391Y-29274003D01*
X8929391Y-29274003D02*
X8919867Y-29312098D01*
X8919867Y-29312098D02*
X8919867Y-29388288D01*
X8919867Y-29388288D02*
X8929391Y-29407336D01*
X8929391Y-29407336D02*
X8938915Y-29416860D01*
X8938915Y-29416860D02*
X8957963Y-29426384D01*
X8957963Y-29426384D02*
X8996058Y-29426384D01*
X8996058Y-29426384D02*
X9015105Y-29416860D01*
X9015105Y-29416860D02*
X9024629Y-29407336D01*
X9024629Y-29407336D02*
X9034153Y-29388288D01*
X9034153Y-29388288D02*
X9034153Y-29340669D01*
X9034153Y-29340669D02*
X9024629Y-29321622D01*
X9024629Y-29321622D02*
X9015105Y-29312098D01*
X9015105Y-29312098D02*
X8996058Y-29302574D01*
X8996058Y-29302574D02*
X8957963Y-29302574D01*
X8957963Y-29302574D02*
X8938915Y-29312098D01*
X8938915Y-29312098D02*
X8929391Y-29321622D01*
X8929391Y-29321622D02*
X8919867Y-29340669D01*
X9157963Y-29226384D02*
X9177010Y-29226384D01*
X9177010Y-29226384D02*
X9196058Y-29235908D01*
X9196058Y-29235908D02*
X9205582Y-29245431D01*
X9205582Y-29245431D02*
X9215105Y-29264479D01*
X9215105Y-29264479D02*
X9224629Y-29302574D01*
X9224629Y-29302574D02*
X9224629Y-29350193D01*
X9224629Y-29350193D02*
X9215105Y-29388288D01*
X9215105Y-29388288D02*
X9205582Y-29407336D01*
X9205582Y-29407336D02*
X9196058Y-29416860D01*
X9196058Y-29416860D02*
X9177010Y-29426384D01*
X9177010Y-29426384D02*
X9157963Y-29426384D01*
X9157963Y-29426384D02*
X9138915Y-29416860D01*
X9138915Y-29416860D02*
X9129391Y-29407336D01*
X9129391Y-29407336D02*
X9119867Y-29388288D01*
X9119867Y-29388288D02*
X9110344Y-29350193D01*
X9110344Y-29350193D02*
X9110344Y-29302574D01*
X9110344Y-29302574D02*
X9119867Y-29264479D01*
X9119867Y-29264479D02*
X9129391Y-29245431D01*
X9129391Y-29245431D02*
X9138915Y-29235908D01*
X9138915Y-29235908D02*
X9157963Y-29226384D01*
X9348439Y-29226384D02*
X9367486Y-29226384D01*
X9367486Y-29226384D02*
X9386534Y-29235908D01*
X9386534Y-29235908D02*
X9396058Y-29245431D01*
X9396058Y-29245431D02*
X9405582Y-29264479D01*
X9405582Y-29264479D02*
X9415105Y-29302574D01*
X9415105Y-29302574D02*
X9415105Y-29350193D01*
X9415105Y-29350193D02*
X9405582Y-29388288D01*
X9405582Y-29388288D02*
X9396058Y-29407336D01*
X9396058Y-29407336D02*
X9386534Y-29416860D01*
X9386534Y-29416860D02*
X9367486Y-29426384D01*
X9367486Y-29426384D02*
X9348439Y-29426384D01*
X9348439Y-29426384D02*
X9329391Y-29416860D01*
X9329391Y-29416860D02*
X9319867Y-29407336D01*
X9319867Y-29407336D02*
X9310344Y-29388288D01*
X9310344Y-29388288D02*
X9300820Y-29350193D01*
X9300820Y-29350193D02*
X9300820Y-29302574D01*
X9300820Y-29302574D02*
X9310344Y-29264479D01*
X9310344Y-29264479D02*
X9319867Y-29245431D01*
X9319867Y-29245431D02*
X9329391Y-29235908D01*
X9329391Y-29235908D02*
X9348439Y-29226384D01*
X9500820Y-29426384D02*
X9500820Y-29293050D01*
X9500820Y-29312098D02*
X9510344Y-29302574D01*
X9510344Y-29302574D02*
X9529391Y-29293050D01*
X9529391Y-29293050D02*
X9557963Y-29293050D01*
X9557963Y-29293050D02*
X9577010Y-29302574D01*
X9577010Y-29302574D02*
X9586534Y-29321622D01*
X9586534Y-29321622D02*
X9586534Y-29426384D01*
X9586534Y-29321622D02*
X9596058Y-29302574D01*
X9596058Y-29302574D02*
X9615105Y-29293050D01*
X9615105Y-29293050D02*
X9643677Y-29293050D01*
X9643677Y-29293050D02*
X9662725Y-29302574D01*
X9662725Y-29302574D02*
X9672248Y-29321622D01*
X9672248Y-29321622D02*
X9672248Y-29426384D01*
X9767486Y-29426384D02*
X9767486Y-29293050D01*
X9767486Y-29312098D02*
X9777010Y-29302574D01*
X9777010Y-29302574D02*
X9796058Y-29293050D01*
X9796058Y-29293050D02*
X9824629Y-29293050D01*
X9824629Y-29293050D02*
X9843677Y-29302574D01*
X9843677Y-29302574D02*
X9853201Y-29321622D01*
X9853201Y-29321622D02*
X9853201Y-29426384D01*
X9853201Y-29321622D02*
X9862725Y-29302574D01*
X9862725Y-29302574D02*
X9881772Y-29293050D01*
X9881772Y-29293050D02*
X9910344Y-29293050D01*
X9910344Y-29293050D02*
X9929391Y-29302574D01*
X9929391Y-29302574D02*
X9938915Y-29321622D01*
X9938915Y-29321622D02*
X9938915Y-29426384D01*
X10329391Y-29216860D02*
X10157963Y-29474003D01*
X10586534Y-29226384D02*
X10605582Y-29226384D01*
X10605582Y-29226384D02*
X10624629Y-29235908D01*
X10624629Y-29235908D02*
X10634153Y-29245431D01*
X10634153Y-29245431D02*
X10643677Y-29264479D01*
X10643677Y-29264479D02*
X10653201Y-29302574D01*
X10653201Y-29302574D02*
X10653201Y-29350193D01*
X10653201Y-29350193D02*
X10643677Y-29388288D01*
X10643677Y-29388288D02*
X10634153Y-29407336D01*
X10634153Y-29407336D02*
X10624629Y-29416860D01*
X10624629Y-29416860D02*
X10605582Y-29426384D01*
X10605582Y-29426384D02*
X10586534Y-29426384D01*
X10586534Y-29426384D02*
X10567487Y-29416860D01*
X10567487Y-29416860D02*
X10557963Y-29407336D01*
X10557963Y-29407336D02*
X10548439Y-29388288D01*
X10548439Y-29388288D02*
X10538915Y-29350193D01*
X10538915Y-29350193D02*
X10538915Y-29302574D01*
X10538915Y-29302574D02*
X10548439Y-29264479D01*
X10548439Y-29264479D02*
X10557963Y-29245431D01*
X10557963Y-29245431D02*
X10567487Y-29235908D01*
X10567487Y-29235908D02*
X10586534Y-29226384D01*
X10738915Y-29407336D02*
X10748439Y-29416860D01*
X10748439Y-29416860D02*
X10738915Y-29426384D01*
X10738915Y-29426384D02*
X10729391Y-29416860D01*
X10729391Y-29416860D02*
X10738915Y-29407336D01*
X10738915Y-29407336D02*
X10738915Y-29426384D01*
X10872248Y-29226384D02*
X10891296Y-29226384D01*
X10891296Y-29226384D02*
X10910344Y-29235908D01*
X10910344Y-29235908D02*
X10919868Y-29245431D01*
X10919868Y-29245431D02*
X10929391Y-29264479D01*
X10929391Y-29264479D02*
X10938915Y-29302574D01*
X10938915Y-29302574D02*
X10938915Y-29350193D01*
X10938915Y-29350193D02*
X10929391Y-29388288D01*
X10929391Y-29388288D02*
X10919868Y-29407336D01*
X10919868Y-29407336D02*
X10910344Y-29416860D01*
X10910344Y-29416860D02*
X10891296Y-29426384D01*
X10891296Y-29426384D02*
X10872248Y-29426384D01*
X10872248Y-29426384D02*
X10853201Y-29416860D01*
X10853201Y-29416860D02*
X10843677Y-29407336D01*
X10843677Y-29407336D02*
X10834153Y-29388288D01*
X10834153Y-29388288D02*
X10824629Y-29350193D01*
X10824629Y-29350193D02*
X10824629Y-29302574D01*
X10824629Y-29302574D02*
X10834153Y-29264479D01*
X10834153Y-29264479D02*
X10843677Y-29245431D01*
X10843677Y-29245431D02*
X10853201Y-29235908D01*
X10853201Y-29235908D02*
X10872248Y-29226384D01*
X11110344Y-29226384D02*
X11072248Y-29226384D01*
X11072248Y-29226384D02*
X11053201Y-29235908D01*
X11053201Y-29235908D02*
X11043677Y-29245431D01*
X11043677Y-29245431D02*
X11024629Y-29274003D01*
X11024629Y-29274003D02*
X11015106Y-29312098D01*
X11015106Y-29312098D02*
X11015106Y-29388288D01*
X11015106Y-29388288D02*
X11024629Y-29407336D01*
X11024629Y-29407336D02*
X11034153Y-29416860D01*
X11034153Y-29416860D02*
X11053201Y-29426384D01*
X11053201Y-29426384D02*
X11091296Y-29426384D01*
X11091296Y-29426384D02*
X11110344Y-29416860D01*
X11110344Y-29416860D02*
X11119868Y-29407336D01*
X11119868Y-29407336D02*
X11129391Y-29388288D01*
X11129391Y-29388288D02*
X11129391Y-29340669D01*
X11129391Y-29340669D02*
X11119868Y-29321622D01*
X11119868Y-29321622D02*
X11110344Y-29312098D01*
X11110344Y-29312098D02*
X11091296Y-29302574D01*
X11091296Y-29302574D02*
X11053201Y-29302574D01*
X11053201Y-29302574D02*
X11034153Y-29312098D01*
X11034153Y-29312098D02*
X11024629Y-29321622D01*
X11024629Y-29321622D02*
X11015106Y-29340669D01*
X11196058Y-29226384D02*
X11319867Y-29226384D01*
X11319867Y-29226384D02*
X11253201Y-29302574D01*
X11253201Y-29302574D02*
X11281772Y-29302574D01*
X11281772Y-29302574D02*
X11300820Y-29312098D01*
X11300820Y-29312098D02*
X11310344Y-29321622D01*
X11310344Y-29321622D02*
X11319867Y-29340669D01*
X11319867Y-29340669D02*
X11319867Y-29388288D01*
X11319867Y-29388288D02*
X11310344Y-29407336D01*
X11310344Y-29407336D02*
X11300820Y-29416860D01*
X11300820Y-29416860D02*
X11281772Y-29426384D01*
X11281772Y-29426384D02*
X11224629Y-29426384D01*
X11224629Y-29426384D02*
X11205582Y-29416860D01*
X11205582Y-29416860D02*
X11196058Y-29407336D01*
X11443677Y-29226384D02*
X11462725Y-29226384D01*
X11462725Y-29226384D02*
X11481772Y-29235908D01*
X11481772Y-29235908D02*
X11491296Y-29245431D01*
X11491296Y-29245431D02*
X11500820Y-29264479D01*
X11500820Y-29264479D02*
X11510344Y-29302574D01*
X11510344Y-29302574D02*
X11510344Y-29350193D01*
X11510344Y-29350193D02*
X11500820Y-29388288D01*
X11500820Y-29388288D02*
X11491296Y-29407336D01*
X11491296Y-29407336D02*
X11481772Y-29416860D01*
X11481772Y-29416860D02*
X11462725Y-29426384D01*
X11462725Y-29426384D02*
X11443677Y-29426384D01*
X11443677Y-29426384D02*
X11424629Y-29416860D01*
X11424629Y-29416860D02*
X11415106Y-29407336D01*
X11415106Y-29407336D02*
X11405582Y-29388288D01*
X11405582Y-29388288D02*
X11396058Y-29350193D01*
X11396058Y-29350193D02*
X11396058Y-29302574D01*
X11396058Y-29302574D02*
X11405582Y-29264479D01*
X11405582Y-29264479D02*
X11415106Y-29245431D01*
X11415106Y-29245431D02*
X11424629Y-29235908D01*
X11424629Y-29235908D02*
X11443677Y-29226384D01*
X11586534Y-29226384D02*
X11586534Y-29264479D01*
X11662725Y-29226384D02*
X11662725Y-29264479D01*
X11957963Y-29502574D02*
X11948439Y-29493050D01*
X11948439Y-29493050D02*
X11929391Y-29464479D01*
X11929391Y-29464479D02*
X11919868Y-29445431D01*
X11919868Y-29445431D02*
X11910344Y-29416860D01*
X11910344Y-29416860D02*
X11900820Y-29369241D01*
X11900820Y-29369241D02*
X11900820Y-29331146D01*
X11900820Y-29331146D02*
X11910344Y-29283527D01*
X11910344Y-29283527D02*
X11919868Y-29254955D01*
X11919868Y-29254955D02*
X11929391Y-29235908D01*
X11929391Y-29235908D02*
X11948439Y-29207336D01*
X11948439Y-29207336D02*
X11957963Y-29197812D01*
X12024629Y-29245431D02*
X12034153Y-29235908D01*
X12034153Y-29235908D02*
X12053201Y-29226384D01*
X12053201Y-29226384D02*
X12100820Y-29226384D01*
X12100820Y-29226384D02*
X12119868Y-29235908D01*
X12119868Y-29235908D02*
X12129391Y-29245431D01*
X12129391Y-29245431D02*
X12138915Y-29264479D01*
X12138915Y-29264479D02*
X12138915Y-29283527D01*
X12138915Y-29283527D02*
X12129391Y-29312098D01*
X12129391Y-29312098D02*
X12015106Y-29426384D01*
X12015106Y-29426384D02*
X12138915Y-29426384D01*
X12377010Y-29426384D02*
X12377010Y-29226384D01*
X12462725Y-29426384D02*
X12462725Y-29321622D01*
X12462725Y-29321622D02*
X12453201Y-29302574D01*
X12453201Y-29302574D02*
X12434153Y-29293050D01*
X12434153Y-29293050D02*
X12405582Y-29293050D01*
X12405582Y-29293050D02*
X12386534Y-29302574D01*
X12386534Y-29302574D02*
X12377010Y-29312098D01*
X12586534Y-29426384D02*
X12567487Y-29416860D01*
X12567487Y-29416860D02*
X12557963Y-29407336D01*
X12557963Y-29407336D02*
X12548439Y-29388288D01*
X12548439Y-29388288D02*
X12548439Y-29331146D01*
X12548439Y-29331146D02*
X12557963Y-29312098D01*
X12557963Y-29312098D02*
X12567487Y-29302574D01*
X12567487Y-29302574D02*
X12586534Y-29293050D01*
X12586534Y-29293050D02*
X12615106Y-29293050D01*
X12615106Y-29293050D02*
X12634153Y-29302574D01*
X12634153Y-29302574D02*
X12643677Y-29312098D01*
X12643677Y-29312098D02*
X12653201Y-29331146D01*
X12653201Y-29331146D02*
X12653201Y-29388288D01*
X12653201Y-29388288D02*
X12643677Y-29407336D01*
X12643677Y-29407336D02*
X12634153Y-29416860D01*
X12634153Y-29416860D02*
X12615106Y-29426384D01*
X12615106Y-29426384D02*
X12586534Y-29426384D01*
X12767487Y-29426384D02*
X12748439Y-29416860D01*
X12748439Y-29416860D02*
X12738915Y-29397812D01*
X12738915Y-29397812D02*
X12738915Y-29226384D01*
X12919868Y-29416860D02*
X12900820Y-29426384D01*
X12900820Y-29426384D02*
X12862725Y-29426384D01*
X12862725Y-29426384D02*
X12843677Y-29416860D01*
X12843677Y-29416860D02*
X12834153Y-29397812D01*
X12834153Y-29397812D02*
X12834153Y-29321622D01*
X12834153Y-29321622D02*
X12843677Y-29302574D01*
X12843677Y-29302574D02*
X12862725Y-29293050D01*
X12862725Y-29293050D02*
X12900820Y-29293050D01*
X12900820Y-29293050D02*
X12919868Y-29302574D01*
X12919868Y-29302574D02*
X12929391Y-29321622D01*
X12929391Y-29321622D02*
X12929391Y-29340669D01*
X12929391Y-29340669D02*
X12834153Y-29359717D01*
X13005582Y-29416860D02*
X13024630Y-29426384D01*
X13024630Y-29426384D02*
X13062725Y-29426384D01*
X13062725Y-29426384D02*
X13081772Y-29416860D01*
X13081772Y-29416860D02*
X13091296Y-29397812D01*
X13091296Y-29397812D02*
X13091296Y-29388288D01*
X13091296Y-29388288D02*
X13081772Y-29369241D01*
X13081772Y-29369241D02*
X13062725Y-29359717D01*
X13062725Y-29359717D02*
X13034153Y-29359717D01*
X13034153Y-29359717D02*
X13015106Y-29350193D01*
X13015106Y-29350193D02*
X13005582Y-29331146D01*
X13005582Y-29331146D02*
X13005582Y-29321622D01*
X13005582Y-29321622D02*
X13015106Y-29302574D01*
X13015106Y-29302574D02*
X13034153Y-29293050D01*
X13034153Y-29293050D02*
X13062725Y-29293050D01*
X13062725Y-29293050D02*
X13081772Y-29302574D01*
X13157963Y-29502574D02*
X13167487Y-29493050D01*
X13167487Y-29493050D02*
X13186534Y-29464479D01*
X13186534Y-29464479D02*
X13196058Y-29445431D01*
X13196058Y-29445431D02*
X13205582Y-29416860D01*
X13205582Y-29416860D02*
X13215106Y-29369241D01*
X13215106Y-29369241D02*
X13215106Y-29331146D01*
X13215106Y-29331146D02*
X13205582Y-29283527D01*
X13205582Y-29283527D02*
X13196058Y-29254955D01*
X13196058Y-29254955D02*
X13186534Y-29235908D01*
X13186534Y-29235908D02*
X13167487Y-29207336D01*
X13167487Y-29207336D02*
X13157963Y-29197812D01*
D14*
X8356540Y-29678540D02*
X8356540Y-29551260D01*
X8229260Y-29551260D01*
X8229260Y-29678540D01*
X8356540Y-29678540D01*
D11*
X8748439Y-29706384D02*
X8634153Y-29706384D01*
X8691296Y-29706384D02*
X8691296Y-29506384D01*
X8691296Y-29506384D02*
X8672248Y-29534955D01*
X8672248Y-29534955D02*
X8653201Y-29554003D01*
X8653201Y-29554003D02*
X8634153Y-29563527D01*
X8834153Y-29687336D02*
X8843677Y-29696860D01*
X8843677Y-29696860D02*
X8834153Y-29706384D01*
X8834153Y-29706384D02*
X8824629Y-29696860D01*
X8824629Y-29696860D02*
X8834153Y-29687336D01*
X8834153Y-29687336D02*
X8834153Y-29706384D01*
X8957963Y-29592098D02*
X8938915Y-29582574D01*
X8938915Y-29582574D02*
X8929391Y-29573050D01*
X8929391Y-29573050D02*
X8919867Y-29554003D01*
X8919867Y-29554003D02*
X8919867Y-29544479D01*
X8919867Y-29544479D02*
X8929391Y-29525431D01*
X8929391Y-29525431D02*
X8938915Y-29515908D01*
X8938915Y-29515908D02*
X8957963Y-29506384D01*
X8957963Y-29506384D02*
X8996058Y-29506384D01*
X8996058Y-29506384D02*
X9015105Y-29515908D01*
X9015105Y-29515908D02*
X9024629Y-29525431D01*
X9024629Y-29525431D02*
X9034153Y-29544479D01*
X9034153Y-29544479D02*
X9034153Y-29554003D01*
X9034153Y-29554003D02*
X9024629Y-29573050D01*
X9024629Y-29573050D02*
X9015105Y-29582574D01*
X9015105Y-29582574D02*
X8996058Y-29592098D01*
X8996058Y-29592098D02*
X8957963Y-29592098D01*
X8957963Y-29592098D02*
X8938915Y-29601622D01*
X8938915Y-29601622D02*
X8929391Y-29611146D01*
X8929391Y-29611146D02*
X8919867Y-29630193D01*
X8919867Y-29630193D02*
X8919867Y-29668288D01*
X8919867Y-29668288D02*
X8929391Y-29687336D01*
X8929391Y-29687336D02*
X8938915Y-29696860D01*
X8938915Y-29696860D02*
X8957963Y-29706384D01*
X8957963Y-29706384D02*
X8996058Y-29706384D01*
X8996058Y-29706384D02*
X9015105Y-29696860D01*
X9015105Y-29696860D02*
X9024629Y-29687336D01*
X9024629Y-29687336D02*
X9034153Y-29668288D01*
X9034153Y-29668288D02*
X9034153Y-29630193D01*
X9034153Y-29630193D02*
X9024629Y-29611146D01*
X9024629Y-29611146D02*
X9015105Y-29601622D01*
X9015105Y-29601622D02*
X8996058Y-29592098D01*
X9157963Y-29506384D02*
X9177010Y-29506384D01*
X9177010Y-29506384D02*
X9196058Y-29515908D01*
X9196058Y-29515908D02*
X9205582Y-29525431D01*
X9205582Y-29525431D02*
X9215105Y-29544479D01*
X9215105Y-29544479D02*
X9224629Y-29582574D01*
X9224629Y-29582574D02*
X9224629Y-29630193D01*
X9224629Y-29630193D02*
X9215105Y-29668288D01*
X9215105Y-29668288D02*
X9205582Y-29687336D01*
X9205582Y-29687336D02*
X9196058Y-29696860D01*
X9196058Y-29696860D02*
X9177010Y-29706384D01*
X9177010Y-29706384D02*
X9157963Y-29706384D01*
X9157963Y-29706384D02*
X9138915Y-29696860D01*
X9138915Y-29696860D02*
X9129391Y-29687336D01*
X9129391Y-29687336D02*
X9119867Y-29668288D01*
X9119867Y-29668288D02*
X9110344Y-29630193D01*
X9110344Y-29630193D02*
X9110344Y-29582574D01*
X9110344Y-29582574D02*
X9119867Y-29544479D01*
X9119867Y-29544479D02*
X9129391Y-29525431D01*
X9129391Y-29525431D02*
X9138915Y-29515908D01*
X9138915Y-29515908D02*
X9157963Y-29506384D01*
X9348439Y-29506384D02*
X9367486Y-29506384D01*
X9367486Y-29506384D02*
X9386534Y-29515908D01*
X9386534Y-29515908D02*
X9396058Y-29525431D01*
X9396058Y-29525431D02*
X9405582Y-29544479D01*
X9405582Y-29544479D02*
X9415105Y-29582574D01*
X9415105Y-29582574D02*
X9415105Y-29630193D01*
X9415105Y-29630193D02*
X9405582Y-29668288D01*
X9405582Y-29668288D02*
X9396058Y-29687336D01*
X9396058Y-29687336D02*
X9386534Y-29696860D01*
X9386534Y-29696860D02*
X9367486Y-29706384D01*
X9367486Y-29706384D02*
X9348439Y-29706384D01*
X9348439Y-29706384D02*
X9329391Y-29696860D01*
X9329391Y-29696860D02*
X9319867Y-29687336D01*
X9319867Y-29687336D02*
X9310344Y-29668288D01*
X9310344Y-29668288D02*
X9300820Y-29630193D01*
X9300820Y-29630193D02*
X9300820Y-29582574D01*
X9300820Y-29582574D02*
X9310344Y-29544479D01*
X9310344Y-29544479D02*
X9319867Y-29525431D01*
X9319867Y-29525431D02*
X9329391Y-29515908D01*
X9329391Y-29515908D02*
X9348439Y-29506384D01*
X9500820Y-29706384D02*
X9500820Y-29573050D01*
X9500820Y-29592098D02*
X9510344Y-29582574D01*
X9510344Y-29582574D02*
X9529391Y-29573050D01*
X9529391Y-29573050D02*
X9557963Y-29573050D01*
X9557963Y-29573050D02*
X9577010Y-29582574D01*
X9577010Y-29582574D02*
X9586534Y-29601622D01*
X9586534Y-29601622D02*
X9586534Y-29706384D01*
X9586534Y-29601622D02*
X9596058Y-29582574D01*
X9596058Y-29582574D02*
X9615105Y-29573050D01*
X9615105Y-29573050D02*
X9643677Y-29573050D01*
X9643677Y-29573050D02*
X9662725Y-29582574D01*
X9662725Y-29582574D02*
X9672248Y-29601622D01*
X9672248Y-29601622D02*
X9672248Y-29706384D01*
X9767486Y-29706384D02*
X9767486Y-29573050D01*
X9767486Y-29592098D02*
X9777010Y-29582574D01*
X9777010Y-29582574D02*
X9796058Y-29573050D01*
X9796058Y-29573050D02*
X9824629Y-29573050D01*
X9824629Y-29573050D02*
X9843677Y-29582574D01*
X9843677Y-29582574D02*
X9853201Y-29601622D01*
X9853201Y-29601622D02*
X9853201Y-29706384D01*
X9853201Y-29601622D02*
X9862725Y-29582574D01*
X9862725Y-29582574D02*
X9881772Y-29573050D01*
X9881772Y-29573050D02*
X9910344Y-29573050D01*
X9910344Y-29573050D02*
X9929391Y-29582574D01*
X9929391Y-29582574D02*
X9938915Y-29601622D01*
X9938915Y-29601622D02*
X9938915Y-29706384D01*
X10329391Y-29496860D02*
X10157963Y-29754003D01*
X10586534Y-29506384D02*
X10605582Y-29506384D01*
X10605582Y-29506384D02*
X10624629Y-29515908D01*
X10624629Y-29515908D02*
X10634153Y-29525431D01*
X10634153Y-29525431D02*
X10643677Y-29544479D01*
X10643677Y-29544479D02*
X10653201Y-29582574D01*
X10653201Y-29582574D02*
X10653201Y-29630193D01*
X10653201Y-29630193D02*
X10643677Y-29668288D01*
X10643677Y-29668288D02*
X10634153Y-29687336D01*
X10634153Y-29687336D02*
X10624629Y-29696860D01*
X10624629Y-29696860D02*
X10605582Y-29706384D01*
X10605582Y-29706384D02*
X10586534Y-29706384D01*
X10586534Y-29706384D02*
X10567487Y-29696860D01*
X10567487Y-29696860D02*
X10557963Y-29687336D01*
X10557963Y-29687336D02*
X10548439Y-29668288D01*
X10548439Y-29668288D02*
X10538915Y-29630193D01*
X10538915Y-29630193D02*
X10538915Y-29582574D01*
X10538915Y-29582574D02*
X10548439Y-29544479D01*
X10548439Y-29544479D02*
X10557963Y-29525431D01*
X10557963Y-29525431D02*
X10567487Y-29515908D01*
X10567487Y-29515908D02*
X10586534Y-29506384D01*
X10738915Y-29687336D02*
X10748439Y-29696860D01*
X10748439Y-29696860D02*
X10738915Y-29706384D01*
X10738915Y-29706384D02*
X10729391Y-29696860D01*
X10729391Y-29696860D02*
X10738915Y-29687336D01*
X10738915Y-29687336D02*
X10738915Y-29706384D01*
X10872248Y-29506384D02*
X10891296Y-29506384D01*
X10891296Y-29506384D02*
X10910344Y-29515908D01*
X10910344Y-29515908D02*
X10919868Y-29525431D01*
X10919868Y-29525431D02*
X10929391Y-29544479D01*
X10929391Y-29544479D02*
X10938915Y-29582574D01*
X10938915Y-29582574D02*
X10938915Y-29630193D01*
X10938915Y-29630193D02*
X10929391Y-29668288D01*
X10929391Y-29668288D02*
X10919868Y-29687336D01*
X10919868Y-29687336D02*
X10910344Y-29696860D01*
X10910344Y-29696860D02*
X10891296Y-29706384D01*
X10891296Y-29706384D02*
X10872248Y-29706384D01*
X10872248Y-29706384D02*
X10853201Y-29696860D01*
X10853201Y-29696860D02*
X10843677Y-29687336D01*
X10843677Y-29687336D02*
X10834153Y-29668288D01*
X10834153Y-29668288D02*
X10824629Y-29630193D01*
X10824629Y-29630193D02*
X10824629Y-29582574D01*
X10824629Y-29582574D02*
X10834153Y-29544479D01*
X10834153Y-29544479D02*
X10843677Y-29525431D01*
X10843677Y-29525431D02*
X10853201Y-29515908D01*
X10853201Y-29515908D02*
X10872248Y-29506384D01*
X11005582Y-29506384D02*
X11138915Y-29506384D01*
X11138915Y-29506384D02*
X11053201Y-29706384D01*
X11253201Y-29506384D02*
X11272248Y-29506384D01*
X11272248Y-29506384D02*
X11291296Y-29515908D01*
X11291296Y-29515908D02*
X11300820Y-29525431D01*
X11300820Y-29525431D02*
X11310344Y-29544479D01*
X11310344Y-29544479D02*
X11319867Y-29582574D01*
X11319867Y-29582574D02*
X11319867Y-29630193D01*
X11319867Y-29630193D02*
X11310344Y-29668288D01*
X11310344Y-29668288D02*
X11300820Y-29687336D01*
X11300820Y-29687336D02*
X11291296Y-29696860D01*
X11291296Y-29696860D02*
X11272248Y-29706384D01*
X11272248Y-29706384D02*
X11253201Y-29706384D01*
X11253201Y-29706384D02*
X11234153Y-29696860D01*
X11234153Y-29696860D02*
X11224629Y-29687336D01*
X11224629Y-29687336D02*
X11215106Y-29668288D01*
X11215106Y-29668288D02*
X11205582Y-29630193D01*
X11205582Y-29630193D02*
X11205582Y-29582574D01*
X11205582Y-29582574D02*
X11215106Y-29544479D01*
X11215106Y-29544479D02*
X11224629Y-29525431D01*
X11224629Y-29525431D02*
X11234153Y-29515908D01*
X11234153Y-29515908D02*
X11253201Y-29506384D01*
X11415106Y-29706384D02*
X11453201Y-29706384D01*
X11453201Y-29706384D02*
X11472248Y-29696860D01*
X11472248Y-29696860D02*
X11481772Y-29687336D01*
X11481772Y-29687336D02*
X11500820Y-29658765D01*
X11500820Y-29658765D02*
X11510344Y-29620669D01*
X11510344Y-29620669D02*
X11510344Y-29544479D01*
X11510344Y-29544479D02*
X11500820Y-29525431D01*
X11500820Y-29525431D02*
X11491296Y-29515908D01*
X11491296Y-29515908D02*
X11472248Y-29506384D01*
X11472248Y-29506384D02*
X11434153Y-29506384D01*
X11434153Y-29506384D02*
X11415106Y-29515908D01*
X11415106Y-29515908D02*
X11405582Y-29525431D01*
X11405582Y-29525431D02*
X11396058Y-29544479D01*
X11396058Y-29544479D02*
X11396058Y-29592098D01*
X11396058Y-29592098D02*
X11405582Y-29611146D01*
X11405582Y-29611146D02*
X11415106Y-29620669D01*
X11415106Y-29620669D02*
X11434153Y-29630193D01*
X11434153Y-29630193D02*
X11472248Y-29630193D01*
X11472248Y-29630193D02*
X11491296Y-29620669D01*
X11491296Y-29620669D02*
X11500820Y-29611146D01*
X11500820Y-29611146D02*
X11510344Y-29592098D01*
X11586534Y-29506384D02*
X11586534Y-29544479D01*
X11662725Y-29506384D02*
X11662725Y-29544479D01*
X11957963Y-29782574D02*
X11948439Y-29773050D01*
X11948439Y-29773050D02*
X11929391Y-29744479D01*
X11929391Y-29744479D02*
X11919868Y-29725431D01*
X11919868Y-29725431D02*
X11910344Y-29696860D01*
X11910344Y-29696860D02*
X11900820Y-29649241D01*
X11900820Y-29649241D02*
X11900820Y-29611146D01*
X11900820Y-29611146D02*
X11910344Y-29563527D01*
X11910344Y-29563527D02*
X11919868Y-29534955D01*
X11919868Y-29534955D02*
X11929391Y-29515908D01*
X11929391Y-29515908D02*
X11948439Y-29487336D01*
X11948439Y-29487336D02*
X11957963Y-29477812D01*
X12138915Y-29706384D02*
X12024629Y-29706384D01*
X12081772Y-29706384D02*
X12081772Y-29506384D01*
X12081772Y-29506384D02*
X12062725Y-29534955D01*
X12062725Y-29534955D02*
X12043677Y-29554003D01*
X12043677Y-29554003D02*
X12024629Y-29563527D01*
X12253201Y-29592098D02*
X12234153Y-29582574D01*
X12234153Y-29582574D02*
X12224629Y-29573050D01*
X12224629Y-29573050D02*
X12215106Y-29554003D01*
X12215106Y-29554003D02*
X12215106Y-29544479D01*
X12215106Y-29544479D02*
X12224629Y-29525431D01*
X12224629Y-29525431D02*
X12234153Y-29515908D01*
X12234153Y-29515908D02*
X12253201Y-29506384D01*
X12253201Y-29506384D02*
X12291296Y-29506384D01*
X12291296Y-29506384D02*
X12310344Y-29515908D01*
X12310344Y-29515908D02*
X12319868Y-29525431D01*
X12319868Y-29525431D02*
X12329391Y-29544479D01*
X12329391Y-29544479D02*
X12329391Y-29554003D01*
X12329391Y-29554003D02*
X12319868Y-29573050D01*
X12319868Y-29573050D02*
X12310344Y-29582574D01*
X12310344Y-29582574D02*
X12291296Y-29592098D01*
X12291296Y-29592098D02*
X12253201Y-29592098D01*
X12253201Y-29592098D02*
X12234153Y-29601622D01*
X12234153Y-29601622D02*
X12224629Y-29611146D01*
X12224629Y-29611146D02*
X12215106Y-29630193D01*
X12215106Y-29630193D02*
X12215106Y-29668288D01*
X12215106Y-29668288D02*
X12224629Y-29687336D01*
X12224629Y-29687336D02*
X12234153Y-29696860D01*
X12234153Y-29696860D02*
X12253201Y-29706384D01*
X12253201Y-29706384D02*
X12291296Y-29706384D01*
X12291296Y-29706384D02*
X12310344Y-29696860D01*
X12310344Y-29696860D02*
X12319868Y-29687336D01*
X12319868Y-29687336D02*
X12329391Y-29668288D01*
X12329391Y-29668288D02*
X12329391Y-29630193D01*
X12329391Y-29630193D02*
X12319868Y-29611146D01*
X12319868Y-29611146D02*
X12310344Y-29601622D01*
X12310344Y-29601622D02*
X12291296Y-29592098D01*
X12567487Y-29706384D02*
X12567487Y-29506384D01*
X12653201Y-29706384D02*
X12653201Y-29601622D01*
X12653201Y-29601622D02*
X12643677Y-29582574D01*
X12643677Y-29582574D02*
X12624630Y-29573050D01*
X12624630Y-29573050D02*
X12596058Y-29573050D01*
X12596058Y-29573050D02*
X12577010Y-29582574D01*
X12577010Y-29582574D02*
X12567487Y-29592098D01*
X12777010Y-29706384D02*
X12757963Y-29696860D01*
X12757963Y-29696860D02*
X12748439Y-29687336D01*
X12748439Y-29687336D02*
X12738915Y-29668288D01*
X12738915Y-29668288D02*
X12738915Y-29611146D01*
X12738915Y-29611146D02*
X12748439Y-29592098D01*
X12748439Y-29592098D02*
X12757963Y-29582574D01*
X12757963Y-29582574D02*
X12777010Y-29573050D01*
X12777010Y-29573050D02*
X12805582Y-29573050D01*
X12805582Y-29573050D02*
X12824630Y-29582574D01*
X12824630Y-29582574D02*
X12834153Y-29592098D01*
X12834153Y-29592098D02*
X12843677Y-29611146D01*
X12843677Y-29611146D02*
X12843677Y-29668288D01*
X12843677Y-29668288D02*
X12834153Y-29687336D01*
X12834153Y-29687336D02*
X12824630Y-29696860D01*
X12824630Y-29696860D02*
X12805582Y-29706384D01*
X12805582Y-29706384D02*
X12777010Y-29706384D01*
X12957963Y-29706384D02*
X12938915Y-29696860D01*
X12938915Y-29696860D02*
X12929391Y-29677812D01*
X12929391Y-29677812D02*
X12929391Y-29506384D01*
X13110344Y-29696860D02*
X13091296Y-29706384D01*
X13091296Y-29706384D02*
X13053201Y-29706384D01*
X13053201Y-29706384D02*
X13034153Y-29696860D01*
X13034153Y-29696860D02*
X13024630Y-29677812D01*
X13024630Y-29677812D02*
X13024630Y-29601622D01*
X13024630Y-29601622D02*
X13034153Y-29582574D01*
X13034153Y-29582574D02*
X13053201Y-29573050D01*
X13053201Y-29573050D02*
X13091296Y-29573050D01*
X13091296Y-29573050D02*
X13110344Y-29582574D01*
X13110344Y-29582574D02*
X13119868Y-29601622D01*
X13119868Y-29601622D02*
X13119868Y-29620669D01*
X13119868Y-29620669D02*
X13024630Y-29639717D01*
X13196058Y-29696860D02*
X13215106Y-29706384D01*
X13215106Y-29706384D02*
X13253201Y-29706384D01*
X13253201Y-29706384D02*
X13272249Y-29696860D01*
X13272249Y-29696860D02*
X13281772Y-29677812D01*
X13281772Y-29677812D02*
X13281772Y-29668288D01*
X13281772Y-29668288D02*
X13272249Y-29649241D01*
X13272249Y-29649241D02*
X13253201Y-29639717D01*
X13253201Y-29639717D02*
X13224630Y-29639717D01*
X13224630Y-29639717D02*
X13205582Y-29630193D01*
X13205582Y-29630193D02*
X13196058Y-29611146D01*
X13196058Y-29611146D02*
X13196058Y-29601622D01*
X13196058Y-29601622D02*
X13205582Y-29582574D01*
X13205582Y-29582574D02*
X13224630Y-29573050D01*
X13224630Y-29573050D02*
X13253201Y-29573050D01*
X13253201Y-29573050D02*
X13272249Y-29582574D01*
X13348439Y-29782574D02*
X13357963Y-29773050D01*
X13357963Y-29773050D02*
X13377011Y-29744479D01*
X13377011Y-29744479D02*
X13386534Y-29725431D01*
X13386534Y-29725431D02*
X13396058Y-29696860D01*
X13396058Y-29696860D02*
X13405582Y-29649241D01*
X13405582Y-29649241D02*
X13405582Y-29611146D01*
X13405582Y-29611146D02*
X13396058Y-29563527D01*
X13396058Y-29563527D02*
X13386534Y-29534955D01*
X13386534Y-29534955D02*
X13377011Y-29515908D01*
X13377011Y-29515908D02*
X13357963Y-29487336D01*
X13357963Y-29487336D02*
X13348439Y-29477812D01*
X8282900Y-30014900D02*
X8382900Y-29914900D01*
X8282900Y-29814900D01*
X8182900Y-29914900D01*
X8282900Y-30014900D01*
X8738915Y-29806384D02*
X8643677Y-29806384D01*
X8643677Y-29806384D02*
X8634153Y-29901622D01*
X8634153Y-29901622D02*
X8643677Y-29892098D01*
X8643677Y-29892098D02*
X8662724Y-29882574D01*
X8662724Y-29882574D02*
X8710344Y-29882574D01*
X8710344Y-29882574D02*
X8729391Y-29892098D01*
X8729391Y-29892098D02*
X8738915Y-29901622D01*
X8738915Y-29901622D02*
X8748439Y-29920669D01*
X8748439Y-29920669D02*
X8748439Y-29968288D01*
X8748439Y-29968288D02*
X8738915Y-29987336D01*
X8738915Y-29987336D02*
X8729391Y-29996860D01*
X8729391Y-29996860D02*
X8710344Y-30006384D01*
X8710344Y-30006384D02*
X8662724Y-30006384D01*
X8662724Y-30006384D02*
X8643677Y-29996860D01*
X8643677Y-29996860D02*
X8634153Y-29987336D01*
X8834153Y-29987336D02*
X8843677Y-29996860D01*
X8843677Y-29996860D02*
X8834153Y-30006384D01*
X8834153Y-30006384D02*
X8824629Y-29996860D01*
X8824629Y-29996860D02*
X8834153Y-29987336D01*
X8834153Y-29987336D02*
X8834153Y-30006384D01*
X9024629Y-29806384D02*
X8929391Y-29806384D01*
X8929391Y-29806384D02*
X8919867Y-29901622D01*
X8919867Y-29901622D02*
X8929391Y-29892098D01*
X8929391Y-29892098D02*
X8948439Y-29882574D01*
X8948439Y-29882574D02*
X8996058Y-29882574D01*
X8996058Y-29882574D02*
X9015105Y-29892098D01*
X9015105Y-29892098D02*
X9024629Y-29901622D01*
X9024629Y-29901622D02*
X9034153Y-29920669D01*
X9034153Y-29920669D02*
X9034153Y-29968288D01*
X9034153Y-29968288D02*
X9024629Y-29987336D01*
X9024629Y-29987336D02*
X9015105Y-29996860D01*
X9015105Y-29996860D02*
X8996058Y-30006384D01*
X8996058Y-30006384D02*
X8948439Y-30006384D01*
X8948439Y-30006384D02*
X8929391Y-29996860D01*
X8929391Y-29996860D02*
X8919867Y-29987336D01*
X9157963Y-29806384D02*
X9177010Y-29806384D01*
X9177010Y-29806384D02*
X9196058Y-29815908D01*
X9196058Y-29815908D02*
X9205582Y-29825431D01*
X9205582Y-29825431D02*
X9215105Y-29844479D01*
X9215105Y-29844479D02*
X9224629Y-29882574D01*
X9224629Y-29882574D02*
X9224629Y-29930193D01*
X9224629Y-29930193D02*
X9215105Y-29968288D01*
X9215105Y-29968288D02*
X9205582Y-29987336D01*
X9205582Y-29987336D02*
X9196058Y-29996860D01*
X9196058Y-29996860D02*
X9177010Y-30006384D01*
X9177010Y-30006384D02*
X9157963Y-30006384D01*
X9157963Y-30006384D02*
X9138915Y-29996860D01*
X9138915Y-29996860D02*
X9129391Y-29987336D01*
X9129391Y-29987336D02*
X9119867Y-29968288D01*
X9119867Y-29968288D02*
X9110344Y-29930193D01*
X9110344Y-29930193D02*
X9110344Y-29882574D01*
X9110344Y-29882574D02*
X9119867Y-29844479D01*
X9119867Y-29844479D02*
X9129391Y-29825431D01*
X9129391Y-29825431D02*
X9138915Y-29815908D01*
X9138915Y-29815908D02*
X9157963Y-29806384D01*
X9348439Y-29806384D02*
X9367486Y-29806384D01*
X9367486Y-29806384D02*
X9386534Y-29815908D01*
X9386534Y-29815908D02*
X9396058Y-29825431D01*
X9396058Y-29825431D02*
X9405582Y-29844479D01*
X9405582Y-29844479D02*
X9415105Y-29882574D01*
X9415105Y-29882574D02*
X9415105Y-29930193D01*
X9415105Y-29930193D02*
X9405582Y-29968288D01*
X9405582Y-29968288D02*
X9396058Y-29987336D01*
X9396058Y-29987336D02*
X9386534Y-29996860D01*
X9386534Y-29996860D02*
X9367486Y-30006384D01*
X9367486Y-30006384D02*
X9348439Y-30006384D01*
X9348439Y-30006384D02*
X9329391Y-29996860D01*
X9329391Y-29996860D02*
X9319867Y-29987336D01*
X9319867Y-29987336D02*
X9310344Y-29968288D01*
X9310344Y-29968288D02*
X9300820Y-29930193D01*
X9300820Y-29930193D02*
X9300820Y-29882574D01*
X9300820Y-29882574D02*
X9310344Y-29844479D01*
X9310344Y-29844479D02*
X9319867Y-29825431D01*
X9319867Y-29825431D02*
X9329391Y-29815908D01*
X9329391Y-29815908D02*
X9348439Y-29806384D01*
X9500820Y-30006384D02*
X9500820Y-29873050D01*
X9500820Y-29892098D02*
X9510344Y-29882574D01*
X9510344Y-29882574D02*
X9529391Y-29873050D01*
X9529391Y-29873050D02*
X9557963Y-29873050D01*
X9557963Y-29873050D02*
X9577010Y-29882574D01*
X9577010Y-29882574D02*
X9586534Y-29901622D01*
X9586534Y-29901622D02*
X9586534Y-30006384D01*
X9586534Y-29901622D02*
X9596058Y-29882574D01*
X9596058Y-29882574D02*
X9615105Y-29873050D01*
X9615105Y-29873050D02*
X9643677Y-29873050D01*
X9643677Y-29873050D02*
X9662725Y-29882574D01*
X9662725Y-29882574D02*
X9672248Y-29901622D01*
X9672248Y-29901622D02*
X9672248Y-30006384D01*
X9767486Y-30006384D02*
X9767486Y-29873050D01*
X9767486Y-29892098D02*
X9777010Y-29882574D01*
X9777010Y-29882574D02*
X9796058Y-29873050D01*
X9796058Y-29873050D02*
X9824629Y-29873050D01*
X9824629Y-29873050D02*
X9843677Y-29882574D01*
X9843677Y-29882574D02*
X9853201Y-29901622D01*
X9853201Y-29901622D02*
X9853201Y-30006384D01*
X9853201Y-29901622D02*
X9862725Y-29882574D01*
X9862725Y-29882574D02*
X9881772Y-29873050D01*
X9881772Y-29873050D02*
X9910344Y-29873050D01*
X9910344Y-29873050D02*
X9929391Y-29882574D01*
X9929391Y-29882574D02*
X9938915Y-29901622D01*
X9938915Y-29901622D02*
X9938915Y-30006384D01*
X10329391Y-29796860D02*
X10157963Y-30054003D01*
X10586534Y-29806384D02*
X10605582Y-29806384D01*
X10605582Y-29806384D02*
X10624629Y-29815908D01*
X10624629Y-29815908D02*
X10634153Y-29825431D01*
X10634153Y-29825431D02*
X10643677Y-29844479D01*
X10643677Y-29844479D02*
X10653201Y-29882574D01*
X10653201Y-29882574D02*
X10653201Y-29930193D01*
X10653201Y-29930193D02*
X10643677Y-29968288D01*
X10643677Y-29968288D02*
X10634153Y-29987336D01*
X10634153Y-29987336D02*
X10624629Y-29996860D01*
X10624629Y-29996860D02*
X10605582Y-30006384D01*
X10605582Y-30006384D02*
X10586534Y-30006384D01*
X10586534Y-30006384D02*
X10567487Y-29996860D01*
X10567487Y-29996860D02*
X10557963Y-29987336D01*
X10557963Y-29987336D02*
X10548439Y-29968288D01*
X10548439Y-29968288D02*
X10538915Y-29930193D01*
X10538915Y-29930193D02*
X10538915Y-29882574D01*
X10538915Y-29882574D02*
X10548439Y-29844479D01*
X10548439Y-29844479D02*
X10557963Y-29825431D01*
X10557963Y-29825431D02*
X10567487Y-29815908D01*
X10567487Y-29815908D02*
X10586534Y-29806384D01*
X10738915Y-29987336D02*
X10748439Y-29996860D01*
X10748439Y-29996860D02*
X10738915Y-30006384D01*
X10738915Y-30006384D02*
X10729391Y-29996860D01*
X10729391Y-29996860D02*
X10738915Y-29987336D01*
X10738915Y-29987336D02*
X10738915Y-30006384D01*
X10824629Y-29825431D02*
X10834153Y-29815908D01*
X10834153Y-29815908D02*
X10853201Y-29806384D01*
X10853201Y-29806384D02*
X10900820Y-29806384D01*
X10900820Y-29806384D02*
X10919868Y-29815908D01*
X10919868Y-29815908D02*
X10929391Y-29825431D01*
X10929391Y-29825431D02*
X10938915Y-29844479D01*
X10938915Y-29844479D02*
X10938915Y-29863527D01*
X10938915Y-29863527D02*
X10929391Y-29892098D01*
X10929391Y-29892098D02*
X10815106Y-30006384D01*
X10815106Y-30006384D02*
X10938915Y-30006384D01*
X11129391Y-30006384D02*
X11015106Y-30006384D01*
X11072248Y-30006384D02*
X11072248Y-29806384D01*
X11072248Y-29806384D02*
X11053201Y-29834955D01*
X11053201Y-29834955D02*
X11034153Y-29854003D01*
X11034153Y-29854003D02*
X11015106Y-29863527D01*
X11300820Y-29806384D02*
X11262725Y-29806384D01*
X11262725Y-29806384D02*
X11243677Y-29815908D01*
X11243677Y-29815908D02*
X11234153Y-29825431D01*
X11234153Y-29825431D02*
X11215106Y-29854003D01*
X11215106Y-29854003D02*
X11205582Y-29892098D01*
X11205582Y-29892098D02*
X11205582Y-29968288D01*
X11205582Y-29968288D02*
X11215106Y-29987336D01*
X11215106Y-29987336D02*
X11224629Y-29996860D01*
X11224629Y-29996860D02*
X11243677Y-30006384D01*
X11243677Y-30006384D02*
X11281772Y-30006384D01*
X11281772Y-30006384D02*
X11300820Y-29996860D01*
X11300820Y-29996860D02*
X11310344Y-29987336D01*
X11310344Y-29987336D02*
X11319867Y-29968288D01*
X11319867Y-29968288D02*
X11319867Y-29920669D01*
X11319867Y-29920669D02*
X11310344Y-29901622D01*
X11310344Y-29901622D02*
X11300820Y-29892098D01*
X11300820Y-29892098D02*
X11281772Y-29882574D01*
X11281772Y-29882574D02*
X11243677Y-29882574D01*
X11243677Y-29882574D02*
X11224629Y-29892098D01*
X11224629Y-29892098D02*
X11215106Y-29901622D01*
X11215106Y-29901622D02*
X11205582Y-29920669D01*
X11500820Y-29806384D02*
X11405582Y-29806384D01*
X11405582Y-29806384D02*
X11396058Y-29901622D01*
X11396058Y-29901622D02*
X11405582Y-29892098D01*
X11405582Y-29892098D02*
X11424629Y-29882574D01*
X11424629Y-29882574D02*
X11472248Y-29882574D01*
X11472248Y-29882574D02*
X11491296Y-29892098D01*
X11491296Y-29892098D02*
X11500820Y-29901622D01*
X11500820Y-29901622D02*
X11510344Y-29920669D01*
X11510344Y-29920669D02*
X11510344Y-29968288D01*
X11510344Y-29968288D02*
X11500820Y-29987336D01*
X11500820Y-29987336D02*
X11491296Y-29996860D01*
X11491296Y-29996860D02*
X11472248Y-30006384D01*
X11472248Y-30006384D02*
X11424629Y-30006384D01*
X11424629Y-30006384D02*
X11405582Y-29996860D01*
X11405582Y-29996860D02*
X11396058Y-29987336D01*
X11586534Y-29806384D02*
X11586534Y-29844479D01*
X11662725Y-29806384D02*
X11662725Y-29844479D01*
X11957963Y-30082574D02*
X11948439Y-30073050D01*
X11948439Y-30073050D02*
X11929391Y-30044479D01*
X11929391Y-30044479D02*
X11919868Y-30025431D01*
X11919868Y-30025431D02*
X11910344Y-29996860D01*
X11910344Y-29996860D02*
X11900820Y-29949241D01*
X11900820Y-29949241D02*
X11900820Y-29911146D01*
X11900820Y-29911146D02*
X11910344Y-29863527D01*
X11910344Y-29863527D02*
X11919868Y-29834955D01*
X11919868Y-29834955D02*
X11929391Y-29815908D01*
X11929391Y-29815908D02*
X11948439Y-29787336D01*
X11948439Y-29787336D02*
X11957963Y-29777812D01*
X12024629Y-29825431D02*
X12034153Y-29815908D01*
X12034153Y-29815908D02*
X12053201Y-29806384D01*
X12053201Y-29806384D02*
X12100820Y-29806384D01*
X12100820Y-29806384D02*
X12119868Y-29815908D01*
X12119868Y-29815908D02*
X12129391Y-29825431D01*
X12129391Y-29825431D02*
X12138915Y-29844479D01*
X12138915Y-29844479D02*
X12138915Y-29863527D01*
X12138915Y-29863527D02*
X12129391Y-29892098D01*
X12129391Y-29892098D02*
X12015106Y-30006384D01*
X12015106Y-30006384D02*
X12138915Y-30006384D01*
X12310344Y-29873050D02*
X12310344Y-30006384D01*
X12262725Y-29796860D02*
X12215106Y-29939717D01*
X12215106Y-29939717D02*
X12338915Y-29939717D01*
X12567487Y-30006384D02*
X12567487Y-29806384D01*
X12653201Y-30006384D02*
X12653201Y-29901622D01*
X12653201Y-29901622D02*
X12643677Y-29882574D01*
X12643677Y-29882574D02*
X12624630Y-29873050D01*
X12624630Y-29873050D02*
X12596058Y-29873050D01*
X12596058Y-29873050D02*
X12577010Y-29882574D01*
X12577010Y-29882574D02*
X12567487Y-29892098D01*
X12777010Y-30006384D02*
X12757963Y-29996860D01*
X12757963Y-29996860D02*
X12748439Y-29987336D01*
X12748439Y-29987336D02*
X12738915Y-29968288D01*
X12738915Y-29968288D02*
X12738915Y-29911146D01*
X12738915Y-29911146D02*
X12748439Y-29892098D01*
X12748439Y-29892098D02*
X12757963Y-29882574D01*
X12757963Y-29882574D02*
X12777010Y-29873050D01*
X12777010Y-29873050D02*
X12805582Y-29873050D01*
X12805582Y-29873050D02*
X12824630Y-29882574D01*
X12824630Y-29882574D02*
X12834153Y-29892098D01*
X12834153Y-29892098D02*
X12843677Y-29911146D01*
X12843677Y-29911146D02*
X12843677Y-29968288D01*
X12843677Y-29968288D02*
X12834153Y-29987336D01*
X12834153Y-29987336D02*
X12824630Y-29996860D01*
X12824630Y-29996860D02*
X12805582Y-30006384D01*
X12805582Y-30006384D02*
X12777010Y-30006384D01*
X12957963Y-30006384D02*
X12938915Y-29996860D01*
X12938915Y-29996860D02*
X12929391Y-29977812D01*
X12929391Y-29977812D02*
X12929391Y-29806384D01*
X13110344Y-29996860D02*
X13091296Y-30006384D01*
X13091296Y-30006384D02*
X13053201Y-30006384D01*
X13053201Y-30006384D02*
X13034153Y-29996860D01*
X13034153Y-29996860D02*
X13024630Y-29977812D01*
X13024630Y-29977812D02*
X13024630Y-29901622D01*
X13024630Y-29901622D02*
X13034153Y-29882574D01*
X13034153Y-29882574D02*
X13053201Y-29873050D01*
X13053201Y-29873050D02*
X13091296Y-29873050D01*
X13091296Y-29873050D02*
X13110344Y-29882574D01*
X13110344Y-29882574D02*
X13119868Y-29901622D01*
X13119868Y-29901622D02*
X13119868Y-29920669D01*
X13119868Y-29920669D02*
X13024630Y-29939717D01*
X13196058Y-29996860D02*
X13215106Y-30006384D01*
X13215106Y-30006384D02*
X13253201Y-30006384D01*
X13253201Y-30006384D02*
X13272249Y-29996860D01*
X13272249Y-29996860D02*
X13281772Y-29977812D01*
X13281772Y-29977812D02*
X13281772Y-29968288D01*
X13281772Y-29968288D02*
X13272249Y-29949241D01*
X13272249Y-29949241D02*
X13253201Y-29939717D01*
X13253201Y-29939717D02*
X13224630Y-29939717D01*
X13224630Y-29939717D02*
X13205582Y-29930193D01*
X13205582Y-29930193D02*
X13196058Y-29911146D01*
X13196058Y-29911146D02*
X13196058Y-29901622D01*
X13196058Y-29901622D02*
X13205582Y-29882574D01*
X13205582Y-29882574D02*
X13224630Y-29873050D01*
X13224630Y-29873050D02*
X13253201Y-29873050D01*
X13253201Y-29873050D02*
X13272249Y-29882574D01*
X13348439Y-30082574D02*
X13357963Y-30073050D01*
X13357963Y-30073050D02*
X13377011Y-30044479D01*
X13377011Y-30044479D02*
X13386534Y-30025431D01*
X13386534Y-30025431D02*
X13396058Y-29996860D01*
X13396058Y-29996860D02*
X13405582Y-29949241D01*
X13405582Y-29949241D02*
X13405582Y-29911146D01*
X13405582Y-29911146D02*
X13396058Y-29863527D01*
X13396058Y-29863527D02*
X13386534Y-29834955D01*
X13386534Y-29834955D02*
X13377011Y-29815908D01*
X13377011Y-29815908D02*
X13357963Y-29787336D01*
X13357963Y-29787336D02*
X13348439Y-29777812D01*
M02*
