G04 #@! TF.GenerationSoftware,KiCad,Pcbnew,(6.0.8-1)-1*
G04 #@! TF.CreationDate,2022-12-30T12:11:22-08:00*
G04 #@! TF.ProjectId,URBAN_CELL_BOARD,55524241-4e5f-4434-954c-4c5f424f4152,rev?*
G04 #@! TF.SameCoordinates,Original*
G04 #@! TF.FileFunction,Copper,L2,Bot*
G04 #@! TF.FilePolarity,Positive*
%FSLAX46Y46*%
G04 Gerber Fmt 4.6, Leading zero omitted, Abs format (unit mm)*
G04 Created by KiCad (PCBNEW (6.0.8-1)-1) date 2022-12-30 12:11:22*
%MOMM*%
%LPD*%
G01*
G04 APERTURE LIST*
G04 Aperture macros list*
%AMRoundRect*
0 Rectangle with rounded corners*
0 $1 Rounding radius*
0 $2 $3 $4 $5 $6 $7 $8 $9 X,Y pos of 4 corners*
0 Add a 4 corners polygon primitive as box body*
4,1,4,$2,$3,$4,$5,$6,$7,$8,$9,$2,$3,0*
0 Add four circle primitives for the rounded corners*
1,1,$1+$1,$2,$3*
1,1,$1+$1,$4,$5*
1,1,$1+$1,$6,$7*
1,1,$1+$1,$8,$9*
0 Add four rect primitives between the rounded corners*
20,1,$1+$1,$2,$3,$4,$5,0*
20,1,$1+$1,$4,$5,$6,$7,0*
20,1,$1+$1,$6,$7,$8,$9,0*
20,1,$1+$1,$8,$9,$2,$3,0*%
G04 Aperture macros list end*
G04 #@! TA.AperFunction,SMDPad,CuDef*
%ADD10R,11.000000X13.000000*%
G04 #@! TD*
G04 #@! TA.AperFunction,ComponentPad*
%ADD11C,9.000000*%
G04 #@! TD*
G04 #@! TA.AperFunction,ComponentPad*
%ADD12R,6.000000X6.000000*%
G04 #@! TD*
G04 #@! TA.AperFunction,ComponentPad*
%ADD13C,6.000000*%
G04 #@! TD*
G04 #@! TA.AperFunction,ComponentPad*
%ADD14RoundRect,0.250001X1.099999X1.599999X-1.099999X1.599999X-1.099999X-1.599999X1.099999X-1.599999X0*%
G04 #@! TD*
G04 #@! TA.AperFunction,ComponentPad*
%ADD15O,2.700000X3.700000*%
G04 #@! TD*
G04 #@! TA.AperFunction,ComponentPad*
%ADD16R,2.100000X2.100000*%
G04 #@! TD*
G04 #@! TA.AperFunction,ComponentPad*
%ADD17C,2.100000*%
G04 #@! TD*
G04 #@! TA.AperFunction,ViaPad*
%ADD18C,0.800000*%
G04 #@! TD*
G04 #@! TA.AperFunction,Conductor*
%ADD19C,0.250000*%
G04 #@! TD*
G04 #@! TA.AperFunction,Conductor*
%ADD20C,16.000000*%
G04 #@! TD*
G04 #@! TA.AperFunction,Conductor*
%ADD21C,2.500000*%
G04 #@! TD*
G04 APERTURE END LIST*
D10*
X148629000Y-119750000D03*
D11*
X148629000Y-119750000D03*
X103689000Y-119750000D03*
D10*
X103689000Y-119750000D03*
D11*
X226129000Y-119750000D03*
D10*
X226129000Y-119750000D03*
D11*
X181189000Y-119750000D03*
D10*
X181189000Y-119750000D03*
X148629000Y-143884000D03*
D11*
X148629000Y-143884000D03*
X103689000Y-143884000D03*
D10*
X103689000Y-143884000D03*
D11*
X226129000Y-168018000D03*
D10*
X226129000Y-168018000D03*
X181189000Y-168018000D03*
D11*
X181189000Y-168018000D03*
D12*
X161290000Y-274217500D03*
X161290000Y-264057500D03*
D13*
X171450000Y-274217500D03*
X171450000Y-264057500D03*
D14*
X234315000Y-271145000D03*
D15*
X230115000Y-271145000D03*
X225915000Y-271145000D03*
X221715000Y-271145000D03*
X217515000Y-271145000D03*
X213315000Y-271145000D03*
X209115000Y-271145000D03*
X204915000Y-271145000D03*
X200715000Y-271145000D03*
X234315000Y-265645000D03*
X230115000Y-265645000D03*
X225915000Y-265645000D03*
X221715000Y-265645000D03*
X217515000Y-265645000D03*
X213315000Y-265645000D03*
X209115000Y-265645000D03*
X204915000Y-265645000D03*
X200715000Y-265645000D03*
D10*
X148629000Y-192153000D03*
D11*
X148629000Y-192153000D03*
X103689000Y-192153000D03*
D10*
X103689000Y-192153000D03*
D11*
X226129000Y-192153000D03*
D10*
X226129000Y-192153000D03*
D11*
X181189000Y-192153000D03*
D10*
X181189000Y-192153000D03*
D11*
X148629000Y-168018000D03*
D10*
X148629000Y-168018000D03*
X103689000Y-168018000D03*
D11*
X103689000Y-168018000D03*
D10*
X226129000Y-216287000D03*
D11*
X226129000Y-216287000D03*
D10*
X181189000Y-216287000D03*
D11*
X181189000Y-216287000D03*
D16*
X130175000Y-277495000D03*
D17*
X132715000Y-277495000D03*
D10*
X148629000Y-240421000D03*
D11*
X148629000Y-240421000D03*
X103689000Y-240421000D03*
D10*
X103689000Y-240421000D03*
D11*
X226129000Y-240421000D03*
D10*
X226129000Y-240421000D03*
D11*
X181189000Y-240421000D03*
D10*
X181189000Y-240421000D03*
D11*
X148629000Y-216287000D03*
D10*
X148629000Y-216287000D03*
X103689000Y-216287000D03*
D11*
X103689000Y-216287000D03*
D10*
X226129000Y-143884000D03*
D11*
X226129000Y-143884000D03*
D10*
X181189000Y-143884000D03*
D11*
X181189000Y-143884000D03*
D18*
X227330000Y-262255000D03*
X234295500Y-233045000D03*
X234295500Y-231935842D03*
X228480577Y-264082355D03*
X234295500Y-230505000D03*
D19*
X224879500Y-255816896D02*
X236670000Y-244026396D01*
X236670000Y-235664195D02*
X234295500Y-233289695D01*
X227330000Y-262255000D02*
X224879500Y-259804500D01*
D20*
X127823000Y-240421000D02*
X103689000Y-216287000D01*
D19*
X224879500Y-259804500D02*
X224879500Y-255816896D01*
D20*
X148629000Y-240421000D02*
X127823000Y-240421000D01*
D19*
X234295500Y-233289695D02*
X234295500Y-233045000D01*
X236670000Y-244026396D02*
X236670000Y-235664195D01*
X130175000Y-267335000D02*
X127000000Y-264160000D01*
X161290000Y-279290000D02*
X161290000Y-274217500D01*
D20*
X103689000Y-240421000D02*
X127000000Y-264160000D01*
D19*
X163459000Y-281459000D02*
X161290000Y-279290000D01*
D20*
X127000000Y-264160000D02*
X157480000Y-264160000D01*
D19*
X224001000Y-281459000D02*
X163459000Y-281459000D01*
D21*
X130175000Y-278765000D02*
X130175000Y-267335000D01*
D19*
X234315000Y-271145000D02*
X224001000Y-281459000D01*
X228480577Y-264082355D02*
X228480577Y-262380272D01*
X225425000Y-255907792D02*
X237120000Y-244212792D01*
X225425000Y-259324695D02*
X225425000Y-255907792D01*
D20*
X127823000Y-216287000D02*
X103689000Y-192153000D01*
D19*
X237120000Y-234760342D02*
X234295500Y-231935842D01*
X228480577Y-262380272D02*
X225425000Y-259324695D01*
X237120000Y-244212792D02*
X237120000Y-234760342D01*
D20*
X148629000Y-216287000D02*
X127823000Y-216287000D01*
X128573000Y-143884000D02*
X103689000Y-119000000D01*
X148629000Y-143884000D02*
X128573000Y-143884000D01*
X127823000Y-168018000D02*
X103689000Y-143884000D01*
X148629000Y-168018000D02*
X127823000Y-168018000D01*
D19*
X237570000Y-233760000D02*
X234315000Y-230505000D01*
X230115000Y-251854188D02*
X237570000Y-244399188D01*
X230115000Y-265645000D02*
X230115000Y-251854188D01*
X234315000Y-230505000D02*
X234295500Y-230505000D01*
D20*
X148629000Y-192153000D02*
X127824000Y-192153000D01*
D19*
X237570000Y-244399188D02*
X237570000Y-233760000D01*
D20*
X127824000Y-192153000D02*
X103689000Y-168018000D01*
X181755000Y-119750000D02*
X148629000Y-119750000D01*
X182880000Y-266700000D02*
X175260000Y-266700000D01*
X209159000Y-240421000D02*
X182880000Y-266700000D01*
X226695000Y-240421000D02*
X209159000Y-240421000D01*
X226695000Y-216287000D02*
X205889000Y-216287000D01*
X205889000Y-216287000D02*
X181755000Y-240421000D01*
X226695000Y-119750000D02*
X205889000Y-119750000D01*
X205889000Y-119750000D02*
X181755000Y-143884000D01*
X226695000Y-143884000D02*
X205889000Y-143884000D01*
X205889000Y-143884000D02*
X181755000Y-168018000D01*
X226695000Y-168018000D02*
X205890000Y-168018000D01*
X205890000Y-168018000D02*
X181755000Y-192153000D01*
X205889000Y-192153000D02*
X181755000Y-216287000D01*
X226695000Y-192153000D02*
X205889000Y-192153000D01*
G04 #@! TA.AperFunction,Conductor*
G36*
X192982121Y-255290002D02*
G01*
X193028614Y-255343658D01*
X193040000Y-255396000D01*
X193040000Y-280699500D01*
X193019998Y-280767621D01*
X192966342Y-280814114D01*
X192914000Y-280825500D01*
X166496000Y-280825500D01*
X166427879Y-280805498D01*
X166381386Y-280751842D01*
X166370000Y-280699500D01*
X166370000Y-255396000D01*
X166390002Y-255327879D01*
X166443658Y-255281386D01*
X166496000Y-255270000D01*
X192914000Y-255270000D01*
X192982121Y-255290002D01*
G37*
G04 #@! TD.AperFunction*
G04 #@! TA.AperFunction,Conductor*
G36*
X165677121Y-255290002D02*
G01*
X165723614Y-255343658D01*
X165735000Y-255396000D01*
X165735000Y-280949500D01*
X165714998Y-281017621D01*
X165661342Y-281064114D01*
X165609000Y-281075500D01*
X139826000Y-281075500D01*
X139757879Y-281055498D01*
X139711386Y-281001842D01*
X139700000Y-280949500D01*
X139700000Y-255396000D01*
X139720002Y-255327879D01*
X139773658Y-255281386D01*
X139826000Y-255270000D01*
X165609000Y-255270000D01*
X165677121Y-255290002D01*
G37*
G04 #@! TD.AperFunction*
M02*
