M48
; DRILL file {KiCad (6.0.8-1)-1} date Friday, December 30, 2022 at 12:12:22 pm
; FORMAT={-:-/ absolute / metric / decimal}
; #@! TF.CreationDate,2022-12-30T12:12:22-08:00
; #@! TF.GenerationSoftware,Kicad,Pcbnew,(6.0.8-1)-1
; #@! TF.FileFunction,Plated,1,2,PTH
FMAT,2
METRIC
; #@! TA.AperFunction,Plated,PTH,ViaDrill
T1C0.400
; #@! TA.AperFunction,Plated,PTH,ComponentDrill
T2C1.100
; #@! TA.AperFunction,Plated,PTH,ComponentDrill
T3C1.600
; #@! TA.AperFunction,Plated,PTH,ComponentDrill
T4C1.800
; #@! TA.AperFunction,Plated,PTH,ComponentDrill
T5C5.500
%
G90
G05
T1
X227.33Y-262.255
X228.481Y-264.082
X234.295Y-230.505
X234.295Y-231.936
X234.295Y-233.045
T2
X130.175Y-277.495
X132.715Y-277.495
T3
X161.29Y-264.058
X161.29Y-274.217
X171.45Y-264.058
X171.45Y-274.217
T4
X200.715Y-265.645
X200.715Y-271.145
X204.915Y-265.645
X204.915Y-271.145
X209.115Y-265.645
X209.115Y-271.145
X213.315Y-265.645
X213.315Y-271.145
X217.515Y-265.645
X217.515Y-271.145
X221.715Y-265.645
X221.715Y-271.145
X225.915Y-265.645
X225.915Y-271.145
X230.115Y-265.645
X230.115Y-271.145
X234.315Y-265.645
X234.315Y-271.145
T5
X103.689Y-119.75
X103.689Y-143.884
X103.689Y-168.018
X103.689Y-192.153
X103.689Y-216.287
X103.689Y-240.421
X148.629Y-119.75
X148.629Y-143.884
X148.629Y-168.018
X148.629Y-192.153
X148.629Y-216.287
X148.629Y-240.421
X181.189Y-119.75
X181.189Y-143.884
X181.189Y-168.018
X181.189Y-192.153
X181.189Y-216.287
X181.189Y-240.421
X226.129Y-119.75
X226.129Y-143.884
X226.129Y-168.018
X226.129Y-192.153
X226.129Y-216.287
X226.129Y-240.421
T0
M30
