%TF.GenerationSoftware,KiCad,Pcbnew,(6.0.8-1)-1*%
%TF.CreationDate,2022-12-30T12:12:35-08:00*%
%TF.ProjectId,URBAN_CELL_BOARD,55524241-4e5f-4434-954c-4c5f424f4152,rev?*%
%TF.SameCoordinates,Original*%
%TF.FileFunction,Drillmap*%
%TF.FilePolarity,Positive*%
%FSLAX45Y45*%
G04 Gerber Fmt 4.5, Leading zero omitted, Abs format (unit mm)*
G04 Created by KiCad (PCBNEW (6.0.8-1)-1) date 2022-12-30 12:12:35*
%MOMM*%
%LPD*%
G01*
G04 APERTURE LIST*
%ADD10C,0.100000*%
%ADD11C,0.200000*%
%ADD12C,0.040000*%
%ADD13C,0.110000*%
%ADD14C,0.160000*%
%ADD15C,0.180000*%
%ADD16C,0.550000*%
G04 APERTURE END LIST*
D10*
X8387900Y-28158400D02*
X8387900Y-11612100D01*
X10000000Y-10000000D02*
X24587900Y-10000000D01*
X8387900Y-11612100D02*
X10000000Y-10000000D01*
X24587900Y-28158400D02*
X8387900Y-28158400D01*
X24587900Y-10000000D02*
X24587900Y-28158400D01*
D11*
D12*
X22713000Y-26205500D02*
X22753000Y-26245500D01*
X22753000Y-26205500D02*
X22713000Y-26245500D01*
X22828058Y-26388235D02*
X22868058Y-26428235D01*
X22868058Y-26388235D02*
X22828058Y-26428235D01*
X23409550Y-23030500D02*
X23449550Y-23070500D01*
X23449550Y-23030500D02*
X23409550Y-23070500D01*
X23409550Y-23173584D02*
X23449550Y-23213584D01*
X23449550Y-23173584D02*
X23409550Y-23213584D01*
X23409550Y-23284500D02*
X23449550Y-23324500D01*
X23449550Y-23284500D02*
X23409550Y-23324500D01*
D13*
X13072500Y-27749500D02*
G75*
G03*
X13072500Y-27749500I-55000J0D01*
G01*
X13326500Y-27749500D02*
G75*
G03*
X13326500Y-27749500I-55000J0D01*
G01*
D14*
X16129000Y-26325750D02*
X16129000Y-26485750D01*
X16049000Y-26405750D02*
X16209000Y-26405750D01*
X16129000Y-27341750D02*
X16129000Y-27501750D01*
X16049000Y-27421750D02*
X16209000Y-27421750D01*
X17145000Y-26325750D02*
X17145000Y-26485750D01*
X17065000Y-26405750D02*
X17225000Y-26405750D01*
X17145000Y-27341750D02*
X17145000Y-27501750D01*
X17065000Y-27421750D02*
X17225000Y-27421750D01*
D15*
X20135140Y-26628140D02*
X20135140Y-26500860D01*
X20007860Y-26500860D01*
X20007860Y-26628140D01*
X20135140Y-26628140D01*
X20135140Y-27178140D02*
X20135140Y-27050860D01*
X20007860Y-27050860D01*
X20007860Y-27178140D01*
X20135140Y-27178140D01*
X20555140Y-26628140D02*
X20555140Y-26500860D01*
X20427860Y-26500860D01*
X20427860Y-26628140D01*
X20555140Y-26628140D01*
X20555140Y-27178140D02*
X20555140Y-27050860D01*
X20427860Y-27050860D01*
X20427860Y-27178140D01*
X20555140Y-27178140D01*
X20975140Y-26628140D02*
X20975140Y-26500860D01*
X20847860Y-26500860D01*
X20847860Y-26628140D01*
X20975140Y-26628140D01*
X20975140Y-27178140D02*
X20975140Y-27050860D01*
X20847860Y-27050860D01*
X20847860Y-27178140D01*
X20975140Y-27178140D01*
X21395140Y-26628140D02*
X21395140Y-26500860D01*
X21267860Y-26500860D01*
X21267860Y-26628140D01*
X21395140Y-26628140D01*
X21395140Y-27178140D02*
X21395140Y-27050860D01*
X21267860Y-27050860D01*
X21267860Y-27178140D01*
X21395140Y-27178140D01*
X21815140Y-26628140D02*
X21815140Y-26500860D01*
X21687860Y-26500860D01*
X21687860Y-26628140D01*
X21815140Y-26628140D01*
X21815140Y-27178140D02*
X21815140Y-27050860D01*
X21687860Y-27050860D01*
X21687860Y-27178140D01*
X21815140Y-27178140D01*
X22235140Y-26628140D02*
X22235140Y-26500860D01*
X22107860Y-26500860D01*
X22107860Y-26628140D01*
X22235140Y-26628140D01*
X22235140Y-27178140D02*
X22235140Y-27050860D01*
X22107860Y-27050860D01*
X22107860Y-27178140D01*
X22235140Y-27178140D01*
X22655140Y-26628140D02*
X22655140Y-26500860D01*
X22527860Y-26500860D01*
X22527860Y-26628140D01*
X22655140Y-26628140D01*
X22655140Y-27178140D02*
X22655140Y-27050860D01*
X22527860Y-27050860D01*
X22527860Y-27178140D01*
X22655140Y-27178140D01*
X23075140Y-26628140D02*
X23075140Y-26500860D01*
X22947860Y-26500860D01*
X22947860Y-26628140D01*
X23075140Y-26628140D01*
X23075140Y-27178140D02*
X23075140Y-27050860D01*
X22947860Y-27050860D01*
X22947860Y-27178140D01*
X23075140Y-27178140D01*
X23495140Y-26628140D02*
X23495140Y-26500860D01*
X23367860Y-26500860D01*
X23367860Y-26628140D01*
X23495140Y-26628140D01*
X23495140Y-27178140D02*
X23495140Y-27050860D01*
X23367860Y-27050860D01*
X23367860Y-27178140D01*
X23495140Y-27178140D01*
D16*
X10368900Y-12250000D02*
X10643900Y-11975000D01*
X10368900Y-11700000D01*
X10093900Y-11975000D01*
X10368900Y-12250000D01*
X10368900Y-14663400D02*
X10643900Y-14388400D01*
X10368900Y-14113400D01*
X10093900Y-14388400D01*
X10368900Y-14663400D01*
X10368900Y-17076800D02*
X10643900Y-16801800D01*
X10368900Y-16526800D01*
X10093900Y-16801800D01*
X10368900Y-17076800D01*
X10368900Y-19490300D02*
X10643900Y-19215300D01*
X10368900Y-18940300D01*
X10093900Y-19215300D01*
X10368900Y-19490300D01*
X10368900Y-21903700D02*
X10643900Y-21628700D01*
X10368900Y-21353700D01*
X10093900Y-21628700D01*
X10368900Y-21903700D01*
X10368900Y-24317100D02*
X10643900Y-24042100D01*
X10368900Y-23767100D01*
X10093900Y-24042100D01*
X10368900Y-24317100D01*
X14862900Y-12250000D02*
X15137900Y-11975000D01*
X14862900Y-11700000D01*
X14587900Y-11975000D01*
X14862900Y-12250000D01*
X14862900Y-14663400D02*
X15137900Y-14388400D01*
X14862900Y-14113400D01*
X14587900Y-14388400D01*
X14862900Y-14663400D01*
X14862900Y-17076800D02*
X15137900Y-16801800D01*
X14862900Y-16526800D01*
X14587900Y-16801800D01*
X14862900Y-17076800D01*
X14862900Y-19490300D02*
X15137900Y-19215300D01*
X14862900Y-18940300D01*
X14587900Y-19215300D01*
X14862900Y-19490300D01*
X14862900Y-21903700D02*
X15137900Y-21628700D01*
X14862900Y-21353700D01*
X14587900Y-21628700D01*
X14862900Y-21903700D01*
X14862900Y-24317100D02*
X15137900Y-24042100D01*
X14862900Y-23767100D01*
X14587900Y-24042100D01*
X14862900Y-24317100D01*
X18118900Y-12250000D02*
X18393900Y-11975000D01*
X18118900Y-11700000D01*
X17843900Y-11975000D01*
X18118900Y-12250000D01*
X18118900Y-14663400D02*
X18393900Y-14388400D01*
X18118900Y-14113400D01*
X17843900Y-14388400D01*
X18118900Y-14663400D01*
X18118900Y-17076800D02*
X18393900Y-16801800D01*
X18118900Y-16526800D01*
X17843900Y-16801800D01*
X18118900Y-17076800D01*
X18118900Y-19490300D02*
X18393900Y-19215300D01*
X18118900Y-18940300D01*
X17843900Y-19215300D01*
X18118900Y-19490300D01*
X18118900Y-21903700D02*
X18393900Y-21628700D01*
X18118900Y-21353700D01*
X17843900Y-21628700D01*
X18118900Y-21903700D01*
X18118900Y-24317100D02*
X18393900Y-24042100D01*
X18118900Y-23767100D01*
X17843900Y-24042100D01*
X18118900Y-24317100D01*
X22612900Y-12250000D02*
X22887900Y-11975000D01*
X22612900Y-11700000D01*
X22337900Y-11975000D01*
X22612900Y-12250000D01*
X22612900Y-14663400D02*
X22887900Y-14388400D01*
X22612900Y-14113400D01*
X22337900Y-14388400D01*
X22612900Y-14663400D01*
X22612900Y-17076800D02*
X22887900Y-16801800D01*
X22612900Y-16526800D01*
X22337900Y-16801800D01*
X22612900Y-17076800D01*
X22612900Y-19490300D02*
X22887900Y-19215300D01*
X22612900Y-18940300D01*
X22337900Y-19215300D01*
X22612900Y-19490300D01*
X22612900Y-21903700D02*
X22887900Y-21628700D01*
X22612900Y-21353700D01*
X22337900Y-21628700D01*
X22612900Y-21903700D01*
X22612900Y-24317100D02*
X22887900Y-24042100D01*
X22612900Y-23767100D01*
X22337900Y-24042100D01*
X22612900Y-24317100D01*
D11*
X8640519Y-28473876D02*
X8640519Y-28273876D01*
X8688138Y-28273876D01*
X8716710Y-28283400D01*
X8735757Y-28302448D01*
X8745281Y-28321495D01*
X8754805Y-28359590D01*
X8754805Y-28388162D01*
X8745281Y-28426257D01*
X8735757Y-28445305D01*
X8716710Y-28464352D01*
X8688138Y-28473876D01*
X8640519Y-28473876D01*
X8840519Y-28473876D02*
X8840519Y-28340543D01*
X8840519Y-28378638D02*
X8850043Y-28359590D01*
X8859567Y-28350067D01*
X8878614Y-28340543D01*
X8897662Y-28340543D01*
X8964329Y-28473876D02*
X8964329Y-28340543D01*
X8964329Y-28273876D02*
X8954805Y-28283400D01*
X8964329Y-28292924D01*
X8973852Y-28283400D01*
X8964329Y-28273876D01*
X8964329Y-28292924D01*
X9088138Y-28473876D02*
X9069090Y-28464352D01*
X9059567Y-28445305D01*
X9059567Y-28273876D01*
X9192900Y-28473876D02*
X9173852Y-28464352D01*
X9164329Y-28445305D01*
X9164329Y-28273876D01*
X9421471Y-28473876D02*
X9421471Y-28273876D01*
X9488138Y-28416733D01*
X9554805Y-28273876D01*
X9554805Y-28473876D01*
X9735757Y-28473876D02*
X9735757Y-28369114D01*
X9726233Y-28350067D01*
X9707186Y-28340543D01*
X9669090Y-28340543D01*
X9650043Y-28350067D01*
X9735757Y-28464352D02*
X9716710Y-28473876D01*
X9669090Y-28473876D01*
X9650043Y-28464352D01*
X9640519Y-28445305D01*
X9640519Y-28426257D01*
X9650043Y-28407209D01*
X9669090Y-28397686D01*
X9716710Y-28397686D01*
X9735757Y-28388162D01*
X9830995Y-28340543D02*
X9830995Y-28540543D01*
X9830995Y-28350067D02*
X9850043Y-28340543D01*
X9888138Y-28340543D01*
X9907186Y-28350067D01*
X9916710Y-28359590D01*
X9926233Y-28378638D01*
X9926233Y-28435781D01*
X9916710Y-28454828D01*
X9907186Y-28464352D01*
X9888138Y-28473876D01*
X9850043Y-28473876D01*
X9830995Y-28464352D01*
X10011948Y-28454828D02*
X10021471Y-28464352D01*
X10011948Y-28473876D01*
X10002424Y-28464352D01*
X10011948Y-28454828D01*
X10011948Y-28473876D01*
X10011948Y-28350067D02*
X10021471Y-28359590D01*
X10011948Y-28369114D01*
X10002424Y-28359590D01*
X10011948Y-28350067D01*
X10011948Y-28369114D01*
D12*
X8342900Y-28783400D02*
X8382900Y-28823400D01*
X8382900Y-28783400D02*
X8342900Y-28823400D01*
D11*
X8678614Y-28693876D02*
X8697662Y-28693876D01*
X8716710Y-28703400D01*
X8726233Y-28712924D01*
X8735757Y-28731971D01*
X8745281Y-28770067D01*
X8745281Y-28817686D01*
X8735757Y-28855781D01*
X8726233Y-28874828D01*
X8716710Y-28884352D01*
X8697662Y-28893876D01*
X8678614Y-28893876D01*
X8659567Y-28884352D01*
X8650043Y-28874828D01*
X8640519Y-28855781D01*
X8630995Y-28817686D01*
X8630995Y-28770067D01*
X8640519Y-28731971D01*
X8650043Y-28712924D01*
X8659567Y-28703400D01*
X8678614Y-28693876D01*
X8830995Y-28874828D02*
X8840519Y-28884352D01*
X8830995Y-28893876D01*
X8821471Y-28884352D01*
X8830995Y-28874828D01*
X8830995Y-28893876D01*
X9011948Y-28760543D02*
X9011948Y-28893876D01*
X8964329Y-28684352D02*
X8916710Y-28827209D01*
X9040519Y-28827209D01*
X9154805Y-28693876D02*
X9173852Y-28693876D01*
X9192900Y-28703400D01*
X9202424Y-28712924D01*
X9211948Y-28731971D01*
X9221471Y-28770067D01*
X9221471Y-28817686D01*
X9211948Y-28855781D01*
X9202424Y-28874828D01*
X9192900Y-28884352D01*
X9173852Y-28893876D01*
X9154805Y-28893876D01*
X9135757Y-28884352D01*
X9126233Y-28874828D01*
X9116710Y-28855781D01*
X9107186Y-28817686D01*
X9107186Y-28770067D01*
X9116710Y-28731971D01*
X9126233Y-28712924D01*
X9135757Y-28703400D01*
X9154805Y-28693876D01*
X9345281Y-28693876D02*
X9364329Y-28693876D01*
X9383376Y-28703400D01*
X9392900Y-28712924D01*
X9402424Y-28731971D01*
X9411948Y-28770067D01*
X9411948Y-28817686D01*
X9402424Y-28855781D01*
X9392900Y-28874828D01*
X9383376Y-28884352D01*
X9364329Y-28893876D01*
X9345281Y-28893876D01*
X9326233Y-28884352D01*
X9316710Y-28874828D01*
X9307186Y-28855781D01*
X9297662Y-28817686D01*
X9297662Y-28770067D01*
X9307186Y-28731971D01*
X9316710Y-28712924D01*
X9326233Y-28703400D01*
X9345281Y-28693876D01*
X9497662Y-28893876D02*
X9497662Y-28760543D01*
X9497662Y-28779590D02*
X9507186Y-28770067D01*
X9526233Y-28760543D01*
X9554805Y-28760543D01*
X9573852Y-28770067D01*
X9583376Y-28789114D01*
X9583376Y-28893876D01*
X9583376Y-28789114D02*
X9592900Y-28770067D01*
X9611948Y-28760543D01*
X9640519Y-28760543D01*
X9659567Y-28770067D01*
X9669090Y-28789114D01*
X9669090Y-28893876D01*
X9764329Y-28893876D02*
X9764329Y-28760543D01*
X9764329Y-28779590D02*
X9773852Y-28770067D01*
X9792900Y-28760543D01*
X9821471Y-28760543D01*
X9840519Y-28770067D01*
X9850043Y-28789114D01*
X9850043Y-28893876D01*
X9850043Y-28789114D02*
X9859567Y-28770067D01*
X9878614Y-28760543D01*
X9907186Y-28760543D01*
X9926233Y-28770067D01*
X9935757Y-28789114D01*
X9935757Y-28893876D01*
X10326233Y-28684352D02*
X10154805Y-28941495D01*
X10583376Y-28693876D02*
X10602424Y-28693876D01*
X10621471Y-28703400D01*
X10630995Y-28712924D01*
X10640519Y-28731971D01*
X10650043Y-28770067D01*
X10650043Y-28817686D01*
X10640519Y-28855781D01*
X10630995Y-28874828D01*
X10621471Y-28884352D01*
X10602424Y-28893876D01*
X10583376Y-28893876D01*
X10564329Y-28884352D01*
X10554805Y-28874828D01*
X10545281Y-28855781D01*
X10535757Y-28817686D01*
X10535757Y-28770067D01*
X10545281Y-28731971D01*
X10554805Y-28712924D01*
X10564329Y-28703400D01*
X10583376Y-28693876D01*
X10735757Y-28874828D02*
X10745281Y-28884352D01*
X10735757Y-28893876D01*
X10726233Y-28884352D01*
X10735757Y-28874828D01*
X10735757Y-28893876D01*
X10869090Y-28693876D02*
X10888138Y-28693876D01*
X10907186Y-28703400D01*
X10916710Y-28712924D01*
X10926233Y-28731971D01*
X10935757Y-28770067D01*
X10935757Y-28817686D01*
X10926233Y-28855781D01*
X10916710Y-28874828D01*
X10907186Y-28884352D01*
X10888138Y-28893876D01*
X10869090Y-28893876D01*
X10850043Y-28884352D01*
X10840519Y-28874828D01*
X10830995Y-28855781D01*
X10821471Y-28817686D01*
X10821471Y-28770067D01*
X10830995Y-28731971D01*
X10840519Y-28712924D01*
X10850043Y-28703400D01*
X10869090Y-28693876D01*
X11126233Y-28893876D02*
X11011948Y-28893876D01*
X11069090Y-28893876D02*
X11069090Y-28693876D01*
X11050043Y-28722448D01*
X11030995Y-28741495D01*
X11011948Y-28751019D01*
X11307186Y-28693876D02*
X11211948Y-28693876D01*
X11202424Y-28789114D01*
X11211948Y-28779590D01*
X11230995Y-28770067D01*
X11278614Y-28770067D01*
X11297662Y-28779590D01*
X11307186Y-28789114D01*
X11316709Y-28808162D01*
X11316709Y-28855781D01*
X11307186Y-28874828D01*
X11297662Y-28884352D01*
X11278614Y-28893876D01*
X11230995Y-28893876D01*
X11211948Y-28884352D01*
X11202424Y-28874828D01*
X11383376Y-28693876D02*
X11516709Y-28693876D01*
X11430995Y-28893876D01*
X11583376Y-28693876D02*
X11583376Y-28731971D01*
X11659567Y-28693876D02*
X11659567Y-28731971D01*
X11954805Y-28970067D02*
X11945281Y-28960543D01*
X11926233Y-28931971D01*
X11916709Y-28912924D01*
X11907186Y-28884352D01*
X11897662Y-28836733D01*
X11897662Y-28798638D01*
X11907186Y-28751019D01*
X11916709Y-28722448D01*
X11926233Y-28703400D01*
X11945281Y-28674828D01*
X11954805Y-28665305D01*
X12126233Y-28693876D02*
X12030995Y-28693876D01*
X12021471Y-28789114D01*
X12030995Y-28779590D01*
X12050043Y-28770067D01*
X12097662Y-28770067D01*
X12116709Y-28779590D01*
X12126233Y-28789114D01*
X12135757Y-28808162D01*
X12135757Y-28855781D01*
X12126233Y-28874828D01*
X12116709Y-28884352D01*
X12097662Y-28893876D01*
X12050043Y-28893876D01*
X12030995Y-28884352D01*
X12021471Y-28874828D01*
X12373852Y-28893876D02*
X12373852Y-28693876D01*
X12459567Y-28893876D02*
X12459567Y-28789114D01*
X12450043Y-28770067D01*
X12430995Y-28760543D01*
X12402424Y-28760543D01*
X12383376Y-28770067D01*
X12373852Y-28779590D01*
X12583376Y-28893876D02*
X12564328Y-28884352D01*
X12554805Y-28874828D01*
X12545281Y-28855781D01*
X12545281Y-28798638D01*
X12554805Y-28779590D01*
X12564328Y-28770067D01*
X12583376Y-28760543D01*
X12611948Y-28760543D01*
X12630995Y-28770067D01*
X12640519Y-28779590D01*
X12650043Y-28798638D01*
X12650043Y-28855781D01*
X12640519Y-28874828D01*
X12630995Y-28884352D01*
X12611948Y-28893876D01*
X12583376Y-28893876D01*
X12764328Y-28893876D02*
X12745281Y-28884352D01*
X12735757Y-28865305D01*
X12735757Y-28693876D01*
X12916709Y-28884352D02*
X12897662Y-28893876D01*
X12859567Y-28893876D01*
X12840519Y-28884352D01*
X12830995Y-28865305D01*
X12830995Y-28789114D01*
X12840519Y-28770067D01*
X12859567Y-28760543D01*
X12897662Y-28760543D01*
X12916709Y-28770067D01*
X12926233Y-28789114D01*
X12926233Y-28808162D01*
X12830995Y-28827209D01*
X13002424Y-28884352D02*
X13021471Y-28893876D01*
X13059567Y-28893876D01*
X13078614Y-28884352D01*
X13088138Y-28865305D01*
X13088138Y-28855781D01*
X13078614Y-28836733D01*
X13059567Y-28827209D01*
X13030995Y-28827209D01*
X13011948Y-28817686D01*
X13002424Y-28798638D01*
X13002424Y-28789114D01*
X13011948Y-28770067D01*
X13030995Y-28760543D01*
X13059567Y-28760543D01*
X13078614Y-28770067D01*
X13154805Y-28970067D02*
X13164328Y-28960543D01*
X13183376Y-28931971D01*
X13192900Y-28912924D01*
X13202424Y-28884352D01*
X13211948Y-28836733D01*
X13211948Y-28798638D01*
X13202424Y-28751019D01*
X13192900Y-28722448D01*
X13183376Y-28703400D01*
X13164328Y-28674828D01*
X13154805Y-28665305D01*
D13*
X8382900Y-29067400D02*
G75*
G03*
X8382900Y-29067400I-55000J0D01*
G01*
D11*
X8745281Y-29157876D02*
X8630995Y-29157876D01*
X8688138Y-29157876D02*
X8688138Y-28957876D01*
X8669090Y-28986448D01*
X8650043Y-29005495D01*
X8630995Y-29015019D01*
X8830995Y-29138828D02*
X8840519Y-29148352D01*
X8830995Y-29157876D01*
X8821471Y-29148352D01*
X8830995Y-29138828D01*
X8830995Y-29157876D01*
X9030995Y-29157876D02*
X8916710Y-29157876D01*
X8973852Y-29157876D02*
X8973852Y-28957876D01*
X8954805Y-28986448D01*
X8935757Y-29005495D01*
X8916710Y-29015019D01*
X9154805Y-28957876D02*
X9173852Y-28957876D01*
X9192900Y-28967400D01*
X9202424Y-28976924D01*
X9211948Y-28995971D01*
X9221471Y-29034067D01*
X9221471Y-29081686D01*
X9211948Y-29119781D01*
X9202424Y-29138828D01*
X9192900Y-29148352D01*
X9173852Y-29157876D01*
X9154805Y-29157876D01*
X9135757Y-29148352D01*
X9126233Y-29138828D01*
X9116710Y-29119781D01*
X9107186Y-29081686D01*
X9107186Y-29034067D01*
X9116710Y-28995971D01*
X9126233Y-28976924D01*
X9135757Y-28967400D01*
X9154805Y-28957876D01*
X9345281Y-28957876D02*
X9364329Y-28957876D01*
X9383376Y-28967400D01*
X9392900Y-28976924D01*
X9402424Y-28995971D01*
X9411948Y-29034067D01*
X9411948Y-29081686D01*
X9402424Y-29119781D01*
X9392900Y-29138828D01*
X9383376Y-29148352D01*
X9364329Y-29157876D01*
X9345281Y-29157876D01*
X9326233Y-29148352D01*
X9316710Y-29138828D01*
X9307186Y-29119781D01*
X9297662Y-29081686D01*
X9297662Y-29034067D01*
X9307186Y-28995971D01*
X9316710Y-28976924D01*
X9326233Y-28967400D01*
X9345281Y-28957876D01*
X9497662Y-29157876D02*
X9497662Y-29024543D01*
X9497662Y-29043590D02*
X9507186Y-29034067D01*
X9526233Y-29024543D01*
X9554805Y-29024543D01*
X9573852Y-29034067D01*
X9583376Y-29053114D01*
X9583376Y-29157876D01*
X9583376Y-29053114D02*
X9592900Y-29034067D01*
X9611948Y-29024543D01*
X9640519Y-29024543D01*
X9659567Y-29034067D01*
X9669090Y-29053114D01*
X9669090Y-29157876D01*
X9764329Y-29157876D02*
X9764329Y-29024543D01*
X9764329Y-29043590D02*
X9773852Y-29034067D01*
X9792900Y-29024543D01*
X9821471Y-29024543D01*
X9840519Y-29034067D01*
X9850043Y-29053114D01*
X9850043Y-29157876D01*
X9850043Y-29053114D02*
X9859567Y-29034067D01*
X9878614Y-29024543D01*
X9907186Y-29024543D01*
X9926233Y-29034067D01*
X9935757Y-29053114D01*
X9935757Y-29157876D01*
X10326233Y-28948352D02*
X10154805Y-29205495D01*
X10583376Y-28957876D02*
X10602424Y-28957876D01*
X10621471Y-28967400D01*
X10630995Y-28976924D01*
X10640519Y-28995971D01*
X10650043Y-29034067D01*
X10650043Y-29081686D01*
X10640519Y-29119781D01*
X10630995Y-29138828D01*
X10621471Y-29148352D01*
X10602424Y-29157876D01*
X10583376Y-29157876D01*
X10564329Y-29148352D01*
X10554805Y-29138828D01*
X10545281Y-29119781D01*
X10535757Y-29081686D01*
X10535757Y-29034067D01*
X10545281Y-28995971D01*
X10554805Y-28976924D01*
X10564329Y-28967400D01*
X10583376Y-28957876D01*
X10735757Y-29138828D02*
X10745281Y-29148352D01*
X10735757Y-29157876D01*
X10726233Y-29148352D01*
X10735757Y-29138828D01*
X10735757Y-29157876D01*
X10869090Y-28957876D02*
X10888138Y-28957876D01*
X10907186Y-28967400D01*
X10916710Y-28976924D01*
X10926233Y-28995971D01*
X10935757Y-29034067D01*
X10935757Y-29081686D01*
X10926233Y-29119781D01*
X10916710Y-29138828D01*
X10907186Y-29148352D01*
X10888138Y-29157876D01*
X10869090Y-29157876D01*
X10850043Y-29148352D01*
X10840519Y-29138828D01*
X10830995Y-29119781D01*
X10821471Y-29081686D01*
X10821471Y-29034067D01*
X10830995Y-28995971D01*
X10840519Y-28976924D01*
X10850043Y-28967400D01*
X10869090Y-28957876D01*
X11107186Y-29024543D02*
X11107186Y-29157876D01*
X11059567Y-28948352D02*
X11011948Y-29091209D01*
X11135757Y-29091209D01*
X11192900Y-28957876D02*
X11316709Y-28957876D01*
X11250043Y-29034067D01*
X11278614Y-29034067D01*
X11297662Y-29043590D01*
X11307186Y-29053114D01*
X11316709Y-29072162D01*
X11316709Y-29119781D01*
X11307186Y-29138828D01*
X11297662Y-29148352D01*
X11278614Y-29157876D01*
X11221471Y-29157876D01*
X11202424Y-29148352D01*
X11192900Y-29138828D01*
X11383376Y-28957876D02*
X11507186Y-28957876D01*
X11440519Y-29034067D01*
X11469090Y-29034067D01*
X11488138Y-29043590D01*
X11497662Y-29053114D01*
X11507186Y-29072162D01*
X11507186Y-29119781D01*
X11497662Y-29138828D01*
X11488138Y-29148352D01*
X11469090Y-29157876D01*
X11411948Y-29157876D01*
X11392900Y-29148352D01*
X11383376Y-29138828D01*
X11583376Y-28957876D02*
X11583376Y-28995971D01*
X11659567Y-28957876D02*
X11659567Y-28995971D01*
X11954805Y-29234067D02*
X11945281Y-29224543D01*
X11926233Y-29195971D01*
X11916709Y-29176924D01*
X11907186Y-29148352D01*
X11897662Y-29100733D01*
X11897662Y-29062638D01*
X11907186Y-29015019D01*
X11916709Y-28986448D01*
X11926233Y-28967400D01*
X11945281Y-28938828D01*
X11954805Y-28929305D01*
X12021471Y-28976924D02*
X12030995Y-28967400D01*
X12050043Y-28957876D01*
X12097662Y-28957876D01*
X12116709Y-28967400D01*
X12126233Y-28976924D01*
X12135757Y-28995971D01*
X12135757Y-29015019D01*
X12126233Y-29043590D01*
X12011948Y-29157876D01*
X12135757Y-29157876D01*
X12373852Y-29157876D02*
X12373852Y-28957876D01*
X12459567Y-29157876D02*
X12459567Y-29053114D01*
X12450043Y-29034067D01*
X12430995Y-29024543D01*
X12402424Y-29024543D01*
X12383376Y-29034067D01*
X12373852Y-29043590D01*
X12583376Y-29157876D02*
X12564328Y-29148352D01*
X12554805Y-29138828D01*
X12545281Y-29119781D01*
X12545281Y-29062638D01*
X12554805Y-29043590D01*
X12564328Y-29034067D01*
X12583376Y-29024543D01*
X12611948Y-29024543D01*
X12630995Y-29034067D01*
X12640519Y-29043590D01*
X12650043Y-29062638D01*
X12650043Y-29119781D01*
X12640519Y-29138828D01*
X12630995Y-29148352D01*
X12611948Y-29157876D01*
X12583376Y-29157876D01*
X12764328Y-29157876D02*
X12745281Y-29148352D01*
X12735757Y-29129305D01*
X12735757Y-28957876D01*
X12916709Y-29148352D02*
X12897662Y-29157876D01*
X12859567Y-29157876D01*
X12840519Y-29148352D01*
X12830995Y-29129305D01*
X12830995Y-29053114D01*
X12840519Y-29034067D01*
X12859567Y-29024543D01*
X12897662Y-29024543D01*
X12916709Y-29034067D01*
X12926233Y-29053114D01*
X12926233Y-29072162D01*
X12830995Y-29091209D01*
X13002424Y-29148352D02*
X13021471Y-29157876D01*
X13059567Y-29157876D01*
X13078614Y-29148352D01*
X13088138Y-29129305D01*
X13088138Y-29119781D01*
X13078614Y-29100733D01*
X13059567Y-29091209D01*
X13030995Y-29091209D01*
X13011948Y-29081686D01*
X13002424Y-29062638D01*
X13002424Y-29053114D01*
X13011948Y-29034067D01*
X13030995Y-29024543D01*
X13059567Y-29024543D01*
X13078614Y-29034067D01*
X13154805Y-29234067D02*
X13164328Y-29224543D01*
X13183376Y-29195971D01*
X13192900Y-29176924D01*
X13202424Y-29148352D01*
X13211948Y-29100733D01*
X13211948Y-29062638D01*
X13202424Y-29015019D01*
X13192900Y-28986448D01*
X13183376Y-28967400D01*
X13164328Y-28938828D01*
X13154805Y-28929305D01*
D14*
X8302900Y-29251400D02*
X8302900Y-29411400D01*
X8222900Y-29331400D02*
X8382900Y-29331400D01*
D11*
X8745281Y-29421876D02*
X8630995Y-29421876D01*
X8688138Y-29421876D02*
X8688138Y-29221876D01*
X8669090Y-29250448D01*
X8650043Y-29269495D01*
X8630995Y-29279019D01*
X8830995Y-29402828D02*
X8840519Y-29412352D01*
X8830995Y-29421876D01*
X8821471Y-29412352D01*
X8830995Y-29402828D01*
X8830995Y-29421876D01*
X9011948Y-29221876D02*
X8973852Y-29221876D01*
X8954805Y-29231400D01*
X8945281Y-29240924D01*
X8926233Y-29269495D01*
X8916710Y-29307590D01*
X8916710Y-29383781D01*
X8926233Y-29402828D01*
X8935757Y-29412352D01*
X8954805Y-29421876D01*
X8992900Y-29421876D01*
X9011948Y-29412352D01*
X9021471Y-29402828D01*
X9030995Y-29383781D01*
X9030995Y-29336162D01*
X9021471Y-29317114D01*
X9011948Y-29307590D01*
X8992900Y-29298067D01*
X8954805Y-29298067D01*
X8935757Y-29307590D01*
X8926233Y-29317114D01*
X8916710Y-29336162D01*
X9154805Y-29221876D02*
X9173852Y-29221876D01*
X9192900Y-29231400D01*
X9202424Y-29240924D01*
X9211948Y-29259971D01*
X9221471Y-29298067D01*
X9221471Y-29345686D01*
X9211948Y-29383781D01*
X9202424Y-29402828D01*
X9192900Y-29412352D01*
X9173852Y-29421876D01*
X9154805Y-29421876D01*
X9135757Y-29412352D01*
X9126233Y-29402828D01*
X9116710Y-29383781D01*
X9107186Y-29345686D01*
X9107186Y-29298067D01*
X9116710Y-29259971D01*
X9126233Y-29240924D01*
X9135757Y-29231400D01*
X9154805Y-29221876D01*
X9345281Y-29221876D02*
X9364329Y-29221876D01*
X9383376Y-29231400D01*
X9392900Y-29240924D01*
X9402424Y-29259971D01*
X9411948Y-29298067D01*
X9411948Y-29345686D01*
X9402424Y-29383781D01*
X9392900Y-29402828D01*
X9383376Y-29412352D01*
X9364329Y-29421876D01*
X9345281Y-29421876D01*
X9326233Y-29412352D01*
X9316710Y-29402828D01*
X9307186Y-29383781D01*
X9297662Y-29345686D01*
X9297662Y-29298067D01*
X9307186Y-29259971D01*
X9316710Y-29240924D01*
X9326233Y-29231400D01*
X9345281Y-29221876D01*
X9497662Y-29421876D02*
X9497662Y-29288543D01*
X9497662Y-29307590D02*
X9507186Y-29298067D01*
X9526233Y-29288543D01*
X9554805Y-29288543D01*
X9573852Y-29298067D01*
X9583376Y-29317114D01*
X9583376Y-29421876D01*
X9583376Y-29317114D02*
X9592900Y-29298067D01*
X9611948Y-29288543D01*
X9640519Y-29288543D01*
X9659567Y-29298067D01*
X9669090Y-29317114D01*
X9669090Y-29421876D01*
X9764329Y-29421876D02*
X9764329Y-29288543D01*
X9764329Y-29307590D02*
X9773852Y-29298067D01*
X9792900Y-29288543D01*
X9821471Y-29288543D01*
X9840519Y-29298067D01*
X9850043Y-29317114D01*
X9850043Y-29421876D01*
X9850043Y-29317114D02*
X9859567Y-29298067D01*
X9878614Y-29288543D01*
X9907186Y-29288543D01*
X9926233Y-29298067D01*
X9935757Y-29317114D01*
X9935757Y-29421876D01*
X10326233Y-29212352D02*
X10154805Y-29469495D01*
X10583376Y-29221876D02*
X10602424Y-29221876D01*
X10621471Y-29231400D01*
X10630995Y-29240924D01*
X10640519Y-29259971D01*
X10650043Y-29298067D01*
X10650043Y-29345686D01*
X10640519Y-29383781D01*
X10630995Y-29402828D01*
X10621471Y-29412352D01*
X10602424Y-29421876D01*
X10583376Y-29421876D01*
X10564329Y-29412352D01*
X10554805Y-29402828D01*
X10545281Y-29383781D01*
X10535757Y-29345686D01*
X10535757Y-29298067D01*
X10545281Y-29259971D01*
X10554805Y-29240924D01*
X10564329Y-29231400D01*
X10583376Y-29221876D01*
X10735757Y-29402828D02*
X10745281Y-29412352D01*
X10735757Y-29421876D01*
X10726233Y-29412352D01*
X10735757Y-29402828D01*
X10735757Y-29421876D01*
X10869090Y-29221876D02*
X10888138Y-29221876D01*
X10907186Y-29231400D01*
X10916710Y-29240924D01*
X10926233Y-29259971D01*
X10935757Y-29298067D01*
X10935757Y-29345686D01*
X10926233Y-29383781D01*
X10916710Y-29402828D01*
X10907186Y-29412352D01*
X10888138Y-29421876D01*
X10869090Y-29421876D01*
X10850043Y-29412352D01*
X10840519Y-29402828D01*
X10830995Y-29383781D01*
X10821471Y-29345686D01*
X10821471Y-29298067D01*
X10830995Y-29259971D01*
X10840519Y-29240924D01*
X10850043Y-29231400D01*
X10869090Y-29221876D01*
X11107186Y-29221876D02*
X11069090Y-29221876D01*
X11050043Y-29231400D01*
X11040519Y-29240924D01*
X11021471Y-29269495D01*
X11011948Y-29307590D01*
X11011948Y-29383781D01*
X11021471Y-29402828D01*
X11030995Y-29412352D01*
X11050043Y-29421876D01*
X11088138Y-29421876D01*
X11107186Y-29412352D01*
X11116710Y-29402828D01*
X11126233Y-29383781D01*
X11126233Y-29336162D01*
X11116710Y-29317114D01*
X11107186Y-29307590D01*
X11088138Y-29298067D01*
X11050043Y-29298067D01*
X11030995Y-29307590D01*
X11021471Y-29317114D01*
X11011948Y-29336162D01*
X11192900Y-29221876D02*
X11316709Y-29221876D01*
X11250043Y-29298067D01*
X11278614Y-29298067D01*
X11297662Y-29307590D01*
X11307186Y-29317114D01*
X11316709Y-29336162D01*
X11316709Y-29383781D01*
X11307186Y-29402828D01*
X11297662Y-29412352D01*
X11278614Y-29421876D01*
X11221471Y-29421876D01*
X11202424Y-29412352D01*
X11192900Y-29402828D01*
X11440519Y-29221876D02*
X11459567Y-29221876D01*
X11478614Y-29231400D01*
X11488138Y-29240924D01*
X11497662Y-29259971D01*
X11507186Y-29298067D01*
X11507186Y-29345686D01*
X11497662Y-29383781D01*
X11488138Y-29402828D01*
X11478614Y-29412352D01*
X11459567Y-29421876D01*
X11440519Y-29421876D01*
X11421471Y-29412352D01*
X11411948Y-29402828D01*
X11402424Y-29383781D01*
X11392900Y-29345686D01*
X11392900Y-29298067D01*
X11402424Y-29259971D01*
X11411948Y-29240924D01*
X11421471Y-29231400D01*
X11440519Y-29221876D01*
X11583376Y-29221876D02*
X11583376Y-29259971D01*
X11659567Y-29221876D02*
X11659567Y-29259971D01*
X11954805Y-29498067D02*
X11945281Y-29488543D01*
X11926233Y-29459971D01*
X11916709Y-29440924D01*
X11907186Y-29412352D01*
X11897662Y-29364733D01*
X11897662Y-29326638D01*
X11907186Y-29279019D01*
X11916709Y-29250448D01*
X11926233Y-29231400D01*
X11945281Y-29202828D01*
X11954805Y-29193305D01*
X12116709Y-29288543D02*
X12116709Y-29421876D01*
X12069090Y-29212352D02*
X12021471Y-29355209D01*
X12145281Y-29355209D01*
X12373852Y-29421876D02*
X12373852Y-29221876D01*
X12459567Y-29421876D02*
X12459567Y-29317114D01*
X12450043Y-29298067D01*
X12430995Y-29288543D01*
X12402424Y-29288543D01*
X12383376Y-29298067D01*
X12373852Y-29307590D01*
X12583376Y-29421876D02*
X12564328Y-29412352D01*
X12554805Y-29402828D01*
X12545281Y-29383781D01*
X12545281Y-29326638D01*
X12554805Y-29307590D01*
X12564328Y-29298067D01*
X12583376Y-29288543D01*
X12611948Y-29288543D01*
X12630995Y-29298067D01*
X12640519Y-29307590D01*
X12650043Y-29326638D01*
X12650043Y-29383781D01*
X12640519Y-29402828D01*
X12630995Y-29412352D01*
X12611948Y-29421876D01*
X12583376Y-29421876D01*
X12764328Y-29421876D02*
X12745281Y-29412352D01*
X12735757Y-29393305D01*
X12735757Y-29221876D01*
X12916709Y-29412352D02*
X12897662Y-29421876D01*
X12859567Y-29421876D01*
X12840519Y-29412352D01*
X12830995Y-29393305D01*
X12830995Y-29317114D01*
X12840519Y-29298067D01*
X12859567Y-29288543D01*
X12897662Y-29288543D01*
X12916709Y-29298067D01*
X12926233Y-29317114D01*
X12926233Y-29336162D01*
X12830995Y-29355209D01*
X13002424Y-29412352D02*
X13021471Y-29421876D01*
X13059567Y-29421876D01*
X13078614Y-29412352D01*
X13088138Y-29393305D01*
X13088138Y-29383781D01*
X13078614Y-29364733D01*
X13059567Y-29355209D01*
X13030995Y-29355209D01*
X13011948Y-29345686D01*
X13002424Y-29326638D01*
X13002424Y-29317114D01*
X13011948Y-29298067D01*
X13030995Y-29288543D01*
X13059567Y-29288543D01*
X13078614Y-29298067D01*
X13154805Y-29498067D02*
X13164328Y-29488543D01*
X13183376Y-29459971D01*
X13192900Y-29440924D01*
X13202424Y-29412352D01*
X13211948Y-29364733D01*
X13211948Y-29326638D01*
X13202424Y-29279019D01*
X13192900Y-29250448D01*
X13183376Y-29231400D01*
X13164328Y-29202828D01*
X13154805Y-29193305D01*
D15*
X8356540Y-29675040D02*
X8356540Y-29547760D01*
X8229260Y-29547760D01*
X8229260Y-29675040D01*
X8356540Y-29675040D01*
D11*
X8745281Y-29701876D02*
X8630995Y-29701876D01*
X8688138Y-29701876D02*
X8688138Y-29501876D01*
X8669090Y-29530448D01*
X8650043Y-29549495D01*
X8630995Y-29559019D01*
X8830995Y-29682828D02*
X8840519Y-29692352D01*
X8830995Y-29701876D01*
X8821471Y-29692352D01*
X8830995Y-29682828D01*
X8830995Y-29701876D01*
X8954805Y-29587590D02*
X8935757Y-29578067D01*
X8926233Y-29568543D01*
X8916710Y-29549495D01*
X8916710Y-29539971D01*
X8926233Y-29520924D01*
X8935757Y-29511400D01*
X8954805Y-29501876D01*
X8992900Y-29501876D01*
X9011948Y-29511400D01*
X9021471Y-29520924D01*
X9030995Y-29539971D01*
X9030995Y-29549495D01*
X9021471Y-29568543D01*
X9011948Y-29578067D01*
X8992900Y-29587590D01*
X8954805Y-29587590D01*
X8935757Y-29597114D01*
X8926233Y-29606638D01*
X8916710Y-29625686D01*
X8916710Y-29663781D01*
X8926233Y-29682828D01*
X8935757Y-29692352D01*
X8954805Y-29701876D01*
X8992900Y-29701876D01*
X9011948Y-29692352D01*
X9021471Y-29682828D01*
X9030995Y-29663781D01*
X9030995Y-29625686D01*
X9021471Y-29606638D01*
X9011948Y-29597114D01*
X8992900Y-29587590D01*
X9154805Y-29501876D02*
X9173852Y-29501876D01*
X9192900Y-29511400D01*
X9202424Y-29520924D01*
X9211948Y-29539971D01*
X9221471Y-29578067D01*
X9221471Y-29625686D01*
X9211948Y-29663781D01*
X9202424Y-29682828D01*
X9192900Y-29692352D01*
X9173852Y-29701876D01*
X9154805Y-29701876D01*
X9135757Y-29692352D01*
X9126233Y-29682828D01*
X9116710Y-29663781D01*
X9107186Y-29625686D01*
X9107186Y-29578067D01*
X9116710Y-29539971D01*
X9126233Y-29520924D01*
X9135757Y-29511400D01*
X9154805Y-29501876D01*
X9345281Y-29501876D02*
X9364329Y-29501876D01*
X9383376Y-29511400D01*
X9392900Y-29520924D01*
X9402424Y-29539971D01*
X9411948Y-29578067D01*
X9411948Y-29625686D01*
X9402424Y-29663781D01*
X9392900Y-29682828D01*
X9383376Y-29692352D01*
X9364329Y-29701876D01*
X9345281Y-29701876D01*
X9326233Y-29692352D01*
X9316710Y-29682828D01*
X9307186Y-29663781D01*
X9297662Y-29625686D01*
X9297662Y-29578067D01*
X9307186Y-29539971D01*
X9316710Y-29520924D01*
X9326233Y-29511400D01*
X9345281Y-29501876D01*
X9497662Y-29701876D02*
X9497662Y-29568543D01*
X9497662Y-29587590D02*
X9507186Y-29578067D01*
X9526233Y-29568543D01*
X9554805Y-29568543D01*
X9573852Y-29578067D01*
X9583376Y-29597114D01*
X9583376Y-29701876D01*
X9583376Y-29597114D02*
X9592900Y-29578067D01*
X9611948Y-29568543D01*
X9640519Y-29568543D01*
X9659567Y-29578067D01*
X9669090Y-29597114D01*
X9669090Y-29701876D01*
X9764329Y-29701876D02*
X9764329Y-29568543D01*
X9764329Y-29587590D02*
X9773852Y-29578067D01*
X9792900Y-29568543D01*
X9821471Y-29568543D01*
X9840519Y-29578067D01*
X9850043Y-29597114D01*
X9850043Y-29701876D01*
X9850043Y-29597114D02*
X9859567Y-29578067D01*
X9878614Y-29568543D01*
X9907186Y-29568543D01*
X9926233Y-29578067D01*
X9935757Y-29597114D01*
X9935757Y-29701876D01*
X10326233Y-29492352D02*
X10154805Y-29749495D01*
X10583376Y-29501876D02*
X10602424Y-29501876D01*
X10621471Y-29511400D01*
X10630995Y-29520924D01*
X10640519Y-29539971D01*
X10650043Y-29578067D01*
X10650043Y-29625686D01*
X10640519Y-29663781D01*
X10630995Y-29682828D01*
X10621471Y-29692352D01*
X10602424Y-29701876D01*
X10583376Y-29701876D01*
X10564329Y-29692352D01*
X10554805Y-29682828D01*
X10545281Y-29663781D01*
X10535757Y-29625686D01*
X10535757Y-29578067D01*
X10545281Y-29539971D01*
X10554805Y-29520924D01*
X10564329Y-29511400D01*
X10583376Y-29501876D01*
X10735757Y-29682828D02*
X10745281Y-29692352D01*
X10735757Y-29701876D01*
X10726233Y-29692352D01*
X10735757Y-29682828D01*
X10735757Y-29701876D01*
X10869090Y-29501876D02*
X10888138Y-29501876D01*
X10907186Y-29511400D01*
X10916710Y-29520924D01*
X10926233Y-29539971D01*
X10935757Y-29578067D01*
X10935757Y-29625686D01*
X10926233Y-29663781D01*
X10916710Y-29682828D01*
X10907186Y-29692352D01*
X10888138Y-29701876D01*
X10869090Y-29701876D01*
X10850043Y-29692352D01*
X10840519Y-29682828D01*
X10830995Y-29663781D01*
X10821471Y-29625686D01*
X10821471Y-29578067D01*
X10830995Y-29539971D01*
X10840519Y-29520924D01*
X10850043Y-29511400D01*
X10869090Y-29501876D01*
X11002424Y-29501876D02*
X11135757Y-29501876D01*
X11050043Y-29701876D01*
X11250043Y-29501876D02*
X11269090Y-29501876D01*
X11288138Y-29511400D01*
X11297662Y-29520924D01*
X11307186Y-29539971D01*
X11316709Y-29578067D01*
X11316709Y-29625686D01*
X11307186Y-29663781D01*
X11297662Y-29682828D01*
X11288138Y-29692352D01*
X11269090Y-29701876D01*
X11250043Y-29701876D01*
X11230995Y-29692352D01*
X11221471Y-29682828D01*
X11211948Y-29663781D01*
X11202424Y-29625686D01*
X11202424Y-29578067D01*
X11211948Y-29539971D01*
X11221471Y-29520924D01*
X11230995Y-29511400D01*
X11250043Y-29501876D01*
X11411948Y-29701876D02*
X11450043Y-29701876D01*
X11469090Y-29692352D01*
X11478614Y-29682828D01*
X11497662Y-29654257D01*
X11507186Y-29616162D01*
X11507186Y-29539971D01*
X11497662Y-29520924D01*
X11488138Y-29511400D01*
X11469090Y-29501876D01*
X11430995Y-29501876D01*
X11411948Y-29511400D01*
X11402424Y-29520924D01*
X11392900Y-29539971D01*
X11392900Y-29587590D01*
X11402424Y-29606638D01*
X11411948Y-29616162D01*
X11430995Y-29625686D01*
X11469090Y-29625686D01*
X11488138Y-29616162D01*
X11497662Y-29606638D01*
X11507186Y-29587590D01*
X11583376Y-29501876D02*
X11583376Y-29539971D01*
X11659567Y-29501876D02*
X11659567Y-29539971D01*
X11954805Y-29778067D02*
X11945281Y-29768543D01*
X11926233Y-29739971D01*
X11916709Y-29720924D01*
X11907186Y-29692352D01*
X11897662Y-29644733D01*
X11897662Y-29606638D01*
X11907186Y-29559019D01*
X11916709Y-29530448D01*
X11926233Y-29511400D01*
X11945281Y-29482828D01*
X11954805Y-29473305D01*
X12135757Y-29701876D02*
X12021471Y-29701876D01*
X12078614Y-29701876D02*
X12078614Y-29501876D01*
X12059567Y-29530448D01*
X12040519Y-29549495D01*
X12021471Y-29559019D01*
X12250043Y-29587590D02*
X12230995Y-29578067D01*
X12221471Y-29568543D01*
X12211948Y-29549495D01*
X12211948Y-29539971D01*
X12221471Y-29520924D01*
X12230995Y-29511400D01*
X12250043Y-29501876D01*
X12288138Y-29501876D01*
X12307186Y-29511400D01*
X12316709Y-29520924D01*
X12326233Y-29539971D01*
X12326233Y-29549495D01*
X12316709Y-29568543D01*
X12307186Y-29578067D01*
X12288138Y-29587590D01*
X12250043Y-29587590D01*
X12230995Y-29597114D01*
X12221471Y-29606638D01*
X12211948Y-29625686D01*
X12211948Y-29663781D01*
X12221471Y-29682828D01*
X12230995Y-29692352D01*
X12250043Y-29701876D01*
X12288138Y-29701876D01*
X12307186Y-29692352D01*
X12316709Y-29682828D01*
X12326233Y-29663781D01*
X12326233Y-29625686D01*
X12316709Y-29606638D01*
X12307186Y-29597114D01*
X12288138Y-29587590D01*
X12564328Y-29701876D02*
X12564328Y-29501876D01*
X12650043Y-29701876D02*
X12650043Y-29597114D01*
X12640519Y-29578067D01*
X12621471Y-29568543D01*
X12592900Y-29568543D01*
X12573852Y-29578067D01*
X12564328Y-29587590D01*
X12773852Y-29701876D02*
X12754805Y-29692352D01*
X12745281Y-29682828D01*
X12735757Y-29663781D01*
X12735757Y-29606638D01*
X12745281Y-29587590D01*
X12754805Y-29578067D01*
X12773852Y-29568543D01*
X12802424Y-29568543D01*
X12821471Y-29578067D01*
X12830995Y-29587590D01*
X12840519Y-29606638D01*
X12840519Y-29663781D01*
X12830995Y-29682828D01*
X12821471Y-29692352D01*
X12802424Y-29701876D01*
X12773852Y-29701876D01*
X12954805Y-29701876D02*
X12935757Y-29692352D01*
X12926233Y-29673305D01*
X12926233Y-29501876D01*
X13107186Y-29692352D02*
X13088138Y-29701876D01*
X13050043Y-29701876D01*
X13030995Y-29692352D01*
X13021471Y-29673305D01*
X13021471Y-29597114D01*
X13030995Y-29578067D01*
X13050043Y-29568543D01*
X13088138Y-29568543D01*
X13107186Y-29578067D01*
X13116709Y-29597114D01*
X13116709Y-29616162D01*
X13021471Y-29635209D01*
X13192900Y-29692352D02*
X13211948Y-29701876D01*
X13250043Y-29701876D01*
X13269090Y-29692352D01*
X13278614Y-29673305D01*
X13278614Y-29663781D01*
X13269090Y-29644733D01*
X13250043Y-29635209D01*
X13221471Y-29635209D01*
X13202424Y-29625686D01*
X13192900Y-29606638D01*
X13192900Y-29597114D01*
X13202424Y-29578067D01*
X13221471Y-29568543D01*
X13250043Y-29568543D01*
X13269090Y-29578067D01*
X13345281Y-29778067D02*
X13354805Y-29768543D01*
X13373852Y-29739971D01*
X13383376Y-29720924D01*
X13392900Y-29692352D01*
X13402424Y-29644733D01*
X13402424Y-29606638D01*
X13392900Y-29559019D01*
X13383376Y-29530448D01*
X13373852Y-29511400D01*
X13354805Y-29482828D01*
X13345281Y-29473305D01*
X8282900Y-30011400D02*
X8382900Y-29911400D01*
X8282900Y-29811400D01*
X8182900Y-29911400D01*
X8282900Y-30011400D01*
X8735757Y-29801876D02*
X8640519Y-29801876D01*
X8630995Y-29897114D01*
X8640519Y-29887590D01*
X8659567Y-29878067D01*
X8707186Y-29878067D01*
X8726233Y-29887590D01*
X8735757Y-29897114D01*
X8745281Y-29916162D01*
X8745281Y-29963781D01*
X8735757Y-29982828D01*
X8726233Y-29992352D01*
X8707186Y-30001876D01*
X8659567Y-30001876D01*
X8640519Y-29992352D01*
X8630995Y-29982828D01*
X8830995Y-29982828D02*
X8840519Y-29992352D01*
X8830995Y-30001876D01*
X8821471Y-29992352D01*
X8830995Y-29982828D01*
X8830995Y-30001876D01*
X9021471Y-29801876D02*
X8926233Y-29801876D01*
X8916710Y-29897114D01*
X8926233Y-29887590D01*
X8945281Y-29878067D01*
X8992900Y-29878067D01*
X9011948Y-29887590D01*
X9021471Y-29897114D01*
X9030995Y-29916162D01*
X9030995Y-29963781D01*
X9021471Y-29982828D01*
X9011948Y-29992352D01*
X8992900Y-30001876D01*
X8945281Y-30001876D01*
X8926233Y-29992352D01*
X8916710Y-29982828D01*
X9154805Y-29801876D02*
X9173852Y-29801876D01*
X9192900Y-29811400D01*
X9202424Y-29820924D01*
X9211948Y-29839971D01*
X9221471Y-29878067D01*
X9221471Y-29925686D01*
X9211948Y-29963781D01*
X9202424Y-29982828D01*
X9192900Y-29992352D01*
X9173852Y-30001876D01*
X9154805Y-30001876D01*
X9135757Y-29992352D01*
X9126233Y-29982828D01*
X9116710Y-29963781D01*
X9107186Y-29925686D01*
X9107186Y-29878067D01*
X9116710Y-29839971D01*
X9126233Y-29820924D01*
X9135757Y-29811400D01*
X9154805Y-29801876D01*
X9345281Y-29801876D02*
X9364329Y-29801876D01*
X9383376Y-29811400D01*
X9392900Y-29820924D01*
X9402424Y-29839971D01*
X9411948Y-29878067D01*
X9411948Y-29925686D01*
X9402424Y-29963781D01*
X9392900Y-29982828D01*
X9383376Y-29992352D01*
X9364329Y-30001876D01*
X9345281Y-30001876D01*
X9326233Y-29992352D01*
X9316710Y-29982828D01*
X9307186Y-29963781D01*
X9297662Y-29925686D01*
X9297662Y-29878067D01*
X9307186Y-29839971D01*
X9316710Y-29820924D01*
X9326233Y-29811400D01*
X9345281Y-29801876D01*
X9497662Y-30001876D02*
X9497662Y-29868543D01*
X9497662Y-29887590D02*
X9507186Y-29878067D01*
X9526233Y-29868543D01*
X9554805Y-29868543D01*
X9573852Y-29878067D01*
X9583376Y-29897114D01*
X9583376Y-30001876D01*
X9583376Y-29897114D02*
X9592900Y-29878067D01*
X9611948Y-29868543D01*
X9640519Y-29868543D01*
X9659567Y-29878067D01*
X9669090Y-29897114D01*
X9669090Y-30001876D01*
X9764329Y-30001876D02*
X9764329Y-29868543D01*
X9764329Y-29887590D02*
X9773852Y-29878067D01*
X9792900Y-29868543D01*
X9821471Y-29868543D01*
X9840519Y-29878067D01*
X9850043Y-29897114D01*
X9850043Y-30001876D01*
X9850043Y-29897114D02*
X9859567Y-29878067D01*
X9878614Y-29868543D01*
X9907186Y-29868543D01*
X9926233Y-29878067D01*
X9935757Y-29897114D01*
X9935757Y-30001876D01*
X10326233Y-29792352D02*
X10154805Y-30049495D01*
X10583376Y-29801876D02*
X10602424Y-29801876D01*
X10621471Y-29811400D01*
X10630995Y-29820924D01*
X10640519Y-29839971D01*
X10650043Y-29878067D01*
X10650043Y-29925686D01*
X10640519Y-29963781D01*
X10630995Y-29982828D01*
X10621471Y-29992352D01*
X10602424Y-30001876D01*
X10583376Y-30001876D01*
X10564329Y-29992352D01*
X10554805Y-29982828D01*
X10545281Y-29963781D01*
X10535757Y-29925686D01*
X10535757Y-29878067D01*
X10545281Y-29839971D01*
X10554805Y-29820924D01*
X10564329Y-29811400D01*
X10583376Y-29801876D01*
X10735757Y-29982828D02*
X10745281Y-29992352D01*
X10735757Y-30001876D01*
X10726233Y-29992352D01*
X10735757Y-29982828D01*
X10735757Y-30001876D01*
X10821471Y-29820924D02*
X10830995Y-29811400D01*
X10850043Y-29801876D01*
X10897662Y-29801876D01*
X10916710Y-29811400D01*
X10926233Y-29820924D01*
X10935757Y-29839971D01*
X10935757Y-29859019D01*
X10926233Y-29887590D01*
X10811948Y-30001876D01*
X10935757Y-30001876D01*
X11126233Y-30001876D02*
X11011948Y-30001876D01*
X11069090Y-30001876D02*
X11069090Y-29801876D01*
X11050043Y-29830448D01*
X11030995Y-29849495D01*
X11011948Y-29859019D01*
X11297662Y-29801876D02*
X11259567Y-29801876D01*
X11240519Y-29811400D01*
X11230995Y-29820924D01*
X11211948Y-29849495D01*
X11202424Y-29887590D01*
X11202424Y-29963781D01*
X11211948Y-29982828D01*
X11221471Y-29992352D01*
X11240519Y-30001876D01*
X11278614Y-30001876D01*
X11297662Y-29992352D01*
X11307186Y-29982828D01*
X11316709Y-29963781D01*
X11316709Y-29916162D01*
X11307186Y-29897114D01*
X11297662Y-29887590D01*
X11278614Y-29878067D01*
X11240519Y-29878067D01*
X11221471Y-29887590D01*
X11211948Y-29897114D01*
X11202424Y-29916162D01*
X11497662Y-29801876D02*
X11402424Y-29801876D01*
X11392900Y-29897114D01*
X11402424Y-29887590D01*
X11421471Y-29878067D01*
X11469090Y-29878067D01*
X11488138Y-29887590D01*
X11497662Y-29897114D01*
X11507186Y-29916162D01*
X11507186Y-29963781D01*
X11497662Y-29982828D01*
X11488138Y-29992352D01*
X11469090Y-30001876D01*
X11421471Y-30001876D01*
X11402424Y-29992352D01*
X11392900Y-29982828D01*
X11583376Y-29801876D02*
X11583376Y-29839971D01*
X11659567Y-29801876D02*
X11659567Y-29839971D01*
X11954805Y-30078067D02*
X11945281Y-30068543D01*
X11926233Y-30039971D01*
X11916709Y-30020924D01*
X11907186Y-29992352D01*
X11897662Y-29944733D01*
X11897662Y-29906638D01*
X11907186Y-29859019D01*
X11916709Y-29830448D01*
X11926233Y-29811400D01*
X11945281Y-29782828D01*
X11954805Y-29773305D01*
X12021471Y-29820924D02*
X12030995Y-29811400D01*
X12050043Y-29801876D01*
X12097662Y-29801876D01*
X12116709Y-29811400D01*
X12126233Y-29820924D01*
X12135757Y-29839971D01*
X12135757Y-29859019D01*
X12126233Y-29887590D01*
X12011948Y-30001876D01*
X12135757Y-30001876D01*
X12307186Y-29868543D02*
X12307186Y-30001876D01*
X12259567Y-29792352D02*
X12211948Y-29935209D01*
X12335757Y-29935209D01*
X12564328Y-30001876D02*
X12564328Y-29801876D01*
X12650043Y-30001876D02*
X12650043Y-29897114D01*
X12640519Y-29878067D01*
X12621471Y-29868543D01*
X12592900Y-29868543D01*
X12573852Y-29878067D01*
X12564328Y-29887590D01*
X12773852Y-30001876D02*
X12754805Y-29992352D01*
X12745281Y-29982828D01*
X12735757Y-29963781D01*
X12735757Y-29906638D01*
X12745281Y-29887590D01*
X12754805Y-29878067D01*
X12773852Y-29868543D01*
X12802424Y-29868543D01*
X12821471Y-29878067D01*
X12830995Y-29887590D01*
X12840519Y-29906638D01*
X12840519Y-29963781D01*
X12830995Y-29982828D01*
X12821471Y-29992352D01*
X12802424Y-30001876D01*
X12773852Y-30001876D01*
X12954805Y-30001876D02*
X12935757Y-29992352D01*
X12926233Y-29973305D01*
X12926233Y-29801876D01*
X13107186Y-29992352D02*
X13088138Y-30001876D01*
X13050043Y-30001876D01*
X13030995Y-29992352D01*
X13021471Y-29973305D01*
X13021471Y-29897114D01*
X13030995Y-29878067D01*
X13050043Y-29868543D01*
X13088138Y-29868543D01*
X13107186Y-29878067D01*
X13116709Y-29897114D01*
X13116709Y-29916162D01*
X13021471Y-29935209D01*
X13192900Y-29992352D02*
X13211948Y-30001876D01*
X13250043Y-30001876D01*
X13269090Y-29992352D01*
X13278614Y-29973305D01*
X13278614Y-29963781D01*
X13269090Y-29944733D01*
X13250043Y-29935209D01*
X13221471Y-29935209D01*
X13202424Y-29925686D01*
X13192900Y-29906638D01*
X13192900Y-29897114D01*
X13202424Y-29878067D01*
X13221471Y-29868543D01*
X13250043Y-29868543D01*
X13269090Y-29878067D01*
X13345281Y-30078067D02*
X13354805Y-30068543D01*
X13373852Y-30039971D01*
X13383376Y-30020924D01*
X13392900Y-29992352D01*
X13402424Y-29944733D01*
X13402424Y-29906638D01*
X13392900Y-29859019D01*
X13383376Y-29830448D01*
X13373852Y-29811400D01*
X13354805Y-29782828D01*
X13345281Y-29773305D01*
M02*
