G04 #@! TF.GenerationSoftware,KiCad,Pcbnew,8.0.5*
G04 #@! TF.CreationDate,2025-12-20T20:43:01-08:00*
G04 #@! TF.ProjectId,URBAN_CELL_BOARD,55524241-4e5f-4434-954c-4c5f424f4152,rev?*
G04 #@! TF.SameCoordinates,Original*
G04 #@! TF.FileFunction,Soldermask,Top*
G04 #@! TF.FilePolarity,Negative*
%FSLAX46Y46*%
G04 Gerber Fmt 4.6, Leading zero omitted, Abs format (unit mm)*
G04 Created by KiCad (PCBNEW 8.0.5) date 2025-12-20 20:43:01*
%MOMM*%
%LPD*%
G01*
G04 APERTURE LIST*
G04 Aperture macros list*
%AMRoundRect*
0 Rectangle with rounded corners*
0 $1 Rounding radius*
0 $2 $3 $4 $5 $6 $7 $8 $9 X,Y pos of 4 corners*
0 Add a 4 corners polygon primitive as box body*
4,1,4,$2,$3,$4,$5,$6,$7,$8,$9,$2,$3,0*
0 Add four circle primitives for the rounded corners*
1,1,$1+$1,$2,$3*
1,1,$1+$1,$4,$5*
1,1,$1+$1,$6,$7*
1,1,$1+$1,$8,$9*
0 Add four rect primitives between the rounded corners*
20,1,$1+$1,$2,$3,$4,$5,0*
20,1,$1+$1,$4,$5,$6,$7,0*
20,1,$1+$1,$6,$7,$8,$9,0*
20,1,$1+$1,$8,$9,$2,$3,0*%
G04 Aperture macros list end*
%ADD10C,9.000000*%
%ADD11C,2.154000*%
%ADD12C,3.000000*%
%ADD13RoundRect,0.250001X1.099999X1.599999X-1.099999X1.599999X-1.099999X-1.599999X1.099999X-1.599999X0*%
%ADD14O,2.700000X3.700000*%
%ADD15C,7.500000*%
%ADD16C,5.500000*%
%ADD17C,1.200000*%
%ADD18R,10.000000X10.000000*%
G04 APERTURE END LIST*
D10*
G04 #@! TO.C,BT6*
X148629000Y-99751000D03*
X97529000Y-99751000D03*
G04 #@! TD*
G04 #@! TO.C,BT7*
X231029000Y-99751000D03*
X179929000Y-99751000D03*
G04 #@! TD*
D11*
G04 #@! TO.C,J4*
X119945000Y-267787500D03*
X119945000Y-275987500D03*
G04 #@! TD*
D10*
G04 #@! TO.C,BT5*
X148629000Y-127885000D03*
X97529000Y-127885000D03*
G04 #@! TD*
G04 #@! TO.C,BT9*
X231029000Y-156019000D03*
X179929000Y-156019000D03*
G04 #@! TD*
D11*
G04 #@! TO.C,J5*
X189675000Y-267875000D03*
X189675000Y-276075000D03*
G04 #@! TD*
D12*
G04 #@! TO.C,J1*
X238760000Y-278445000D03*
X205160000Y-278445000D03*
D13*
X238760000Y-271145000D03*
D14*
X234560000Y-271145000D03*
X230360000Y-271145000D03*
X226160000Y-271145000D03*
X221960000Y-271145000D03*
X217760000Y-271145000D03*
X213560000Y-271145000D03*
X209360000Y-271145000D03*
X205160000Y-271145000D03*
X238760000Y-265645000D03*
X234560000Y-265645000D03*
X230360000Y-265645000D03*
X226160000Y-265645000D03*
X221960000Y-265645000D03*
X217760000Y-265645000D03*
X213560000Y-265645000D03*
X209360000Y-265645000D03*
X205160000Y-265645000D03*
G04 #@! TD*
D10*
G04 #@! TO.C,BT3*
X148629000Y-184153000D03*
X97529000Y-184153000D03*
G04 #@! TD*
G04 #@! TO.C,BT10*
X231029000Y-184153000D03*
X179929000Y-184153000D03*
G04 #@! TD*
G04 #@! TO.C,BT4*
X148629000Y-156019000D03*
X97529000Y-156019000D03*
G04 #@! TD*
G04 #@! TO.C,BT11*
X231029000Y-212287000D03*
X179929000Y-212287000D03*
G04 #@! TD*
D15*
G04 #@! TO.C,H2*
X245294517Y-257095442D03*
G04 #@! TD*
D16*
G04 #@! TO.C,J2*
X135710000Y-272150000D03*
D17*
X131710000Y-268150000D03*
X131710000Y-270150000D03*
X131710000Y-272150000D03*
X131710000Y-274150000D03*
X131710000Y-276150000D03*
X133710000Y-268150000D03*
X133710000Y-276150000D03*
D18*
X135710000Y-272150000D03*
D17*
X135710001Y-268150000D03*
X135710001Y-276150000D03*
X137710000Y-268150000D03*
X137710000Y-276150000D03*
X139710000Y-268150000D03*
X139710000Y-270150000D03*
X139710000Y-272150000D03*
X139710000Y-274150000D03*
X139710000Y-276150000D03*
G04 #@! TD*
D10*
G04 #@! TO.C,BT1*
X148629000Y-240421000D03*
X97529000Y-240421000D03*
G04 #@! TD*
D16*
G04 #@! TO.C,J3*
X174720000Y-272080000D03*
D17*
X170720000Y-268080000D03*
X170720000Y-270080000D03*
X170720000Y-272080000D03*
X170720000Y-274080000D03*
X170720000Y-276080000D03*
X172720000Y-268080000D03*
X172720000Y-276080000D03*
D18*
X174720000Y-272080000D03*
D17*
X174720001Y-268080000D03*
X174720001Y-276080000D03*
X176720000Y-268080000D03*
X176720000Y-276080000D03*
X178720000Y-268080000D03*
X178720000Y-270080000D03*
X178720000Y-272080000D03*
X178720000Y-274080000D03*
X178720000Y-276080000D03*
G04 #@! TD*
D10*
G04 #@! TO.C,BT12*
X231029000Y-240421000D03*
X179929000Y-240421000D03*
G04 #@! TD*
D15*
G04 #@! TO.C,H1*
X84469848Y-257548072D03*
G04 #@! TD*
D10*
G04 #@! TO.C,BT2*
X148629000Y-212287000D03*
X97529000Y-212287000D03*
G04 #@! TD*
G04 #@! TO.C,BT8*
X231029000Y-127885000D03*
X179929000Y-127885000D03*
G04 #@! TD*
M02*
