G04 #@! TF.GenerationSoftware,KiCad,Pcbnew,8.0.5*
G04 #@! TF.CreationDate,2025-12-20T20:43:01-08:00*
G04 #@! TF.ProjectId,URBAN_CELL_BOARD,55524241-4e5f-4434-954c-4c5f424f4152,rev?*
G04 #@! TF.SameCoordinates,Original*
G04 #@! TF.FileFunction,Copper,L1,Top*
G04 #@! TF.FilePolarity,Positive*
%FSLAX46Y46*%
G04 Gerber Fmt 4.6, Leading zero omitted, Abs format (unit mm)*
G04 Created by KiCad (PCBNEW 8.0.5) date 2025-12-20 20:43:01*
%MOMM*%
%LPD*%
G01*
G04 APERTURE LIST*
G04 Aperture macros list*
%AMRoundRect*
0 Rectangle with rounded corners*
0 $1 Rounding radius*
0 $2 $3 $4 $5 $6 $7 $8 $9 X,Y pos of 4 corners*
0 Add a 4 corners polygon primitive as box body*
4,1,4,$2,$3,$4,$5,$6,$7,$8,$9,$2,$3,0*
0 Add four circle primitives for the rounded corners*
1,1,$1+$1,$2,$3*
1,1,$1+$1,$4,$5*
1,1,$1+$1,$6,$7*
1,1,$1+$1,$8,$9*
0 Add four rect primitives between the rounded corners*
20,1,$1+$1,$2,$3,$4,$5,0*
20,1,$1+$1,$4,$5,$6,$7,0*
20,1,$1+$1,$6,$7,$8,$9,0*
20,1,$1+$1,$8,$9,$2,$3,0*%
G04 Aperture macros list end*
G04 #@! TA.AperFunction,Conductor*
%ADD10C,0.200000*%
G04 #@! TD*
G04 #@! TA.AperFunction,ComponentPad*
%ADD11C,9.000000*%
G04 #@! TD*
G04 #@! TA.AperFunction,ComponentPad*
%ADD12C,1.950000*%
G04 #@! TD*
G04 #@! TA.AperFunction,ComponentPad*
%ADD13RoundRect,0.250001X1.099999X1.599999X-1.099999X1.599999X-1.099999X-1.599999X1.099999X-1.599999X0*%
G04 #@! TD*
G04 #@! TA.AperFunction,ComponentPad*
%ADD14O,2.700000X3.700000*%
G04 #@! TD*
G04 #@! TA.AperFunction,ComponentPad*
%ADD15C,1.200000*%
G04 #@! TD*
G04 #@! TA.AperFunction,SMDPad,CuDef*
%ADD16R,10.000000X10.000000*%
G04 #@! TD*
G04 #@! TA.AperFunction,Conductor*
%ADD17C,17.000000*%
G04 #@! TD*
G04 #@! TA.AperFunction,Conductor*
%ADD18C,0.250000*%
G04 #@! TD*
G04 #@! TA.AperFunction,Conductor*
%ADD19C,3.000000*%
G04 #@! TD*
G04 APERTURE END LIST*
D10*
G04 #@! TO.N,cell8+*
X247570000Y-137160000D02*
X228600000Y-121920000D01*
G04 #@! TD*
D11*
G04 #@! TO.P,BT6,1,+*
G04 #@! TO.N,cell6+*
X148629000Y-99751000D03*
G04 #@! TO.P,BT6,2,-*
G04 #@! TO.N,cell5+*
X97529000Y-99751000D03*
G04 #@! TD*
G04 #@! TO.P,BT7,1,+*
G04 #@! TO.N,cell7+*
X231029000Y-99751000D03*
G04 #@! TO.P,BT7,2,-*
G04 #@! TO.N,cell6+*
X179929000Y-99751000D03*
G04 #@! TD*
D12*
G04 #@! TO.P,J4,1,Pin_1*
G04 #@! TO.N,GND*
X119945000Y-267787500D03*
X119945000Y-275987500D03*
G04 #@! TD*
D11*
G04 #@! TO.P,BT5,1,+*
G04 #@! TO.N,cell5+*
X148629000Y-127885000D03*
G04 #@! TO.P,BT5,2,-*
G04 #@! TO.N,cell4+*
X97529000Y-127885000D03*
G04 #@! TD*
G04 #@! TO.P,BT9,1,+*
G04 #@! TO.N,cell9+*
X231029000Y-156019000D03*
G04 #@! TO.P,BT9,2,-*
G04 #@! TO.N,cell8+*
X179929000Y-156019000D03*
G04 #@! TD*
D12*
G04 #@! TO.P,J5,1,Pin_1*
G04 #@! TO.N,+48V*
X189675000Y-267875000D03*
X189675000Y-276075000D03*
G04 #@! TD*
D13*
G04 #@! TO.P,J1,1,Pin_1*
G04 #@! TO.N,GND*
X238760000Y-271145000D03*
D14*
G04 #@! TO.P,J1,2,Pin_2*
G04 #@! TO.N,cell2+*
X234560000Y-271145000D03*
G04 #@! TO.P,J1,3,Pin_3*
G04 #@! TO.N,cell4+*
X230360000Y-271145000D03*
G04 #@! TO.P,J1,4,Pin_4*
G04 #@! TO.N,cell6+*
X226160000Y-271145000D03*
G04 #@! TO.P,J1,5,Pin_5*
G04 #@! TO.N,cell8+*
X221960000Y-271145000D03*
G04 #@! TO.P,J1,6,Pin_6*
G04 #@! TO.N,cell9+*
X217760000Y-271145000D03*
G04 #@! TO.P,J1,7,Pin_7*
G04 #@! TO.N,cell11+*
X213560000Y-271145000D03*
G04 #@! TO.P,J1,8,Pin_8*
G04 #@! TO.N,+48V*
X209360000Y-271145000D03*
G04 #@! TO.P,J1,9,Pin_9*
X205160000Y-271145000D03*
G04 #@! TO.P,J1,10,Pin_10*
G04 #@! TO.N,cell1+*
X238760000Y-265645000D03*
G04 #@! TO.P,J1,11,Pin_11*
G04 #@! TO.N,cell3+*
X234560000Y-265645000D03*
G04 #@! TO.P,J1,12,Pin_12*
G04 #@! TO.N,cell5+*
X230360000Y-265645000D03*
G04 #@! TO.P,J1,13,Pin_13*
G04 #@! TO.N,cell7+*
X226160000Y-265645000D03*
G04 #@! TO.P,J1,14,Pin_14*
G04 #@! TO.N,cell8+*
X221960000Y-265645000D03*
G04 #@! TO.P,J1,15,Pin_15*
G04 #@! TO.N,cell10+*
X217760000Y-265645000D03*
G04 #@! TO.P,J1,16,Pin_16*
G04 #@! TO.N,+48V*
X213560000Y-265645000D03*
G04 #@! TO.P,J1,17,Pin_17*
X209360000Y-265645000D03*
G04 #@! TO.P,J1,18,Pin_18*
X205160000Y-265645000D03*
G04 #@! TD*
D11*
G04 #@! TO.P,BT3,1,+*
G04 #@! TO.N,cell3+*
X148629000Y-184153000D03*
G04 #@! TO.P,BT3,2,-*
G04 #@! TO.N,cell2+*
X97529000Y-184153000D03*
G04 #@! TD*
G04 #@! TO.P,BT10,1,+*
G04 #@! TO.N,cell10+*
X231029000Y-184153000D03*
G04 #@! TO.P,BT10,2,-*
G04 #@! TO.N,cell9+*
X179929000Y-184153000D03*
G04 #@! TD*
G04 #@! TO.P,BT4,1,+*
G04 #@! TO.N,cell4+*
X148629000Y-156019000D03*
G04 #@! TO.P,BT4,2,-*
G04 #@! TO.N,cell3+*
X97529000Y-156019000D03*
G04 #@! TD*
G04 #@! TO.P,BT11,1,+*
G04 #@! TO.N,cell11+*
X231029000Y-212287000D03*
G04 #@! TO.P,BT11,2,-*
G04 #@! TO.N,cell10+*
X179929000Y-212287000D03*
G04 #@! TD*
D15*
G04 #@! TO.P,J2,1,Pin_1*
G04 #@! TO.N,GND*
X131710000Y-268150000D03*
X131710000Y-270150000D03*
X131710000Y-272150000D03*
X131710000Y-274150000D03*
X131710000Y-276150000D03*
X133710000Y-268150000D03*
X133710000Y-276150000D03*
D16*
X135710000Y-272150000D03*
D15*
X135710001Y-268150000D03*
X135710001Y-276150000D03*
X137710000Y-268150000D03*
X137710000Y-276150000D03*
X139710000Y-268150000D03*
X139710000Y-270150000D03*
X139710000Y-272150000D03*
X139710000Y-274150000D03*
X139710000Y-276150000D03*
G04 #@! TD*
D11*
G04 #@! TO.P,BT1,1,+*
G04 #@! TO.N,cell1+*
X148629000Y-240421000D03*
G04 #@! TO.P,BT1,2,-*
G04 #@! TO.N,GND*
X97529000Y-240421000D03*
G04 #@! TD*
D15*
G04 #@! TO.P,J3,1,Pin_1*
G04 #@! TO.N,+48V*
X170720000Y-268080000D03*
X170720000Y-270080000D03*
X170720000Y-272080000D03*
X170720000Y-274080000D03*
X170720000Y-276080000D03*
X172720000Y-268080000D03*
X172720000Y-276080000D03*
D16*
X174720000Y-272080000D03*
D15*
X174720001Y-268080000D03*
X174720001Y-276080000D03*
X176720000Y-268080000D03*
X176720000Y-276080000D03*
X178720000Y-268080000D03*
X178720000Y-270080000D03*
X178720000Y-272080000D03*
X178720000Y-274080000D03*
X178720000Y-276080000D03*
G04 #@! TD*
D11*
G04 #@! TO.P,BT12,1,+*
G04 #@! TO.N,+48V*
X231029000Y-240421000D03*
G04 #@! TO.P,BT12,2,-*
G04 #@! TO.N,cell11+*
X179929000Y-240421000D03*
G04 #@! TD*
G04 #@! TO.P,BT2,1,+*
G04 #@! TO.N,cell2+*
X148629000Y-212287000D03*
G04 #@! TO.P,BT2,2,-*
G04 #@! TO.N,cell1+*
X97529000Y-212287000D03*
G04 #@! TD*
G04 #@! TO.P,BT8,1,+*
G04 #@! TO.N,cell8+*
X231029000Y-127885000D03*
G04 #@! TO.P,BT8,2,-*
G04 #@! TO.N,cell7+*
X179929000Y-127885000D03*
G04 #@! TD*
D17*
G04 #@! TO.N,cell1+*
X148629000Y-240421000D02*
X125663000Y-240421000D01*
X125663000Y-240421000D02*
X97529000Y-212287000D01*
G04 #@! TO.N,GND*
X135090000Y-272250000D02*
X142250000Y-272250000D01*
D18*
X129108000Y-272000000D02*
X132585000Y-272000000D01*
D17*
X97529000Y-240421000D02*
X129108000Y-272000000D01*
G04 #@! TO.N,cell2+*
X125663000Y-212287000D02*
X148629000Y-212287000D01*
X97529000Y-184153000D02*
X125663000Y-212287000D01*
D18*
G04 #@! TO.N,cell5+*
X230360000Y-265645000D02*
X230360000Y-264545000D01*
X230360000Y-264545000D02*
X248920000Y-245985000D01*
X243840000Y-86360000D02*
X110920000Y-86360000D01*
X248920000Y-245985000D02*
X248920000Y-91440000D01*
X110920000Y-86360000D02*
X97529000Y-99751000D01*
X248920000Y-91440000D02*
X243840000Y-86360000D01*
D17*
X97529000Y-99751000D02*
X125663000Y-127885000D01*
X148629000Y-127885000D02*
X125663000Y-127885000D01*
G04 #@! TO.N,cell4+*
X97529000Y-127885000D02*
X125663000Y-156019000D01*
X125663000Y-156019000D02*
X148629000Y-156019000D01*
D18*
G04 #@! TO.N,cell3+*
X233260000Y-265645000D02*
X234315000Y-265645000D01*
D17*
X97529000Y-156019000D02*
X125663000Y-184153000D01*
X125663000Y-184153000D02*
X148629000Y-184153000D01*
D18*
G04 #@! TO.N,cell6+*
X248470000Y-91626396D02*
X248470000Y-245798604D01*
X226695000Y-271145000D02*
X226160000Y-271145000D01*
X185661000Y-86810000D02*
X243653604Y-86810000D01*
X243653604Y-86810000D02*
X248470000Y-91626396D01*
X231894302Y-262374302D02*
X230385698Y-262374302D01*
X172720000Y-99751000D02*
X185661000Y-86810000D01*
X230385698Y-262374302D02*
X228600000Y-264160000D01*
D17*
X148629000Y-99751000D02*
X179929000Y-99751000D01*
D18*
X228600000Y-269240000D02*
X226695000Y-271145000D01*
X228600000Y-264160000D02*
X228600000Y-269240000D01*
X248470000Y-245798604D02*
X231894302Y-262374302D01*
G04 #@! TO.N,+48V*
X204915000Y-271145000D02*
X204915000Y-269845000D01*
X191795000Y-265645000D02*
X188000000Y-269440000D01*
X205160000Y-271145000D02*
X209360000Y-271145000D01*
X200715000Y-265645000D02*
X209115000Y-265645000D01*
X213560000Y-266700000D02*
X213560000Y-265645000D01*
X200715000Y-265645000D02*
X191795000Y-265645000D01*
X209360000Y-265645000D02*
X213560000Y-265645000D01*
D19*
X173397500Y-272270000D02*
X171450000Y-274217500D01*
D17*
X209159000Y-240421000D02*
X231029000Y-240421000D01*
D18*
X213315000Y-265645000D02*
X213880724Y-265645000D01*
D17*
X177580000Y-272000000D02*
X209159000Y-240421000D01*
D18*
X209115000Y-271145000D02*
X213560000Y-266700000D01*
D19*
X177310000Y-272270000D02*
X173397500Y-272270000D01*
D17*
X177830000Y-271750000D02*
X166000000Y-271750000D01*
D18*
G04 #@! TO.N,cell11+*
X216085000Y-264451192D02*
X217066192Y-263470000D01*
X233120812Y-257730000D02*
X246220000Y-244630812D01*
X213560000Y-271145000D02*
X216085000Y-268620000D01*
X246220000Y-227478000D02*
X231029000Y-212287000D01*
X217066192Y-263470000D02*
X218453808Y-263470000D01*
D17*
X208063000Y-212287000D02*
X179929000Y-240421000D01*
X231029000Y-212287000D02*
X208063000Y-212287000D01*
D18*
X224193808Y-257730000D02*
X233120812Y-257730000D01*
X216085000Y-268620000D02*
X216085000Y-264451192D01*
X218453808Y-263470000D02*
X224193808Y-257730000D01*
X246220000Y-244630812D02*
X246220000Y-227478000D01*
D17*
G04 #@! TO.N,cell7+*
X208063000Y-99751000D02*
X179929000Y-127885000D01*
D18*
X248020000Y-116742000D02*
X231029000Y-99751000D01*
D17*
X231029000Y-99751000D02*
X208063000Y-99751000D01*
D18*
X231707906Y-261924302D02*
X248020000Y-245612208D01*
X229880698Y-261924302D02*
X231707906Y-261924302D01*
X248020000Y-245612208D02*
X248020000Y-116742000D01*
X226160000Y-265645000D02*
X229880698Y-261924302D01*
G04 #@! TO.N,cell8+*
X233680000Y-259080000D02*
X228525000Y-259080000D01*
X221715000Y-264242208D02*
X221715000Y-265645000D01*
X228525000Y-259080000D02*
X221960000Y-265645000D01*
X247570000Y-245190000D02*
X247570000Y-137160000D01*
D17*
X208063000Y-127885000D02*
X179929000Y-156019000D01*
X231029000Y-127885000D02*
X208063000Y-127885000D01*
D18*
X221960000Y-265645000D02*
X221960000Y-271145000D01*
X233680000Y-259080000D02*
X247570000Y-245190000D01*
G04 #@! TO.N,cell9+*
X247120000Y-172110000D02*
X231029000Y-156019000D01*
X217760000Y-271145000D02*
X220285000Y-268620000D01*
D17*
X231029000Y-156019000D02*
X208063000Y-156019000D01*
D18*
X220285000Y-268620000D02*
X220285000Y-264451192D01*
D17*
X208063000Y-156019000D02*
X179929000Y-184153000D01*
D18*
X220285000Y-264451192D02*
X226106192Y-258630000D01*
X233493604Y-258630000D02*
X247120000Y-245003604D01*
X226106192Y-258630000D02*
X233493604Y-258630000D01*
X247120000Y-245003604D02*
X247120000Y-172110000D01*
G04 #@! TO.N,cell10+*
X217515000Y-265645000D02*
X224980000Y-258180000D01*
D17*
X208063000Y-184153000D02*
X179929000Y-212287000D01*
D18*
X246670000Y-244817208D02*
X246670000Y-199794000D01*
X233307208Y-258180000D02*
X246670000Y-244817208D01*
X246670000Y-199794000D02*
X231029000Y-184153000D01*
D17*
X231029000Y-184153000D02*
X208063000Y-184153000D01*
D18*
X224980000Y-258180000D02*
X233307208Y-258180000D01*
G04 #@! TD*
G04 #@! TA.AperFunction,Conductor*
G04 #@! TO.N,+48V*
G36*
X196612121Y-253020002D02*
G01*
X196658614Y-253073658D01*
X196670000Y-253126000D01*
X196670000Y-280909000D01*
X196649998Y-280977121D01*
X196596342Y-281023614D01*
X196544000Y-281035000D01*
X156376000Y-281035000D01*
X156307879Y-281014998D01*
X156261386Y-280961342D01*
X156250000Y-280909000D01*
X156250000Y-271911494D01*
X171719500Y-271911494D01*
X171719500Y-272248505D01*
X171757233Y-272583398D01*
X171801590Y-272777737D01*
X171832224Y-272911954D01*
X171832226Y-272911960D01*
X171832225Y-272911960D01*
X171943524Y-273230033D01*
X171943535Y-273230060D01*
X172089751Y-273533681D01*
X172089756Y-273533690D01*
X172269051Y-273819036D01*
X172479177Y-274082526D01*
X172717473Y-274320822D01*
X172980963Y-274530948D01*
X173266309Y-274710243D01*
X173266314Y-274710246D01*
X173569949Y-274856469D01*
X173569965Y-274856474D01*
X173569966Y-274856475D01*
X173888039Y-274967774D01*
X173888042Y-274967774D01*
X173888046Y-274967776D01*
X174131239Y-275023282D01*
X174216601Y-275042766D01*
X174216602Y-275042766D01*
X174216606Y-275042767D01*
X174437492Y-275067654D01*
X174551494Y-275080500D01*
X174551496Y-275080500D01*
X174888506Y-275080500D01*
X174985925Y-275069523D01*
X175223394Y-275042767D01*
X175551954Y-274967776D01*
X175870051Y-274856469D01*
X176173686Y-274710246D01*
X176459039Y-274530946D01*
X176722523Y-274320825D01*
X176960825Y-274082523D01*
X177170946Y-273819039D01*
X177350246Y-273533686D01*
X177496469Y-273230051D01*
X177607776Y-272911954D01*
X177682767Y-272583394D01*
X177720500Y-272248504D01*
X177720500Y-271911496D01*
X177682767Y-271576606D01*
X177607776Y-271248046D01*
X177496469Y-270929949D01*
X177350246Y-270626314D01*
X177350243Y-270626309D01*
X177170948Y-270340963D01*
X176960822Y-270077473D01*
X176722526Y-269839177D01*
X176459036Y-269629051D01*
X176173690Y-269449756D01*
X176173681Y-269449751D01*
X175870060Y-269303535D01*
X175870055Y-269303533D01*
X175870051Y-269303531D01*
X175870045Y-269303528D01*
X175870033Y-269303524D01*
X175551960Y-269192225D01*
X175223398Y-269117233D01*
X174888506Y-269079500D01*
X174888504Y-269079500D01*
X174551496Y-269079500D01*
X174551494Y-269079500D01*
X174216601Y-269117233D01*
X173888039Y-269192225D01*
X173569966Y-269303524D01*
X173569939Y-269303535D01*
X173266318Y-269449751D01*
X173266309Y-269449756D01*
X172980963Y-269629051D01*
X172717473Y-269839177D01*
X172479177Y-270077473D01*
X172269051Y-270340963D01*
X172089756Y-270626309D01*
X172089751Y-270626318D01*
X171943535Y-270929939D01*
X171943524Y-270929966D01*
X171832225Y-271248039D01*
X171757233Y-271576601D01*
X171719500Y-271911494D01*
X156250000Y-271911494D01*
X156250000Y-253126000D01*
X156270002Y-253057879D01*
X156323658Y-253011386D01*
X156376000Y-253000000D01*
X196544000Y-253000000D01*
X196612121Y-253020002D01*
G37*
G04 #@! TD.AperFunction*
G04 #@! TD*
G04 #@! TA.AperFunction,Conductor*
G04 #@! TO.N,GND*
G36*
X153477121Y-252985002D02*
G01*
X153523614Y-253038658D01*
X153535000Y-253091000D01*
X153535000Y-281458000D01*
X153514998Y-281526121D01*
X153461342Y-281572614D01*
X153409000Y-281584000D01*
X130945563Y-281584000D01*
X130942491Y-281583963D01*
X112622928Y-281137144D01*
X112555315Y-281115486D01*
X112510144Y-281060713D01*
X112500000Y-281011181D01*
X112500000Y-271981494D01*
X132709500Y-271981494D01*
X132709500Y-272318505D01*
X132747233Y-272653398D01*
X132791590Y-272847737D01*
X132822224Y-272981954D01*
X132822226Y-272981960D01*
X132822225Y-272981960D01*
X132933524Y-273300033D01*
X132933535Y-273300060D01*
X133079751Y-273603681D01*
X133079756Y-273603690D01*
X133259051Y-273889036D01*
X133469177Y-274152526D01*
X133707473Y-274390822D01*
X133970963Y-274600948D01*
X134256309Y-274780243D01*
X134256314Y-274780246D01*
X134559949Y-274926469D01*
X134559965Y-274926474D01*
X134559966Y-274926475D01*
X134878039Y-275037774D01*
X134878042Y-275037774D01*
X134878046Y-275037776D01*
X135121239Y-275093282D01*
X135206601Y-275112766D01*
X135206602Y-275112766D01*
X135206606Y-275112767D01*
X135427492Y-275137654D01*
X135541494Y-275150500D01*
X135541496Y-275150500D01*
X135878506Y-275150500D01*
X135975925Y-275139523D01*
X136213394Y-275112767D01*
X136541954Y-275037776D01*
X136860051Y-274926469D01*
X137163686Y-274780246D01*
X137449039Y-274600946D01*
X137712523Y-274390825D01*
X137950825Y-274152523D01*
X138160946Y-273889039D01*
X138340246Y-273603686D01*
X138486469Y-273300051D01*
X138597776Y-272981954D01*
X138672767Y-272653394D01*
X138710500Y-272318504D01*
X138710500Y-271981496D01*
X138672767Y-271646606D01*
X138597776Y-271318046D01*
X138486469Y-270999949D01*
X138340246Y-270696314D01*
X138340243Y-270696309D01*
X138160948Y-270410963D01*
X137950822Y-270147473D01*
X137712526Y-269909177D01*
X137449036Y-269699051D01*
X137163690Y-269519756D01*
X137163681Y-269519751D01*
X136860060Y-269373535D01*
X136860055Y-269373533D01*
X136860051Y-269373531D01*
X136860045Y-269373528D01*
X136860033Y-269373524D01*
X136541960Y-269262225D01*
X136213398Y-269187233D01*
X135878506Y-269149500D01*
X135878504Y-269149500D01*
X135541496Y-269149500D01*
X135541494Y-269149500D01*
X135206601Y-269187233D01*
X134878039Y-269262225D01*
X134559966Y-269373524D01*
X134559939Y-269373535D01*
X134256318Y-269519751D01*
X134256309Y-269519756D01*
X133970963Y-269699051D01*
X133707473Y-269909177D01*
X133469177Y-270147473D01*
X133259051Y-270410963D01*
X133079756Y-270696309D01*
X133079751Y-270696318D01*
X132933535Y-270999939D01*
X132933524Y-270999966D01*
X132822225Y-271318039D01*
X132747233Y-271646601D01*
X132709500Y-271981494D01*
X112500000Y-271981494D01*
X112500000Y-253091000D01*
X112520002Y-253022879D01*
X112573658Y-252976386D01*
X112626000Y-252965000D01*
X153409000Y-252965000D01*
X153477121Y-252985002D01*
G37*
G04 #@! TD.AperFunction*
G04 #@! TD*
M02*
