G04 #@! TF.GenerationSoftware,KiCad,Pcbnew,8.0.5*
G04 #@! TF.CreationDate,2025-12-20T20:43:01-08:00*
G04 #@! TF.ProjectId,URBAN_CELL_BOARD,55524241-4e5f-4434-954c-4c5f424f4152,rev?*
G04 #@! TF.SameCoordinates,Original*
G04 #@! TF.FileFunction,Copper,L2,Bot*
G04 #@! TF.FilePolarity,Positive*
%FSLAX46Y46*%
G04 Gerber Fmt 4.6, Leading zero omitted, Abs format (unit mm)*
G04 Created by KiCad (PCBNEW 8.0.5) date 2025-12-20 20:43:01*
%MOMM*%
%LPD*%
G01*
G04 APERTURE LIST*
G04 Aperture macros list*
%AMRoundRect*
0 Rectangle with rounded corners*
0 $1 Rounding radius*
0 $2 $3 $4 $5 $6 $7 $8 $9 X,Y pos of 4 corners*
0 Add a 4 corners polygon primitive as box body*
4,1,4,$2,$3,$4,$5,$6,$7,$8,$9,$2,$3,0*
0 Add four circle primitives for the rounded corners*
1,1,$1+$1,$2,$3*
1,1,$1+$1,$4,$5*
1,1,$1+$1,$6,$7*
1,1,$1+$1,$8,$9*
0 Add four rect primitives between the rounded corners*
20,1,$1+$1,$2,$3,$4,$5,0*
20,1,$1+$1,$4,$5,$6,$7,0*
20,1,$1+$1,$6,$7,$8,$9,0*
20,1,$1+$1,$8,$9,$2,$3,0*%
G04 Aperture macros list end*
G04 #@! TA.AperFunction,ComponentPad*
%ADD10C,9.000000*%
G04 #@! TD*
G04 #@! TA.AperFunction,SMDPad,CuDef*
%ADD11R,15.000000X14.000000*%
G04 #@! TD*
G04 #@! TA.AperFunction,ComponentPad*
%ADD12C,1.950000*%
G04 #@! TD*
G04 #@! TA.AperFunction,ComponentPad*
%ADD13RoundRect,0.250001X1.099999X1.599999X-1.099999X1.599999X-1.099999X-1.599999X1.099999X-1.599999X0*%
G04 #@! TD*
G04 #@! TA.AperFunction,ComponentPad*
%ADD14O,2.700000X3.700000*%
G04 #@! TD*
G04 #@! TA.AperFunction,ComponentPad*
%ADD15C,1.200000*%
G04 #@! TD*
G04 #@! TA.AperFunction,Conductor*
%ADD16C,0.250000*%
G04 #@! TD*
G04 #@! TA.AperFunction,Conductor*
%ADD17C,17.000000*%
G04 #@! TD*
G04 #@! TA.AperFunction,Conductor*
%ADD18C,16.000000*%
G04 #@! TD*
G04 #@! TA.AperFunction,Conductor*
%ADD19C,3.000000*%
G04 #@! TD*
G04 APERTURE END LIST*
D10*
G04 #@! TO.P,BT6,1,+*
G04 #@! TO.N,cell6+*
X148629000Y-99751000D03*
D11*
X148629000Y-99751000D03*
D10*
G04 #@! TO.P,BT6,2,-*
G04 #@! TO.N,cell5+*
X97529000Y-99751000D03*
D11*
X97529000Y-99751000D03*
G04 #@! TD*
D10*
G04 #@! TO.P,BT7,1,+*
G04 #@! TO.N,cell7+*
X231029000Y-99751000D03*
D11*
X231029000Y-99751000D03*
D10*
G04 #@! TO.P,BT7,2,-*
G04 #@! TO.N,cell6+*
X179929000Y-99751000D03*
D11*
X179929000Y-99751000D03*
G04 #@! TD*
D12*
G04 #@! TO.P,J4,1,Pin_1*
G04 #@! TO.N,GND*
X119945000Y-267787500D03*
X119945000Y-275987500D03*
G04 #@! TD*
D10*
G04 #@! TO.P,BT5,1,+*
G04 #@! TO.N,cell5+*
X148629000Y-127885000D03*
D11*
X148629000Y-127885000D03*
D10*
G04 #@! TO.P,BT5,2,-*
G04 #@! TO.N,cell4+*
X97529000Y-127885000D03*
D11*
X97529000Y-127885000D03*
G04 #@! TD*
D10*
G04 #@! TO.P,BT9,1,+*
G04 #@! TO.N,cell9+*
X231029000Y-156019000D03*
D11*
X231029000Y-156019000D03*
D10*
G04 #@! TO.P,BT9,2,-*
G04 #@! TO.N,cell8+*
X179929000Y-156019000D03*
D11*
X179929000Y-156019000D03*
G04 #@! TD*
D12*
G04 #@! TO.P,J5,1,Pin_1*
G04 #@! TO.N,+48V*
X189675000Y-267875000D03*
X189675000Y-276075000D03*
G04 #@! TD*
D13*
G04 #@! TO.P,J1,1,Pin_1*
G04 #@! TO.N,GND*
X238760000Y-271145000D03*
D14*
G04 #@! TO.P,J1,2,Pin_2*
G04 #@! TO.N,cell2+*
X234560000Y-271145000D03*
G04 #@! TO.P,J1,3,Pin_3*
G04 #@! TO.N,cell4+*
X230360000Y-271145000D03*
G04 #@! TO.P,J1,4,Pin_4*
G04 #@! TO.N,cell6+*
X226160000Y-271145000D03*
G04 #@! TO.P,J1,5,Pin_5*
G04 #@! TO.N,cell8+*
X221960000Y-271145000D03*
G04 #@! TO.P,J1,6,Pin_6*
G04 #@! TO.N,cell9+*
X217760000Y-271145000D03*
G04 #@! TO.P,J1,7,Pin_7*
G04 #@! TO.N,cell11+*
X213560000Y-271145000D03*
G04 #@! TO.P,J1,8,Pin_8*
G04 #@! TO.N,+48V*
X209360000Y-271145000D03*
G04 #@! TO.P,J1,9,Pin_9*
X205160000Y-271145000D03*
G04 #@! TO.P,J1,10,Pin_10*
G04 #@! TO.N,cell1+*
X238760000Y-265645000D03*
G04 #@! TO.P,J1,11,Pin_11*
G04 #@! TO.N,cell3+*
X234560000Y-265645000D03*
G04 #@! TO.P,J1,12,Pin_12*
G04 #@! TO.N,cell5+*
X230360000Y-265645000D03*
G04 #@! TO.P,J1,13,Pin_13*
G04 #@! TO.N,cell7+*
X226160000Y-265645000D03*
G04 #@! TO.P,J1,14,Pin_14*
G04 #@! TO.N,cell8+*
X221960000Y-265645000D03*
G04 #@! TO.P,J1,15,Pin_15*
G04 #@! TO.N,cell10+*
X217760000Y-265645000D03*
G04 #@! TO.P,J1,16,Pin_16*
G04 #@! TO.N,+48V*
X213560000Y-265645000D03*
G04 #@! TO.P,J1,17,Pin_17*
X209360000Y-265645000D03*
G04 #@! TO.P,J1,18,Pin_18*
X205160000Y-265645000D03*
G04 #@! TD*
D10*
G04 #@! TO.P,BT3,1,+*
G04 #@! TO.N,cell3+*
X148629000Y-184153000D03*
D11*
X148629000Y-184153000D03*
D10*
G04 #@! TO.P,BT3,2,-*
G04 #@! TO.N,cell2+*
X97529000Y-184153000D03*
D11*
X97529000Y-184153000D03*
G04 #@! TD*
D10*
G04 #@! TO.P,BT10,1,+*
G04 #@! TO.N,cell10+*
X231029000Y-184153000D03*
D11*
X231029000Y-184153000D03*
D10*
G04 #@! TO.P,BT10,2,-*
G04 #@! TO.N,cell9+*
X179929000Y-184153000D03*
D11*
X179929000Y-184153000D03*
G04 #@! TD*
D10*
G04 #@! TO.P,BT4,1,+*
G04 #@! TO.N,cell4+*
X148629000Y-156019000D03*
D11*
X148629000Y-156019000D03*
D10*
G04 #@! TO.P,BT4,2,-*
G04 #@! TO.N,cell3+*
X97529000Y-156019000D03*
D11*
X97529000Y-156019000D03*
G04 #@! TD*
D10*
G04 #@! TO.P,BT11,1,+*
G04 #@! TO.N,cell11+*
X231029000Y-212287000D03*
D11*
X231029000Y-212287000D03*
D10*
G04 #@! TO.P,BT11,2,-*
G04 #@! TO.N,cell10+*
X179929000Y-212287000D03*
D11*
X179929000Y-212287000D03*
G04 #@! TD*
D15*
G04 #@! TO.P,J2,1,Pin_1*
G04 #@! TO.N,GND*
X131710000Y-268150000D03*
X131710000Y-270150000D03*
X131710000Y-272150000D03*
X131710000Y-274150000D03*
X131710000Y-276150000D03*
X133710000Y-268150000D03*
X133710000Y-276150000D03*
X135710001Y-268150000D03*
X135710001Y-276150000D03*
X137710000Y-268150000D03*
X137710000Y-276150000D03*
X139710000Y-268150000D03*
X139710000Y-270150000D03*
X139710000Y-272150000D03*
X139710000Y-274150000D03*
X139710000Y-276150000D03*
G04 #@! TD*
D10*
G04 #@! TO.P,BT1,1,+*
G04 #@! TO.N,cell1+*
X148629000Y-240421000D03*
D11*
X148629000Y-240421000D03*
D10*
G04 #@! TO.P,BT1,2,-*
G04 #@! TO.N,GND*
X97529000Y-240421000D03*
D11*
X97529000Y-240421000D03*
G04 #@! TD*
D15*
G04 #@! TO.P,J3,1,Pin_1*
G04 #@! TO.N,+48V*
X170720000Y-268080000D03*
X170720000Y-270080000D03*
X170720000Y-272080000D03*
X170720000Y-274080000D03*
X170720000Y-276080000D03*
X172720000Y-268080000D03*
X172720000Y-276080000D03*
X174720001Y-268080000D03*
X174720001Y-276080000D03*
X176720000Y-268080000D03*
X176720000Y-276080000D03*
X178720000Y-268080000D03*
X178720000Y-270080000D03*
X178720000Y-272080000D03*
X178720000Y-274080000D03*
X178720000Y-276080000D03*
G04 #@! TD*
D10*
G04 #@! TO.P,BT12,1,+*
G04 #@! TO.N,+48V*
X231029000Y-240421000D03*
D11*
X231029000Y-240421000D03*
D10*
G04 #@! TO.P,BT12,2,-*
G04 #@! TO.N,cell11+*
X179929000Y-240421000D03*
D11*
X179929000Y-240421000D03*
G04 #@! TD*
D10*
G04 #@! TO.P,BT2,1,+*
G04 #@! TO.N,cell2+*
X148629000Y-212287000D03*
D11*
X148629000Y-212287000D03*
D10*
G04 #@! TO.P,BT2,2,-*
G04 #@! TO.N,cell1+*
X97529000Y-212287000D03*
D11*
X97529000Y-212287000D03*
G04 #@! TD*
D10*
G04 #@! TO.P,BT8,1,+*
G04 #@! TO.N,cell8+*
X231029000Y-127885000D03*
D11*
X231029000Y-127885000D03*
D10*
G04 #@! TO.P,BT8,2,-*
G04 #@! TO.N,cell7+*
X179929000Y-127885000D03*
D11*
X179929000Y-127885000D03*
G04 #@! TD*
D16*
G04 #@! TO.N,cell1+*
X238760000Y-265645000D02*
X236235000Y-268170000D01*
X238760000Y-265645000D02*
X239354000Y-265051000D01*
D17*
X97529000Y-212287000D02*
X125663000Y-240421000D01*
D16*
X236235000Y-272338808D02*
X234353808Y-274220000D01*
D18*
X97529000Y-212287000D02*
X98550634Y-212287000D01*
D16*
X207585529Y-228600000D02*
X185322170Y-250863359D01*
X159071359Y-250863359D02*
X148629000Y-240421000D01*
X236235000Y-268170000D02*
X236235000Y-272338808D01*
X238760000Y-228600000D02*
X207585529Y-228600000D01*
X226366192Y-274220000D02*
X224313400Y-272167208D01*
X234353808Y-274220000D02*
X226366192Y-274220000D01*
X224313400Y-272167208D02*
X224313400Y-263366600D01*
X243840000Y-233680000D02*
X238760000Y-228600000D01*
X224313400Y-263366600D02*
X243840000Y-243840000D01*
D17*
X125663000Y-240421000D02*
X148629000Y-240421000D01*
D16*
X243840000Y-243840000D02*
X243840000Y-233680000D01*
X185322170Y-250863359D02*
X159071359Y-250863359D01*
D19*
G04 #@! TO.N,GND*
X144095000Y-271635000D02*
X143510000Y-271635000D01*
D16*
X130175000Y-267335000D02*
X127000000Y-264160000D01*
D17*
X97529000Y-240421000D02*
X129108000Y-272000000D01*
X135090000Y-272250000D02*
X142250000Y-272250000D01*
D16*
X238760000Y-271145000D02*
X228889189Y-281015811D01*
D19*
X154500000Y-279500000D02*
X151960000Y-279500000D01*
X151960000Y-279500000D02*
X144095000Y-271635000D01*
D16*
X228889189Y-281015811D02*
X156015811Y-281015811D01*
X156015811Y-281015811D02*
X154500000Y-279500000D01*
G04 #@! TO.N,cell2+*
X231935000Y-273770000D02*
X234560000Y-271145000D01*
X248020000Y-207380000D02*
X248020000Y-243467208D01*
X159862000Y-223520000D02*
X184008060Y-223520000D01*
D17*
X125663000Y-212287000D02*
X148629000Y-212287000D01*
X97529000Y-184153000D02*
X125663000Y-212287000D01*
D16*
X184008060Y-223520000D02*
X209408060Y-198120000D01*
X248020000Y-243467208D02*
X228235000Y-263252208D01*
X238760000Y-198120000D02*
X248020000Y-207380000D01*
X228235000Y-272525204D02*
X229479796Y-273770000D01*
X148629000Y-212287000D02*
X159862000Y-223520000D01*
X229479796Y-273770000D02*
X231935000Y-273770000D01*
X228235000Y-263252208D02*
X228235000Y-272525204D01*
X209408060Y-198120000D02*
X238760000Y-198120000D01*
G04 #@! TO.N,cell5+*
X148629000Y-127885000D02*
X151515000Y-127885000D01*
D17*
X148629000Y-127885000D02*
X125663000Y-127885000D01*
X125663000Y-127885000D02*
X97529000Y-99751000D01*
D16*
G04 #@! TO.N,cell4+*
X248920000Y-243840000D02*
X248920000Y-121920000D01*
X230360000Y-271145000D02*
X232035000Y-269470000D01*
X206389344Y-116840000D02*
X180989344Y-142240000D01*
D17*
X125663000Y-156019000D02*
X148629000Y-156019000D01*
D16*
X232035000Y-269470000D02*
X232035000Y-260725000D01*
X180989344Y-142240000D02*
X162408000Y-142240000D01*
X248920000Y-121920000D02*
X243840000Y-116840000D01*
X162408000Y-142240000D02*
X148629000Y-156019000D01*
D17*
X97529000Y-127885000D02*
X125663000Y-156019000D01*
D16*
X243840000Y-116840000D02*
X206389344Y-116840000D01*
X232035000Y-260725000D02*
X248920000Y-243840000D01*
G04 #@! TO.N,cell3+*
X156191372Y-176590628D02*
X174652981Y-176590628D01*
X229666192Y-273320000D02*
X231053808Y-273320000D01*
X248470000Y-146870000D02*
X248470000Y-243653604D01*
X148629000Y-184153000D02*
X156191372Y-176590628D01*
X228685000Y-272338808D02*
X229666192Y-273320000D01*
D17*
X97529000Y-156019000D02*
X125663000Y-184153000D01*
D16*
X203561805Y-147681805D02*
X203923609Y-147320000D01*
X232035000Y-270106396D02*
X234560000Y-267581396D01*
X148629000Y-184153000D02*
X156207000Y-184153000D01*
X228685000Y-263438604D02*
X228685000Y-272338808D01*
X231053808Y-273320000D02*
X232035000Y-272338808D01*
X209003609Y-142240000D02*
X243840000Y-142240000D01*
X234560000Y-267581396D02*
X234560000Y-265645000D01*
X203923609Y-147320000D02*
X209003609Y-142240000D01*
X174652981Y-176590628D02*
X203561805Y-147681805D01*
D17*
X125663000Y-184153000D02*
X148629000Y-184153000D01*
D16*
X232035000Y-272338808D02*
X232035000Y-270106396D01*
X243840000Y-142240000D02*
X248470000Y-146870000D01*
X248470000Y-243653604D02*
X228685000Y-263438604D01*
D17*
G04 #@! TO.N,cell6+*
X148629000Y-99751000D02*
X179929000Y-99751000D01*
G04 #@! TO.N,+48V*
X177830000Y-271750000D02*
X166000000Y-271750000D01*
X209159000Y-240421000D02*
X231029000Y-240421000D01*
X209159000Y-240421000D02*
X177830000Y-271750000D01*
G04 #@! TO.N,cell11+*
X208063000Y-212287000D02*
X179929000Y-240421000D01*
X231029000Y-212287000D02*
X208063000Y-212287000D01*
G04 #@! TO.N,cell7+*
X231029000Y-99751000D02*
X208063000Y-99751000D01*
X208063000Y-99751000D02*
X179929000Y-127885000D01*
G04 #@! TO.N,cell8+*
X179929000Y-156019000D02*
X208063000Y-127885000D01*
X208063000Y-127885000D02*
X231029000Y-127885000D01*
G04 #@! TO.N,cell9+*
X208063000Y-156019000D02*
X231029000Y-156019000D01*
X179929000Y-184153000D02*
X208063000Y-156019000D01*
G04 #@! TO.N,cell10+*
X208063000Y-184153000D02*
X231029000Y-184153000D01*
X179929000Y-212287000D02*
X208063000Y-184153000D01*
G04 #@! TD*
G04 #@! TA.AperFunction,Conductor*
G04 #@! TO.N,+48V*
G36*
X196442121Y-252985002D02*
G01*
X196488614Y-253038658D01*
X196500000Y-253091000D01*
X196500000Y-280256311D01*
X196479998Y-280324432D01*
X196426342Y-280370925D01*
X196374000Y-280382311D01*
X156497092Y-280382311D01*
X156428971Y-280362309D01*
X156382478Y-280308653D01*
X156372374Y-280238379D01*
X156380683Y-280208093D01*
X156405990Y-280146997D01*
X156474134Y-279892680D01*
X156508500Y-279631644D01*
X156508500Y-279368356D01*
X156474134Y-279107320D01*
X156405990Y-278853003D01*
X156305234Y-278609757D01*
X156305228Y-278609748D01*
X156305227Y-278609744D01*
X156173592Y-278381746D01*
X156106037Y-278293706D01*
X156080437Y-278227485D01*
X156080000Y-278217002D01*
X156080000Y-271911494D01*
X171719500Y-271911494D01*
X171719500Y-272248505D01*
X171757233Y-272583398D01*
X171801590Y-272777737D01*
X171832224Y-272911954D01*
X171832226Y-272911960D01*
X171832225Y-272911960D01*
X171943524Y-273230033D01*
X171943535Y-273230060D01*
X172089751Y-273533681D01*
X172089756Y-273533690D01*
X172269051Y-273819036D01*
X172479177Y-274082526D01*
X172717473Y-274320822D01*
X172980963Y-274530948D01*
X173266309Y-274710243D01*
X173266314Y-274710246D01*
X173569949Y-274856469D01*
X173569965Y-274856474D01*
X173569966Y-274856475D01*
X173888039Y-274967774D01*
X173888042Y-274967774D01*
X173888046Y-274967776D01*
X174131239Y-275023282D01*
X174216601Y-275042766D01*
X174216602Y-275042766D01*
X174216606Y-275042767D01*
X174437492Y-275067654D01*
X174551494Y-275080500D01*
X174551496Y-275080500D01*
X174888506Y-275080500D01*
X174985925Y-275069523D01*
X175223394Y-275042767D01*
X175551954Y-274967776D01*
X175870051Y-274856469D01*
X176173686Y-274710246D01*
X176459039Y-274530946D01*
X176722523Y-274320825D01*
X176960825Y-274082523D01*
X177170946Y-273819039D01*
X177350246Y-273533686D01*
X177496469Y-273230051D01*
X177607776Y-272911954D01*
X177682767Y-272583394D01*
X177720500Y-272248504D01*
X177720500Y-271911496D01*
X177682767Y-271576606D01*
X177607776Y-271248046D01*
X177496469Y-270929949D01*
X177350246Y-270626314D01*
X177350243Y-270626309D01*
X177170948Y-270340963D01*
X176960822Y-270077473D01*
X176722526Y-269839177D01*
X176459036Y-269629051D01*
X176173690Y-269449756D01*
X176173681Y-269449751D01*
X175870060Y-269303535D01*
X175870055Y-269303533D01*
X175870051Y-269303531D01*
X175870045Y-269303528D01*
X175870033Y-269303524D01*
X175551960Y-269192225D01*
X175223398Y-269117233D01*
X174888506Y-269079500D01*
X174888504Y-269079500D01*
X174551496Y-269079500D01*
X174551494Y-269079500D01*
X174216601Y-269117233D01*
X173888039Y-269192225D01*
X173569966Y-269303524D01*
X173569939Y-269303535D01*
X173266318Y-269449751D01*
X173266309Y-269449756D01*
X172980963Y-269629051D01*
X172717473Y-269839177D01*
X172479177Y-270077473D01*
X172269051Y-270340963D01*
X172089756Y-270626309D01*
X172089751Y-270626318D01*
X171943535Y-270929939D01*
X171943524Y-270929966D01*
X171832225Y-271248039D01*
X171757233Y-271576601D01*
X171719500Y-271911494D01*
X156080000Y-271911494D01*
X156080000Y-253091000D01*
X156100002Y-253022879D01*
X156153658Y-252976386D01*
X156206000Y-252965000D01*
X196374000Y-252965000D01*
X196442121Y-252985002D01*
G37*
G04 #@! TD.AperFunction*
G04 #@! TD*
G04 #@! TA.AperFunction,Conductor*
G04 #@! TO.N,GND*
G36*
X153442121Y-252770002D02*
G01*
X153488614Y-252823658D01*
X153500000Y-252876000D01*
X153500000Y-281159000D01*
X153479998Y-281227121D01*
X153426342Y-281273614D01*
X153374000Y-281285000D01*
X112591000Y-281285000D01*
X112522879Y-281264998D01*
X112476386Y-281211342D01*
X112465000Y-281159000D01*
X112465000Y-271981494D01*
X132709500Y-271981494D01*
X132709500Y-272318505D01*
X132747233Y-272653398D01*
X132791590Y-272847737D01*
X132822224Y-272981954D01*
X132822226Y-272981960D01*
X132822225Y-272981960D01*
X132933524Y-273300033D01*
X132933535Y-273300060D01*
X133079751Y-273603681D01*
X133079756Y-273603690D01*
X133259051Y-273889036D01*
X133469177Y-274152526D01*
X133707473Y-274390822D01*
X133970963Y-274600948D01*
X134256309Y-274780243D01*
X134256314Y-274780246D01*
X134559949Y-274926469D01*
X134559965Y-274926474D01*
X134559966Y-274926475D01*
X134878039Y-275037774D01*
X134878042Y-275037774D01*
X134878046Y-275037776D01*
X135121239Y-275093282D01*
X135206601Y-275112766D01*
X135206602Y-275112766D01*
X135206606Y-275112767D01*
X135427492Y-275137654D01*
X135541494Y-275150500D01*
X135541496Y-275150500D01*
X135878506Y-275150500D01*
X135975925Y-275139523D01*
X136213394Y-275112767D01*
X136541954Y-275037776D01*
X136860051Y-274926469D01*
X137163686Y-274780246D01*
X137449039Y-274600946D01*
X137712523Y-274390825D01*
X137950825Y-274152523D01*
X138160946Y-273889039D01*
X138340246Y-273603686D01*
X138486469Y-273300051D01*
X138597776Y-272981954D01*
X138672767Y-272653394D01*
X138710500Y-272318504D01*
X138710500Y-271981496D01*
X138672767Y-271646606D01*
X138597776Y-271318046D01*
X138486469Y-270999949D01*
X138340246Y-270696314D01*
X138340243Y-270696309D01*
X138160948Y-270410963D01*
X137950822Y-270147473D01*
X137712526Y-269909177D01*
X137449036Y-269699051D01*
X137163690Y-269519756D01*
X137163681Y-269519751D01*
X136860060Y-269373535D01*
X136860055Y-269373533D01*
X136860051Y-269373531D01*
X136860045Y-269373528D01*
X136860033Y-269373524D01*
X136541960Y-269262225D01*
X136213398Y-269187233D01*
X135878506Y-269149500D01*
X135878504Y-269149500D01*
X135541496Y-269149500D01*
X135541494Y-269149500D01*
X135206601Y-269187233D01*
X134878039Y-269262225D01*
X134559966Y-269373524D01*
X134559939Y-269373535D01*
X134256318Y-269519751D01*
X134256309Y-269519756D01*
X133970963Y-269699051D01*
X133707473Y-269909177D01*
X133469177Y-270147473D01*
X133259051Y-270410963D01*
X133079756Y-270696309D01*
X133079751Y-270696318D01*
X132933535Y-270999939D01*
X132933524Y-270999966D01*
X132822225Y-271318039D01*
X132747233Y-271646601D01*
X132709500Y-271981494D01*
X112465000Y-271981494D01*
X112465000Y-252876000D01*
X112485002Y-252807879D01*
X112538658Y-252761386D01*
X112591000Y-252750000D01*
X153374000Y-252750000D01*
X153442121Y-252770002D01*
G37*
G04 #@! TD.AperFunction*
G04 #@! TD*
M02*
