%TF.GenerationSoftware,KiCad,Pcbnew,8.0.5*%
%TF.CreationDate,2025-12-20T20:44:51-08:00*%
%TF.ProjectId,URBAN_CELL_BOARD,55524241-4e5f-4434-954c-4c5f424f4152,rev?*%
%TF.SameCoordinates,Original*%
%TF.FileFunction,Drillmap*%
%TF.FilePolarity,Positive*%
%FSLAX45Y45*%
G04 Gerber Fmt 4.5, Leading zero omitted, Abs format (unit mm)*
G04 Created by KiCad (PCBNEW 8.0.5) date 2025-12-20 20:44:51*
%MOMM*%
%LPD*%
G01*
G04 APERTURE LIST*
%ADD10C,0.100000*%
%ADD11C,0.200000*%
%ADD12C,0.110000*%
%ADD13C,0.130000*%
%ADD14C,0.180000*%
%ADD15C,0.510000*%
G04 APERTURE END LIST*
D10*
X9286121Y-7929338D02*
X25154050Y-7929338D01*
X7674021Y-28158400D02*
X25154050Y-28158400D01*
X25154050Y-7929338D02*
X25154050Y-28158400D01*
X7674021Y-9541438D02*
X7674021Y-28158400D01*
X7674021Y-9541438D02*
X9286121Y-7929338D01*
D11*
D12*
X13116000Y-26760000D02*
X13226000Y-26870000D01*
X13226000Y-26760000D02*
X13116000Y-26870000D01*
X13116000Y-26960000D02*
X13226000Y-27070000D01*
X13226000Y-26960000D02*
X13116000Y-27070000D01*
X13116000Y-27160000D02*
X13226000Y-27270000D01*
X13226000Y-27160000D02*
X13116000Y-27270000D01*
X13116000Y-27360000D02*
X13226000Y-27470000D01*
X13226000Y-27360000D02*
X13116000Y-27470000D01*
X13116000Y-27560000D02*
X13226000Y-27670000D01*
X13226000Y-27560000D02*
X13116000Y-27670000D01*
X13316000Y-26760000D02*
X13426000Y-26870000D01*
X13426000Y-26760000D02*
X13316000Y-26870000D01*
X13316000Y-27560000D02*
X13426000Y-27670000D01*
X13426000Y-27560000D02*
X13316000Y-27670000D01*
X13516000Y-26760000D02*
X13626000Y-26870000D01*
X13626000Y-26760000D02*
X13516000Y-26870000D01*
X13516000Y-27560000D02*
X13626000Y-27670000D01*
X13626000Y-27560000D02*
X13516000Y-27670000D01*
X13716000Y-26760000D02*
X13826000Y-26870000D01*
X13826000Y-26760000D02*
X13716000Y-26870000D01*
X13716000Y-27560000D02*
X13826000Y-27670000D01*
X13826000Y-27560000D02*
X13716000Y-27670000D01*
X13916000Y-26760000D02*
X14026000Y-26870000D01*
X14026000Y-26760000D02*
X13916000Y-26870000D01*
X13916000Y-26960000D02*
X14026000Y-27070000D01*
X14026000Y-26960000D02*
X13916000Y-27070000D01*
X13916000Y-27160000D02*
X14026000Y-27270000D01*
X14026000Y-27160000D02*
X13916000Y-27270000D01*
X13916000Y-27360000D02*
X14026000Y-27470000D01*
X14026000Y-27360000D02*
X13916000Y-27470000D01*
X13916000Y-27560000D02*
X14026000Y-27670000D01*
X14026000Y-27560000D02*
X13916000Y-27670000D01*
X17017000Y-26753000D02*
X17127000Y-26863000D01*
X17127000Y-26753000D02*
X17017000Y-26863000D01*
X17017000Y-26953000D02*
X17127000Y-27063000D01*
X17127000Y-26953000D02*
X17017000Y-27063000D01*
X17017000Y-27153000D02*
X17127000Y-27263000D01*
X17127000Y-27153000D02*
X17017000Y-27263000D01*
X17017000Y-27353000D02*
X17127000Y-27463000D01*
X17127000Y-27353000D02*
X17017000Y-27463000D01*
X17017000Y-27553000D02*
X17127000Y-27663000D01*
X17127000Y-27553000D02*
X17017000Y-27663000D01*
X17217000Y-26753000D02*
X17327000Y-26863000D01*
X17327000Y-26753000D02*
X17217000Y-26863000D01*
X17217000Y-27553000D02*
X17327000Y-27663000D01*
X17327000Y-27553000D02*
X17217000Y-27663000D01*
X17417000Y-26753000D02*
X17527000Y-26863000D01*
X17527000Y-26753000D02*
X17417000Y-26863000D01*
X17417000Y-27553000D02*
X17527000Y-27663000D01*
X17527000Y-27553000D02*
X17417000Y-27663000D01*
X17617000Y-26753000D02*
X17727000Y-26863000D01*
X17727000Y-26753000D02*
X17617000Y-26863000D01*
X17617000Y-27553000D02*
X17727000Y-27663000D01*
X17727000Y-27553000D02*
X17617000Y-27663000D01*
X17817000Y-26753000D02*
X17927000Y-26863000D01*
X17927000Y-26753000D02*
X17817000Y-26863000D01*
X17817000Y-26953000D02*
X17927000Y-27063000D01*
X17927000Y-26953000D02*
X17817000Y-27063000D01*
X17817000Y-27153000D02*
X17927000Y-27263000D01*
X17927000Y-27153000D02*
X17817000Y-27263000D01*
X17817000Y-27353000D02*
X17927000Y-27463000D01*
X17927000Y-27353000D02*
X17817000Y-27463000D01*
X17817000Y-27553000D02*
X17927000Y-27663000D01*
X17927000Y-27553000D02*
X17817000Y-27663000D01*
D13*
X12059500Y-26778750D02*
G75*
G02*
X11929500Y-26778750I-65000J0D01*
G01*
X11929500Y-26778750D02*
G75*
G02*
X12059500Y-26778750I65000J0D01*
G01*
X12059500Y-27598750D02*
G75*
G02*
X11929500Y-27598750I-65000J0D01*
G01*
X11929500Y-27598750D02*
G75*
G02*
X12059500Y-27598750I65000J0D01*
G01*
X19032500Y-26787500D02*
G75*
G02*
X18902500Y-26787500I-65000J0D01*
G01*
X18902500Y-26787500D02*
G75*
G02*
X19032500Y-26787500I65000J0D01*
G01*
X19032500Y-27607500D02*
G75*
G02*
X18902500Y-27607500I-65000J0D01*
G01*
X18902500Y-27607500D02*
G75*
G02*
X19032500Y-27607500I65000J0D01*
G01*
D14*
X20516000Y-26474500D02*
X20516000Y-26654500D01*
X20426000Y-26564500D02*
X20606000Y-26564500D01*
X20516000Y-27024500D02*
X20516000Y-27204500D01*
X20426000Y-27114500D02*
X20606000Y-27114500D01*
X20936000Y-26474500D02*
X20936000Y-26654500D01*
X20846000Y-26564500D02*
X21026000Y-26564500D01*
X20936000Y-27024500D02*
X20936000Y-27204500D01*
X20846000Y-27114500D02*
X21026000Y-27114500D01*
X21356000Y-26474500D02*
X21356000Y-26654500D01*
X21266000Y-26564500D02*
X21446000Y-26564500D01*
X21356000Y-27024500D02*
X21356000Y-27204500D01*
X21266000Y-27114500D02*
X21446000Y-27114500D01*
X21776000Y-26474500D02*
X21776000Y-26654500D01*
X21686000Y-26564500D02*
X21866000Y-26564500D01*
X21776000Y-27024500D02*
X21776000Y-27204500D01*
X21686000Y-27114500D02*
X21866000Y-27114500D01*
X22196000Y-26474500D02*
X22196000Y-26654500D01*
X22106000Y-26564500D02*
X22286000Y-26564500D01*
X22196000Y-27024500D02*
X22196000Y-27204500D01*
X22106000Y-27114500D02*
X22286000Y-27114500D01*
X22616000Y-26474500D02*
X22616000Y-26654500D01*
X22526000Y-26564500D02*
X22706000Y-26564500D01*
X22616000Y-27024500D02*
X22616000Y-27204500D01*
X22526000Y-27114500D02*
X22706000Y-27114500D01*
X23036000Y-26474500D02*
X23036000Y-26654500D01*
X22946000Y-26564500D02*
X23126000Y-26564500D01*
X23036000Y-27024500D02*
X23036000Y-27204500D01*
X22946000Y-27114500D02*
X23126000Y-27114500D01*
X23456000Y-26474500D02*
X23456000Y-26654500D01*
X23366000Y-26564500D02*
X23546000Y-26564500D01*
X23456000Y-27024500D02*
X23456000Y-27204500D01*
X23366000Y-27114500D02*
X23546000Y-27114500D01*
X23876000Y-26474500D02*
X23876000Y-26654500D01*
X23786000Y-26564500D02*
X23966000Y-26564500D01*
X23876000Y-27024500D02*
X23876000Y-27204500D01*
X23786000Y-27114500D02*
X23966000Y-27114500D01*
D15*
X9933214Y-10155414D02*
X9933214Y-9794786D01*
X9572586Y-9794786D01*
X9572586Y-10155414D01*
X9933214Y-10155414D01*
X9933214Y-12968814D02*
X9933214Y-12608186D01*
X9572586Y-12608186D01*
X9572586Y-12968814D01*
X9933214Y-12968814D01*
X9933214Y-15782214D02*
X9933214Y-15421586D01*
X9572586Y-15421586D01*
X9572586Y-15782214D01*
X9933214Y-15782214D01*
X9933214Y-18595614D02*
X9933214Y-18234986D01*
X9572586Y-18234986D01*
X9572586Y-18595614D01*
X9933214Y-18595614D01*
X9933214Y-21409014D02*
X9933214Y-21048386D01*
X9572586Y-21048386D01*
X9572586Y-21409014D01*
X9933214Y-21409014D01*
X9933214Y-24222414D02*
X9933214Y-23861786D01*
X9572586Y-23861786D01*
X9572586Y-24222414D01*
X9933214Y-24222414D01*
X15043214Y-10155414D02*
X15043214Y-9794786D01*
X14682586Y-9794786D01*
X14682586Y-10155414D01*
X15043214Y-10155414D01*
X15043214Y-12968814D02*
X15043214Y-12608186D01*
X14682586Y-12608186D01*
X14682586Y-12968814D01*
X15043214Y-12968814D01*
X15043214Y-15782214D02*
X15043214Y-15421586D01*
X14682586Y-15421586D01*
X14682586Y-15782214D01*
X15043214Y-15782214D01*
X15043214Y-18595614D02*
X15043214Y-18234986D01*
X14682586Y-18234986D01*
X14682586Y-18595614D01*
X15043214Y-18595614D01*
X15043214Y-21409014D02*
X15043214Y-21048386D01*
X14682586Y-21048386D01*
X14682586Y-21409014D01*
X15043214Y-21409014D01*
X15043214Y-24222414D02*
X15043214Y-23861786D01*
X14682586Y-23861786D01*
X14682586Y-24222414D01*
X15043214Y-24222414D01*
X18173214Y-10155414D02*
X18173214Y-9794786D01*
X17812586Y-9794786D01*
X17812586Y-10155414D01*
X18173214Y-10155414D01*
X18173214Y-12968814D02*
X18173214Y-12608186D01*
X17812586Y-12608186D01*
X17812586Y-12968814D01*
X18173214Y-12968814D01*
X18173214Y-15782214D02*
X18173214Y-15421586D01*
X17812586Y-15421586D01*
X17812586Y-15782214D01*
X18173214Y-15782214D01*
X18173214Y-18595614D02*
X18173214Y-18234986D01*
X17812586Y-18234986D01*
X17812586Y-18595614D01*
X18173214Y-18595614D01*
X18173214Y-21409014D02*
X18173214Y-21048386D01*
X17812586Y-21048386D01*
X17812586Y-21409014D01*
X18173214Y-21409014D01*
X18173214Y-24222414D02*
X18173214Y-23861786D01*
X17812586Y-23861786D01*
X17812586Y-24222414D01*
X18173214Y-24222414D01*
X23283214Y-10155414D02*
X23283214Y-9794786D01*
X22922586Y-9794786D01*
X22922586Y-10155414D01*
X23283214Y-10155414D01*
X23283214Y-12968814D02*
X23283214Y-12608186D01*
X22922586Y-12608186D01*
X22922586Y-12968814D01*
X23283214Y-12968814D01*
X23283214Y-15782214D02*
X23283214Y-15421586D01*
X22922586Y-15421586D01*
X22922586Y-15782214D01*
X23283214Y-15782214D01*
X23283214Y-18595614D02*
X23283214Y-18234986D01*
X22922586Y-18234986D01*
X22922586Y-18595614D01*
X23283214Y-18595614D01*
X23283214Y-21409014D02*
X23283214Y-21048386D01*
X22922586Y-21048386D01*
X22922586Y-21409014D01*
X23283214Y-21409014D01*
X23283214Y-24222414D02*
X23283214Y-23861786D01*
X22922586Y-23861786D01*
X22922586Y-24222414D01*
X23283214Y-24222414D01*
D11*
X7929798Y-28474884D02*
X7929798Y-28274884D01*
X7929798Y-28274884D02*
X7977417Y-28274884D01*
X7977417Y-28274884D02*
X8005988Y-28284408D01*
X8005988Y-28284408D02*
X8025036Y-28303455D01*
X8025036Y-28303455D02*
X8034560Y-28322503D01*
X8034560Y-28322503D02*
X8044084Y-28360598D01*
X8044084Y-28360598D02*
X8044084Y-28389169D01*
X8044084Y-28389169D02*
X8034560Y-28427265D01*
X8034560Y-28427265D02*
X8025036Y-28446312D01*
X8025036Y-28446312D02*
X8005988Y-28465360D01*
X8005988Y-28465360D02*
X7977417Y-28474884D01*
X7977417Y-28474884D02*
X7929798Y-28474884D01*
X8129798Y-28474884D02*
X8129798Y-28341550D01*
X8129798Y-28379646D02*
X8139322Y-28360598D01*
X8139322Y-28360598D02*
X8148846Y-28351074D01*
X8148846Y-28351074D02*
X8167893Y-28341550D01*
X8167893Y-28341550D02*
X8186941Y-28341550D01*
X8253607Y-28474884D02*
X8253607Y-28341550D01*
X8253607Y-28274884D02*
X8244084Y-28284408D01*
X8244084Y-28284408D02*
X8253607Y-28293931D01*
X8253607Y-28293931D02*
X8263131Y-28284408D01*
X8263131Y-28284408D02*
X8253607Y-28274884D01*
X8253607Y-28274884D02*
X8253607Y-28293931D01*
X8377417Y-28474884D02*
X8358369Y-28465360D01*
X8358369Y-28465360D02*
X8348846Y-28446312D01*
X8348846Y-28446312D02*
X8348846Y-28274884D01*
X8482179Y-28474884D02*
X8463131Y-28465360D01*
X8463131Y-28465360D02*
X8453608Y-28446312D01*
X8453608Y-28446312D02*
X8453608Y-28274884D01*
X8710750Y-28474884D02*
X8710750Y-28274884D01*
X8710750Y-28274884D02*
X8777417Y-28417741D01*
X8777417Y-28417741D02*
X8844084Y-28274884D01*
X8844084Y-28274884D02*
X8844084Y-28474884D01*
X9025036Y-28474884D02*
X9025036Y-28370122D01*
X9025036Y-28370122D02*
X9015512Y-28351074D01*
X9015512Y-28351074D02*
X8996465Y-28341550D01*
X8996465Y-28341550D02*
X8958369Y-28341550D01*
X8958369Y-28341550D02*
X8939322Y-28351074D01*
X9025036Y-28465360D02*
X9005989Y-28474884D01*
X9005989Y-28474884D02*
X8958369Y-28474884D01*
X8958369Y-28474884D02*
X8939322Y-28465360D01*
X8939322Y-28465360D02*
X8929798Y-28446312D01*
X8929798Y-28446312D02*
X8929798Y-28427265D01*
X8929798Y-28427265D02*
X8939322Y-28408217D01*
X8939322Y-28408217D02*
X8958369Y-28398693D01*
X8958369Y-28398693D02*
X9005989Y-28398693D01*
X9005989Y-28398693D02*
X9025036Y-28389169D01*
X9120274Y-28341550D02*
X9120274Y-28541550D01*
X9120274Y-28351074D02*
X9139322Y-28341550D01*
X9139322Y-28341550D02*
X9177417Y-28341550D01*
X9177417Y-28341550D02*
X9196465Y-28351074D01*
X9196465Y-28351074D02*
X9205989Y-28360598D01*
X9205989Y-28360598D02*
X9215512Y-28379646D01*
X9215512Y-28379646D02*
X9215512Y-28436788D01*
X9215512Y-28436788D02*
X9205989Y-28455836D01*
X9205989Y-28455836D02*
X9196465Y-28465360D01*
X9196465Y-28465360D02*
X9177417Y-28474884D01*
X9177417Y-28474884D02*
X9139322Y-28474884D01*
X9139322Y-28474884D02*
X9120274Y-28465360D01*
X9301227Y-28455836D02*
X9310750Y-28465360D01*
X9310750Y-28465360D02*
X9301227Y-28474884D01*
X9301227Y-28474884D02*
X9291703Y-28465360D01*
X9291703Y-28465360D02*
X9301227Y-28455836D01*
X9301227Y-28455836D02*
X9301227Y-28474884D01*
X9301227Y-28351074D02*
X9310750Y-28360598D01*
X9310750Y-28360598D02*
X9301227Y-28370122D01*
X9301227Y-28370122D02*
X9291703Y-28360598D01*
X9291703Y-28360598D02*
X9301227Y-28351074D01*
X9301227Y-28351074D02*
X9301227Y-28370122D01*
D12*
X7559021Y-28748400D02*
X7669021Y-28858400D01*
X7669021Y-28748400D02*
X7559021Y-28858400D01*
D11*
X8034560Y-28894884D02*
X7920274Y-28894884D01*
X7977417Y-28894884D02*
X7977417Y-28694884D01*
X7977417Y-28694884D02*
X7958369Y-28723455D01*
X7958369Y-28723455D02*
X7939322Y-28742503D01*
X7939322Y-28742503D02*
X7920274Y-28752027D01*
X8120274Y-28875836D02*
X8129798Y-28885360D01*
X8129798Y-28885360D02*
X8120274Y-28894884D01*
X8120274Y-28894884D02*
X8110750Y-28885360D01*
X8110750Y-28885360D02*
X8120274Y-28875836D01*
X8120274Y-28875836D02*
X8120274Y-28894884D01*
X8320274Y-28894884D02*
X8205988Y-28894884D01*
X8263131Y-28894884D02*
X8263131Y-28694884D01*
X8263131Y-28694884D02*
X8244084Y-28723455D01*
X8244084Y-28723455D02*
X8225036Y-28742503D01*
X8225036Y-28742503D02*
X8205988Y-28752027D01*
X8444084Y-28694884D02*
X8463131Y-28694884D01*
X8463131Y-28694884D02*
X8482179Y-28704408D01*
X8482179Y-28704408D02*
X8491703Y-28713931D01*
X8491703Y-28713931D02*
X8501227Y-28732979D01*
X8501227Y-28732979D02*
X8510750Y-28771074D01*
X8510750Y-28771074D02*
X8510750Y-28818693D01*
X8510750Y-28818693D02*
X8501227Y-28856788D01*
X8501227Y-28856788D02*
X8491703Y-28875836D01*
X8491703Y-28875836D02*
X8482179Y-28885360D01*
X8482179Y-28885360D02*
X8463131Y-28894884D01*
X8463131Y-28894884D02*
X8444084Y-28894884D01*
X8444084Y-28894884D02*
X8425036Y-28885360D01*
X8425036Y-28885360D02*
X8415512Y-28875836D01*
X8415512Y-28875836D02*
X8405989Y-28856788D01*
X8405989Y-28856788D02*
X8396465Y-28818693D01*
X8396465Y-28818693D02*
X8396465Y-28771074D01*
X8396465Y-28771074D02*
X8405989Y-28732979D01*
X8405989Y-28732979D02*
X8415512Y-28713931D01*
X8415512Y-28713931D02*
X8425036Y-28704408D01*
X8425036Y-28704408D02*
X8444084Y-28694884D01*
X8634560Y-28694884D02*
X8653608Y-28694884D01*
X8653608Y-28694884D02*
X8672655Y-28704408D01*
X8672655Y-28704408D02*
X8682179Y-28713931D01*
X8682179Y-28713931D02*
X8691703Y-28732979D01*
X8691703Y-28732979D02*
X8701227Y-28771074D01*
X8701227Y-28771074D02*
X8701227Y-28818693D01*
X8701227Y-28818693D02*
X8691703Y-28856788D01*
X8691703Y-28856788D02*
X8682179Y-28875836D01*
X8682179Y-28875836D02*
X8672655Y-28885360D01*
X8672655Y-28885360D02*
X8653608Y-28894884D01*
X8653608Y-28894884D02*
X8634560Y-28894884D01*
X8634560Y-28894884D02*
X8615512Y-28885360D01*
X8615512Y-28885360D02*
X8605989Y-28875836D01*
X8605989Y-28875836D02*
X8596465Y-28856788D01*
X8596465Y-28856788D02*
X8586941Y-28818693D01*
X8586941Y-28818693D02*
X8586941Y-28771074D01*
X8586941Y-28771074D02*
X8596465Y-28732979D01*
X8596465Y-28732979D02*
X8605989Y-28713931D01*
X8605989Y-28713931D02*
X8615512Y-28704408D01*
X8615512Y-28704408D02*
X8634560Y-28694884D01*
X8786941Y-28894884D02*
X8786941Y-28761550D01*
X8786941Y-28780598D02*
X8796465Y-28771074D01*
X8796465Y-28771074D02*
X8815512Y-28761550D01*
X8815512Y-28761550D02*
X8844084Y-28761550D01*
X8844084Y-28761550D02*
X8863131Y-28771074D01*
X8863131Y-28771074D02*
X8872655Y-28790122D01*
X8872655Y-28790122D02*
X8872655Y-28894884D01*
X8872655Y-28790122D02*
X8882179Y-28771074D01*
X8882179Y-28771074D02*
X8901227Y-28761550D01*
X8901227Y-28761550D02*
X8929798Y-28761550D01*
X8929798Y-28761550D02*
X8948846Y-28771074D01*
X8948846Y-28771074D02*
X8958370Y-28790122D01*
X8958370Y-28790122D02*
X8958370Y-28894884D01*
X9053608Y-28894884D02*
X9053608Y-28761550D01*
X9053608Y-28780598D02*
X9063131Y-28771074D01*
X9063131Y-28771074D02*
X9082179Y-28761550D01*
X9082179Y-28761550D02*
X9110751Y-28761550D01*
X9110751Y-28761550D02*
X9129798Y-28771074D01*
X9129798Y-28771074D02*
X9139322Y-28790122D01*
X9139322Y-28790122D02*
X9139322Y-28894884D01*
X9139322Y-28790122D02*
X9148846Y-28771074D01*
X9148846Y-28771074D02*
X9167893Y-28761550D01*
X9167893Y-28761550D02*
X9196465Y-28761550D01*
X9196465Y-28761550D02*
X9215512Y-28771074D01*
X9215512Y-28771074D02*
X9225036Y-28790122D01*
X9225036Y-28790122D02*
X9225036Y-28894884D01*
X9615512Y-28685360D02*
X9444084Y-28942503D01*
X9872655Y-28694884D02*
X9891703Y-28694884D01*
X9891703Y-28694884D02*
X9910751Y-28704408D01*
X9910751Y-28704408D02*
X9920274Y-28713931D01*
X9920274Y-28713931D02*
X9929798Y-28732979D01*
X9929798Y-28732979D02*
X9939322Y-28771074D01*
X9939322Y-28771074D02*
X9939322Y-28818693D01*
X9939322Y-28818693D02*
X9929798Y-28856788D01*
X9929798Y-28856788D02*
X9920274Y-28875836D01*
X9920274Y-28875836D02*
X9910751Y-28885360D01*
X9910751Y-28885360D02*
X9891703Y-28894884D01*
X9891703Y-28894884D02*
X9872655Y-28894884D01*
X9872655Y-28894884D02*
X9853608Y-28885360D01*
X9853608Y-28885360D02*
X9844084Y-28875836D01*
X9844084Y-28875836D02*
X9834560Y-28856788D01*
X9834560Y-28856788D02*
X9825036Y-28818693D01*
X9825036Y-28818693D02*
X9825036Y-28771074D01*
X9825036Y-28771074D02*
X9834560Y-28732979D01*
X9834560Y-28732979D02*
X9844084Y-28713931D01*
X9844084Y-28713931D02*
X9853608Y-28704408D01*
X9853608Y-28704408D02*
X9872655Y-28694884D01*
X10025036Y-28875836D02*
X10034560Y-28885360D01*
X10034560Y-28885360D02*
X10025036Y-28894884D01*
X10025036Y-28894884D02*
X10015513Y-28885360D01*
X10015513Y-28885360D02*
X10025036Y-28875836D01*
X10025036Y-28875836D02*
X10025036Y-28894884D01*
X10158370Y-28694884D02*
X10177417Y-28694884D01*
X10177417Y-28694884D02*
X10196465Y-28704408D01*
X10196465Y-28704408D02*
X10205989Y-28713931D01*
X10205989Y-28713931D02*
X10215513Y-28732979D01*
X10215513Y-28732979D02*
X10225036Y-28771074D01*
X10225036Y-28771074D02*
X10225036Y-28818693D01*
X10225036Y-28818693D02*
X10215513Y-28856788D01*
X10215513Y-28856788D02*
X10205989Y-28875836D01*
X10205989Y-28875836D02*
X10196465Y-28885360D01*
X10196465Y-28885360D02*
X10177417Y-28894884D01*
X10177417Y-28894884D02*
X10158370Y-28894884D01*
X10158370Y-28894884D02*
X10139322Y-28885360D01*
X10139322Y-28885360D02*
X10129798Y-28875836D01*
X10129798Y-28875836D02*
X10120274Y-28856788D01*
X10120274Y-28856788D02*
X10110751Y-28818693D01*
X10110751Y-28818693D02*
X10110751Y-28771074D01*
X10110751Y-28771074D02*
X10120274Y-28732979D01*
X10120274Y-28732979D02*
X10129798Y-28713931D01*
X10129798Y-28713931D02*
X10139322Y-28704408D01*
X10139322Y-28704408D02*
X10158370Y-28694884D01*
X10396465Y-28761550D02*
X10396465Y-28894884D01*
X10348846Y-28685360D02*
X10301227Y-28828217D01*
X10301227Y-28828217D02*
X10425036Y-28828217D01*
X10482179Y-28694884D02*
X10605989Y-28694884D01*
X10605989Y-28694884D02*
X10539322Y-28771074D01*
X10539322Y-28771074D02*
X10567894Y-28771074D01*
X10567894Y-28771074D02*
X10586941Y-28780598D01*
X10586941Y-28780598D02*
X10596465Y-28790122D01*
X10596465Y-28790122D02*
X10605989Y-28809169D01*
X10605989Y-28809169D02*
X10605989Y-28856788D01*
X10605989Y-28856788D02*
X10596465Y-28875836D01*
X10596465Y-28875836D02*
X10586941Y-28885360D01*
X10586941Y-28885360D02*
X10567894Y-28894884D01*
X10567894Y-28894884D02*
X10510751Y-28894884D01*
X10510751Y-28894884D02*
X10491703Y-28885360D01*
X10491703Y-28885360D02*
X10482179Y-28875836D01*
X10672655Y-28694884D02*
X10796465Y-28694884D01*
X10796465Y-28694884D02*
X10729798Y-28771074D01*
X10729798Y-28771074D02*
X10758370Y-28771074D01*
X10758370Y-28771074D02*
X10777417Y-28780598D01*
X10777417Y-28780598D02*
X10786941Y-28790122D01*
X10786941Y-28790122D02*
X10796465Y-28809169D01*
X10796465Y-28809169D02*
X10796465Y-28856788D01*
X10796465Y-28856788D02*
X10786941Y-28875836D01*
X10786941Y-28875836D02*
X10777417Y-28885360D01*
X10777417Y-28885360D02*
X10758370Y-28894884D01*
X10758370Y-28894884D02*
X10701227Y-28894884D01*
X10701227Y-28894884D02*
X10682179Y-28885360D01*
X10682179Y-28885360D02*
X10672655Y-28875836D01*
X10872655Y-28694884D02*
X10872655Y-28732979D01*
X10948846Y-28694884D02*
X10948846Y-28732979D01*
X11244084Y-28971074D02*
X11234560Y-28961550D01*
X11234560Y-28961550D02*
X11215513Y-28932979D01*
X11215513Y-28932979D02*
X11205989Y-28913931D01*
X11205989Y-28913931D02*
X11196465Y-28885360D01*
X11196465Y-28885360D02*
X11186941Y-28837741D01*
X11186941Y-28837741D02*
X11186941Y-28799646D01*
X11186941Y-28799646D02*
X11196465Y-28752027D01*
X11196465Y-28752027D02*
X11205989Y-28723455D01*
X11205989Y-28723455D02*
X11215513Y-28704408D01*
X11215513Y-28704408D02*
X11234560Y-28675836D01*
X11234560Y-28675836D02*
X11244084Y-28666312D01*
X11301227Y-28694884D02*
X11425036Y-28694884D01*
X11425036Y-28694884D02*
X11358370Y-28771074D01*
X11358370Y-28771074D02*
X11386941Y-28771074D01*
X11386941Y-28771074D02*
X11405989Y-28780598D01*
X11405989Y-28780598D02*
X11415513Y-28790122D01*
X11415513Y-28790122D02*
X11425036Y-28809169D01*
X11425036Y-28809169D02*
X11425036Y-28856788D01*
X11425036Y-28856788D02*
X11415513Y-28875836D01*
X11415513Y-28875836D02*
X11405989Y-28885360D01*
X11405989Y-28885360D02*
X11386941Y-28894884D01*
X11386941Y-28894884D02*
X11329798Y-28894884D01*
X11329798Y-28894884D02*
X11310751Y-28885360D01*
X11310751Y-28885360D02*
X11301227Y-28875836D01*
X11501227Y-28713931D02*
X11510751Y-28704408D01*
X11510751Y-28704408D02*
X11529798Y-28694884D01*
X11529798Y-28694884D02*
X11577417Y-28694884D01*
X11577417Y-28694884D02*
X11596465Y-28704408D01*
X11596465Y-28704408D02*
X11605989Y-28713931D01*
X11605989Y-28713931D02*
X11615513Y-28732979D01*
X11615513Y-28732979D02*
X11615513Y-28752027D01*
X11615513Y-28752027D02*
X11605989Y-28780598D01*
X11605989Y-28780598D02*
X11491703Y-28894884D01*
X11491703Y-28894884D02*
X11615513Y-28894884D01*
X11853608Y-28894884D02*
X11853608Y-28694884D01*
X11939322Y-28894884D02*
X11939322Y-28790122D01*
X11939322Y-28790122D02*
X11929798Y-28771074D01*
X11929798Y-28771074D02*
X11910751Y-28761550D01*
X11910751Y-28761550D02*
X11882179Y-28761550D01*
X11882179Y-28761550D02*
X11863132Y-28771074D01*
X11863132Y-28771074D02*
X11853608Y-28780598D01*
X12063132Y-28894884D02*
X12044084Y-28885360D01*
X12044084Y-28885360D02*
X12034560Y-28875836D01*
X12034560Y-28875836D02*
X12025036Y-28856788D01*
X12025036Y-28856788D02*
X12025036Y-28799646D01*
X12025036Y-28799646D02*
X12034560Y-28780598D01*
X12034560Y-28780598D02*
X12044084Y-28771074D01*
X12044084Y-28771074D02*
X12063132Y-28761550D01*
X12063132Y-28761550D02*
X12091703Y-28761550D01*
X12091703Y-28761550D02*
X12110751Y-28771074D01*
X12110751Y-28771074D02*
X12120275Y-28780598D01*
X12120275Y-28780598D02*
X12129798Y-28799646D01*
X12129798Y-28799646D02*
X12129798Y-28856788D01*
X12129798Y-28856788D02*
X12120275Y-28875836D01*
X12120275Y-28875836D02*
X12110751Y-28885360D01*
X12110751Y-28885360D02*
X12091703Y-28894884D01*
X12091703Y-28894884D02*
X12063132Y-28894884D01*
X12244084Y-28894884D02*
X12225036Y-28885360D01*
X12225036Y-28885360D02*
X12215513Y-28866312D01*
X12215513Y-28866312D02*
X12215513Y-28694884D01*
X12396465Y-28885360D02*
X12377417Y-28894884D01*
X12377417Y-28894884D02*
X12339322Y-28894884D01*
X12339322Y-28894884D02*
X12320275Y-28885360D01*
X12320275Y-28885360D02*
X12310751Y-28866312D01*
X12310751Y-28866312D02*
X12310751Y-28790122D01*
X12310751Y-28790122D02*
X12320275Y-28771074D01*
X12320275Y-28771074D02*
X12339322Y-28761550D01*
X12339322Y-28761550D02*
X12377417Y-28761550D01*
X12377417Y-28761550D02*
X12396465Y-28771074D01*
X12396465Y-28771074D02*
X12405989Y-28790122D01*
X12405989Y-28790122D02*
X12405989Y-28809169D01*
X12405989Y-28809169D02*
X12310751Y-28828217D01*
X12482179Y-28885360D02*
X12501227Y-28894884D01*
X12501227Y-28894884D02*
X12539322Y-28894884D01*
X12539322Y-28894884D02*
X12558370Y-28885360D01*
X12558370Y-28885360D02*
X12567894Y-28866312D01*
X12567894Y-28866312D02*
X12567894Y-28856788D01*
X12567894Y-28856788D02*
X12558370Y-28837741D01*
X12558370Y-28837741D02*
X12539322Y-28828217D01*
X12539322Y-28828217D02*
X12510751Y-28828217D01*
X12510751Y-28828217D02*
X12491703Y-28818693D01*
X12491703Y-28818693D02*
X12482179Y-28799646D01*
X12482179Y-28799646D02*
X12482179Y-28790122D01*
X12482179Y-28790122D02*
X12491703Y-28771074D01*
X12491703Y-28771074D02*
X12510751Y-28761550D01*
X12510751Y-28761550D02*
X12539322Y-28761550D01*
X12539322Y-28761550D02*
X12558370Y-28771074D01*
X12634560Y-28971074D02*
X12644084Y-28961550D01*
X12644084Y-28961550D02*
X12663132Y-28932979D01*
X12663132Y-28932979D02*
X12672656Y-28913931D01*
X12672656Y-28913931D02*
X12682179Y-28885360D01*
X12682179Y-28885360D02*
X12691703Y-28837741D01*
X12691703Y-28837741D02*
X12691703Y-28799646D01*
X12691703Y-28799646D02*
X12682179Y-28752027D01*
X12682179Y-28752027D02*
X12672656Y-28723455D01*
X12672656Y-28723455D02*
X12663132Y-28704408D01*
X12663132Y-28704408D02*
X12644084Y-28675836D01*
X12644084Y-28675836D02*
X12634560Y-28666312D01*
D13*
X7669021Y-29067400D02*
G75*
G02*
X7539021Y-29067400I-65000J0D01*
G01*
X7539021Y-29067400D02*
G75*
G02*
X7669021Y-29067400I65000J0D01*
G01*
D11*
X8034560Y-29158884D02*
X7920274Y-29158884D01*
X7977417Y-29158884D02*
X7977417Y-28958884D01*
X7977417Y-28958884D02*
X7958369Y-28987455D01*
X7958369Y-28987455D02*
X7939322Y-29006503D01*
X7939322Y-29006503D02*
X7920274Y-29016027D01*
X8120274Y-29139836D02*
X8129798Y-29149360D01*
X8129798Y-29149360D02*
X8120274Y-29158884D01*
X8120274Y-29158884D02*
X8110750Y-29149360D01*
X8110750Y-29149360D02*
X8120274Y-29139836D01*
X8120274Y-29139836D02*
X8120274Y-29158884D01*
X8196465Y-28958884D02*
X8320274Y-28958884D01*
X8320274Y-28958884D02*
X8253607Y-29035074D01*
X8253607Y-29035074D02*
X8282179Y-29035074D01*
X8282179Y-29035074D02*
X8301227Y-29044598D01*
X8301227Y-29044598D02*
X8310750Y-29054122D01*
X8310750Y-29054122D02*
X8320274Y-29073169D01*
X8320274Y-29073169D02*
X8320274Y-29120788D01*
X8320274Y-29120788D02*
X8310750Y-29139836D01*
X8310750Y-29139836D02*
X8301227Y-29149360D01*
X8301227Y-29149360D02*
X8282179Y-29158884D01*
X8282179Y-29158884D02*
X8225036Y-29158884D01*
X8225036Y-29158884D02*
X8205988Y-29149360D01*
X8205988Y-29149360D02*
X8196465Y-29139836D01*
X8444084Y-28958884D02*
X8463131Y-28958884D01*
X8463131Y-28958884D02*
X8482179Y-28968408D01*
X8482179Y-28968408D02*
X8491703Y-28977931D01*
X8491703Y-28977931D02*
X8501227Y-28996979D01*
X8501227Y-28996979D02*
X8510750Y-29035074D01*
X8510750Y-29035074D02*
X8510750Y-29082693D01*
X8510750Y-29082693D02*
X8501227Y-29120788D01*
X8501227Y-29120788D02*
X8491703Y-29139836D01*
X8491703Y-29139836D02*
X8482179Y-29149360D01*
X8482179Y-29149360D02*
X8463131Y-29158884D01*
X8463131Y-29158884D02*
X8444084Y-29158884D01*
X8444084Y-29158884D02*
X8425036Y-29149360D01*
X8425036Y-29149360D02*
X8415512Y-29139836D01*
X8415512Y-29139836D02*
X8405989Y-29120788D01*
X8405989Y-29120788D02*
X8396465Y-29082693D01*
X8396465Y-29082693D02*
X8396465Y-29035074D01*
X8396465Y-29035074D02*
X8405989Y-28996979D01*
X8405989Y-28996979D02*
X8415512Y-28977931D01*
X8415512Y-28977931D02*
X8425036Y-28968408D01*
X8425036Y-28968408D02*
X8444084Y-28958884D01*
X8634560Y-28958884D02*
X8653608Y-28958884D01*
X8653608Y-28958884D02*
X8672655Y-28968408D01*
X8672655Y-28968408D02*
X8682179Y-28977931D01*
X8682179Y-28977931D02*
X8691703Y-28996979D01*
X8691703Y-28996979D02*
X8701227Y-29035074D01*
X8701227Y-29035074D02*
X8701227Y-29082693D01*
X8701227Y-29082693D02*
X8691703Y-29120788D01*
X8691703Y-29120788D02*
X8682179Y-29139836D01*
X8682179Y-29139836D02*
X8672655Y-29149360D01*
X8672655Y-29149360D02*
X8653608Y-29158884D01*
X8653608Y-29158884D02*
X8634560Y-29158884D01*
X8634560Y-29158884D02*
X8615512Y-29149360D01*
X8615512Y-29149360D02*
X8605989Y-29139836D01*
X8605989Y-29139836D02*
X8596465Y-29120788D01*
X8596465Y-29120788D02*
X8586941Y-29082693D01*
X8586941Y-29082693D02*
X8586941Y-29035074D01*
X8586941Y-29035074D02*
X8596465Y-28996979D01*
X8596465Y-28996979D02*
X8605989Y-28977931D01*
X8605989Y-28977931D02*
X8615512Y-28968408D01*
X8615512Y-28968408D02*
X8634560Y-28958884D01*
X8786941Y-29158884D02*
X8786941Y-29025550D01*
X8786941Y-29044598D02*
X8796465Y-29035074D01*
X8796465Y-29035074D02*
X8815512Y-29025550D01*
X8815512Y-29025550D02*
X8844084Y-29025550D01*
X8844084Y-29025550D02*
X8863131Y-29035074D01*
X8863131Y-29035074D02*
X8872655Y-29054122D01*
X8872655Y-29054122D02*
X8872655Y-29158884D01*
X8872655Y-29054122D02*
X8882179Y-29035074D01*
X8882179Y-29035074D02*
X8901227Y-29025550D01*
X8901227Y-29025550D02*
X8929798Y-29025550D01*
X8929798Y-29025550D02*
X8948846Y-29035074D01*
X8948846Y-29035074D02*
X8958370Y-29054122D01*
X8958370Y-29054122D02*
X8958370Y-29158884D01*
X9053608Y-29158884D02*
X9053608Y-29025550D01*
X9053608Y-29044598D02*
X9063131Y-29035074D01*
X9063131Y-29035074D02*
X9082179Y-29025550D01*
X9082179Y-29025550D02*
X9110751Y-29025550D01*
X9110751Y-29025550D02*
X9129798Y-29035074D01*
X9129798Y-29035074D02*
X9139322Y-29054122D01*
X9139322Y-29054122D02*
X9139322Y-29158884D01*
X9139322Y-29054122D02*
X9148846Y-29035074D01*
X9148846Y-29035074D02*
X9167893Y-29025550D01*
X9167893Y-29025550D02*
X9196465Y-29025550D01*
X9196465Y-29025550D02*
X9215512Y-29035074D01*
X9215512Y-29035074D02*
X9225036Y-29054122D01*
X9225036Y-29054122D02*
X9225036Y-29158884D01*
X9615512Y-28949360D02*
X9444084Y-29206503D01*
X9872655Y-28958884D02*
X9891703Y-28958884D01*
X9891703Y-28958884D02*
X9910751Y-28968408D01*
X9910751Y-28968408D02*
X9920274Y-28977931D01*
X9920274Y-28977931D02*
X9929798Y-28996979D01*
X9929798Y-28996979D02*
X9939322Y-29035074D01*
X9939322Y-29035074D02*
X9939322Y-29082693D01*
X9939322Y-29082693D02*
X9929798Y-29120788D01*
X9929798Y-29120788D02*
X9920274Y-29139836D01*
X9920274Y-29139836D02*
X9910751Y-29149360D01*
X9910751Y-29149360D02*
X9891703Y-29158884D01*
X9891703Y-29158884D02*
X9872655Y-29158884D01*
X9872655Y-29158884D02*
X9853608Y-29149360D01*
X9853608Y-29149360D02*
X9844084Y-29139836D01*
X9844084Y-29139836D02*
X9834560Y-29120788D01*
X9834560Y-29120788D02*
X9825036Y-29082693D01*
X9825036Y-29082693D02*
X9825036Y-29035074D01*
X9825036Y-29035074D02*
X9834560Y-28996979D01*
X9834560Y-28996979D02*
X9844084Y-28977931D01*
X9844084Y-28977931D02*
X9853608Y-28968408D01*
X9853608Y-28968408D02*
X9872655Y-28958884D01*
X10025036Y-29139836D02*
X10034560Y-29149360D01*
X10034560Y-29149360D02*
X10025036Y-29158884D01*
X10025036Y-29158884D02*
X10015513Y-29149360D01*
X10015513Y-29149360D02*
X10025036Y-29139836D01*
X10025036Y-29139836D02*
X10025036Y-29158884D01*
X10158370Y-28958884D02*
X10177417Y-28958884D01*
X10177417Y-28958884D02*
X10196465Y-28968408D01*
X10196465Y-28968408D02*
X10205989Y-28977931D01*
X10205989Y-28977931D02*
X10215513Y-28996979D01*
X10215513Y-28996979D02*
X10225036Y-29035074D01*
X10225036Y-29035074D02*
X10225036Y-29082693D01*
X10225036Y-29082693D02*
X10215513Y-29120788D01*
X10215513Y-29120788D02*
X10205989Y-29139836D01*
X10205989Y-29139836D02*
X10196465Y-29149360D01*
X10196465Y-29149360D02*
X10177417Y-29158884D01*
X10177417Y-29158884D02*
X10158370Y-29158884D01*
X10158370Y-29158884D02*
X10139322Y-29149360D01*
X10139322Y-29149360D02*
X10129798Y-29139836D01*
X10129798Y-29139836D02*
X10120274Y-29120788D01*
X10120274Y-29120788D02*
X10110751Y-29082693D01*
X10110751Y-29082693D02*
X10110751Y-29035074D01*
X10110751Y-29035074D02*
X10120274Y-28996979D01*
X10120274Y-28996979D02*
X10129798Y-28977931D01*
X10129798Y-28977931D02*
X10139322Y-28968408D01*
X10139322Y-28968408D02*
X10158370Y-28958884D01*
X10405989Y-28958884D02*
X10310751Y-28958884D01*
X10310751Y-28958884D02*
X10301227Y-29054122D01*
X10301227Y-29054122D02*
X10310751Y-29044598D01*
X10310751Y-29044598D02*
X10329798Y-29035074D01*
X10329798Y-29035074D02*
X10377417Y-29035074D01*
X10377417Y-29035074D02*
X10396465Y-29044598D01*
X10396465Y-29044598D02*
X10405989Y-29054122D01*
X10405989Y-29054122D02*
X10415513Y-29073169D01*
X10415513Y-29073169D02*
X10415513Y-29120788D01*
X10415513Y-29120788D02*
X10405989Y-29139836D01*
X10405989Y-29139836D02*
X10396465Y-29149360D01*
X10396465Y-29149360D02*
X10377417Y-29158884D01*
X10377417Y-29158884D02*
X10329798Y-29158884D01*
X10329798Y-29158884D02*
X10310751Y-29149360D01*
X10310751Y-29149360D02*
X10301227Y-29139836D01*
X10605989Y-29158884D02*
X10491703Y-29158884D01*
X10548846Y-29158884D02*
X10548846Y-28958884D01*
X10548846Y-28958884D02*
X10529798Y-28987455D01*
X10529798Y-28987455D02*
X10510751Y-29006503D01*
X10510751Y-29006503D02*
X10491703Y-29016027D01*
X10682179Y-28977931D02*
X10691703Y-28968408D01*
X10691703Y-28968408D02*
X10710751Y-28958884D01*
X10710751Y-28958884D02*
X10758370Y-28958884D01*
X10758370Y-28958884D02*
X10777417Y-28968408D01*
X10777417Y-28968408D02*
X10786941Y-28977931D01*
X10786941Y-28977931D02*
X10796465Y-28996979D01*
X10796465Y-28996979D02*
X10796465Y-29016027D01*
X10796465Y-29016027D02*
X10786941Y-29044598D01*
X10786941Y-29044598D02*
X10672655Y-29158884D01*
X10672655Y-29158884D02*
X10796465Y-29158884D01*
X10872655Y-28958884D02*
X10872655Y-28996979D01*
X10948846Y-28958884D02*
X10948846Y-28996979D01*
X11244084Y-29235074D02*
X11234560Y-29225550D01*
X11234560Y-29225550D02*
X11215513Y-29196979D01*
X11215513Y-29196979D02*
X11205989Y-29177931D01*
X11205989Y-29177931D02*
X11196465Y-29149360D01*
X11196465Y-29149360D02*
X11186941Y-29101741D01*
X11186941Y-29101741D02*
X11186941Y-29063646D01*
X11186941Y-29063646D02*
X11196465Y-29016027D01*
X11196465Y-29016027D02*
X11205989Y-28987455D01*
X11205989Y-28987455D02*
X11215513Y-28968408D01*
X11215513Y-28968408D02*
X11234560Y-28939836D01*
X11234560Y-28939836D02*
X11244084Y-28930312D01*
X11405989Y-29025550D02*
X11405989Y-29158884D01*
X11358370Y-28949360D02*
X11310751Y-29092217D01*
X11310751Y-29092217D02*
X11434560Y-29092217D01*
X11663132Y-29158884D02*
X11663132Y-28958884D01*
X11748846Y-29158884D02*
X11748846Y-29054122D01*
X11748846Y-29054122D02*
X11739322Y-29035074D01*
X11739322Y-29035074D02*
X11720275Y-29025550D01*
X11720275Y-29025550D02*
X11691703Y-29025550D01*
X11691703Y-29025550D02*
X11672655Y-29035074D01*
X11672655Y-29035074D02*
X11663132Y-29044598D01*
X11872655Y-29158884D02*
X11853608Y-29149360D01*
X11853608Y-29149360D02*
X11844084Y-29139836D01*
X11844084Y-29139836D02*
X11834560Y-29120788D01*
X11834560Y-29120788D02*
X11834560Y-29063646D01*
X11834560Y-29063646D02*
X11844084Y-29044598D01*
X11844084Y-29044598D02*
X11853608Y-29035074D01*
X11853608Y-29035074D02*
X11872655Y-29025550D01*
X11872655Y-29025550D02*
X11901227Y-29025550D01*
X11901227Y-29025550D02*
X11920275Y-29035074D01*
X11920275Y-29035074D02*
X11929798Y-29044598D01*
X11929798Y-29044598D02*
X11939322Y-29063646D01*
X11939322Y-29063646D02*
X11939322Y-29120788D01*
X11939322Y-29120788D02*
X11929798Y-29139836D01*
X11929798Y-29139836D02*
X11920275Y-29149360D01*
X11920275Y-29149360D02*
X11901227Y-29158884D01*
X11901227Y-29158884D02*
X11872655Y-29158884D01*
X12053608Y-29158884D02*
X12034560Y-29149360D01*
X12034560Y-29149360D02*
X12025036Y-29130312D01*
X12025036Y-29130312D02*
X12025036Y-28958884D01*
X12205989Y-29149360D02*
X12186941Y-29158884D01*
X12186941Y-29158884D02*
X12148846Y-29158884D01*
X12148846Y-29158884D02*
X12129798Y-29149360D01*
X12129798Y-29149360D02*
X12120275Y-29130312D01*
X12120275Y-29130312D02*
X12120275Y-29054122D01*
X12120275Y-29054122D02*
X12129798Y-29035074D01*
X12129798Y-29035074D02*
X12148846Y-29025550D01*
X12148846Y-29025550D02*
X12186941Y-29025550D01*
X12186941Y-29025550D02*
X12205989Y-29035074D01*
X12205989Y-29035074D02*
X12215513Y-29054122D01*
X12215513Y-29054122D02*
X12215513Y-29073169D01*
X12215513Y-29073169D02*
X12120275Y-29092217D01*
X12291703Y-29149360D02*
X12310751Y-29158884D01*
X12310751Y-29158884D02*
X12348846Y-29158884D01*
X12348846Y-29158884D02*
X12367894Y-29149360D01*
X12367894Y-29149360D02*
X12377417Y-29130312D01*
X12377417Y-29130312D02*
X12377417Y-29120788D01*
X12377417Y-29120788D02*
X12367894Y-29101741D01*
X12367894Y-29101741D02*
X12348846Y-29092217D01*
X12348846Y-29092217D02*
X12320275Y-29092217D01*
X12320275Y-29092217D02*
X12301227Y-29082693D01*
X12301227Y-29082693D02*
X12291703Y-29063646D01*
X12291703Y-29063646D02*
X12291703Y-29054122D01*
X12291703Y-29054122D02*
X12301227Y-29035074D01*
X12301227Y-29035074D02*
X12320275Y-29025550D01*
X12320275Y-29025550D02*
X12348846Y-29025550D01*
X12348846Y-29025550D02*
X12367894Y-29035074D01*
X12444084Y-29235074D02*
X12453608Y-29225550D01*
X12453608Y-29225550D02*
X12472656Y-29196979D01*
X12472656Y-29196979D02*
X12482179Y-29177931D01*
X12482179Y-29177931D02*
X12491703Y-29149360D01*
X12491703Y-29149360D02*
X12501227Y-29101741D01*
X12501227Y-29101741D02*
X12501227Y-29063646D01*
X12501227Y-29063646D02*
X12491703Y-29016027D01*
X12491703Y-29016027D02*
X12482179Y-28987455D01*
X12482179Y-28987455D02*
X12472656Y-28968408D01*
X12472656Y-28968408D02*
X12453608Y-28939836D01*
X12453608Y-28939836D02*
X12444084Y-28930312D01*
D14*
X7579021Y-29241400D02*
X7579021Y-29421400D01*
X7489021Y-29331400D02*
X7669021Y-29331400D01*
D11*
X8034560Y-29422884D02*
X7920274Y-29422884D01*
X7977417Y-29422884D02*
X7977417Y-29222884D01*
X7977417Y-29222884D02*
X7958369Y-29251455D01*
X7958369Y-29251455D02*
X7939322Y-29270503D01*
X7939322Y-29270503D02*
X7920274Y-29280027D01*
X8120274Y-29403836D02*
X8129798Y-29413360D01*
X8129798Y-29413360D02*
X8120274Y-29422884D01*
X8120274Y-29422884D02*
X8110750Y-29413360D01*
X8110750Y-29413360D02*
X8120274Y-29403836D01*
X8120274Y-29403836D02*
X8120274Y-29422884D01*
X8244084Y-29308598D02*
X8225036Y-29299074D01*
X8225036Y-29299074D02*
X8215512Y-29289550D01*
X8215512Y-29289550D02*
X8205988Y-29270503D01*
X8205988Y-29270503D02*
X8205988Y-29260979D01*
X8205988Y-29260979D02*
X8215512Y-29241931D01*
X8215512Y-29241931D02*
X8225036Y-29232408D01*
X8225036Y-29232408D02*
X8244084Y-29222884D01*
X8244084Y-29222884D02*
X8282179Y-29222884D01*
X8282179Y-29222884D02*
X8301227Y-29232408D01*
X8301227Y-29232408D02*
X8310750Y-29241931D01*
X8310750Y-29241931D02*
X8320274Y-29260979D01*
X8320274Y-29260979D02*
X8320274Y-29270503D01*
X8320274Y-29270503D02*
X8310750Y-29289550D01*
X8310750Y-29289550D02*
X8301227Y-29299074D01*
X8301227Y-29299074D02*
X8282179Y-29308598D01*
X8282179Y-29308598D02*
X8244084Y-29308598D01*
X8244084Y-29308598D02*
X8225036Y-29318122D01*
X8225036Y-29318122D02*
X8215512Y-29327646D01*
X8215512Y-29327646D02*
X8205988Y-29346693D01*
X8205988Y-29346693D02*
X8205988Y-29384788D01*
X8205988Y-29384788D02*
X8215512Y-29403836D01*
X8215512Y-29403836D02*
X8225036Y-29413360D01*
X8225036Y-29413360D02*
X8244084Y-29422884D01*
X8244084Y-29422884D02*
X8282179Y-29422884D01*
X8282179Y-29422884D02*
X8301227Y-29413360D01*
X8301227Y-29413360D02*
X8310750Y-29403836D01*
X8310750Y-29403836D02*
X8320274Y-29384788D01*
X8320274Y-29384788D02*
X8320274Y-29346693D01*
X8320274Y-29346693D02*
X8310750Y-29327646D01*
X8310750Y-29327646D02*
X8301227Y-29318122D01*
X8301227Y-29318122D02*
X8282179Y-29308598D01*
X8444084Y-29222884D02*
X8463131Y-29222884D01*
X8463131Y-29222884D02*
X8482179Y-29232408D01*
X8482179Y-29232408D02*
X8491703Y-29241931D01*
X8491703Y-29241931D02*
X8501227Y-29260979D01*
X8501227Y-29260979D02*
X8510750Y-29299074D01*
X8510750Y-29299074D02*
X8510750Y-29346693D01*
X8510750Y-29346693D02*
X8501227Y-29384788D01*
X8501227Y-29384788D02*
X8491703Y-29403836D01*
X8491703Y-29403836D02*
X8482179Y-29413360D01*
X8482179Y-29413360D02*
X8463131Y-29422884D01*
X8463131Y-29422884D02*
X8444084Y-29422884D01*
X8444084Y-29422884D02*
X8425036Y-29413360D01*
X8425036Y-29413360D02*
X8415512Y-29403836D01*
X8415512Y-29403836D02*
X8405989Y-29384788D01*
X8405989Y-29384788D02*
X8396465Y-29346693D01*
X8396465Y-29346693D02*
X8396465Y-29299074D01*
X8396465Y-29299074D02*
X8405989Y-29260979D01*
X8405989Y-29260979D02*
X8415512Y-29241931D01*
X8415512Y-29241931D02*
X8425036Y-29232408D01*
X8425036Y-29232408D02*
X8444084Y-29222884D01*
X8634560Y-29222884D02*
X8653608Y-29222884D01*
X8653608Y-29222884D02*
X8672655Y-29232408D01*
X8672655Y-29232408D02*
X8682179Y-29241931D01*
X8682179Y-29241931D02*
X8691703Y-29260979D01*
X8691703Y-29260979D02*
X8701227Y-29299074D01*
X8701227Y-29299074D02*
X8701227Y-29346693D01*
X8701227Y-29346693D02*
X8691703Y-29384788D01*
X8691703Y-29384788D02*
X8682179Y-29403836D01*
X8682179Y-29403836D02*
X8672655Y-29413360D01*
X8672655Y-29413360D02*
X8653608Y-29422884D01*
X8653608Y-29422884D02*
X8634560Y-29422884D01*
X8634560Y-29422884D02*
X8615512Y-29413360D01*
X8615512Y-29413360D02*
X8605989Y-29403836D01*
X8605989Y-29403836D02*
X8596465Y-29384788D01*
X8596465Y-29384788D02*
X8586941Y-29346693D01*
X8586941Y-29346693D02*
X8586941Y-29299074D01*
X8586941Y-29299074D02*
X8596465Y-29260979D01*
X8596465Y-29260979D02*
X8605989Y-29241931D01*
X8605989Y-29241931D02*
X8615512Y-29232408D01*
X8615512Y-29232408D02*
X8634560Y-29222884D01*
X8786941Y-29422884D02*
X8786941Y-29289550D01*
X8786941Y-29308598D02*
X8796465Y-29299074D01*
X8796465Y-29299074D02*
X8815512Y-29289550D01*
X8815512Y-29289550D02*
X8844084Y-29289550D01*
X8844084Y-29289550D02*
X8863131Y-29299074D01*
X8863131Y-29299074D02*
X8872655Y-29318122D01*
X8872655Y-29318122D02*
X8872655Y-29422884D01*
X8872655Y-29318122D02*
X8882179Y-29299074D01*
X8882179Y-29299074D02*
X8901227Y-29289550D01*
X8901227Y-29289550D02*
X8929798Y-29289550D01*
X8929798Y-29289550D02*
X8948846Y-29299074D01*
X8948846Y-29299074D02*
X8958370Y-29318122D01*
X8958370Y-29318122D02*
X8958370Y-29422884D01*
X9053608Y-29422884D02*
X9053608Y-29289550D01*
X9053608Y-29308598D02*
X9063131Y-29299074D01*
X9063131Y-29299074D02*
X9082179Y-29289550D01*
X9082179Y-29289550D02*
X9110751Y-29289550D01*
X9110751Y-29289550D02*
X9129798Y-29299074D01*
X9129798Y-29299074D02*
X9139322Y-29318122D01*
X9139322Y-29318122D02*
X9139322Y-29422884D01*
X9139322Y-29318122D02*
X9148846Y-29299074D01*
X9148846Y-29299074D02*
X9167893Y-29289550D01*
X9167893Y-29289550D02*
X9196465Y-29289550D01*
X9196465Y-29289550D02*
X9215512Y-29299074D01*
X9215512Y-29299074D02*
X9225036Y-29318122D01*
X9225036Y-29318122D02*
X9225036Y-29422884D01*
X9615512Y-29213360D02*
X9444084Y-29470503D01*
X9872655Y-29222884D02*
X9891703Y-29222884D01*
X9891703Y-29222884D02*
X9910751Y-29232408D01*
X9910751Y-29232408D02*
X9920274Y-29241931D01*
X9920274Y-29241931D02*
X9929798Y-29260979D01*
X9929798Y-29260979D02*
X9939322Y-29299074D01*
X9939322Y-29299074D02*
X9939322Y-29346693D01*
X9939322Y-29346693D02*
X9929798Y-29384788D01*
X9929798Y-29384788D02*
X9920274Y-29403836D01*
X9920274Y-29403836D02*
X9910751Y-29413360D01*
X9910751Y-29413360D02*
X9891703Y-29422884D01*
X9891703Y-29422884D02*
X9872655Y-29422884D01*
X9872655Y-29422884D02*
X9853608Y-29413360D01*
X9853608Y-29413360D02*
X9844084Y-29403836D01*
X9844084Y-29403836D02*
X9834560Y-29384788D01*
X9834560Y-29384788D02*
X9825036Y-29346693D01*
X9825036Y-29346693D02*
X9825036Y-29299074D01*
X9825036Y-29299074D02*
X9834560Y-29260979D01*
X9834560Y-29260979D02*
X9844084Y-29241931D01*
X9844084Y-29241931D02*
X9853608Y-29232408D01*
X9853608Y-29232408D02*
X9872655Y-29222884D01*
X10025036Y-29403836D02*
X10034560Y-29413360D01*
X10034560Y-29413360D02*
X10025036Y-29422884D01*
X10025036Y-29422884D02*
X10015513Y-29413360D01*
X10015513Y-29413360D02*
X10025036Y-29403836D01*
X10025036Y-29403836D02*
X10025036Y-29422884D01*
X10158370Y-29222884D02*
X10177417Y-29222884D01*
X10177417Y-29222884D02*
X10196465Y-29232408D01*
X10196465Y-29232408D02*
X10205989Y-29241931D01*
X10205989Y-29241931D02*
X10215513Y-29260979D01*
X10215513Y-29260979D02*
X10225036Y-29299074D01*
X10225036Y-29299074D02*
X10225036Y-29346693D01*
X10225036Y-29346693D02*
X10215513Y-29384788D01*
X10215513Y-29384788D02*
X10205989Y-29403836D01*
X10205989Y-29403836D02*
X10196465Y-29413360D01*
X10196465Y-29413360D02*
X10177417Y-29422884D01*
X10177417Y-29422884D02*
X10158370Y-29422884D01*
X10158370Y-29422884D02*
X10139322Y-29413360D01*
X10139322Y-29413360D02*
X10129798Y-29403836D01*
X10129798Y-29403836D02*
X10120274Y-29384788D01*
X10120274Y-29384788D02*
X10110751Y-29346693D01*
X10110751Y-29346693D02*
X10110751Y-29299074D01*
X10110751Y-29299074D02*
X10120274Y-29260979D01*
X10120274Y-29260979D02*
X10129798Y-29241931D01*
X10129798Y-29241931D02*
X10139322Y-29232408D01*
X10139322Y-29232408D02*
X10158370Y-29222884D01*
X10291703Y-29222884D02*
X10425036Y-29222884D01*
X10425036Y-29222884D02*
X10339322Y-29422884D01*
X10539322Y-29222884D02*
X10558370Y-29222884D01*
X10558370Y-29222884D02*
X10577417Y-29232408D01*
X10577417Y-29232408D02*
X10586941Y-29241931D01*
X10586941Y-29241931D02*
X10596465Y-29260979D01*
X10596465Y-29260979D02*
X10605989Y-29299074D01*
X10605989Y-29299074D02*
X10605989Y-29346693D01*
X10605989Y-29346693D02*
X10596465Y-29384788D01*
X10596465Y-29384788D02*
X10586941Y-29403836D01*
X10586941Y-29403836D02*
X10577417Y-29413360D01*
X10577417Y-29413360D02*
X10558370Y-29422884D01*
X10558370Y-29422884D02*
X10539322Y-29422884D01*
X10539322Y-29422884D02*
X10520274Y-29413360D01*
X10520274Y-29413360D02*
X10510751Y-29403836D01*
X10510751Y-29403836D02*
X10501227Y-29384788D01*
X10501227Y-29384788D02*
X10491703Y-29346693D01*
X10491703Y-29346693D02*
X10491703Y-29299074D01*
X10491703Y-29299074D02*
X10501227Y-29260979D01*
X10501227Y-29260979D02*
X10510751Y-29241931D01*
X10510751Y-29241931D02*
X10520274Y-29232408D01*
X10520274Y-29232408D02*
X10539322Y-29222884D01*
X10701227Y-29422884D02*
X10739322Y-29422884D01*
X10739322Y-29422884D02*
X10758370Y-29413360D01*
X10758370Y-29413360D02*
X10767894Y-29403836D01*
X10767894Y-29403836D02*
X10786941Y-29375265D01*
X10786941Y-29375265D02*
X10796465Y-29337169D01*
X10796465Y-29337169D02*
X10796465Y-29260979D01*
X10796465Y-29260979D02*
X10786941Y-29241931D01*
X10786941Y-29241931D02*
X10777417Y-29232408D01*
X10777417Y-29232408D02*
X10758370Y-29222884D01*
X10758370Y-29222884D02*
X10720274Y-29222884D01*
X10720274Y-29222884D02*
X10701227Y-29232408D01*
X10701227Y-29232408D02*
X10691703Y-29241931D01*
X10691703Y-29241931D02*
X10682179Y-29260979D01*
X10682179Y-29260979D02*
X10682179Y-29308598D01*
X10682179Y-29308598D02*
X10691703Y-29327646D01*
X10691703Y-29327646D02*
X10701227Y-29337169D01*
X10701227Y-29337169D02*
X10720274Y-29346693D01*
X10720274Y-29346693D02*
X10758370Y-29346693D01*
X10758370Y-29346693D02*
X10777417Y-29337169D01*
X10777417Y-29337169D02*
X10786941Y-29327646D01*
X10786941Y-29327646D02*
X10796465Y-29308598D01*
X10872655Y-29222884D02*
X10872655Y-29260979D01*
X10948846Y-29222884D02*
X10948846Y-29260979D01*
X11244084Y-29499074D02*
X11234560Y-29489550D01*
X11234560Y-29489550D02*
X11215513Y-29460979D01*
X11215513Y-29460979D02*
X11205989Y-29441931D01*
X11205989Y-29441931D02*
X11196465Y-29413360D01*
X11196465Y-29413360D02*
X11186941Y-29365741D01*
X11186941Y-29365741D02*
X11186941Y-29327646D01*
X11186941Y-29327646D02*
X11196465Y-29280027D01*
X11196465Y-29280027D02*
X11205989Y-29251455D01*
X11205989Y-29251455D02*
X11215513Y-29232408D01*
X11215513Y-29232408D02*
X11234560Y-29203836D01*
X11234560Y-29203836D02*
X11244084Y-29194312D01*
X11425036Y-29422884D02*
X11310751Y-29422884D01*
X11367893Y-29422884D02*
X11367893Y-29222884D01*
X11367893Y-29222884D02*
X11348846Y-29251455D01*
X11348846Y-29251455D02*
X11329798Y-29270503D01*
X11329798Y-29270503D02*
X11310751Y-29280027D01*
X11539322Y-29308598D02*
X11520274Y-29299074D01*
X11520274Y-29299074D02*
X11510751Y-29289550D01*
X11510751Y-29289550D02*
X11501227Y-29270503D01*
X11501227Y-29270503D02*
X11501227Y-29260979D01*
X11501227Y-29260979D02*
X11510751Y-29241931D01*
X11510751Y-29241931D02*
X11520274Y-29232408D01*
X11520274Y-29232408D02*
X11539322Y-29222884D01*
X11539322Y-29222884D02*
X11577417Y-29222884D01*
X11577417Y-29222884D02*
X11596465Y-29232408D01*
X11596465Y-29232408D02*
X11605989Y-29241931D01*
X11605989Y-29241931D02*
X11615513Y-29260979D01*
X11615513Y-29260979D02*
X11615513Y-29270503D01*
X11615513Y-29270503D02*
X11605989Y-29289550D01*
X11605989Y-29289550D02*
X11596465Y-29299074D01*
X11596465Y-29299074D02*
X11577417Y-29308598D01*
X11577417Y-29308598D02*
X11539322Y-29308598D01*
X11539322Y-29308598D02*
X11520274Y-29318122D01*
X11520274Y-29318122D02*
X11510751Y-29327646D01*
X11510751Y-29327646D02*
X11501227Y-29346693D01*
X11501227Y-29346693D02*
X11501227Y-29384788D01*
X11501227Y-29384788D02*
X11510751Y-29403836D01*
X11510751Y-29403836D02*
X11520274Y-29413360D01*
X11520274Y-29413360D02*
X11539322Y-29422884D01*
X11539322Y-29422884D02*
X11577417Y-29422884D01*
X11577417Y-29422884D02*
X11596465Y-29413360D01*
X11596465Y-29413360D02*
X11605989Y-29403836D01*
X11605989Y-29403836D02*
X11615513Y-29384788D01*
X11615513Y-29384788D02*
X11615513Y-29346693D01*
X11615513Y-29346693D02*
X11605989Y-29327646D01*
X11605989Y-29327646D02*
X11596465Y-29318122D01*
X11596465Y-29318122D02*
X11577417Y-29308598D01*
X11853608Y-29422884D02*
X11853608Y-29222884D01*
X11939322Y-29422884D02*
X11939322Y-29318122D01*
X11939322Y-29318122D02*
X11929798Y-29299074D01*
X11929798Y-29299074D02*
X11910751Y-29289550D01*
X11910751Y-29289550D02*
X11882179Y-29289550D01*
X11882179Y-29289550D02*
X11863132Y-29299074D01*
X11863132Y-29299074D02*
X11853608Y-29308598D01*
X12063132Y-29422884D02*
X12044084Y-29413360D01*
X12044084Y-29413360D02*
X12034560Y-29403836D01*
X12034560Y-29403836D02*
X12025036Y-29384788D01*
X12025036Y-29384788D02*
X12025036Y-29327646D01*
X12025036Y-29327646D02*
X12034560Y-29308598D01*
X12034560Y-29308598D02*
X12044084Y-29299074D01*
X12044084Y-29299074D02*
X12063132Y-29289550D01*
X12063132Y-29289550D02*
X12091703Y-29289550D01*
X12091703Y-29289550D02*
X12110751Y-29299074D01*
X12110751Y-29299074D02*
X12120275Y-29308598D01*
X12120275Y-29308598D02*
X12129798Y-29327646D01*
X12129798Y-29327646D02*
X12129798Y-29384788D01*
X12129798Y-29384788D02*
X12120275Y-29403836D01*
X12120275Y-29403836D02*
X12110751Y-29413360D01*
X12110751Y-29413360D02*
X12091703Y-29422884D01*
X12091703Y-29422884D02*
X12063132Y-29422884D01*
X12244084Y-29422884D02*
X12225036Y-29413360D01*
X12225036Y-29413360D02*
X12215513Y-29394312D01*
X12215513Y-29394312D02*
X12215513Y-29222884D01*
X12396465Y-29413360D02*
X12377417Y-29422884D01*
X12377417Y-29422884D02*
X12339322Y-29422884D01*
X12339322Y-29422884D02*
X12320275Y-29413360D01*
X12320275Y-29413360D02*
X12310751Y-29394312D01*
X12310751Y-29394312D02*
X12310751Y-29318122D01*
X12310751Y-29318122D02*
X12320275Y-29299074D01*
X12320275Y-29299074D02*
X12339322Y-29289550D01*
X12339322Y-29289550D02*
X12377417Y-29289550D01*
X12377417Y-29289550D02*
X12396465Y-29299074D01*
X12396465Y-29299074D02*
X12405989Y-29318122D01*
X12405989Y-29318122D02*
X12405989Y-29337169D01*
X12405989Y-29337169D02*
X12310751Y-29356217D01*
X12482179Y-29413360D02*
X12501227Y-29422884D01*
X12501227Y-29422884D02*
X12539322Y-29422884D01*
X12539322Y-29422884D02*
X12558370Y-29413360D01*
X12558370Y-29413360D02*
X12567894Y-29394312D01*
X12567894Y-29394312D02*
X12567894Y-29384788D01*
X12567894Y-29384788D02*
X12558370Y-29365741D01*
X12558370Y-29365741D02*
X12539322Y-29356217D01*
X12539322Y-29356217D02*
X12510751Y-29356217D01*
X12510751Y-29356217D02*
X12491703Y-29346693D01*
X12491703Y-29346693D02*
X12482179Y-29327646D01*
X12482179Y-29327646D02*
X12482179Y-29318122D01*
X12482179Y-29318122D02*
X12491703Y-29299074D01*
X12491703Y-29299074D02*
X12510751Y-29289550D01*
X12510751Y-29289550D02*
X12539322Y-29289550D01*
X12539322Y-29289550D02*
X12558370Y-29299074D01*
X12634560Y-29499074D02*
X12644084Y-29489550D01*
X12644084Y-29489550D02*
X12663132Y-29460979D01*
X12663132Y-29460979D02*
X12672656Y-29441931D01*
X12672656Y-29441931D02*
X12682179Y-29413360D01*
X12682179Y-29413360D02*
X12691703Y-29365741D01*
X12691703Y-29365741D02*
X12691703Y-29327646D01*
X12691703Y-29327646D02*
X12682179Y-29280027D01*
X12682179Y-29280027D02*
X12672656Y-29251455D01*
X12672656Y-29251455D02*
X12663132Y-29232408D01*
X12663132Y-29232408D02*
X12644084Y-29203836D01*
X12644084Y-29203836D02*
X12634560Y-29194312D01*
X7639733Y-29702111D02*
X7639733Y-29560689D01*
X7498310Y-29560689D01*
X7498310Y-29702111D01*
X7639733Y-29702111D01*
X8025036Y-29522884D02*
X7929798Y-29522884D01*
X7929798Y-29522884D02*
X7920274Y-29618122D01*
X7920274Y-29618122D02*
X7929798Y-29608598D01*
X7929798Y-29608598D02*
X7948846Y-29599074D01*
X7948846Y-29599074D02*
X7996465Y-29599074D01*
X7996465Y-29599074D02*
X8015512Y-29608598D01*
X8015512Y-29608598D02*
X8025036Y-29618122D01*
X8025036Y-29618122D02*
X8034560Y-29637169D01*
X8034560Y-29637169D02*
X8034560Y-29684788D01*
X8034560Y-29684788D02*
X8025036Y-29703836D01*
X8025036Y-29703836D02*
X8015512Y-29713360D01*
X8015512Y-29713360D02*
X7996465Y-29722884D01*
X7996465Y-29722884D02*
X7948846Y-29722884D01*
X7948846Y-29722884D02*
X7929798Y-29713360D01*
X7929798Y-29713360D02*
X7920274Y-29703836D01*
X8120274Y-29703836D02*
X8129798Y-29713360D01*
X8129798Y-29713360D02*
X8120274Y-29722884D01*
X8120274Y-29722884D02*
X8110750Y-29713360D01*
X8110750Y-29713360D02*
X8120274Y-29703836D01*
X8120274Y-29703836D02*
X8120274Y-29722884D01*
X8320274Y-29722884D02*
X8205988Y-29722884D01*
X8263131Y-29722884D02*
X8263131Y-29522884D01*
X8263131Y-29522884D02*
X8244084Y-29551455D01*
X8244084Y-29551455D02*
X8225036Y-29570503D01*
X8225036Y-29570503D02*
X8205988Y-29580027D01*
X8444084Y-29522884D02*
X8463131Y-29522884D01*
X8463131Y-29522884D02*
X8482179Y-29532408D01*
X8482179Y-29532408D02*
X8491703Y-29541931D01*
X8491703Y-29541931D02*
X8501227Y-29560979D01*
X8501227Y-29560979D02*
X8510750Y-29599074D01*
X8510750Y-29599074D02*
X8510750Y-29646693D01*
X8510750Y-29646693D02*
X8501227Y-29684788D01*
X8501227Y-29684788D02*
X8491703Y-29703836D01*
X8491703Y-29703836D02*
X8482179Y-29713360D01*
X8482179Y-29713360D02*
X8463131Y-29722884D01*
X8463131Y-29722884D02*
X8444084Y-29722884D01*
X8444084Y-29722884D02*
X8425036Y-29713360D01*
X8425036Y-29713360D02*
X8415512Y-29703836D01*
X8415512Y-29703836D02*
X8405989Y-29684788D01*
X8405989Y-29684788D02*
X8396465Y-29646693D01*
X8396465Y-29646693D02*
X8396465Y-29599074D01*
X8396465Y-29599074D02*
X8405989Y-29560979D01*
X8405989Y-29560979D02*
X8415512Y-29541931D01*
X8415512Y-29541931D02*
X8425036Y-29532408D01*
X8425036Y-29532408D02*
X8444084Y-29522884D01*
X8634560Y-29522884D02*
X8653608Y-29522884D01*
X8653608Y-29522884D02*
X8672655Y-29532408D01*
X8672655Y-29532408D02*
X8682179Y-29541931D01*
X8682179Y-29541931D02*
X8691703Y-29560979D01*
X8691703Y-29560979D02*
X8701227Y-29599074D01*
X8701227Y-29599074D02*
X8701227Y-29646693D01*
X8701227Y-29646693D02*
X8691703Y-29684788D01*
X8691703Y-29684788D02*
X8682179Y-29703836D01*
X8682179Y-29703836D02*
X8672655Y-29713360D01*
X8672655Y-29713360D02*
X8653608Y-29722884D01*
X8653608Y-29722884D02*
X8634560Y-29722884D01*
X8634560Y-29722884D02*
X8615512Y-29713360D01*
X8615512Y-29713360D02*
X8605989Y-29703836D01*
X8605989Y-29703836D02*
X8596465Y-29684788D01*
X8596465Y-29684788D02*
X8586941Y-29646693D01*
X8586941Y-29646693D02*
X8586941Y-29599074D01*
X8586941Y-29599074D02*
X8596465Y-29560979D01*
X8596465Y-29560979D02*
X8605989Y-29541931D01*
X8605989Y-29541931D02*
X8615512Y-29532408D01*
X8615512Y-29532408D02*
X8634560Y-29522884D01*
X8786941Y-29722884D02*
X8786941Y-29589550D01*
X8786941Y-29608598D02*
X8796465Y-29599074D01*
X8796465Y-29599074D02*
X8815512Y-29589550D01*
X8815512Y-29589550D02*
X8844084Y-29589550D01*
X8844084Y-29589550D02*
X8863131Y-29599074D01*
X8863131Y-29599074D02*
X8872655Y-29618122D01*
X8872655Y-29618122D02*
X8872655Y-29722884D01*
X8872655Y-29618122D02*
X8882179Y-29599074D01*
X8882179Y-29599074D02*
X8901227Y-29589550D01*
X8901227Y-29589550D02*
X8929798Y-29589550D01*
X8929798Y-29589550D02*
X8948846Y-29599074D01*
X8948846Y-29599074D02*
X8958370Y-29618122D01*
X8958370Y-29618122D02*
X8958370Y-29722884D01*
X9053608Y-29722884D02*
X9053608Y-29589550D01*
X9053608Y-29608598D02*
X9063131Y-29599074D01*
X9063131Y-29599074D02*
X9082179Y-29589550D01*
X9082179Y-29589550D02*
X9110751Y-29589550D01*
X9110751Y-29589550D02*
X9129798Y-29599074D01*
X9129798Y-29599074D02*
X9139322Y-29618122D01*
X9139322Y-29618122D02*
X9139322Y-29722884D01*
X9139322Y-29618122D02*
X9148846Y-29599074D01*
X9148846Y-29599074D02*
X9167893Y-29589550D01*
X9167893Y-29589550D02*
X9196465Y-29589550D01*
X9196465Y-29589550D02*
X9215512Y-29599074D01*
X9215512Y-29599074D02*
X9225036Y-29618122D01*
X9225036Y-29618122D02*
X9225036Y-29722884D01*
X9615512Y-29513360D02*
X9444084Y-29770503D01*
X9872655Y-29522884D02*
X9891703Y-29522884D01*
X9891703Y-29522884D02*
X9910751Y-29532408D01*
X9910751Y-29532408D02*
X9920274Y-29541931D01*
X9920274Y-29541931D02*
X9929798Y-29560979D01*
X9929798Y-29560979D02*
X9939322Y-29599074D01*
X9939322Y-29599074D02*
X9939322Y-29646693D01*
X9939322Y-29646693D02*
X9929798Y-29684788D01*
X9929798Y-29684788D02*
X9920274Y-29703836D01*
X9920274Y-29703836D02*
X9910751Y-29713360D01*
X9910751Y-29713360D02*
X9891703Y-29722884D01*
X9891703Y-29722884D02*
X9872655Y-29722884D01*
X9872655Y-29722884D02*
X9853608Y-29713360D01*
X9853608Y-29713360D02*
X9844084Y-29703836D01*
X9844084Y-29703836D02*
X9834560Y-29684788D01*
X9834560Y-29684788D02*
X9825036Y-29646693D01*
X9825036Y-29646693D02*
X9825036Y-29599074D01*
X9825036Y-29599074D02*
X9834560Y-29560979D01*
X9834560Y-29560979D02*
X9844084Y-29541931D01*
X9844084Y-29541931D02*
X9853608Y-29532408D01*
X9853608Y-29532408D02*
X9872655Y-29522884D01*
X10025036Y-29703836D02*
X10034560Y-29713360D01*
X10034560Y-29713360D02*
X10025036Y-29722884D01*
X10025036Y-29722884D02*
X10015513Y-29713360D01*
X10015513Y-29713360D02*
X10025036Y-29703836D01*
X10025036Y-29703836D02*
X10025036Y-29722884D01*
X10110751Y-29541931D02*
X10120274Y-29532408D01*
X10120274Y-29532408D02*
X10139322Y-29522884D01*
X10139322Y-29522884D02*
X10186941Y-29522884D01*
X10186941Y-29522884D02*
X10205989Y-29532408D01*
X10205989Y-29532408D02*
X10215513Y-29541931D01*
X10215513Y-29541931D02*
X10225036Y-29560979D01*
X10225036Y-29560979D02*
X10225036Y-29580027D01*
X10225036Y-29580027D02*
X10215513Y-29608598D01*
X10215513Y-29608598D02*
X10101227Y-29722884D01*
X10101227Y-29722884D02*
X10225036Y-29722884D01*
X10348846Y-29522884D02*
X10367894Y-29522884D01*
X10367894Y-29522884D02*
X10386941Y-29532408D01*
X10386941Y-29532408D02*
X10396465Y-29541931D01*
X10396465Y-29541931D02*
X10405989Y-29560979D01*
X10405989Y-29560979D02*
X10415513Y-29599074D01*
X10415513Y-29599074D02*
X10415513Y-29646693D01*
X10415513Y-29646693D02*
X10405989Y-29684788D01*
X10405989Y-29684788D02*
X10396465Y-29703836D01*
X10396465Y-29703836D02*
X10386941Y-29713360D01*
X10386941Y-29713360D02*
X10367894Y-29722884D01*
X10367894Y-29722884D02*
X10348846Y-29722884D01*
X10348846Y-29722884D02*
X10329798Y-29713360D01*
X10329798Y-29713360D02*
X10320274Y-29703836D01*
X10320274Y-29703836D02*
X10310751Y-29684788D01*
X10310751Y-29684788D02*
X10301227Y-29646693D01*
X10301227Y-29646693D02*
X10301227Y-29599074D01*
X10301227Y-29599074D02*
X10310751Y-29560979D01*
X10310751Y-29560979D02*
X10320274Y-29541931D01*
X10320274Y-29541931D02*
X10329798Y-29532408D01*
X10329798Y-29532408D02*
X10348846Y-29522884D01*
X10539322Y-29522884D02*
X10558370Y-29522884D01*
X10558370Y-29522884D02*
X10577417Y-29532408D01*
X10577417Y-29532408D02*
X10586941Y-29541931D01*
X10586941Y-29541931D02*
X10596465Y-29560979D01*
X10596465Y-29560979D02*
X10605989Y-29599074D01*
X10605989Y-29599074D02*
X10605989Y-29646693D01*
X10605989Y-29646693D02*
X10596465Y-29684788D01*
X10596465Y-29684788D02*
X10586941Y-29703836D01*
X10586941Y-29703836D02*
X10577417Y-29713360D01*
X10577417Y-29713360D02*
X10558370Y-29722884D01*
X10558370Y-29722884D02*
X10539322Y-29722884D01*
X10539322Y-29722884D02*
X10520274Y-29713360D01*
X10520274Y-29713360D02*
X10510751Y-29703836D01*
X10510751Y-29703836D02*
X10501227Y-29684788D01*
X10501227Y-29684788D02*
X10491703Y-29646693D01*
X10491703Y-29646693D02*
X10491703Y-29599074D01*
X10491703Y-29599074D02*
X10501227Y-29560979D01*
X10501227Y-29560979D02*
X10510751Y-29541931D01*
X10510751Y-29541931D02*
X10520274Y-29532408D01*
X10520274Y-29532408D02*
X10539322Y-29522884D01*
X10720274Y-29608598D02*
X10701227Y-29599074D01*
X10701227Y-29599074D02*
X10691703Y-29589550D01*
X10691703Y-29589550D02*
X10682179Y-29570503D01*
X10682179Y-29570503D02*
X10682179Y-29560979D01*
X10682179Y-29560979D02*
X10691703Y-29541931D01*
X10691703Y-29541931D02*
X10701227Y-29532408D01*
X10701227Y-29532408D02*
X10720274Y-29522884D01*
X10720274Y-29522884D02*
X10758370Y-29522884D01*
X10758370Y-29522884D02*
X10777417Y-29532408D01*
X10777417Y-29532408D02*
X10786941Y-29541931D01*
X10786941Y-29541931D02*
X10796465Y-29560979D01*
X10796465Y-29560979D02*
X10796465Y-29570503D01*
X10796465Y-29570503D02*
X10786941Y-29589550D01*
X10786941Y-29589550D02*
X10777417Y-29599074D01*
X10777417Y-29599074D02*
X10758370Y-29608598D01*
X10758370Y-29608598D02*
X10720274Y-29608598D01*
X10720274Y-29608598D02*
X10701227Y-29618122D01*
X10701227Y-29618122D02*
X10691703Y-29627646D01*
X10691703Y-29627646D02*
X10682179Y-29646693D01*
X10682179Y-29646693D02*
X10682179Y-29684788D01*
X10682179Y-29684788D02*
X10691703Y-29703836D01*
X10691703Y-29703836D02*
X10701227Y-29713360D01*
X10701227Y-29713360D02*
X10720274Y-29722884D01*
X10720274Y-29722884D02*
X10758370Y-29722884D01*
X10758370Y-29722884D02*
X10777417Y-29713360D01*
X10777417Y-29713360D02*
X10786941Y-29703836D01*
X10786941Y-29703836D02*
X10796465Y-29684788D01*
X10796465Y-29684788D02*
X10796465Y-29646693D01*
X10796465Y-29646693D02*
X10786941Y-29627646D01*
X10786941Y-29627646D02*
X10777417Y-29618122D01*
X10777417Y-29618122D02*
X10758370Y-29608598D01*
X10872655Y-29522884D02*
X10872655Y-29560979D01*
X10948846Y-29522884D02*
X10948846Y-29560979D01*
X11244084Y-29799074D02*
X11234560Y-29789550D01*
X11234560Y-29789550D02*
X11215513Y-29760979D01*
X11215513Y-29760979D02*
X11205989Y-29741931D01*
X11205989Y-29741931D02*
X11196465Y-29713360D01*
X11196465Y-29713360D02*
X11186941Y-29665741D01*
X11186941Y-29665741D02*
X11186941Y-29627646D01*
X11186941Y-29627646D02*
X11196465Y-29580027D01*
X11196465Y-29580027D02*
X11205989Y-29551455D01*
X11205989Y-29551455D02*
X11215513Y-29532408D01*
X11215513Y-29532408D02*
X11234560Y-29503836D01*
X11234560Y-29503836D02*
X11244084Y-29494312D01*
X11310751Y-29541931D02*
X11320274Y-29532408D01*
X11320274Y-29532408D02*
X11339322Y-29522884D01*
X11339322Y-29522884D02*
X11386941Y-29522884D01*
X11386941Y-29522884D02*
X11405989Y-29532408D01*
X11405989Y-29532408D02*
X11415513Y-29541931D01*
X11415513Y-29541931D02*
X11425036Y-29560979D01*
X11425036Y-29560979D02*
X11425036Y-29580027D01*
X11425036Y-29580027D02*
X11415513Y-29608598D01*
X11415513Y-29608598D02*
X11301227Y-29722884D01*
X11301227Y-29722884D02*
X11425036Y-29722884D01*
X11596465Y-29589550D02*
X11596465Y-29722884D01*
X11548846Y-29513360D02*
X11501227Y-29656217D01*
X11501227Y-29656217D02*
X11625036Y-29656217D01*
X11853608Y-29722884D02*
X11853608Y-29522884D01*
X11939322Y-29722884D02*
X11939322Y-29618122D01*
X11939322Y-29618122D02*
X11929798Y-29599074D01*
X11929798Y-29599074D02*
X11910751Y-29589550D01*
X11910751Y-29589550D02*
X11882179Y-29589550D01*
X11882179Y-29589550D02*
X11863132Y-29599074D01*
X11863132Y-29599074D02*
X11853608Y-29608598D01*
X12063132Y-29722884D02*
X12044084Y-29713360D01*
X12044084Y-29713360D02*
X12034560Y-29703836D01*
X12034560Y-29703836D02*
X12025036Y-29684788D01*
X12025036Y-29684788D02*
X12025036Y-29627646D01*
X12025036Y-29627646D02*
X12034560Y-29608598D01*
X12034560Y-29608598D02*
X12044084Y-29599074D01*
X12044084Y-29599074D02*
X12063132Y-29589550D01*
X12063132Y-29589550D02*
X12091703Y-29589550D01*
X12091703Y-29589550D02*
X12110751Y-29599074D01*
X12110751Y-29599074D02*
X12120275Y-29608598D01*
X12120275Y-29608598D02*
X12129798Y-29627646D01*
X12129798Y-29627646D02*
X12129798Y-29684788D01*
X12129798Y-29684788D02*
X12120275Y-29703836D01*
X12120275Y-29703836D02*
X12110751Y-29713360D01*
X12110751Y-29713360D02*
X12091703Y-29722884D01*
X12091703Y-29722884D02*
X12063132Y-29722884D01*
X12244084Y-29722884D02*
X12225036Y-29713360D01*
X12225036Y-29713360D02*
X12215513Y-29694312D01*
X12215513Y-29694312D02*
X12215513Y-29522884D01*
X12396465Y-29713360D02*
X12377417Y-29722884D01*
X12377417Y-29722884D02*
X12339322Y-29722884D01*
X12339322Y-29722884D02*
X12320275Y-29713360D01*
X12320275Y-29713360D02*
X12310751Y-29694312D01*
X12310751Y-29694312D02*
X12310751Y-29618122D01*
X12310751Y-29618122D02*
X12320275Y-29599074D01*
X12320275Y-29599074D02*
X12339322Y-29589550D01*
X12339322Y-29589550D02*
X12377417Y-29589550D01*
X12377417Y-29589550D02*
X12396465Y-29599074D01*
X12396465Y-29599074D02*
X12405989Y-29618122D01*
X12405989Y-29618122D02*
X12405989Y-29637169D01*
X12405989Y-29637169D02*
X12310751Y-29656217D01*
X12482179Y-29713360D02*
X12501227Y-29722884D01*
X12501227Y-29722884D02*
X12539322Y-29722884D01*
X12539322Y-29722884D02*
X12558370Y-29713360D01*
X12558370Y-29713360D02*
X12567894Y-29694312D01*
X12567894Y-29694312D02*
X12567894Y-29684788D01*
X12567894Y-29684788D02*
X12558370Y-29665741D01*
X12558370Y-29665741D02*
X12539322Y-29656217D01*
X12539322Y-29656217D02*
X12510751Y-29656217D01*
X12510751Y-29656217D02*
X12491703Y-29646693D01*
X12491703Y-29646693D02*
X12482179Y-29627646D01*
X12482179Y-29627646D02*
X12482179Y-29618122D01*
X12482179Y-29618122D02*
X12491703Y-29599074D01*
X12491703Y-29599074D02*
X12510751Y-29589550D01*
X12510751Y-29589550D02*
X12539322Y-29589550D01*
X12539322Y-29589550D02*
X12558370Y-29599074D01*
X12634560Y-29799074D02*
X12644084Y-29789550D01*
X12644084Y-29789550D02*
X12663132Y-29760979D01*
X12663132Y-29760979D02*
X12672656Y-29741931D01*
X12672656Y-29741931D02*
X12682179Y-29713360D01*
X12682179Y-29713360D02*
X12691703Y-29665741D01*
X12691703Y-29665741D02*
X12691703Y-29627646D01*
X12691703Y-29627646D02*
X12682179Y-29580027D01*
X12682179Y-29580027D02*
X12672656Y-29551455D01*
X12672656Y-29551455D02*
X12663132Y-29532408D01*
X12663132Y-29532408D02*
X12644084Y-29503836D01*
X12644084Y-29503836D02*
X12634560Y-29494312D01*
M02*
