M48
; DRILL file {KiCad 8.0.5} date 2025-12-20T20:43:59-0800
; FORMAT={-:-/ absolute / metric / decimal}
; #@! TF.CreationDate,2025-12-20T20:43:59-08:00
; #@! TF.GenerationSoftware,Kicad,Pcbnew,8.0.5
; #@! TF.FileFunction,Plated,1,2,PTH
FMAT,2
METRIC
; #@! TA.AperFunction,Plated,PTH,ComponentDrill
T1C1.100
; #@! TA.AperFunction,Plated,PTH,ComponentDrill
T2C1.300
; #@! TA.AperFunction,Plated,PTH,ComponentDrill
T3C1.800
; #@! TA.AperFunction,Plated,PTH,ComponentDrill
T4C5.100
%
G90
G05
T1
X131.71Y-268.15
X131.71Y-270.15
X131.71Y-272.15
X131.71Y-274.15
X131.71Y-276.15
X133.71Y-268.15
X133.71Y-276.15
X135.71Y-268.15
X135.71Y-276.15
X137.71Y-268.15
X137.71Y-276.15
X139.71Y-268.15
X139.71Y-270.15
X139.71Y-272.15
X139.71Y-274.15
X139.71Y-276.15
X170.72Y-268.08
X170.72Y-270.08
X170.72Y-272.08
X170.72Y-274.08
X170.72Y-276.08
X172.72Y-268.08
X172.72Y-276.08
X174.72Y-268.08
X174.72Y-276.08
X176.72Y-268.08
X176.72Y-276.08
X178.72Y-268.08
X178.72Y-270.08
X178.72Y-272.08
X178.72Y-274.08
X178.72Y-276.08
T2
X119.945Y-267.787
X119.945Y-275.988
X189.675Y-267.875
X189.675Y-276.075
T3
X205.16Y-265.645
X205.16Y-271.145
X209.36Y-265.645
X209.36Y-271.145
X213.56Y-265.645
X213.56Y-271.145
X217.76Y-265.645
X217.76Y-271.145
X221.96Y-265.645
X221.96Y-271.145
X226.16Y-265.645
X226.16Y-271.145
X230.36Y-265.645
X230.36Y-271.145
X234.56Y-265.645
X234.56Y-271.145
X238.76Y-265.645
X238.76Y-271.145
T4
X97.529Y-99.751
X97.529Y-127.885
X97.529Y-156.019
X97.529Y-184.153
X97.529Y-212.287
X97.529Y-240.421
X148.629Y-99.751
X148.629Y-127.885
X148.629Y-156.019
X148.629Y-184.153
X148.629Y-212.287
X148.629Y-240.421
X179.929Y-99.751
X179.929Y-127.885
X179.929Y-156.019
X179.929Y-184.153
X179.929Y-212.287
X179.929Y-240.421
X231.029Y-99.751
X231.029Y-127.885
X231.029Y-156.019
X231.029Y-184.153
X231.029Y-212.287
X231.029Y-240.421
M30
